<svg xmlns="http://www.w3.org/2000/svg" xmlns:xlink="http://www.w3.org/1999/xlink" version="1.2"   viewBox="0.0000 -0.0000 82.3456 95.23435">
<style type="text/css">
<![CDATA[
tspan { white-space: pre; }
]]>
</style>
<g transform="translate(0.0000, 6.1075)">
<line stroke-linejoin="round" stroke-linecap="round" stroke-width="0.0558" stroke="currentColor" x1="0.0279" y1="0" x2="82.3177" y2="0"/>
</g>
<g transform="translate(0.0000, 5.1075)">
<line stroke-linejoin="round" stroke-linecap="round" stroke-width="0.0558" stroke="currentColor" x1="0.0279" y1="0" x2="82.3177" y2="0"/>
</g>
<g transform="translate(0.0000, 4.1075)">
<line stroke-linejoin="round" stroke-linecap="round" stroke-width="0.0558" stroke="currentColor" x1="0.0279" y1="0" x2="82.3177" y2="0"/>
</g>
<g transform="translate(0.0000, 3.1075)">
<line stroke-linejoin="round" stroke-linecap="round" stroke-width="0.0558" stroke="currentColor" x1="0.0279" y1="0" x2="82.3177" y2="0"/>
</g>
<g transform="translate(0.0000, 2.1075)">
<line stroke-linejoin="round" stroke-linecap="round" stroke-width="0.0558" stroke="currentColor" x1="0.0279" y1="0" x2="82.3177" y2="0"/>
</g>
<g transform="translate(82.1336, 4.1075)">
<rect x="0.0000" y="-1.0000" width="0.2120" height="2.0000" ry="0.0000" fill="currentColor"/>
</g>
<g transform="translate(60.0819, 4.1075)">
<rect x="0.0000" y="-1.0000" width="0.2120" height="2.0000" ry="0.0000" fill="currentColor"/>
</g>
<g transform="translate(0.0000, 7.1075)">
<rect x="8.3663" y="-0.0779" width="1.9542" height="0.1558" ry="0.0779" fill="currentColor"/>
</g>
<g transform="translate(61.1019, 9.8690)">
<text font-family="Ubuntu Sans" font-size="2.4690" text-anchor="start" fill="currentColor">
<tspan>vi</tspan>
</text>
</g>
<g transform="translate(47.5576, 4.6075)">
<path transform="scale(0.0040, -0.0040)" d="M215 137c67 0 111 -37 111 -92c0 -90 -111 -182 -215 -182c-67 0 -111 37 -111 92c0 90 111 182 215 182z" fill="currentColor"/>
</g>
<g transform="translate(64.7975, 5.1075)">
<path transform="scale(0.0040, -0.0040)" d="M215 137c67 0 111 -37 111 -92c0 -90 -111 -182 -215 -182c-67 0 -111 37 -111 92c0 90 111 182 215 182z" fill="currentColor"/>
</g>
<g transform="translate(64.3242, 9.8690)">
<text font-family="Ubuntu Sans" font-size="2.4690" text-anchor="start" fill="currentColor">
<tspan>ta</tspan>
</text>
</g>
<g transform="translate(68.4037, 4.6075)">
<path transform="scale(0.0040, -0.0040)" d="M215 137c67 0 111 -37 111 -92c0 -90 -111 -182 -215 -182c-67 0 -111 37 -111 92c0 90 111 182 215 182z" fill="currentColor"/>
</g>
<g transform="translate(46.4617, 9.8690)">
<text font-family="Ubuntu Sans" font-size="2.4690" text-anchor="start" fill="currentColor">
<tspan>cor</tspan>
</text>
</g>
<g transform="translate(51.1638, 5.1075)">
<path transform="scale(0.0040, -0.0040)" d="M215 137c67 0 111 -37 111 -92c0 -90 -111 -182 -215 -182c-67 0 -111 37 -111 92c0 90 111 182 215 182z" fill="currentColor"/>
</g>
<g transform="translate(50.7909, 9.8690)">
<text font-family="Ubuntu Sans" font-size="2.4690" text-anchor="start" fill="currentColor">
<tspan>di</tspan>
</text>
</g>
<g transform="translate(74.5507, 9.8690)">
<rect x="0.0000" y="-0.5651" width="0.6600" height="0.1451" ry="0.0446" fill="currentColor"/>
</g>
<g transform="translate(54.7701, 5.1075)">
<path transform="scale(0.0040, -0.0040)" d="M312 64c0 23 -18 41 -41 41c-39 0 -201 -110 -228 -142c-7 -8 -10 -17 -10 -27c0 -23 18 -41 41 -41c39 0 201 110 228 142c7 8 10 17 10 27zM259 137c46 0 86 -17 86 -74c0 -26 -15 -112 -73 -151c-29 -20 -89 -49 -186 -49c-46 0 -86 17 -86 74c0 26 16 112 74 151
c29 20 88 49 185 49z" fill="currentColor"/>
</g>
<g transform="translate(54.0946, 9.8690)">
<text font-family="Ubuntu Sans" font-size="2.4690" text-anchor="start" fill="currentColor">
<tspan>æ,</tspan>
</text>
</g>
<g transform="translate(61.3543, 3.6075)">
<path transform="scale(0.0040, -0.0040)" d="M215 137c67 0 111 -37 111 -92c0 -90 -111 -182 -215 -182c-67 0 -111 37 -111 92c0 90 111 182 215 182z" fill="currentColor"/>
</g>
<g transform="translate(11.0201, 9.8690)">
<rect x="0.0000" y="-0.5651" width="0.5228" height="0.1451" ry="0.0446" fill="currentColor"/>
</g>
<g transform="translate(18.7499, 9.8690)">
<rect x="0.0000" y="-0.5651" width="0.6600" height="0.1451" ry="0.0446" fill="currentColor"/>
</g>
<g transform="translate(21.8332, 9.8690)">
<rect x="0.0000" y="-0.5651" width="0.6600" height="0.1451" ry="0.0446" fill="currentColor"/>
</g>
<g transform="translate(31.8455, 9.8690)">
<rect x="0.0000" y="-0.5651" width="0.3000" height="0.1451" ry="0.0446" fill="currentColor"/>
</g>
<g transform="translate(38.9438, 9.8690)">
<rect x="0.0000" y="-0.5651" width="0.6600" height="0.1451" ry="0.0446" fill="currentColor"/>
</g>
<g transform="translate(42.7006, 9.8690)">
<rect x="0.0000" y="-0.5651" width="0.6600" height="0.1451" ry="0.0446" fill="currentColor"/>
</g>
<g transform="translate(45.5838, 9.8690)">
<rect x="0.0000" y="-0.5651" width="0.6600" height="0.1451" ry="0.0446" fill="currentColor"/>
</g>
<g transform="translate(50.0436, 9.8690)">
<rect x="0.0000" y="-0.5651" width="0.6600" height="0.1451" ry="0.0446" fill="currentColor"/>
</g>
<g transform="translate(53.1371, 9.8690)">
<rect x="0.0000" y="-0.5651" width="0.6600" height="0.1451" ry="0.0446" fill="currentColor"/>
</g>
<g transform="translate(63.2869, 9.8690)">
<rect x="0.0000" y="-0.5651" width="0.6600" height="0.1451" ry="0.0446" fill="currentColor"/>
</g>
<g transform="translate(70.8538, 9.8690)">
<rect x="0.0000" y="-0.5651" width="0.3000" height="0.1451" ry="0.0446" fill="currentColor"/>
</g>
<g transform="translate(76.8218, 6.6075)">
<path transform="scale(0.0040, -0.0040)" d="M312 64c0 23 -18 41 -41 41c-39 0 -201 -110 -228 -142c-7 -8 -10 -17 -10 -27c0 -23 18 -41 41 -41c39 0 201 110 228 142c7 8 10 17 10 27zM259 137c46 0 86 -17 86 -74c0 -26 -15 -112 -73 -151c-29 -20 -89 -49 -186 -49c-46 0 -86 17 -86 74c0 26 16 112 74 151
c29 20 88 49 185 49z" fill="currentColor"/>
</g>
<g transform="translate(71.7600, 5.6075)">
<path transform="scale(0.0040, -0.0040)" d="M312 64c0 23 -18 41 -41 41c-39 0 -201 -110 -228 -142c-7 -8 -10 -17 -10 -27c0 -23 18 -41 41 -41c39 0 201 110 228 142c7 8 10 17 10 27zM259 137c46 0 86 -17 86 -74c0 -26 -15 -112 -73 -151c-29 -20 -89 -49 -186 -49c-46 0 -86 17 -86 74c0 26 16 112 74 151
c29 20 88 49 185 49z" fill="currentColor"/>
</g>
<g transform="translate(71.2050, 9.8690)">
<text font-family="Ubuntu Sans" font-size="2.4690" text-anchor="start" fill="currentColor">
<tspan>ce</tspan>
</text>
</g>
<g transform="translate(67.3078, 9.8690)">
<text font-family="Ubuntu Sans" font-size="2.4690" text-anchor="start" fill="currentColor">
<tspan>dul</tspan>
</text>
</g>
<g transform="translate(76.0660, 9.8690)">
<text font-family="Ubuntu Sans" font-size="2.4690" text-anchor="start" fill="currentColor">
<tspan>do</tspan>
</text>
</g>
<g transform="translate(11.6129, 9.8690)">
<text font-family="Ubuntu Sans" font-size="2.4690" text-anchor="start" fill="currentColor">
<tspan>ve,</tspan>
</text>
</g>
<g transform="translate(16.4044, 5.1075)">
<path transform="scale(0.0040, -0.0040)" d="M215 137c67 0 111 -37 111 -92c0 -90 -111 -182 -215 -182c-67 0 -111 37 -111 92c0 90 111 182 215 182z" fill="currentColor"/>
</g>
<g transform="translate(15.6097, 9.8690)">
<text font-family="Ubuntu Sans" font-size="2.4690" text-anchor="start" fill="currentColor">
<tspan>Re</tspan>
</text>
</g>
<g transform="translate(12.5482, 6.1075)">
<path transform="scale(0.0040, -0.0040)" d="M215 137c67 0 111 -37 111 -92c0 -90 -111 -182 -215 -182c-67 0 -111 37 -111 92c0 90 111 182 215 182z" fill="currentColor"/>
</g>
<g transform="translate(20.0106, 4.6075)">
<path transform="scale(0.0040, -0.0040)" d="M215 137c67 0 111 -37 111 -92c0 -90 -111 -182 -215 -182c-67 0 -111 37 -111 92c0 90 111 182 215 182z" fill="currentColor"/>
</g>
<g transform="translate(19.6578, 9.8690)">
<text font-family="Ubuntu Sans" font-size="2.4690" text-anchor="start" fill="currentColor">
<tspan>gi</tspan>
</text>
</g>
<g transform="translate(22.6602, 9.8690)">
<text font-family="Ubuntu Sans" font-size="2.4690" text-anchor="start" fill="currentColor">
<tspan>na,</tspan>
</text>
</g>
<g transform="translate(8.6920, 7.1075)">
<path transform="scale(0.0040, -0.0040)" d="M215 137c67 0 111 -37 111 -92c0 -90 -111 -182 -215 -182c-67 0 -111 37 -111 92c0 90 111 182 215 182z" fill="currentColor"/>
</g>
<g transform="translate(0.8000, 5.1075)">
<path transform="scale(0.0040, -0.0040)" d="M646 2c0 -113 -74 -213 -180 -247c3 -34 5 -68 5 -102c0 -20 -1 -40 -2 -60c-7 -121 -91 -228 -209 -228c-108 0 -196 87 -196 196c0 58 53 104 112 104c54 0 95 -48 95 -104c0 -52 -43 -95 -95 -95c-10 0 -20 2 -29 6c26 -38 68 -63 116 -63h3c93 2 153 92 159 190
c1 19 2 37 2 56c0 30 -2 60 -4 90c-5 -1 -43 -8 -88 -8c-194 0 -333 180 -333 375c0 177 130 307 246 442c-31 98 -53 170 -53 347c0 115 55 223 148 290c7 5 16 4 22 -1c68 -80 134 -243 134 -357c0 -143 -85 -255 -178 -364c21 -68 40 -137 57 -206c1 0 5 1 11 1
c156 0 257 -129 257 -262zM462 -202c66 24 111 88 111 162c0 89 -65 178 -170 190c28 -135 50 -272 59 -352zM75 26c0 -145 141 -245 263 -245c1 0 46 0 81 6c-7 65 -27 206 -61 363c-79 -8 -124 -61 -124 -119c0 -43 25 -89 80 -121c5 -5 7 -11 7 -16
c0 -12 -10 -23 -22 -23c-16 0 -127 63 -127 188c0 89 58 175 161 198c-14 58 -29 116 -46 173c-106 -122 -212 -244 -212 -404zM406 1042c-99 -47 -162 -148 -162 -257c0 -49 13 -111 38 -191c79 97 144 199 144 324c0 33 0 63 -20 124z" fill="currentColor"/>
</g>
<g transform="translate(5.0000, 4.1075)">
<path transform="scale(0.0040, -0.0040)" d="M358 29c-30 0 -74 23 -74 73c0 38 27 76 71 76c4 0 7 0 11 -1c-27 36 -69 59 -116 59c-106 0 -113 -74 -113 -188c0 -15 1 -31 1 -48s-1 -33 -1 -48c0 -114 7 -188 113 -188c79 0 136 70 155 150c2 7 7 10 13 10c7 0 14 -5 14 -13c0 -21 -50 -175 -182 -175
c-59 0 -250 20 -250 264c0 63 18 264 250 264c115 0 174 -109 174 -165c0 -39 -30 -70 -66 -70z" fill="currentColor"/>
</g>
<g transform="translate(7.7366, 9.8690)">
<text font-family="Ubuntu Sans" font-size="2.4690" text-anchor="start" fill="currentColor">
<tspan>Sal</tspan>
</text>
</g>
<g transform="translate(23.6169, 5.1075)">
<path transform="scale(0.0040, -0.0040)" d="M312 64c0 23 -18 41 -41 41c-39 0 -201 -110 -228 -142c-7 -8 -10 -17 -10 -27c0 -23 18 -41 41 -41c39 0 201 110 228 142c7 8 10 17 10 27zM259 137c46 0 86 -17 86 -74c0 -26 -15 -112 -73 -151c-29 -20 -89 -49 -186 -49c-46 0 -86 17 -86 74c0 26 16 112 74 151
c29 20 88 49 185 49z" fill="currentColor"/>
</g>
<g transform="translate(39.7714, 9.8690)">
<text font-family="Ubuntu Sans" font-size="2.4690" text-anchor="start" fill="currentColor">
<tspan>se</tspan>
</text>
</g>
<g transform="translate(36.7591, 4.1075)">
<path transform="scale(0.0040, -0.0040)" d="M215 137c67 0 111 -37 111 -92c0 -90 -111 -182 -215 -182c-67 0 -111 37 -111 92c0 90 111 182 215 182z" fill="currentColor"/>
</g>
<g transform="translate(36.0448, 9.8690)">
<text font-family="Ubuntu Sans" font-size="2.4690" text-anchor="start" fill="currentColor">
<tspan>mi</tspan>
</text>
</g>
<g transform="translate(40.3452, 4.6075)">
<path transform="scale(0.0040, -0.0040)" d="M215 137c67 0 111 -37 111 -92c0 -90 -111 -182 -215 -182c-67 0 -111 37 -111 92c0 90 111 182 215 182z" fill="currentColor"/>
</g>
<g transform="translate(43.9514, 5.1075)">
<path transform="scale(0.0040, -0.0040)" d="M215 137c67 0 111 -37 111 -92c0 -90 -111 -182 -215 -182c-67 0 -111 37 -111 92c0 90 111 182 215 182z" fill="currentColor"/>
</g>
<g transform="translate(43.8396, 9.8690)">
<text font-family="Ubuntu Sans" font-size="2.4690" text-anchor="start" fill="currentColor">
<tspan>ri</tspan>
</text>
</g>
<g color="rgb(50.0000%, 0.0000%, 0.0000%)">
<g transform="translate(26.1541, 9.8690)">
<text font-family="serif" font-weight="bold" font-size="2.4690" text-anchor="start" fill="currentColor">
<tspan>*</tspan>
</text>
</g>
</g>
<g transform="translate(28.3993, 9.8690)">
<text font-family="Ubuntu Sans" font-size="2.4690" text-anchor="start" fill="currentColor">
<tspan>ma</tspan>
</text>
</g>
<g transform="translate(33.1529, 3.6075)">
<path transform="scale(0.0040, -0.0040)" d="M215 137c67 0 111 -37 111 -92c0 -90 -111 -182 -215 -182c-67 0 -111 37 -111 92c0 90 111 182 215 182z" fill="currentColor"/>
</g>
<g transform="translate(29.4550, 4.6075)">
<path transform="scale(0.0040, -0.0040)" d="M215 137c67 0 111 -37 111 -92c0 -90 -111 -182 -215 -182c-67 0 -111 37 -111 92c0 90 111 182 215 182z" fill="currentColor"/>
</g>
<g transform="translate(32.1775, 9.8690)">
<text font-family="Ubuntu Sans" font-size="2.4690" text-anchor="start" fill="currentColor">
<tspan>ter</tspan>
</text>
</g>
<g transform="translate(0.0000, 18.1075)">
<line stroke-linejoin="round" stroke-linecap="round" stroke-width="0.0558" stroke="currentColor" x1="0.0279" y1="0" x2="82.3177" y2="0"/>
</g>
<g transform="translate(0.0000, 17.1075)">
<line stroke-linejoin="round" stroke-linecap="round" stroke-width="0.0558" stroke="currentColor" x1="0.0279" y1="0" x2="82.3177" y2="0"/>
</g>
<g transform="translate(0.0000, 16.1075)">
<line stroke-linejoin="round" stroke-linecap="round" stroke-width="0.0558" stroke="currentColor" x1="0.0279" y1="0" x2="82.3177" y2="0"/>
</g>
<g transform="translate(0.0000, 15.1075)">
<line stroke-linejoin="round" stroke-linecap="round" stroke-width="0.0558" stroke="currentColor" x1="0.0279" y1="0" x2="82.3177" y2="0"/>
</g>
<g transform="translate(0.0000, 14.1075)">
<line stroke-linejoin="round" stroke-linecap="round" stroke-width="0.0558" stroke="currentColor" x1="0.0279" y1="0" x2="82.3177" y2="0"/>
</g>
<g transform="translate(0.0000, 19.1075)">
<rect x="38.2964" y="-0.0779" width="2.0709" height="0.1558" ry="0.0779" fill="currentColor"/>
</g>
<g transform="translate(82.1336, 16.1075)">
<rect x="0.0000" y="-1.0000" width="0.2120" height="2.0000" ry="0.0000" fill="currentColor"/>
</g>
<g transform="translate(50.1054, 16.1075)">
<rect x="0.0000" y="-2.0000" width="0.2120" height="4.0000" ry="0.0000" fill="currentColor"/>
</g>
<g transform="translate(57.3463, 16.6075)">
<path transform="scale(0.0040, -0.0040)" d="M215 137c67 0 111 -37 111 -92c0 -90 -111 -182 -215 -182c-67 0 -111 37 -111 92c0 90 111 182 215 182z" fill="currentColor"/>
</g>
<g transform="translate(56.8328, 22.6002)">
<text font-family="Ubuntu Sans" font-size="2.4690" text-anchor="start" fill="currentColor">
<tspan>te</tspan>
</text>
</g>
<g transform="translate(62.8401, 16.1075)">
<path transform="scale(0.0040, -0.0040)" d="M215 137c67 0 111 -37 111 -92c0 -90 -111 -182 -215 -182c-67 0 -111 37 -111 92c0 90 111 182 215 182z" fill="currentColor"/>
</g>
<g transform="translate(61.9450, 22.6002)">
<text font-family="Ubuntu Sans" font-size="2.4690" text-anchor="start" fill="currentColor">
<tspan>cla</tspan>
</text>
</g>
<g transform="translate(47.1404, 16.1075)">
<path transform="scale(0.0040, -0.0040)" d="M70 205c80 0 46 -97 90 -97c15 0 52 45 59 59c6 13 26 13 31 0l-121 -417c-9 -7 -19 -11 -30 -11s-21 4 -30 11l118 326c-33 -12 -68 -22 -103 -22c-47 0 -87 34 -87 79c0 40 33 72 73 72z" fill="currentColor"/>
</g>
<g transform="translate(50.9977, 22.6002)">
<text font-family="Ubuntu Sans" font-size="2.4690" text-anchor="start" fill="currentColor">
<tspan>Ad</tspan>
</text>
</g>
<g transform="translate(51.8727, 17.1075)">
<path transform="scale(0.0040, -0.0040)" d="M215 137c67 0 111 -37 111 -92c0 -90 -111 -182 -215 -182c-67 0 -111 37 -111 92c0 90 111 182 215 182z" fill="currentColor"/>
</g>
<g transform="translate(70.8632, 22.6002)">
<rect x="0.0000" y="-0.5651" width="0.6600" height="0.1451" ry="0.0446" fill="currentColor"/>
</g>
<g transform="translate(65.8180, 22.6002)">
<rect x="0.0000" y="-0.5651" width="0.6600" height="0.1451" ry="0.0446" fill="currentColor"/>
</g>
<g transform="translate(33.8961, 22.6002)">
<rect x="0.0000" y="-0.5651" width="0.6600" height="0.1451" ry="0.0446" fill="currentColor"/>
</g>
<g transform="translate(27.6944, 16.1075)">
<path stroke-width="0.0446" stroke-linejoin="round" stroke-linecap="round" stroke="currentColor" fill="currentColor" d="M0.6119 3.0486C1.7369 4.2379 4.7637 4.5143 6.0855 3.5486L6.0855 3.5486C4.7698 4.4477 1.7430 4.1712 0.6119 3.0486z"/>
</g>
<g transform="translate(19.4283, 22.6002)">
<rect x="0.0000" y="-0.5651" width="0.6600" height="0.1451" ry="0.0446" fill="currentColor"/>
</g>
<g transform="translate(71.7141, 22.6002)">
<text font-family="Ubuntu Sans" font-size="2.4690" text-anchor="start" fill="currentColor">
<tspan>mus,</tspan>
</text>
</g>
<g transform="translate(73.6347, 17.1075)">
<path transform="scale(0.0040, -0.0040)" d="M312 64c0 23 -18 41 -41 41c-39 0 -201 -110 -228 -142c-7 -8 -10 -17 -10 -27c0 -23 18 -41 41 -41c39 0 201 110 228 142c7 8 10 17 10 27zM259 137c46 0 86 -17 86 -74c0 -26 -15 -112 -73 -151c-29 -20 -89 -49 -186 -49c-46 0 -86 17 -86 74c0 26 16 112 74 151
c29 20 88 49 185 49z" fill="currentColor"/>
</g>
<g transform="translate(67.2579, 22.6002)">
<text font-family="Ubuntu Sans" font-size="2.4690" text-anchor="start" fill="currentColor">
<tspan>ma</tspan>
</text>
</g>
<g transform="translate(68.3137, 15.6075)">
<path transform="scale(0.0040, -0.0040)" d="M215 137c67 0 111 -37 111 -92c0 -90 -111 -182 -215 -182c-67 0 -111 37 -111 92c0 90 111 182 215 182z" fill="currentColor"/>
</g>
<g transform="translate(9.6845, 22.6002)">
<text font-family="Ubuntu Sans" font-size="2.4690" text-anchor="start" fill="currentColor">
<tspan>spes</tspan>
</text>
</g>
<g transform="translate(5.8000, 18.6075)">
<path transform="scale(0.0040, -0.0040)" d="M215 137c67 0 111 -37 111 -92c0 -90 -111 -182 -215 -182c-67 0 -111 37 -111 92c0 90 111 182 215 182z" fill="currentColor"/>
</g>
<g transform="translate(5.2865, 22.6002)">
<text font-family="Ubuntu Sans" font-size="2.4690" text-anchor="start" fill="currentColor">
<tspan>et</tspan>
</text>
</g>
<g transform="translate(11.5236, 17.6075)">
<path transform="scale(0.0040, -0.0040)" d="M215 137c67 0 111 -37 111 -92c0 -90 -111 -182 -215 -182c-67 0 -111 37 -111 92c0 90 111 182 215 182z" fill="currentColor"/>
</g>
<g transform="translate(16.2226, 22.6002)">
<text font-family="Ubuntu Sans" font-size="2.4690" text-anchor="start" fill="currentColor">
<tspan>no</tspan>
</text>
</g>
<g transform="translate(16.9972, 17.1075)">
<path transform="scale(0.0040, -0.0040)" d="M215 137c67 0 111 -37 111 -92c0 -90 -111 -182 -215 -182c-67 0 -111 37 -111 92c0 90 111 182 215 182z" fill="currentColor"/>
</g>
<g transform="translate(0.8000, 17.1075)">
<path transform="scale(0.0040, -0.0040)" d="M646 2c0 -113 -74 -213 -180 -247c3 -34 5 -68 5 -102c0 -20 -1 -40 -2 -60c-7 -121 -91 -228 -209 -228c-108 0 -196 87 -196 196c0 58 53 104 112 104c54 0 95 -48 95 -104c0 -52 -43 -95 -95 -95c-10 0 -20 2 -29 6c26 -38 68 -63 116 -63h3c93 2 153 92 159 190
c1 19 2 37 2 56c0 30 -2 60 -4 90c-5 -1 -43 -8 -88 -8c-194 0 -333 180 -333 375c0 177 130 307 246 442c-31 98 -53 170 -53 347c0 115 55 223 148 290c7 5 16 4 22 -1c68 -80 134 -243 134 -357c0 -143 -85 -255 -178 -364c21 -68 40 -137 57 -206c1 0 5 1 11 1
c156 0 257 -129 257 -262zM462 -202c66 24 111 88 111 162c0 89 -65 178 -170 190c28 -135 50 -272 59 -352zM75 26c0 -145 141 -245 263 -245c1 0 46 0 81 6c-7 65 -27 206 -61 363c-79 -8 -124 -61 -124 -119c0 -43 25 -89 80 -121c5 -5 7 -11 7 -16
c0 -12 -10 -23 -22 -23c-16 0 -127 63 -127 188c0 89 58 175 161 198c-14 58 -29 116 -46 173c-106 -122 -212 -244 -212 -404zM406 1042c-99 -47 -162 -148 -162 -257c0 -49 13 -111 38 -191c79 97 144 199 144 324c0 33 0 63 -20 124z" fill="currentColor"/>
</g>
<g transform="translate(27.6944, 22.6002)">
<text font-family="Ubuntu Sans" font-size="2.4690" text-anchor="start" fill="currentColor">
<tspan>sal</tspan>
</text>
</g>
<g transform="translate(33.1680, 18.6075)">
<path transform="scale(0.0040, -0.0040)" d="M215 137c67 0 111 -37 111 -92c0 -90 -111 -182 -215 -182c-67 0 -111 37 -111 92c0 90 111 182 215 182z" fill="currentColor"/>
</g>
<g transform="translate(38.6416, 19.1075)">
<path transform="scale(0.0040, -0.0040)" d="M312 64c0 23 -18 41 -41 41c-39 0 -201 -110 -228 -142c-7 -8 -10 -17 -10 -27c0 -23 18 -41 41 -41c39 0 201 110 228 142c7 8 10 17 10 27zM259 137c46 0 86 -17 86 -74c0 -26 -15 -112 -73 -151c-29 -20 -89 -49 -186 -49c-46 0 -86 17 -86 74c0 26 16 112 74 151
c29 20 88 49 185 49z" fill="currentColor"/>
</g>
<g transform="translate(37.7452, 22.6002)">
<text font-family="Ubuntu Sans" font-size="2.4690" text-anchor="start" fill="currentColor">
<tspan>ve.</tspan>
</text>
</g>
<g transform="translate(20.4420, 22.6002)">
<text font-family="Ubuntu Sans" font-size="2.4690" text-anchor="start" fill="currentColor">
<tspan>stra,</tspan>
</text>
</g>
<g transform="translate(22.2208, 18.1075)">
<path transform="scale(0.0040, -0.0040)" d="M215 137c67 0 111 -37 111 -92c0 -90 -111 -182 -215 -182c-67 0 -111 37 -111 92c0 90 111 182 215 182z" fill="currentColor"/>
</g>
<g transform="translate(27.6944, 18.1075)">
<path transform="scale(0.0040, -0.0040)" d="M215 137c67 0 111 -37 111 -92c0 -90 -111 -182 -215 -182c-67 0 -111 37 -111 92c0 90 111 182 215 182z" fill="currentColor"/>
</g>
<g transform="translate(0.0000, 30.1075)">
<line stroke-linejoin="round" stroke-linecap="round" stroke-width="0.0558" stroke="currentColor" x1="0.0279" y1="0" x2="82.3177" y2="0"/>
</g>
<g transform="translate(0.0000, 29.1075)">
<line stroke-linejoin="round" stroke-linecap="round" stroke-width="0.0558" stroke="currentColor" x1="0.0279" y1="0" x2="82.3177" y2="0"/>
</g>
<g transform="translate(0.0000, 28.1075)">
<line stroke-linejoin="round" stroke-linecap="round" stroke-width="0.0558" stroke="currentColor" x1="0.0279" y1="0" x2="82.3177" y2="0"/>
</g>
<g transform="translate(0.0000, 27.1075)">
<line stroke-linejoin="round" stroke-linecap="round" stroke-width="0.0558" stroke="currentColor" x1="0.0279" y1="0" x2="82.3177" y2="0"/>
</g>
<g transform="translate(0.0000, 26.1075)">
<line stroke-linejoin="round" stroke-linecap="round" stroke-width="0.0558" stroke="currentColor" x1="0.0279" y1="0" x2="82.3177" y2="0"/>
</g>
<g transform="translate(58.0706, 28.1075)">
<rect x="0.0000" y="-1.0000" width="0.2120" height="2.0000" ry="0.0000" fill="currentColor"/>
</g>
<g transform="translate(82.1336, 28.1075)">
<rect x="0.0000" y="-1.0000" width="0.2120" height="2.0000" ry="0.0000" fill="currentColor"/>
</g>
<g transform="translate(34.7944, 28.1075)">
<rect x="0.0000" y="-2.0000" width="0.2120" height="4.0000" ry="0.0000" fill="currentColor"/>
</g>
<g transform="translate(59.2837, 30.1075)">
<path transform="scale(0.0040, -0.0040)" d="M215 137c67 0 111 -37 111 -92c0 -90 -111 -182 -215 -182c-67 0 -111 37 -111 92c0 90 111 182 215 182z" fill="currentColor"/>
</g>
<g transform="translate(58.5493, 33.6292)">
<text font-family="Ubuntu Sans" font-size="2.4690" text-anchor="start" fill="currentColor">
<tspan>ge</tspan>
</text>
</g>
<g transform="translate(63.2198, 29.1075)">
<path transform="scale(0.0040, -0.0040)" d="M215 137c67 0 111 -37 111 -92c0 -90 -111 -182 -215 -182c-67 0 -111 37 -111 92c0 90 111 182 215 182z" fill="currentColor"/>
</g>
<g transform="translate(61.4209, 33.6292)">
<text font-family="Ubuntu Sans" font-size="2.4690" text-anchor="start" fill="currentColor">
<tspan>men</tspan>
</text>
</g>
<g transform="translate(67.4773, 28.6075)">
<path transform="scale(0.0040, -0.0040)" d="M215 137c67 0 111 -37 111 -92c0 -90 -111 -182 -215 -182c-67 0 -111 37 -111 92c0 90 111 182 215 182z" fill="currentColor"/>
</g>
<g transform="translate(50.8729, 30.6075)">
<path transform="scale(0.0040, -0.0040)" d="M215 137c67 0 111 -37 111 -92c0 -90 -111 -182 -215 -182c-67 0 -111 37 -111 92c0 90 111 182 215 182z" fill="currentColor"/>
</g>
<g transform="translate(44.6086, 28.6075)">
<path transform="scale(0.0040, -0.0040)" d="M215 137c67 0 111 -37 111 -92c0 -90 -111 -182 -215 -182c-67 0 -111 37 -111 92c0 90 111 182 215 182z" fill="currentColor"/>
</g>
<g transform="translate(43.4725, 33.6292)">
<text font-family="Ubuntu Sans" font-size="2.4690" text-anchor="start" fill="currentColor">
<tspan>sus</tspan>
</text>
</g>
<g transform="translate(47.7407, 29.6075)">
<path transform="scale(0.0040, -0.0040)" d="M215 137c67 0 111 -37 111 -92c0 -90 -111 -182 -215 -182c-67 0 -111 37 -111 92c0 90 111 182 215 182z" fill="currentColor"/>
</g>
<g transform="translate(47.3678, 33.6292)">
<text font-family="Ubuntu Sans" font-size="2.4690" text-anchor="start" fill="currentColor">
<tspan>pi</tspan>
</text>
</g>
<g transform="translate(50.4196, 33.6292)">
<text font-family="Ubuntu Sans" font-size="2.4690" text-anchor="start" fill="currentColor">
<tspan>ra</tspan>
</text>
</g>
<g transform="translate(54.6885, 30.1075)">
<path transform="scale(0.0040, -0.0040)" d="M215 137c67 0 111 -37 111 -92c0 -90 -111 -182 -215 -182c-67 0 -111 37 -111 92c0 90 111 182 215 182z" fill="currentColor"/>
</g>
<g transform="translate(52.7289, 33.6292)">
<text font-family="Ubuntu Sans" font-size="2.4690" text-anchor="start" fill="currentColor">
<tspan>mus,</tspan>
</text>
</g>
<g transform="translate(7.8527, 33.6292)">
<rect x="0.0000" y="-0.5651" width="0.6600" height="0.1451" ry="0.0446" fill="currentColor"/>
</g>
<g transform="translate(18.0393, 33.6292)">
<rect x="0.0000" y="-0.5651" width="0.6600" height="0.1451" ry="0.0446" fill="currentColor"/>
</g>
<g transform="translate(21.5017, 33.6292)">
<rect x="0.0000" y="-0.5651" width="0.6600" height="0.1451" ry="0.0446" fill="currentColor"/>
</g>
<g transform="translate(47.0577, 33.6292)">
<rect x="0.0000" y="-0.5651" width="0.3000" height="0.1451" ry="0.0446" fill="currentColor"/>
</g>
<g transform="translate(49.5880, 33.6292)">
<rect x="0.0000" y="-0.5651" width="0.6600" height="0.1451" ry="0.0446" fill="currentColor"/>
</g>
<g transform="translate(70.9510, 27.6075)">
<path transform="scale(0.0040, -0.0040)" d="M215 137c67 0 111 -37 111 -92c0 -90 -111 -182 -215 -182c-67 0 -111 37 -111 92c0 90 111 182 215 182z" fill="currentColor"/>
</g>
<g transform="translate(70.4375, 33.6292)">
<text font-family="Ubuntu Sans" font-size="2.4690" text-anchor="start" fill="currentColor">
<tspan>et</tspan>
</text>
</g>
<g transform="translate(74.7551, 28.6075)">
<path transform="scale(0.0040, -0.0040)" d="M215 137c67 0 111 -37 111 -92c0 -90 -111 -182 -215 -182c-67 0 -111 37 -111 92c0 90 111 182 215 182z" fill="currentColor"/>
</g>
<g transform="translate(73.2173, 33.6292)">
<text font-family="Ubuntu Sans" font-size="2.4690" text-anchor="start" fill="currentColor">
<tspan>flen</tspan>
</text>
</g>
<g transform="translate(66.4215, 33.6292)">
<text font-family="Ubuntu Sans" font-size="2.4690" text-anchor="start" fill="currentColor">
<tspan>tes</tspan>
</text>
</g>
<g transform="translate(78.7514, 29.1075)">
<path transform="scale(0.0040, -0.0040)" d="M215 137c67 0 111 -37 111 -92c0 -90 -111 -182 -215 -182c-67 0 -111 37 -111 92c0 90 111 182 215 182z" fill="currentColor"/>
</g>
<g transform="translate(77.6957, 33.6292)">
<text font-family="Ubuntu Sans" font-size="2.4690" text-anchor="start" fill="currentColor">
<tspan>tes</tspan>
</text>
</g>
<g transform="translate(12.5845, 27.6075)">
<path transform="scale(0.0040, -0.0040)" d="M215 137c67 0 111 -37 111 -92c0 -90 -111 -182 -215 -182c-67 0 -111 37 -111 92c0 90 111 182 215 182z" fill="currentColor"/>
</g>
<g transform="translate(11.3881, 33.6292)">
<text font-family="Ubuntu Sans" font-size="2.4690" text-anchor="start" fill="currentColor">
<tspan>les,</tspan>
</text>
</g>
<g transform="translate(15.9666, 28.1075)">
<path transform="scale(0.0040, -0.0040)" d="M215 137c67 0 111 -37 111 -92c0 -90 -111 -182 -215 -182c-67 0 -111 37 -111 92c0 90 111 182 215 182z" fill="currentColor"/>
</g>
<g transform="translate(15.8548, 33.6292)">
<text font-family="Ubuntu Sans" font-size="2.4690" text-anchor="start" fill="currentColor">
<tspan>fi</tspan>
</text>
</g>
<g transform="translate(8.6085, 33.6292)">
<text font-family="Ubuntu Sans" font-size="2.4690" text-anchor="start" fill="currentColor">
<tspan>su</tspan>
</text>
</g>
<g transform="translate(19.3286, 28.6075)">
<path transform="scale(0.0040, -0.0040)" d="M215 137c67 0 111 -37 111 -92c0 -90 -111 -182 -215 -182c-67 0 -111 37 -111 92c0 90 111 182 215 182z" fill="currentColor"/>
</g>
<g transform="translate(19.3574, 33.6292)">
<text font-family="Ubuntu Sans" font-size="2.4690" text-anchor="start" fill="currentColor">
<tspan>li</tspan>
</text>
</g>
<g transform="translate(22.7107, 29.1075)">
<path transform="scale(0.0040, -0.0040)" d="M215 137c67 0 111 -37 111 -92c0 -90 -111 -182 -215 -182c-67 0 -111 37 -111 92c0 90 111 182 215 182z" fill="currentColor"/>
</g>
<g transform="translate(23.0609, 33.6292)">
<text font-family="Ubuntu Sans" font-size="2.4690" text-anchor="start" fill="currentColor">
<tspan>i</tspan>
</text>
</g>
<g transform="translate(0.8000, 29.1075)">
<path transform="scale(0.0040, -0.0040)" d="M646 2c0 -113 -74 -213 -180 -247c3 -34 5 -68 5 -102c0 -20 -1 -40 -2 -60c-7 -121 -91 -228 -209 -228c-108 0 -196 87 -196 196c0 58 53 104 112 104c54 0 95 -48 95 -104c0 -52 -43 -95 -95 -95c-10 0 -20 2 -29 6c26 -38 68 -63 116 -63h3c93 2 153 92 159 190
c1 19 2 37 2 56c0 30 -2 60 -4 90c-5 -1 -43 -8 -88 -8c-194 0 -333 180 -333 375c0 177 130 307 246 442c-31 98 -53 170 -53 347c0 115 55 223 148 290c7 5 16 4 22 -1c68 -80 134 -243 134 -357c0 -143 -85 -255 -178 -364c21 -68 40 -137 57 -206c1 0 5 1 11 1
c156 0 257 -129 257 -262zM462 -202c66 24 111 88 111 162c0 89 -65 178 -170 190c28 -135 50 -272 59 -352zM75 26c0 -145 141 -245 263 -245c1 0 46 0 81 6c-7 65 -27 206 -61 363c-79 -8 -124 -61 -124 -119c0 -43 25 -89 80 -121c5 -5 7 -11 7 -16
c0 -12 -10 -23 -22 -23c-16 0 -127 63 -127 188c0 89 58 175 161 198c-14 58 -29 116 -46 173c-106 -122 -212 -244 -212 -404zM406 1042c-99 -47 -162 -148 -162 -257c0 -49 13 -111 38 -191c79 97 144 199 144 324c0 33 0 63 -20 124z" fill="currentColor"/>
</g>
<g transform="translate(5.8000, 28.6075)">
<path transform="scale(0.0040, -0.0040)" d="M215 137c67 0 111 -37 111 -92c0 -90 -111 -182 -215 -182c-67 0 -111 37 -111 92c0 90 111 182 215 182z" fill="currentColor"/>
</g>
<g transform="translate(5.1459, 33.6292)">
<text font-family="Ubuntu Sans" font-size="2.4690" text-anchor="start" fill="currentColor">
<tspan>ex</tspan>
</text>
</g>
<g transform="translate(9.2023, 28.1075)">
<path transform="scale(0.0040, -0.0040)" d="M215 137c67 0 111 -37 111 -92c0 -90 -111 -182 -215 -182c-67 0 -111 37 -111 92c0 90 111 182 215 182z" fill="currentColor"/>
</g>
<g transform="translate(36.0074, 28.1075)">
<path transform="scale(0.0040, -0.0040)" d="M70 205c80 0 46 -97 90 -97c15 0 52 45 59 59c6 13 26 13 31 0l-121 -417c-9 -7 -19 -11 -30 -11s-21 4 -30 11l118 326c-33 -12 -68 -22 -103 -22c-47 0 -87 34 -87 79c0 40 33 72 73 72z" fill="currentColor"/>
</g>
<g transform="translate(37.9871, 27.6075)">
<path transform="scale(0.0040, -0.0040)" d="M215 137c67 0 111 -37 111 -92c0 -90 -111 -182 -215 -182c-67 0 -111 37 -111 92c0 90 111 182 215 182z" fill="currentColor"/>
</g>
<g transform="translate(37.1121, 33.6292)">
<text font-family="Ubuntu Sans" font-size="2.4690" text-anchor="start" fill="currentColor">
<tspan>Ad</tspan>
</text>
</g>
<g transform="translate(41.2062, 29.1075)">
<path transform="scale(0.0040, -0.0040)" d="M215 137c67 0 111 -37 111 -92c0 -90 -111 -182 -215 -182c-67 0 -111 37 -111 92c0 90 111 182 215 182z" fill="currentColor"/>
</g>
<g transform="translate(40.6927, 33.6292)">
<text font-family="Ubuntu Sans" font-size="2.4690" text-anchor="start" fill="currentColor">
<tspan>te</tspan>
</text>
</g>
<g transform="translate(25.1978, 33.6292)">
<text font-family="Ubuntu Sans" font-size="2.4690" text-anchor="start" fill="currentColor">
<tspan>He</tspan>
</text>
</g>
<g transform="translate(29.6688, 29.1075)">
<path transform="scale(0.0040, -0.0040)" d="M312 64c0 23 -18 41 -41 41c-39 0 -201 -110 -228 -142c-7 -8 -10 -17 -10 -27c0 -23 18 -41 41 -41c39 0 201 110 228 142c7 8 10 17 10 27zM259 137c46 0 86 -17 86 -74c0 -26 -15 -112 -73 -151c-29 -20 -89 -49 -186 -49c-46 0 -86 17 -86 74c0 26 16 112 74 151
c29 20 88 49 185 49z" fill="currentColor"/>
</g>
<g transform="translate(28.3908, 33.6292)">
<text font-family="Ubuntu Sans" font-size="2.4690" text-anchor="start" fill="currentColor">
<tspan>væ.</tspan>
</text>
</g>
<g transform="translate(26.0929, 28.6075)">
<path transform="scale(0.0040, -0.0040)" d="M215 137c67 0 111 -37 111 -92c0 -90 -111 -182 -215 -182c-67 0 -111 37 -111 92c0 90 111 182 215 182z" fill="currentColor"/>
</g>
<g transform="translate(0.0000, 42.1075)">
<line stroke-linejoin="round" stroke-linecap="round" stroke-width="0.0558" stroke="currentColor" x1="0.0279" y1="0" x2="82.3177" y2="0"/>
</g>
<g transform="translate(0.0000, 41.1075)">
<line stroke-linejoin="round" stroke-linecap="round" stroke-width="0.0558" stroke="currentColor" x1="0.0279" y1="0" x2="82.3177" y2="0"/>
</g>
<g transform="translate(0.0000, 40.1075)">
<line stroke-linejoin="round" stroke-linecap="round" stroke-width="0.0558" stroke="currentColor" x1="0.0279" y1="0" x2="82.3177" y2="0"/>
</g>
<g transform="translate(0.0000, 39.1075)">
<line stroke-linejoin="round" stroke-linecap="round" stroke-width="0.0558" stroke="currentColor" x1="0.0279" y1="0" x2="82.3177" y2="0"/>
</g>
<g transform="translate(0.0000, 38.1075)">
<line stroke-linejoin="round" stroke-linecap="round" stroke-width="0.0558" stroke="currentColor" x1="0.0279" y1="0" x2="82.3177" y2="0"/>
</g>
<g transform="translate(0.0000, 43.1075)">
<rect x="32.6910" y="-0.0779" width="2.0709" height="0.1558" ry="0.0779" fill="currentColor"/>
</g>
<g transform="translate(82.1336, 40.1075)">
<rect x="0.0000" y="-1.0000" width="0.2120" height="2.0000" ry="0.0000" fill="currentColor"/>
</g>
<g transform="translate(38.8415, 40.1075)">
<rect x="0.0000" y="-2.0000" width="0.2120" height="4.0000" ry="0.0000" fill="currentColor"/>
</g>
<g transform="translate(57.3551, 41.1075)">
<path transform="scale(0.0040, -0.0040)" d="M215 137c67 0 111 -37 111 -92c0 -90 -111 -182 -215 -182c-67 0 -111 37 -111 92c0 90 111 182 215 182z" fill="currentColor"/>
</g>
<g transform="translate(56.6408, 45.6225)">
<text font-family="Ubuntu Sans" font-size="2.4690" text-anchor="start" fill="currentColor">
<tspan>ad</tspan>
</text>
</g>
<g transform="translate(61.1459, 40.6075)">
<path transform="scale(0.0040, -0.0040)" d="M215 137c67 0 111 -37 111 -92c0 -90 -111 -182 -215 -182c-67 0 -111 37 -111 92c0 90 111 182 215 182z" fill="currentColor"/>
</g>
<g transform="translate(60.4717, 45.6225)">
<text font-family="Ubuntu Sans" font-size="2.4690" text-anchor="start" fill="currentColor">
<tspan>vo</tspan>
</text>
</g>
<g transform="translate(65.0282, 39.6075)">
<path transform="scale(0.0040, -0.0040)" d="M215 137c67 0 111 -37 111 -92c0 -90 -111 -182 -215 -182c-67 0 -111 37 -111 92c0 90 111 182 215 182z" fill="currentColor"/>
</g>
<g transform="translate(64.4746, 45.6225)">
<text font-family="Ubuntu Sans" font-size="2.4690" text-anchor="start" fill="currentColor">
<tspan>ca</tspan>
</text>
</g>
<g transform="translate(42.3350, 41.1075)">
<path transform="scale(0.0040, -0.0040)" d="M215 137c67 0 111 -37 111 -92c0 -90 -111 -182 -215 -182c-67 0 -111 37 -111 92c0 90 111 182 215 182z" fill="currentColor"/>
</g>
<g transform="translate(42.3035, 45.6225)">
<text font-family="Ubuntu Sans" font-size="2.4690" text-anchor="start" fill="currentColor">
<tspan>E</tspan>
</text>
</g>
<g transform="translate(46.1258, 40.6075)">
<path transform="scale(0.0040, -0.0040)" d="M215 137c67 0 111 -37 111 -92c0 -90 -111 -182 -215 -182c-67 0 -111 37 -111 92c0 90 111 182 215 182z" fill="currentColor"/>
</g>
<g transform="translate(45.8332, 45.6225)">
<text font-family="Ubuntu Sans" font-size="2.4690" text-anchor="start" fill="currentColor">
<tspan>ia</tspan>
</text>
</g>
<g transform="translate(49.9367, 40.1075)">
<path transform="scale(0.0040, -0.0040)" d="M215 137c67 0 111 -37 111 -92c0 -90 -111 -182 -215 -182c-67 0 -111 37 -111 92c0 90 111 182 215 182z" fill="currentColor"/>
</g>
<g transform="translate(49.4433, 45.6225)">
<text font-family="Ubuntu Sans" font-size="2.4690" text-anchor="start" fill="currentColor">
<tspan>er</tspan>
</text>
</g>
<g transform="translate(53.7274, 39.6075)">
<path transform="scale(0.0040, -0.0040)" d="M215 137c67 0 111 -37 111 -92c0 -90 -111 -182 -215 -182c-67 0 -111 37 -111 92c0 90 111 182 215 182z" fill="currentColor"/>
</g>
<g transform="translate(52.6516, 45.6225)">
<text font-family="Ubuntu Sans" font-size="2.4690" text-anchor="start" fill="currentColor">
<tspan>go,</tspan>
</text>
</g>
<g transform="translate(15.4075, 45.6225)">
<rect x="0.0000" y="-0.5651" width="0.6600" height="0.1451" ry="0.0446" fill="currentColor"/>
</g>
<g transform="translate(19.2393, 45.6225)">
<rect x="0.0000" y="-0.5651" width="0.5979" height="0.1451" ry="0.0446" fill="currentColor"/>
</g>
<g transform="translate(31.6122, 45.6225)">
<rect x="0.0000" y="-0.5651" width="0.6600" height="0.1451" ry="0.0446" fill="currentColor"/>
</g>
<g transform="translate(44.4212, 45.6225)">
<rect x="0.0000" y="-0.5651" width="0.6600" height="0.1451" ry="0.0446" fill="currentColor"/>
</g>
<g transform="translate(51.8622, 45.6225)">
<rect x="0.0000" y="-0.5651" width="0.6600" height="0.1451" ry="0.0446" fill="currentColor"/>
</g>
<g transform="translate(59.5920, 45.6225)">
<rect x="0.0000" y="-0.5651" width="0.6600" height="0.1451" ry="0.0446" fill="currentColor"/>
</g>
<g transform="translate(63.4687, 45.6225)">
<rect x="0.0000" y="-0.5651" width="0.6600" height="0.1451" ry="0.0446" fill="currentColor"/>
</g>
<g transform="translate(67.2852, 45.6225)">
<rect x="0.0000" y="-0.5651" width="0.6600" height="0.1451" ry="0.0446" fill="currentColor"/>
</g>
<g transform="translate(68.8190, 40.1075)">
<path transform="scale(0.0040, -0.0040)" d="M215 137c67 0 111 -37 111 -92c0 -90 -111 -182 -215 -182c-67 0 -111 37 -111 92c0 90 111 182 215 182z" fill="currentColor"/>
</g>
<g transform="translate(68.3457, 45.6225)">
<text font-family="Ubuntu Sans" font-size="2.4690" text-anchor="start" fill="currentColor">
<tspan>ta</tspan>
</text>
</g>
<g transform="translate(72.5896, 40.6075)">
<path transform="scale(0.0040, -0.0040)" d="M215 137c67 0 111 -37 111 -92c0 -90 -111 -182 -215 -182c-67 0 -111 37 -111 92c0 90 111 182 215 182z" fill="currentColor"/>
</g>
<g transform="translate(71.8150, 45.6225)">
<text font-family="Ubuntu Sans" font-size="2.4690" text-anchor="start" fill="currentColor">
<tspan>no</tspan>
</text>
</g>
<g transform="translate(76.5069, 41.1075)">
<path transform="scale(0.0040, -0.0040)" d="M312 64c0 23 -18 41 -41 41c-39 0 -201 -110 -228 -142c-7 -8 -10 -17 -10 -27c0 -23 18 -41 41 -41c39 0 201 110 228 142c7 8 10 17 10 27zM259 137c46 0 86 -17 86 -74c0 -26 -15 -112 -73 -151c-29 -20 -89 -49 -186 -49c-46 0 -86 17 -86 74c0 26 16 112 74 151
c29 20 88 49 185 49z" fill="currentColor"/>
</g>
<g transform="translate(74.7669, 45.6225)">
<text font-family="Ubuntu Sans" font-size="2.4690" text-anchor="start" fill="currentColor">
<tspan>stra,</tspan>
</text>
</g>
<g transform="translate(9.5907, 41.1075)">
<path transform="scale(0.0040, -0.0040)" d="M215 137c67 0 111 -37 111 -92c0 -90 -111 -182 -215 -182c-67 0 -111 37 -111 92c0 90 111 182 215 182z" fill="currentColor"/>
</g>
<g transform="translate(8.3141, 45.6225)">
<text font-family="Ubuntu Sans" font-size="2.4690" text-anchor="start" fill="currentColor">
<tspan>hac</tspan>
</text>
</g>
<g transform="translate(13.3815, 41.6075)">
<path transform="scale(0.0040, -0.0040)" d="M215 137c67 0 111 -37 111 -92c0 -90 -111 -182 -215 -182c-67 0 -111 37 -111 92c0 90 111 182 215 182z" fill="currentColor"/>
</g>
<g transform="translate(13.0689, 45.6225)">
<text font-family="Ubuntu Sans" font-size="2.4690" text-anchor="start" fill="currentColor">
<tspan>la</tspan>
</text>
</g>
<g transform="translate(17.1722, 42.1075)">
<path transform="scale(0.0040, -0.0040)" d="M215 137c67 0 111 -37 111 -92c0 -90 -111 -182 -215 -182c-67 0 -111 37 -111 92c0 90 111 182 215 182z" fill="currentColor"/>
</g>
<g transform="translate(16.4780, 45.6225)">
<text font-family="Ubuntu Sans" font-size="2.4690" text-anchor="start" fill="currentColor">
<tspan>cri</tspan>
</text>
</g>
<g transform="translate(20.9630, 42.6075)">
<path transform="scale(0.0040, -0.0040)" d="M215 137c67 0 111 -37 111 -92c0 -90 -111 -182 -215 -182c-67 0 -111 37 -111 92c0 90 111 182 215 182z" fill="currentColor"/>
</g>
<g transform="translate(19.9072, 45.6225)">
<text font-family="Ubuntu Sans" font-size="2.4690" text-anchor="start" fill="currentColor">
<tspan>ma</tspan>
</text>
</g>
<g transform="translate(0.8000, 41.1075)">
<path transform="scale(0.0040, -0.0040)" d="M646 2c0 -113 -74 -213 -180 -247c3 -34 5 -68 5 -102c0 -20 -1 -40 -2 -60c-7 -121 -91 -228 -209 -228c-108 0 -196 87 -196 196c0 58 53 104 112 104c54 0 95 -48 95 -104c0 -52 -43 -95 -95 -95c-10 0 -20 2 -29 6c26 -38 68 -63 116 -63h3c93 2 153 92 159 190
c1 19 2 37 2 56c0 30 -2 60 -4 90c-5 -1 -43 -8 -88 -8c-194 0 -333 180 -333 375c0 177 130 307 246 442c-31 98 -53 170 -53 347c0 115 55 223 148 290c7 5 16 4 22 -1c68 -80 134 -243 134 -357c0 -143 -85 -255 -178 -364c21 -68 40 -137 57 -206c1 0 5 1 11 1
c156 0 257 -129 257 -262zM462 -202c66 24 111 88 111 162c0 89 -65 178 -170 190c28 -135 50 -272 59 -352zM75 26c0 -145 141 -245 263 -245c1 0 46 0 81 6c-7 65 -27 206 -61 363c-79 -8 -124 -61 -124 -119c0 -43 25 -89 80 -121c5 -5 7 -11 7 -16
c0 -12 -10 -23 -22 -23c-16 0 -127 63 -127 188c0 89 58 175 161 198c-14 58 -29 116 -46 173c-106 -122 -212 -244 -212 -404zM406 1042c-99 -47 -162 -148 -162 -257c0 -49 13 -111 38 -191c79 97 144 199 144 324c0 33 0 63 -20 124z" fill="currentColor"/>
</g>
<g transform="translate(5.8000, 40.6075)">
<path transform="scale(0.0040, -0.0040)" d="M215 137c67 0 111 -37 111 -92c0 -90 -111 -182 -215 -182c-67 0 -111 37 -111 92c0 90 111 182 215 182z" fill="currentColor"/>
</g>
<g transform="translate(5.4472, 45.6225)">
<text font-family="Ubuntu Sans" font-size="2.4690" text-anchor="start" fill="currentColor">
<tspan>in</tspan>
</text>
</g>
<g transform="translate(33.0362, 43.1075)">
<path transform="scale(0.0040, -0.0040)" d="M312 64c0 23 -18 41 -41 41c-39 0 -201 -110 -228 -142c-7 -8 -10 -17 -10 -27c0 -23 18 -41 41 -41c39 0 201 110 228 142c7 8 10 17 10 27zM259 137c46 0 86 -17 86 -74c0 -26 -15 -112 -73 -151c-29 -20 -89 -49 -186 -49c-46 0 -86 17 -86 74c0 26 16 112 74 151
c29 20 88 49 185 49z" fill="currentColor"/>
</g>
<g transform="translate(32.4210, 45.6225)">
<text font-family="Ubuntu Sans" font-size="2.4690" text-anchor="start" fill="currentColor">
<tspan>le.</tspan>
</text>
</g>
<g transform="translate(40.1629, 40.1075)">
<path transform="scale(0.0040, -0.0040)" d="M70 205c80 0 46 -97 90 -97c15 0 52 45 59 59c6 13 26 13 31 0l-121 -417c-9 -7 -19 -11 -30 -11s-21 4 -30 11l118 326c-33 -12 -68 -22 -103 -22c-47 0 -87 34 -87 79c0 40 33 72 73 72z" fill="currentColor"/>
</g>
<g transform="translate(29.2454, 42.6075)">
<path transform="scale(0.0040, -0.0040)" d="M215 137c67 0 111 -37 111 -92c0 -90 -111 -182 -215 -182c-67 0 -111 37 -111 92c0 90 111 182 215 182z" fill="currentColor"/>
</g>
<g transform="translate(24.9995, 42.1075)">
<path transform="scale(0.0040, -0.0040)" d="M215 137c67 0 111 -37 111 -92c0 -90 -111 -182 -215 -182c-67 0 -111 37 -111 92c0 90 111 182 215 182z" fill="currentColor"/>
</g>
<g transform="translate(23.4216, 45.6225)">
<text font-family="Ubuntu Sans" font-size="2.4690" text-anchor="start" fill="currentColor">
<tspan>rum</tspan>
</text>
</g>
<g transform="translate(28.3303, 45.6225)">
<text font-family="Ubuntu Sans" font-size="2.4690" text-anchor="start" fill="currentColor">
<tspan>val</tspan>
</text>
</g>
<g transform="translate(0.0000, 54.1075)">
<line stroke-linejoin="round" stroke-linecap="round" stroke-width="0.0558" stroke="currentColor" x1="0.0279" y1="0" x2="82.3177" y2="0"/>
</g>
<g transform="translate(0.0000, 53.1075)">
<line stroke-linejoin="round" stroke-linecap="round" stroke-width="0.0558" stroke="currentColor" x1="0.0279" y1="0" x2="82.3177" y2="0"/>
</g>
<g transform="translate(0.0000, 52.1075)">
<line stroke-linejoin="round" stroke-linecap="round" stroke-width="0.0558" stroke="currentColor" x1="0.0279" y1="0" x2="82.3177" y2="0"/>
</g>
<g transform="translate(0.0000, 51.1075)">
<line stroke-linejoin="round" stroke-linecap="round" stroke-width="0.0558" stroke="currentColor" x1="0.0279" y1="0" x2="82.3177" y2="0"/>
</g>
<g transform="translate(0.0000, 50.1075)">
<line stroke-linejoin="round" stroke-linecap="round" stroke-width="0.0558" stroke="currentColor" x1="0.0279" y1="0" x2="82.3177" y2="0"/>
</g>
<g transform="translate(0.0000, 55.1075)">
<rect x="75.5125" y="-0.0779" width="2.0709" height="0.1558" ry="0.0779" fill="currentColor"/>
</g>
<g transform="translate(82.1336, 52.1075)">
<rect x="0.0000" y="-2.0000" width="0.2120" height="4.0000" ry="0.0000" fill="currentColor"/>
</g>
<g transform="translate(67.7246, 54.1075)">
<path transform="scale(0.0040, -0.0040)" d="M215 137c67 0 111 -37 111 -92c0 -90 -111 -182 -215 -182c-67 0 -111 37 -111 92c0 90 111 182 215 182z" fill="currentColor"/>
</g>
<g transform="translate(59.2515, 54.1075)">
<path transform="scale(0.0040, -0.0040)" d="M215 137c67 0 111 -37 111 -92c0 -90 -111 -182 -215 -182c-67 0 -111 37 -111 92c0 90 111 182 215 182z" fill="currentColor"/>
</g>
<g transform="translate(57.9347, 57.9268)">
<text font-family="Ubuntu Sans" font-size="2.4690" text-anchor="start" fill="currentColor">
<tspan>nos</tspan>
</text>
</g>
<g transform="translate(63.6581, 54.6075)">
<path transform="scale(0.0040, -0.0040)" d="M215 137c67 0 111 -37 111 -92c0 -90 -111 -182 -215 -182c-67 0 -111 37 -111 92c0 90 111 182 215 182z" fill="currentColor"/>
</g>
<g transform="translate(62.3212, 57.9268)">
<text font-family="Ubuntu Sans" font-size="2.4690" text-anchor="start" fill="currentColor">
<tspan>con</tspan>
</text>
</g>
<g transform="translate(50.1185, 53.1075)">
<path transform="scale(0.0040, -0.0040)" d="M215 137c67 0 111 -37 111 -92c0 -90 -111 -182 -215 -182c-67 0 -111 37 -111 92c0 90 111 182 215 182z" fill="currentColor"/>
</g>
<g transform="translate(72.8205, 57.9268)">
<rect x="0.0000" y="-0.5651" width="0.6600" height="0.1451" ry="0.0446" fill="currentColor"/>
</g>
<g transform="translate(46.0520, 53.1075)">
<path transform="scale(0.0040, -0.0040)" d="M215 137c67 0 111 -37 111 -92c0 -90 -111 -182 -215 -182c-67 0 -111 37 -111 92c0 90 111 182 215 182z" fill="currentColor"/>
</g>
<g transform="translate(45.4180, 57.9268)">
<text font-family="Ubuntu Sans" font-size="2.4690" text-anchor="start" fill="currentColor">
<tspan>cu</tspan>
</text>
</g>
<g transform="translate(49.1833, 57.9268)">
<text font-family="Ubuntu Sans" font-size="2.4690" text-anchor="start" fill="currentColor">
<tspan>los</tspan>
</text>
</g>
<g transform="translate(53.6631, 50.1075)">
<path transform="scale(0.0040, -0.0040)" d="M62 158c38 0 68 -31 68 -69v-20c0 -110 -103 -165 -116 -165c-8 0 -14 6 -14 14c0 18 69 25 83 123h-28c-30 0 -55 25 -55 55c0 34 28 62 62 62z" fill="currentColor"/>
</g>
<g transform="translate(55.1850, 53.6075)">
<path transform="scale(0.0040, -0.0040)" d="M215 137c67 0 111 -37 111 -92c0 -90 -111 -182 -215 -182c-67 0 -111 37 -111 92c0 90 111 182 215 182z" fill="currentColor"/>
</g>
<g transform="translate(54.4707, 57.9268)">
<text font-family="Ubuntu Sans" font-size="2.4690" text-anchor="start" fill="currentColor">
<tspan>ad</tspan>
</text>
</g>
<g transform="translate(31.3986, 57.9268)">
<rect x="0.0000" y="-0.5651" width="0.6600" height="0.1451" ry="0.0446" fill="currentColor"/>
</g>
<g transform="translate(7.5911, 57.9268)">
<rect x="0.0000" y="-0.5651" width="0.6600" height="0.1451" ry="0.0446" fill="currentColor"/>
</g>
<g transform="translate(15.9595, 57.9268)">
<rect x="0.0000" y="-0.5651" width="0.6600" height="0.1451" ry="0.0446" fill="currentColor"/>
</g>
<g transform="translate(23.8279, 57.9268)">
<rect x="0.0000" y="-0.5651" width="0.6600" height="0.1451" ry="0.0446" fill="currentColor"/>
</g>
<g transform="translate(28.0551, 57.9268)">
<rect x="0.0000" y="-0.5651" width="0.6600" height="0.1451" ry="0.0446" fill="currentColor"/>
</g>
<g transform="translate(36.0367, 57.9268)">
<rect x="0.0000" y="-0.5651" width="0.3000" height="0.1451" ry="0.0446" fill="currentColor"/>
</g>
<g transform="translate(44.0590, 57.9268)">
<rect x="0.0000" y="-0.5651" width="0.6600" height="0.1451" ry="0.0446" fill="currentColor"/>
</g>
<g transform="translate(48.2560, 57.9268)">
<rect x="0.0000" y="-0.5651" width="0.6600" height="0.1451" ry="0.0446" fill="currentColor"/>
</g>
<g transform="translate(66.6813, 57.9268)">
<rect x="0.0000" y="-0.5651" width="0.6600" height="0.1451" ry="0.0446" fill="currentColor"/>
</g>
<g transform="translate(67.7246, 52.1075)">
<path stroke-width="0.0446" stroke-linejoin="round" stroke-linecap="round" stroke="currentColor" fill="currentColor" d="M0.5984 3.0486C1.4750 4.0592 3.5696 4.3167 4.6649 3.5486L4.6649 3.5486C3.5777 4.2503 1.4832 3.9927 0.5984 3.0486z"/>
</g>
<g transform="translate(75.8576, 55.1075)">
<path transform="scale(0.0040, -0.0040)" d="M312 64c0 23 -18 41 -41 41c-39 0 -201 -110 -228 -142c-7 -8 -10 -17 -10 -27c0 -23 18 -41 41 -41c39 0 201 110 228 142c7 8 10 17 10 27zM259 137c46 0 86 -17 86 -74c0 -26 -15 -112 -73 -151c-29 -20 -89 -49 -186 -49c-46 0 -86 17 -86 74c0 26 16 112 74 151
c29 20 88 49 185 49z" fill="currentColor"/>
</g>
<g transform="translate(71.7911, 54.6075)">
<path transform="scale(0.0040, -0.0040)" d="M215 137c67 0 111 -37 111 -92c0 -90 -111 -182 -215 -182c-67 0 -111 37 -111 92c0 90 111 182 215 182z" fill="currentColor"/>
</g>
<g transform="translate(67.7246, 57.9268)">
<text font-family="Ubuntu Sans" font-size="2.4690" text-anchor="start" fill="currentColor">
<tspan>ver</tspan>
</text>
</g>
<g transform="translate(75.0818, 57.9268)">
<text font-family="Ubuntu Sans" font-size="2.4690" text-anchor="start" fill="currentColor">
<tspan>te.</tspan>
</text>
</g>
<g transform="translate(9.7035, 53.1075)">
<path transform="scale(0.0040, -0.0040)" d="M215 137c67 0 111 -37 111 -92c0 -90 -111 -182 -215 -182c-67 0 -111 37 -111 92c0 90 111 182 215 182z" fill="currentColor"/>
</g>
<g transform="translate(8.7682, 57.9268)">
<text font-family="Ubuntu Sans" font-size="2.4690" text-anchor="start" fill="currentColor">
<tspan>los</tspan>
</text>
</g>
<g transform="translate(13.7700, 52.6075)">
<path transform="scale(0.0040, -0.0040)" d="M215 137c67 0 111 -37 111 -92c0 -90 -111 -182 -215 -182c-67 0 -111 37 -111 92c0 90 111 182 215 182z" fill="currentColor"/>
</g>
<g transform="translate(13.2364, 57.9268)">
<text font-family="Ubuntu Sans" font-size="2.4690" text-anchor="start" fill="currentColor">
<tspan>tu</tspan>
</text>
</g>
<g transform="translate(17.5865, 53.6075)">
<path transform="scale(0.0040, -0.0040)" d="M215 137c67 0 111 -37 111 -92c0 -90 -111 -182 -215 -182c-67 0 -111 37 -111 92c0 90 111 182 215 182z" fill="currentColor"/>
</g>
<g transform="translate(16.9726, 57.9268)">
<text font-family="Ubuntu Sans" font-size="2.4690" text-anchor="start" fill="currentColor">
<tspan>os</tspan>
</text>
</g>
<g transform="translate(41.9139, 57.9268)">
<text font-family="Ubuntu Sans" font-size="2.4690" text-anchor="start" fill="currentColor">
<tspan>o</tspan>
</text>
</g>
<g transform="translate(0.8000, 53.1075)">
<path transform="scale(0.0040, -0.0040)" d="M646 2c0 -113 -74 -213 -180 -247c3 -34 5 -68 5 -102c0 -20 -1 -40 -2 -60c-7 -121 -91 -228 -209 -228c-108 0 -196 87 -196 196c0 58 53 104 112 104c54 0 95 -48 95 -104c0 -52 -43 -95 -95 -95c-10 0 -20 2 -29 6c26 -38 68 -63 116 -63h3c93 2 153 92 159 190
c1 19 2 37 2 56c0 30 -2 60 -4 90c-5 -1 -43 -8 -88 -8c-194 0 -333 180 -333 375c0 177 130 307 246 442c-31 98 -53 170 -53 347c0 115 55 223 148 290c7 5 16 4 22 -1c68 -80 134 -243 134 -357c0 -143 -85 -255 -178 -364c21 -68 40 -137 57 -206c1 0 5 1 11 1
c156 0 257 -129 257 -262zM462 -202c66 24 111 88 111 162c0 89 -65 178 -170 190c28 -135 50 -272 59 -352zM75 26c0 -145 141 -245 263 -245c1 0 46 0 81 6c-7 65 -27 206 -61 363c-79 -8 -124 -61 -124 -119c0 -43 25 -89 80 -121c5 -5 7 -11 7 -16
c0 -12 -10 -23 -22 -23c-16 0 -127 63 -127 188c0 89 58 175 161 198c-14 58 -29 116 -46 173c-106 -122 -212 -244 -212 -404zM406 1042c-99 -47 -162 -148 -162 -257c0 -49 13 -111 38 -191c79 97 144 199 144 324c0 33 0 63 -20 124z" fill="currentColor"/>
</g>
<g transform="translate(5.8000, 51.6075)">
<path transform="scale(0.0040, -0.0040)" d="M215 137c67 0 111 -37 111 -92c0 -90 -111 -182 -215 -182c-67 0 -111 37 -111 92c0 90 111 182 215 182z" fill="currentColor"/>
</g>
<g transform="translate(5.8288, 57.9268)">
<text font-family="Ubuntu Sans" font-size="2.4690" text-anchor="start" fill="currentColor">
<tspan>il</tspan>
</text>
</g>
<g transform="translate(37.6690, 53.6075)">
<path transform="scale(0.0040, -0.0040)" d="M215 137c67 0 111 -37 111 -92c0 -90 -111 -182 -215 -182c-67 0 -111 37 -111 92c0 90 111 182 215 182z" fill="currentColor"/>
</g>
<g transform="translate(29.5360, 53.6075)">
<path transform="scale(0.0040, -0.0040)" d="M215 137c67 0 111 -37 111 -92c0 -90 -111 -182 -215 -182c-67 0 -111 37 -111 92c0 90 111 182 215 182z" fill="currentColor"/>
</g>
<g transform="translate(29.4242, 57.9268)">
<text font-family="Ubuntu Sans" font-size="2.4690" text-anchor="start" fill="currentColor">
<tspan>ri</tspan>
</text>
</g>
<g transform="translate(21.4030, 54.6075)">
<path transform="scale(0.0040, -0.0040)" d="M215 137c67 0 111 -37 111 -92c0 -90 -111 -182 -215 -182c-67 0 -111 37 -111 92c0 90 111 182 215 182z" fill="currentColor"/>
</g>
<g transform="translate(36.3722, 57.9268)">
<text font-family="Ubuntu Sans" font-size="2.4690" text-anchor="start" fill="currentColor">
<tspan>des</tspan>
</text>
</g>
<g transform="translate(33.6025, 53.1075)">
<path transform="scale(0.0040, -0.0040)" d="M215 137c67 0 111 -37 111 -92c0 -90 -111 -182 -215 -182c-67 0 -111 37 -111 92c0 90 111 182 215 182z" fill="currentColor"/>
</g>
<g transform="translate(32.5066, 57.9268)">
<text font-family="Ubuntu Sans" font-size="2.4690" text-anchor="start" fill="currentColor">
<tspan>cor</tspan>
</text>
</g>
<g transform="translate(41.9855, 52.6075)">
<path transform="scale(0.0040, -0.0040)" d="M215 137c67 0 111 -37 111 -92c0 -90 -111 -182 -215 -182c-67 0 -111 37 -111 92c0 90 111 182 215 182z" fill="currentColor"/>
</g>
<g transform="translate(24.8957, 57.9268)">
<text font-family="Ubuntu Sans" font-size="2.4690" text-anchor="start" fill="currentColor">
<tspan>se</tspan>
</text>
</g>
<g transform="translate(25.4695, 54.1075)">
<path transform="scale(0.0040, -0.0040)" d="M215 137c67 0 111 -37 111 -92c0 -90 -111 -182 -215 -182c-67 0 -111 37 -111 92c0 90 111 182 215 182z" fill="currentColor"/>
</g>
<g transform="translate(20.6887, 57.9268)">
<text font-family="Ubuntu Sans" font-size="2.4690" text-anchor="start" fill="currentColor">
<tspan>mi</tspan>
</text>
</g>
<g transform="translate(0.0000, 66.1075)">
<line stroke-linejoin="round" stroke-linecap="round" stroke-width="0.0558" stroke="currentColor" x1="0.0279" y1="0" x2="82.3177" y2="0"/>
</g>
<g transform="translate(0.0000, 65.1075)">
<line stroke-linejoin="round" stroke-linecap="round" stroke-width="0.0558" stroke="currentColor" x1="0.0279" y1="0" x2="82.3177" y2="0"/>
</g>
<g transform="translate(0.0000, 64.1075)">
<line stroke-linejoin="round" stroke-linecap="round" stroke-width="0.0558" stroke="currentColor" x1="0.0279" y1="0" x2="82.3177" y2="0"/>
</g>
<g transform="translate(0.0000, 63.1075)">
<line stroke-linejoin="round" stroke-linecap="round" stroke-width="0.0558" stroke="currentColor" x1="0.0279" y1="0" x2="82.3177" y2="0"/>
</g>
<g transform="translate(0.0000, 62.1075)">
<line stroke-linejoin="round" stroke-linecap="round" stroke-width="0.0558" stroke="currentColor" x1="0.0279" y1="0" x2="82.3177" y2="0"/>
</g>
<g transform="translate(82.1336, 64.1075)">
<rect x="0.0000" y="-1.0000" width="0.2120" height="2.0000" ry="0.0000" fill="currentColor"/>
</g>
<g transform="translate(60.0002, 63.6075)">
<path transform="scale(0.0040, -0.0040)" d="M215 137c67 0 111 -37 111 -92c0 -90 -111 -182 -215 -182c-67 0 -111 37 -111 92c0 90 111 182 215 182z" fill="currentColor"/>
</g>
<g transform="translate(58.6632, 69.6075)">
<text font-family="Ubuntu Sans" font-size="2.4690" text-anchor="start" fill="currentColor">
<tspan>ven</tspan>
</text>
</g>
<g transform="translate(64.8861, 64.1075)">
<path transform="scale(0.0040, -0.0040)" d="M215 137c67 0 111 -37 111 -92c0 -90 -111 -182 -215 -182c-67 0 -111 37 -111 92c0 90 111 182 215 182z" fill="currentColor"/>
</g>
<g transform="translate(63.7500, 69.6075)">
<text font-family="Ubuntu Sans" font-size="2.4690" text-anchor="start" fill="currentColor">
<tspan>tris</tspan>
</text>
</g>
<g transform="translate(72.8268, 69.6075)">
<rect x="0.0000" y="-0.5651" width="0.6600" height="0.1451" ry="0.0446" fill="currentColor"/>
</g>
<g transform="translate(45.2280, 65.1075)">
<path transform="scale(0.0040, -0.0040)" d="M215 137c67 0 111 -37 111 -92c0 -90 -111 -182 -215 -182c-67 0 -111 37 -111 92c0 90 111 182 215 182z" fill="currentColor"/>
</g>
<g transform="translate(43.6300, 69.6075)">
<text font-family="Ubuntu Sans" font-size="2.4690" text-anchor="start" fill="currentColor">
<tspan>tum</tspan>
</text>
</g>
<g transform="translate(53.4246, 69.6075)">
<text font-family="Ubuntu Sans" font-size="2.4690" text-anchor="start" fill="currentColor">
<tspan>tum</tspan>
</text>
</g>
<g transform="translate(50.1367, 65.1075)">
<path transform="scale(0.0040, -0.0040)" d="M215 137c67 0 111 -37 111 -92c0 -90 -111 -182 -215 -182c-67 0 -111 37 -111 92c0 90 111 182 215 182z" fill="currentColor"/>
</g>
<g transform="translate(48.5789, 69.6075)">
<text font-family="Ubuntu Sans" font-size="2.4690" text-anchor="start" fill="currentColor">
<tspan>fruc</tspan>
</text>
</g>
<g transform="translate(55.0227, 64.6075)">
<path transform="scale(0.0040, -0.0040)" d="M215 137c67 0 111 -37 111 -92c0 -90 -111 -182 -215 -182c-67 0 -111 37 -111 92c0 90 111 182 215 182z" fill="currentColor"/>
</g>
<g transform="translate(33.3905, 69.6075)">
<rect x="0.0000" y="-0.5651" width="0.6600" height="0.1451" ry="0.0446" fill="currentColor"/>
</g>
<g transform="translate(13.3740, 64.1075)">
<path stroke-width="0.0446" stroke-linejoin="round" stroke-linecap="round" stroke="currentColor" fill="currentColor" d="M0.6897 1.6415C1.7264 2.7689 3.7244 2.5904 4.6061 1.2915L4.6061 1.2915C3.7184 2.5237 1.7204 2.7022 0.6897 1.6415z"/>
</g>
<g transform="translate(17.9839, 69.6075)">
<rect x="0.0000" y="-0.5651" width="0.6600" height="0.1451" ry="0.0446" fill="currentColor"/>
</g>
<g transform="translate(38.1101, 69.6075)">
<rect x="0.0000" y="-0.5651" width="0.6600" height="0.1451" ry="0.0446" fill="currentColor"/>
</g>
<g transform="translate(42.7851, 69.6075)">
<rect x="0.0000" y="-0.5651" width="0.6600" height="0.1451" ry="0.0446" fill="currentColor"/>
</g>
<g transform="translate(53.0610, 69.6075)">
<rect x="0.0000" y="-0.5651" width="0.3000" height="0.1451" ry="0.0446" fill="currentColor"/>
</g>
<g transform="translate(62.8650, 69.6075)">
<rect x="0.0000" y="-0.5651" width="0.6600" height="0.1451" ry="0.0446" fill="currentColor"/>
</g>
<g transform="translate(69.7518, 64.6075)">
<path transform="scale(0.0040, -0.0040)" d="M215 137c67 0 111 -37 111 -92c0 -90 -111 -182 -215 -182c-67 0 -111 37 -111 92c0 90 111 182 215 182z" fill="currentColor"/>
</g>
<g transform="translate(74.7255, 69.6075)">
<text font-family="Ubuntu Sans" font-size="2.4690" text-anchor="start" fill="currentColor">
<tspan>i,</tspan>
</text>
</g>
<g transform="translate(74.6377, 65.1075)">
<path transform="scale(0.0040, -0.0040)" d="M312 64c0 23 -18 41 -41 41c-39 0 -201 -110 -228 -142c-7 -8 -10 -17 -10 -27c0 -23 18 -41 41 -41c39 0 201 110 228 142c7 8 10 17 10 27zM259 137c46 0 86 -17 86 -74c0 -26 -15 -112 -73 -151c-29 -20 -89 -49 -186 -49c-46 0 -86 17 -86 74c0 26 16 112 74 151
c29 20 88 49 185 49z" fill="currentColor"/>
</g>
<g transform="translate(69.2183, 69.6075)">
<text font-family="Ubuntu Sans" font-size="2.4690" text-anchor="start" fill="currentColor">
<tspan>tu</tspan>
</text>
</g>
<g transform="translate(5.8000, 64.1075)">
<path transform="scale(0.0040, -0.0040)" d="M70 205c80 0 46 -97 90 -97c15 0 52 45 59 59c6 13 26 13 31 0l-121 -417c-9 -7 -19 -11 -30 -11s-21 4 -30 11l118 326c-33 -12 -68 -22 -103 -22c-47 0 -87 34 -87 79c0 40 33 72 73 72z" fill="currentColor"/>
</g>
<g transform="translate(8.4881, 65.1075)">
<path transform="scale(0.0040, -0.0040)" d="M215 137c67 0 111 -37 111 -92c0 -90 -111 -182 -215 -182c-67 0 -111 37 -111 92c0 90 111 182 215 182z" fill="currentColor"/>
</g>
<g transform="translate(7.9746, 69.6075)">
<text font-family="Ubuntu Sans" font-size="2.4690" text-anchor="start" fill="currentColor">
<tspan>Et</tspan>
</text>
</g>
<g transform="translate(13.3740, 64.6075)">
<path transform="scale(0.0040, -0.0040)" d="M215 137c67 0 111 -37 111 -92c0 -90 -111 -182 -215 -182c-67 0 -111 37 -111 92c0 90 111 182 215 182z" fill="currentColor"/>
</g>
<g transform="translate(13.3740, 69.6075)">
<text font-family="Ubuntu Sans" font-size="2.4690" text-anchor="start" fill="currentColor">
<tspan>Ie</tspan>
</text>
</g>
<g transform="translate(0.8000, 65.1075)">
<path transform="scale(0.0040, -0.0040)" d="M646 2c0 -113 -74 -213 -180 -247c3 -34 5 -68 5 -102c0 -20 -1 -40 -2 -60c-7 -121 -91 -228 -209 -228c-108 0 -196 87 -196 196c0 58 53 104 112 104c54 0 95 -48 95 -104c0 -52 -43 -95 -95 -95c-10 0 -20 2 -29 6c26 -38 68 -63 116 -63h3c93 2 153 92 159 190
c1 19 2 37 2 56c0 30 -2 60 -4 90c-5 -1 -43 -8 -88 -8c-194 0 -333 180 -333 375c0 177 130 307 246 442c-31 98 -53 170 -53 347c0 115 55 223 148 290c7 5 16 4 22 -1c68 -80 134 -243 134 -357c0 -143 -85 -255 -178 -364c21 -68 40 -137 57 -206c1 0 5 1 11 1
c156 0 257 -129 257 -262zM462 -202c66 24 111 88 111 162c0 89 -65 178 -170 190c28 -135 50 -272 59 -352zM75 26c0 -145 141 -245 263 -245c1 0 46 0 81 6c-7 65 -27 206 -61 363c-79 -8 -124 -61 -124 -119c0 -43 25 -89 80 -121c5 -5 7 -11 7 -16
c0 -12 -10 -23 -22 -23c-16 0 -127 63 -127 188c0 89 58 175 161 198c-14 58 -29 116 -46 173c-106 -122 -212 -244 -212 -404zM406 1042c-99 -47 -162 -148 -162 -257c0 -49 13 -111 38 -191c79 97 144 199 144 324c0 33 0 63 -20 124z" fill="currentColor"/>
</g>
<g transform="translate(30.6619, 64.1075)">
<path transform="scale(0.0040, -0.0040)" d="M215 137c67 0 111 -37 111 -92c0 -90 -111 -182 -215 -182c-67 0 -111 37 -111 92c0 90 111 182 215 182z" fill="currentColor"/>
</g>
<g transform="translate(39.3868, 69.6075)">
<text font-family="Ubuntu Sans" font-size="2.4690" text-anchor="start" fill="currentColor">
<tspan>dic</tspan>
</text>
</g>
<g transform="translate(40.3421, 64.6075)">
<path transform="scale(0.0040, -0.0040)" d="M215 137c67 0 111 -37 111 -92c0 -90 -111 -182 -215 -182c-67 0 -111 37 -111 92c0 90 111 182 215 182z" fill="currentColor"/>
</g>
<g transform="translate(34.7218, 69.6075)">
<text font-family="Ubuntu Sans" font-size="2.4690" text-anchor="start" fill="currentColor">
<tspan>ne</tspan>
</text>
</g>
<g transform="translate(35.4562, 65.1075)">
<path transform="scale(0.0040, -0.0040)" d="M215 137c67 0 111 -37 111 -92c0 -90 -111 -182 -215 -182c-67 0 -111 37 -111 92c0 90 111 182 215 182z" fill="currentColor"/>
</g>
<g transform="translate(29.9074, 69.6075)">
<text font-family="Ubuntu Sans" font-size="2.4690" text-anchor="start" fill="currentColor">
<tspan>be</tspan>
</text>
</g>
<g transform="translate(18.2801, 64.1075)">
<path transform="scale(0.0040, -0.0040)" d="M215 137c67 0 111 -37 111 -92c0 -90 -111 -182 -215 -182c-67 0 -111 37 -111 92c0 90 111 182 215 182z" fill="currentColor"/>
</g>
<g transform="translate(23.1660, 63.6075)">
<path transform="scale(0.0040, -0.0040)" d="M312 64c0 23 -18 41 -41 41c-39 0 -201 -110 -228 -142c-7 -8 -10 -17 -10 -27c0 -23 18 -41 41 -41c39 0 201 110 228 142c7 8 10 17 10 27zM259 137c46 0 86 -17 86 -74c0 -26 -15 -112 -73 -151c-29 -20 -89 -49 -186 -49c-46 0 -86 17 -86 74c0 26 16 112 74 151
c29 20 88 49 185 49z" fill="currentColor"/>
</g>
<g transform="translate(21.2454, 69.6075)">
<text font-family="Ubuntu Sans" font-size="2.4690" text-anchor="start" fill="currentColor">
<tspan>sum,</tspan>
</text>
</g>
<g transform="translate(0.0000, 78.1075)">
<line stroke-linejoin="round" stroke-linecap="round" stroke-width="0.0558" stroke="currentColor" x1="0.0279" y1="0" x2="82.3177" y2="0"/>
</g>
<g transform="translate(0.0000, 77.1075)">
<line stroke-linejoin="round" stroke-linecap="round" stroke-width="0.0558" stroke="currentColor" x1="0.0279" y1="0" x2="82.3177" y2="0"/>
</g>
<g transform="translate(0.0000, 76.1075)">
<line stroke-linejoin="round" stroke-linecap="round" stroke-width="0.0558" stroke="currentColor" x1="0.0279" y1="0" x2="82.3177" y2="0"/>
</g>
<g transform="translate(0.0000, 75.1075)">
<line stroke-linejoin="round" stroke-linecap="round" stroke-width="0.0558" stroke="currentColor" x1="0.0279" y1="0" x2="82.3177" y2="0"/>
</g>
<g transform="translate(0.0000, 74.1075)">
<line stroke-linejoin="round" stroke-linecap="round" stroke-width="0.0558" stroke="currentColor" x1="0.0279" y1="0" x2="82.3177" y2="0"/>
</g>
<g transform="translate(0.0000, 79.1075)">
<rect x="74.0605" y="-0.0779" width="2.0709" height="0.1558" ry="0.0779" fill="currentColor"/>
</g>
<g transform="translate(0.0000, 79.1075)">
<rect x="48.6741" y="-0.0779" width="2.0709" height="0.1558" ry="0.0779" fill="currentColor"/>
</g>
<g transform="translate(0.0000, 79.1075)">
<rect x="5.4743" y="-0.0779" width="1.9542" height="0.1558" ry="0.0779" fill="currentColor"/>
</g>
<g transform="translate(82.1336, 76.1075)">
<rect x="0.0000" y="-2.0000" width="0.2120" height="4.0000" ry="0.0000" fill="currentColor"/>
</g>
<g transform="translate(56.7472, 76.1075)">
<rect x="0.0000" y="-2.0000" width="0.2120" height="4.0000" ry="0.0000" fill="currentColor"/>
</g>
<g transform="translate(61.8181, 77.6075)">
<path transform="scale(0.0040, -0.0040)" d="M215 137c67 0 111 -37 111 -92c0 -90 -111 -182 -215 -182c-67 0 -111 37 -111 92c0 90 111 182 215 182z" fill="currentColor"/>
</g>
<g transform="translate(62.4695, 73.3796)">
<path transform="scale(0.0040, -0.0040)" d="M214 46c4 6 10 9 17 9c11 0 21 -9 21 -20c0 -4 -1 -9 -3 -12l-24 -34l-69 -105c-4 -6 -10 -9 -17 -9c-6 0 -12 2 -16 7l-98 118l-8 -11l-34 22l69 105c4 6 11 9 18 9c6 0 11 -2 15 -7l98 -118l8 11zM-231 -55c-11 0 -21 9 -21 20c0 6 0 7 96 151c4 6 10 9 17 9
c6 0 12 -2 16 -7l98 -118l8 11l34 -22l-69 -105c-4 -6 -11 -9 -18 -9c-6 0 -11 2 -15 7l-98 118c-37 -56 -37 -55 -48 -55z" fill="currentColor"/>
</g>
<g transform="translate(65.5763, 77.1075)">
<path transform="scale(0.0040, -0.0040)" d="M215 137c67 0 111 -37 111 -92c0 -90 -111 -182 -215 -182c-67 0 -111 37 -111 92c0 90 111 182 215 182z" fill="currentColor"/>
</g>
<g transform="translate(71.4314, 82.0724)">
<rect x="0.0000" y="-0.5651" width="0.3007" height="0.1451" ry="0.0446" fill="currentColor"/>
</g>
<g transform="translate(45.2610, 78.6075)">
<path transform="scale(0.0040, -0.0040)" d="M215 137c67 0 111 -37 111 -92c0 -90 -111 -182 -215 -182c-67 0 -111 37 -111 92c0 90 111 182 215 182z" fill="currentColor"/>
</g>
<g transform="translate(49.0192, 79.1075)">
<path transform="scale(0.0040, -0.0040)" d="M312 64c0 23 -18 41 -41 41c-39 0 -201 -110 -228 -142c-7 -8 -10 -17 -10 -27c0 -23 18 -41 41 -41c39 0 201 110 228 142c7 8 10 17 10 27zM259 137c46 0 86 -17 86 -74c0 -26 -15 -112 -73 -151c-29 -20 -89 -49 -186 -49c-46 0 -86 17 -86 74c0 26 16 112 74 151
c29 20 88 49 185 49z" fill="currentColor"/>
</g>
<g transform="translate(48.0023, 82.0724)">
<text font-family="Ubuntu Sans" font-size="2.4690" text-anchor="start" fill="currentColor">
<tspan>de.</tspan>
</text>
</g>
<g transform="translate(58.0599, 82.0724)">
<text font-family="Ubuntu Sans" font-size="2.4690" text-anchor="start" fill="currentColor">
<tspan>O,</tspan>
</text>
</g>
<g transform="translate(54.5904, 76.1075)">
<path transform="scale(0.0040, -0.0040)" d="M70 205c80 0 46 -97 90 -97c15 0 52 45 59 59c6 13 26 13 31 0l-121 -417c-9 -7 -19 -11 -30 -11s-21 4 -30 11l118 326c-33 -12 -68 -22 -103 -22c-47 0 -87 34 -87 79c0 40 33 72 73 72z" fill="currentColor"/>
</g>
<g transform="translate(58.0599, 78.1075)">
<path transform="scale(0.0040, -0.0040)" d="M215 137c67 0 111 -37 111 -92c0 -90 -111 -182 -215 -182c-67 0 -111 37 -111 92c0 90 111 182 215 182z" fill="currentColor"/>
</g>
<g transform="translate(25.0520, 82.0724)">
<rect x="0.0000" y="-0.5651" width="0.6600" height="0.1451" ry="0.0446" fill="currentColor"/>
</g>
<g transform="translate(8.0552, 82.0724)">
<rect x="0.0000" y="-0.5651" width="0.6600" height="0.1451" ry="0.0446" fill="currentColor"/>
</g>
<g transform="translate(29.0712, 82.0724)">
<rect x="0.0000" y="-0.5651" width="0.6600" height="0.1451" ry="0.0446" fill="currentColor"/>
</g>
<g transform="translate(31.9814, 82.0724)">
<rect x="0.0000" y="-0.5651" width="0.6600" height="0.1451" ry="0.0446" fill="currentColor"/>
</g>
<g transform="translate(39.9810, 82.0724)">
<rect x="0.0000" y="-0.5651" width="0.6600" height="0.1451" ry="0.0446" fill="currentColor"/>
</g>
<g transform="translate(41.5029, 76.1075)">
<path stroke-width="0.0446" stroke-linejoin="round" stroke-linecap="round" stroke="currentColor" fill="currentColor" d="M0.5941 3.0486C1.4107 4.0130 3.3120 4.2659 4.3523 3.5486L4.3523 3.5486C3.3208 4.1996 1.4195 3.9466 0.5941 3.0486z"/>
</g>
<g transform="translate(46.8327, 82.0724)">
<rect x="0.0000" y="-0.5651" width="0.6600" height="0.1451" ry="0.0446" fill="currentColor"/>
</g>
<g transform="translate(58.0599, 76.1075)">
<path stroke-width="0.0446" stroke-linejoin="round" stroke-linecap="round" stroke="currentColor" fill="currentColor" d="M0.7002 3.0486C2.3499 4.1492 6.8543 3.6398 8.2166 2.1986L8.2166 2.1986C6.8468 3.5733 2.3424 4.0827 0.7002 3.0486z"/>
</g>
<g transform="translate(60.5995, 82.0724)">
<rect x="0.0000" y="-0.0893" width="6.2796" height="0.0893" ry="0.0357" fill="currentColor"/>
</g>
<g transform="translate(69.0845, 78.1075)">
<path transform="scale(0.0040, -0.0040)" d="M312 64c0 23 -18 41 -41 41c-39 0 -201 -110 -228 -142c-7 -8 -10 -17 -10 -27c0 -23 18 -41 41 -41c39 0 201 110 228 142c7 8 10 17 10 27zM259 137c46 0 86 -17 86 -74c0 -26 -15 -112 -73 -151c-29 -20 -89 -49 -186 -49c-46 0 -86 17 -86 74c0 26 16 112 74 151
c29 20 88 49 185 49z" fill="currentColor"/>
</g>
<g transform="translate(68.1881, 82.0724)">
<text font-family="Ubuntu Sans" font-size="2.4690" text-anchor="start" fill="currentColor">
<tspan>cle</tspan>
</text>
</g>
<g transform="translate(74.4056, 79.1075)">
<path transform="scale(0.0040, -0.0040)" d="M312 64c0 23 -18 41 -41 41c-39 0 -201 -110 -228 -142c-7 -8 -10 -17 -10 -27c0 -23 18 -41 41 -41c39 0 201 110 228 142c7 8 10 17 10 27zM259 137c46 0 86 -17 86 -74c0 -26 -15 -112 -73 -151c-29 -20 -89 -49 -186 -49c-46 0 -86 17 -86 74c0 26 16 112 74 151
c29 20 88 49 185 49z" fill="currentColor"/>
</g>
<g transform="translate(71.8021, 82.0724)">
<text font-family="Ubuntu Sans" font-size="2.4690" text-anchor="start" fill="currentColor">
<tspan>mens,</tspan>
</text>
</g>
<g transform="translate(79.9768, 76.1075)">
<path transform="scale(0.0040, -0.0040)" d="M70 205c80 0 46 -97 90 -97c15 0 52 45 59 59c6 13 26 13 31 0l-121 -417c-9 -7 -19 -11 -30 -11s-21 4 -30 11l118 326c-33 -12 -68 -22 -103 -22c-47 0 -87 34 -87 79c0 40 33 72 73 72z" fill="currentColor"/>
</g>
<g transform="translate(9.8082, 77.1075)">
<path transform="scale(0.0040, -0.0040)" d="M215 137c67 0 111 -37 111 -92c0 -90 -111 -182 -215 -182c-67 0 -111 37 -111 92c0 90 111 182 215 182z" fill="currentColor"/>
</g>
<g transform="translate(8.8930, 82.0724)">
<text font-family="Ubuntu Sans" font-size="2.4690" text-anchor="start" fill="currentColor">
<tspan>bis</tspan>
</text>
</g>
<g transform="translate(14.2951, 76.6075)">
<path transform="scale(0.0040, -0.0040)" d="M215 137c67 0 111 -37 111 -92c0 -90 -111 -182 -215 -182c-67 0 -111 37 -111 92c0 90 111 182 215 182z" fill="currentColor"/>
</g>
<g transform="translate(12.4762, 82.0724)">
<text font-family="Ubuntu Sans" font-size="2.4690" text-anchor="start" fill="currentColor">
<tspan>post</tspan>
</text>
</g>
<g transform="translate(19.2239, 75.6075)">
<path transform="scale(0.0040, -0.0040)" d="M215 137c67 0 111 -37 111 -92c0 -90 -111 -182 -215 -182c-67 0 -111 37 -111 92c0 90 111 182 215 182z" fill="currentColor"/>
</g>
<g transform="translate(17.8669, 82.0724)">
<text font-family="Ubuntu Sans" font-size="2.4690" text-anchor="start" fill="currentColor">
<tspan>hoc</tspan>
</text>
</g>
<g transform="translate(22.9821, 76.1075)">
<path transform="scale(0.0040, -0.0040)" d="M215 137c67 0 111 -37 111 -92c0 -90 -111 -182 -215 -182c-67 0 -111 37 -111 92c0 90 111 182 215 182z" fill="currentColor"/>
</g>
<g transform="translate(22.9506, 82.0724)">
<text font-family="Ubuntu Sans" font-size="2.4690" text-anchor="start" fill="currentColor">
<tspan>e</tspan>
</text>
</g>
<g transform="translate(0.8000, 77.1075)">
<path transform="scale(0.0040, -0.0040)" d="M646 2c0 -113 -74 -213 -180 -247c3 -34 5 -68 5 -102c0 -20 -1 -40 -2 -60c-7 -121 -91 -228 -209 -228c-108 0 -196 87 -196 196c0 58 53 104 112 104c54 0 95 -48 95 -104c0 -52 -43 -95 -95 -95c-10 0 -20 2 -29 6c26 -38 68 -63 116 -63h3c93 2 153 92 159 190
c1 19 2 37 2 56c0 30 -2 60 -4 90c-5 -1 -43 -8 -88 -8c-194 0 -333 180 -333 375c0 177 130 307 246 442c-31 98 -53 170 -53 347c0 115 55 223 148 290c7 5 16 4 22 -1c68 -80 134 -243 134 -357c0 -143 -85 -255 -178 -364c21 -68 40 -137 57 -206c1 0 5 1 11 1
c156 0 257 -129 257 -262zM462 -202c66 24 111 88 111 162c0 89 -65 178 -170 190c28 -135 50 -272 59 -352zM75 26c0 -145 141 -245 263 -245c1 0 46 0 81 6c-7 65 -27 206 -61 363c-79 -8 -124 -61 -124 -119c0 -43 25 -89 80 -121c5 -5 7 -11 7 -16
c0 -12 -10 -23 -22 -23c-16 0 -127 63 -127 188c0 89 58 175 161 198c-14 58 -29 116 -46 173c-106 -122 -212 -244 -212 -404zM406 1042c-99 -47 -162 -148 -162 -257c0 -49 13 -111 38 -191c79 97 144 199 144 324c0 33 0 63 -20 124z" fill="currentColor"/>
</g>
<g transform="translate(5.8000, 79.1075)">
<path transform="scale(0.0040, -0.0040)" d="M215 137c67 0 111 -37 111 -92c0 -90 -111 -182 -215 -182c-67 0 -111 37 -111 92c0 90 111 182 215 182z" fill="currentColor"/>
</g>
<g transform="translate(5.0254, 82.0724)">
<text font-family="Ubuntu Sans" font-size="2.4690" text-anchor="start" fill="currentColor">
<tspan>no</tspan>
</text>
</g>
<g transform="translate(30.5071, 82.0724)">
<text font-family="Ubuntu Sans" font-size="2.4690" text-anchor="start" fill="currentColor">
<tspan>li</tspan>
</text>
</g>
<g transform="translate(33.9865, 78.1075)">
<path transform="scale(0.0040, -0.0040)" d="M215 137c67 0 111 -37 111 -92c0 -90 -111 -182 -215 -182c-67 0 -111 37 -111 92c0 90 111 182 215 182z" fill="currentColor"/>
</g>
<g transform="translate(32.8705, 82.0724)">
<text font-family="Ubuntu Sans" font-size="2.4690" text-anchor="start" fill="currentColor">
<tspan>um</tspan>
</text>
</g>
<g transform="translate(37.6730, 82.0724)">
<text font-family="Ubuntu Sans" font-size="2.4690" text-anchor="start" fill="currentColor">
<tspan>o</tspan>
</text>
</g>
<g transform="translate(37.7447, 77.6075)">
<path transform="scale(0.0040, -0.0040)" d="M215 137c67 0 111 -37 111 -92c0 -90 -111 -182 -215 -182c-67 0 -111 37 -111 92c0 90 111 182 215 182z" fill="currentColor"/>
</g>
<g transform="translate(30.4783, 77.1075)">
<path transform="scale(0.0040, -0.0040)" d="M215 137c67 0 111 -37 111 -92c0 -90 -111 -182 -215 -182c-67 0 -111 37 -111 92c0 90 111 182 215 182z" fill="currentColor"/>
</g>
<g transform="translate(26.4476, 82.0724)">
<text font-family="Ubuntu Sans" font-size="2.4690" text-anchor="start" fill="currentColor">
<tspan>xi</tspan>
</text>
</g>
<g transform="translate(26.7201, 76.6075)">
<path transform="scale(0.0040, -0.0040)" d="M215 137c67 0 111 -37 111 -92c0 -90 -111 -182 -215 -182c-67 0 -111 37 -111 92c0 90 111 182 215 182z" fill="currentColor"/>
</g>
<g transform="translate(41.5029, 78.1075)">
<path transform="scale(0.0040, -0.0040)" d="M215 137c67 0 111 -37 111 -92c0 -90 -111 -182 -215 -182c-67 0 -111 37 -111 92c0 90 111 182 215 182z" fill="currentColor"/>
</g>
<g transform="translate(41.5029, 82.0724)">
<text font-family="Ubuntu Sans" font-size="2.4690" text-anchor="start" fill="currentColor">
<tspan>sten</tspan>
</text>
</g>
<g transform="translate(0.0000, 90.1075)">
<line stroke-linejoin="round" stroke-linecap="round" stroke-width="0.0558" stroke="currentColor" x1="0.0279" y1="0" x2="82.3177" y2="0"/>
</g>
<g transform="translate(0.0000, 89.1075)">
<line stroke-linejoin="round" stroke-linecap="round" stroke-width="0.0558" stroke="currentColor" x1="0.0279" y1="0" x2="82.3177" y2="0"/>
</g>
<g transform="translate(0.0000, 88.1075)">
<line stroke-linejoin="round" stroke-linecap="round" stroke-width="0.0558" stroke="currentColor" x1="0.0279" y1="0" x2="82.3177" y2="0"/>
</g>
<g transform="translate(0.0000, 87.1075)">
<line stroke-linejoin="round" stroke-linecap="round" stroke-width="0.0558" stroke="currentColor" x1="0.0279" y1="0" x2="82.3177" y2="0"/>
</g>
<g transform="translate(0.0000, 86.1075)">
<line stroke-linejoin="round" stroke-linecap="round" stroke-width="0.0558" stroke="currentColor" x1="0.0279" y1="0" x2="82.3177" y2="0"/>
</g>
<g transform="translate(60.3125, 88.1075)">
<rect x="0.0000" y="-1.0000" width="0.2120" height="2.0000" ry="0.0000" fill="currentColor"/>
</g>
<g transform="translate(82.1336, 88.1075)">
<rect x="0.0000" y="-2.0000" width="0.2120" height="4.0000" ry="0.0000" fill="currentColor"/>
</g>
<g transform="translate(81.5868, 88.1075)">
<rect x="0.0000" y="-2.0000" width="0.2120" height="4.0000" ry="0.0000" fill="currentColor"/>
</g>
<g transform="translate(32.6825, 88.1075)">
<rect x="0.0000" y="-2.0000" width="0.2120" height="4.0000" ry="0.0000" fill="currentColor"/>
</g>
<g transform="translate(0.0000, 91.1075)">
<rect x="76.8220" y="-0.0779" width="2.0709" height="0.1558" ry="0.0779" fill="currentColor"/>
</g>
<g transform="translate(0.0000, 91.1075)">
<rect x="73.8626" y="-0.0779" width="1.9542" height="0.1558" ry="0.0779" fill="currentColor"/>
</g>
<g transform="translate(0.0000, 91.1075)">
<rect x="61.0930" y="-0.0779" width="1.9542" height="0.1558" ry="0.0779" fill="currentColor"/>
</g>
<g transform="translate(56.5591, 94.6171)">
<text font-family="Ubuntu Sans" font-size="2.4690" text-anchor="start" fill="currentColor">
<tspan>cis</tspan>
</text>
</g>
<g transform="translate(61.4187, 91.1075)">
<path transform="scale(0.0040, -0.0040)" d="M215 137c67 0 111 -37 111 -92c0 -90 -111 -182 -215 -182c-67 0 -111 37 -111 92c0 90 111 182 215 182z" fill="currentColor"/>
</g>
<g transform="translate(60.4834, 94.6171)">
<text font-family="Ubuntu Sans" font-size="2.4690" text-anchor="start" fill="currentColor">
<tspan>Vir</tspan>
</text>
</g>
<g transform="translate(57.3336, 89.1075)">
<path transform="scale(0.0040, -0.0040)" d="M215 137c67 0 111 -37 111 -92c0 -90 -111 -182 -215 -182c-67 0 -111 37 -111 92c0 90 111 182 215 182z" fill="currentColor"/>
</g>
<g transform="translate(64.6475, 89.6075)">
<path transform="scale(0.0040, -0.0040)" d="M215 137c67 0 111 -37 111 -92c0 -90 -111 -182 -215 -182c-67 0 -111 37 -111 92c0 90 111 182 215 182z" fill="currentColor"/>
</g>
<g transform="translate(63.8729, 94.6171)">
<text font-family="Ubuntu Sans" font-size="2.4690" text-anchor="start" fill="currentColor">
<tspan>go</tspan>
</text>
</g>
<g transform="translate(51.3760, 90.1075)">
<path transform="scale(0.0040, -0.0040)" d="M215 137c67 0 111 -37 111 -92c0 -90 -111 -182 -215 -182c-67 0 -111 37 -111 92c0 90 111 182 215 182z" fill="currentColor"/>
</g>
<g transform="translate(44.4061, 89.6075)">
<path transform="scale(0.0040, -0.0040)" d="M312 64c0 23 -18 41 -41 41c-39 0 -201 -110 -228 -142c-7 -8 -10 -17 -10 -27c0 -23 18 -41 41 -41c39 0 201 110 228 142c7 8 10 17 10 27zM259 137c46 0 86 -17 86 -74c0 -26 -15 -112 -73 -151c-29 -20 -89 -49 -186 -49c-46 0 -86 17 -86 74c0 26 16 112 74 151
c29 20 88 49 185 49z" fill="currentColor"/>
</g>
<g transform="translate(48.3972, 90.6075)">
<path transform="scale(0.0040, -0.0040)" d="M215 137c67 0 111 -37 111 -92c0 -90 -111 -182 -215 -182c-67 0 -111 37 -111 92c0 90 111 182 215 182z" fill="currentColor"/>
</g>
<g transform="translate(51.3760, 94.6171)">
<text font-family="Ubuntu Sans" font-size="2.4690" text-anchor="start" fill="currentColor">
<tspan>dul</tspan>
</text>
</g>
<g transform="translate(54.3548, 89.6075)">
<path transform="scale(0.0040, -0.0040)" d="M215 137c67 0 111 -37 111 -92c0 -90 -111 -182 -215 -182c-67 0 -111 37 -111 92c0 90 111 182 215 182z" fill="currentColor"/>
</g>
<g transform="translate(74.4947, 94.6171)">
<rect x="0.0000" y="-0.5651" width="0.6600" height="0.1451" ry="0.0446" fill="currentColor"/>
</g>
<g transform="translate(20.6942, 88.1075)">
<path stroke-width="0.0446" stroke-linejoin="round" stroke-linecap="round" stroke="currentColor" fill="currentColor" d="M0.5588 1.5486C1.1765 2.4207 2.6128 2.7341 3.5377 2.1986L3.5377 2.1986C2.6271 2.6686 1.1908 2.3552 0.5588 1.5486z"/>
</g>
<g transform="translate(5.8000, 88.1075)">
<path stroke-width="0.0446" stroke-linejoin="round" stroke-linecap="round" stroke="currentColor" fill="currentColor" d="M0.6514 2.1986C2.5303 4.1457 9.7566 4.1457 11.6355 2.1986L11.6355 2.1986C9.7566 4.0788 2.5303 4.0788 0.6514 2.1986z"/>
</g>
<g transform="translate(8.3396, 94.6171)">
<rect x="0.0000" y="-0.0893" width="10.6988" height="0.0893" ry="0.0357" fill="currentColor"/>
</g>
<g transform="translate(24.2404, 94.6171)">
<rect x="0.0000" y="-0.5651" width="0.6600" height="0.1451" ry="0.0446" fill="currentColor"/>
</g>
<g transform="translate(33.9171, 88.1075)">
<path stroke-width="0.0446" stroke-linejoin="round" stroke-linecap="round" stroke="currentColor" fill="currentColor" d="M0.3725 0.5486C2.1926 2.5703 12.5774 4.6936 15.0450 3.5486L15.0450 3.5486C12.5908 4.6280 2.2061 2.5047 0.3725 0.5486z"/>
</g>
<g transform="translate(36.4566, 94.6171)">
<rect x="0.0000" y="-0.0893" width="13.2433" height="0.0893" ry="0.0357" fill="currentColor"/>
</g>
<g transform="translate(51.3760, 88.1075)">
<path stroke-width="0.0446" stroke-linejoin="round" stroke-linecap="round" stroke="currentColor" fill="currentColor" d="M0.7233 3.0486C1.6144 3.6241 3.0478 3.3835 3.7021 2.5486L3.7021 2.5486C3.0367 3.3175 1.6033 3.5581 0.7233 3.0486z"/>
</g>
<g transform="translate(55.3849, 94.6171)">
<rect x="0.0000" y="-0.5651" width="0.6600" height="0.1451" ry="0.0446" fill="currentColor"/>
</g>
<g transform="translate(70.6592, 94.6171)">
<rect x="0.0000" y="-0.5651" width="0.4803" height="0.1451" ry="0.0446" fill="currentColor"/>
</g>
<g transform="translate(71.2095, 88.1075)">
<path stroke-width="0.0446" stroke-linejoin="round" stroke-linecap="round" stroke="currentColor" fill="currentColor" d="M0.5795 3.5486C1.2338 4.3835 2.6673 4.6241 3.5583 4.0486L3.5583 4.0486C2.6784 4.5581 1.2449 4.3175 0.5795 3.5486z"/>
</g>
<g transform="translate(68.2307, 90.1075)">
<path transform="scale(0.0040, -0.0040)" d="M215 137c67 0 111 -37 111 -92c0 -90 -111 -182 -215 -182c-67 0 -111 37 -111 92c0 90 111 182 215 182z" fill="currentColor"/>
</g>
<g transform="translate(67.1749, 94.6171)">
<text font-family="Ubuntu Sans" font-size="2.4690" text-anchor="start" fill="currentColor">
<tspan>Ma</tspan>
</text>
</g>
<g transform="translate(71.2095, 90.6075)">
<path transform="scale(0.0040, -0.0040)" d="M215 137c67 0 111 -37 111 -92c0 -90 -111 -182 -215 -182c-67 0 -111 37 -111 92c0 90 111 182 215 182z" fill="currentColor"/>
</g>
<g transform="translate(71.2095, 94.6171)">
<text font-family="Ubuntu Sans" font-size="2.4690" text-anchor="start" fill="currentColor">
<tspan>ri</tspan>
</text>
</g>
<g transform="translate(74.1883, 91.1075)">
<path transform="scale(0.0040, -0.0040)" d="M215 137c67 0 111 -37 111 -92c0 -90 -111 -182 -215 -182c-67 0 -111 37 -111 92c0 90 111 182 215 182z" fill="currentColor"/>
</g>
<g transform="translate(77.1672, 91.1075)">
<path transform="scale(0.0040, -0.0040)" d="M312 64c0 23 -18 41 -41 41c-39 0 -201 -110 -228 -142c-7 -8 -10 -17 -10 -27c0 -23 18 -41 41 -41c39 0 201 110 228 142c7 8 10 17 10 27zM259 137c46 0 86 -17 86 -74c0 -26 -15 -112 -73 -151c-29 -20 -89 -49 -186 -49c-46 0 -86 17 -86 74c0 26 16 112 74 151
c29 20 88 49 185 49z" fill="currentColor"/>
</g>
<g transform="translate(76.9135, 94.6171)">
<text font-family="Ubuntu Sans" font-size="2.4690" text-anchor="start" fill="currentColor">
<tspan>a.</tspan>
</text>
</g>
<g transform="translate(11.7778, 88.1075)">
<path transform="scale(0.0040, -0.0040)" d="M215 137c67 0 111 -37 111 -92c0 -90 -111 -182 -215 -182c-67 0 -111 37 -111 92c0 90 111 182 215 182z" fill="currentColor"/>
</g>
<g transform="translate(14.7567, 87.6075)">
<path transform="scale(0.0040, -0.0040)" d="M215 137c67 0 111 -37 111 -92c0 -90 -111 -182 -215 -182c-67 0 -111 37 -111 92c0 90 111 182 215 182z" fill="currentColor"/>
</g>
<g transform="translate(17.7355, 88.1075)">
<path transform="scale(0.0040, -0.0040)" d="M215 137c67 0 111 -37 111 -92c0 -90 -111 -182 -215 -182c-67 0 -111 37 -111 92c0 90 111 182 215 182z" fill="currentColor"/>
</g>
<g transform="translate(20.6942, 88.6075)">
<path transform="scale(0.0040, -0.0040)" d="M215 137c67 0 111 -37 111 -92c0 -90 -111 -182 -215 -182c-67 0 -111 37 -111 92c0 90 111 182 215 182z" fill="currentColor"/>
</g>
<g transform="translate(20.6942, 94.6171)">
<text font-family="Ubuntu Sans" font-size="2.4690" text-anchor="start" fill="currentColor">
<tspan>pi</tspan>
</text>
</g>
<g transform="translate(23.6730, 89.1075)">
<path transform="scale(0.0040, -0.0040)" d="M215 137c67 0 111 -37 111 -92c0 -90 -111 -182 -215 -182c-67 0 -111 37 -111 92c0 90 111 182 215 182z" fill="currentColor"/>
</g>
<g transform="translate(0.8000, 89.1075)">
<path transform="scale(0.0040, -0.0040)" d="M646 2c0 -113 -74 -213 -180 -247c3 -34 5 -68 5 -102c0 -20 -1 -40 -2 -60c-7 -121 -91 -228 -209 -228c-108 0 -196 87 -196 196c0 58 53 104 112 104c54 0 95 -48 95 -104c0 -52 -43 -95 -95 -95c-10 0 -20 2 -29 6c26 -38 68 -63 116 -63h3c93 2 153 92 159 190
c1 19 2 37 2 56c0 30 -2 60 -4 90c-5 -1 -43 -8 -88 -8c-194 0 -333 180 -333 375c0 177 130 307 246 442c-31 98 -53 170 -53 347c0 115 55 223 148 290c7 5 16 4 22 -1c68 -80 134 -243 134 -357c0 -143 -85 -255 -178 -364c21 -68 40 -137 57 -206c1 0 5 1 11 1
c156 0 257 -129 257 -262zM462 -202c66 24 111 88 111 162c0 89 -65 178 -170 190c28 -135 50 -272 59 -352zM75 26c0 -145 141 -245 263 -245c1 0 46 0 81 6c-7 65 -27 206 -61 363c-79 -8 -124 -61 -124 -119c0 -43 25 -89 80 -121c5 -5 7 -11 7 -16
c0 -12 -10 -23 -22 -23c-16 0 -127 63 -127 188c0 89 58 175 161 198c-14 58 -29 116 -46 173c-106 -122 -212 -244 -212 -404zM406 1042c-99 -47 -162 -148 -162 -257c0 -49 13 -111 38 -191c79 97 144 199 144 324c0 33 0 63 -20 124z" fill="currentColor"/>
</g>
<g transform="translate(5.8000, 89.1075)">
<path transform="scale(0.0040, -0.0040)" d="M215 137c67 0 111 -37 111 -92c0 -90 -111 -182 -215 -182c-67 0 -111 37 -111 92c0 90 111 182 215 182z" fill="currentColor"/>
</g>
<g transform="translate(5.8000, 94.6171)">
<text font-family="Ubuntu Sans" font-size="2.4690" text-anchor="start" fill="currentColor">
<tspan>O,</tspan>
</text>
</g>
<g transform="translate(8.7788, 88.6075)">
<path transform="scale(0.0040, -0.0040)" d="M215 137c67 0 111 -37 111 -92c0 -90 -111 -182 -215 -182c-67 0 -111 37 -111 92c0 90 111 182 215 182z" fill="currentColor"/>
</g>
<g transform="translate(9.4302, 84.4075)">
<path transform="scale(0.0040, -0.0040)" d="M214 46c4 6 10 9 17 9c11 0 21 -9 21 -20c0 -4 -1 -9 -3 -12l-24 -34l-69 -105c-4 -6 -10 -9 -17 -9c-6 0 -12 2 -16 7l-98 118l-8 -11l-34 22l69 105c4 6 11 9 18 9c6 0 11 -2 15 -7l98 -118l8 11zM-231 -55c-11 0 -21 9 -21 20c0 6 0 7 96 151c4 6 10 9 17 9
c6 0 12 -2 16 -7l98 -118l8 11l34 -22l-69 -105c-4 -6 -11 -9 -18 -9c-6 0 -11 2 -15 7l-98 118c-37 -56 -37 -55 -48 -55z" fill="currentColor"/>
</g>
<g transform="translate(33.9171, 87.6075)">
<path transform="scale(0.0040, -0.0040)" d="M312 64c0 23 -18 41 -41 41c-39 0 -201 -110 -228 -142c-7 -8 -10 -17 -10 -27c0 -23 18 -41 41 -41c39 0 201 110 228 142c7 8 10 17 10 27zM259 137c46 0 86 -17 86 -74c0 -26 -15 -112 -73 -151c-29 -20 -89 -49 -186 -49c-46 0 -86 17 -86 74c0 26 16 112 74 151
c29 20 88 49 185 49z" fill="currentColor"/>
</g>
<g transform="translate(33.9171, 94.6171)">
<text font-family="Ubuntu Sans" font-size="2.4690" text-anchor="start" fill="currentColor">
<tspan>O,</tspan>
</text>
</g>
<g transform="translate(35.7436, 87.6075)">
<path transform="scale(0.0040, -0.0040)" d="M0 0c0 31 25 56 56 56s55 -25 55 -56s-24 -56 -55 -56s-56 25 -56 56z" fill="currentColor"/>
</g>
<g transform="translate(38.6985, 89.1075)">
<path transform="scale(0.0040, -0.0040)" d="M215 137c67 0 111 -37 111 -92c0 -90 -111 -182 -215 -182c-67 0 -111 37 -111 92c0 90 111 182 215 182z" fill="currentColor"/>
</g>
<g transform="translate(41.6773, 88.6075)">
<path transform="scale(0.0040, -0.0040)" d="M215 137c67 0 111 -37 111 -92c0 -90 -111 -182 -215 -182c-67 0 -111 37 -111 92c0 90 111 182 215 182z" fill="currentColor"/>
</g>
<g transform="translate(26.6518, 89.1075)">
<path transform="scale(0.0040, -0.0040)" d="M312 64c0 23 -18 41 -41 41c-39 0 -201 -110 -228 -142c-7 -8 -10 -17 -10 -27c0 -23 18 -41 41 -41c39 0 201 110 228 142c7 8 10 17 10 27zM259 137c46 0 86 -17 86 -74c0 -26 -15 -112 -73 -151c-29 -20 -89 -49 -186 -49c-46 0 -86 17 -86 74c0 26 16 112 74 151
c29 20 88 49 185 49z" fill="currentColor"/>
</g>
<g transform="translate(26.3981, 94.6171)">
<text font-family="Ubuntu Sans" font-size="2.4690" text-anchor="start" fill="currentColor">
<tspan>a,</tspan>
</text>
</g>
<g transform="translate(30.8929, 88.1075)">
<path transform="scale(0.0040, -0.0040)" d="M70 205c80 0 46 -97 90 -97c15 0 52 45 59 59c6 13 26 13 31 0l-121 -417c-9 -7 -19 -11 -30 -11s-21 4 -30 11l118 326c-33 -12 -68 -22 -103 -22c-47 0 -87 34 -87 79c0 40 33 72 73 72z" fill="currentColor"/>
</g>
</svg>
