<svg xmlns="http://www.w3.org/2000/svg" xmlns:xlink="http://www.w3.org/1999/xlink" version="1.2"   viewBox="0.0000 -0.0000 82.3456 85.78425">
<style type="text/css">
<![CDATA[
tspan { white-space: pre; }
]]>
</style>
<g transform="translate(0.0000, 6.1075)">
<line stroke-linejoin="round" stroke-linecap="round" stroke-width="0.0558" stroke="currentColor" x1="0.0279" y1="0" x2="82.3177" y2="0"/>
</g>
<g transform="translate(0.0000, 5.1075)">
<line stroke-linejoin="round" stroke-linecap="round" stroke-width="0.0558" stroke="currentColor" x1="0.0279" y1="0" x2="82.3177" y2="0"/>
</g>
<g transform="translate(0.0000, 4.1075)">
<line stroke-linejoin="round" stroke-linecap="round" stroke-width="0.0558" stroke="currentColor" x1="0.0279" y1="0" x2="82.3177" y2="0"/>
</g>
<g transform="translate(0.0000, 3.1075)">
<line stroke-linejoin="round" stroke-linecap="round" stroke-width="0.0558" stroke="currentColor" x1="0.0279" y1="0" x2="82.3177" y2="0"/>
</g>
<g transform="translate(0.0000, 2.1075)">
<line stroke-linejoin="round" stroke-linecap="round" stroke-width="0.0558" stroke="currentColor" x1="0.0279" y1="0" x2="82.3177" y2="0"/>
</g>
<g transform="translate(0.0000, 7.1075)">
<rect x="14.3046" y="-0.0779" width="1.9542" height="0.1558" ry="0.0779" fill="currentColor"/>
</g>
<g transform="translate(19.0287, 4.1075)">
<rect x="0.0000" y="-2.0000" width="0.2120" height="4.0000" ry="0.0000" fill="currentColor"/>
</g>
<g transform="translate(82.1336, 4.1075)">
<rect x="0.0000" y="-2.0000" width="0.2120" height="4.0000" ry="0.0000" fill="currentColor"/>
</g>
<g transform="translate(52.9095, 4.1075)">
<rect x="0.0000" y="-2.0000" width="0.2120" height="4.0000" ry="0.0000" fill="currentColor"/>
</g>
<g transform="translate(74.6640, 4.1075)">
<rect x="-0.0363" y="-3.0000" width="0.0725" height="3.3206" ry="0.0363" fill="currentColor"/>
</g>
<g transform="translate(62.0071, 5.6075)">
<path transform="scale(0.0040, -0.0040)" d="M312 64c0 23 -18 41 -41 41c-39 0 -201 -110 -228 -142c-7 -8 -10 -17 -10 -27c0 -23 18 -41 41 -41c39 0 201 110 228 142c7 8 10 17 10 27zM259 137c46 0 86 -17 86 -74c0 -26 -15 -112 -73 -151c-29 -20 -89 -49 -186 -49c-46 0 -86 17 -86 74c0 26 16 112 74 151
c29 20 88 49 185 49z" fill="currentColor"/>
</g>
<g transform="translate(60.7090, 9.6075)">
<text font-family="Noto Serif" font-size="2.4690" text-anchor="start" fill="currentColor">
<tspan>živ,</tspan>
</text>
</g>
<g transform="translate(63.3514, 4.1075)">
<rect x="-0.0363" y="-2.0000" width="0.0725" height="3.2470" ry="0.0363" fill="currentColor"/>
</g>
<g transform="translate(71.8755, 2.1075)">
<path transform="scale(0.0040, -0.0040)" d="M62 158c38 0 68 -31 68 -69v-20c0 -110 -103 -165 -116 -165c-8 0 -14 6 -14 14c0 18 69 25 83 123h-28c-30 0 -55 25 -55 55c0 34 28 62 62 62z" fill="currentColor"/>
</g>
<g transform="translate(73.3975, 4.6075)">
<path transform="scale(0.0040, -0.0040)" d="M215 137c67 0 111 -37 111 -92c0 -90 -111 -182 -215 -182c-67 0 -111 37 -111 92c0 90 111 182 215 182z" fill="currentColor"/>
</g>
<g transform="translate(71.8396, 9.6075)">
<text font-family="Noto Serif" font-size="2.4690" text-anchor="start" fill="currentColor">
<tspan>v pí</tspan>
</text>
</g>
<g transform="translate(48.4377, 4.6075)">
<path transform="scale(0.0040, -0.0040)" d="M215 137c67 0 111 -37 111 -92c0 -90 -111 -182 -215 -182c-67 0 -111 37 -111 92c0 90 111 182 215 182z" fill="currentColor"/>
</g>
<g transform="translate(49.7042, 4.1075)">
<rect x="-0.0363" y="-2.2103" width="0.0725" height="2.5310" ry="0.0363" fill="currentColor"/>
</g>
<g transform="translate(54.6978, 5.1075)">
<path transform="scale(0.0040, -0.0040)" d="M215 137c67 0 111 -37 111 -92c0 -90 -111 -182 -215 -182c-67 0 -111 37 -111 92c0 90 111 182 215 182z" fill="currentColor"/>
</g>
<g transform="translate(54.6462, 9.6075)">
<text font-family="Noto Serif" font-size="2.4690" text-anchor="start" fill="currentColor">
<tspan>o</tspan>
</text>
</g>
<g transform="translate(55.9643, 4.1075)">
<rect x="-0.0363" y="-2.5000" width="0.0725" height="3.3206" ry="0.0363" fill="currentColor"/>
</g>
<g transform="translate(32.5735, 9.6075)">
<rect x="0.0000" y="-0.5651" width="0.6600" height="0.1451" ry="0.0446" fill="currentColor"/>
</g>
<g transform="translate(24.9271, 9.6075)">
<rect x="0.0000" y="-0.5651" width="0.6600" height="0.1451" ry="0.0446" fill="currentColor"/>
</g>
<g transform="translate(36.7497, 2.1075)">
<polygon stroke-linejoin="round" stroke-linecap="round" stroke-width="0.0941" fill="currentColor" stroke="currentColor" points="4.3316 0.0192 4.3316 0.4050 0.0471 0.1929 0.0471 -0.1929"/>
</g>
<g transform="translate(35.5194, 4.1075)">
<path stroke-width="0.0446" stroke-linejoin="round" stroke-linecap="round" stroke="currentColor" fill="currentColor" d="M0.6162 2.1986C1.5711 3.2085 3.8169 3.3910 4.9223 2.5486L4.9223 2.5486C3.8223 3.3243 1.5765 3.1418 0.6162 2.1986z"/>
</g>
<g transform="translate(45.3619, 2.1075)">
<polygon stroke-linejoin="round" stroke-linecap="round" stroke-width="0.0941" fill="currentColor" stroke="currentColor" points="4.3316 -0.4050 4.3316 -0.0192 0.0471 0.1929 0.0471 -0.1929"/>
</g>
<g transform="translate(44.1316, 4.1075)">
<path stroke-width="0.0446" stroke-linejoin="round" stroke-linecap="round" stroke="currentColor" fill="currentColor" d="M0.7162 2.1986C1.8837 2.9672 4.1337 2.6275 5.0223 1.5486L5.0223 1.5486C4.1237 2.5613 1.8737 2.9010 0.7162 2.1986z"/>
</g>
<g transform="translate(58.0506, 9.6075)">
<rect x="0.0000" y="-0.5651" width="0.6600" height="0.1451" ry="0.0446" fill="currentColor"/>
</g>
<g transform="translate(76.3582, 9.6075)">
<text font-family="Noto Serif" font-size="2.4690" text-anchor="start" fill="currentColor">
<tspan>seň</tspan>
</text>
</g>
<g transform="translate(74.7003, 1.1546)">
<path transform="scale(0.0040, -0.0040)" d="M0 0c0 -197 207 -335 207 -532c0 -71 -15 -141 -41 -207c-5 -8 -13 -12 -21 -12c-14 0 -27 11 -24 28c26 60 42 125 42 191c0 103 -93 207 -163 282h-18v250h18z" fill="currentColor"/>
</g>
<g transform="translate(77.7353, 5.6075)">
<path transform="scale(0.0040, -0.0040)" d="M215 137c67 0 111 -37 111 -92c0 -90 -111 -182 -215 -182c-67 0 -111 37 -111 92c0 90 111 182 215 182z" fill="currentColor"/>
</g>
<g transform="translate(79.0018, 4.1075)">
<rect x="-0.0363" y="-2.0000" width="0.0725" height="3.3206" ry="0.0363" fill="currentColor"/>
</g>
<g transform="translate(79.0381, 2.1546)">
<path transform="scale(0.0040, -0.0040)" d="M0 0c0 -197 207 -335 207 -532c0 -71 -15 -141 -41 -207c-5 -8 -13 -12 -21 -12c-14 0 -27 11 -24 28c26 60 42 125 42 191c0 103 -93 207 -163 282h-18v250h18z" fill="currentColor"/>
</g>
<g transform="translate(15.9331, 3.6546)">
<path transform="scale(0.0040, -0.0040)" d="M0 0c0 -197 207 -335 207 -532c0 -71 -15 -141 -41 -207c-5 -8 -13 -12 -21 -12c-14 0 -27 11 -24 28c26 60 42 125 42 191c0 103 -93 207 -163 282h-18v250h18z" fill="currentColor"/>
</g>
<g transform="translate(14.6303, 7.1075)">
<path transform="scale(0.0040, -0.0040)" d="M215 137c67 0 111 -37 111 -92c0 -90 -111 -182 -215 -182c-67 0 -111 37 -111 92c0 90 111 182 215 182z" fill="currentColor"/>
</g>
<g transform="translate(12.6507, 9.6075)">
<text font-family="Noto Serif" font-size="2.4690" text-anchor="start" fill="currentColor">
<tspan>men</tspan>
</text>
</g>
<g transform="translate(15.8969, 4.1075)">
<rect x="-0.0363" y="-0.5000" width="0.0725" height="3.3206" ry="0.0363" fill="currentColor"/>
</g>
<g transform="translate(20.9209, 4.1075)">
<path transform="scale(0.0040, -0.0040)" d="M215 137c67 0 111 -37 111 -92c0 -90 -111 -182 -215 -182c-67 0 -111 37 -111 92c0 90 111 182 215 182z" fill="currentColor"/>
</g>
<g transform="translate(20.0660, 9.6075)">
<text font-family="Noto Serif" font-size="2.4690" text-anchor="start" fill="currentColor">
<tspan>na</tspan>
</text>
</g>
<g transform="translate(45.3981, 4.1075)">
<rect x="-0.0363" y="-2.0018" width="0.0725" height="2.8224" ry="0.0363" fill="currentColor"/>
</g>
<g transform="translate(6.3797, 4.1075)">
<path transform="scale(0.0040, -0.0040)" d="M358 29c-30 0 -74 23 -74 73c0 38 27 76 71 76c4 0 7 0 11 -1c-27 36 -69 59 -116 59c-106 0 -113 -74 -113 -188c0 -15 1 -31 1 -48s-1 -33 -1 -48c0 -114 7 -188 113 -188c79 0 136 70 155 150c2 7 7 10 13 10c7 0 14 -5 14 -13c0 -21 -50 -175 -182 -175
c-59 0 -250 20 -250 264c0 63 18 264 250 264c115 0 174 -109 174 -165c0 -39 -30 -70 -66 -70z" fill="currentColor"/>
</g>
<g transform="translate(10.0716, 5.6075)">
<path transform="scale(0.0040, -0.0040)" d="M215 137c67 0 111 -37 111 -92c0 -90 -111 -182 -215 -182c-67 0 -111 37 -111 92c0 90 111 182 215 182z" fill="currentColor"/>
</g>
<g transform="translate(0.8000, 5.1075)">
<path transform="scale(0.0040, -0.0040)" d="M646 2c0 -113 -74 -213 -180 -247c3 -34 5 -68 5 -102c0 -20 -1 -40 -2 -60c-7 -121 -91 -228 -209 -228c-108 0 -196 87 -196 196c0 58 53 104 112 104c54 0 95 -48 95 -104c0 -52 -43 -95 -95 -95c-10 0 -20 2 -29 6c26 -38 68 -63 116 -63h3c93 2 153 92 159 190
c1 19 2 37 2 56c0 30 -2 60 -4 90c-5 -1 -43 -8 -88 -8c-194 0 -333 180 -333 375c0 177 130 307 246 442c-31 98 -53 170 -53 347c0 115 55 223 148 290c7 5 16 4 22 -1c68 -80 134 -243 134 -357c0 -143 -85 -255 -178 -364c21 -68 40 -137 57 -206c1 0 5 1 11 1
c156 0 257 -129 257 -262zM462 -202c66 24 111 88 111 162c0 89 -65 178 -170 190c28 -135 50 -272 59 -352zM75 26c0 -145 141 -245 263 -245c1 0 46 0 81 6c-7 65 -27 206 -61 363c-79 -8 -124 -61 -124 -119c0 -43 25 -89 80 -121c5 -5 7 -11 7 -16
c0 -12 -10 -23 -22 -23c-16 0 -127 63 -127 188c0 89 58 175 161 198c-14 58 -29 116 -46 173c-106 -122 -212 -244 -212 -404zM406 1042c-99 -47 -162 -148 -162 -257c0 -49 13 -111 38 -191c79 97 144 199 144 324c0 33 0 63 -20 124z" fill="currentColor"/>
</g>
<g transform="translate(4.4297, 4.1075)">
<path transform="scale(0.0040, -0.0040)" d="M29 39l-2 -64v-11c0 -22 2 -43 5 -65c44 38 91 80 91 138c0 33 -13 66 -42 66c-31 0 -51 -31 -52 -64zM-28 454c9 5 18 8 28 8s19 -3 28 -8l-7 -343c25 23 58 36 92 36c51 0 87 -49 87 -103c0 -79 -84 -117 -144 -169c-16 -14 -25 -41 -47 -41c-14 0 -25 13 -25 27z" fill="currentColor"/>
</g>
<g transform="translate(20.9572, 4.1075)">
<rect x="-0.0363" y="0.1794" width="0.0725" height="3.1540" ry="0.0363" fill="currentColor"/>
</g>
<g transform="translate(8.8953, 9.6075)">
<text font-family="Noto Serif" font-size="2.4690" text-anchor="start" fill="currentColor">
<tspan>Pla</tspan>
</text>
</g>
<g transform="translate(5.5254, 9.6075)">
<text font-family="serif" font-weight="bold" font-size="2.4690" text-anchor="start" fill="currentColor">
<tspan>R.</tspan>
</text>
</g>
<g transform="translate(11.3381, 4.1075)">
<rect x="-0.0363" y="-2.0000" width="0.0725" height="3.3206" ry="0.0363" fill="currentColor"/>
</g>
<g transform="translate(11.3744, 2.1546)">
<path transform="scale(0.0040, -0.0040)" d="M0 0c0 -197 207 -335 207 -532c0 -71 -15 -141 -41 -207c-5 -8 -13 -12 -21 -12c-14 0 -27 11 -24 28c26 60 42 125 42 191c0 103 -93 207 -163 282h-18v250h18z" fill="currentColor"/>
</g>
<g transform="translate(29.4766, 4.1075)">
<rect x="-0.0363" y="-3.0000" width="0.0725" height="3.3206" ry="0.0363" fill="currentColor"/>
</g>
<g transform="translate(39.8255, 5.6075)">
<path transform="scale(0.0040, -0.0040)" d="M215 137c67 0 111 -37 111 -92c0 -90 -111 -182 -215 -182c-67 0 -111 37 -111 92c0 90 111 182 215 182z" fill="currentColor"/>
</g>
<g transform="translate(41.0921, 4.1075)">
<rect x="-0.0363" y="-1.7897" width="0.0725" height="3.1103" ry="0.0363" fill="currentColor"/>
</g>
<g transform="translate(36.7860, 4.1075)">
<rect x="-0.0363" y="-1.9982" width="0.0725" height="2.8189" ry="0.0363" fill="currentColor"/>
</g>
<g transform="translate(35.5194, 9.6075)">
<text font-family="Noto Serif" font-size="2.4690" text-anchor="start" fill="currentColor">
<tspan>je</tspan>
</text>
</g>
<g transform="translate(35.5194, 5.1075)">
<path transform="scale(0.0040, -0.0040)" d="M215 137c67 0 111 -37 111 -92c0 -90 -111 -182 -215 -182c-67 0 -111 37 -111 92c0 90 111 182 215 182z" fill="currentColor"/>
</g>
<g transform="translate(44.1316, 9.6075)">
<text font-family="Noto Serif" font-size="2.4690" text-anchor="start" fill="currentColor">
<tspan>v nás</tspan>
</text>
</g>
<g transform="translate(44.1316, 5.1075)">
<path transform="scale(0.0040, -0.0040)" d="M215 137c67 0 111 -37 111 -92c0 -90 -111 -182 -215 -182c-67 0 -111 37 -111 92c0 90 111 182 215 182z" fill="currentColor"/>
</g>
<g transform="translate(28.2101, 4.6075)">
<path transform="scale(0.0040, -0.0040)" d="M215 137c67 0 111 -37 111 -92c0 -90 -111 -182 -215 -182c-67 0 -111 37 -111 92c0 90 111 182 215 182z" fill="currentColor"/>
</g>
<g transform="translate(27.4355, 9.6075)">
<text font-family="Noto Serif" font-size="2.4690" text-anchor="start" fill="currentColor">
<tspan>dě</tspan>
</text>
</g>
<g transform="translate(0.0000, 18.1075)">
<line stroke-linejoin="round" stroke-linecap="round" stroke-width="0.0558" stroke="currentColor" x1="0.0279" y1="0" x2="82.3177" y2="0"/>
</g>
<g transform="translate(0.0000, 17.1075)">
<line stroke-linejoin="round" stroke-linecap="round" stroke-width="0.0558" stroke="currentColor" x1="0.0279" y1="0" x2="82.3177" y2="0"/>
</g>
<g transform="translate(0.0000, 16.1075)">
<line stroke-linejoin="round" stroke-linecap="round" stroke-width="0.0558" stroke="currentColor" x1="0.0279" y1="0" x2="82.3177" y2="0"/>
</g>
<g transform="translate(0.0000, 15.1075)">
<line stroke-linejoin="round" stroke-linecap="round" stroke-width="0.0558" stroke="currentColor" x1="0.0279" y1="0" x2="82.3177" y2="0"/>
</g>
<g transform="translate(0.0000, 14.1075)">
<line stroke-linejoin="round" stroke-linecap="round" stroke-width="0.0558" stroke="currentColor" x1="0.0279" y1="0" x2="82.3177" y2="0"/>
</g>
<g transform="translate(82.1336, 16.1075)">
<rect x="0.0000" y="-2.0000" width="0.2120" height="4.0000" ry="0.0000" fill="currentColor"/>
</g>
<g transform="translate(34.0337, 16.1075)">
<rect x="0.0000" y="-2.0000" width="0.2120" height="4.0000" ry="0.0000" fill="currentColor"/>
</g>
<g transform="translate(54.9202, 16.1075)">
<rect x="0.0000" y="-2.0000" width="0.2120" height="4.0000" ry="0.0000" fill="currentColor"/>
</g>
<g transform="translate(63.6847, 17.6075)">
<path transform="scale(0.0040, -0.0040)" d="M215 137c67 0 111 -37 111 -92c0 -90 -111 -182 -215 -182c-67 0 -111 37 -111 92c0 90 111 182 215 182z" fill="currentColor"/>
</g>
<g transform="translate(63.0306, 21.6075)">
<text font-family="Noto Serif" font-size="2.4690" text-anchor="start" fill="currentColor">
<tspan>co</tspan>
</text>
</g>
<g transform="translate(64.9512, 16.1075)">
<rect x="-0.0363" y="-2.0000" width="0.0725" height="3.3206" ry="0.0363" fill="currentColor"/>
</g>
<g transform="translate(64.9875, 14.1546)">
<path transform="scale(0.0040, -0.0040)" d="M0 0c0 -197 207 -335 207 -532c0 -71 -15 -141 -41 -207c-5 -8 -13 -12 -21 -12c-14 0 -27 11 -24 28c26 60 42 125 42 191c0 103 -93 207 -163 282h-18v250h18z" fill="currentColor"/>
</g>
<g transform="translate(67.4114, 16.6075)">
<path transform="scale(0.0040, -0.0040)" d="M215 137c67 0 111 -37 111 -92c0 -90 -111 -182 -215 -182c-67 0 -111 37 -111 92c0 90 111 182 215 182z" fill="currentColor"/>
</g>
<g transform="translate(67.4114, 21.6075)">
<text font-family="Noto Serif" font-size="2.4690" text-anchor="start" fill="currentColor">
<tspan>na</tspan>
</text>
</g>
<g transform="translate(68.6779, 16.1075)">
<rect x="-0.0363" y="-2.2100" width="0.0725" height="2.5307" ry="0.0363" fill="currentColor"/>
</g>
<g transform="translate(77.1964, 21.6075)">
<rect x="0.0000" y="-0.5651" width="0.6600" height="0.1451" ry="0.0446" fill="currentColor"/>
</g>
<g transform="translate(51.2857, 16.1075)">
<path transform="scale(0.0040, -0.0040)" d="M215 137c67 0 111 -37 111 -92c0 -90 -111 -182 -215 -182c-67 0 -111 37 -111 92c0 90 111 182 215 182z" fill="currentColor"/>
</g>
<g transform="translate(50.7321, 21.6075)">
<text font-family="Noto Serif" font-size="2.4690" text-anchor="start" fill="currentColor">
<tspan>ní</tspan>
</text>
</g>
<g transform="translate(51.3220, 16.1075)">
<rect x="-0.0363" y="0.1794" width="0.0725" height="3.1956" ry="0.0363" fill="currentColor"/>
</g>
<g transform="translate(51.3583, 19.4355)">
<path transform="scale(0.0040, -0.0040)" d="M0 0h-18v250h18v-250zM0 0v250c96 59 222 149 222 259c0 57 -15 111 -40 162c-3 17 10 29 24 29c8 0 16 -5 21 -13c25 -56 40 -116 40 -178c0 -203 -267 -306 -267 -509z" fill="currentColor"/>
</g>
<g transform="translate(56.5892, 15.6075)">
<path transform="scale(0.0040, -0.0040)" d="M215 137c67 0 111 -37 111 -92c0 -90 -111 -182 -215 -182c-67 0 -111 37 -111 92c0 90 111 182 215 182z" fill="currentColor"/>
</g>
<g transform="translate(55.6338, 21.6075)">
<text font-family="Noto Serif" font-size="2.4690" text-anchor="start" fill="currentColor">
<tspan>ky,</tspan>
</text>
</g>
<g transform="translate(58.3380, 15.6075)">
<path transform="scale(0.0040, -0.0040)" d="M0 0c0 31 25 56 56 56s55 -25 55 -56s-24 -56 -55 -56s-56 25 -56 56z" fill="currentColor"/>
</g>
<g transform="translate(56.6254, 16.1075)">
<rect x="-0.0363" y="-0.3206" width="0.0725" height="3.3206" ry="0.0363" fill="currentColor"/>
</g>
<g transform="translate(25.0047, 21.6075)">
<rect x="0.0000" y="-0.5651" width="0.6600" height="0.1451" ry="0.0446" fill="currentColor"/>
</g>
<g transform="translate(11.8977, 21.6075)">
<rect x="0.0000" y="-0.5651" width="0.6600" height="0.1451" ry="0.0446" fill="currentColor"/>
</g>
<g transform="translate(20.8718, 13.1075)">
<polygon stroke-linejoin="round" stroke-linecap="round" stroke-width="0.0941" fill="currentColor" stroke="currentColor" points="3.6599 0.0192 3.6599 0.4050 0.0471 0.1929 0.0471 -0.1929"/>
</g>
<g transform="translate(19.6416, 16.1075)">
<path stroke-width="0.0446" stroke-linejoin="round" stroke-linecap="round" stroke="currentColor" fill="currentColor" d="M0.6098 1.1333C1.4364 1.8005 3.2594 1.9761 4.2442 1.4833L4.2442 1.4833C3.2658 1.9094 1.4428 1.7339 0.6098 1.1333z"/>
</g>
<g transform="translate(26.9306, 19.1075)">
<polygon stroke-linejoin="round" stroke-linecap="round" stroke-width="0.0941" fill="currentColor" stroke="currentColor" points="3.6599 -0.4050 3.6599 -0.0192 0.0471 0.1929 0.0471 -0.1929"/>
</g>
<g transform="translate(26.9306, 16.1075)">
<path stroke-width="0.0446" stroke-linejoin="round" stroke-linecap="round" stroke="currentColor" fill="currentColor" d="M0.6098 -1.1333C1.4364 -1.8005 3.2594 -1.9761 4.2442 -1.4833L4.2442 -1.4833C3.2658 -1.9094 1.4428 -1.7339 0.6098 -1.1333z"/>
</g>
<g transform="translate(54.0580, 21.6075)">
<rect x="0.0000" y="-0.5651" width="0.6600" height="0.1451" ry="0.0446" fill="currentColor"/>
</g>
<g transform="translate(68.6416, 13.8954)">
<polygon stroke-linejoin="round" stroke-linecap="round" stroke-width="0.0941" fill="currentColor" stroke="currentColor" points="3.6599 0.0192 3.6599 0.4050 0.0471 0.1929 0.0471 -0.1929"/>
</g>
<g transform="translate(71.8348, 21.6075)">
<rect x="0.0000" y="-0.5651" width="0.6600" height="0.1451" ry="0.0446" fill="currentColor"/>
</g>
<g transform="translate(71.0458, 17.1075)">
<path transform="scale(0.0040, -0.0040)" d="M215 137c67 0 111 -37 111 -92c0 -90 -111 -182 -215 -182c-67 0 -111 37 -111 92c0 90 111 182 215 182z" fill="currentColor"/>
</g>
<g transform="translate(72.3123, 16.1075)">
<rect x="-0.0363" y="-2.0021" width="0.0725" height="2.8227" ry="0.0363" fill="currentColor"/>
</g>
<g transform="translate(74.6802, 17.6075)">
<path transform="scale(0.0040, -0.0040)" d="M215 137c67 0 111 -37 111 -92c0 -90 -111 -182 -215 -182c-67 0 -111 37 -111 92c0 90 111 182 215 182z" fill="currentColor"/>
</g>
<g transform="translate(73.9056, 21.6075)">
<text font-family="Noto Serif" font-size="2.4690" text-anchor="start" fill="currentColor">
<tspan>dě</tspan>
</text>
</g>
<g transform="translate(75.9468, 16.1075)">
<rect x="-0.0363" y="-2.0000" width="0.0725" height="3.3206" ry="0.0363" fill="currentColor"/>
</g>
<g transform="translate(75.9830, 14.1546)">
<path transform="scale(0.0040, -0.0040)" d="M0 0c0 -197 207 -335 207 -532c0 -71 -15 -141 -41 -207c-5 -8 -13 -12 -21 -12c-14 0 -27 11 -24 28c26 60 42 125 42 191c0 103 -93 207 -163 282h-18v250h18z" fill="currentColor"/>
</g>
<g transform="translate(78.4069, 18.1075)">
<path transform="scale(0.0040, -0.0040)" d="M215 137c67 0 111 -37 111 -92c0 -90 -111 -182 -215 -182c-67 0 -111 37 -111 92c0 90 111 182 215 182z" fill="currentColor"/>
</g>
<g transform="translate(78.2951, 21.6075)">
<text font-family="Noto Serif" font-size="2.4690" text-anchor="start" fill="currentColor">
<tspan>ji</tspan>
</text>
</g>
<g transform="translate(79.6734, 16.1075)">
<rect x="-0.0363" y="-1.5000" width="0.0725" height="3.3206" ry="0.0363" fill="currentColor"/>
</g>
<g transform="translate(79.7097, 14.6546)">
<path transform="scale(0.0040, -0.0040)" d="M0 0c0 -197 207 -335 207 -532c0 -71 -15 -141 -41 -207c-5 -8 -13 -12 -21 -12c-14 0 -27 11 -24 28c26 60 42 125 42 191c0 103 -93 207 -163 282h-18v250h18z" fill="currentColor"/>
</g>
<g transform="translate(13.6957, 15.6075)">
<path transform="scale(0.0040, -0.0040)" d="M215 137c67 0 111 -37 111 -92c0 -90 -111 -182 -215 -182c-67 0 -111 37 -111 92c0 90 111 182 215 182z" fill="currentColor"/>
</g>
<g transform="translate(13.2626, 21.6075)">
<text font-family="Noto Serif" font-size="2.4690" text-anchor="start" fill="currentColor">
<tspan>ly</tspan>
</text>
</g>
<g transform="translate(13.7320, 16.1075)">
<rect x="-0.0363" y="-0.3206" width="0.0725" height="3.3206" ry="0.0363" fill="currentColor"/>
</g>
<g transform="translate(19.6416, 16.1075)">
<path transform="scale(0.0040, -0.0040)" d="M215 137c67 0 111 -37 111 -92c0 -90 -111 -182 -215 -182c-67 0 -111 37 -111 92c0 90 111 182 215 182z" fill="currentColor"/>
</g>
<g transform="translate(19.6416, 21.6075)">
<text font-family="Noto Serif" font-size="2.4690" text-anchor="start" fill="currentColor">
<tspan>pro</tspan>
</text>
</g>
<g transform="translate(20.9081, 16.1075)">
<rect x="-0.0363" y="-2.9979" width="0.0725" height="2.8186" ry="0.0363" fill="currentColor"/>
</g>
<g transform="translate(23.2760, 16.6075)">
<path transform="scale(0.0040, -0.0040)" d="M215 137c67 0 111 -37 111 -92c0 -90 -111 -182 -215 -182c-67 0 -111 37 -111 92c0 90 111 182 215 182z" fill="currentColor"/>
</g>
<g transform="translate(24.5425, 16.1075)">
<rect x="-0.0363" y="-2.7900" width="0.0725" height="3.1106" ry="0.0363" fill="currentColor"/>
</g>
<g transform="translate(26.9306, 16.1075)">
<path transform="scale(0.0040, -0.0040)" d="M215 137c67 0 111 -37 111 -92c0 -90 -111 -182 -215 -182c-67 0 -111 37 -111 92c0 90 111 182 215 182z" fill="currentColor"/>
</g>
<g transform="translate(26.9306, 21.6075)">
<text font-family="Noto Serif" font-size="2.4690" text-anchor="start" fill="currentColor">
<tspan>měň</tspan>
</text>
</g>
<g transform="translate(0.8000, 17.1075)">
<path transform="scale(0.0040, -0.0040)" d="M646 2c0 -113 -74 -213 -180 -247c3 -34 5 -68 5 -102c0 -20 -1 -40 -2 -60c-7 -121 -91 -228 -209 -228c-108 0 -196 87 -196 196c0 58 53 104 112 104c54 0 95 -48 95 -104c0 -52 -43 -95 -95 -95c-10 0 -20 2 -29 6c26 -38 68 -63 116 -63h3c93 2 153 92 159 190
c1 19 2 37 2 56c0 30 -2 60 -4 90c-5 -1 -43 -8 -88 -8c-194 0 -333 180 -333 375c0 177 130 307 246 442c-31 98 -53 170 -53 347c0 115 55 223 148 290c7 5 16 4 22 -1c68 -80 134 -243 134 -357c0 -143 -85 -255 -178 -364c21 -68 40 -137 57 -206c1 0 5 1 11 1
c156 0 257 -129 257 -262zM462 -202c66 24 111 88 111 162c0 89 -65 178 -170 190c28 -135 50 -272 59 -352zM75 26c0 -145 141 -245 263 -245c1 0 46 0 81 6c-7 65 -27 206 -61 363c-79 -8 -124 -61 -124 -119c0 -43 25 -89 80 -121c5 -5 7 -11 7 -16
c0 -12 -10 -23 -22 -23c-16 0 -127 63 -127 188c0 89 58 175 161 198c-14 58 -29 116 -46 173c-106 -122 -212 -244 -212 -404zM406 1042c-99 -47 -162 -148 -162 -257c0 -49 13 -111 38 -191c79 97 144 199 144 324c0 33 0 63 -20 124z" fill="currentColor"/>
</g>
<g transform="translate(4.4297, 16.1075)">
<path transform="scale(0.0040, -0.0040)" d="M29 39l-2 -64v-11c0 -22 2 -43 5 -65c44 38 91 80 91 138c0 33 -13 66 -42 66c-31 0 -51 -31 -52 -64zM-28 454c9 5 18 8 28 8s19 -3 28 -8l-7 -343c25 23 58 36 92 36c51 0 87 -49 87 -103c0 -79 -84 -117 -144 -169c-16 -14 -25 -41 -47 -41c-14 0 -25 13 -25 27z" fill="currentColor"/>
</g>
<g transform="translate(7.7297, 15.1075)">
<path transform="scale(0.0040, -0.0040)" d="M215 137c67 0 111 -37 111 -92c0 -90 -111 -182 -215 -182c-67 0 -111 37 -111 92c0 90 111 182 215 182z" fill="currentColor"/>
</g>
<g transform="translate(5.5693, 21.6075)">
<text font-family="Noto Serif" font-size="2.4690" text-anchor="start" fill="currentColor">
<tspan>chvá</tspan>
</text>
</g>
<g transform="translate(7.7659, 16.1075)">
<rect x="-0.0363" y="-0.8206" width="0.0725" height="3.3206" ry="0.0363" fill="currentColor"/>
</g>
<g transform="translate(35.5733, 21.6075)">
<text font-family="Noto Serif" font-size="2.4690" text-anchor="start" fill="currentColor">
<tspan>jej.</tspan>
</text>
</g>
<g transform="translate(38.3967, 16.6075)">
<path transform="scale(0.0040, -0.0040)" d="M0 0c0 31 25 56 56 56s55 -25 55 -56s-24 -56 -55 -56s-56 25 -56 56z" fill="currentColor"/>
</g>
<g transform="translate(37.9144, 16.1075)">
<rect x="-0.0363" y="-2.5000" width="0.0725" height="3.2470" ry="0.0363" fill="currentColor"/>
</g>
<g transform="translate(45.7875, 14.1075)">
<path transform="scale(0.0040, -0.0040)" d="M62 158c38 0 68 -31 68 -69v-20c0 -110 -103 -165 -116 -165c-8 0 -14 6 -14 14c0 18 69 25 83 123h-28c-30 0 -55 25 -55 55c0 34 28 62 62 62z" fill="currentColor"/>
</g>
<g transform="translate(47.3095, 16.6075)">
<path transform="scale(0.0040, -0.0040)" d="M215 137c67 0 111 -37 111 -92c0 -90 -111 -182 -215 -182c-67 0 -111 37 -111 92c0 90 111 182 215 182z" fill="currentColor"/>
</g>
<g transform="translate(45.2897, 21.6075)">
<text font-family="Noto Serif" font-size="2.4690" text-anchor="start" fill="currentColor">
<tspan>Pout</tspan>
</text>
</g>
<g transform="translate(48.5760, 16.1075)">
<rect x="-0.0363" y="-3.0000" width="0.0725" height="3.3206" ry="0.0363" fill="currentColor"/>
</g>
<g transform="translate(48.6123, 13.1546)">
<path transform="scale(0.0040, -0.0040)" d="M0 0c0 -197 207 -335 207 -532c0 -71 -15 -141 -41 -207c-5 -8 -13 -12 -21 -12c-14 0 -27 11 -24 28c26 60 42 125 42 191c0 103 -93 207 -163 282h-18v250h18z" fill="currentColor"/>
</g>
<g transform="translate(36.5701, 17.1075)">
<path transform="scale(0.0040, -0.0040)" d="M312 64c0 23 -18 41 -41 41c-39 0 -201 -110 -228 -142c-7 -8 -10 -17 -10 -27c0 -23 18 -41 41 -41c39 0 201 110 228 142c7 8 10 17 10 27zM259 137c46 0 86 -17 86 -74c0 -26 -15 -112 -73 -151c-29 -20 -89 -49 -186 -49c-46 0 -86 17 -86 74c0 26 16 112 74 151
c29 20 88 49 185 49z" fill="currentColor"/>
</g>
<g transform="translate(26.9669, 16.1075)">
<rect x="-0.0363" y="0.1794" width="0.0725" height="2.8186" ry="0.0363" fill="currentColor"/>
</g>
<g transform="translate(30.5651, 15.6075)">
<path transform="scale(0.0040, -0.0040)" d="M215 137c67 0 111 -37 111 -92c0 -90 -111 -182 -215 -182c-67 0 -111 37 -111 92c0 90 111 182 215 182z" fill="currentColor"/>
</g>
<g transform="translate(30.6013, 16.1075)">
<rect x="-0.0363" y="-0.3206" width="0.0725" height="3.1106" ry="0.0363" fill="currentColor"/>
</g>
<g transform="translate(0.0000, 30.1075)">
<line stroke-linejoin="round" stroke-linecap="round" stroke-width="0.0558" stroke="currentColor" x1="0.0279" y1="0" x2="82.3177" y2="0"/>
</g>
<g transform="translate(0.0000, 29.1075)">
<line stroke-linejoin="round" stroke-linecap="round" stroke-width="0.0558" stroke="currentColor" x1="0.0279" y1="0" x2="82.3177" y2="0"/>
</g>
<g transform="translate(0.0000, 28.1075)">
<line stroke-linejoin="round" stroke-linecap="round" stroke-width="0.0558" stroke="currentColor" x1="0.0279" y1="0" x2="82.3177" y2="0"/>
</g>
<g transform="translate(0.0000, 27.1075)">
<line stroke-linejoin="round" stroke-linecap="round" stroke-width="0.0558" stroke="currentColor" x1="0.0279" y1="0" x2="82.3177" y2="0"/>
</g>
<g transform="translate(0.0000, 26.1075)">
<line stroke-linejoin="round" stroke-linecap="round" stroke-width="0.0558" stroke="currentColor" x1="0.0279" y1="0" x2="82.3177" y2="0"/>
</g>
<g transform="translate(0.0000, 31.1075)">
<rect x="42.4509" y="-0.0779" width="1.9542" height="0.1558" ry="0.0779" fill="currentColor"/>
</g>
<g transform="translate(66.9673, 28.1075)">
<rect x="0.0000" y="-2.0000" width="0.2120" height="4.0000" ry="0.0000" fill="currentColor"/>
</g>
<g transform="translate(82.1336, 28.1075)">
<rect x="0.0000" y="-2.0000" width="0.2120" height="4.0000" ry="0.0000" fill="currentColor"/>
</g>
<g transform="translate(81.5868, 28.1075)">
<rect x="0.0000" y="-2.0000" width="0.2120" height="4.0000" ry="0.0000" fill="currentColor"/>
</g>
<g transform="translate(34.2576, 28.1075)">
<rect x="0.0000" y="-2.0000" width="0.2120" height="4.0000" ry="0.0000" fill="currentColor"/>
</g>
<g transform="translate(58.3946, 29.1075)">
<path transform="scale(0.0040, -0.0040)" d="M215 137c67 0 111 -37 111 -92c0 -90 -111 -182 -215 -182c-67 0 -111 37 -111 92c0 90 111 182 215 182z" fill="currentColor"/>
</g>
<g transform="translate(58.3946, 33.6075)">
<text font-family="Noto Serif" font-size="2.4690" text-anchor="start" fill="currentColor">
<tspan>vá</tspan>
</text>
</g>
<g transform="translate(59.6612, 28.1075)">
<rect x="-0.0363" y="-1.9982" width="0.0725" height="2.8188" ry="0.0363" fill="currentColor"/>
</g>
<g transform="translate(62.5624, 29.6075)">
<path transform="scale(0.0040, -0.0040)" d="M215 137c67 0 111 -37 111 -92c0 -90 -111 -182 -215 -182c-67 0 -111 37 -111 92c0 90 111 182 215 182z" fill="currentColor"/>
</g>
<g transform="translate(63.8289, 28.1075)">
<rect x="-0.0363" y="-1.7897" width="0.0725" height="3.1104" ry="0.0363" fill="currentColor"/>
</g>
<g transform="translate(69.7036, 29.6075)">
<path transform="scale(0.0040, -0.0040)" d="M312 64c0 23 -18 41 -41 41c-39 0 -201 -110 -228 -142c-7 -8 -10 -17 -10 -27c0 -23 18 -41 41 -41c39 0 201 110 228 142c7 8 10 17 10 27zM259 137c46 0 86 -17 86 -74c0 -26 -15 -112 -73 -151c-29 -20 -89 -49 -186 -49c-46 0 -86 17 -86 74c0 26 16 112 74 151
c29 20 88 49 185 49z" fill="currentColor"/>
</g>
<g transform="translate(42.7766, 31.1075)">
<path transform="scale(0.0040, -0.0040)" d="M215 137c67 0 111 -37 111 -92c0 -90 -111 -182 -215 -182c-67 0 -111 37 -111 92c0 90 111 182 215 182z" fill="currentColor"/>
</g>
<g transform="translate(51.3257, 28.1075)">
<rect x="-0.0363" y="-2.9982" width="0.0725" height="2.8188" ry="0.0363" fill="currentColor"/>
</g>
<g transform="translate(64.5162, 33.6075)">
<rect x="0.0000" y="-0.5651" width="0.6600" height="0.1451" ry="0.0446" fill="currentColor"/>
</g>
<g transform="translate(42.7250, 33.6075)">
<text font-family="Noto Serif" font-size="2.4690" text-anchor="start" fill="currentColor">
<tspan>a</tspan>
</text>
</g>
<g transform="translate(44.0431, 28.1075)">
<rect x="-0.0363" y="-0.5000" width="0.0725" height="3.3206" ry="0.0363" fill="currentColor"/>
</g>
<g transform="translate(50.0592, 28.1075)">
<path transform="scale(0.0040, -0.0040)" d="M215 137c67 0 111 -37 111 -92c0 -90 -111 -182 -215 -182c-67 0 -111 37 -111 92c0 90 111 182 215 182z" fill="currentColor"/>
</g>
<g transform="translate(50.0592, 33.6075)">
<text font-family="Noto Serif" font-size="2.4690" text-anchor="start" fill="currentColor">
<tspan>pro</tspan>
</text>
</g>
<g transform="translate(54.2269, 28.6075)">
<path transform="scale(0.0040, -0.0040)" d="M215 137c67 0 111 -37 111 -92c0 -90 -111 -182 -215 -182c-67 0 -111 37 -111 92c0 90 111 182 215 182z" fill="currentColor"/>
</g>
<g transform="translate(55.4935, 28.1075)">
<rect x="-0.0363" y="-2.7897" width="0.0725" height="3.1104" ry="0.0363" fill="currentColor"/>
</g>
<g transform="translate(28.0283, 33.6075)">
<rect x="0.0000" y="-0.5651" width="0.6600" height="0.1451" ry="0.0446" fill="currentColor"/>
</g>
<g transform="translate(11.1450, 33.6075)">
<rect x="0.0000" y="-0.5651" width="0.6600" height="0.1451" ry="0.0446" fill="currentColor"/>
</g>
<g transform="translate(51.2895, 25.1075)">
<polygon stroke-linejoin="round" stroke-linecap="round" stroke-width="0.0941" fill="currentColor" stroke="currentColor" points="4.1932 0.0192 4.1932 0.4050 0.0471 0.1929 0.0471 -0.1929"/>
</g>
<g transform="translate(50.0592, 28.1075)">
<path stroke-width="0.0446" stroke-linejoin="round" stroke-linecap="round" stroke="currentColor" fill="currentColor" d="M0.6151 1.2835C1.5443 2.5913 3.7014 2.7725 4.7828 1.6335L4.7828 1.6335C3.7070 2.7058 1.5499 2.5246 0.6151 1.2835z"/>
</g>
<g transform="translate(55.9455, 33.6075)">
<rect x="0.0000" y="-0.5651" width="0.6600" height="0.1451" ry="0.0446" fill="currentColor"/>
</g>
<g transform="translate(59.6249, 26.1075)">
<polygon stroke-linejoin="round" stroke-linecap="round" stroke-width="0.0941" fill="currentColor" stroke="currentColor" points="4.1932 0.0192 4.1932 0.4050 0.0471 0.1929 0.0471 -0.1929"/>
</g>
<g transform="translate(58.3946, 28.1075)">
<path stroke-width="0.0446" stroke-linejoin="round" stroke-linecap="round" stroke="currentColor" fill="currentColor" d="M0.6151 2.1986C1.5443 3.1887 3.7014 3.3699 4.7828 2.5486L4.7828 2.5486C3.7070 3.3032 1.5499 3.1220 0.6151 2.1986z"/>
</g>
<g transform="translate(68.4458, 33.6075)">
<text font-family="Noto Serif" font-size="2.4690" text-anchor="start" fill="currentColor">
<tspan>zej.</tspan>
</text>
</g>
<g transform="translate(71.5302, 29.6075)">
<path transform="scale(0.0040, -0.0040)" d="M0 0c0 31 25 56 56 56s55 -25 55 -56s-24 -56 -55 -56s-56 25 -56 56z" fill="currentColor"/>
</g>
<g transform="translate(71.0480, 28.1075)">
<rect x="-0.0363" y="-2.0000" width="0.0725" height="3.2470" ry="0.0363" fill="currentColor"/>
</g>
<g transform="translate(6.9149, 33.6075)">
<text font-family="Noto Serif" font-size="2.4690" text-anchor="start" fill="currentColor">
<tspan>ne</tspan>
</text>
</g>
<g transform="translate(8.9962, 28.1075)">
<rect x="-0.0363" y="-2.0000" width="0.0725" height="3.3206" ry="0.0363" fill="currentColor"/>
</g>
<g transform="translate(14.7623, 29.6075)">
<path transform="scale(0.0040, -0.0040)" d="M312 64c0 23 -18 41 -41 41c-39 0 -201 -110 -228 -142c-7 -8 -10 -17 -10 -27c0 -23 18 -41 41 -41c39 0 201 110 228 142c7 8 10 17 10 27zM259 137c46 0 86 -17 86 -74c0 -26 -15 -112 -73 -151c-29 -20 -89 -49 -186 -49c-46 0 -86 17 -86 74c0 26 16 112 74 151
c29 20 88 49 185 49z" fill="currentColor"/>
</g>
<g transform="translate(13.1027, 33.6075)">
<text font-family="Noto Serif" font-size="2.4690" text-anchor="start" fill="currentColor">
<tspan>sou,</tspan>
</text>
</g>
<g transform="translate(16.1066, 28.1075)">
<rect x="-0.0363" y="-2.0000" width="0.0725" height="3.2470" ry="0.0363" fill="currentColor"/>
</g>
<g transform="translate(7.7297, 29.6075)">
<path transform="scale(0.0040, -0.0040)" d="M215 137c67 0 111 -37 111 -92c0 -90 -111 -182 -215 -182c-67 0 -111 37 -111 92c0 90 111 182 215 182z" fill="currentColor"/>
</g>
<g transform="translate(24.2157, 26.1075)">
<path transform="scale(0.0040, -0.0040)" d="M62 158c38 0 68 -31 68 -69v-20c0 -110 -103 -165 -116 -165c-8 0 -14 6 -14 14c0 18 69 25 83 123h-28c-30 0 -55 25 -55 55c0 34 28 62 62 62z" fill="currentColor"/>
</g>
<g transform="translate(25.7376, 30.6075)">
<path transform="scale(0.0040, -0.0040)" d="M215 137c67 0 111 -37 111 -92c0 -90 -111 -182 -215 -182c-67 0 -111 37 -111 92c0 90 111 182 215 182z" fill="currentColor"/>
</g>
<g transform="translate(24.9429, 33.6075)">
<text font-family="Noto Serif" font-size="2.4690" text-anchor="start" fill="currentColor">
<tspan>Pa</tspan>
</text>
</g>
<g transform="translate(27.0041, 28.1075)">
<rect x="-0.0363" y="-1.0000" width="0.0725" height="3.3206" ry="0.0363" fill="currentColor"/>
</g>
<g transform="translate(4.4297, 28.1075)">
<path transform="scale(0.0040, -0.0040)" d="M29 39l-2 -64v-11c0 -22 2 -43 5 -65c44 38 91 80 91 138c0 33 -13 66 -42 66c-31 0 -51 -31 -52 -64zM-28 454c9 5 18 8 28 8s19 -3 28 -8l-7 -343c25 23 58 36 92 36c51 0 87 -49 87 -103c0 -79 -84 -117 -144 -169c-16 -14 -25 -41 -47 -41c-14 0 -25 13 -25 27z" fill="currentColor"/>
</g>
<g transform="translate(0.8000, 29.1075)">
<path transform="scale(0.0040, -0.0040)" d="M646 2c0 -113 -74 -213 -180 -247c3 -34 5 -68 5 -102c0 -20 -1 -40 -2 -60c-7 -121 -91 -228 -209 -228c-108 0 -196 87 -196 196c0 58 53 104 112 104c54 0 95 -48 95 -104c0 -52 -43 -95 -95 -95c-10 0 -20 2 -29 6c26 -38 68 -63 116 -63h3c93 2 153 92 159 190
c1 19 2 37 2 56c0 30 -2 60 -4 90c-5 -1 -43 -8 -88 -8c-194 0 -333 180 -333 375c0 177 130 307 246 442c-31 98 -53 170 -53 347c0 115 55 223 148 290c7 5 16 4 22 -1c68 -80 134 -243 134 -357c0 -143 -85 -255 -178 -364c21 -68 40 -137 57 -206c1 0 5 1 11 1
c156 0 257 -129 257 -262zM462 -202c66 24 111 88 111 162c0 89 -65 178 -170 190c28 -135 50 -272 59 -352zM75 26c0 -145 141 -245 263 -245c1 0 46 0 81 6c-7 65 -27 206 -61 363c-79 -8 -124 -61 -124 -119c0 -43 25 -89 80 -121c5 -5 7 -11 7 -16
c0 -12 -10 -23 -22 -23c-16 0 -127 63 -127 188c0 89 58 175 161 198c-14 58 -29 116 -46 173c-106 -122 -212 -244 -212 -404zM406 1042c-99 -47 -162 -148 -162 -257c0 -49 13 -111 38 -191c79 97 144 199 144 324c0 33 0 63 -20 124z" fill="currentColor"/>
</g>
<g transform="translate(27.0404, 27.1546)">
<path transform="scale(0.0040, -0.0040)" d="M0 0c0 -197 207 -335 207 -532c0 -71 -15 -141 -41 -207c-5 -8 -13 -12 -21 -12c-14 0 -27 11 -24 28c26 60 42 125 42 191c0 103 -93 207 -163 282h-18v250h18z" fill="currentColor"/>
</g>
<g transform="translate(33.1908, 33.6075)">
<text font-family="Noto Serif" font-size="2.4690" text-anchor="start" fill="currentColor">
<tspan>chraň</tspan>
</text>
</g>
<g transform="translate(37.2605, 28.1075)">
<rect x="-0.0363" y="-2.0000" width="0.0725" height="3.3206" ry="0.0363" fill="currentColor"/>
</g>
<g transform="translate(35.9939, 29.6075)">
<path transform="scale(0.0040, -0.0040)" d="M215 137c67 0 111 -37 111 -92c0 -90 -111 -182 -215 -182c-67 0 -111 37 -111 92c0 90 111 182 215 182z" fill="currentColor"/>
</g>
<g transform="translate(31.3004, 26.6546)">
<path transform="scale(0.0040, -0.0040)" d="M0 0c0 -197 207 -335 207 -532c0 -71 -15 -141 -41 -207c-5 -8 -13 -12 -21 -12c-14 0 -27 11 -24 28c26 60 42 125 42 191c0 103 -93 207 -163 282h-18v250h18z" fill="currentColor"/>
</g>
<g transform="translate(31.2641, 28.1075)">
<rect x="-0.0363" y="-1.5000" width="0.0725" height="3.3206" ry="0.0363" fill="currentColor"/>
</g>
<g transform="translate(29.9976, 30.1075)">
<path transform="scale(0.0040, -0.0040)" d="M215 137c67 0 111 -37 111 -92c0 -90 -111 -182 -215 -182c-67 0 -111 37 -111 92c0 90 111 182 215 182z" fill="currentColor"/>
</g>
<g transform="translate(28.8816, 33.6075)">
<text font-family="Noto Serif" font-size="2.4690" text-anchor="start" fill="currentColor">
<tspan>ne,</tspan>
</text>
</g>
<g transform="translate(0.0000, 44.1075)">
<line stroke-linejoin="round" stroke-linecap="round" stroke-width="0.0558" stroke="currentColor" x1="0.0279" y1="0" x2="82.3177" y2="0"/>
</g>
<g transform="translate(0.0000, 43.1075)">
<line stroke-linejoin="round" stroke-linecap="round" stroke-width="0.0558" stroke="currentColor" x1="0.0279" y1="0" x2="82.3177" y2="0"/>
</g>
<g transform="translate(0.0000, 42.1075)">
<line stroke-linejoin="round" stroke-linecap="round" stroke-width="0.0558" stroke="currentColor" x1="0.0279" y1="0" x2="82.3177" y2="0"/>
</g>
<g transform="translate(0.0000, 41.1075)">
<line stroke-linejoin="round" stroke-linecap="round" stroke-width="0.0558" stroke="currentColor" x1="0.0279" y1="0" x2="82.3177" y2="0"/>
</g>
<g transform="translate(0.0000, 40.1075)">
<line stroke-linejoin="round" stroke-linecap="round" stroke-width="0.0558" stroke="currentColor" x1="0.0279" y1="0" x2="82.3177" y2="0"/>
</g>
<g transform="translate(18.8645, 42.1075)">
<rect x="0.0000" y="-2.0000" width="0.2120" height="4.0000" ry="0.0000" fill="currentColor"/>
</g>
<g transform="translate(82.1336, 42.1075)">
<rect x="0.0000" y="-2.0000" width="0.2120" height="4.0000" ry="0.0000" fill="currentColor"/>
</g>
<g transform="translate(52.3298, 42.1075)">
<rect x="0.0000" y="-2.0000" width="0.2120" height="4.0000" ry="0.0000" fill="currentColor"/>
</g>
<g transform="translate(71.7225, 50.4551)">
<text font-family="Noto Serif" font-size="2.4690" text-anchor="start" fill="currentColor">
<tspan>po</tspan>
</text>
</g>
<g transform="translate(59.9452, 47.6551)">
<text font-family="Noto Serif" font-size="2.4690" text-anchor="start" fill="currentColor">
<tspan>rod</tspan>
</text>
</g>
<g transform="translate(71.3209, 47.6551)">
<text font-family="Noto Serif" font-size="2.4690" text-anchor="start" fill="currentColor">
<tspan>naj</tspan>
</text>
</g>
<g transform="translate(72.5373, 42.6075)">
<path transform="scale(0.0040, -0.0040)" d="M215 137c67 0 111 -37 111 -92c0 -90 -111 -182 -215 -182c-67 0 -111 37 -111 92c0 90 111 182 215 182z" fill="currentColor"/>
</g>
<g transform="translate(71.0153, 40.1075)">
<path transform="scale(0.0040, -0.0040)" d="M62 158c38 0 68 -31 68 -69v-20c0 -110 -103 -165 -116 -165c-8 0 -14 6 -14 14c0 18 69 25 83 123h-28c-30 0 -55 25 -55 55c0 34 28 62 62 62z" fill="currentColor"/>
</g>
<g transform="translate(62.6478, 42.1075)">
<rect x="-0.0363" y="-3.0000" width="0.0725" height="3.2470" ry="0.0363" fill="currentColor"/>
</g>
<g transform="translate(60.2263, 53.2551)">
<text font-family="Noto Serif" font-size="2.4690" text-anchor="start" fill="currentColor">
<tspan>ne,</tspan>
</text>
</g>
<g transform="translate(60.3870, 50.4551)">
<text font-family="Noto Serif" font-size="2.4690" text-anchor="start" fill="currentColor">
<tspan>vý,</tspan>
</text>
</g>
<g transform="translate(70.7585, 53.2551)">
<text font-family="Noto Serif" font-size="2.4690" text-anchor="start" fill="currentColor">
<tspan>sám</tspan>
</text>
</g>
<g transform="translate(73.8038, 42.1075)">
<rect x="-0.0363" y="-3.0000" width="0.0725" height="3.3206" ry="0.0363" fill="currentColor"/>
</g>
<g transform="translate(73.8401, 39.1546)">
<path transform="scale(0.0040, -0.0040)" d="M0 0c0 -197 207 -335 207 -532c0 -71 -15 -141 -41 -207c-5 -8 -13 -12 -21 -12c-14 0 -27 11 -24 28c26 60 42 125 42 191c0 103 -93 207 -163 282h-18v250h18z" fill="currentColor"/>
</g>
<g transform="translate(47.8744, 43.1075)">
<path transform="scale(0.0040, -0.0040)" d="M215 137c67 0 111 -37 111 -92c0 -90 -111 -182 -215 -182c-67 0 -111 37 -111 92c0 90 111 182 215 182z" fill="currentColor"/>
</g>
<g transform="translate(49.1410, 42.1075)">
<rect x="-0.0363" y="-2.0018" width="0.0725" height="2.8224" ry="0.0363" fill="currentColor"/>
</g>
<g transform="translate(54.0985, 42.6075)">
<path transform="scale(0.0040, -0.0040)" d="M215 137c67 0 111 -37 111 -92c0 -90 -111 -182 -215 -182c-67 0 -111 37 -111 92c0 90 111 182 215 182z" fill="currentColor"/>
</g>
<g transform="translate(53.2436, 47.6551)">
<text font-family="Noto Serif" font-size="2.4690" text-anchor="start" fill="currentColor">
<tspan>ná</tspan>
</text>
</g>
<g transform="translate(53.9666, 50.4551)">
<text font-family="Noto Serif" font-size="2.4690" text-anchor="start" fill="currentColor">
<tspan>li</tspan>
</text>
</g>
<g transform="translate(53.3239, 53.2551)">
<text font-family="Noto Serif" font-size="2.4690" text-anchor="start" fill="currentColor">
<tspan>va</tspan>
</text>
</g>
<g transform="translate(61.3035, 42.6075)">
<path transform="scale(0.0040, -0.0040)" d="M312 64c0 23 -18 41 -41 41c-39 0 -201 -110 -228 -142c-7 -8 -10 -17 -10 -27c0 -23 18 -41 41 -41c39 0 201 110 228 142c7 8 10 17 10 27zM259 137c46 0 86 -17 86 -74c0 -26 -15 -112 -73 -151c-29 -20 -89 -49 -186 -49c-46 0 -86 17 -86 74c0 26 16 112 74 151
c29 20 88 49 185 49z" fill="currentColor"/>
</g>
<g transform="translate(55.3650, 42.1075)">
<rect x="-0.0363" y="-3.0000" width="0.0725" height="3.3206" ry="0.0363" fill="currentColor"/>
</g>
<g transform="translate(43.6205, 42.1075)">
<path stroke-width="0.0446" stroke-linejoin="round" stroke-linecap="round" stroke="currentColor" fill="currentColor" d="M0.5858 1.5486C1.4645 2.6204 3.6810 2.9591 4.8397 2.1986L4.8397 2.1986C3.6911 2.8929 1.4746 2.5542 0.5858 1.5486z"/>
</g>
<g transform="translate(23.9941, 47.6551)">
<rect x="0.0000" y="-0.5651" width="0.6600" height="0.1451" ry="0.0446" fill="currentColor"/>
</g>
<g transform="translate(24.8577, 50.4551)">
<rect x="0.0000" y="-0.5651" width="0.6600" height="0.1451" ry="0.0446" fill="currentColor"/>
</g>
<g transform="translate(35.1329, 44.8954)">
<polygon stroke-linejoin="round" stroke-linecap="round" stroke-width="0.0941" fill="currentColor" stroke="currentColor" points="4.2794 0.0192 4.2794 0.4050 0.0471 0.1929 0.0471 -0.1929"/>
</g>
<g transform="translate(35.1329, 42.1075)">
<path stroke-width="0.0446" stroke-linejoin="round" stroke-linecap="round" stroke="currentColor" fill="currentColor" d="M0.6870 -1.6308C1.7834 -2.7737 3.9956 -2.5917 4.9409 -1.2808L4.9409 -1.2808C3.9902 -2.5249 1.7779 -2.7069 0.6870 -1.6308z"/>
</g>
<g transform="translate(40.0710, 50.4551)">
<rect x="0.0000" y="-0.5651" width="0.6600" height="0.1451" ry="0.0446" fill="currentColor"/>
</g>
<g transform="translate(41.1355, 53.2551)">
<rect x="0.0000" y="-0.5651" width="0.6600" height="0.1451" ry="0.0446" fill="currentColor"/>
</g>
<g transform="translate(44.8508, 39.8954)">
<polygon stroke-linejoin="round" stroke-linecap="round" stroke-width="0.0941" fill="currentColor" stroke="currentColor" points="4.2794 0.0192 4.2794 0.4050 0.0471 0.1929 0.0471 -0.1929"/>
</g>
<g transform="translate(49.8896, 50.4551)">
<rect x="0.0000" y="-0.5651" width="0.6600" height="0.1451" ry="0.0446" fill="currentColor"/>
</g>
<g transform="translate(57.7707, 47.6551)">
<rect x="0.0000" y="-0.5651" width="0.6600" height="0.1451" ry="0.0446" fill="currentColor"/>
</g>
<g transform="translate(57.6301, 50.4551)">
<rect x="0.0000" y="-0.5651" width="0.6600" height="0.1451" ry="0.0446" fill="currentColor"/>
</g>
<g transform="translate(57.8711, 53.2551)">
<rect x="0.0000" y="-0.5651" width="0.6600" height="0.1451" ry="0.0446" fill="currentColor"/>
</g>
<g transform="translate(75.7047, 47.6551)">
<rect x="0.0000" y="-0.5651" width="0.6600" height="0.1451" ry="0.0446" fill="currentColor"/>
</g>
<g transform="translate(75.7348, 50.4551)">
<rect x="0.0000" y="-0.5651" width="0.6600" height="0.1451" ry="0.0446" fill="currentColor"/>
</g>
<g transform="translate(77.0129, 47.6551)">
<text font-family="Noto Serif" font-size="2.4690" text-anchor="start" fill="currentColor">
<tspan>de</tspan>
</text>
</g>
<g transform="translate(77.4748, 50.4551)">
<text font-family="Noto Serif" font-size="2.4690" text-anchor="start" fill="currentColor">
<tspan>si</tspan>
</text>
</g>
<g transform="translate(76.0689, 53.2551)">
<text font-family="Noto Serif" font-size="2.4690" text-anchor="start" fill="currentColor">
<tspan>Bůh</tspan>
</text>
</g>
<g transform="translate(79.0540, 42.1075)">
<rect x="-0.0363" y="-3.0000" width="0.0725" height="3.3206" ry="0.0363" fill="currentColor"/>
</g>
<g transform="translate(79.0902, 39.1546)">
<path transform="scale(0.0040, -0.0040)" d="M0 0c0 -197 207 -335 207 -532c0 -71 -15 -141 -41 -207c-5 -8 -13 -12 -21 -12c-14 0 -27 11 -24 28c26 60 42 125 42 191c0 103 -93 207 -163 282h-18v250h18z" fill="currentColor"/>
</g>
<g transform="translate(77.7874, 42.6075)">
<path transform="scale(0.0040, -0.0040)" d="M215 137c67 0 111 -37 111 -92c0 -90 -111 -182 -215 -182c-67 0 -111 37 -111 92c0 90 111 182 215 182z" fill="currentColor"/>
</g>
<g transform="translate(12.9822, 47.6551)">
<rect x="0.0000" y="-0.5651" width="0.6514" height="0.1451" ry="0.0446" fill="currentColor"/>
</g>
<g transform="translate(12.7269, 50.4551)">
<rect x="0.0000" y="-0.5651" width="0.6600" height="0.1451" ry="0.0446" fill="currentColor"/>
</g>
<g transform="translate(14.5184, 42.6075)">
<path transform="scale(0.0040, -0.0040)" d="M215 137c67 0 111 -37 111 -92c0 -90 -111 -182 -215 -182c-67 0 -111 37 -111 92c0 90 111 182 215 182z" fill="currentColor"/>
</g>
<g transform="translate(13.7036, 47.6551)">
<text font-family="Noto Serif" font-size="2.4690" text-anchor="start" fill="currentColor">
<tspan>dý</tspan>
</text>
</g>
<g transform="translate(13.8844, 50.4551)">
<text font-family="Noto Serif" font-size="2.4690" text-anchor="start" fill="currentColor">
<tspan>že</tspan>
</text>
</g>
<g transform="translate(14.4668, 53.2551)">
<text font-family="Noto Serif" font-size="2.4690" text-anchor="start" fill="currentColor">
<tspan>a</tspan>
</text>
</g>
<g transform="translate(15.7849, 42.1075)">
<rect x="-0.0363" y="-3.0000" width="0.0725" height="3.3206" ry="0.0363" fill="currentColor"/>
</g>
<g transform="translate(15.8212, 39.1546)">
<path transform="scale(0.0040, -0.0040)" d="M0 0c0 -197 207 -335 207 -532c0 -71 -15 -141 -41 -207c-5 -8 -13 -12 -21 -12c-14 0 -27 11 -24 28c26 60 42 125 42 191c0 103 -93 207 -163 282h-18v250h18z" fill="currentColor"/>
</g>
<g transform="translate(20.7944, 41.1075)">
<path transform="scale(0.0040, -0.0040)" d="M215 137c67 0 111 -37 111 -92c0 -90 -111 -182 -215 -182c-67 0 -111 37 -111 92c0 90 111 182 215 182z" fill="currentColor"/>
</g>
<g transform="translate(20.3813, 47.6551)">
<text font-family="Noto Serif" font-size="2.4690" text-anchor="start" fill="currentColor">
<tspan>ja</tspan>
</text>
</g>
<g transform="translate(19.3570, 50.4551)">
<text font-family="Noto Serif" font-size="2.4690" text-anchor="start" fill="currentColor">
<tspan>něž</tspan>
</text>
</g>
<g transform="translate(20.8307, 42.1075)">
<rect x="-0.0363" y="-0.8206" width="0.0725" height="3.3206" ry="0.0363" fill="currentColor"/>
</g>
<g transform="translate(4.4297, 42.1075)">
<path transform="scale(0.0040, -0.0040)" d="M29 39l-2 -64v-11c0 -22 2 -43 5 -65c44 38 91 80 91 138c0 33 -13 66 -42 66c-31 0 -51 -31 -52 -64zM-28 454c9 5 18 8 28 8s19 -3 28 -8l-7 -343c25 23 58 36 92 36c51 0 87 -49 87 -103c0 -79 -84 -117 -144 -169c-16 -14 -25 -41 -47 -41c-14 0 -25 13 -25 27z" fill="currentColor"/>
</g>
<g transform="translate(80.4382, 50.4551)">
<rect x="0.0000" y="-0.5651" width="0.6600" height="0.1451" ry="0.0446" fill="currentColor"/>
</g>
<g transform="translate(10.0716, 42.6075)">
<path transform="scale(0.0040, -0.0040)" d="M215 137c67 0 111 -37 111 -92c0 -90 -111 -182 -215 -182c-67 0 -111 37 -111 92c0 90 111 182 215 182z" fill="currentColor"/>
</g>
<g transform="translate(0.8000, 43.1075)">
<path transform="scale(0.0040, -0.0040)" d="M646 2c0 -113 -74 -213 -180 -247c3 -34 5 -68 5 -102c0 -20 -1 -40 -2 -60c-7 -121 -91 -228 -209 -228c-108 0 -196 87 -196 196c0 58 53 104 112 104c54 0 95 -48 95 -104c0 -52 -43 -95 -95 -95c-10 0 -20 2 -29 6c26 -38 68 -63 116 -63h3c93 2 153 92 159 190
c1 19 2 37 2 56c0 30 -2 60 -4 90c-5 -1 -43 -8 -88 -8c-194 0 -333 180 -333 375c0 177 130 307 246 442c-31 98 -53 170 -53 347c0 115 55 223 148 290c7 5 16 4 22 -1c68 -80 134 -243 134 -357c0 -143 -85 -255 -178 -364c21 -68 40 -137 57 -206c1 0 5 1 11 1
c156 0 257 -129 257 -262zM462 -202c66 24 111 88 111 162c0 89 -65 178 -170 190c28 -135 50 -272 59 -352zM75 26c0 -145 141 -245 263 -245c1 0 46 0 81 6c-7 65 -27 206 -61 363c-79 -8 -124 -61 -124 -119c0 -43 25 -89 80 -121c5 -5 7 -11 7 -16
c0 -12 -10 -23 -22 -23c-16 0 -127 63 -127 188c0 89 58 175 161 198c-14 58 -29 116 -46 173c-106 -122 -212 -244 -212 -404zM406 1042c-99 -47 -162 -148 -162 -257c0 -49 13 -111 38 -191c79 97 144 199 144 324c0 33 0 63 -20 124z" fill="currentColor"/>
</g>
<g transform="translate(19.6181, 53.2551)">
<text font-family="Noto Serif" font-size="2.4690" text-anchor="start" fill="currentColor">
<tspan>jdi,</tspan>
</text>
</g>
<g transform="translate(6.3797, 42.1075)">
<path transform="scale(0.0040, -0.0040)" d="M358 29c-30 0 -74 23 -74 73c0 38 27 76 71 76c4 0 7 0 11 -1c-27 36 -69 59 -116 59c-106 0 -113 -74 -113 -188c0 -15 1 -31 1 -48s-1 -33 -1 -48c0 -114 7 -188 113 -188c79 0 136 70 155 150c2 7 7 10 13 10c7 0 14 -5 14 -13c0 -21 -50 -175 -182 -175
c-59 0 -250 20 -250 264c0 63 18 264 250 264c115 0 174 -109 174 -165c0 -39 -30 -70 -66 -70z" fill="currentColor"/>
</g>
<g transform="translate(8.5338, 47.6551)">
<text font-family="Noto Serif" font-size="2.4690" text-anchor="start" fill="currentColor">
<tspan>Kaž</tspan>
</text>
</g>
<g transform="translate(4.5814, 47.6551)">
<text font-family="serif" font-weight="bold" font-size="2.4690" text-anchor="start" fill="currentColor">
<tspan>1.</tspan>
</text>
</g>
<g transform="translate(9.2167, 50.4551)">
<text font-family="Noto Serif" font-size="2.4690" text-anchor="start" fill="currentColor">
<tspan>Bo</tspan>
</text>
</g>
<g transform="translate(4.5814, 50.4551)">
<text font-family="serif" font-weight="bold" font-size="2.4690" text-anchor="start" fill="currentColor">
<tspan>2.</tspan>
</text>
</g>
<g transform="translate(7.4292, 53.2551)">
<text font-family="Noto Serif" font-size="2.4690" text-anchor="start" fill="currentColor">
<tspan>Vstaň</tspan>
</text>
</g>
<g transform="translate(4.5814, 53.2551)">
<text font-family="serif" font-weight="bold" font-size="2.4690" text-anchor="start" fill="currentColor">
<tspan>3.</tspan>
</text>
</g>
<g transform="translate(11.3381, 42.1075)">
<rect x="-0.0363" y="-3.0000" width="0.0725" height="3.3206" ry="0.0363" fill="currentColor"/>
</g>
<g transform="translate(11.3744, 39.1546)">
<path transform="scale(0.0040, -0.0040)" d="M0 0c0 -197 207 -335 207 -532c0 -71 -15 -141 -41 -207c-5 -8 -13 -12 -21 -12c-14 0 -27 11 -24 28c26 60 42 125 42 191c0 103 -93 207 -163 282h-18v250h18z" fill="currentColor"/>
</g>
<g transform="translate(35.1329, 41.6075)">
<path transform="scale(0.0040, -0.0040)" d="M215 137c67 0 111 -37 111 -92c0 -90 -111 -182 -215 -182c-67 0 -111 37 -111 92c0 90 111 182 215 182z" fill="currentColor"/>
</g>
<g transform="translate(35.1329, 50.4551)">
<text font-family="Noto Serif" font-size="2.4690" text-anchor="start" fill="currentColor">
<tspan>tr</tspan>
</text>
</g>
<g transform="translate(35.1329, 53.2551)">
<text font-family="Noto Serif" font-size="2.4690" text-anchor="start" fill="currentColor">
<tspan>Sva</tspan>
</text>
</g>
<g transform="translate(35.1692, 42.1075)">
<rect x="-0.0363" y="-0.3206" width="0.0725" height="3.1103" ry="0.0363" fill="currentColor"/>
</g>
<g transform="translate(39.3868, 42.1075)">
<path transform="scale(0.0040, -0.0040)" d="M215 137c67 0 111 -37 111 -92c0 -90 -111 -182 -215 -182c-67 0 -111 37 -111 92c0 90 111 182 215 182z" fill="currentColor"/>
</g>
<g transform="translate(39.4231, 42.1075)">
<rect x="-0.0363" y="0.1794" width="0.0725" height="2.8189" ry="0.0363" fill="currentColor"/>
</g>
<g transform="translate(35.1329, 47.6551)">
<text font-family="Noto Serif" font-size="2.4690" text-anchor="start" fill="currentColor">
<tspan>lid</tspan>
</text>
</g>
<g transform="translate(43.6205, 42.6075)">
<path transform="scale(0.0040, -0.0040)" d="M215 137c67 0 111 -37 111 -92c0 -90 -111 -182 -215 -182c-67 0 -111 37 -111 92c0 90 111 182 215 182z" fill="currentColor"/>
</g>
<g transform="translate(43.6205, 47.6551)">
<text font-family="Noto Serif" font-size="2.4690" text-anchor="start" fill="currentColor">
<tspan>i</tspan>
</text>
</g>
<g transform="translate(43.6205, 50.4551)">
<text font-family="Noto Serif" font-size="2.4690" text-anchor="start" fill="currentColor">
<tspan>pě</tspan>
</text>
</g>
<g transform="translate(43.6205, 53.2551)">
<text font-family="Noto Serif" font-size="2.4690" text-anchor="start" fill="currentColor">
<tspan>tý</tspan>
</text>
</g>
<g transform="translate(44.8871, 42.1075)">
<rect x="-0.0363" y="-2.2103" width="0.0725" height="2.5310" ry="0.0363" fill="currentColor"/>
</g>
<g transform="translate(27.8363, 42.6075)">
<path transform="scale(0.0040, -0.0040)" d="M215 137c67 0 111 -37 111 -92c0 -90 -111 -182 -215 -182c-67 0 -111 37 -111 92c0 90 111 182 215 182z" fill="currentColor"/>
</g>
<g transform="translate(26.1379, 47.6551)">
<text font-family="Noto Serif" font-size="2.4690" text-anchor="start" fill="currentColor">
<tspan>zyk,</tspan>
</text>
</g>
<g transform="translate(26.8408, 50.4551)">
<text font-family="Noto Serif" font-size="2.4690" text-anchor="start" fill="currentColor">
<tspan>ný,</tspan>
</text>
</g>
<g transform="translate(25.4148, 53.2551)">
<text font-family="Noto Serif" font-size="2.4690" text-anchor="start" fill="currentColor">
<tspan>Duch</tspan>
</text>
</g>
<g transform="translate(29.1029, 42.1075)">
<rect x="-0.0363" y="-3.0000" width="0.0725" height="3.3206" ry="0.0363" fill="currentColor"/>
</g>
<g transform="translate(0.0000, 59.4796)">
<line stroke-linejoin="round" stroke-linecap="round" stroke-width="0.0558" stroke="currentColor" x1="0.0279" y1="0" x2="82.3177" y2="0"/>
</g>
<g transform="translate(0.0000, 58.4796)">
<line stroke-linejoin="round" stroke-linecap="round" stroke-width="0.0558" stroke="currentColor" x1="0.0279" y1="0" x2="82.3177" y2="0"/>
</g>
<g transform="translate(0.0000, 57.4796)">
<line stroke-linejoin="round" stroke-linecap="round" stroke-width="0.0558" stroke="currentColor" x1="0.0279" y1="0" x2="82.3177" y2="0"/>
</g>
<g transform="translate(0.0000, 56.4796)">
<line stroke-linejoin="round" stroke-linecap="round" stroke-width="0.0558" stroke="currentColor" x1="0.0279" y1="0" x2="82.3177" y2="0"/>
</g>
<g transform="translate(0.0000, 55.4796)">
<line stroke-linejoin="round" stroke-linecap="round" stroke-width="0.0558" stroke="currentColor" x1="0.0279" y1="0" x2="82.3177" y2="0"/>
</g>
<g transform="translate(56.1463, 57.4796)">
<rect x="0.0000" y="-2.0000" width="0.2120" height="4.0000" ry="0.0000" fill="currentColor"/>
</g>
<g transform="translate(34.0209, 57.4796)">
<rect x="0.0000" y="-2.0000" width="0.2120" height="4.0000" ry="0.0000" fill="currentColor"/>
</g>
<g transform="translate(82.1336, 57.4796)">
<rect x="0.0000" y="-2.0000" width="0.2120" height="4.0000" ry="0.0000" fill="currentColor"/>
</g>
<g transform="translate(65.9588, 56.5266)">
<path transform="scale(0.0040, -0.0040)" d="M0 0c0 -197 207 -335 207 -532c0 -71 -15 -141 -41 -207c-5 -8 -13 -12 -21 -12c-14 0 -27 11 -24 28c26 60 42 125 42 191c0 103 -93 207 -163 282h-18v250h18z" fill="currentColor"/>
</g>
<g transform="translate(65.9225, 57.4796)">
<rect x="-0.0363" y="-1.0000" width="0.0725" height="3.3206" ry="0.0363" fill="currentColor"/>
</g>
<g transform="translate(63.2186, 68.9021)">
<text font-family="Noto Serif" font-size="2.4690" text-anchor="start" fill="currentColor">
<tspan>poz</tspan>
</text>
</g>
<g transform="translate(63.5801, 66.1021)">
<text font-family="Noto Serif" font-size="2.4690" text-anchor="start" fill="currentColor">
<tspan>be,</tspan>
</text>
</g>
<g transform="translate(64.2831, 63.3021)">
<text font-family="Noto Serif" font-size="2.4690" text-anchor="start" fill="currentColor">
<tspan>je</tspan>
</text>
</g>
<g transform="translate(64.6560, 59.9796)">
<path transform="scale(0.0040, -0.0040)" d="M215 137c67 0 111 -37 111 -92c0 -90 -111 -182 -215 -182c-67 0 -111 37 -111 92c0 90 111 182 215 182z" fill="currentColor"/>
</g>
<g transform="translate(68.7929, 58.4796)">
<path transform="scale(0.0040, -0.0040)" d="M215 137c67 0 111 -37 111 -92c0 -90 -111 -182 -215 -182c-67 0 -111 37 -111 92c0 90 111 182 215 182z" fill="currentColor"/>
</g>
<g transform="translate(67.5363, 63.3021)">
<text font-family="Noto Serif" font-size="2.4690" text-anchor="start" fill="currentColor">
<tspan>roz</tspan>
</text>
</g>
<g transform="translate(67.9380, 66.1021)">
<text font-family="Noto Serif" font-size="2.4690" text-anchor="start" fill="currentColor">
<tspan>no</tspan>
</text>
</g>
<g transform="translate(67.4961, 68.9021)">
<text font-family="Noto Serif" font-size="2.4690" text-anchor="start" fill="currentColor">
<tspan>nat</tspan>
</text>
</g>
<g transform="translate(70.0594, 57.4796)">
<rect x="-0.0363" y="-2.5000" width="0.0725" height="3.3206" ry="0.0363" fill="currentColor"/>
</g>
<g transform="translate(74.6868, 58.9796)">
<path transform="scale(0.0040, -0.0040)" d="M215 137c67 0 111 -37 111 -92c0 -90 -111 -182 -215 -182c-67 0 -111 37 -111 92c0 90 111 182 215 182z" fill="currentColor"/>
</g>
<g transform="translate(73.4302, 63.3021)">
<text font-family="Noto Serif" font-size="2.4690" text-anchor="start" fill="currentColor">
<tspan>ptý</tspan>
</text>
</g>
<g transform="translate(73.1290, 66.1021)">
<text font-family="Noto Serif" font-size="2.4690" text-anchor="start" fill="currentColor">
<tspan>vou</tspan>
</text>
</g>
<g transform="translate(73.5106, 68.9021)">
<text font-family="Noto Serif" font-size="2.4690" text-anchor="start" fill="currentColor">
<tspan>hle</tspan>
</text>
</g>
<g transform="translate(75.9534, 57.4796)">
<rect x="-0.0363" y="-1.2100" width="0.0725" height="2.5306" ry="0.0363" fill="currentColor"/>
</g>
<g transform="translate(77.1682, 68.9021)">
<rect x="0.0000" y="-0.5651" width="0.3000" height="0.1451" ry="0.0446" fill="currentColor"/>
</g>
<g transform="translate(52.4557, 58.4796)">
<path transform="scale(0.0040, -0.0040)" d="M215 137c67 0 111 -37 111 -92c0 -90 -111 -182 -215 -182c-67 0 -111 37 -111 92c0 90 111 182 215 182z" fill="currentColor"/>
</g>
<g transform="translate(51.2995, 63.3021)">
<text font-family="Noto Serif" font-size="2.4690" text-anchor="start" fill="currentColor">
<tspan>no,</tspan>
</text>
</g>
<g transform="translate(51.7213, 66.1021)">
<text font-family="Noto Serif" font-size="2.4690" text-anchor="start" fill="currentColor">
<tspan>vé</tspan>
</text>
</g>
<g transform="translate(51.7213, 68.9021)">
<text font-family="Noto Serif" font-size="2.4690" text-anchor="start" fill="currentColor">
<tspan>jej</tspan>
</text>
</g>
<g transform="translate(53.7222, 57.4796)">
<rect x="-0.0363" y="-2.5000" width="0.0725" height="3.3206" ry="0.0363" fill="currentColor"/>
</g>
<g transform="translate(53.7585, 55.0266)">
<path transform="scale(0.0040, -0.0040)" d="M0 0c0 -197 207 -335 207 -532c0 -71 -15 -141 -41 -207c-5 -8 -13 -12 -21 -12c-14 0 -27 11 -24 28c26 60 42 125 42 191c0 103 -93 207 -163 282h-18v250h18z" fill="currentColor"/>
</g>
<g transform="translate(57.6692, 57.9796)">
<path transform="scale(0.0040, -0.0040)" d="M215 137c67 0 111 -37 111 -92c0 -90 -111 -182 -215 -182c-67 0 -111 37 -111 92c0 90 111 182 215 182z" fill="currentColor"/>
</g>
<g transform="translate(57.0151, 63.3021)">
<text font-family="Noto Serif" font-size="2.4690" text-anchor="start" fill="currentColor">
<tspan>co</tspan>
</text>
</g>
<g transform="translate(56.8544, 66.1021)">
<text font-family="Noto Serif" font-size="2.4690" text-anchor="start" fill="currentColor">
<tspan>ne</tspan>
</text>
</g>
<g transform="translate(56.8544, 68.9021)">
<text font-family="Noto Serif" font-size="2.4690" text-anchor="start" fill="currentColor">
<tspan>dá</tspan>
</text>
</g>
<g transform="translate(59.4180, 57.9796)">
<path transform="scale(0.0040, -0.0040)" d="M0 0c0 31 25 56 56 56s55 -25 55 -56s-24 -56 -55 -56s-56 25 -56 56z" fill="currentColor"/>
</g>
<g transform="translate(58.9357, 57.4796)">
<rect x="-0.0363" y="-3.0000" width="0.0725" height="3.3206" ry="0.0363" fill="currentColor"/>
</g>
<g transform="translate(25.2551, 66.1021)">
<rect x="0.0000" y="-0.5651" width="0.6600" height="0.1451" ry="0.0446" fill="currentColor"/>
</g>
<g transform="translate(27.8529, 55.2675)">
<polygon stroke-linejoin="round" stroke-linecap="round" stroke-width="0.0941" fill="currentColor" stroke="currentColor" points="3.6239 0.0192 3.6239 0.4050 0.0471 0.1929 0.0471 -0.1929"/>
</g>
<g transform="translate(26.6227, 57.4796)">
<path stroke-width="0.0446" stroke-linejoin="round" stroke-linecap="round" stroke="currentColor" fill="currentColor" d="M0.5742 1.5486C1.3237 2.5237 3.1293 2.8498 4.1726 2.1986L4.1726 2.1986C3.1412 2.7839 1.3356 2.4578 0.5742 1.5486z"/>
</g>
<g transform="translate(32.4921, 66.1021)">
<rect x="0.0000" y="-0.5651" width="0.6600" height="0.1451" ry="0.0446" fill="currentColor"/>
</g>
<g transform="translate(50.2567, 66.1021)">
<rect x="0.0000" y="-0.5651" width="0.6600" height="0.1451" ry="0.0446" fill="currentColor"/>
</g>
<g transform="translate(25.4961, 63.3021)">
<rect x="0.0000" y="-0.5651" width="0.6600" height="0.1451" ry="0.0446" fill="currentColor"/>
</g>
<g transform="translate(61.3534, 66.1021)">
<rect x="0.0000" y="-0.5651" width="0.6600" height="0.1451" ry="0.0446" fill="currentColor"/>
</g>
<g transform="translate(72.0613, 63.3021)">
<rect x="0.0000" y="-0.5651" width="0.6600" height="0.1451" ry="0.0446" fill="currentColor"/>
</g>
<g transform="translate(71.7098, 66.1021)">
<rect x="0.0000" y="-0.5651" width="0.6600" height="0.1451" ry="0.0446" fill="currentColor"/>
</g>
<g transform="translate(75.9171, 56.2675)">
<polygon stroke-linejoin="round" stroke-linecap="round" stroke-width="0.0941" fill="currentColor" stroke="currentColor" points="3.6239 0.0192 3.6239 0.4050 0.0471 0.1929 0.0471 -0.1929"/>
</g>
<g transform="translate(74.6868, 57.4796)">
<path stroke-width="0.0446" stroke-linejoin="round" stroke-linecap="round" stroke="currentColor" fill="currentColor" d="M3.8960 3.2136C3.9997 3.1663 4.0981 3.1113 4.1900 3.0486L4.1900 3.0486C4.0989 3.1053 4.0013 3.1548 3.8983 3.1972z"/>
</g>
<g transform="translate(74.6868, 57.4796)">
<path stroke-width="0.0446" stroke-linejoin="round" stroke-linecap="round" stroke="currentColor" fill="currentColor" d="M3.0428 3.4296C3.1639 3.4190 3.2831 3.4012 3.3993 3.3762L3.4041 3.3413C3.2885 3.3630 3.1696 3.3780 3.0488 3.3864z"/>
</g>
<g transform="translate(74.6868, 57.4796)">
<path stroke-width="0.0446" stroke-linejoin="round" stroke-linecap="round" stroke="currentColor" fill="currentColor" d="M2.1227 3.3789C2.2442 3.4027 2.3672 3.4198 2.4906 3.4301L2.4975 3.3807C2.3742 3.3699 2.2511 3.3528 2.1295 3.3296z"/>
</g>
<g transform="translate(74.6868, 57.4796)">
<path stroke-width="0.0446" stroke-linejoin="round" stroke-linecap="round" stroke="currentColor" fill="currentColor" d="M1.2631 3.0794C1.3680 3.1351 1.4779 3.1847 1.5915 3.2279L1.5975 3.1848C1.4836 3.1437 1.3733 3.0969 1.2680 3.0444z"/>
</g>
<g transform="translate(74.6868, 57.4796)">
<path stroke-width="0.0446" stroke-linejoin="round" stroke-linecap="round" stroke="currentColor" fill="currentColor" d="M0.5916 2.5486C0.6630 2.6340 0.7427 2.7137 0.8295 2.7875L0.8318 2.7711C0.7443 2.7022 0.6638 2.6280 0.5916 2.5486z"/>
</g>
<g transform="translate(78.2852, 59.4796)">
<path transform="scale(0.0040, -0.0040)" d="M215 137c67 0 111 -37 111 -92c0 -90 -111 -182 -215 -182c-67 0 -111 37 -111 92c0 90 111 182 215 182z" fill="currentColor"/>
</g>
<g transform="translate(77.4705, 68.9021)">
<text font-family="Noto Serif" font-size="2.4690" text-anchor="start" fill="currentColor">
<tspan>da</tspan>
</text>
</g>
<g transform="translate(79.5518, 57.4796)">
<rect x="-0.0363" y="-1.0021" width="0.0725" height="2.8227" ry="0.0363" fill="currentColor"/>
</g>
<g transform="translate(11.5692, 63.3021)">
<rect x="0.0000" y="-0.5651" width="0.6600" height="0.1451" ry="0.0446" fill="currentColor"/>
</g>
<g transform="translate(11.3985, 68.9021)">
<rect x="0.0000" y="-0.5651" width="0.6600" height="0.1451" ry="0.0446" fill="currentColor"/>
</g>
<g transform="translate(17.2223, 68.9021)">
<rect x="0.0000" y="-0.5651" width="0.6600" height="0.1451" ry="0.0446" fill="currentColor"/>
</g>
<g transform="translate(19.4461, 60.2675)">
<polygon stroke-linejoin="round" stroke-linecap="round" stroke-width="0.0941" fill="currentColor" stroke="currentColor" points="3.6239 0.0192 3.6239 0.4050 0.0471 0.1929 0.0471 -0.1929"/>
</g>
<g transform="translate(19.4461, 57.4796)">
<path stroke-width="0.0446" stroke-linejoin="round" stroke-linecap="round" stroke="currentColor" fill="currentColor" d="M0.6934 -1.4844C1.6715 -1.9754 3.4724 -1.8002 4.2918 -1.1344L4.2918 -1.1344C3.4659 -1.7336 1.6650 -1.9088 0.6934 -1.4844z"/>
</g>
<g transform="translate(19.4461, 66.1021)">
<text font-family="Noto Serif" font-size="2.4690" text-anchor="start" fill="currentColor">
<tspan>v na</tspan>
</text>
</g>
<g transform="translate(7.7659, 57.4796)">
<rect x="-0.0363" y="-0.8206" width="0.0725" height="3.3206" ry="0.0363" fill="currentColor"/>
</g>
<g transform="translate(13.4606, 57.9796)">
<path transform="scale(0.0040, -0.0040)" d="M215 137c67 0 111 -37 111 -92c0 -90 -111 -182 -215 -182c-67 0 -111 37 -111 92c0 90 111 182 215 182z" fill="currentColor"/>
</g>
<g transform="translate(13.0274, 63.3021)">
<text font-family="Noto Serif" font-size="2.4690" text-anchor="start" fill="currentColor">
<tspan>lo</tspan>
</text>
</g>
<g transform="translate(12.0433, 66.1021)">
<text font-family="Noto Serif" font-size="2.4690" text-anchor="start" fill="currentColor">
<tspan>nás</tspan>
</text>
</g>
<g transform="translate(12.5655, 68.9021)">
<text font-family="Noto Serif" font-size="2.4690" text-anchor="start" fill="currentColor">
<tspan>pu</tspan>
</text>
</g>
<g transform="translate(14.7271, 57.4796)">
<rect x="-0.0363" y="-3.0000" width="0.0725" height="3.3206" ry="0.0363" fill="currentColor"/>
</g>
<g transform="translate(19.4461, 56.9796)">
<path transform="scale(0.0040, -0.0040)" d="M215 137c67 0 111 -37 111 -92c0 -90 -111 -182 -215 -182c-67 0 -111 37 -111 92c0 90 111 182 215 182z" fill="currentColor"/>
</g>
<g transform="translate(19.4461, 63.3021)">
<text font-family="Noto Serif" font-size="2.4690" text-anchor="start" fill="currentColor">
<tspan>v Slo</tspan>
</text>
</g>
<g transform="translate(5.8705, 68.9021)">
<text font-family="Noto Serif" font-size="2.4690" text-anchor="start" fill="currentColor">
<tspan>vstu</tspan>
</text>
</g>
<g transform="translate(19.4461, 68.9021)">
<text font-family="Noto Serif" font-size="2.4690" text-anchor="start" fill="currentColor">
<tspan>je</tspan>
</text>
</g>
<g transform="translate(19.4824, 57.4796)">
<rect x="-0.0363" y="-0.3206" width="0.0725" height="3.1106" ry="0.0363" fill="currentColor"/>
</g>
<g transform="translate(23.0445, 57.4796)">
<path transform="scale(0.0040, -0.0040)" d="M215 137c67 0 111 -37 111 -92c0 -90 -111 -182 -215 -182c-67 0 -111 37 -111 92c0 90 111 182 215 182z" fill="currentColor"/>
</g>
<g transform="translate(23.0807, 57.4796)">
<rect x="-0.0363" y="0.1794" width="0.0725" height="2.8185" ry="0.0363" fill="currentColor"/>
</g>
<g transform="translate(26.6227, 57.9796)">
<path transform="scale(0.0040, -0.0040)" d="M215 137c67 0 111 -37 111 -92c0 -90 -111 -182 -215 -182c-67 0 -111 37 -111 92c0 90 111 182 215 182z" fill="currentColor"/>
</g>
<g transform="translate(79.3599, 63.3021)">
<rect x="0.0000" y="-0.5651" width="0.6600" height="0.1451" ry="0.0446" fill="currentColor"/>
</g>
<g transform="translate(80.9382, 68.9021)">
<rect x="0.0000" y="-0.5651" width="0.6600" height="0.1451" ry="0.0446" fill="currentColor"/>
</g>
<g transform="translate(0.8000, 58.4796)">
<path transform="scale(0.0040, -0.0040)" d="M646 2c0 -113 -74 -213 -180 -247c3 -34 5 -68 5 -102c0 -20 -1 -40 -2 -60c-7 -121 -91 -228 -209 -228c-108 0 -196 87 -196 196c0 58 53 104 112 104c54 0 95 -48 95 -104c0 -52 -43 -95 -95 -95c-10 0 -20 2 -29 6c26 -38 68 -63 116 -63h3c93 2 153 92 159 190
c1 19 2 37 2 56c0 30 -2 60 -4 90c-5 -1 -43 -8 -88 -8c-194 0 -333 180 -333 375c0 177 130 307 246 442c-31 98 -53 170 -53 347c0 115 55 223 148 290c7 5 16 4 22 -1c68 -80 134 -243 134 -357c0 -143 -85 -255 -178 -364c21 -68 40 -137 57 -206c1 0 5 1 11 1
c156 0 257 -129 257 -262zM462 -202c66 24 111 88 111 162c0 89 -65 178 -170 190c28 -135 50 -272 59 -352zM75 26c0 -145 141 -245 263 -245c1 0 46 0 81 6c-7 65 -27 206 -61 363c-79 -8 -124 -61 -124 -119c0 -43 25 -89 80 -121c5 -5 7 -11 7 -16
c0 -12 -10 -23 -22 -23c-16 0 -127 63 -127 188c0 89 58 175 161 198c-14 58 -29 116 -46 173c-106 -122 -212 -244 -212 -404zM406 1042c-99 -47 -162 -148 -162 -257c0 -49 13 -111 38 -191c79 97 144 199 144 324c0 33 0 63 -20 124z" fill="currentColor"/>
</g>
<g transform="translate(4.4297, 57.4796)">
<path transform="scale(0.0040, -0.0040)" d="M29 39l-2 -64v-11c0 -22 2 -43 5 -65c44 38 91 80 91 138c0 33 -13 66 -42 66c-31 0 -51 -31 -52 -64zM-28 454c9 5 18 8 28 8s19 -3 28 -8l-7 -343c25 23 58 36 92 36c51 0 87 -49 87 -103c0 -79 -84 -117 -144 -169c-16 -14 -25 -41 -47 -41c-14 0 -25 13 -25 27z" fill="currentColor"/>
</g>
<g transform="translate(7.7297, 56.4796)">
<path transform="scale(0.0040, -0.0040)" d="M215 137c67 0 111 -37 111 -92c0 -90 -111 -182 -215 -182c-67 0 -111 37 -111 92c0 90 111 182 215 182z" fill="currentColor"/>
</g>
<g transform="translate(5.9910, 63.3021)">
<text font-family="Noto Serif" font-size="2.4690" text-anchor="start" fill="currentColor">
<tspan>svět</tspan>
</text>
</g>
<g transform="translate(6.8547, 66.1021)">
<text font-family="Noto Serif" font-size="2.4690" text-anchor="start" fill="currentColor">
<tspan>luj</tspan>
</text>
</g>
<g transform="translate(36.1696, 66.1021)">
<text font-family="Noto Serif" font-size="2.4690" text-anchor="start" fill="currentColor">
<tspan>ji.</tspan>
</text>
</g>
<g transform="translate(34.5428, 68.9021)">
<text font-family="Noto Serif" font-size="2.4690" text-anchor="start" fill="currentColor">
<tspan>svět.</tspan>
</text>
</g>
<g transform="translate(26.6227, 63.3021)">
<text font-family="Noto Serif" font-size="2.4690" text-anchor="start" fill="currentColor">
<tspan>vě</tspan>
</text>
</g>
<g transform="translate(38.3703, 57.9796)">
<path transform="scale(0.0040, -0.0040)" d="M0 0c0 31 25 56 56 56s55 -25 55 -56s-24 -56 -55 -56s-56 25 -56 56z" fill="currentColor"/>
</g>
<g transform="translate(37.8881, 57.4796)">
<rect x="-0.0363" y="-3.0000" width="0.0725" height="3.2470" ry="0.0363" fill="currentColor"/>
</g>
<g transform="translate(45.6319, 55.4796)">
<path transform="scale(0.0040, -0.0040)" d="M62 158c38 0 68 -31 68 -69v-20c0 -110 -103 -165 -116 -165c-8 0 -14 6 -14 14c0 18 69 25 83 123h-28c-30 0 -55 25 -55 55c0 34 28 62 62 62z" fill="currentColor"/>
</g>
<g transform="translate(47.1539, 58.9796)">
<path transform="scale(0.0040, -0.0040)" d="M215 137c67 0 111 -37 111 -92c0 -90 -111 -182 -215 -182c-67 0 -111 37 -111 92c0 90 111 182 215 182z" fill="currentColor"/>
</g>
<g transform="translate(44.4110, 63.3021)">
<text font-family="Noto Serif" font-size="2.4690" text-anchor="start" fill="currentColor">
<tspan>Všech</tspan>
</text>
</g>
<g transform="translate(46.1584, 66.1021)">
<text font-family="Noto Serif" font-size="2.4690" text-anchor="start" fill="currentColor">
<tspan>No</tspan>
</text>
</g>
<g transform="translate(45.4956, 68.9021)">
<text font-family="Noto Serif" font-size="2.4690" text-anchor="start" fill="currentColor">
<tspan>Kdo</tspan>
</text>
</g>
<g transform="translate(48.4204, 57.4796)">
<rect x="-0.0363" y="-2.0000" width="0.0725" height="3.3206" ry="0.0363" fill="currentColor"/>
</g>
<g transform="translate(48.4567, 55.5266)">
<path transform="scale(0.0040, -0.0040)" d="M0 0c0 -197 207 -335 207 -532c0 -71 -15 -141 -41 -207c-5 -8 -13 -12 -21 -12c-14 0 -27 11 -24 28c26 60 42 125 42 191c0 103 -93 207 -163 282h-18v250h18z" fill="currentColor"/>
</g>
<g transform="translate(33.9402, 63.3021)">
<text font-family="Noto Serif" font-size="2.4690" text-anchor="start" fill="currentColor">
<tspan>tvém.</tspan>
</text>
</g>
<g transform="translate(30.2210, 58.4796)">
<path transform="scale(0.0040, -0.0040)" d="M215 137c67 0 111 -37 111 -92c0 -90 -111 -182 -215 -182c-67 0 -111 37 -111 92c0 90 111 182 215 182z" fill="currentColor"/>
</g>
<g transform="translate(31.4876, 57.4796)">
<rect x="-0.0363" y="-2.0021" width="0.0725" height="2.8227" ry="0.0363" fill="currentColor"/>
</g>
<g transform="translate(27.8892, 57.4796)">
<rect x="-0.0363" y="-2.2100" width="0.0725" height="2.5306" ry="0.0363" fill="currentColor"/>
</g>
<g transform="translate(26.6227, 68.9021)">
<text font-family="Noto Serif" font-size="2.4690" text-anchor="start" fill="currentColor">
<tspan>v náš</tspan>
</text>
</g>
<g transform="translate(36.5438, 57.9796)">
<path transform="scale(0.0040, -0.0040)" d="M312 64c0 23 -18 41 -41 41c-39 0 -201 -110 -228 -142c-7 -8 -10 -17 -10 -27c0 -23 18 -41 41 -41c39 0 201 110 228 142c7 8 10 17 10 27zM259 137c46 0 86 -17 86 -74c0 -26 -15 -112 -73 -151c-29 -20 -89 -49 -186 -49c-46 0 -86 17 -86 74c0 26 16 112 74 151
c29 20 88 49 185 49z" fill="currentColor"/>
</g>
<g transform="translate(26.6227, 66.1021)">
<text font-family="Noto Serif" font-size="2.4690" text-anchor="start" fill="currentColor">
<tspan>dě</tspan>
</text>
</g>
<g transform="translate(0.0000, 75.9832)">
<line stroke-linejoin="round" stroke-linecap="round" stroke-width="0.0558" stroke="currentColor" x1="0.0279" y1="0" x2="82.3177" y2="0"/>
</g>
<g transform="translate(0.0000, 74.9832)">
<line stroke-linejoin="round" stroke-linecap="round" stroke-width="0.0558" stroke="currentColor" x1="0.0279" y1="0" x2="82.3177" y2="0"/>
</g>
<g transform="translate(0.0000, 73.9832)">
<line stroke-linejoin="round" stroke-linecap="round" stroke-width="0.0558" stroke="currentColor" x1="0.0279" y1="0" x2="82.3177" y2="0"/>
</g>
<g transform="translate(0.0000, 72.9832)">
<line stroke-linejoin="round" stroke-linecap="round" stroke-width="0.0558" stroke="currentColor" x1="0.0279" y1="0" x2="82.3177" y2="0"/>
</g>
<g transform="translate(0.0000, 71.9832)">
<line stroke-linejoin="round" stroke-linecap="round" stroke-width="0.0558" stroke="currentColor" x1="0.0279" y1="0" x2="82.3177" y2="0"/>
</g>
<g transform="translate(61.7329, 73.9832)">
<rect x="0.0000" y="-2.0000" width="0.2120" height="4.0000" ry="0.0000" fill="currentColor"/>
</g>
<g transform="translate(31.7606, 73.9832)">
<rect x="0.0000" y="-2.0000" width="0.2120" height="4.0000" ry="0.0000" fill="currentColor"/>
</g>
<g transform="translate(82.1336, 73.9832)">
<rect x="0.0000" y="-2.0000" width="0.2120" height="4.0000" ry="0.0000" fill="currentColor"/>
</g>
<g transform="translate(81.5868, 73.9832)">
<rect x="0.0000" y="-2.0000" width="0.2120" height="4.0000" ry="0.0000" fill="currentColor"/>
</g>
<g transform="translate(0.0000, 76.9832)">
<rect x="27.5316" y="-0.0779" width="1.9542" height="0.1558" ry="0.0779" fill="currentColor"/>
</g>
<g transform="translate(63.2639, 79.5670)">
<text font-family="Noto Serif" font-size="2.4690" text-anchor="start" fill="currentColor">
<tspan>v</tspan>
</text>
</g>
<g transform="translate(62.5609, 82.3670)">
<text font-family="Noto Serif" font-size="2.4690" text-anchor="start" fill="currentColor">
<tspan>ví.</tspan>
</text>
</g>
<g transform="translate(61.5366, 85.1670)">
<text font-family="Noto Serif" font-size="2.4690" text-anchor="start" fill="currentColor">
<tspan>věď.</tspan>
</text>
</g>
<g transform="translate(64.6020, 73.9832)">
<rect x="-0.0363" y="-2.2180" width="0.0725" height="3.0387" ry="0.0363" fill="currentColor"/>
</g>
<g transform="translate(69.3553, 73.9832)">
<rect x="-0.0363" y="-2.9941" width="0.0725" height="2.3147" ry="0.0363" fill="currentColor"/>
</g>
<g transform="translate(68.0888, 73.4832)">
<path transform="scale(0.0040, -0.0040)" d="M215 137c67 0 111 -37 111 -92c0 -90 -111 -182 -215 -182c-67 0 -111 37 -111 92c0 90 111 182 215 182z" fill="currentColor"/>
</g>
<g transform="translate(65.6673, 79.5670)">
<text font-family="Noto Serif" font-size="2.4690" text-anchor="start" fill="currentColor">
<tspan>Něm.</tspan>
</text>
</g>
<g transform="translate(53.0589, 85.1670)">
<text font-family="Noto Serif" font-size="2.4690" text-anchor="start" fill="currentColor">
<tspan>od</tspan>
</text>
</g>
<g transform="translate(71.9024, 79.5670)">
<rect x="0.0000" y="-0.0893" width="1.4107" height="0.0893" ry="0.0357" fill="currentColor"/>
</g>
<g transform="translate(47.5545, 74.9832)">
<path transform="scale(0.0040, -0.0040)" d="M215 137c67 0 111 -37 111 -92c0 -90 -111 -182 -215 -182c-67 0 -111 37 -111 92c0 90 111 182 215 182z" fill="currentColor"/>
</g>
<g transform="translate(46.5389, 79.5670)">
<text font-family="Noto Serif" font-size="2.4690" text-anchor="start" fill="currentColor">
<tspan>lez</tspan>
</text>
</g>
<g transform="translate(46.7397, 82.3670)">
<text font-family="Noto Serif" font-size="2.4690" text-anchor="start" fill="currentColor">
<tspan>ob</tspan>
</text>
</g>
<g transform="translate(46.3380, 85.1670)">
<text font-family="Noto Serif" font-size="2.4690" text-anchor="start" fill="currentColor">
<tspan>má</tspan>
</text>
</g>
<g transform="translate(48.8210, 73.9832)">
<rect x="-0.0363" y="-2.5000" width="0.0725" height="3.3206" ry="0.0363" fill="currentColor"/>
</g>
<g transform="translate(53.8737, 74.9832)">
<path transform="scale(0.0040, -0.0040)" d="M215 137c67 0 111 -37 111 -92c0 -90 -111 -182 -215 -182c-67 0 -111 37 -111 92c0 90 111 182 215 182z" fill="currentColor"/>
</g>
<g transform="translate(53.0589, 79.5670)">
<text font-family="Noto Serif" font-size="2.4690" text-anchor="start" fill="currentColor">
<tspan>ne</tspan>
</text>
</g>
<g transform="translate(53.0187, 82.3670)">
<text font-family="Noto Serif" font-size="2.4690" text-anchor="start" fill="currentColor">
<tspan>no</tspan>
</text>
</g>
<g transform="translate(63.3355, 74.9832)">
<path transform="scale(0.0040, -0.0040)" d="M215 137c67 0 111 -37 111 -92c0 -90 -111 -182 -215 -182c-67 0 -111 37 -111 92c0 90 111 182 215 182z" fill="currentColor"/>
</g>
<g transform="translate(55.1402, 73.9832)">
<rect x="-0.0363" y="-1.9980" width="0.0725" height="2.8187" ry="0.0363" fill="currentColor"/>
</g>
<g transform="translate(57.6847, 75.4832)">
<path transform="scale(0.0040, -0.0040)" d="M215 137c67 0 111 -37 111 -92c0 -90 -111 -182 -215 -182c-67 0 -111 37 -111 92c0 90 111 182 215 182z" fill="currentColor"/>
</g>
<g transform="translate(56.8699, 85.1670)">
<text font-family="Noto Serif" font-size="2.4690" text-anchor="start" fill="currentColor">
<tspan>po</tspan>
</text>
</g>
<g transform="translate(58.9512, 73.9832)">
<rect x="-0.0363" y="-1.7899" width="0.0725" height="3.1105" ry="0.0363" fill="currentColor"/>
</g>
<g transform="translate(51.0154, 82.3670)">
<rect x="0.0000" y="-0.5651" width="0.6600" height="0.1451" ry="0.0446" fill="currentColor"/>
</g>
<g transform="translate(31.0723, 79.5670)">
<rect x="0.0000" y="-0.5651" width="0.6600" height="0.1451" ry="0.0446" fill="currentColor"/>
</g>
<g transform="translate(34.5935, 72.7711)">
<polygon stroke-linejoin="round" stroke-linecap="round" stroke-width="0.0941" fill="currentColor" stroke="currentColor" points="4.0865 -0.9808 4.0865 -0.5950 0.0471 0.1929 0.0471 -0.1929"/>
</g>
<g transform="translate(33.3632, 73.9832)">
<path stroke-width="0.0446" stroke-linejoin="round" stroke-linecap="round" stroke="currentColor" fill="currentColor" d="M0.7884 3.5486C2.0535 4.1010 4.1668 3.3985 4.8494 2.1986L4.8494 2.1986C4.1456 3.3349 2.0324 4.0374 0.7884 3.5486z"/>
</g>
<g transform="translate(44.6359, 79.5670)">
<rect x="0.0000" y="-0.5651" width="0.6600" height="0.1451" ry="0.0446" fill="currentColor"/>
</g>
<g transform="translate(51.1359, 79.5670)">
<rect x="0.0000" y="-0.5651" width="0.6600" height="0.1451" ry="0.0446" fill="currentColor"/>
</g>
<g transform="translate(26.8397, 85.1670)">
<rect x="0.0000" y="-0.5651" width="0.6600" height="0.1451" ry="0.0446" fill="currentColor"/>
</g>
<g transform="translate(55.1039, 71.9832)">
<polygon stroke-linejoin="round" stroke-linecap="round" stroke-width="0.0941" fill="currentColor" stroke="currentColor" points="3.8365 0.0192 3.8365 0.4050 0.0471 0.1929 0.0471 -0.1929"/>
</g>
<g transform="translate(53.8737, 73.9832)">
<path stroke-width="0.0446" stroke-linejoin="round" stroke-linecap="round" stroke="currentColor" fill="currentColor" d="M4.1823 2.7030C4.2669 2.6567 4.3473 2.6052 4.4227 2.5486L4.4227 2.5486C4.3478 2.6003 4.2678 2.6471 4.1836 2.6893z"/>
</g>
<g transform="translate(53.8737, 73.9832)">
<path stroke-width="0.0446" stroke-linejoin="round" stroke-linecap="round" stroke="currentColor" fill="currentColor" d="M3.4815 2.9563C3.5821 2.9349 3.6805 2.9087 3.7759 2.8774L3.7787 2.8472C3.6836 2.8754 3.5854 2.8989 3.4850 2.9178z"/>
</g>
<g transform="translate(53.8737, 73.9832)">
<path stroke-width="0.0446" stroke-linejoin="round" stroke-linecap="round" stroke="currentColor" fill="currentColor" d="M2.6983 3.0255C2.8048 3.0282 2.9112 3.0262 3.0166 3.0194L3.0209 2.9728C2.9156 2.9783 2.8093 2.9794 2.7028 2.9761z"/>
</g>
<g transform="translate(53.8737, 73.9832)">
<path stroke-width="0.0446" stroke-linejoin="round" stroke-linecap="round" stroke="currentColor" fill="currentColor" d="M1.9085 2.9177C2.0109 2.9435 2.1151 2.9649 2.2204 2.9816L2.2249 2.9322C2.1196 2.9160 2.0153 2.8956 1.9128 2.8710z"/>
</g>
<g transform="translate(53.8737, 73.9832)">
<path stroke-width="0.0446" stroke-linejoin="round" stroke-linecap="round" stroke="currentColor" fill="currentColor" d="M1.1878 2.6397C1.2759 2.6878 1.3679 2.7316 1.4629 2.7709L1.4665 2.7325C1.3712 2.6955 1.2790 2.6545 1.1905 2.6095z"/>
</g>
<g transform="translate(53.8737, 73.9832)">
<path stroke-width="0.0446" stroke-linejoin="round" stroke-linecap="round" stroke="currentColor" fill="currentColor" d="M0.6117 2.1986C0.6755 2.2680 0.7452 2.3332 0.8199 2.3942L0.8212 2.3805C0.7460 2.3237 0.6759 2.2631 0.6117 2.1986z"/>
</g>
<g transform="translate(58.9662, 82.3670)">
<rect x="0.0000" y="-0.5651" width="0.6600" height="0.1451" ry="0.0446" fill="currentColor"/>
</g>
<g transform="translate(56.1006, 85.1670)">
<rect x="0.0000" y="-0.5651" width="0.6600" height="0.1451" ry="0.0446" fill="currentColor"/>
</g>
<g transform="translate(60.3394, 85.1670)">
<rect x="0.0000" y="-0.5651" width="0.6600" height="0.1451" ry="0.0446" fill="currentColor"/>
</g>
<g transform="translate(64.5658, 71.7711)">
<polygon stroke-linejoin="round" stroke-linecap="round" stroke-width="0.0941" fill="currentColor" stroke="currentColor" points="4.7788 -0.9808 4.7788 -0.5950 0.0471 0.1929 0.0471 -0.1929"/>
</g>
<g transform="translate(63.3355, 73.9832)">
<path stroke-width="0.0446" stroke-linejoin="round" stroke-linecap="round" stroke="currentColor" fill="currentColor" d="M1.2621 -2.9580C2.9228 -4.3485 8.5037 -4.4051 10.1922 -3.0486L10.1922 -3.0486C8.5043 -4.3382 2.9235 -4.2816 1.2621 -2.9580z"/>
</g>
<g transform="translate(65.5022, 82.3670)">
<rect x="0.0000" y="-0.0893" width="1.4107" height="0.0893" ry="0.0357" fill="currentColor"/>
</g>
<g transform="translate(66.5265, 85.1670)">
<rect x="0.0000" y="-0.0893" width="1.4107" height="0.0893" ry="0.0357" fill="currentColor"/>
</g>
<g transform="translate(72.8421, 73.4832)">
<path transform="scale(0.0040, -0.0040)" d="M312 64c0 23 -18 41 -41 41c-39 0 -201 -110 -228 -142c-7 -8 -10 -17 -10 -27c0 -23 18 -41 41 -41c39 0 201 110 228 142c7 8 10 17 10 27zM259 137c46 0 86 -17 86 -74c0 -26 -15 -112 -73 -151c-29 -20 -89 -49 -186 -49c-46 0 -86 17 -86 74c0 26 16 112 74 151
c29 20 88 49 185 49z" fill="currentColor"/>
</g>
<g transform="translate(72.8783, 73.9832)">
<rect x="-0.0363" y="-0.2470" width="0.0725" height="3.2470" ry="0.0363" fill="currentColor"/>
</g>
<g transform="translate(10.8686, 79.5670)">
<rect x="0.0000" y="-0.5651" width="0.6600" height="0.1451" ry="0.0446" fill="currentColor"/>
</g>
<g transform="translate(11.0895, 82.3670)">
<rect x="0.0000" y="-0.5651" width="0.6600" height="0.1451" ry="0.0446" fill="currentColor"/>
</g>
<g transform="translate(10.2359, 85.1670)">
<rect x="0.0000" y="-0.5651" width="0.6600" height="0.1451" ry="0.0446" fill="currentColor"/>
</g>
<g transform="translate(26.4630, 79.5670)">
<rect x="0.0000" y="-0.5651" width="0.4694" height="0.1451" ry="0.0446" fill="currentColor"/>
</g>
<g transform="translate(26.4681, 82.3670)">
<rect x="0.0000" y="-0.5651" width="0.6600" height="0.1451" ry="0.0446" fill="currentColor"/>
</g>
<g transform="translate(22.8180, 79.5670)">
<text font-family="Noto Serif" font-size="2.4690" text-anchor="start" fill="currentColor">
<tspan>jed</tspan>
</text>
</g>
<g transform="translate(14.0489, 76.4832)">
<path transform="scale(0.0040, -0.0040)" d="M312 64c0 23 -18 41 -41 41c-39 0 -201 -110 -228 -142c-7 -8 -10 -17 -10 -27c0 -23 18 -41 41 -41c39 0 201 110 228 142c7 8 10 17 10 27zM259 137c46 0 86 -17 86 -74c0 -26 -15 -112 -73 -151c-29 -20 -89 -49 -186 -49c-46 0 -86 17 -86 74c0 26 16 112 74 151
c29 20 88 49 185 49z" fill="currentColor"/>
</g>
<g transform="translate(12.9717, 79.5670)">
<text font-family="Noto Serif" font-size="2.4690" text-anchor="start" fill="currentColor">
<tspan>né,</tspan>
</text>
</g>
<g transform="translate(13.1726, 82.3670)">
<text font-family="Noto Serif" font-size="2.4690" text-anchor="start" fill="currentColor">
<tspan>mi</tspan>
</text>
</g>
<g transform="translate(11.9876, 85.1670)">
<text font-family="Noto Serif" font-size="2.4690" text-anchor="start" fill="currentColor">
<tspan>cím?</tspan>
</text>
</g>
<g transform="translate(15.3932, 73.9832)">
<rect x="-0.0363" y="-1.0000" width="0.0725" height="3.2470" ry="0.0363" fill="currentColor"/>
</g>
<g transform="translate(22.4321, 71.9832)">
<path transform="scale(0.0040, -0.0040)" d="M62 158c38 0 68 -31 68 -69v-20c0 -110 -103 -165 -116 -165c-8 0 -14 6 -14 14c0 18 69 25 83 123h-28c-30 0 -55 25 -55 55c0 34 28 62 62 62z" fill="currentColor"/>
</g>
<g transform="translate(23.9541, 76.4832)">
<path transform="scale(0.0040, -0.0040)" d="M215 137c67 0 111 -37 111 -92c0 -90 -111 -182 -215 -182c-67 0 -111 37 -111 92c0 90 111 182 215 182z" fill="currentColor"/>
</g>
<g transform="translate(8.9962, 73.9832)">
<rect x="-0.0363" y="-1.0000" width="0.0725" height="3.3206" ry="0.0363" fill="currentColor"/>
</g>
<g transform="translate(23.0991, 82.3670)">
<text font-family="Noto Serif" font-size="2.4690" text-anchor="start" fill="currentColor">
<tspan>Bo</tspan>
</text>
</g>
<g transform="translate(22.5970, 85.1670)">
<text font-family="Noto Serif" font-size="2.4690" text-anchor="start" fill="currentColor">
<tspan>Poš</tspan>
</text>
</g>
<g transform="translate(25.2206, 73.9832)">
<rect x="-0.0363" y="-1.0000" width="0.0725" height="3.3206" ry="0.0363" fill="currentColor"/>
</g>
<g transform="translate(25.2569, 73.0303)">
<path transform="scale(0.0040, -0.0040)" d="M0 0c0 -197 207 -335 207 -532c0 -71 -15 -141 -41 -207c-5 -8 -13 -12 -21 -12c-14 0 -27 11 -24 28c26 60 42 125 42 191c0 103 -93 207 -163 282h-18v250h18z" fill="currentColor"/>
</g>
<g transform="translate(4.4297, 73.9832)">
<path transform="scale(0.0040, -0.0040)" d="M29 39l-2 -64v-11c0 -22 2 -43 5 -65c44 38 91 80 91 138c0 33 -13 66 -42 66c-31 0 -51 -31 -52 -64zM-28 454c9 5 18 8 28 8s19 -3 28 -8l-7 -343c25 23 58 36 92 36c51 0 87 -49 87 -103c0 -79 -84 -117 -144 -169c-16 -14 -25 -41 -47 -41c-14 0 -25 13 -25 27z" fill="currentColor"/>
</g>
<g transform="translate(0.8000, 74.9832)">
<path transform="scale(0.0040, -0.0040)" d="M646 2c0 -113 -74 -213 -180 -247c3 -34 5 -68 5 -102c0 -20 -1 -40 -2 -60c-7 -121 -91 -228 -209 -228c-108 0 -196 87 -196 196c0 58 53 104 112 104c54 0 95 -48 95 -104c0 -52 -43 -95 -95 -95c-10 0 -20 2 -29 6c26 -38 68 -63 116 -63h3c93 2 153 92 159 190
c1 19 2 37 2 56c0 30 -2 60 -4 90c-5 -1 -43 -8 -88 -8c-194 0 -333 180 -333 375c0 177 130 307 246 442c-31 98 -53 170 -53 347c0 115 55 223 148 290c7 5 16 4 22 -1c68 -80 134 -243 134 -357c0 -143 -85 -255 -178 -364c21 -68 40 -137 57 -206c1 0 5 1 11 1
c156 0 257 -129 257 -262zM462 -202c66 24 111 88 111 162c0 89 -65 178 -170 190c28 -135 50 -272 59 -352zM75 26c0 -145 141 -245 263 -245c1 0 46 0 81 6c-7 65 -27 206 -61 363c-79 -8 -124 -61 -124 -119c0 -43 25 -89 80 -121c5 -5 7 -11 7 -16
c0 -12 -10 -23 -22 -23c-16 0 -127 63 -127 188c0 89 58 175 161 198c-14 58 -29 116 -46 173c-106 -122 -212 -244 -212 -404zM406 1042c-99 -47 -162 -148 -162 -257c0 -49 13 -111 38 -191c79 97 144 199 144 324c0 33 0 63 -20 124z" fill="currentColor"/>
</g>
<g transform="translate(7.7297, 76.4832)">
<path transform="scale(0.0040, -0.0040)" d="M215 137c67 0 111 -37 111 -92c0 -90 -111 -182 -215 -182c-67 0 -111 37 -111 92c0 90 111 182 215 182z" fill="currentColor"/>
</g>
<g transform="translate(7.3367, 79.5670)">
<text font-family="Noto Serif" font-size="2.4690" text-anchor="start" fill="currentColor">
<tspan>le</tspan>
</text>
</g>
<g transform="translate(7.0957, 82.3670)">
<text font-family="Noto Serif" font-size="2.4690" text-anchor="start" fill="currentColor">
<tspan>ze</tspan>
</text>
</g>
<g transform="translate(7.6179, 85.1670)">
<text font-family="Noto Serif" font-size="2.4690" text-anchor="start" fill="currentColor">
<tspan>jí</tspan>
</text>
</g>
<g transform="translate(37.4242, 74.9832)">
<path transform="scale(0.0040, -0.0040)" d="M215 137c67 0 111 -37 111 -92c0 -90 -111 -182 -215 -182c-67 0 -111 37 -111 92c0 90 111 182 215 182z" fill="currentColor"/>
</g>
<g transform="translate(34.6297, 73.9832)">
<rect x="-0.0363" y="-1.2190" width="0.0725" height="3.5397" ry="0.0363" fill="currentColor"/>
</g>
<g transform="translate(38.6908, 73.9832)">
<rect x="-0.0363" y="-1.9931" width="0.0725" height="2.8137" ry="0.0363" fill="currentColor"/>
</g>
<g transform="translate(41.2352, 74.9832)">
<path transform="scale(0.0040, -0.0040)" d="M215 137c67 0 111 -37 111 -92c0 -90 -111 -182 -215 -182c-67 0 -111 37 -111 92c0 90 111 182 215 182z" fill="currentColor"/>
</g>
<g transform="translate(40.3803, 79.5670)">
<text font-family="Noto Serif" font-size="2.4690" text-anchor="start" fill="currentColor">
<tspan>na</tspan>
</text>
</g>
<g transform="translate(39.8983, 82.3670)">
<text font-family="Noto Serif" font-size="2.4690" text-anchor="start" fill="currentColor">
<tspan>kéž</tspan>
</text>
</g>
<g transform="translate(40.0590, 85.1670)">
<text font-family="Noto Serif" font-size="2.4690" text-anchor="start" fill="currentColor">
<tspan>zní</tspan>
</text>
</g>
<g transform="translate(42.5018, 73.9832)">
<rect x="-0.0363" y="-2.5000" width="0.0725" height="3.3206" ry="0.0363" fill="currentColor"/>
</g>
<g transform="translate(30.9417, 82.3670)">
<text font-family="Noto Serif" font-size="2.4690" text-anchor="start" fill="currentColor">
<tspan>Duch</tspan>
</text>
</g>
<g transform="translate(27.8573, 76.9832)">
<path transform="scale(0.0040, -0.0040)" d="M215 137c67 0 111 -37 111 -92c0 -90 -111 -182 -215 -182c-67 0 -111 37 -111 92c0 90 111 182 215 182z" fill="currentColor"/>
</g>
<g transform="translate(27.0024, 79.5670)">
<text font-family="Noto Serif" font-size="2.4690" text-anchor="start" fill="currentColor">
<tspan>no</tspan>
</text>
</g>
<g transform="translate(27.4844, 82.3670)">
<text font-family="Noto Serif" font-size="2.4690" text-anchor="start" fill="currentColor">
<tspan>ží</tspan>
</text>
</g>
<g transform="translate(27.7254, 85.1670)">
<text font-family="Noto Serif" font-size="2.4690" text-anchor="start" fill="currentColor">
<tspan>li</tspan>
</text>
</g>
<g transform="translate(29.1239, 73.9832)">
<rect x="-0.0363" y="-0.5000" width="0.0725" height="3.3206" ry="0.0363" fill="currentColor"/>
</g>
<g transform="translate(29.1601, 73.5303)">
<path transform="scale(0.0040, -0.0040)" d="M0 0c0 -197 207 -335 207 -532c0 -71 -15 -141 -41 -207c-5 -8 -13 -12 -21 -12c-14 0 -27 11 -24 28c26 60 42 125 42 191c0 103 -93 207 -163 282h-18v250h18z" fill="currentColor"/>
</g>
<g transform="translate(33.3632, 76.4832)">
<path transform="scale(0.0040, -0.0040)" d="M215 137c67 0 111 -37 111 -92c0 -90 -111 -182 -215 -182c-67 0 -111 37 -111 92c0 90 111 182 215 182z" fill="currentColor"/>
</g>
<g transform="translate(31.0823, 85.1670)">
<text font-family="Noto Serif" font-size="2.4690" text-anchor="start" fill="currentColor">
<tspan>mne,</tspan>
</text>
</g>
<g transform="translate(32.7895, 79.5670)">
<text font-family="Noto Serif" font-size="2.4690" text-anchor="start" fill="currentColor">
<tspan>tu</tspan>
</text>
</g>
</svg>
