<svg xmlns="http://www.w3.org/2000/svg" xmlns:xlink="http://www.w3.org/1999/xlink" version="1.2"   viewBox="0.0000 -0.0000 82.3456 47.88805">
<style type="text/css">
<![CDATA[
tspan { white-space: pre; }
]]>
</style>
<g transform="translate(0.0000, 6.1075)">
<line stroke-linejoin="round" stroke-linecap="round" stroke-width="0.0558" stroke="currentColor" x1="0.0279" y1="0" x2="82.3177" y2="0"/>
</g>
<g transform="translate(0.0000, 5.1075)">
<line stroke-linejoin="round" stroke-linecap="round" stroke-width="0.0558" stroke="currentColor" x1="0.0279" y1="0" x2="82.3177" y2="0"/>
</g>
<g transform="translate(0.0000, 4.1075)">
<line stroke-linejoin="round" stroke-linecap="round" stroke-width="0.0558" stroke="currentColor" x1="0.0279" y1="0" x2="82.3177" y2="0"/>
</g>
<g transform="translate(0.0000, 3.1075)">
<line stroke-linejoin="round" stroke-linecap="round" stroke-width="0.0558" stroke="currentColor" x1="0.0279" y1="0" x2="82.3177" y2="0"/>
</g>
<g transform="translate(0.0000, 2.1075)">
<line stroke-linejoin="round" stroke-linecap="round" stroke-width="0.0558" stroke="currentColor" x1="0.0279" y1="0" x2="82.3177" y2="0"/>
</g>
<g transform="translate(47.3093, 4.1075)">
<rect x="0.0000" y="-2.0000" width="0.2120" height="4.0000" ry="0.0000" fill="currentColor"/>
</g>
<g transform="translate(32.4454, 4.1075)">
<rect x="0.0000" y="-2.0000" width="0.2120" height="4.0000" ry="0.0000" fill="currentColor"/>
</g>
<g transform="translate(66.8227, 4.1075)">
<rect x="0.0000" y="-2.0000" width="0.2120" height="4.0000" ry="0.0000" fill="currentColor"/>
</g>
<g transform="translate(17.6153, 4.1075)">
<rect x="0.0000" y="-2.0000" width="0.2120" height="4.0000" ry="0.0000" fill="currentColor"/>
</g>
<g transform="translate(82.1336, 4.1075)">
<rect x="0.0000" y="-2.0000" width="0.2120" height="4.0000" ry="0.0000" fill="currentColor"/>
</g>
<g transform="translate(0.0000, 7.1075)">
<rect x="67.5892" y="-0.0779" width="1.9542" height="0.1558" ry="0.0779" fill="currentColor"/>
</g>
<g transform="translate(0.0000, 7.1075)">
<rect x="62.7349" y="-0.0779" width="1.9542" height="0.1558" ry="0.0779" fill="currentColor"/>
</g>
<g transform="translate(61.8839, 4.1075)">
<rect x="-0.0363" y="-0.7910" width="0.0725" height="3.1116" ry="0.0363" fill="currentColor"/>
</g>
<g transform="translate(55.7310, 11.1817)">
<text font-family="Gidole" font-size="2.4690" text-anchor="start" fill="currentColor">
<tspan>A</tspan>
</text>
</g>
<g transform="translate(56.9975, 4.1075)">
<rect x="-0.0363" y="-1.2121" width="0.0725" height="3.0327" ry="0.0363" fill="currentColor"/>
</g>
<g transform="translate(58.1742, 6.1075)">
<path transform="scale(0.0040, -0.0040)" d="M215 137c67 0 111 -37 111 -92c0 -90 -111 -182 -215 -182c-67 0 -111 37 -111 92c0 90 111 182 215 182z" fill="currentColor"/>
</g>
<g transform="translate(59.4407, 4.1075)">
<rect x="-0.0363" y="-0.9969" width="0.0725" height="2.8176" ry="0.0363" fill="currentColor"/>
</g>
<g transform="translate(60.6174, 6.6075)">
<path transform="scale(0.0040, -0.0040)" d="M215 137c67 0 111 -37 111 -92c0 -90 -111 -182 -215 -182c-67 0 -111 37 -111 92c0 90 111 182 215 182z" fill="currentColor"/>
</g>
<g transform="translate(59.9432, 11.1817)">
<text font-family="Gidole" font-size="2.4690" text-anchor="start" fill="currentColor">
<tspan>do</tspan>
</text>
</g>
<g transform="translate(55.7310, 6.1075)">
<path transform="scale(0.0040, -0.0040)" d="M215 137c67 0 111 -37 111 -92c0 -90 -111 -182 -215 -182c-67 0 -111 37 -111 92c0 90 111 182 215 182z" fill="currentColor"/>
</g>
<g transform="translate(63.0606, 7.1075)">
<path transform="scale(0.0040, -0.0040)" d="M215 137c67 0 111 -37 111 -92c0 -90 -111 -182 -215 -182c-67 0 -111 37 -111 92c0 90 111 182 215 182z" fill="currentColor"/>
</g>
<g transform="translate(63.0606, 11.1817)">
<text font-family="Gidole" font-size="2.4690" text-anchor="start" fill="currentColor">
<tspan>naj,</tspan>
</text>
</g>
<g transform="translate(64.3271, 4.1075)">
<rect x="-0.0363" y="-0.5000" width="0.0725" height="3.3206" ry="0.0363" fill="currentColor"/>
</g>
<g transform="translate(67.9149, 7.1075)">
<path transform="scale(0.0040, -0.0040)" d="M215 137c67 0 111 -37 111 -92c0 -90 -111 -182 -215 -182c-67 0 -111 37 -111 92c0 90 111 182 215 182z" fill="currentColor"/>
</g>
<g transform="translate(49.6680, 4.1075)">
<rect x="-0.0363" y="-1.2121" width="0.0725" height="3.0327" ry="0.0363" fill="currentColor"/>
</g>
<g transform="translate(50.8446, 5.6075)">
<path transform="scale(0.0040, -0.0040)" d="M215 137c67 0 111 -37 111 -92c0 -90 -111 -182 -215 -182c-67 0 -111 37 -111 92c0 90 111 182 215 182z" fill="currentColor"/>
</g>
<g transform="translate(50.8446, 11.1817)">
<text font-family="Gidole" font-size="2.4690" text-anchor="start" fill="currentColor">
<tspan>na</tspan>
</text>
</g>
<g transform="translate(52.1112, 4.1075)">
<rect x="-0.0363" y="-1.2121" width="0.0725" height="2.5327" ry="0.0363" fill="currentColor"/>
</g>
<g transform="translate(53.2878, 5.6075)">
<path transform="scale(0.0040, -0.0040)" d="M215 137c67 0 111 -37 111 -92c0 -90 -111 -182 -215 -182c-67 0 -111 37 -111 92c0 90 111 182 215 182z" fill="currentColor"/>
</g>
<g transform="translate(54.5544, 4.1075)">
<rect x="-0.0363" y="-1.2121" width="0.0725" height="2.5327" ry="0.0363" fill="currentColor"/>
</g>
<g transform="translate(14.9349, 4.1075)">
<path stroke-width="0.0446" stroke-linejoin="round" stroke-linecap="round" stroke="currentColor" fill="currentColor" d="M0.6514 2.5486C1.5918 3.4001 3.5224 3.4001 4.4628 2.5486L4.4628 2.5486C3.5224 3.3331 1.5918 3.3331 0.6514 2.5486z"/>
</g>
<g transform="translate(13.5058, 3.1075)">
<polygon stroke-linejoin="round" stroke-linecap="round" stroke-width="0.0941" fill="currentColor" stroke="currentColor" points="2.6849 -0.4050 2.6849 -0.0192 0.0471 0.1929 0.0471 -0.1929"/>
</g>
<g transform="translate(63.0606, 4.1075)">
<path stroke-width="0.0446" stroke-linejoin="round" stroke-linecap="round" stroke="currentColor" fill="currentColor" d="M0.6514 4.0486C1.7768 5.0516 4.3804 5.0516 5.5057 4.0486L5.5057 4.0486C4.3804 4.9846 1.7768 4.9846 0.6514 4.0486z"/>
</g>
<g transform="translate(29.7522, 4.1075)">
<path stroke-width="0.0446" stroke-linejoin="round" stroke-linecap="round" stroke="currentColor" fill="currentColor" d="M0.6514 3.5486C1.5942 4.4022 3.5328 4.4022 4.4756 3.5486L4.4756 3.5486C3.5328 4.3352 1.5942 4.3352 0.6514 3.5486z"/>
</g>
<g transform="translate(28.3231, 3.1075)">
<polygon stroke-linejoin="round" stroke-linecap="round" stroke-width="0.0941" fill="currentColor" stroke="currentColor" points="2.6849 0.0192 2.6849 0.4050 0.0471 0.1929 0.0471 -0.1929"/>
</g>
<g transform="translate(43.8722, 11.1817)">
<rect x="0.0000" y="-0.5651" width="0.6600" height="0.1451" ry="0.0446" fill="currentColor"/>
</g>
<g transform="translate(44.6161, 4.1075)">
<path stroke-width="0.0446" stroke-linejoin="round" stroke-linecap="round" stroke="currentColor" fill="currentColor" d="M0.6514 3.0486C1.5869 3.8959 3.5013 3.8959 4.4368 3.0486L4.4368 3.0486C3.5013 3.8290 1.5869 3.8290 0.6514 3.0486z"/>
</g>
<g transform="translate(43.4032, 2.8954)">
<polygon stroke-linejoin="round" stroke-linecap="round" stroke-width="0.0941" fill="currentColor" stroke="currentColor" points="2.4687 0.0192 2.4687 0.4050 0.0471 0.1929 0.0471 -0.1929"/>
</g>
<g transform="translate(50.8446, 4.1075)">
<path stroke-width="0.0446" stroke-linejoin="round" stroke-linecap="round" stroke="currentColor" fill="currentColor" d="M0.6514 2.5486C1.3098 3.1516 2.4362 3.1516 3.0946 2.5486L3.0946 2.5486C2.4362 3.0847 1.3098 3.0847 0.6514 2.5486z"/>
</g>
<g transform="translate(55.7310, 4.1075)">
<path stroke-width="0.0446" stroke-linejoin="round" stroke-linecap="round" stroke="currentColor" fill="currentColor" d="M0.6514 3.0486C1.3098 3.6516 2.4362 3.6516 3.0946 3.0486L3.0946 3.0486C2.4362 3.5847 1.3098 3.5847 0.6514 3.0486z"/>
</g>
<g transform="translate(58.2302, 11.1817)">
<rect x="0.0000" y="-0.5651" width="0.6600" height="0.1451" ry="0.0446" fill="currentColor"/>
</g>
<g transform="translate(49.6317, 2.8954)">
<polygon stroke-linejoin="round" stroke-linecap="round" stroke-width="0.0941" fill="currentColor" stroke="currentColor" points="7.3551 -0.1929 7.3551 0.1929 0.0471 0.1929 0.0471 -0.1929"/>
</g>
<g transform="translate(69.1814, 4.1075)">
<rect x="-0.0363" y="-0.5000" width="0.0725" height="3.3206" ry="0.0363" fill="currentColor"/>
</g>
<g transform="translate(71.4985, 4.1075)">
<path transform="scale(0.0040, -0.0040)" d="M-8 78c0 59 125 83 125 182c0 25 -9 49 -26 69l-33 40c-3 4 -4 7 -4 11c0 9 9 17 18 17c4 0 8 -2 12 -6l150 -179c7 -9 11 -18 11 -26c0 -59 -125 -83 -125 -182c0 -25 8 -49 25 -69l82 -97c3 -4 4 -7 4 -11c0 -9 -8 -17 -17 -17c-10 0 -42 42 -106 42
c-19 0 -54 -1 -54 -66c0 -34 10 -73 27 -93c7 -9 -5 -20 -12 -11c-45 53 -93 147 -93 201c0 42 27 42 43 42c31 0 74 -11 113 -27l-129 154c-7 9 -11 18 -11 26z" fill="currentColor"/>
</g>
<g transform="translate(62.6644, 11.1817)">
<rect x="0.0000" y="-0.5651" width="0.3262" height="0.1451" ry="0.0446" fill="currentColor"/>
</g>
<g transform="translate(74.7292, 6.6075)">
<path transform="scale(0.0040, -0.0040)" d="M215 137c67 0 111 -37 111 -92c0 -90 -111 -182 -215 -182c-67 0 -111 37 -111 92c0 90 111 182 215 182z" fill="currentColor"/>
</g>
<g transform="translate(74.0551, 11.1817)">
<text font-family="Gidole" font-size="2.4690" text-anchor="start" fill="currentColor">
<tspan>od</tspan>
</text>
</g>
<g transform="translate(75.9958, 4.1075)">
<rect x="-0.0363" y="-1.0000" width="0.0725" height="3.3206" ry="0.0363" fill="currentColor"/>
</g>
<g transform="translate(59.4045, 3.1075)">
<polygon stroke-linejoin="round" stroke-linecap="round" stroke-width="0.0941" fill="currentColor" stroke="currentColor" points="2.4687 0.0192 2.4687 0.4050 0.0471 0.1929 0.0471 -0.1929"/>
</g>
<g transform="translate(78.3128, 6.1075)">
<path transform="scale(0.0040, -0.0040)" d="M215 137c67 0 111 -37 111 -92c0 -90 -111 -182 -215 -182c-67 0 -111 37 -111 92c0 90 111 182 215 182z" fill="currentColor"/>
</g>
<g transform="translate(77.7190, 11.1817)">
<text font-family="Gidole" font-size="2.4690" text-anchor="start" fill="currentColor">
<tspan>vě</tspan>
</text>
</g>
<g transform="translate(79.5794, 4.1075)">
<rect x="-0.0363" y="-1.5000" width="0.0725" height="3.3206" ry="0.0363" fill="currentColor"/>
</g>
<g transform="translate(14.9349, 11.1817)">
<text font-family="Gidole" font-size="2.4690" text-anchor="start" fill="currentColor">
<tspan>daj,</tspan>
</text>
</g>
<g transform="translate(16.2015, 4.1075)">
<rect x="-0.0363" y="-1.2093" width="0.0725" height="2.5299" ry="0.0363" fill="currentColor"/>
</g>
<g transform="translate(18.7075, 5.6075)">
<path transform="scale(0.0040, -0.0040)" d="M312 64c0 23 -18 41 -41 41c-39 0 -201 -110 -228 -142c-7 -8 -10 -17 -10 -27c0 -23 18 -41 41 -41c39 0 201 110 228 142c7 8 10 17 10 27zM259 137c46 0 86 -17 86 -74c0 -26 -15 -112 -73 -151c-29 -20 -89 -49 -186 -49c-46 0 -86 17 -86 74c0 26 16 112 74 151
c29 20 88 49 185 49z" fill="currentColor"/>
</g>
<g transform="translate(20.0518, 4.1075)">
<rect x="-0.0363" y="-2.0000" width="0.0725" height="3.2470" ry="0.0363" fill="currentColor"/>
</g>
<g transform="translate(14.9349, 5.6075)">
<path transform="scale(0.0040, -0.0040)" d="M215 137c67 0 111 -37 111 -92c0 -90 -111 -182 -215 -182c-67 0 -111 37 -111 92c0 90 111 182 215 182z" fill="currentColor"/>
</g>
<g transform="translate(23.5092, 5.6075)">
<path transform="scale(0.0040, -0.0040)" d="M215 137c67 0 111 -37 111 -92c0 -90 -111 -182 -215 -182c-67 0 -111 37 -111 92c0 90 111 182 215 182z" fill="currentColor"/>
</g>
<g transform="translate(23.1966, 11.1817)">
<text font-family="Gidole" font-size="2.4690" text-anchor="start" fill="currentColor">
<tspan>El</tspan>
</text>
</g>
<g transform="translate(24.7758, 4.1075)">
<rect x="-0.0363" y="-2.0000" width="0.0725" height="3.3206" ry="0.0363" fill="currentColor"/>
</g>
<g transform="translate(48.4014, 6.1075)">
<path transform="scale(0.0040, -0.0040)" d="M215 137c67 0 111 -37 111 -92c0 -90 -111 -182 -215 -182c-67 0 -111 37 -111 92c0 90 111 182 215 182z" fill="currentColor"/>
</g>
<g transform="translate(27.0928, 6.1075)">
<path transform="scale(0.0040, -0.0040)" d="M215 137c67 0 111 -37 111 -92c0 -90 -111 -182 -215 -182c-67 0 -111 37 -111 92c0 90 111 182 215 182z" fill="currentColor"/>
</g>
<g transform="translate(25.8362, 11.1817)">
<text font-family="Gidole" font-size="2.4690" text-anchor="start" fill="currentColor">
<tspan>Šad</tspan>
</text>
</g>
<g transform="translate(28.3593, 4.1075)">
<rect x="-0.0363" y="-0.9972" width="0.0725" height="2.8178" ry="0.0363" fill="currentColor"/>
</g>
<g transform="translate(80.8415, 11.1817)">
<rect x="0.0000" y="-0.5651" width="0.6600" height="0.1451" ry="0.0446" fill="currentColor"/>
</g>
<g transform="translate(8.6920, 6.6075)">
<path transform="scale(0.0040, -0.0040)" d="M215 137c67 0 111 -37 111 -92c0 -90 -111 -182 -215 -182c-67 0 -111 37 -111 92c0 90 111 182 215 182z" fill="currentColor"/>
</g>
<g transform="translate(0.8000, 5.1075)">
<path transform="scale(0.0040, -0.0040)" d="M646 2c0 -113 -74 -213 -180 -247c3 -34 5 -68 5 -102c0 -20 -1 -40 -2 -60c-7 -121 -91 -228 -209 -228c-108 0 -196 87 -196 196c0 58 53 104 112 104c54 0 95 -48 95 -104c0 -52 -43 -95 -95 -95c-10 0 -20 2 -29 6c26 -38 68 -63 116 -63h3c93 2 153 92 159 190
c1 19 2 37 2 56c0 30 -2 60 -4 90c-5 -1 -43 -8 -88 -8c-194 0 -333 180 -333 375c0 177 130 307 246 442c-31 98 -53 170 -53 347c0 115 55 223 148 290c7 5 16 4 22 -1c68 -80 134 -243 134 -357c0 -143 -85 -255 -178 -364c21 -68 40 -137 57 -206c1 0 5 1 11 1
c156 0 257 -129 257 -262zM462 -202c66 24 111 88 111 162c0 89 -65 178 -170 190c28 -135 50 -272 59 -352zM75 26c0 -145 141 -245 263 -245c1 0 46 0 81 6c-7 65 -27 206 -61 363c-79 -8 -124 -61 -124 -119c0 -43 25 -89 80 -121c5 -5 7 -11 7 -16
c0 -12 -10 -23 -22 -23c-16 0 -127 63 -127 188c0 89 58 175 161 198c-14 58 -29 116 -46 173c-106 -122 -212 -244 -212 -404zM406 1042c-99 -47 -162 -148 -162 -257c0 -49 13 -111 38 -191c79 97 144 199 144 324c0 33 0 63 -20 124z" fill="currentColor"/>
</g>
<g transform="translate(5.0000, 4.1075)">
<path transform="scale(0.0040, -0.0040)" d="M358 29c-30 0 -74 23 -74 73c0 38 27 76 71 76c4 0 7 0 11 -1c-27 36 -69 59 -116 59c-106 0 -113 -74 -113 -188c0 -15 1 -31 1 -48s-1 -33 -1 -48c0 -114 7 -188 113 -188c79 0 136 70 155 150c2 7 7 10 13 10c7 0 14 -5 14 -13c0 -21 -50 -175 -182 -175
c-59 0 -250 20 -250 264c0 63 18 264 250 264c115 0 174 -109 174 -165c0 -39 -30 -70 -66 -70z" fill="currentColor"/>
</g>
<g transform="translate(8.3793, 11.1817)">
<text font-family="Gidole" font-size="2.4690" text-anchor="start" fill="currentColor">
<tspan>El</tspan>
</text>
</g>
<g transform="translate(5.0094, 11.1817)">
<text font-family="serif" font-weight="bold" font-size="2.4690" text-anchor="start" fill="currentColor">
<tspan>R.</tspan>
</text>
</g>
<g transform="translate(9.9585, 4.1075)">
<rect x="-0.0363" y="-1.0000" width="0.0725" height="3.3206" ry="0.0363" fill="currentColor"/>
</g>
<g transform="translate(12.2755, 6.1075)">
<path transform="scale(0.0040, -0.0040)" d="M215 137c67 0 111 -37 111 -92c0 -90 -111 -182 -215 -182c-67 0 -111 37 -111 92c0 90 111 182 215 182z" fill="currentColor"/>
</g>
<g transform="translate(11.0189, 11.1817)">
<text font-family="Gidole" font-size="2.4690" text-anchor="start" fill="currentColor">
<tspan>Šad</tspan>
</text>
</g>
<g transform="translate(13.5421, 4.1075)">
<rect x="-0.0363" y="-1.0028" width="0.0725" height="2.8235" ry="0.0363" fill="currentColor"/>
</g>
<g transform="translate(34.8819, 4.1075)">
<rect x="-0.0363" y="-1.0000" width="0.0725" height="3.2470" ry="0.0363" fill="currentColor"/>
</g>
<g transform="translate(44.6161, 6.1075)">
<path transform="scale(0.0040, -0.0040)" d="M215 137c67 0 111 -37 111 -92c0 -90 -111 -182 -215 -182c-67 0 -111 37 -111 92c0 90 111 182 215 182z" fill="currentColor"/>
</g>
<g transform="translate(43.4394, 4.1075)">
<rect x="-0.0363" y="-1.2090" width="0.0725" height="2.5297" ry="0.0363" fill="currentColor"/>
</g>
<g transform="translate(38.5893, 5.1075)">
<path transform="scale(0.0040, -0.0040)" d="M215 137c67 0 111 -37 111 -92c0 -90 -111 -182 -215 -182c-67 0 -111 37 -111 92c0 90 111 182 215 182z" fill="currentColor"/>
</g>
<g transform="translate(38.2767, 11.1817)">
<text font-family="Gidole" font-size="2.4690" text-anchor="start" fill="currentColor">
<tspan>El</tspan>
</text>
</g>
<g transform="translate(39.8558, 4.1075)">
<rect x="-0.0363" y="-2.5000" width="0.0725" height="3.3206" ry="0.0363" fill="currentColor"/>
</g>
<g transform="translate(41.8602, 11.1817)">
<text font-family="Gidole" font-size="2.4690" text-anchor="start" fill="currentColor">
<tspan>El</tspan>
</text>
</g>
<g transform="translate(42.1729, 5.6075)">
<path transform="scale(0.0040, -0.0040)" d="M215 137c67 0 111 -37 111 -92c0 -90 -111 -182 -215 -182c-67 0 -111 37 -111 92c0 90 111 182 215 182z" fill="currentColor"/>
</g>
<g transform="translate(29.7522, 6.6075)">
<path transform="scale(0.0040, -0.0040)" d="M215 137c67 0 111 -37 111 -92c0 -90 -111 -182 -215 -182c-67 0 -111 37 -111 92c0 90 111 182 215 182z" fill="currentColor"/>
</g>
<g transform="translate(29.7522, 11.1817)">
<text font-family="Gidole" font-size="2.4690" text-anchor="start" fill="currentColor">
<tspan>daj,</tspan>
</text>
</g>
<g transform="translate(31.0188, 4.1075)">
<rect x="-0.0363" y="-0.7907" width="0.0725" height="3.1114" ry="0.0363" fill="currentColor"/>
</g>
<g transform="translate(45.8826, 4.1075)">
<rect x="-0.0363" y="-1.0031" width="0.0725" height="2.8237" ry="0.0363" fill="currentColor"/>
</g>
<g transform="translate(33.5376, 6.6075)">
<path transform="scale(0.0040, -0.0040)" d="M312 64c0 23 -18 41 -41 41c-39 0 -201 -110 -228 -142c-7 -8 -10 -17 -10 -27c0 -23 18 -41 41 -41c39 0 201 110 228 142c7 8 10 17 10 27zM259 137c46 0 86 -17 86 -74c0 -26 -15 -112 -73 -151c-29 -20 -89 -49 -186 -49c-46 0 -86 17 -86 74c0 26 16 112 74 151
c29 20 88 49 185 49z" fill="currentColor"/>
</g>
<g transform="translate(44.6161, 11.1817)">
<text font-family="Gidole" font-size="2.4690" text-anchor="start" fill="currentColor">
<tspan>jon</tspan>
</text>
</g>
<g transform="translate(0.0000, 18.1075)">
<line stroke-linejoin="round" stroke-linecap="round" stroke-width="0.0558" stroke="currentColor" x1="0.0279" y1="0" x2="82.3177" y2="0"/>
</g>
<g transform="translate(0.0000, 17.1075)">
<line stroke-linejoin="round" stroke-linecap="round" stroke-width="0.0558" stroke="currentColor" x1="0.0279" y1="0" x2="82.3177" y2="0"/>
</g>
<g transform="translate(0.0000, 16.1075)">
<line stroke-linejoin="round" stroke-linecap="round" stroke-width="0.0558" stroke="currentColor" x1="0.0279" y1="0" x2="82.3177" y2="0"/>
</g>
<g transform="translate(0.0000, 15.1075)">
<line stroke-linejoin="round" stroke-linecap="round" stroke-width="0.0558" stroke="currentColor" x1="0.0279" y1="0" x2="82.3177" y2="0"/>
</g>
<g transform="translate(0.0000, 14.1075)">
<line stroke-linejoin="round" stroke-linecap="round" stroke-width="0.0558" stroke="currentColor" x1="0.0279" y1="0" x2="82.3177" y2="0"/>
</g>
<g transform="translate(82.1336, 16.1075)">
<rect x="0.0000" y="-2.0000" width="0.2120" height="4.0000" ry="0.0000" fill="currentColor"/>
</g>
<g transform="translate(62.7247, 16.1075)">
<rect x="0.0000" y="-2.0000" width="0.2120" height="4.0000" ry="0.0000" fill="currentColor"/>
</g>
<g transform="translate(24.6519, 16.1075)">
<rect x="0.0000" y="-2.0000" width="0.2120" height="4.0000" ry="0.0000" fill="currentColor"/>
</g>
<g transform="translate(42.5141, 16.1075)">
<rect x="0.0000" y="-2.0000" width="0.2120" height="4.0000" ry="0.0000" fill="currentColor"/>
</g>
<g transform="translate(0.0000, 19.1075)">
<rect x="52.5284" y="-0.0779" width="1.9542" height="0.1558" ry="0.0779" fill="currentColor"/>
</g>
<g transform="translate(0.0000, 19.1075)">
<rect x="49.3707" y="-0.0779" width="1.9542" height="0.1558" ry="0.0779" fill="currentColor"/>
</g>
<g transform="translate(0.0000, 19.1075)">
<rect x="43.5114" y="-0.0779" width="1.9542" height="0.1558" ry="0.0779" fill="currentColor"/>
</g>
<g transform="translate(0.0000, 19.1075)">
<rect x="19.3194" y="-0.0779" width="1.9542" height="0.1558" ry="0.0779" fill="currentColor"/>
</g>
<g transform="translate(57.6822, 18.6075)">
<path transform="scale(0.0040, -0.0040)" d="M215 137c67 0 111 -37 111 -92c0 -90 -111 -182 -215 -182c-67 0 -111 37 -111 92c0 90 111 182 215 182z" fill="currentColor"/>
</g>
<g transform="translate(57.7512, 21.9732)">
<text font-family="Gidole" font-size="2.4690" text-anchor="start" fill="currentColor">
<tspan>li</tspan>
</text>
</g>
<g transform="translate(58.9488, 16.1075)">
<rect x="-0.0363" y="-1.0000" width="0.0725" height="3.3206" ry="0.0363" fill="currentColor"/>
</g>
<g transform="translate(64.0477, 18.1075)">
<path transform="scale(0.0040, -0.0040)" d="M312 64c0 23 -18 41 -41 41c-39 0 -201 -110 -228 -142c-7 -8 -10 -17 -10 -27c0 -23 18 -41 41 -41c39 0 201 110 228 142c7 8 10 17 10 27zM259 137c46 0 86 -17 86 -74c0 -26 -15 -112 -73 -151c-29 -20 -89 -49 -186 -49c-46 0 -86 17 -86 74c0 26 16 112 74 151
c29 20 88 49 185 49z" fill="currentColor"/>
</g>
<g transform="translate(63.2317, 21.9732)">
<text font-family="Gidole" font-size="2.4690" text-anchor="start" fill="currentColor">
<tspan>ký.</tspan>
</text>
</g>
<g transform="translate(65.3920, 16.1075)">
<rect x="-0.0363" y="-1.5000" width="0.0725" height="3.2470" ry="0.0363" fill="currentColor"/>
</g>
<g transform="translate(49.2030, 21.9732)">
<text font-family="Gidole" font-size="2.4690" text-anchor="start" fill="currentColor">
<tspan>jsi</tspan>
</text>
</g>
<g transform="translate(76.7747, 15.1075)">
<polygon stroke-linejoin="round" stroke-linecap="round" stroke-width="0.0941" fill="currentColor" stroke="currentColor" points="3.0910 -0.4050 3.0910 -0.0192 0.0471 0.1929 0.0471 -0.1929"/>
</g>
<g transform="translate(49.6964, 19.1075)">
<path transform="scale(0.0040, -0.0040)" d="M215 137c67 0 111 -37 111 -92c0 -90 -111 -182 -215 -182c-67 0 -111 37 -111 92c0 90 111 182 215 182z" fill="currentColor"/>
</g>
<g transform="translate(50.9629, 16.1075)">
<rect x="-0.0363" y="-0.5000" width="0.0725" height="3.3206" ry="0.0363" fill="currentColor"/>
</g>
<g transform="translate(50.9992, 15.6546)">
<path transform="scale(0.0040, -0.0040)" d="M0 0c0 -197 207 -335 207 -532c0 -71 -15 -141 -41 -207c-5 -8 -13 -12 -21 -12c-14 0 -27 11 -24 28c26 60 42 125 42 191c0 103 -93 207 -163 282h-18v250h18z" fill="currentColor"/>
</g>
<g transform="translate(52.8541, 19.1075)">
<path transform="scale(0.0040, -0.0040)" d="M215 137c67 0 111 -37 111 -92c0 -90 -111 -182 -215 -182c-67 0 -111 37 -111 92c0 90 111 182 215 182z" fill="currentColor"/>
</g>
<g transform="translate(52.2603, 21.9732)">
<text font-family="Gidole" font-size="2.4690" text-anchor="start" fill="currentColor">
<tspan>ve</tspan>
</text>
</g>
<g transform="translate(54.1206, 16.1075)">
<rect x="-0.0363" y="-0.5000" width="0.0725" height="3.3206" ry="0.0363" fill="currentColor"/>
</g>
<g transform="translate(23.1709, 21.9732)">
<rect x="0.0000" y="-0.5651" width="0.6600" height="0.1451" ry="0.0446" fill="currentColor"/>
</g>
<g transform="translate(35.2930, 21.9732)">
<rect x="0.0000" y="-0.5651" width="0.4504" height="0.1451" ry="0.0446" fill="currentColor"/>
</g>
<g transform="translate(55.9210, 21.9732)">
<rect x="0.0000" y="-0.5651" width="0.6600" height="0.1451" ry="0.0446" fill="currentColor"/>
</g>
<g transform="translate(60.7439, 21.9732)">
<rect x="0.0000" y="-0.5651" width="0.6600" height="0.1451" ry="0.0446" fill="currentColor"/>
</g>
<g transform="translate(78.1739, 21.9732)">
<rect x="0.0000" y="-0.5651" width="0.3661" height="0.1451" ry="0.0446" fill="currentColor"/>
</g>
<g transform="translate(70.7163, 18.6075)">
<path transform="scale(0.0040, -0.0040)" d="M215 137c67 0 111 -37 111 -92c0 -90 -111 -182 -215 -182c-67 0 -111 37 -111 92c0 90 111 182 215 182z" fill="currentColor"/>
</g>
<g transform="translate(70.4037, 21.9732)">
<text font-family="Gidole" font-size="2.4690" text-anchor="start" fill="currentColor">
<tspan>El</tspan>
</text>
</g>
<g transform="translate(71.9829, 16.1075)">
<rect x="-0.0363" y="-1.0000" width="0.0725" height="3.3206" ry="0.0363" fill="currentColor"/>
</g>
<g transform="translate(75.5445, 18.1075)">
<path transform="scale(0.0040, -0.0040)" d="M215 137c67 0 111 -37 111 -92c0 -90 -111 -182 -215 -182c-67 0 -111 37 -111 92c0 90 111 182 215 182z" fill="currentColor"/>
</g>
<g transform="translate(74.2879, 21.9732)">
<text font-family="Gidole" font-size="2.4690" text-anchor="start" fill="currentColor">
<tspan>Šad</tspan>
</text>
</g>
<g transform="translate(76.8110, 16.1075)">
<rect x="-0.0363" y="-1.0025" width="0.0725" height="2.8231" ry="0.0363" fill="currentColor"/>
</g>
<g transform="translate(78.6099, 17.6075)">
<path transform="scale(0.0040, -0.0040)" d="M215 137c67 0 111 -37 111 -92c0 -90 -111 -182 -215 -182c-67 0 -111 37 -111 92c0 90 111 182 215 182z" fill="currentColor"/>
</g>
<g transform="translate(78.6099, 21.9732)">
<text font-family="Gidole" font-size="2.4690" text-anchor="start" fill="currentColor">
<tspan>daj,</tspan>
</text>
</g>
<g transform="translate(79.8765, 16.1075)">
<rect x="-0.0363" y="-1.2096" width="0.0725" height="2.5303" ry="0.0363" fill="currentColor"/>
</g>
<g transform="translate(14.8170, 18.6075)">
<path transform="scale(0.0040, -0.0040)" d="M215 137c67 0 111 -37 111 -92c0 -90 -111 -182 -215 -182c-67 0 -111 37 -111 92c0 90 111 182 215 182z" fill="currentColor"/>
</g>
<g transform="translate(11.6592, 18.1075)">
<path transform="scale(0.0040, -0.0040)" d="M215 137c67 0 111 -37 111 -92c0 -90 -111 -182 -215 -182c-67 0 -111 37 -111 92c0 90 111 182 215 182z" fill="currentColor"/>
</g>
<g transform="translate(11.1658, 21.9732)">
<text font-family="Gidole" font-size="2.4690" text-anchor="start" fill="currentColor">
<tspan>až</tspan>
</text>
</g>
<g transform="translate(12.9258, 16.1075)">
<rect x="-0.0363" y="-1.5000" width="0.0725" height="3.3206" ry="0.0363" fill="currentColor"/>
</g>
<g transform="translate(12.9621, 14.6546)">
<path transform="scale(0.0040, -0.0040)" d="M0 0c0 -197 207 -335 207 -532c0 -71 -15 -141 -41 -207c-5 -8 -13 -12 -21 -12c-14 0 -27 11 -24 28c26 60 42 125 42 191c0 103 -93 207 -163 282h-18v250h18z" fill="currentColor"/>
</g>
<g transform="translate(7.0665, 16.1075)">
<rect x="-0.0363" y="-2.0000" width="0.0725" height="3.3206" ry="0.0363" fill="currentColor"/>
</g>
<g transform="translate(14.1830, 21.9732)">
<text font-family="Gidole" font-size="2.4690" text-anchor="start" fill="currentColor">
<tspan>na</tspan>
</text>
</g>
<g transform="translate(16.0835, 16.1075)">
<rect x="-0.0363" y="-1.0000" width="0.0725" height="3.3206" ry="0.0363" fill="currentColor"/>
</g>
<g transform="translate(19.6451, 19.1075)">
<path transform="scale(0.0040, -0.0040)" d="M215 137c67 0 111 -37 111 -92c0 -90 -111 -182 -215 -182c-67 0 -111 37 -111 92c0 90 111 182 215 182z" fill="currentColor"/>
</g>
<g transform="translate(20.9117, 16.1075)">
<rect x="-0.0363" y="-0.5000" width="0.0725" height="3.3206" ry="0.0363" fill="currentColor"/>
</g>
<g transform="translate(78.6099, 16.1075)">
<path stroke-width="0.0446" stroke-linejoin="round" stroke-linecap="round" stroke="currentColor" fill="currentColor" d="M0.6514 2.5486C1.4037 3.2359 2.7714 3.2359 3.5236 2.5486L3.5236 2.5486C2.7714 3.1689 1.4037 3.1689 0.6514 2.5486z"/>
</g>
<g transform="translate(0.8000, 17.1075)">
<path transform="scale(0.0040, -0.0040)" d="M646 2c0 -113 -74 -213 -180 -247c3 -34 5 -68 5 -102c0 -20 -1 -40 -2 -60c-7 -121 -91 -228 -209 -228c-108 0 -196 87 -196 196c0 58 53 104 112 104c54 0 95 -48 95 -104c0 -52 -43 -95 -95 -95c-10 0 -20 2 -29 6c26 -38 68 -63 116 -63h3c93 2 153 92 159 190
c1 19 2 37 2 56c0 30 -2 60 -4 90c-5 -1 -43 -8 -88 -8c-194 0 -333 180 -333 375c0 177 130 307 246 442c-31 98 -53 170 -53 347c0 115 55 223 148 290c7 5 16 4 22 -1c68 -80 134 -243 134 -357c0 -143 -85 -255 -178 -364c21 -68 40 -137 57 -206c1 0 5 1 11 1
c156 0 257 -129 257 -262zM462 -202c66 24 111 88 111 162c0 89 -65 178 -170 190c28 -135 50 -272 59 -352zM75 26c0 -145 141 -245 263 -245c1 0 46 0 81 6c-7 65 -27 206 -61 363c-79 -8 -124 -61 -124 -119c0 -43 25 -89 80 -121c5 -5 7 -11 7 -16
c0 -12 -10 -23 -22 -23c-16 0 -127 63 -127 188c0 89 58 175 161 198c-14 58 -29 116 -46 173c-106 -122 -212 -244 -212 -404zM406 1042c-99 -47 -162 -148 -162 -257c0 -49 13 -111 38 -191c79 97 144 199 144 324c0 33 0 63 -20 124z" fill="currentColor"/>
</g>
<g transform="translate(19.0513, 21.9732)">
<text font-family="Gidole" font-size="2.4690" text-anchor="start" fill="currentColor">
<tspan>vě</tspan>
</text>
</g>
<g transform="translate(5.8000, 17.6075)">
<path transform="scale(0.0040, -0.0040)" d="M215 137c67 0 111 -37 111 -92c0 -90 -111 -182 -215 -182c-67 0 -111 37 -111 92c0 90 111 182 215 182z" fill="currentColor"/>
</g>
<g transform="translate(5.1861, 21.9732)">
<text font-family="Gidole" font-size="2.4690" text-anchor="start" fill="currentColor">
<tspan>ků</tspan>
</text>
</g>
<g transform="translate(7.5488, 17.6075)">
<path transform="scale(0.0040, -0.0040)" d="M0 0c0 31 25 56 56 56s55 -25 55 -56s-24 -56 -55 -56s-56 25 -56 56z" fill="currentColor"/>
</g>
<g transform="translate(33.9100, 16.1075)">
<rect x="-0.0363" y="-1.5000" width="0.0725" height="3.3206" ry="0.0363" fill="currentColor"/>
</g>
<g transform="translate(32.6435, 18.1075)">
<path transform="scale(0.0040, -0.0040)" d="M215 137c67 0 111 -37 111 -92c0 -90 -111 -182 -215 -182c-67 0 -111 37 -111 92c0 90 111 182 215 182z" fill="currentColor"/>
</g>
<g transform="translate(31.3668, 21.9732)">
<text font-family="Gidole" font-size="2.4690" text-anchor="start" fill="currentColor">
<tspan>jmé</tspan>
</text>
</g>
<g transform="translate(45.1036, 16.1075)">
<rect x="-0.0363" y="-0.5000" width="0.0725" height="3.3206" ry="0.0363" fill="currentColor"/>
</g>
<g transform="translate(38.7382, 16.1075)">
<rect x="-0.0363" y="-1.0000" width="0.0725" height="3.3206" ry="0.0363" fill="currentColor"/>
</g>
<g transform="translate(37.4716, 18.6075)">
<path transform="scale(0.0040, -0.0040)" d="M215 137c67 0 111 -37 111 -92c0 -90 -111 -182 -215 -182c-67 0 -111 37 -111 92c0 90 111 182 215 182z" fill="currentColor"/>
</g>
<g transform="translate(35.8133, 21.9732)">
<text font-family="Gidole" font-size="2.4690" text-anchor="start" fill="currentColor">
<tspan>nem</tspan>
</text>
</g>
<g transform="translate(43.8371, 19.1075)">
<path transform="scale(0.0040, -0.0040)" d="M215 137c67 0 111 -37 111 -92c0 -90 -111 -182 -215 -182c-67 0 -111 37 -111 92c0 90 111 182 215 182z" fill="currentColor"/>
</g>
<g transform="translate(25.9749, 18.6075)">
<path transform="scale(0.0040, -0.0040)" d="M312 64c0 23 -18 41 -41 41c-39 0 -201 -110 -228 -142c-7 -8 -10 -17 -10 -27c0 -23 18 -41 41 -41c39 0 201 110 228 142c7 8 10 17 10 27zM259 137c46 0 86 -17 86 -74c0 -26 -15 -112 -73 -151c-29 -20 -89 -49 -186 -49c-46 0 -86 17 -86 74c0 26 16 112 74 151
c29 20 88 49 185 49z" fill="currentColor"/>
</g>
<g transform="translate(45.5859, 18.6075)">
<path transform="scale(0.0040, -0.0040)" d="M0 0c0 31 25 56 56 56s55 -25 55 -56s-24 -56 -55 -56s-56 25 -56 56z" fill="currentColor"/>
</g>
<g transform="translate(25.4601, 21.9732)">
<text font-family="Gidole" font-size="2.4690" text-anchor="start" fill="currentColor">
<tspan>ky</tspan>
</text>
</g>
<g transform="translate(27.3192, 16.1075)">
<rect x="-0.0363" y="-1.0000" width="0.0725" height="3.2470" ry="0.0363" fill="currentColor"/>
</g>
<g transform="translate(41.6968, 21.9732)">
<text font-family="Gidole" font-size="2.4690" text-anchor="start" fill="currentColor">
<tspan>svým</tspan>
</text>
</g>
<g transform="translate(0.0000, 30.1075)">
<line stroke-linejoin="round" stroke-linecap="round" stroke-width="0.0558" stroke="currentColor" x1="0.0279" y1="0" x2="82.3177" y2="0"/>
</g>
<g transform="translate(0.0000, 29.1075)">
<line stroke-linejoin="round" stroke-linecap="round" stroke-width="0.0558" stroke="currentColor" x1="0.0279" y1="0" x2="82.3177" y2="0"/>
</g>
<g transform="translate(0.0000, 28.1075)">
<line stroke-linejoin="round" stroke-linecap="round" stroke-width="0.0558" stroke="currentColor" x1="0.0279" y1="0" x2="82.3177" y2="0"/>
</g>
<g transform="translate(0.0000, 27.1075)">
<line stroke-linejoin="round" stroke-linecap="round" stroke-width="0.0558" stroke="currentColor" x1="0.0279" y1="0" x2="82.3177" y2="0"/>
</g>
<g transform="translate(0.0000, 26.1075)">
<line stroke-linejoin="round" stroke-linecap="round" stroke-width="0.0558" stroke="currentColor" x1="0.0279" y1="0" x2="82.3177" y2="0"/>
</g>
<g transform="translate(40.3120, 28.1075)">
<rect x="0.0000" y="-2.0000" width="0.2120" height="4.0000" ry="0.0000" fill="currentColor"/>
</g>
<g transform="translate(63.3241, 28.1075)">
<rect x="0.0000" y="-2.0000" width="0.2120" height="4.0000" ry="0.0000" fill="currentColor"/>
</g>
<g transform="translate(22.2480, 28.1075)">
<rect x="0.0000" y="-2.0000" width="0.2120" height="4.0000" ry="0.0000" fill="currentColor"/>
</g>
<g transform="translate(82.1336, 28.1075)">
<rect x="0.0000" y="-2.0000" width="0.2120" height="4.0000" ry="0.0000" fill="currentColor"/>
</g>
<g transform="translate(0.0000, 31.1075)">
<rect x="64.2448" y="-0.0779" width="1.9542" height="0.1558" ry="0.0779" fill="currentColor"/>
</g>
<g transform="translate(0.0000, 31.1075)">
<rect x="58.4002" y="-0.0779" width="1.9542" height="0.1558" ry="0.0779" fill="currentColor"/>
</g>
<g transform="translate(59.9924, 28.1075)">
<rect x="-0.0363" y="-0.5000" width="0.0725" height="3.3206" ry="0.0363" fill="currentColor"/>
</g>
<g transform="translate(55.8646, 30.6075)">
<path transform="scale(0.0040, -0.0040)" d="M215 137c67 0 111 -37 111 -92c0 -90 -111 -182 -215 -182c-67 0 -111 37 -111 92c0 90 111 182 215 182z" fill="currentColor"/>
</g>
<g transform="translate(55.1905, 35.2442)">
<text font-family="Gidole" font-size="2.4690" text-anchor="start" fill="currentColor">
<tspan>do</tspan>
</text>
</g>
<g transform="translate(57.1312, 28.1075)">
<rect x="-0.0363" y="-0.7905" width="0.0725" height="3.1112" ry="0.0363" fill="currentColor"/>
</g>
<g transform="translate(58.7259, 31.1075)">
<path transform="scale(0.0040, -0.0040)" d="M215 137c67 0 111 -37 111 -92c0 -90 -111 -182 -215 -182c-67 0 -111 37 -111 92c0 90 111 182 215 182z" fill="currentColor"/>
</g>
<g transform="translate(58.7259, 35.2442)">
<text font-family="Gidole" font-size="2.4690" text-anchor="start" fill="currentColor">
<tspan>naj,</tspan>
</text>
</g>
<g transform="translate(64.5705, 31.1075)">
<path transform="scale(0.0040, -0.0040)" d="M215 137c67 0 111 -37 111 -92c0 -90 -111 -182 -215 -182c-67 0 -111 37 -111 92c0 90 111 182 215 182z" fill="currentColor"/>
</g>
<g transform="translate(65.8371, 28.1075)">
<rect x="-0.0363" y="-0.5000" width="0.0725" height="3.3206" ry="0.0363" fill="currentColor"/>
</g>
<g transform="translate(44.4197, 29.6075)">
<path transform="scale(0.0040, -0.0040)" d="M215 137c67 0 111 -37 111 -92c0 -90 -111 -182 -215 -182c-67 0 -111 37 -111 92c0 90 111 182 215 182z" fill="currentColor"/>
</g>
<g transform="translate(44.4197, 35.2442)">
<text font-family="Gidole" font-size="2.4690" text-anchor="start" fill="currentColor">
<tspan>na</tspan>
</text>
</g>
<g transform="translate(45.6862, 28.1075)">
<rect x="-0.0363" y="-1.2121" width="0.0725" height="2.5327" ry="0.0363" fill="currentColor"/>
</g>
<g transform="translate(47.2809, 29.6075)">
<path transform="scale(0.0040, -0.0040)" d="M215 137c67 0 111 -37 111 -92c0 -90 -111 -182 -215 -182c-67 0 -111 37 -111 92c0 90 111 182 215 182z" fill="currentColor"/>
</g>
<g transform="translate(48.5474, 28.1075)">
<rect x="-0.0363" y="-1.2121" width="0.0725" height="2.5327" ry="0.0363" fill="currentColor"/>
</g>
<g transform="translate(75.5883, 35.2442)">
<rect x="0.0000" y="-0.5651" width="0.6600" height="0.1451" ry="0.0446" fill="currentColor"/>
</g>
<g transform="translate(50.1421, 30.1075)">
<path transform="scale(0.0040, -0.0040)" d="M215 137c67 0 111 -37 111 -92c0 -90 -111 -182 -215 -182c-67 0 -111 37 -111 92c0 90 111 182 215 182z" fill="currentColor"/>
</g>
<g transform="translate(50.1421, 35.2442)">
<text font-family="Gidole" font-size="2.4690" text-anchor="start" fill="currentColor">
<tspan>A</tspan>
</text>
</g>
<g transform="translate(51.4087, 28.1075)">
<rect x="-0.0363" y="-1.2121" width="0.0725" height="3.0327" ry="0.0363" fill="currentColor"/>
</g>
<g transform="translate(53.0034, 30.1075)">
<path transform="scale(0.0040, -0.0040)" d="M215 137c67 0 111 -37 111 -92c0 -90 -111 -182 -215 -182c-67 0 -111 37 -111 92c0 90 111 182 215 182z" fill="currentColor"/>
</g>
<g transform="translate(54.2699, 28.1075)">
<rect x="-0.0363" y="-0.9974" width="0.0725" height="2.8180" ry="0.0363" fill="currentColor"/>
</g>
<g transform="translate(18.8359, 35.2442)">
<rect x="0.0000" y="-0.5651" width="0.3000" height="0.1451" ry="0.0446" fill="currentColor"/>
</g>
<g transform="translate(19.1368, 28.1075)">
<path stroke-width="0.0446" stroke-linejoin="round" stroke-linecap="round" stroke="currentColor" fill="currentColor" d="M0.6514 3.5486C1.6984 4.4888 4.0010 4.4888 5.0480 3.5486L5.0480 3.5486C4.0010 4.4219 1.6984 4.4219 0.6514 3.5486z"/>
</g>
<g transform="translate(17.5058, 27.1075)">
<polygon stroke-linejoin="round" stroke-linecap="round" stroke-width="0.0941" fill="currentColor" stroke="currentColor" points="2.8867 0.0192 2.8867 0.4050 0.0471 0.1929 0.0471 -0.1929"/>
</g>
<g transform="translate(31.7592, 35.2442)">
<rect x="0.0000" y="-0.5651" width="0.6600" height="0.1451" ry="0.0446" fill="currentColor"/>
</g>
<g transform="translate(37.2008, 28.1075)">
<path stroke-width="0.0446" stroke-linejoin="round" stroke-linecap="round" stroke="currentColor" fill="currentColor" d="M0.6514 3.0486C1.6916 3.9832 3.9689 3.9832 5.0091 3.0486L5.0091 3.0486C3.9689 3.9163 1.6916 3.9163 0.6514 3.0486z"/>
</g>
<g transform="translate(35.4503, 26.8954)">
<polygon stroke-linejoin="round" stroke-linecap="round" stroke-width="0.0941" fill="currentColor" stroke="currentColor" points="3.0062 0.0192 3.0062 0.4050 0.0471 0.1929 0.0471 -0.1929"/>
</g>
<g transform="translate(44.4197, 28.1075)">
<path stroke-width="0.0446" stroke-linejoin="round" stroke-linecap="round" stroke="currentColor" fill="currentColor" d="M0.6514 2.5486C1.4013 3.2338 2.7627 3.2338 3.5126 2.5486L3.5126 2.5486C2.7627 3.1669 1.4013 3.1669 0.6514 2.5486z"/>
</g>
<g transform="translate(50.1421, 28.1075)">
<path stroke-width="0.0446" stroke-linejoin="round" stroke-linecap="round" stroke="currentColor" fill="currentColor" d="M0.6514 3.0486C1.4013 3.7338 2.7627 3.7338 3.5126 3.0486L3.5126 3.0486C2.7627 3.6669 1.4013 3.6669 0.6514 3.0486z"/>
</g>
<g transform="translate(53.0593, 35.2442)">
<rect x="0.0000" y="-0.5651" width="0.6600" height="0.1451" ry="0.0446" fill="currentColor"/>
</g>
<g transform="translate(42.7887, 26.8954)">
<polygon stroke-linejoin="round" stroke-linecap="round" stroke-width="0.0941" fill="currentColor" stroke="currentColor" points="8.6092 -0.1929 8.6092 0.1929 0.0471 0.1929 0.0471 -0.1929"/>
</g>
<g transform="translate(57.9537, 35.2442)">
<rect x="0.0000" y="-0.5651" width="0.6600" height="0.1451" ry="0.0446" fill="currentColor"/>
</g>
<g transform="translate(73.0571, 30.6075)">
<path transform="scale(0.0040, -0.0040)" d="M215 137c67 0 111 -37 111 -92c0 -90 -111 -182 -215 -182c-67 0 -111 37 -111 92c0 90 111 182 215 182z" fill="currentColor"/>
</g>
<g transform="translate(68.9902, 28.1075)">
<path transform="scale(0.0040, -0.0040)" d="M-8 78c0 59 125 83 125 182c0 25 -9 49 -26 69l-33 40c-3 4 -4 7 -4 11c0 9 9 17 18 17c4 0 8 -2 12 -6l150 -179c7 -9 11 -18 11 -26c0 -59 -125 -83 -125 -182c0 -25 8 -49 25 -69l82 -97c3 -4 4 -7 4 -11c0 -9 -8 -17 -17 -17c-10 0 -42 42 -106 42
c-19 0 -54 -1 -54 -66c0 -34 10 -73 27 -93c7 -9 -5 -20 -12 -11c-45 53 -93 147 -93 201c0 42 27 42 43 42c31 0 74 -11 113 -27l-129 154c-7 9 -11 18 -11 26z" fill="currentColor"/>
</g>
<g transform="translate(58.7259, 28.1075)">
<path stroke-width="0.0446" stroke-linejoin="round" stroke-linecap="round" stroke="currentColor" fill="currentColor" d="M0.6514 4.0486C1.9328 5.1695 5.2147 5.1695 6.4961 4.0486L6.4961 4.0486C5.2147 5.1025 1.9328 5.1025 0.6514 4.0486z"/>
</g>
<g transform="translate(72.3829, 35.2442)">
<text font-family="Gidole" font-size="2.4690" text-anchor="start" fill="currentColor">
<tspan>bu</tspan>
</text>
</g>
<g transform="translate(74.3236, 28.1075)">
<rect x="-0.0363" y="-1.0000" width="0.0725" height="3.3206" ry="0.0363" fill="currentColor"/>
</g>
<g transform="translate(77.4767, 30.1075)">
<path transform="scale(0.0040, -0.0040)" d="M215 137c67 0 111 -37 111 -92c0 -90 -111 -182 -215 -182c-67 0 -111 37 -111 92c0 90 111 182 215 182z" fill="currentColor"/>
</g>
<g transform="translate(76.8026, 35.2442)">
<text font-family="Gidole" font-size="2.4690" text-anchor="start" fill="currentColor">
<tspan>du</tspan>
</text>
</g>
<g transform="translate(78.7433, 28.1075)">
<rect x="-0.0363" y="-1.5000" width="0.0725" height="3.3206" ry="0.0363" fill="currentColor"/>
</g>
<g transform="translate(54.2336, 27.1075)">
<polygon stroke-linejoin="round" stroke-linecap="round" stroke-width="0.0941" fill="currentColor" stroke="currentColor" points="2.8867 0.0192 2.8867 0.4050 0.0471 0.1929 0.0471 -0.1929"/>
</g>
<g transform="translate(20.4033, 28.1075)">
<rect x="-0.0363" y="-0.7905" width="0.0725" height="3.1112" ry="0.0363" fill="currentColor"/>
</g>
<g transform="translate(13.1224, 28.1075)">
<rect x="-0.0363" y="-2.0000" width="0.0725" height="3.3206" ry="0.0363" fill="currentColor"/>
</g>
<g transform="translate(16.2755, 30.1075)">
<path transform="scale(0.0040, -0.0040)" d="M215 137c67 0 111 -37 111 -92c0 -90 -111 -182 -215 -182c-67 0 -111 37 -111 92c0 90 111 182 215 182z" fill="currentColor"/>
</g>
<g transform="translate(15.0189, 35.2442)">
<text font-family="Gidole" font-size="2.4690" text-anchor="start" fill="currentColor">
<tspan>Šad</tspan>
</text>
</g>
<g transform="translate(17.5421, 28.1075)">
<rect x="-0.0363" y="-0.9974" width="0.0725" height="2.8180" ry="0.0363" fill="currentColor"/>
</g>
<g transform="translate(19.1368, 30.6075)">
<path transform="scale(0.0040, -0.0040)" d="M215 137c67 0 111 -37 111 -92c0 -90 -111 -182 -215 -182c-67 0 -111 37 -111 92c0 90 111 182 215 182z" fill="currentColor"/>
</g>
<g transform="translate(19.1368, 35.2442)">
<text font-family="Gidole" font-size="2.4690" text-anchor="start" fill="currentColor">
<tspan>daj,</tspan>
</text>
</g>
<g transform="translate(11.5432, 35.2442)">
<text font-family="Gidole" font-size="2.4690" text-anchor="start" fill="currentColor">
<tspan>El</tspan>
</text>
</g>
<g transform="translate(23.4945, 30.6075)">
<path transform="scale(0.0040, -0.0040)" d="M312 64c0 23 -18 41 -41 41c-39 0 -201 -110 -228 -142c-7 -8 -10 -17 -10 -27c0 -23 18 -41 41 -41c39 0 201 110 228 142c7 8 10 17 10 27zM259 137c46 0 86 -17 86 -74c0 -26 -15 -112 -73 -151c-29 -20 -89 -49 -186 -49c-46 0 -86 17 -86 74c0 26 16 112 74 151
c29 20 88 49 185 49z" fill="currentColor"/>
</g>
<g transform="translate(24.8388, 28.1075)">
<rect x="-0.0363" y="-1.0000" width="0.0725" height="3.2470" ry="0.0363" fill="currentColor"/>
</g>
<g transform="translate(0.0000, 28.1075)">
<path stroke-width="0.0446" stroke-linejoin="round" stroke-linecap="round" stroke="currentColor" fill="currentColor" d="M3.8650 2.5486C4.5639 3.1881 5.7914 3.1881 6.4903 2.5486L6.4903 2.5486C5.7914 3.1211 4.5639 3.1211 3.8650 2.5486z"/>
</g>
<g transform="translate(0.8000, 29.1075)">
<path transform="scale(0.0040, -0.0040)" d="M646 2c0 -113 -74 -213 -180 -247c3 -34 5 -68 5 -102c0 -20 -1 -40 -2 -60c-7 -121 -91 -228 -209 -228c-108 0 -196 87 -196 196c0 58 53 104 112 104c54 0 95 -48 95 -104c0 -52 -43 -95 -95 -95c-10 0 -20 2 -29 6c26 -38 68 -63 116 -63h3c93 2 153 92 159 190
c1 19 2 37 2 56c0 30 -2 60 -4 90c-5 -1 -43 -8 -88 -8c-194 0 -333 180 -333 375c0 177 130 307 246 442c-31 98 -53 170 -53 347c0 115 55 223 148 290c7 5 16 4 22 -1c68 -80 134 -243 134 -357c0 -143 -85 -255 -178 -364c21 -68 40 -137 57 -206c1 0 5 1 11 1
c156 0 257 -129 257 -262zM462 -202c66 24 111 88 111 162c0 89 -65 178 -170 190c28 -135 50 -272 59 -352zM75 26c0 -145 141 -245 263 -245c1 0 46 0 81 6c-7 65 -27 206 -61 363c-79 -8 -124 -61 -124 -119c0 -43 25 -89 80 -121c5 -5 7 -11 7 -16
c0 -12 -10 -23 -22 -23c-16 0 -127 63 -127 188c0 89 58 175 161 198c-14 58 -29 116 -46 173c-106 -122 -212 -244 -212 -404zM406 1042c-99 -47 -162 -148 -162 -257c0 -49 13 -111 38 -191c79 97 144 199 144 324c0 33 0 63 -20 124z" fill="currentColor"/>
</g>
<g transform="translate(5.8000, 29.6075)">
<path transform="scale(0.0040, -0.0040)" d="M312 64c0 23 -18 41 -41 41c-39 0 -201 -110 -228 -142c-7 -8 -10 -17 -10 -27c0 -23 18 -41 41 -41c39 0 201 110 228 142c7 8 10 17 10 27zM259 137c46 0 86 -17 86 -74c0 -26 -15 -112 -73 -151c-29 -20 -89 -49 -186 -49c-46 0 -86 17 -86 74c0 26 16 112 74 151
c29 20 88 49 185 49z" fill="currentColor"/>
</g>
<g transform="translate(7.1443, 28.1075)">
<rect x="-0.0363" y="-2.0000" width="0.0725" height="3.2470" ry="0.0363" fill="currentColor"/>
</g>
<g transform="translate(11.8559, 29.6075)">
<path transform="scale(0.0040, -0.0040)" d="M215 137c67 0 111 -37 111 -92c0 -90 -111 -182 -215 -182c-67 0 -111 37 -111 92c0 90 111 182 215 182z" fill="currentColor"/>
</g>
<g transform="translate(41.5584, 30.1075)">
<path transform="scale(0.0040, -0.0040)" d="M215 137c67 0 111 -37 111 -92c0 -90 -111 -182 -215 -182c-67 0 -111 37 -111 92c0 90 111 182 215 182z" fill="currentColor"/>
</g>
<g transform="translate(35.4865, 28.1075)">
<rect x="-0.0363" y="-1.2096" width="0.0725" height="2.5302" ry="0.0363" fill="currentColor"/>
</g>
<g transform="translate(37.2008, 30.1075)">
<path transform="scale(0.0040, -0.0040)" d="M215 137c67 0 111 -37 111 -92c0 -90 -111 -182 -215 -182c-67 0 -111 37 -111 92c0 90 111 182 215 182z" fill="currentColor"/>
</g>
<g transform="translate(37.2008, 35.2442)">
<text font-family="Gidole" font-size="2.4690" text-anchor="start" fill="currentColor">
<tspan>ka</tspan>
</text>
</g>
<g transform="translate(38.4673, 28.1075)">
<rect x="-0.0363" y="-1.0025" width="0.0725" height="2.8232" ry="0.0363" fill="currentColor"/>
</g>
<g transform="translate(42.8250, 28.1075)">
<rect x="-0.0363" y="-1.2121" width="0.0725" height="3.0327" ry="0.0363" fill="currentColor"/>
</g>
<g transform="translate(29.8003, 29.1075)">
<path transform="scale(0.0040, -0.0040)" d="M215 137c67 0 111 -37 111 -92c0 -90 -111 -182 -215 -182c-67 0 -111 37 -111 92c0 90 111 182 215 182z" fill="currentColor"/>
</g>
<g transform="translate(29.3672, 35.2442)">
<text font-family="Gidole" font-size="2.4690" text-anchor="start" fill="currentColor">
<tspan>Er</tspan>
</text>
</g>
<g transform="translate(31.0669, 28.1075)">
<rect x="-0.0363" y="-2.5000" width="0.0725" height="3.3206" ry="0.0363" fill="currentColor"/>
</g>
<g transform="translate(34.2200, 29.6075)">
<path transform="scale(0.0040, -0.0040)" d="M215 137c67 0 111 -37 111 -92c0 -90 -111 -182 -215 -182c-67 0 -111 37 -111 92c0 90 111 182 215 182z" fill="currentColor"/>
</g>
<g transform="translate(32.6420, 35.2442)">
<text font-family="Gidole" font-size="2.4690" text-anchor="start" fill="currentColor">
<tspan>kam</tspan>
</text>
</g>
<g transform="translate(0.0000, 42.1075)">
<line stroke-linejoin="round" stroke-linecap="round" stroke-width="0.0558" stroke="currentColor" x1="0.0279" y1="0" x2="82.3177" y2="0"/>
</g>
<g transform="translate(0.0000, 41.1075)">
<line stroke-linejoin="round" stroke-linecap="round" stroke-width="0.0558" stroke="currentColor" x1="0.0279" y1="0" x2="82.3177" y2="0"/>
</g>
<g transform="translate(0.0000, 40.1075)">
<line stroke-linejoin="round" stroke-linecap="round" stroke-width="0.0558" stroke="currentColor" x1="0.0279" y1="0" x2="82.3177" y2="0"/>
</g>
<g transform="translate(0.0000, 39.1075)">
<line stroke-linejoin="round" stroke-linecap="round" stroke-width="0.0558" stroke="currentColor" x1="0.0279" y1="0" x2="82.3177" y2="0"/>
</g>
<g transform="translate(0.0000, 38.1075)">
<line stroke-linejoin="round" stroke-linecap="round" stroke-width="0.0558" stroke="currentColor" x1="0.0279" y1="0" x2="82.3177" y2="0"/>
</g>
<g transform="translate(30.5696, 40.1075)">
<rect x="0.0000" y="-2.0000" width="0.2120" height="4.0000" ry="0.0000" fill="currentColor"/>
</g>
<g transform="translate(53.9237, 40.1075)">
<rect x="0.0000" y="-2.0000" width="0.2120" height="4.0000" ry="0.0000" fill="currentColor"/>
</g>
<g transform="translate(67.7493, 40.1075)">
<rect x="0.0000" y="-2.0000" width="0.2120" height="4.0000" ry="0.0000" fill="currentColor"/>
</g>
<g transform="translate(81.6760, 40.1075)">
<rect x="0.0000" y="-2.0000" width="0.6696" height="4.0000" ry="0.0000" fill="currentColor"/>
</g>
<g transform="translate(81.1292, 40.1075)">
<rect x="0.0000" y="-2.0000" width="0.2120" height="4.0000" ry="0.0000" fill="currentColor"/>
</g>
<g transform="translate(0.0000, 43.1075)">
<rect x="55.9751" y="-0.0779" width="2.9185" height="0.1558" ry="0.0779" fill="currentColor"/>
</g>
<g transform="translate(0.0000, 43.1075)">
<rect x="49.7811" y="-0.0779" width="1.9542" height="0.1558" ry="0.0779" fill="currentColor"/>
</g>
<g transform="translate(0.0000, 43.1075)">
<rect x="46.1427" y="-0.0779" width="1.9542" height="0.1558" ry="0.0779" fill="currentColor"/>
</g>
<g transform="translate(0.0000, 43.1075)">
<rect x="40.1689" y="-0.0779" width="1.9542" height="0.1558" ry="0.0779" fill="currentColor"/>
</g>
<g transform="translate(0.0000, 43.1075)">
<rect x="22.7530" y="-0.0779" width="1.9542" height="0.1558" ry="0.0779" fill="currentColor"/>
</g>
<g transform="translate(56.4615, 43.1075)">
<path transform="scale(0.0040, -0.0040)" d="M211 111c-20 0 -68 -8 -68 -88c0 -100 89 -134 132 -134c20 0 68 8 68 88c0 100 -89 134 -132 134zM243 137c143 0 243 -65 243 -137s-100 -137 -243 -137s-243 65 -243 137s100 137 243 137z" fill="currentColor"/>
</g>
<g transform="translate(47.7350, 40.1075)">
<rect x="-0.0363" y="-0.0021" width="0.0725" height="3.3227" ry="0.0363" fill="currentColor"/>
</g>
<g transform="translate(40.4946, 43.1075)">
<path transform="scale(0.0040, -0.0040)" d="M215 137c67 0 111 -37 111 -92c0 -90 -111 -182 -215 -182c-67 0 -111 37 -111 92c0 90 111 182 215 182z" fill="currentColor"/>
</g>
<g transform="translate(40.1820, 47.2708)">
<text font-family="Gidole" font-size="2.4690" text-anchor="start" fill="currentColor">
<tspan>El</tspan>
</text>
</g>
<g transform="translate(41.7611, 40.1075)">
<rect x="-0.0363" y="-0.5000" width="0.0725" height="3.3206" ry="0.0363" fill="currentColor"/>
</g>
<g transform="translate(46.4685, 43.6075)">
<path transform="scale(0.0040, -0.0040)" d="M215 137c67 0 111 -37 111 -92c0 -90 -111 -182 -215 -182c-67 0 -111 37 -111 92c0 90 111 182 215 182z" fill="currentColor"/>
</g>
<g transform="translate(45.2118, 47.2708)">
<text font-family="Gidole" font-size="2.4690" text-anchor="start" fill="currentColor">
<tspan>Šad</tspan>
</text>
</g>
<g transform="translate(47.6987, 40.1075)">
<polygon stroke-linejoin="round" stroke-linecap="round" stroke-width="0.0941" fill="currentColor" stroke="currentColor" points="3.6638 -0.4050 3.6638 -0.0192 0.0471 0.1929 0.0471 -0.1929"/>
</g>
<g transform="translate(50.1068, 43.1075)">
<path transform="scale(0.0040, -0.0040)" d="M215 137c67 0 111 -37 111 -92c0 -90 -111 -182 -215 -182c-67 0 -111 37 -111 92c0 90 111 182 215 182z" fill="currentColor"/>
</g>
<g transform="translate(50.1068, 47.2708)">
<text font-family="Gidole" font-size="2.4690" text-anchor="start" fill="currentColor">
<tspan>daj.</tspan>
</text>
</g>
<g transform="translate(51.3733, 40.1075)">
<rect x="-0.0363" y="-0.2100" width="0.0725" height="3.0307" ry="0.0363" fill="currentColor"/>
</g>
<g transform="translate(49.2373, 47.2708)">
<rect x="0.0000" y="-0.5651" width="0.6600" height="0.1451" ry="0.0446" fill="currentColor"/>
</g>
<g transform="translate(9.8617, 47.2708)">
<rect x="0.0000" y="-0.5651" width="0.6600" height="0.1451" ry="0.0446" fill="currentColor"/>
</g>
<g transform="translate(20.7144, 47.2708)">
<rect x="0.0000" y="-0.5651" width="0.6600" height="0.1451" ry="0.0446" fill="currentColor"/>
</g>
<g transform="translate(26.7170, 40.1075)">
<path stroke-width="0.0446" stroke-linejoin="round" stroke-linecap="round" stroke="currentColor" fill="currentColor" d="M0.6514 3.5486C1.8695 4.6228 4.8627 4.6228 6.0808 3.5486L6.0808 3.5486C4.8627 4.5558 1.8695 4.5558 0.6514 3.5486z"/>
</g>
<g transform="translate(24.3089, 40.1075)">
<polygon stroke-linejoin="round" stroke-linecap="round" stroke-width="0.0941" fill="currentColor" stroke="currentColor" points="3.6638 -0.4050 3.6638 -0.0192 0.0471 0.1929 0.0471 -0.1929"/>
</g>
<g transform="translate(70.2871, 39.1075)">
<path transform="scale(0.0040, -0.0040)" d="M364 -156h-353c-6 0 -11 5 -11 11v134c0 6 5 11 11 11h353c6 0 11 -5 11 -11v-134c0 -6 -5 -11 -11 -11z" fill="currentColor"/>
</g>
<g transform="translate(50.1068, 40.1075)">
<path stroke-width="0.0446" stroke-linejoin="round" stroke-linecap="round" stroke="currentColor" fill="currentColor" d="M0.6514 4.0486C2.0513 5.2524 5.9277 5.2524 7.3276 4.0486L7.3276 4.0486C5.9277 5.1854 2.0513 5.1854 0.6514 4.0486z"/>
</g>
<g transform="translate(7.5488, 41.6075)">
<path transform="scale(0.0040, -0.0040)" d="M0 0c0 31 25 56 56 56s55 -25 55 -56s-24 -56 -55 -56s-56 25 -56 56z" fill="currentColor"/>
</g>
<g transform="translate(7.0665, 40.1075)">
<rect x="-0.0363" y="-2.0000" width="0.0725" height="3.3206" ry="0.0363" fill="currentColor"/>
</g>
<g transform="translate(13.1400, 42.1075)">
<path transform="scale(0.0040, -0.0040)" d="M215 137c67 0 111 -37 111 -92c0 -90 -111 -182 -215 -182c-67 0 -111 37 -111 92c0 90 111 182 215 182z" fill="currentColor"/>
</g>
<g transform="translate(12.2048, 47.2708)">
<text font-family="Gidole" font-size="2.4690" text-anchor="start" fill="currentColor">
<tspan>vat</tspan>
</text>
</g>
<g transform="translate(14.4066, 40.1075)">
<rect x="-0.0363" y="-1.5000" width="0.0725" height="3.3206" ry="0.0363" fill="currentColor"/>
</g>
<g transform="translate(4.7242, 47.2708)">
<text font-family="Gidole" font-size="2.4690" text-anchor="start" fill="currentColor">
<tspan>vzý</tspan>
</text>
</g>
<g transform="translate(14.4429, 38.6546)">
<path transform="scale(0.0040, -0.0040)" d="M0 0c0 -197 207 -335 207 -532c0 -71 -15 -141 -41 -207c-5 -8 -13 -12 -21 -12c-14 0 -27 11 -24 28c26 60 42 125 42 191c0 103 -93 207 -163 282h-18v250h18z" fill="currentColor"/>
</g>
<g transform="translate(17.1048, 42.6075)">
<path transform="scale(0.0040, -0.0040)" d="M215 137c67 0 111 -37 111 -92c0 -90 -111 -182 -215 -182c-67 0 -111 37 -111 92c0 90 111 182 215 182z" fill="currentColor"/>
</g>
<g transform="translate(15.8281, 47.2708)">
<text font-family="Gidole" font-size="2.4690" text-anchor="start" fill="currentColor">
<tspan>jmé</tspan>
</text>
</g>
<g transform="translate(0.8000, 41.1075)">
<path transform="scale(0.0040, -0.0040)" d="M646 2c0 -113 -74 -213 -180 -247c3 -34 5 -68 5 -102c0 -20 -1 -40 -2 -60c-7 -121 -91 -228 -209 -228c-108 0 -196 87 -196 196c0 58 53 104 112 104c54 0 95 -48 95 -104c0 -52 -43 -95 -95 -95c-10 0 -20 2 -29 6c26 -38 68 -63 116 -63h3c93 2 153 92 159 190
c1 19 2 37 2 56c0 30 -2 60 -4 90c-5 -1 -43 -8 -88 -8c-194 0 -333 180 -333 375c0 177 130 307 246 442c-31 98 -53 170 -53 347c0 115 55 223 148 290c7 5 16 4 22 -1c68 -80 134 -243 134 -357c0 -143 -85 -255 -178 -364c21 -68 40 -137 57 -206c1 0 5 1 11 1
c156 0 257 -129 257 -262zM462 -202c66 24 111 88 111 162c0 89 -65 178 -170 190c28 -135 50 -272 59 -352zM75 26c0 -145 141 -245 263 -245c1 0 46 0 81 6c-7 65 -27 206 -61 363c-79 -8 -124 -61 -124 -119c0 -43 25 -89 80 -121c5 -5 7 -11 7 -16
c0 -12 -10 -23 -22 -23c-16 0 -127 63 -127 188c0 89 58 175 161 198c-14 58 -29 116 -46 173c-106 -122 -212 -244 -212 -404zM406 1042c-99 -47 -162 -148 -162 -257c0 -49 13 -111 38 -191c79 97 144 199 144 324c0 33 0 63 -20 124z" fill="currentColor"/>
</g>
<g transform="translate(18.3713, 40.1075)">
<rect x="-0.0363" y="-1.0000" width="0.0725" height="3.3206" ry="0.0363" fill="currentColor"/>
</g>
<g transform="translate(5.8000, 41.6075)">
<path transform="scale(0.0040, -0.0040)" d="M215 137c67 0 111 -37 111 -92c0 -90 -111 -182 -215 -182c-67 0 -111 37 -111 92c0 90 111 182 215 182z" fill="currentColor"/>
</g>
<g transform="translate(33.4518, 40.1075)">
<rect x="-0.0363" y="-1.0000" width="0.0725" height="3.2470" ry="0.0363" fill="currentColor"/>
</g>
<g transform="translate(32.1075, 42.6075)">
<path transform="scale(0.0040, -0.0040)" d="M312 64c0 23 -18 41 -41 41c-39 0 -201 -110 -228 -142c-7 -8 -10 -17 -10 -27c0 -23 18 -41 41 -41c39 0 201 110 228 142c7 8 10 17 10 27zM259 137c46 0 86 -17 86 -74c0 -26 -15 -112 -73 -151c-29 -20 -89 -49 -186 -49c-46 0 -86 17 -86 74c0 26 16 112 74 151
c29 20 88 49 185 49z" fill="currentColor"/>
</g>
<g transform="translate(23.0787, 43.1075)">
<path transform="scale(0.0040, -0.0040)" d="M215 137c67 0 111 -37 111 -92c0 -90 -111 -182 -215 -182c-67 0 -111 37 -111 92c0 90 111 182 215 182z" fill="currentColor"/>
</g>
<g transform="translate(26.7170, 47.2708)">
<text font-family="Gidole" font-size="2.4690" text-anchor="start" fill="currentColor">
<tspan>Tvé,</tspan>
</text>
</g>
<g transform="translate(26.7170, 42.6075)">
<path transform="scale(0.0040, -0.0040)" d="M215 137c67 0 111 -37 111 -92c0 -90 -111 -182 -215 -182c-67 0 -111 37 -111 92c0 90 111 182 215 182z" fill="currentColor"/>
</g>
<g transform="translate(27.9835, 40.1075)">
<rect x="-0.0363" y="-0.2100" width="0.0725" height="2.5307" ry="0.0363" fill="currentColor"/>
</g>
<g transform="translate(24.3452, 40.1075)">
<rect x="-0.0363" y="-0.0021" width="0.0725" height="2.8227" ry="0.0363" fill="currentColor"/>
</g>
<g transform="translate(22.4045, 47.2708)">
<text font-family="Gidole" font-size="2.4690" text-anchor="start" fill="currentColor">
<tspan>no</tspan>
</text>
</g>
</svg>
