<svg xmlns="http://www.w3.org/2000/svg" xmlns:xlink="http://www.w3.org/1999/xlink" version="1.2"   viewBox="0.0000 -0.0000 82.3456 22.22475">
<style type="text/css">
<![CDATA[
tspan { white-space: pre; }
]]>
</style>
<g transform="translate(0.0000, 6.1075)">
<line stroke-linejoin="round" stroke-linecap="round" stroke-width="0.0558" stroke="currentColor" x1="0.0279" y1="0" x2="82.3177" y2="0"/>
</g>
<g transform="translate(0.0000, 5.1075)">
<line stroke-linejoin="round" stroke-linecap="round" stroke-width="0.0558" stroke="currentColor" x1="0.0279" y1="0" x2="82.3177" y2="0"/>
</g>
<g transform="translate(0.0000, 4.1075)">
<line stroke-linejoin="round" stroke-linecap="round" stroke-width="0.0558" stroke="currentColor" x1="0.0279" y1="0" x2="82.3177" y2="0"/>
</g>
<g transform="translate(0.0000, 3.1075)">
<line stroke-linejoin="round" stroke-linecap="round" stroke-width="0.0558" stroke="currentColor" x1="0.0279" y1="0" x2="82.3177" y2="0"/>
</g>
<g transform="translate(0.0000, 2.1075)">
<line stroke-linejoin="round" stroke-linecap="round" stroke-width="0.0558" stroke="currentColor" x1="0.0279" y1="0" x2="82.3177" y2="0"/>
</g>
<g transform="translate(35.3945, 4.1075)">
<rect x="0.0000" y="-2.0000" width="0.2120" height="4.0000" ry="0.0000" fill="currentColor"/>
</g>
<g transform="translate(79.3974, 4.1075)">
<rect x="0.0000" y="-2.0000" width="0.2120" height="4.0000" ry="0.0000" fill="currentColor"/>
</g>
<g transform="translate(63.1332, 4.1075)">
<rect x="0.0000" y="-2.0000" width="0.2120" height="4.0000" ry="0.0000" fill="currentColor"/>
</g>
<g transform="translate(70.3302, 4.6075)">
<path transform="scale(0.0040, -0.0040)" d="M0 0c0 31 25 56 56 56s55 -25 55 -56s-24 -56 -55 -56s-56 25 -56 56z" fill="currentColor"/>
</g>
<g transform="translate(66.3005, 9.6075)">
<text font-family="Noto Serif" font-size="2.4690" text-anchor="start" fill="currentColor">
<tspan>men,</tspan>
</text>
</g>
<g transform="translate(64.1755, 4.1075)">
<path transform="scale(0.0040, -0.0040)" d="M264 265c0 -34 72 -24 72 -125c0 -92 -80 -140 -180 -140c-79 0 -156 43 -156 115c0 36 29 65 65 65s65 -29 65 -65c0 -25 -40 -29 -40 -54c0 -28 34 -36 66 -36c48 0 61 59 61 115v22c0 50 -3 88 -49 88h-78c-10 0 -15 7 -15 15s5 15 15 15h78c46 0 49 40 49 92v14
c0 53 -18 89 -66 89c-29 0 -59 -8 -59 -33c0 -22 36 -25 36 -47c0 -31 -26 -57 -57 -57s-57 26 -57 57c0 65 66 105 137 105c92 0 170 -33 170 -114c0 -119 -57 -80 -57 -121z" fill="currentColor"/>
</g>
<g transform="translate(64.0952, 6.1074)">
<path transform="scale(0.0040, -0.0040)" d="M262 290c25 30 43 62 43 100c0 53 -55 85 -113 85c-45 0 -71 -35 -71 -69c0 -20 9 -40 30 -52zM295 271c24 -14 80 -55 80 -126c0 -74 -66 -145 -190 -145c-95 0 -185 53 -185 140c0 50 36 88 72 123c-37 28 -55 66 -55 103c0 68 60 134 175 134c80 0 159 -38 159 -110
c0 -46 -25 -85 -56 -119zM104 243c-31 -29 -58 -61 -58 -103c0 -69 66 -115 139 -115c54 0 85 41 85 81c0 24 -11 47 -35 61z" fill="currentColor"/>
</g>
<g transform="translate(68.5814, 4.6075)">
<path transform="scale(0.0040, -0.0040)" d="M215 137c67 0 111 -37 111 -92c0 -90 -111 -182 -215 -182c-67 0 -111 37 -111 92c0 90 111 182 215 182z" fill="currentColor"/>
</g>
<g transform="translate(69.8480, 4.1075)">
<rect x="-0.0363" y="-3.0000" width="0.0725" height="3.3206" ry="0.0363" fill="currentColor"/>
</g>
<g transform="translate(53.5481, 4.1075)">
<rect x="-0.0363" y="-2.5000" width="0.0725" height="3.3206" ry="0.0363" fill="currentColor"/>
</g>
<g transform="translate(54.0303, 4.6075)">
<path transform="scale(0.0040, -0.0040)" d="M0 0c0 31 25 56 56 56s55 -25 55 -56s-24 -56 -55 -56s-56 25 -56 56z" fill="currentColor"/>
</g>
<g transform="translate(47.3828, 4.6075)">
<path transform="scale(0.0040, -0.0040)" d="M215 137c67 0 111 -37 111 -92c0 -90 -111 -182 -215 -182c-67 0 -111 37 -111 92c0 90 111 182 215 182z" fill="currentColor"/>
</g>
<g transform="translate(37.5451, 6.3196)">
<polygon stroke-linejoin="round" stroke-linecap="round" stroke-width="0.0941" fill="currentColor" stroke="currentColor" points="9.8632 0.3829 9.8632 0.7687 0.0471 0.1929 0.0471 -0.1929"/>
</g>
<g transform="translate(42.4640, 4.1075)">
<path transform="scale(0.0040, -0.0040)" d="M215 137c67 0 111 -37 111 -92c0 -90 -111 -182 -215 -182c-67 0 -111 37 -111 92c0 90 111 182 215 182z" fill="currentColor"/>
</g>
<g transform="translate(42.5002, 4.1075)">
<rect x="-0.0363" y="0.1794" width="0.0725" height="2.3206" ry="0.0363" fill="currentColor"/>
</g>
<g transform="translate(52.2300, 9.6075)">
<text font-family="Noto Serif" font-size="2.4690" text-anchor="start" fill="currentColor">
<tspan>a</tspan>
</text>
</g>
<g transform="translate(45.1019, 9.6075)">
<text font-family="Noto Serif" font-size="2.4690" text-anchor="start" fill="currentColor">
<tspan>men,</tspan>
</text>
</g>
<g transform="translate(47.4191, 4.1075)">
<rect x="-0.0363" y="0.6794" width="0.0725" height="2.1064" ry="0.0363" fill="currentColor"/>
</g>
<g transform="translate(52.2815, 5.1075)">
<path transform="scale(0.0040, -0.0040)" d="M215 137c67 0 111 -37 111 -92c0 -90 -111 -182 -215 -182c-67 0 -111 37 -111 92c0 90 111 182 215 182z" fill="currentColor"/>
</g>
<g transform="translate(11.7827, 9.6075)">
<rect x="0.0000" y="-0.5651" width="0.6600" height="0.1451" ry="0.0446" fill="currentColor"/>
</g>
<g transform="translate(21.4151, 9.6075)">
<rect x="0.0000" y="-0.5651" width="0.6600" height="0.1451" ry="0.0446" fill="currentColor"/>
</g>
<g transform="translate(11.2665, 1.8954)">
<polygon stroke-linejoin="round" stroke-linecap="round" stroke-width="0.0941" fill="currentColor" stroke="currentColor" points="9.8632 -0.7687 9.8632 -0.3829 0.0471 0.1929 0.0471 -0.1929"/>
</g>
<g transform="translate(37.5451, 4.1075)">
<path stroke-width="0.0446" stroke-linejoin="round" stroke-linecap="round" stroke="currentColor" fill="currentColor" d="M0.6822 -1.6122C1.8894 -2.7824 4.5377 -2.5940 5.6011 -1.2622L5.6011 -1.2622C4.5330 -2.5272 1.8846 -2.7157 0.6822 -1.6122z"/>
</g>
<g transform="translate(41.6965, 9.6075)">
<rect x="0.0000" y="-0.5651" width="0.6600" height="0.1451" ry="0.0446" fill="currentColor"/>
</g>
<g transform="translate(59.6382, 9.6075)">
<rect x="0.0000" y="-0.5651" width="0.6600" height="0.1451" ry="0.0446" fill="currentColor"/>
</g>
<g transform="translate(80.4196, 4.1075)">
<path transform="scale(0.0040, -0.0040)" d="M172 259c-49 0 -52 -40 -52 -93v-24v-24c0 -53 3 -93 52 -93c57 0 59 51 59 117s-2 117 -59 117zM120 268c15 10 33 15 52 15c102 0 171 -45 171 -141s-69 -142 -171 -142c-112 0 -172 124 -172 250c0 129 74 250 192 250c71 0 137 -40 137 -105c0 -36 -29 -65 -65 -65
s-65 29 -65 65c0 23 39 26 39 49c0 21 -23 31 -46 31c-64 0 -74 -62 -74 -134c0 -24 2 -49 2 -73z" fill="currentColor"/>
</g>
<g transform="translate(80.3594, 6.1074)">
<path transform="scale(0.0040, -0.0040)" d="M262 290c25 30 43 62 43 100c0 53 -55 85 -113 85c-45 0 -71 -35 -71 -69c0 -20 9 -40 30 -52zM295 271c24 -14 80 -55 80 -126c0 -74 -66 -145 -190 -145c-95 0 -185 53 -185 140c0 50 36 88 72 123c-37 28 -55 66 -55 103c0 68 60 134 175 134c80 0 159 -38 159 -110
c0 -46 -25 -85 -56 -119zM104 243c-31 -29 -58 -61 -58 -103c0 -69 66 -115 139 -115c54 0 85 41 85 81c0 24 -11 47 -35 61z" fill="currentColor"/>
</g>
<g transform="translate(12.6742, 9.6075)">
<text font-family="Noto Serif" font-size="2.4690" text-anchor="start" fill="currentColor">
<tspan>men,</tspan>
</text>
</g>
<g transform="translate(14.9551, 4.6075)">
<path transform="scale(0.0040, -0.0040)" d="M215 137c67 0 111 -37 111 -92c0 -90 -111 -182 -215 -182c-67 0 -111 37 -111 92c0 90 111 182 215 182z" fill="currentColor"/>
</g>
<g transform="translate(16.2216, 4.1075)">
<rect x="-0.0363" y="-2.5000" width="0.0725" height="2.8206" ry="0.0363" fill="currentColor"/>
</g>
<g transform="translate(19.8224, 9.6075)">
<text font-family="Noto Serif" font-size="2.4690" text-anchor="start" fill="currentColor">
<tspan>a</tspan>
</text>
</g>
<g transform="translate(21.1405, 4.1075)">
<rect x="-0.0363" y="-2.7858" width="0.0725" height="2.6064" ry="0.0363" fill="currentColor"/>
</g>
<g transform="translate(4.3000, 2.1075)">
<path transform="scale(0.0040, -0.0040)" d="M0 117c0 9 6 18 15 21l43 16v157c0 11 8 19 19 19s20 -8 20 -19v-142l81 30v156c0 11 9 20 20 20s19 -9 19 -20v-142l28 11c3 1 5 1 8 1c12 0 22 -10 22 -23v-57c0 -9 -6 -18 -15 -21l-43 -16v-157l28 10c3 1 5 1 8 1c12 0 22 -9 22 -22v-57c0 -9 -6 -18 -15 -21l-43 -16
v-157c0 -11 -8 -19 -19 -19s-20 8 -20 19v142l-81 -30v-156c0 -11 -9 -20 -20 -20s-19 9 -19 20v142l-28 -11c-3 -1 -5 -1 -8 -1c-12 0 -22 10 -22 23v57c0 9 6 18 15 21l43 16v157l-28 -10c-3 -1 -5 -1 -8 -1c-12 0 -22 9 -22 22v57zM178 94l-81 -30v-158l81 30v158z" fill="currentColor"/>
</g>
<g transform="translate(10.0362, 5.1075)">
<path transform="scale(0.0040, -0.0040)" d="M215 137c67 0 111 -37 111 -92c0 -90 -111 -182 -215 -182c-67 0 -111 37 -111 92c0 90 111 182 215 182z" fill="currentColor"/>
</g>
<g transform="translate(0.8000, 5.1075)">
<path transform="scale(0.0040, -0.0040)" d="M646 2c0 -113 -74 -213 -180 -247c3 -34 5 -68 5 -102c0 -20 -1 -40 -2 -60c-7 -121 -91 -228 -209 -228c-108 0 -196 87 -196 196c0 58 53 104 112 104c54 0 95 -48 95 -104c0 -52 -43 -95 -95 -95c-10 0 -20 2 -29 6c26 -38 68 -63 116 -63h3c93 2 153 92 159 190
c1 19 2 37 2 56c0 30 -2 60 -4 90c-5 -1 -43 -8 -88 -8c-194 0 -333 180 -333 375c0 177 130 307 246 442c-31 98 -53 170 -53 347c0 115 55 223 148 290c7 5 16 4 22 -1c68 -80 134 -243 134 -357c0 -143 -85 -255 -178 -364c21 -68 40 -137 57 -206c1 0 5 1 11 1
c156 0 257 -129 257 -262zM462 -202c66 24 111 88 111 162c0 89 -65 178 -170 190c28 -135 50 -272 59 -352zM75 26c0 -145 141 -245 263 -245c1 0 46 0 81 6c-7 65 -27 206 -61 363c-79 -8 -124 -61 -124 -119c0 -43 25 -89 80 -121c5 -5 7 -11 7 -16
c0 -12 -10 -23 -22 -23c-16 0 -127 63 -127 188c0 89 58 175 161 198c-14 58 -29 116 -46 173c-106 -122 -212 -244 -212 -404zM406 1042c-99 -47 -162 -148 -162 -257c0 -49 13 -111 38 -191c79 97 144 199 144 324c0 33 0 63 -20 124z" fill="currentColor"/>
</g>
<g transform="translate(19.8740, 4.1075)">
<path transform="scale(0.0040, -0.0040)" d="M215 137c67 0 111 -37 111 -92c0 -90 -111 -182 -215 -182c-67 0 -111 37 -111 92c0 90 111 182 215 182z" fill="currentColor"/>
</g>
<g transform="translate(6.6103, 4.1075)">
<path transform="scale(0.0040, -0.0040)" d="M172 259c-49 0 -52 -40 -52 -93v-24v-24c0 -53 3 -93 52 -93c57 0 59 51 59 117s-2 117 -59 117zM120 268c15 10 33 15 52 15c102 0 171 -45 171 -141s-69 -142 -171 -142c-112 0 -172 124 -172 250c0 129 74 250 192 250c71 0 137 -40 137 -105c0 -36 -29 -65 -65 -65
s-65 29 -65 65c0 23 39 26 39 49c0 21 -23 31 -46 31c-64 0 -74 -62 -74 -134c0 -24 2 -49 2 -73z" fill="currentColor"/>
</g>
<g transform="translate(6.5500, 6.1074)">
<path transform="scale(0.0040, -0.0040)" d="M262 290c25 30 43 62 43 100c0 53 -55 85 -113 85c-45 0 -71 -35 -71 -69c0 -20 9 -40 30 -52zM295 271c24 -14 80 -55 80 -126c0 -74 -66 -145 -190 -145c-95 0 -185 53 -185 140c0 50 36 88 72 123c-37 28 -55 66 -55 103c0 68 60 134 175 134c80 0 159 -38 159 -110
c0 -46 -25 -85 -56 -119zM104 243c-31 -29 -58 -61 -58 -103c0 -69 66 -115 139 -115c54 0 85 41 85 81c0 24 -11 47 -35 61z" fill="currentColor"/>
</g>
<g transform="translate(9.8240, 9.6075)">
<text font-family="Noto Serif" font-size="2.4690" text-anchor="start" fill="currentColor">
<tspan>A</tspan>
</text>
</g>
<g transform="translate(6.1729, 9.6075)">
<text font-family="serif" font-weight="bold" font-size="2.4690" text-anchor="start" fill="currentColor">
<tspan>V. </tspan>
</text>
</g>
<g transform="translate(11.3028, 4.1075)">
<rect x="-0.0363" y="-2.2142" width="0.0725" height="3.0348" ry="0.0363" fill="currentColor"/>
</g>
<g transform="translate(37.5814, 4.1075)">
<rect x="-0.0363" y="-0.3206" width="0.0725" height="2.5348" ry="0.0363" fill="currentColor"/>
</g>
<g transform="translate(37.5451, 9.6075)">
<text font-family="Noto Serif" font-size="2.4690" text-anchor="start" fill="currentColor">
<tspan>a</tspan>
</text>
</g>
<g transform="translate(37.5451, 3.6075)">
<path transform="scale(0.0040, -0.0040)" d="M215 137c67 0 111 -37 111 -92c0 -90 -111 -182 -215 -182c-67 0 -111 37 -111 92c0 90 111 182 215 182z" fill="currentColor"/>
</g>
<g transform="translate(25.8094, 4.1075)">
<rect x="-0.0363" y="-2.5000" width="0.0725" height="3.3206" ry="0.0363" fill="currentColor"/>
</g>
<g transform="translate(26.2916, 4.6075)">
<path transform="scale(0.0040, -0.0040)" d="M0 0c0 31 25 56 56 56s55 -25 55 -56s-24 -56 -55 -56s-56 25 -56 56z" fill="currentColor"/>
</g>
<g transform="translate(22.2619, 9.6075)">
<text font-family="Noto Serif" font-size="2.4690" text-anchor="start" fill="currentColor">
<tspan>men,</tspan>
</text>
</g>
<g transform="translate(24.5428, 5.1075)">
<path transform="scale(0.0040, -0.0040)" d="M215 137c67 0 111 -37 111 -92c0 -90 -111 -182 -215 -182c-67 0 -111 37 -111 92c0 90 111 182 215 182z" fill="currentColor"/>
</g>
<g transform="translate(0.0000, 18.1075)">
<line stroke-linejoin="round" stroke-linecap="round" stroke-width="0.0558" stroke="currentColor" x1="0.0279" y1="0" x2="82.3177" y2="0"/>
</g>
<g transform="translate(0.0000, 17.1075)">
<line stroke-linejoin="round" stroke-linecap="round" stroke-width="0.0558" stroke="currentColor" x1="0.0279" y1="0" x2="82.3177" y2="0"/>
</g>
<g transform="translate(0.0000, 16.1075)">
<line stroke-linejoin="round" stroke-linecap="round" stroke-width="0.0558" stroke="currentColor" x1="0.0279" y1="0" x2="82.3177" y2="0"/>
</g>
<g transform="translate(0.0000, 15.1075)">
<line stroke-linejoin="round" stroke-linecap="round" stroke-width="0.0558" stroke="currentColor" x1="0.0279" y1="0" x2="82.3177" y2="0"/>
</g>
<g transform="translate(0.0000, 14.1075)">
<line stroke-linejoin="round" stroke-linecap="round" stroke-width="0.0558" stroke="currentColor" x1="0.0279" y1="0" x2="82.3177" y2="0"/>
</g>
<g transform="translate(32.6269, 16.1075)">
<rect x="0.0000" y="-2.0000" width="0.2120" height="4.0000" ry="0.0000" fill="currentColor"/>
</g>
<g transform="translate(82.1336, 16.1075)">
<rect x="0.0000" y="-2.0000" width="0.2120" height="4.0000" ry="0.0000" fill="currentColor"/>
</g>
<g transform="translate(81.5868, 16.1075)">
<rect x="0.0000" y="-2.0000" width="0.2120" height="4.0000" ry="0.0000" fill="currentColor"/>
</g>
<g transform="translate(61.3689, 16.1075)">
<rect x="0.0000" y="-2.0000" width="0.2120" height="4.0000" ry="0.0000" fill="currentColor"/>
</g>
<g transform="translate(56.7084, 17.6075)">
<path transform="scale(0.0040, -0.0040)" d="M215 137c67 0 111 -37 111 -92c0 -90 -111 -182 -215 -182c-67 0 -111 37 -111 92c0 90 111 182 215 182z" fill="currentColor"/>
</g>
<g transform="translate(57.9749, 16.1075)">
<rect x="-0.0363" y="-2.2144" width="0.0725" height="3.5351" ry="0.0363" fill="currentColor"/>
</g>
<g transform="translate(64.4677, 16.1075)">
<rect x="-0.0363" y="-2.5000" width="0.0725" height="3.3206" ry="0.0363" fill="currentColor"/>
</g>
<g transform="translate(63.2011, 17.1075)">
<path transform="scale(0.0040, -0.0040)" d="M215 137c67 0 111 -37 111 -92c0 -90 -111 -182 -215 -182c-67 0 -111 37 -111 92c0 90 111 182 215 182z" fill="currentColor"/>
</g>
<g transform="translate(60.9202, 21.6075)">
<text font-family="Noto Serif" font-size="2.4690" text-anchor="start" fill="currentColor">
<tspan>men.</tspan>
</text>
</g>
<g transform="translate(64.9499, 16.6075)">
<path transform="scale(0.0040, -0.0040)" d="M0 0c0 31 25 56 56 56s55 -25 55 -56s-24 -56 -55 -56s-56 25 -56 56z" fill="currentColor"/>
</g>
<g transform="translate(47.8617, 16.6075)">
<path transform="scale(0.0040, -0.0040)" d="M215 137c67 0 111 -37 111 -92c0 -90 -111 -182 -215 -182c-67 0 -111 37 -111 92c0 90 111 182 215 182z" fill="currentColor"/>
</g>
<g transform="translate(49.0920, 13.3196)">
<polygon stroke-linejoin="round" stroke-linecap="round" stroke-width="0.0941" fill="currentColor" stroke="currentColor" points="8.8721 0.3829 8.8721 0.7687 0.0471 0.1929 0.0471 -0.1929"/>
</g>
<g transform="translate(43.4384, 16.6075)">
<path transform="scale(0.0040, -0.0040)" d="M215 137c67 0 111 -37 111 -92c0 -90 -111 -182 -215 -182c-67 0 -111 37 -111 92c0 90 111 182 215 182z" fill="currentColor"/>
</g>
<g transform="translate(41.1575, 21.6075)">
<text font-family="Noto Serif" font-size="2.4690" text-anchor="start" fill="currentColor">
<tspan>men,</tspan>
</text>
</g>
<g transform="translate(43.4747, 16.1075)">
<rect x="-0.0363" y="0.6794" width="0.0725" height="2.1062" ry="0.0363" fill="currentColor"/>
</g>
<g transform="translate(47.8617, 21.6075)">
<text font-family="Noto Serif" font-size="2.4690" text-anchor="start" fill="currentColor">
<tspan>a</tspan>
</text>
</g>
<g transform="translate(49.1283, 16.1075)">
<rect x="-0.0363" y="-2.7856" width="0.0725" height="3.1062" ry="0.0363" fill="currentColor"/>
</g>
<g transform="translate(52.2851, 17.1075)">
<path transform="scale(0.0040, -0.0040)" d="M215 137c67 0 111 -37 111 -92c0 -90 -111 -182 -215 -182c-67 0 -111 37 -111 92c0 90 111 182 215 182z" fill="currentColor"/>
</g>
<g transform="translate(53.5516, 16.1075)">
<rect x="-0.0363" y="-2.5000" width="0.0725" height="3.3206" ry="0.0363" fill="currentColor"/>
</g>
<g transform="translate(20.3072, 21.6075)">
<rect x="0.0000" y="-0.5651" width="0.3981" height="0.1451" ry="0.0446" fill="currentColor"/>
</g>
<g transform="translate(11.6213, 21.6075)">
<rect x="0.0000" y="-0.5651" width="0.4874" height="0.1451" ry="0.0446" fill="currentColor"/>
</g>
<g transform="translate(11.2665, 13.8954)">
<polygon stroke-linejoin="round" stroke-linecap="round" stroke-width="0.0941" fill="currentColor" stroke="currentColor" points="8.8721 -0.7687 8.8721 -0.3829 0.0471 0.1929 0.0471 -0.1929"/>
</g>
<g transform="translate(34.5918, 16.1075)">
<path stroke-width="0.0446" stroke-linejoin="round" stroke-linecap="round" stroke="currentColor" fill="currentColor" d="M0.6857 -1.6258C1.8111 -2.7760 4.1328 -2.5923 5.1090 -1.2758L5.1090 -1.2758C4.1275 -2.5255 1.8058 -2.7092 0.6857 -1.6258z"/>
</g>
<g transform="translate(38.2476, 21.6075)">
<rect x="0.0000" y="-0.5651" width="0.6600" height="0.1451" ry="0.0446" fill="currentColor"/>
</g>
<g transform="translate(47.8617, 16.1075)">
<path stroke-width="0.0446" stroke-linejoin="round" stroke-linecap="round" stroke="currentColor" fill="currentColor" d="M0.6026 1.5486C2.1096 3.0996 7.6341 3.7241 9.4493 2.5486L9.4493 2.5486C7.6416 3.6575 2.1172 3.0331 0.6026 1.5486z"/>
</g>
<g transform="translate(54.7639, 21.6075)">
<rect x="0.0000" y="-0.5651" width="0.6600" height="0.1451" ry="0.0446" fill="currentColor"/>
</g>
<g transform="translate(34.5918, 18.3196)">
<polygon stroke-linejoin="round" stroke-linecap="round" stroke-width="0.0941" fill="currentColor" stroke="currentColor" points="8.8721 0.3829 8.8721 0.7687 0.0471 0.1929 0.0471 -0.1929"/>
</g>
<g transform="translate(72.5703, 16.1075)">
<path transform="scale(0.0040, -0.0040)" d="M-8 78c0 59 125 83 125 182c0 25 -9 49 -26 69l-33 40c-3 4 -4 7 -4 11c0 9 9 17 18 17c4 0 8 -2 12 -6l150 -179c7 -9 11 -18 11 -26c0 -59 -125 -83 -125 -182c0 -25 8 -49 25 -69l82 -97c3 -4 4 -7 4 -11c0 -9 -8 -17 -17 -17c-10 0 -42 42 -106 42
c-19 0 -54 -1 -54 -66c0 -34 10 -73 27 -93c7 -9 -5 -20 -12 -11c-45 53 -93 147 -93 201c0 42 27 42 43 42c31 0 74 -11 113 -27l-129 154c-7 9 -11 18 -11 26z" fill="currentColor"/>
</g>
<g transform="translate(73.9663, 15.6075)">
<path transform="scale(0.0040, -0.0040)" d="M0 0c0 31 25 56 56 56s55 -25 55 -56s-24 -56 -55 -56s-56 25 -56 56z" fill="currentColor"/>
</g>
<g transform="translate(15.7261, 16.1075)">
<rect x="-0.0363" y="-2.5000" width="0.0725" height="2.8206" ry="0.0363" fill="currentColor"/>
</g>
<g transform="translate(9.8240, 21.6075)">
<text font-family="Noto Serif" font-size="2.4690" text-anchor="start" fill="currentColor">
<tspan>A</tspan>
</text>
</g>
<g transform="translate(5.6909, 21.6075)">
<text font-family="serif" font-weight="bold" font-size="2.4690" text-anchor="start" fill="currentColor">
<tspan>O. </tspan>
</text>
</g>
<g transform="translate(11.3028, 16.1075)">
<rect x="-0.0363" y="-2.2144" width="0.0725" height="3.0351" ry="0.0363" fill="currentColor"/>
</g>
<g transform="translate(14.4596, 16.6075)">
<path transform="scale(0.0040, -0.0040)" d="M215 137c67 0 111 -37 111 -92c0 -90 -111 -182 -215 -182c-67 0 -111 37 -111 92c0 90 111 182 215 182z" fill="currentColor"/>
</g>
<g transform="translate(12.1787, 21.6075)">
<text font-family="Noto Serif" font-size="2.4690" text-anchor="start" fill="currentColor">
<tspan>men,</tspan>
</text>
</g>
<g transform="translate(10.0362, 17.1075)">
<path transform="scale(0.0040, -0.0040)" d="M215 137c67 0 111 -37 111 -92c0 -90 -111 -182 -215 -182c-67 0 -111 37 -111 92c0 90 111 182 215 182z" fill="currentColor"/>
</g>
<g transform="translate(18.8829, 16.1075)">
<path transform="scale(0.0040, -0.0040)" d="M215 137c67 0 111 -37 111 -92c0 -90 -111 -182 -215 -182c-67 0 -111 37 -111 92c0 90 111 182 215 182z" fill="currentColor"/>
</g>
<g transform="translate(18.8313, 21.6075)">
<text font-family="Noto Serif" font-size="2.4690" text-anchor="start" fill="currentColor">
<tspan>a</tspan>
</text>
</g>
<g transform="translate(6.6103, 16.1075)">
<path transform="scale(0.0040, -0.0040)" d="M172 259c-49 0 -52 -40 -52 -93v-24v-24c0 -53 3 -93 52 -93c57 0 59 51 59 117s-2 117 -59 117zM120 268c15 10 33 15 52 15c102 0 171 -45 171 -141s-69 -142 -171 -142c-112 0 -172 124 -172 250c0 129 74 250 192 250c71 0 137 -40 137 -105c0 -36 -29 -65 -65 -65
s-65 29 -65 65c0 23 39 26 39 49c0 21 -23 31 -46 31c-64 0 -74 -62 -74 -134c0 -24 2 -49 2 -73z" fill="currentColor"/>
</g>
<g transform="translate(6.5500, 18.1074)">
<path transform="scale(0.0040, -0.0040)" d="M262 290c25 30 43 62 43 100c0 53 -55 85 -113 85c-45 0 -71 -35 -71 -69c0 -20 9 -40 30 -52zM295 271c24 -14 80 -55 80 -126c0 -74 -66 -145 -190 -145c-95 0 -185 53 -185 140c0 50 36 88 72 123c-37 28 -55 66 -55 103c0 68 60 134 175 134c80 0 159 -38 159 -110
c0 -46 -25 -85 -56 -119zM104 243c-31 -29 -58 -61 -58 -103c0 -69 66 -115 139 -115c54 0 85 41 85 81c0 24 -11 47 -35 61z" fill="currentColor"/>
</g>
<g transform="translate(0.8000, 17.1075)">
<path transform="scale(0.0040, -0.0040)" d="M646 2c0 -113 -74 -213 -180 -247c3 -34 5 -68 5 -102c0 -20 -1 -40 -2 -60c-7 -121 -91 -228 -209 -228c-108 0 -196 87 -196 196c0 58 53 104 112 104c54 0 95 -48 95 -104c0 -52 -43 -95 -95 -95c-10 0 -20 2 -29 6c26 -38 68 -63 116 -63h3c93 2 153 92 159 190
c1 19 2 37 2 56c0 30 -2 60 -4 90c-5 -1 -43 -8 -88 -8c-194 0 -333 180 -333 375c0 177 130 307 246 442c-31 98 -53 170 -53 347c0 115 55 223 148 290c7 5 16 4 22 -1c68 -80 134 -243 134 -357c0 -143 -85 -255 -178 -364c21 -68 40 -137 57 -206c1 0 5 1 11 1
c156 0 257 -129 257 -262zM462 -202c66 24 111 88 111 162c0 89 -65 178 -170 190c28 -135 50 -272 59 -352zM75 26c0 -145 141 -245 263 -245c1 0 46 0 81 6c-7 65 -27 206 -61 363c-79 -8 -124 -61 -124 -119c0 -43 25 -89 80 -121c5 -5 7 -11 7 -16
c0 -12 -10 -23 -22 -23c-16 0 -127 63 -127 188c0 89 58 175 161 198c-14 58 -29 116 -46 173c-106 -122 -212 -244 -212 -404zM406 1042c-99 -47 -162 -148 -162 -257c0 -49 13 -111 38 -191c79 97 144 199 144 324c0 33 0 63 -20 124z" fill="currentColor"/>
</g>
<g transform="translate(4.3000, 14.1075)">
<path transform="scale(0.0040, -0.0040)" d="M0 117c0 9 6 18 15 21l43 16v157c0 11 8 19 19 19s20 -8 20 -19v-142l81 30v156c0 11 9 20 20 20s19 -9 19 -20v-142l28 11c3 1 5 1 8 1c12 0 22 -10 22 -23v-57c0 -9 -6 -18 -15 -21l-43 -16v-157l28 10c3 1 5 1 8 1c12 0 22 -9 22 -22v-57c0 -9 -6 -18 -15 -21l-43 -16
v-157c0 -11 -8 -19 -19 -19s-20 8 -20 19v142l-81 -30v-156c0 -11 -9 -20 -20 -20s-19 9 -19 20v142l-28 -11c-3 -1 -5 -1 -8 -1c-12 0 -22 10 -22 23v57c0 9 6 18 15 21l43 16v157l-28 -10c-3 -1 -5 -1 -8 -1c-12 0 -22 9 -22 22v57zM178 94l-81 -30v-158l81 30v158z" fill="currentColor"/>
</g>
<g transform="translate(20.1494, 16.1075)">
<rect x="-0.0363" y="-2.7856" width="0.0725" height="2.6062" ry="0.0363" fill="currentColor"/>
</g>
<g transform="translate(34.6280, 16.1075)">
<rect x="-0.0363" y="-0.3206" width="0.0725" height="2.5351" ry="0.0363" fill="currentColor"/>
</g>
<g transform="translate(34.5918, 21.6075)">
<text font-family="Noto Serif" font-size="2.4690" text-anchor="start" fill="currentColor">
<tspan>a</tspan>
</text>
</g>
<g transform="translate(39.0151, 16.1075)">
<path transform="scale(0.0040, -0.0040)" d="M215 137c67 0 111 -37 111 -92c0 -90 -111 -182 -215 -182c-67 0 -111 37 -111 92c0 90 111 182 215 182z" fill="currentColor"/>
</g>
<g transform="translate(39.0514, 16.1075)">
<rect x="-0.0363" y="0.1794" width="0.0725" height="2.3206" ry="0.0363" fill="currentColor"/>
</g>
<g transform="translate(24.3228, 16.1075)">
<rect x="-0.0363" y="-2.5000" width="0.0725" height="3.3206" ry="0.0363" fill="currentColor"/>
</g>
<g transform="translate(23.0562, 17.1075)">
<path transform="scale(0.0040, -0.0040)" d="M215 137c67 0 111 -37 111 -92c0 -90 -111 -182 -215 -182c-67 0 -111 37 -111 92c0 90 111 182 215 182z" fill="currentColor"/>
</g>
<g transform="translate(20.7753, 21.6075)">
<text font-family="Noto Serif" font-size="2.4690" text-anchor="start" fill="currentColor">
<tspan>men,</tspan>
</text>
</g>
<g transform="translate(24.8050, 16.6075)">
<path transform="scale(0.0040, -0.0040)" d="M0 0c0 31 25 56 56 56s55 -25 55 -56s-24 -56 -55 -56s-56 25 -56 56z" fill="currentColor"/>
</g>
<g transform="translate(34.5918, 15.6075)">
<path transform="scale(0.0040, -0.0040)" d="M215 137c67 0 111 -37 111 -92c0 -90 -111 -182 -215 -182c-67 0 -111 37 -111 92c0 90 111 182 215 182z" fill="currentColor"/>
</g>
</svg>
