<svg xmlns="http://www.w3.org/2000/svg" xmlns:xlink="http://www.w3.org/1999/xlink" version="1.2"   viewBox="0.0000 -0.0000 82.3456 94.22475">
<style type="text/css">
<![CDATA[
tspan { white-space: pre; }
]]>
</style>
<g transform="translate(0.0000, 6.1075)">
<line stroke-linejoin="round" stroke-linecap="round" stroke-width="0.0558" stroke="currentColor" x1="0.0279" y1="0" x2="82.3177" y2="0"/>
</g>
<g transform="translate(0.0000, 5.1075)">
<line stroke-linejoin="round" stroke-linecap="round" stroke-width="0.0558" stroke="currentColor" x1="0.0279" y1="0" x2="82.3177" y2="0"/>
</g>
<g transform="translate(0.0000, 4.1075)">
<line stroke-linejoin="round" stroke-linecap="round" stroke-width="0.0558" stroke="currentColor" x1="0.0279" y1="0" x2="82.3177" y2="0"/>
</g>
<g transform="translate(0.0000, 3.1075)">
<line stroke-linejoin="round" stroke-linecap="round" stroke-width="0.0558" stroke="currentColor" x1="0.0279" y1="0" x2="82.3177" y2="0"/>
</g>
<g transform="translate(0.0000, 2.1075)">
<line stroke-linejoin="round" stroke-linecap="round" stroke-width="0.0558" stroke="currentColor" x1="0.0279" y1="0" x2="82.3177" y2="0"/>
</g>
<g transform="translate(46.7181, 4.1075)">
<rect x="0.0000" y="-2.0000" width="0.2120" height="4.0000" ry="0.0000" fill="currentColor"/>
</g>
<g transform="translate(28.8860, 4.1075)">
<rect x="0.0000" y="-2.0000" width="0.2120" height="4.0000" ry="0.0000" fill="currentColor"/>
</g>
<g transform="translate(67.4397, 4.1075)">
<rect x="0.0000" y="-2.0000" width="0.2120" height="4.0000" ry="0.0000" fill="currentColor"/>
</g>
<g transform="translate(82.1336, 4.1075)">
<rect x="0.0000" y="-2.0000" width="0.2120" height="4.0000" ry="0.0000" fill="currentColor"/>
</g>
<g transform="translate(62.3169, 4.1075)">
<rect x="-0.0363" y="-2.5000" width="0.0725" height="3.3206" ry="0.0363" fill="currentColor"/>
</g>
<g transform="translate(54.8626, 4.6075)">
<path transform="scale(0.0040, -0.0040)" d="M215 137c67 0 111 -37 111 -92c0 -90 -111 -182 -215 -182c-67 0 -111 37 -111 92c0 90 111 182 215 182z" fill="currentColor"/>
</g>
<g transform="translate(54.2487, 9.6075)">
<text font-family="Noto Serif" font-size="2.4690" text-anchor="start" fill="currentColor">
<tspan>rá</tspan>
</text>
</g>
<g transform="translate(56.1291, 4.1075)">
<rect x="-0.0363" y="-3.0000" width="0.0725" height="3.3206" ry="0.0363" fill="currentColor"/>
</g>
<g transform="translate(61.0504, 5.1075)">
<path transform="scale(0.0040, -0.0040)" d="M215 137c67 0 111 -37 111 -92c0 -90 -111 -182 -215 -182c-67 0 -111 37 -111 92c0 90 111 182 215 182z" fill="currentColor"/>
</g>
<g transform="translate(60.2758, 9.6075)">
<text font-family="Noto Serif" font-size="2.4690" text-anchor="start" fill="currentColor">
<tspan>va</tspan>
</text>
</g>
<g transform="translate(70.3963, 5.1075)">
<path transform="scale(0.0040, -0.0040)" d="M312 64c0 23 -18 41 -41 41c-39 0 -201 -110 -228 -142c-7 -8 -10 -17 -10 -27c0 -23 18 -41 41 -41c39 0 201 110 228 142c7 8 10 17 10 27zM259 137c46 0 86 -17 86 -74c0 -26 -15 -112 -73 -151c-29 -20 -89 -49 -186 -49c-46 0 -86 17 -86 74c0 26 16 112 74 151
c29 20 88 49 185 49z" fill="currentColor"/>
</g>
<g transform="translate(49.9413, 4.1075)">
<rect x="-0.0363" y="-3.0000" width="0.0725" height="3.3206" ry="0.0363" fill="currentColor"/>
</g>
<g transform="translate(47.4985, 9.6075)">
<text font-family="Noto Serif" font-size="2.4690" text-anchor="start" fill="currentColor">
<tspan>kte</tspan>
</text>
</g>
<g transform="translate(65.7629, 9.6075)">
<rect x="0.0000" y="-0.5651" width="0.6600" height="0.1451" ry="0.0446" fill="currentColor"/>
</g>
<g transform="translate(52.3712, 9.6075)">
<rect x="0.0000" y="-0.5651" width="0.6600" height="0.1451" ry="0.0446" fill="currentColor"/>
</g>
<g transform="translate(80.6336, 2.1075)">
<path transform="scale(0.0040, -0.0040)" d="M62 158c38 0 68 -31 68 -69v-20c0 -110 -103 -165 -116 -165c-8 0 -14 6 -14 14c0 18 69 25 83 123h-28c-30 0 -55 25 -55 55c0 34 28 62 62 62z" fill="currentColor"/>
</g>
<g transform="translate(20.0009, 9.6075)">
<rect x="0.0000" y="-0.5651" width="0.6600" height="0.1451" ry="0.0446" fill="currentColor"/>
</g>
<g transform="translate(36.1121, 9.6075)">
<rect x="0.0000" y="-0.5651" width="0.6600" height="0.1451" ry="0.0446" fill="currentColor"/>
</g>
<g transform="translate(71.7406, 4.1075)">
<rect x="-0.0363" y="-2.5000" width="0.0725" height="3.2470" ry="0.0363" fill="currentColor"/>
</g>
<g transform="translate(72.2229, 4.6075)">
<path transform="scale(0.0040, -0.0040)" d="M0 0c0 31 25 56 56 56s55 -25 55 -56s-24 -56 -55 -56s-56 25 -56 56z" fill="currentColor"/>
</g>
<g transform="translate(69.0581, 9.6075)">
<text font-family="Noto Serif" font-size="2.4690" text-anchor="start" fill="currentColor">
<tspan>neš</tspan>
</text>
</g>
<g transform="translate(17.6111, 4.1075)">
<rect x="-0.0363" y="-2.5000" width="0.0725" height="3.3206" ry="0.0363" fill="currentColor"/>
</g>
<g transform="translate(16.3446, 5.1075)">
<path transform="scale(0.0040, -0.0040)" d="M215 137c67 0 111 -37 111 -92c0 -90 -111 -182 -215 -182c-67 0 -111 37 -111 92c0 90 111 182 215 182z" fill="currentColor"/>
</g>
<g transform="translate(15.4897, 9.6075)">
<text font-family="Noto Serif" font-size="2.4690" text-anchor="start" fill="currentColor">
<tspan>Bo</tspan>
</text>
</g>
<g transform="translate(22.5324, 4.6075)">
<path transform="scale(0.0040, -0.0040)" d="M215 137c67 0 111 -37 111 -92c0 -90 -111 -182 -215 -182c-67 0 -111 37 -111 92c0 90 111 182 215 182z" fill="currentColor"/>
</g>
<g transform="translate(48.6747, 4.6075)">
<path transform="scale(0.0040, -0.0040)" d="M215 137c67 0 111 -37 111 -92c0 -90 -111 -182 -215 -182c-67 0 -111 37 -111 92c0 90 111 182 215 182z" fill="currentColor"/>
</g>
<g transform="translate(23.7990, 4.1075)">
<rect x="-0.0363" y="-3.0000" width="0.0725" height="3.3206" ry="0.0363" fill="currentColor"/>
</g>
<g transform="translate(4.3000, 2.1075)">
<path transform="scale(0.0040, -0.0040)" d="M0 117c0 9 6 18 15 21l43 16v157c0 11 8 19 19 19s20 -8 20 -19v-142l81 30v156c0 11 9 20 20 20s19 -9 19 -20v-142l28 11c3 1 5 1 8 1c12 0 22 -10 22 -23v-57c0 -9 -6 -18 -15 -21l-43 -16v-157l28 10c3 1 5 1 8 1c12 0 22 -9 22 -22v-57c0 -9 -6 -18 -15 -21l-43 -16
v-157c0 -11 -8 -19 -19 -19s-20 8 -20 19v142l-81 -30v-156c0 -11 -9 -20 -20 -20s-19 9 -19 20v142l-28 -11c-3 -1 -5 -1 -8 -1c-12 0 -22 10 -22 23v57c0 9 6 18 15 21l43 16v157l-28 -10c-3 -1 -5 -1 -8 -1c-12 0 -22 9 -22 22v57zM178 94l-81 -30v-158l81 30v158z" fill="currentColor"/>
</g>
<g transform="translate(10.1568, 5.1075)">
<path transform="scale(0.0040, -0.0040)" d="M215 137c67 0 111 -37 111 -92c0 -90 -111 -182 -215 -182c-67 0 -111 37 -111 92c0 90 111 182 215 182z" fill="currentColor"/>
</g>
<g transform="translate(0.8000, 5.1075)">
<path transform="scale(0.0040, -0.0040)" d="M646 2c0 -113 -74 -213 -180 -247c3 -34 5 -68 5 -102c0 -20 -1 -40 -2 -60c-7 -121 -91 -228 -209 -228c-108 0 -196 87 -196 196c0 58 53 104 112 104c54 0 95 -48 95 -104c0 -52 -43 -95 -95 -95c-10 0 -20 2 -29 6c26 -38 68 -63 116 -63h3c93 2 153 92 159 190
c1 19 2 37 2 56c0 30 -2 60 -4 90c-5 -1 -43 -8 -88 -8c-194 0 -333 180 -333 375c0 177 130 307 246 442c-31 98 -53 170 -53 347c0 115 55 223 148 290c7 5 16 4 22 -1c68 -80 134 -243 134 -357c0 -143 -85 -255 -178 -364c21 -68 40 -137 57 -206c1 0 5 1 11 1
c156 0 257 -129 257 -262zM462 -202c66 24 111 88 111 162c0 89 -65 178 -170 190c28 -135 50 -272 59 -352zM75 26c0 -145 141 -245 263 -245c1 0 46 0 81 6c-7 65 -27 206 -61 363c-79 -8 -124 -61 -124 -119c0 -43 25 -89 80 -121c5 -5 7 -11 7 -16
c0 -12 -10 -23 -22 -23c-16 0 -127 63 -127 188c0 89 58 175 161 198c-14 58 -29 116 -46 173c-106 -122 -212 -244 -212 -404zM406 1042c-99 -47 -162 -148 -162 -257c0 -49 13 -111 38 -191c79 97 144 199 144 324c0 33 0 63 -20 124z" fill="currentColor"/>
</g>
<g transform="translate(22.1595, 9.6075)">
<text font-family="Noto Serif" font-size="2.4690" text-anchor="start" fill="currentColor">
<tspan>ží</tspan>
</text>
</g>
<g transform="translate(6.6906, 4.1075)">
<path transform="scale(0.0040, -0.0040)" d="M264 265c0 -34 72 -24 72 -125c0 -92 -80 -140 -180 -140c-79 0 -156 43 -156 115c0 36 29 65 65 65s65 -29 65 -65c0 -25 -40 -29 -40 -54c0 -28 34 -36 66 -36c48 0 61 59 61 115v22c0 50 -3 88 -49 88h-78c-10 0 -15 7 -15 15s5 15 15 15h78c46 0 49 40 49 92v14
c0 53 -18 89 -66 89c-29 0 -59 -8 -59 -33c0 -22 36 -25 36 -47c0 -31 -26 -57 -57 -57s-57 26 -57 57c0 65 66 105 137 105c92 0 170 -33 170 -114c0 -119 -57 -80 -57 -121z" fill="currentColor"/>
</g>
<g transform="translate(6.5500, 6.1194)">
<path transform="scale(0.0040, -0.0040)" d="M194 120h120c0 -49 29 -95 75 -95c8 0 12 -7 12 -13s-4 -12 -12 -12c-45 0 -90 13 -135 13s-90 -13 -135 -13c-8 0 -12 6 -12 12s4 13 12 13c46 0 75 46 75 95zM224 487c37 0 70 14 78 14c9 0 14 -7 14 -13c0 -2 0 -3 -2 -5l-283 -327h163v122c0 35 36 28 70 74
c23 30 22 57 36 57c6 0 14 -6 14 -15v-238h74c10 0 16 -8 16 -16s-6 -15 -16 -15h-74v-5h-120v5h-163c-24 0 -33 15 -33 24c0 12 136 140 136 334c0 11 8 20 17 17c24 -7 48 -13 73 -13z" fill="currentColor"/>
</g>
<g transform="translate(9.3420, 9.6075)">
<text font-family="Noto Serif" font-size="2.4690" text-anchor="start" fill="currentColor">
<tspan>Ty</tspan>
</text>
</g>
<g transform="translate(6.4942, 9.6075)">
<text font-family="serif" font-weight="bold" font-size="2.4690" text-anchor="start" fill="currentColor">
<tspan>1.</tspan>
</text>
</g>
<g transform="translate(11.4233, 4.1075)">
<rect x="-0.0363" y="-2.5000" width="0.0725" height="3.3206" ry="0.0363" fill="currentColor"/>
</g>
<g transform="translate(40.6966, 4.1075)">
<rect x="-0.0363" y="0.1794" width="0.0725" height="3.1540" ry="0.0363" fill="currentColor"/>
</g>
<g transform="translate(39.6045, 9.6075)">
<text font-family="Noto Serif" font-size="2.4690" text-anchor="start" fill="currentColor">
<tspan>ko,</tspan>
</text>
</g>
<g transform="translate(40.6603, 4.1075)">
<path transform="scale(0.0040, -0.0040)" d="M215 137c67 0 111 -37 111 -92c0 -90 -111 -182 -215 -182c-67 0 -111 37 -111 92c0 90 111 182 215 182z" fill="currentColor"/>
</g>
<g transform="translate(30.9787, 4.1075)">
<rect x="-0.0363" y="0.2530" width="0.0725" height="3.0804" ry="0.0363" fill="currentColor"/>
</g>
<g transform="translate(29.9859, 9.6075)">
<text font-family="Noto Serif" font-size="2.4690" text-anchor="start" fill="currentColor">
<tspan>lás</tspan>
</text>
</g>
<g transform="translate(30.9425, 4.1075)">
<path transform="scale(0.0040, -0.0040)" d="M312 64c0 23 -18 41 -41 41c-39 0 -201 -110 -228 -142c-7 -8 -10 -17 -10 -27c0 -23 18 -41 41 -41c39 0 201 110 228 142c7 8 10 17 10 27zM259 137c46 0 86 -17 86 -74c0 -26 -15 -112 -73 -151c-29 -20 -89 -49 -186 -49c-46 0 -86 17 -86 74c0 26 16 112 74 151
c29 20 88 49 185 49z" fill="currentColor"/>
</g>
<g transform="translate(0.0000, 18.1075)">
<line stroke-linejoin="round" stroke-linecap="round" stroke-width="0.0558" stroke="currentColor" x1="0.0279" y1="0" x2="82.3177" y2="0"/>
</g>
<g transform="translate(0.0000, 17.1075)">
<line stroke-linejoin="round" stroke-linecap="round" stroke-width="0.0558" stroke="currentColor" x1="0.0279" y1="0" x2="82.3177" y2="0"/>
</g>
<g transform="translate(0.0000, 16.1075)">
<line stroke-linejoin="round" stroke-linecap="round" stroke-width="0.0558" stroke="currentColor" x1="0.0279" y1="0" x2="82.3177" y2="0"/>
</g>
<g transform="translate(0.0000, 15.1075)">
<line stroke-linejoin="round" stroke-linecap="round" stroke-width="0.0558" stroke="currentColor" x1="0.0279" y1="0" x2="82.3177" y2="0"/>
</g>
<g transform="translate(0.0000, 14.1075)">
<line stroke-linejoin="round" stroke-linecap="round" stroke-width="0.0558" stroke="currentColor" x1="0.0279" y1="0" x2="82.3177" y2="0"/>
</g>
<g transform="translate(82.1336, 16.1075)">
<rect x="0.0000" y="-2.0000" width="0.2120" height="4.0000" ry="0.0000" fill="currentColor"/>
</g>
<g transform="translate(27.6240, 16.1075)">
<rect x="0.0000" y="-2.0000" width="0.2120" height="4.0000" ry="0.0000" fill="currentColor"/>
</g>
<g transform="translate(66.3853, 16.1075)">
<rect x="0.0000" y="-2.0000" width="0.2120" height="4.0000" ry="0.0000" fill="currentColor"/>
</g>
<g transform="translate(46.9774, 16.1075)">
<rect x="0.0000" y="-2.0000" width="0.2120" height="4.0000" ry="0.0000" fill="currentColor"/>
</g>
<g transform="translate(69.4591, 18.1075)">
<path transform="scale(0.0040, -0.0040)" d="M312 64c0 23 -18 41 -41 41c-39 0 -201 -110 -228 -142c-7 -8 -10 -17 -10 -27c0 -23 18 -41 41 -41c39 0 201 110 228 142c7 8 10 17 10 27zM259 137c46 0 86 -17 86 -74c0 -26 -15 -112 -73 -151c-29 -20 -89 -49 -186 -49c-46 0 -86 17 -86 74c0 26 16 112 74 151
c29 20 88 49 185 49z" fill="currentColor"/>
</g>
<g transform="translate(57.0254, 16.1075)">
<rect x="-0.0363" y="-2.0000" width="0.0725" height="3.2470" ry="0.0363" fill="currentColor"/>
</g>
<g transform="translate(54.3830, 21.7287)">
<text font-family="Noto Serif" font-size="2.4690" text-anchor="start" fill="currentColor">
<tspan>věč</tspan>
</text>
</g>
<g transform="translate(55.6811, 17.6075)">
<path transform="scale(0.0040, -0.0040)" d="M312 64c0 23 -18 41 -41 41c-39 0 -201 -110 -228 -142c-7 -8 -10 -17 -10 -27c0 -23 18 -41 41 -41c39 0 201 110 228 142c7 8 10 17 10 27zM259 137c46 0 86 -17 86 -74c0 -26 -15 -112 -73 -151c-29 -20 -89 -49 -186 -49c-46 0 -86 17 -86 74c0 26 16 112 74 151
c29 20 88 49 185 49z" fill="currentColor"/>
</g>
<g transform="translate(68.3418, 21.7287)">
<text font-family="Noto Serif" font-size="2.4690" text-anchor="start" fill="currentColor">
<tspan>na,</tspan>
</text>
</g>
<g transform="translate(50.3177, 16.1075)">
<rect x="-0.0363" y="-2.5000" width="0.0725" height="3.3206" ry="0.0363" fill="currentColor"/>
</g>
<g transform="translate(48.2364, 21.7287)">
<text font-family="Noto Serif" font-size="2.4690" text-anchor="start" fill="currentColor">
<tspan>do</tspan>
</text>
</g>
<g transform="translate(49.0511, 17.1075)">
<path transform="scale(0.0040, -0.0040)" d="M215 137c67 0 111 -37 111 -92c0 -90 -111 -182 -215 -182c-67 0 -111 37 -111 92c0 90 111 182 215 182z" fill="currentColor"/>
</g>
<g transform="translate(63.0207, 21.7287)">
<rect x="0.0000" y="-0.5651" width="0.6600" height="0.1451" ry="0.0446" fill="currentColor"/>
</g>
<g transform="translate(36.0399, 21.7287)">
<rect x="0.0000" y="-0.5651" width="0.6600" height="0.1451" ry="0.0446" fill="currentColor"/>
</g>
<g transform="translate(18.1462, 21.7287)">
<rect x="0.0000" y="-0.5651" width="0.6600" height="0.1451" ry="0.0446" fill="currentColor"/>
</g>
<g transform="translate(80.6336, 14.1075)">
<path transform="scale(0.0040, -0.0040)" d="M62 158c38 0 68 -31 68 -69v-20c0 -110 -103 -165 -116 -165c-8 0 -14 6 -14 14c0 18 69 25 83 123h-28c-30 0 -55 25 -55 55c0 34 28 62 62 62z" fill="currentColor"/>
</g>
<g transform="translate(70.8034, 16.1075)">
<rect x="-0.0363" y="-1.5000" width="0.0725" height="3.2470" ry="0.0363" fill="currentColor"/>
</g>
<g transform="translate(71.2856, 17.6075)">
<path transform="scale(0.0040, -0.0040)" d="M0 0c0 31 25 56 56 56s55 -25 55 -56s-24 -56 -55 -56s-56 25 -56 56z" fill="currentColor"/>
</g>
<g transform="translate(7.9000, 16.1075)">
<path transform="scale(0.0040, -0.0040)" d="M215 137c67 0 111 -37 111 -92c0 -90 -111 -182 -215 -182c-67 0 -111 37 -111 92c0 90 111 182 215 182z" fill="currentColor"/>
</g>
<g transform="translate(5.4584, 21.7287)">
<text font-family="Noto Serif" font-size="2.4690" text-anchor="start" fill="currentColor">
<tspan>tmou</tspan>
</text>
</g>
<g transform="translate(7.9363, 16.1075)">
<rect x="-0.0363" y="0.1794" width="0.0725" height="3.1540" ry="0.0363" fill="currentColor"/>
</g>
<g transform="translate(14.5299, 16.1075)">
<path transform="scale(0.0040, -0.0040)" d="M215 137c67 0 111 -37 111 -92c0 -90 -111 -182 -215 -182c-67 0 -111 37 -111 92c0 90 111 182 215 182z" fill="currentColor"/>
</g>
<g transform="translate(13.8758, 21.7287)">
<text font-family="Noto Serif" font-size="2.4690" text-anchor="start" fill="currentColor">
<tspan>ča</tspan>
</text>
</g>
<g transform="translate(14.5662, 16.1075)">
<rect x="-0.0363" y="0.1794" width="0.0725" height="3.1540" ry="0.0363" fill="currentColor"/>
</g>
<g transform="translate(4.3000, 14.1075)">
<path transform="scale(0.0040, -0.0040)" d="M0 117c0 9 6 18 15 21l43 16v157c0 11 8 19 19 19s20 -8 20 -19v-142l81 30v156c0 11 9 20 20 20s19 -9 19 -20v-142l28 11c3 1 5 1 8 1c12 0 22 -10 22 -23v-57c0 -9 -6 -18 -15 -21l-43 -16v-157l28 10c3 1 5 1 8 1c12 0 22 -9 22 -22v-57c0 -9 -6 -18 -15 -21l-43 -16
v-157c0 -11 -8 -19 -19 -19s-20 8 -20 19v142l-81 -30v-156c0 -11 -9 -20 -20 -20s-19 9 -19 20v142l-28 -11c-3 -1 -5 -1 -8 -1c-12 0 -22 10 -22 23v57c0 9 6 18 15 21l43 16v157l-28 -10c-3 -1 -5 -1 -8 -1c-12 0 -22 9 -22 22v57zM178 94l-81 -30v-158l81 30v158z" fill="currentColor"/>
</g>
<g transform="translate(0.8000, 17.1075)">
<path transform="scale(0.0040, -0.0040)" d="M646 2c0 -113 -74 -213 -180 -247c3 -34 5 -68 5 -102c0 -20 -1 -40 -2 -60c-7 -121 -91 -228 -209 -228c-108 0 -196 87 -196 196c0 58 53 104 112 104c54 0 95 -48 95 -104c0 -52 -43 -95 -95 -95c-10 0 -20 2 -29 6c26 -38 68 -63 116 -63h3c93 2 153 92 159 190
c1 19 2 37 2 56c0 30 -2 60 -4 90c-5 -1 -43 -8 -88 -8c-194 0 -333 180 -333 375c0 177 130 307 246 442c-31 98 -53 170 -53 347c0 115 55 223 148 290c7 5 16 4 22 -1c68 -80 134 -243 134 -357c0 -143 -85 -255 -178 -364c21 -68 40 -137 57 -206c1 0 5 1 11 1
c156 0 257 -129 257 -262zM462 -202c66 24 111 88 111 162c0 89 -65 178 -170 190c28 -135 50 -272 59 -352zM75 26c0 -145 141 -245 263 -245c1 0 46 0 81 6c-7 65 -27 206 -61 363c-79 -8 -124 -61 -124 -119c0 -43 25 -89 80 -121c5 -5 7 -11 7 -16
c0 -12 -10 -23 -22 -23c-16 0 -127 63 -127 188c0 89 58 175 161 198c-14 58 -29 116 -46 173c-106 -122 -212 -244 -212 -404zM406 1042c-99 -47 -162 -148 -162 -257c0 -49 13 -111 38 -191c79 97 144 199 144 324c0 33 0 63 -20 124z" fill="currentColor"/>
</g>
<g transform="translate(27.5842, 21.7287)">
<text font-family="Noto Serif" font-size="2.4690" text-anchor="start" fill="currentColor">
<tspan>z věč</tspan>
</text>
</g>
<g transform="translate(21.1598, 15.6075)">
<path transform="scale(0.0040, -0.0040)" d="M215 137c67 0 111 -37 111 -92c0 -90 -111 -182 -215 -182c-67 0 -111 37 -111 92c0 90 111 182 215 182z" fill="currentColor"/>
</g>
<g transform="translate(29.8624, 16.1075)">
<rect x="-0.0363" y="-0.2470" width="0.0725" height="3.2470" ry="0.0363" fill="currentColor"/>
</g>
<g transform="translate(40.1460, 17.1075)">
<path transform="scale(0.0040, -0.0040)" d="M215 137c67 0 111 -37 111 -92c0 -90 -111 -182 -215 -182c-67 0 -111 37 -111 92c0 90 111 182 215 182z" fill="currentColor"/>
</g>
<g transform="translate(39.2911, 21.7287)">
<text font-family="Noto Serif" font-size="2.4690" text-anchor="start" fill="currentColor">
<tspan>na</tspan>
</text>
</g>
<g transform="translate(41.4125, 16.1075)">
<rect x="-0.0363" y="-2.5000" width="0.0725" height="3.3206" ry="0.0363" fill="currentColor"/>
</g>
<g transform="translate(20.4656, 21.7287)">
<text font-family="Noto Serif" font-size="2.4690" text-anchor="start" fill="currentColor">
<tspan>su</tspan>
</text>
</g>
<g transform="translate(21.1961, 16.1075)">
<rect x="-0.0363" y="-0.3206" width="0.0725" height="3.3206" ry="0.0363" fill="currentColor"/>
</g>
<g transform="translate(29.8262, 15.6075)">
<path transform="scale(0.0040, -0.0040)" d="M312 64c0 23 -18 41 -41 41c-39 0 -201 -110 -228 -142c-7 -8 -10 -17 -10 -27c0 -23 18 -41 41 -41c39 0 201 110 228 142c7 8 10 17 10 27zM259 137c46 0 86 -17 86 -74c0 -26 -15 -112 -73 -151c-29 -20 -89 -49 -186 -49c-46 0 -86 17 -86 74c0 26 16 112 74 151
c29 20 88 49 185 49z" fill="currentColor"/>
</g>
<g transform="translate(0.0000, 30.1075)">
<line stroke-linejoin="round" stroke-linecap="round" stroke-width="0.0558" stroke="currentColor" x1="0.0279" y1="0" x2="82.3177" y2="0"/>
</g>
<g transform="translate(0.0000, 29.1075)">
<line stroke-linejoin="round" stroke-linecap="round" stroke-width="0.0558" stroke="currentColor" x1="0.0279" y1="0" x2="82.3177" y2="0"/>
</g>
<g transform="translate(0.0000, 28.1075)">
<line stroke-linejoin="round" stroke-linecap="round" stroke-width="0.0558" stroke="currentColor" x1="0.0279" y1="0" x2="82.3177" y2="0"/>
</g>
<g transform="translate(0.0000, 27.1075)">
<line stroke-linejoin="round" stroke-linecap="round" stroke-width="0.0558" stroke="currentColor" x1="0.0279" y1="0" x2="82.3177" y2="0"/>
</g>
<g transform="translate(0.0000, 26.1075)">
<line stroke-linejoin="round" stroke-linecap="round" stroke-width="0.0558" stroke="currentColor" x1="0.0279" y1="0" x2="82.3177" y2="0"/>
</g>
<g transform="translate(82.1336, 28.1075)">
<rect x="0.0000" y="-2.0000" width="0.2120" height="4.0000" ry="0.0000" fill="currentColor"/>
</g>
<g transform="translate(67.0388, 28.1075)">
<rect x="0.0000" y="-2.0000" width="0.2120" height="4.0000" ry="0.0000" fill="currentColor"/>
</g>
<g transform="translate(45.7683, 28.1075)">
<rect x="0.0000" y="-2.0000" width="0.2120" height="4.0000" ry="0.0000" fill="currentColor"/>
</g>
<g transform="translate(27.2050, 28.1075)">
<rect x="0.0000" y="-2.0000" width="0.2120" height="4.0000" ry="0.0000" fill="currentColor"/>
</g>
<g transform="translate(55.3920, 28.1075)">
<rect x="-0.0363" y="-3.0000" width="0.0725" height="3.3206" ry="0.0363" fill="currentColor"/>
</g>
<g transform="translate(60.4814, 29.1075)">
<path transform="scale(0.0040, -0.0040)" d="M215 137c67 0 111 -37 111 -92c0 -90 -111 -182 -215 -182c-67 0 -111 37 -111 92c0 90 111 182 215 182z" fill="currentColor"/>
</g>
<g transform="translate(59.4256, 33.6075)">
<text font-family="Noto Serif" font-size="2.4690" text-anchor="start" fill="currentColor">
<tspan>sta</tspan>
</text>
</g>
<g transform="translate(61.7479, 28.1075)">
<rect x="-0.0363" y="-2.5000" width="0.0725" height="3.3206" ry="0.0363" fill="currentColor"/>
</g>
<g transform="translate(53.9935, 33.6075)">
<text font-family="Noto Serif" font-size="2.4690" text-anchor="start" fill="currentColor">
<tspan>u</tspan>
</text>
</g>
<g transform="translate(70.0399, 29.6075)">
<path transform="scale(0.0040, -0.0040)" d="M312 64c0 23 -18 41 -41 41c-39 0 -201 -110 -228 -142c-7 -8 -10 -17 -10 -27c0 -23 18 -41 41 -41c39 0 201 110 228 142c7 8 10 17 10 27zM259 137c46 0 86 -17 86 -74c0 -26 -15 -112 -73 -151c-29 -20 -89 -49 -186 -49c-46 0 -86 17 -86 74c0 26 16 112 74 151
c29 20 88 49 185 49z" fill="currentColor"/>
</g>
<g transform="translate(68.4005, 33.6075)">
<text font-family="Noto Serif" font-size="2.4690" text-anchor="start" fill="currentColor">
<tspan>neš,</tspan>
</text>
</g>
<g transform="translate(46.9547, 33.6075)">
<text font-family="Noto Serif" font-size="2.4690" text-anchor="start" fill="currentColor">
<tspan>ne</tspan>
</text>
</g>
<g transform="translate(49.0360, 28.1075)">
<rect x="-0.0363" y="-2.5000" width="0.0725" height="3.3206" ry="0.0363" fill="currentColor"/>
</g>
<g transform="translate(71.8665, 29.6075)">
<path transform="scale(0.0040, -0.0040)" d="M0 0c0 31 25 56 56 56s55 -25 55 -56s-24 -56 -55 -56s-56 25 -56 56z" fill="currentColor"/>
</g>
<g transform="translate(54.1254, 28.6075)">
<path transform="scale(0.0040, -0.0040)" d="M215 137c67 0 111 -37 111 -92c0 -90 -111 -182 -215 -182c-67 0 -111 37 -111 92c0 90 111 182 215 182z" fill="currentColor"/>
</g>
<g transform="translate(18.1570, 33.6075)">
<rect x="0.0000" y="-0.5651" width="0.6600" height="0.1451" ry="0.0446" fill="currentColor"/>
</g>
<g transform="translate(34.7703, 33.6075)">
<rect x="0.0000" y="-0.5651" width="0.6600" height="0.1451" ry="0.0446" fill="currentColor"/>
</g>
<g transform="translate(51.6103, 33.6075)">
<rect x="0.0000" y="-0.5651" width="0.6600" height="0.1451" ry="0.0446" fill="currentColor"/>
</g>
<g transform="translate(57.1629, 33.6075)">
<rect x="0.0000" y="-0.5651" width="0.6600" height="0.1451" ry="0.0446" fill="currentColor"/>
</g>
<g transform="translate(65.2902, 33.6075)">
<rect x="0.0000" y="-0.5651" width="0.6600" height="0.1451" ry="0.0446" fill="currentColor"/>
</g>
<g transform="translate(80.6336, 26.1075)">
<path transform="scale(0.0040, -0.0040)" d="M62 158c38 0 68 -31 68 -69v-20c0 -110 -103 -165 -116 -165c-8 0 -14 6 -14 14c0 18 69 25 83 123h-28c-30 0 -55 25 -55 55c0 34 28 62 62 62z" fill="currentColor"/>
</g>
<g transform="translate(71.3843, 28.1075)">
<rect x="-0.0363" y="-2.0000" width="0.0725" height="3.2470" ry="0.0363" fill="currentColor"/>
</g>
<g transform="translate(6.9045, 33.6075)">
<text font-family="Noto Serif" font-size="2.4690" text-anchor="start" fill="currentColor">
<tspan>jež</tspan>
</text>
</g>
<g transform="translate(9.1665, 28.1075)">
<rect x="-0.0363" y="-1.5000" width="0.0725" height="3.3206" ry="0.0363" fill="currentColor"/>
</g>
<g transform="translate(14.2559, 30.1075)">
<path transform="scale(0.0040, -0.0040)" d="M215 137c67 0 111 -37 111 -92c0 -90 -111 -182 -215 -182c-67 0 -111 37 -111 92c0 90 111 182 215 182z" fill="currentColor"/>
</g>
<g transform="translate(12.9592, 33.6075)">
<text font-family="Noto Serif" font-size="2.4690" text-anchor="start" fill="currentColor">
<tspan>svě</tspan>
</text>
</g>
<g transform="translate(15.5225, 28.1075)">
<rect x="-0.0363" y="-1.5000" width="0.0725" height="3.3206" ry="0.0363" fill="currentColor"/>
</g>
<g transform="translate(7.9000, 30.1075)">
<path transform="scale(0.0040, -0.0040)" d="M215 137c67 0 111 -37 111 -92c0 -90 -111 -182 -215 -182c-67 0 -111 37 -111 92c0 90 111 182 215 182z" fill="currentColor"/>
</g>
<g transform="translate(20.6119, 29.6075)">
<path transform="scale(0.0040, -0.0040)" d="M215 137c67 0 111 -37 111 -92c0 -90 -111 -182 -215 -182c-67 0 -111 37 -111 92c0 90 111 182 215 182z" fill="currentColor"/>
</g>
<g transform="translate(20.1185, 33.6075)">
<text font-family="Noto Serif" font-size="2.4690" text-anchor="start" fill="currentColor">
<tspan>ty</tspan>
</text>
</g>
<g transform="translate(21.8784, 28.1075)">
<rect x="-0.0363" y="-2.0000" width="0.0725" height="3.3206" ry="0.0363" fill="currentColor"/>
</g>
<g transform="translate(0.8000, 29.1075)">
<path transform="scale(0.0040, -0.0040)" d="M646 2c0 -113 -74 -213 -180 -247c3 -34 5 -68 5 -102c0 -20 -1 -40 -2 -60c-7 -121 -91 -228 -209 -228c-108 0 -196 87 -196 196c0 58 53 104 112 104c54 0 95 -48 95 -104c0 -52 -43 -95 -95 -95c-10 0 -20 2 -29 6c26 -38 68 -63 116 -63h3c93 2 153 92 159 190
c1 19 2 37 2 56c0 30 -2 60 -4 90c-5 -1 -43 -8 -88 -8c-194 0 -333 180 -333 375c0 177 130 307 246 442c-31 98 -53 170 -53 347c0 115 55 223 148 290c7 5 16 4 22 -1c68 -80 134 -243 134 -357c0 -143 -85 -255 -178 -364c21 -68 40 -137 57 -206c1 0 5 1 11 1
c156 0 257 -129 257 -262zM462 -202c66 24 111 88 111 162c0 89 -65 178 -170 190c28 -135 50 -272 59 -352zM75 26c0 -145 141 -245 263 -245c1 0 46 0 81 6c-7 65 -27 206 -61 363c-79 -8 -124 -61 -124 -119c0 -43 25 -89 80 -121c5 -5 7 -11 7 -16
c0 -12 -10 -23 -22 -23c-16 0 -127 63 -127 188c0 89 58 175 161 198c-14 58 -29 116 -46 173c-106 -122 -212 -244 -212 -404zM406 1042c-99 -47 -162 -148 -162 -257c0 -49 13 -111 38 -191c79 97 144 199 144 324c0 33 0 63 -20 124z" fill="currentColor"/>
</g>
<g transform="translate(4.3000, 26.1075)">
<path transform="scale(0.0040, -0.0040)" d="M0 117c0 9 6 18 15 21l43 16v157c0 11 8 19 19 19s20 -8 20 -19v-142l81 30v156c0 11 9 20 20 20s19 -9 19 -20v-142l28 11c3 1 5 1 8 1c12 0 22 -10 22 -23v-57c0 -9 -6 -18 -15 -21l-43 -16v-157l28 10c3 1 5 1 8 1c12 0 22 -9 22 -22v-57c0 -9 -6 -18 -15 -21l-43 -16
v-157c0 -11 -8 -19 -19 -19s-20 8 -20 19v142l-81 -30v-156c0 -11 -9 -20 -20 -20s-19 9 -19 20v142l-28 -11c-3 -1 -5 -1 -8 -1c-12 0 -22 10 -22 23v57c0 9 6 18 15 21l43 16v157l-28 -10c-3 -1 -5 -1 -8 -1c-12 0 -22 9 -22 22v57zM178 94l-81 -30v-158l81 30v158z" fill="currentColor"/>
</g>
<g transform="translate(47.7695, 29.1075)">
<path transform="scale(0.0040, -0.0040)" d="M215 137c67 0 111 -37 111 -92c0 -90 -111 -182 -215 -182c-67 0 -111 37 -111 92c0 90 111 182 215 182z" fill="currentColor"/>
</g>
<g transform="translate(40.4774, 28.1075)">
<rect x="-0.0363" y="-2.5000" width="0.0725" height="3.3206" ry="0.0363" fill="currentColor"/>
</g>
<g transform="translate(38.4363, 33.6075)">
<text font-family="Noto Serif" font-size="2.4690" text-anchor="start" fill="currentColor">
<tspan>řit</tspan>
</text>
</g>
<g transform="translate(39.2109, 29.1075)">
<path transform="scale(0.0040, -0.0040)" d="M215 137c67 0 111 -37 111 -92c0 -90 -111 -182 -215 -182c-67 0 -111 37 -111 92c0 90 111 182 215 182z" fill="currentColor"/>
</g>
<g transform="translate(30.5505, 28.1075)">
<rect x="-0.0363" y="-2.5000" width="0.0725" height="3.2470" ry="0.0363" fill="currentColor"/>
</g>
<g transform="translate(28.0286, 33.6075)">
<text font-family="Noto Serif" font-size="2.4690" text-anchor="start" fill="currentColor">
<tspan>tvo</tspan>
</text>
</g>
<g transform="translate(29.2062, 29.1075)">
<path transform="scale(0.0040, -0.0040)" d="M312 64c0 23 -18 41 -41 41c-39 0 -201 -110 -228 -142c-7 -8 -10 -17 -10 -27c0 -23 18 -41 41 -41c39 0 201 110 228 142c7 8 10 17 10 27zM259 137c46 0 86 -17 86 -74c0 -26 -15 -112 -73 -151c-29 -20 -89 -49 -186 -49c-46 0 -86 17 -86 74c0 26 16 112 74 151
c29 20 88 49 185 49z" fill="currentColor"/>
</g>
<g transform="translate(0.0000, 42.1075)">
<line stroke-linejoin="round" stroke-linecap="round" stroke-width="0.0558" stroke="currentColor" x1="0.0279" y1="0" x2="82.3177" y2="0"/>
</g>
<g transform="translate(0.0000, 41.1075)">
<line stroke-linejoin="round" stroke-linecap="round" stroke-width="0.0558" stroke="currentColor" x1="0.0279" y1="0" x2="82.3177" y2="0"/>
</g>
<g transform="translate(0.0000, 40.1075)">
<line stroke-linejoin="round" stroke-linecap="round" stroke-width="0.0558" stroke="currentColor" x1="0.0279" y1="0" x2="82.3177" y2="0"/>
</g>
<g transform="translate(0.0000, 39.1075)">
<line stroke-linejoin="round" stroke-linecap="round" stroke-width="0.0558" stroke="currentColor" x1="0.0279" y1="0" x2="82.3177" y2="0"/>
</g>
<g transform="translate(0.0000, 38.1075)">
<line stroke-linejoin="round" stroke-linecap="round" stroke-width="0.0558" stroke="currentColor" x1="0.0279" y1="0" x2="82.3177" y2="0"/>
</g>
<g transform="translate(82.1336, 40.1075)">
<rect x="0.0000" y="-2.0000" width="0.2120" height="4.0000" ry="0.0000" fill="currentColor"/>
</g>
<g transform="translate(27.8564, 40.1075)">
<rect x="0.0000" y="-2.0000" width="0.2120" height="4.0000" ry="0.0000" fill="currentColor"/>
</g>
<g transform="translate(66.4641, 40.1075)">
<rect x="0.0000" y="-2.0000" width="0.2120" height="4.0000" ry="0.0000" fill="currentColor"/>
</g>
<g transform="translate(47.1544, 40.1075)">
<rect x="0.0000" y="-2.0000" width="0.2120" height="4.0000" ry="0.0000" fill="currentColor"/>
</g>
<g transform="translate(69.5292, 42.6075)">
<path transform="scale(0.0040, -0.0040)" d="M312 64c0 23 -18 41 -41 41c-39 0 -201 -110 -228 -142c-7 -8 -10 -17 -10 -27c0 -23 18 -41 41 -41c39 0 201 110 228 142c7 8 10 17 10 27zM259 137c46 0 86 -17 86 -74c0 -26 -15 -112 -73 -151c-29 -20 -89 -49 -186 -49c-46 0 -86 17 -86 74c0 26 16 112 74 151
c29 20 88 49 185 49z" fill="currentColor"/>
</g>
<g transform="translate(57.1606, 40.1075)">
<rect x="-0.0363" y="-1.5000" width="0.0725" height="3.2470" ry="0.0363" fill="currentColor"/>
</g>
<g transform="translate(54.7994, 45.6075)">
<text font-family="Noto Serif" font-size="2.4690" text-anchor="start" fill="currentColor">
<tspan>teč</tspan>
</text>
</g>
<g transform="translate(55.8163, 42.1075)">
<path transform="scale(0.0040, -0.0040)" d="M312 64c0 23 -18 41 -41 41c-39 0 -201 -110 -228 -142c-7 -8 -10 -17 -10 -27c0 -23 18 -41 41 -41c39 0 201 110 228 142c7 8 10 17 10 27zM259 137c46 0 86 -17 86 -74c0 -26 -15 -112 -73 -151c-29 -20 -89 -49 -186 -49c-46 0 -86 17 -86 74c0 26 16 112 74 151
c29 20 88 49 185 49z" fill="currentColor"/>
</g>
<g transform="translate(68.3516, 45.6075)">
<text font-family="Noto Serif" font-size="2.4690" text-anchor="start" fill="currentColor">
<tspan>ná;</tspan>
</text>
</g>
<g transform="translate(50.4859, 40.1075)">
<rect x="-0.0363" y="-1.5000" width="0.0725" height="3.3206" ry="0.0363" fill="currentColor"/>
</g>
<g transform="translate(47.8021, 45.6075)">
<text font-family="Noto Serif" font-size="2.4690" text-anchor="start" fill="currentColor">
<tspan>sku</tspan>
</text>
</g>
<g transform="translate(49.2194, 42.1075)">
<path transform="scale(0.0040, -0.0040)" d="M215 137c67 0 111 -37 111 -92c0 -90 -111 -182 -215 -182c-67 0 -111 37 -111 92c0 90 111 182 215 182z" fill="currentColor"/>
</g>
<g transform="translate(62.9527, 45.6075)">
<rect x="0.0000" y="-0.5651" width="0.6600" height="0.1451" ry="0.0446" fill="currentColor"/>
</g>
<g transform="translate(53.0394, 45.6075)">
<rect x="0.0000" y="-0.5651" width="0.6600" height="0.1451" ry="0.0446" fill="currentColor"/>
</g>
<g transform="translate(25.5770, 45.6075)">
<rect x="0.0000" y="-0.5651" width="0.6600" height="0.1451" ry="0.0446" fill="currentColor"/>
</g>
<g transform="translate(18.0464, 45.6075)">
<rect x="0.0000" y="-0.5651" width="0.6600" height="0.1451" ry="0.0446" fill="currentColor"/>
</g>
<g transform="translate(80.6336, 38.1075)">
<path transform="scale(0.0040, -0.0040)" d="M62 158c38 0 68 -31 68 -69v-20c0 -110 -103 -165 -116 -165c-8 0 -14 6 -14 14c0 18 69 25 83 123h-28c-30 0 -55 25 -55 55c0 34 28 62 62 62z" fill="currentColor"/>
</g>
<g transform="translate(70.8735, 40.1075)">
<rect x="-0.0363" y="-1.0000" width="0.0725" height="3.2470" ry="0.0363" fill="currentColor"/>
</g>
<g transform="translate(71.3557, 42.6075)">
<path transform="scale(0.0040, -0.0040)" d="M0 0c0 31 25 56 56 56s55 -25 55 -56s-24 -56 -55 -56s-56 25 -56 56z" fill="currentColor"/>
</g>
<g transform="translate(7.9000, 41.6075)">
<path transform="scale(0.0040, -0.0040)" d="M215 137c67 0 111 -37 111 -92c0 -90 -111 -182 -215 -182c-67 0 -111 37 -111 92c0 90 111 182 215 182z" fill="currentColor"/>
</g>
<g transform="translate(7.4066, 45.6075)">
<text font-family="Noto Serif" font-size="2.4690" text-anchor="start" fill="currentColor">
<tspan>ty</tspan>
</text>
</g>
<g transform="translate(9.1665, 40.1075)">
<rect x="-0.0363" y="-2.0000" width="0.0725" height="3.3206" ry="0.0363" fill="currentColor"/>
</g>
<g transform="translate(14.4969, 41.1075)">
<path transform="scale(0.0040, -0.0040)" d="M215 137c67 0 111 -37 111 -92c0 -90 -111 -182 -215 -182c-67 0 -111 37 -111 92c0 90 111 182 215 182z" fill="currentColor"/>
</g>
<g transform="translate(14.1240, 45.6075)">
<text font-family="Noto Serif" font-size="2.4690" text-anchor="start" fill="currentColor">
<tspan>je</tspan>
</text>
</g>
<g transform="translate(15.7634, 40.1075)">
<rect x="-0.0363" y="-2.5000" width="0.0725" height="3.3206" ry="0.0363" fill="currentColor"/>
</g>
<g transform="translate(4.3000, 38.1075)">
<path transform="scale(0.0040, -0.0040)" d="M0 117c0 9 6 18 15 21l43 16v157c0 11 8 19 19 19s20 -8 20 -19v-142l81 30v156c0 11 9 20 20 20s19 -9 19 -20v-142l28 11c3 1 5 1 8 1c12 0 22 -10 22 -23v-57c0 -9 -6 -18 -15 -21l-43 -16v-157l28 10c3 1 5 1 8 1c12 0 22 -9 22 -22v-57c0 -9 -6 -18 -15 -21l-43 -16
v-157c0 -11 -8 -19 -19 -19s-20 8 -20 19v142l-81 -30v-156c0 -11 -9 -20 -20 -20s-19 9 -19 20v142l-28 -11c-3 -1 -5 -1 -8 -1c-12 0 -22 10 -22 23v57c0 9 6 18 15 21l43 16v157l-28 -10c-3 -1 -5 -1 -8 -1c-12 0 -22 9 -22 22v57zM178 94l-81 -30v-158l81 30v158z" fill="currentColor"/>
</g>
<g transform="translate(0.8000, 41.1075)">
<path transform="scale(0.0040, -0.0040)" d="M646 2c0 -113 -74 -213 -180 -247c3 -34 5 -68 5 -102c0 -20 -1 -40 -2 -60c-7 -121 -91 -228 -209 -228c-108 0 -196 87 -196 196c0 58 53 104 112 104c54 0 95 -48 95 -104c0 -52 -43 -95 -95 -95c-10 0 -20 2 -29 6c26 -38 68 -63 116 -63h3c93 2 153 92 159 190
c1 19 2 37 2 56c0 30 -2 60 -4 90c-5 -1 -43 -8 -88 -8c-194 0 -333 180 -333 375c0 177 130 307 246 442c-31 98 -53 170 -53 347c0 115 55 223 148 290c7 5 16 4 22 -1c68 -80 134 -243 134 -357c0 -143 -85 -255 -178 -364c21 -68 40 -137 57 -206c1 0 5 1 11 1
c156 0 257 -129 257 -262zM462 -202c66 24 111 88 111 162c0 89 -65 178 -170 190c28 -135 50 -272 59 -352zM75 26c0 -145 141 -245 263 -245c1 0 46 0 81 6c-7 65 -27 206 -61 363c-79 -8 -124 -61 -124 -119c0 -43 25 -89 80 -121c5 -5 7 -11 7 -16
c0 -12 -10 -23 -22 -23c-16 0 -127 63 -127 188c0 89 58 175 161 198c-14 58 -29 116 -46 173c-106 -122 -212 -244 -212 -404zM406 1042c-99 -47 -162 -148 -162 -257c0 -49 13 -111 38 -191c79 97 144 199 144 324c0 33 0 63 -20 124z" fill="currentColor"/>
</g>
<g transform="translate(28.9039, 45.6075)">
<text font-family="Noto Serif" font-size="2.4690" text-anchor="start" fill="currentColor">
<tspan>ná,</tspan>
</text>
</g>
<g transform="translate(21.0937, 40.6075)">
<path transform="scale(0.0040, -0.0040)" d="M215 137c67 0 111 -37 111 -92c0 -90 -111 -182 -215 -182c-67 0 -111 37 -111 92c0 90 111 182 215 182z" fill="currentColor"/>
</g>
<g transform="translate(30.0575, 40.1075)">
<rect x="-0.0363" y="0.2530" width="0.0725" height="3.0804" ry="0.0363" fill="currentColor"/>
</g>
<g transform="translate(40.3560, 41.1075)">
<path transform="scale(0.0040, -0.0040)" d="M215 137c67 0 111 -37 111 -92c0 -90 -111 -182 -215 -182c-67 0 -111 37 -111 92c0 90 111 182 215 182z" fill="currentColor"/>
</g>
<g transform="translate(39.8626, 45.6075)">
<text font-family="Noto Serif" font-size="2.4690" text-anchor="start" fill="currentColor">
<tspan>ty</tspan>
</text>
</g>
<g transform="translate(41.6226, 40.1075)">
<rect x="-0.0363" y="-2.5000" width="0.0725" height="3.3206" ry="0.0363" fill="currentColor"/>
</g>
<g transform="translate(20.5803, 45.6075)">
<text font-family="Noto Serif" font-size="2.4690" text-anchor="start" fill="currentColor">
<tspan>di</tspan>
</text>
</g>
<g transform="translate(22.3603, 40.1075)">
<rect x="-0.0363" y="-3.0000" width="0.0725" height="3.3206" ry="0.0363" fill="currentColor"/>
</g>
<g transform="translate(30.0212, 40.1075)">
<path transform="scale(0.0040, -0.0040)" d="M312 64c0 23 -18 41 -41 41c-39 0 -201 -110 -228 -142c-7 -8 -10 -17 -10 -27c0 -23 18 -41 41 -41c39 0 201 110 228 142c7 8 10 17 10 27zM259 137c46 0 86 -17 86 -74c0 -26 -15 -112 -73 -151c-29 -20 -89 -49 -186 -49c-46 0 -86 17 -86 74c0 26 16 112 74 151
c29 20 88 49 185 49z" fill="currentColor"/>
</g>
<g transform="translate(0.0000, 54.1075)">
<line stroke-linejoin="round" stroke-linecap="round" stroke-width="0.0558" stroke="currentColor" x1="0.0279" y1="0" x2="82.3177" y2="0"/>
</g>
<g transform="translate(0.0000, 53.1075)">
<line stroke-linejoin="round" stroke-linecap="round" stroke-width="0.0558" stroke="currentColor" x1="0.0279" y1="0" x2="82.3177" y2="0"/>
</g>
<g transform="translate(0.0000, 52.1075)">
<line stroke-linejoin="round" stroke-linecap="round" stroke-width="0.0558" stroke="currentColor" x1="0.0279" y1="0" x2="82.3177" y2="0"/>
</g>
<g transform="translate(0.0000, 51.1075)">
<line stroke-linejoin="round" stroke-linecap="round" stroke-width="0.0558" stroke="currentColor" x1="0.0279" y1="0" x2="82.3177" y2="0"/>
</g>
<g transform="translate(0.0000, 50.1075)">
<line stroke-linejoin="round" stroke-linecap="round" stroke-width="0.0558" stroke="currentColor" x1="0.0279" y1="0" x2="82.3177" y2="0"/>
</g>
<g transform="translate(82.1336, 52.1075)">
<rect x="0.0000" y="-2.0000" width="0.2120" height="4.0000" ry="0.0000" fill="currentColor"/>
</g>
<g transform="translate(66.8193, 52.1075)">
<rect x="0.0000" y="-2.0000" width="0.2120" height="4.0000" ry="0.0000" fill="currentColor"/>
</g>
<g transform="translate(45.4188, 52.1075)">
<rect x="0.0000" y="-2.0000" width="0.2120" height="4.0000" ry="0.0000" fill="currentColor"/>
</g>
<g transform="translate(27.0066, 52.1075)">
<rect x="0.0000" y="-2.0000" width="0.2120" height="4.0000" ry="0.0000" fill="currentColor"/>
</g>
<g transform="translate(54.0898, 52.1075)">
<rect x="-0.0363" y="-0.3206" width="0.0725" height="3.3206" ry="0.0363" fill="currentColor"/>
</g>
<g transform="translate(60.5014, 52.1075)">
<path transform="scale(0.0040, -0.0040)" d="M215 137c67 0 111 -37 111 -92c0 -90 -111 -182 -215 -182c-67 0 -111 37 -111 92c0 90 111 182 215 182z" fill="currentColor"/>
</g>
<g transform="translate(60.4499, 57.6075)">
<text font-family="Noto Serif" font-size="2.4690" text-anchor="start" fill="currentColor">
<tspan>á</tspan>
</text>
</g>
<g transform="translate(60.5377, 52.1075)">
<rect x="-0.0363" y="0.1794" width="0.0725" height="3.1540" ry="0.0363" fill="currentColor"/>
</g>
<g transform="translate(53.4396, 57.6075)">
<text font-family="Noto Serif" font-size="2.4690" text-anchor="start" fill="currentColor">
<tspan>ce</tspan>
</text>
</g>
<g transform="translate(69.8449, 52.6075)">
<path transform="scale(0.0040, -0.0040)" d="M312 64c0 23 -18 41 -41 41c-39 0 -201 -110 -228 -142c-7 -8 -10 -17 -10 -27c0 -23 18 -41 41 -41c39 0 201 110 228 142c7 8 10 17 10 27zM259 137c46 0 86 -17 86 -74c0 -26 -15 -112 -73 -151c-29 -20 -89 -49 -186 -49c-46 0 -86 17 -86 74c0 26 16 112 74 151
c29 20 88 49 185 49z" fill="currentColor"/>
</g>
<g transform="translate(68.6472, 57.6075)">
<text font-family="Noto Serif" font-size="2.4690" text-anchor="start" fill="currentColor">
<tspan>nů,</tspan>
</text>
</g>
<g transform="translate(47.5540, 57.6075)">
<text font-family="Noto Serif" font-size="2.4690" text-anchor="start" fill="currentColor">
<tspan>o</tspan>
</text>
</g>
<g transform="translate(47.6418, 52.1075)">
<rect x="-0.0363" y="-0.8206" width="0.0725" height="3.3206" ry="0.0363" fill="currentColor"/>
</g>
<g transform="translate(71.6714, 52.6075)">
<path transform="scale(0.0040, -0.0040)" d="M0 0c0 31 25 56 56 56s55 -25 55 -56s-24 -56 -55 -56s-56 25 -56 56z" fill="currentColor"/>
</g>
<g transform="translate(54.0535, 51.6075)">
<path transform="scale(0.0040, -0.0040)" d="M215 137c67 0 111 -37 111 -92c0 -90 -111 -182 -215 -182c-67 0 -111 37 -111 92c0 90 111 182 215 182z" fill="currentColor"/>
</g>
<g transform="translate(18.0540, 57.6075)">
<rect x="0.0000" y="-0.5651" width="0.6600" height="0.1451" ry="0.0446" fill="currentColor"/>
</g>
<g transform="translate(25.3334, 57.6075)">
<rect x="0.0000" y="-0.5651" width="0.6600" height="0.1451" ry="0.0446" fill="currentColor"/>
</g>
<g transform="translate(34.4357, 57.6075)">
<rect x="0.0000" y="-0.5651" width="0.6600" height="0.1451" ry="0.0446" fill="currentColor"/>
</g>
<g transform="translate(50.8697, 57.6075)">
<rect x="0.0000" y="-0.5651" width="0.6600" height="0.1451" ry="0.0446" fill="currentColor"/>
</g>
<g transform="translate(57.8801, 57.6075)">
<rect x="0.0000" y="-0.5651" width="0.6600" height="0.1451" ry="0.0446" fill="currentColor"/>
</g>
<g transform="translate(64.9215, 57.6075)">
<rect x="0.0000" y="-0.5651" width="0.6600" height="0.1451" ry="0.0446" fill="currentColor"/>
</g>
<g transform="translate(80.6336, 50.1075)">
<path transform="scale(0.0040, -0.0040)" d="M62 158c38 0 68 -31 68 -69v-20c0 -110 -103 -165 -116 -165c-8 0 -14 6 -14 14c0 18 69 25 83 123h-28c-30 0 -55 25 -55 55c0 34 28 62 62 62z" fill="currentColor"/>
</g>
<g transform="translate(71.1892, 52.1075)">
<rect x="-0.0363" y="-3.0000" width="0.0725" height="3.2470" ry="0.0363" fill="currentColor"/>
</g>
<g transform="translate(5.3781, 57.6075)">
<text font-family="Noto Serif" font-size="2.4690" text-anchor="start" fill="currentColor">
<tspan>přijď,</tspan>
</text>
</g>
<g transform="translate(7.9363, 52.1075)">
<rect x="-0.0363" y="-0.8206" width="0.0725" height="3.3206" ry="0.0363" fill="currentColor"/>
</g>
<g transform="translate(14.3480, 51.1075)">
<path transform="scale(0.0040, -0.0040)" d="M215 137c67 0 111 -37 111 -92c0 -90 -111 -182 -215 -182c-67 0 -111 37 -111 92c0 90 111 182 215 182z" fill="currentColor"/>
</g>
<g transform="translate(13.5131, 57.6075)">
<text font-family="Noto Serif" font-size="2.4690" text-anchor="start" fill="currentColor">
<tspan>ho</tspan>
</text>
</g>
<g transform="translate(14.3842, 52.1075)">
<rect x="-0.0363" y="-0.8206" width="0.0725" height="3.3206" ry="0.0363" fill="currentColor"/>
</g>
<g transform="translate(7.9000, 51.1075)">
<path transform="scale(0.0040, -0.0040)" d="M215 137c67 0 111 -37 111 -92c0 -90 -111 -182 -215 -182c-67 0 -111 37 -111 92c0 90 111 182 215 182z" fill="currentColor"/>
</g>
<g transform="translate(20.7959, 50.6075)">
<path transform="scale(0.0040, -0.0040)" d="M215 137c67 0 111 -37 111 -92c0 -90 -111 -182 -215 -182c-67 0 -111 37 -111 92c0 90 111 182 215 182z" fill="currentColor"/>
</g>
<g transform="translate(20.2824, 57.6075)">
<text font-family="Noto Serif" font-size="2.4690" text-anchor="start" fill="currentColor">
<tspan>lu</tspan>
</text>
</g>
<g transform="translate(20.8322, 52.1075)">
<rect x="-0.0363" y="-1.3206" width="0.0725" height="3.3206" ry="0.0363" fill="currentColor"/>
</g>
<g transform="translate(0.8000, 53.1075)">
<path transform="scale(0.0040, -0.0040)" d="M646 2c0 -113 -74 -213 -180 -247c3 -34 5 -68 5 -102c0 -20 -1 -40 -2 -60c-7 -121 -91 -228 -209 -228c-108 0 -196 87 -196 196c0 58 53 104 112 104c54 0 95 -48 95 -104c0 -52 -43 -95 -95 -95c-10 0 -20 2 -29 6c26 -38 68 -63 116 -63h3c93 2 153 92 159 190
c1 19 2 37 2 56c0 30 -2 60 -4 90c-5 -1 -43 -8 -88 -8c-194 0 -333 180 -333 375c0 177 130 307 246 442c-31 98 -53 170 -53 347c0 115 55 223 148 290c7 5 16 4 22 -1c68 -80 134 -243 134 -357c0 -143 -85 -255 -178 -364c21 -68 40 -137 57 -206c1 0 5 1 11 1
c156 0 257 -129 257 -262zM462 -202c66 24 111 88 111 162c0 89 -65 178 -170 190c28 -135 50 -272 59 -352zM75 26c0 -145 141 -245 263 -245c1 0 46 0 81 6c-7 65 -27 206 -61 363c-79 -8 -124 -61 -124 -119c0 -43 25 -89 80 -121c5 -5 7 -11 7 -16
c0 -12 -10 -23 -22 -23c-16 0 -127 63 -127 188c0 89 58 175 161 198c-14 58 -29 116 -46 173c-106 -122 -212 -244 -212 -404zM406 1042c-99 -47 -162 -148 -162 -257c0 -49 13 -111 38 -191c79 97 144 199 144 324c0 33 0 63 -20 124z" fill="currentColor"/>
</g>
<g transform="translate(4.3000, 50.1075)">
<path transform="scale(0.0040, -0.0040)" d="M0 117c0 9 6 18 15 21l43 16v157c0 11 8 19 19 19s20 -8 20 -19v-142l81 30v156c0 11 9 20 20 20s19 -9 19 -20v-142l28 11c3 1 5 1 8 1c12 0 22 -10 22 -23v-57c0 -9 -6 -18 -15 -21l-43 -16v-157l28 10c3 1 5 1 8 1c12 0 22 -9 22 -22v-57c0 -9 -6 -18 -15 -21l-43 -16
v-157c0 -11 -8 -19 -19 -19s-20 8 -20 19v142l-81 -30v-156c0 -11 -9 -20 -20 -20s-19 9 -19 20v142l-28 -11c-3 -1 -5 -1 -8 -1c-12 0 -22 10 -22 23v57c0 9 6 18 15 21l43 16v157l-28 -10c-3 -1 -5 -1 -8 -1c-12 0 -22 9 -22 22v57zM178 94l-81 -30v-158l81 30v158z" fill="currentColor"/>
</g>
<g transform="translate(47.6056, 51.1075)">
<path transform="scale(0.0040, -0.0040)" d="M215 137c67 0 111 -37 111 -92c0 -90 -111 -182 -215 -182c-67 0 -111 37 -111 92c0 90 111 182 215 182z" fill="currentColor"/>
</g>
<g transform="translate(39.1372, 52.1075)">
<rect x="-0.0363" y="0.1794" width="0.0725" height="3.1540" ry="0.0363" fill="currentColor"/>
</g>
<g transform="translate(38.4870, 57.6075)">
<text font-family="Noto Serif" font-size="2.4690" text-anchor="start" fill="currentColor">
<tspan>ce</tspan>
</text>
</g>
<g transform="translate(39.1009, 52.1075)">
<path transform="scale(0.0040, -0.0040)" d="M215 137c67 0 111 -37 111 -92c0 -90 -111 -182 -215 -182c-67 0 -111 37 -111 92c0 90 111 182 215 182z" fill="currentColor"/>
</g>
<g transform="translate(29.2254, 52.1075)">
<rect x="-0.0363" y="-0.7470" width="0.0725" height="3.2470" ry="0.0363" fill="currentColor"/>
</g>
<g transform="translate(28.7146, 57.6075)">
<text font-family="Noto Serif" font-size="2.4690" text-anchor="start" fill="currentColor">
<tspan>bi</tspan>
</text>
</g>
<g transform="translate(29.1892, 51.1075)">
<path transform="scale(0.0040, -0.0040)" d="M312 64c0 23 -18 41 -41 41c-39 0 -201 -110 -228 -142c-7 -8 -10 -17 -10 -27c0 -23 18 -41 41 -41c39 0 201 110 228 142c7 8 10 17 10 27zM259 137c46 0 86 -17 86 -74c0 -26 -15 -112 -73 -151c-29 -20 -89 -49 -186 -49c-46 0 -86 17 -86 74c0 26 16 112 74 151
c29 20 88 49 185 49z" fill="currentColor"/>
</g>
<g transform="translate(0.0000, 66.1075)">
<line stroke-linejoin="round" stroke-linecap="round" stroke-width="0.0558" stroke="currentColor" x1="0.0279" y1="0" x2="82.3177" y2="0"/>
</g>
<g transform="translate(0.0000, 65.1075)">
<line stroke-linejoin="round" stroke-linecap="round" stroke-width="0.0558" stroke="currentColor" x1="0.0279" y1="0" x2="82.3177" y2="0"/>
</g>
<g transform="translate(0.0000, 64.1075)">
<line stroke-linejoin="round" stroke-linecap="round" stroke-width="0.0558" stroke="currentColor" x1="0.0279" y1="0" x2="82.3177" y2="0"/>
</g>
<g transform="translate(0.0000, 63.1075)">
<line stroke-linejoin="round" stroke-linecap="round" stroke-width="0.0558" stroke="currentColor" x1="0.0279" y1="0" x2="82.3177" y2="0"/>
</g>
<g transform="translate(0.0000, 62.1075)">
<line stroke-linejoin="round" stroke-linecap="round" stroke-width="0.0558" stroke="currentColor" x1="0.0279" y1="0" x2="82.3177" y2="0"/>
</g>
<g transform="translate(82.1336, 64.1075)">
<rect x="0.0000" y="-2.0000" width="0.2120" height="4.0000" ry="0.0000" fill="currentColor"/>
</g>
<g transform="translate(66.8722, 64.1075)">
<rect x="0.0000" y="-2.0000" width="0.2120" height="4.0000" ry="0.0000" fill="currentColor"/>
</g>
<g transform="translate(45.5880, 64.1075)">
<rect x="0.0000" y="-2.0000" width="0.2120" height="4.0000" ry="0.0000" fill="currentColor"/>
</g>
<g transform="translate(27.1389, 64.1075)">
<rect x="0.0000" y="-2.0000" width="0.2120" height="4.0000" ry="0.0000" fill="currentColor"/>
</g>
<g transform="translate(55.3000, 64.1075)">
<rect x="-0.0363" y="-3.0000" width="0.0725" height="3.3206" ry="0.0363" fill="currentColor"/>
</g>
<g transform="translate(60.2092, 65.6075)">
<path transform="scale(0.0040, -0.0040)" d="M215 137c67 0 111 -37 111 -92c0 -90 -111 -182 -215 -182c-67 0 -111 37 -111 92c0 90 111 182 215 182z" fill="currentColor"/>
</g>
<g transform="translate(59.4145, 69.6075)">
<text font-family="Noto Serif" font-size="2.4690" text-anchor="start" fill="currentColor">
<tspan>Pá</tspan>
</text>
</g>
<g transform="translate(61.4757, 64.1075)">
<rect x="-0.0363" y="-2.0000" width="0.0725" height="3.3206" ry="0.0363" fill="currentColor"/>
</g>
<g transform="translate(52.7366, 69.6075)">
<text font-family="Noto Serif" font-size="2.4690" text-anchor="start" fill="currentColor">
<tspan>mu</tspan>
</text>
</g>
<g transform="translate(69.8919, 66.1075)">
<path transform="scale(0.0040, -0.0040)" d="M312 64c0 23 -18 41 -41 41c-39 0 -201 -110 -228 -142c-7 -8 -10 -17 -10 -27c0 -23 18 -41 41 -41c39 0 201 110 228 142c7 8 10 17 10 27zM259 137c46 0 86 -17 86 -74c0 -26 -15 -112 -73 -151c-29 -20 -89 -49 -186 -49c-46 0 -86 17 -86 74c0 26 16 112 74 151
c29 20 88 49 185 49z" fill="currentColor"/>
</g>
<g transform="translate(68.9955, 69.6075)">
<text font-family="Noto Serif" font-size="2.4690" text-anchor="start" fill="currentColor">
<tspan>nu</tspan>
</text>
</g>
<g transform="translate(46.3109, 69.6075)">
<text font-family="Noto Serif" font-size="2.4690" text-anchor="start" fill="currentColor">
<tspan>své</tspan>
</text>
</g>
<g transform="translate(48.8742, 64.1075)">
<rect x="-0.0363" y="-2.5000" width="0.0725" height="3.3206" ry="0.0363" fill="currentColor"/>
</g>
<g transform="translate(71.7184, 65.6075)">
<path transform="scale(0.0040, -0.0040)" d="M0 0c0 31 25 56 56 56s55 -25 55 -56s-24 -56 -55 -56s-56 25 -56 56z" fill="currentColor"/>
</g>
<g transform="translate(54.0334, 64.6075)">
<path transform="scale(0.0040, -0.0040)" d="M215 137c67 0 111 -37 111 -92c0 -90 -111 -182 -215 -182c-67 0 -111 37 -111 92c0 90 111 182 215 182z" fill="currentColor"/>
</g>
<g transform="translate(17.8557, 69.6075)">
<rect x="0.0000" y="-0.5651" width="0.6600" height="0.1451" ry="0.0446" fill="currentColor"/>
</g>
<g transform="translate(24.5082, 69.6075)">
<rect x="0.0000" y="-0.5651" width="0.6600" height="0.1451" ry="0.0446" fill="currentColor"/>
</g>
<g transform="translate(51.1419, 69.6075)">
<rect x="0.0000" y="-0.5651" width="0.6600" height="0.1451" ry="0.0446" fill="currentColor"/>
</g>
<g transform="translate(65.3211, 69.6075)">
<rect x="0.0000" y="-0.5651" width="0.6600" height="0.1451" ry="0.0446" fill="currentColor"/>
</g>
<g transform="translate(80.6336, 62.1075)">
<path transform="scale(0.0040, -0.0040)" d="M62 158c38 0 68 -31 68 -69v-20c0 -110 -103 -165 -116 -165c-8 0 -14 6 -14 14c0 18 69 25 83 123h-28c-30 0 -55 25 -55 55c0 34 28 62 62 62z" fill="currentColor"/>
</g>
<g transform="translate(71.2362, 64.1075)">
<rect x="-0.0363" y="-1.5000" width="0.0725" height="3.2470" ry="0.0363" fill="currentColor"/>
</g>
<g transform="translate(5.7597, 69.6075)">
<text font-family="Noto Serif" font-size="2.4690" text-anchor="start" fill="currentColor">
<tspan>když</tspan>
</text>
</g>
<g transform="translate(9.1665, 64.1075)">
<rect x="-0.0363" y="-2.5000" width="0.0725" height="3.3206" ry="0.0363" fill="currentColor"/>
</g>
<g transform="translate(14.3258, 65.1075)">
<path transform="scale(0.0040, -0.0040)" d="M215 137c67 0 111 -37 111 -92c0 -90 -111 -182 -215 -182c-67 0 -111 37 -111 92c0 90 111 182 215 182z" fill="currentColor"/>
</g>
<g transform="translate(13.7721, 69.6075)">
<text font-family="Noto Serif" font-size="2.4690" text-anchor="start" fill="currentColor">
<tspan>zr</tspan>
</text>
</g>
<g transform="translate(15.5923, 64.1075)">
<rect x="-0.0363" y="-2.5000" width="0.0725" height="3.3206" ry="0.0363" fill="currentColor"/>
</g>
<g transform="translate(7.9000, 65.1075)">
<path transform="scale(0.0040, -0.0040)" d="M215 137c67 0 111 -37 111 -92c0 -90 -111 -182 -215 -182c-67 0 -111 37 -111 92c0 90 111 182 215 182z" fill="currentColor"/>
</g>
<g transform="translate(20.8432, 64.1075)">
<path transform="scale(0.0040, -0.0040)" d="M215 137c67 0 111 -37 111 -92c0 -90 -111 -182 -215 -182c-67 0 -111 37 -111 92c0 90 111 182 215 182z" fill="currentColor"/>
</g>
<g transform="translate(20.1891, 69.6075)">
<text font-family="Noto Serif" font-size="2.4690" text-anchor="start" fill="currentColor">
<tspan>ca</tspan>
</text>
</g>
<g transform="translate(20.8795, 64.1075)">
<rect x="-0.0363" y="0.1794" width="0.0725" height="3.1540" ry="0.0363" fill="currentColor"/>
</g>
<g transform="translate(0.8000, 65.1075)">
<path transform="scale(0.0040, -0.0040)" d="M646 2c0 -113 -74 -213 -180 -247c3 -34 5 -68 5 -102c0 -20 -1 -40 -2 -60c-7 -121 -91 -228 -209 -228c-108 0 -196 87 -196 196c0 58 53 104 112 104c54 0 95 -48 95 -104c0 -52 -43 -95 -95 -95c-10 0 -20 2 -29 6c26 -38 68 -63 116 -63h3c93 2 153 92 159 190
c1 19 2 37 2 56c0 30 -2 60 -4 90c-5 -1 -43 -8 -88 -8c-194 0 -333 180 -333 375c0 177 130 307 246 442c-31 98 -53 170 -53 347c0 115 55 223 148 290c7 5 16 4 22 -1c68 -80 134 -243 134 -357c0 -143 -85 -255 -178 -364c21 -68 40 -137 57 -206c1 0 5 1 11 1
c156 0 257 -129 257 -262zM462 -202c66 24 111 88 111 162c0 89 -65 178 -170 190c28 -135 50 -272 59 -352zM75 26c0 -145 141 -245 263 -245c1 0 46 0 81 6c-7 65 -27 206 -61 363c-79 -8 -124 -61 -124 -119c0 -43 25 -89 80 -121c5 -5 7 -11 7 -16
c0 -12 -10 -23 -22 -23c-16 0 -127 63 -127 188c0 89 58 175 161 198c-14 58 -29 116 -46 173c-106 -122 -212 -244 -212 -404zM406 1042c-99 -47 -162 -148 -162 -257c0 -49 13 -111 38 -191c79 97 144 199 144 324c0 33 0 63 -20 124z" fill="currentColor"/>
</g>
<g transform="translate(4.3000, 62.1075)">
<path transform="scale(0.0040, -0.0040)" d="M0 117c0 9 6 18 15 21l43 16v157c0 11 8 19 19 19s20 -8 20 -19v-142l81 30v156c0 11 9 20 20 20s19 -9 19 -20v-142l28 11c3 1 5 1 8 1c12 0 22 -10 22 -23v-57c0 -9 -6 -18 -15 -21l-43 -16v-157l28 10c3 1 5 1 8 1c12 0 22 -9 22 -22v-57c0 -9 -6 -18 -15 -21l-43 -16
v-157c0 -11 -8 -19 -19 -19s-20 8 -20 19v142l-81 -30v-156c0 -11 -9 -20 -20 -20s-19 9 -19 20v142l-28 -11c-3 -1 -5 -1 -8 -1c-12 0 -22 10 -22 23v57c0 9 6 18 15 21l43 16v157l-28 -10c-3 -1 -5 -1 -8 -1c-12 0 -22 9 -22 22v57zM178 94l-81 -30v-158l81 30v158z" fill="currentColor"/>
</g>
<g transform="translate(47.6076, 65.1075)">
<path transform="scale(0.0040, -0.0040)" d="M215 137c67 0 111 -37 111 -92c0 -90 -111 -182 -215 -182c-67 0 -111 37 -111 92c0 90 111 182 215 182z" fill="currentColor"/>
</g>
<g transform="translate(39.3285, 64.1075)">
<rect x="-0.0363" y="0.1794" width="0.0725" height="3.1540" ry="0.0363" fill="currentColor"/>
</g>
<g transform="translate(38.1160, 69.6075)">
<text font-family="Noto Serif" font-size="2.4690" text-anchor="start" fill="currentColor">
<tspan>byl</tspan>
</text>
</g>
<g transform="translate(39.2922, 64.1075)">
<path transform="scale(0.0040, -0.0040)" d="M215 137c67 0 111 -37 111 -92c0 -90 -111 -182 -215 -182c-67 0 -111 37 -111 92c0 90 111 182 215 182z" fill="currentColor"/>
</g>
<g transform="translate(30.5029, 64.1075)">
<rect x="-0.0363" y="-3.0000" width="0.0725" height="3.2470" ry="0.0363" fill="currentColor"/>
</g>
<g transform="translate(26.8764, 69.6075)">
<text font-family="Noto Serif" font-size="2.4690" text-anchor="start" fill="currentColor">
<tspan>dlem</tspan>
</text>
</g>
<g transform="translate(29.1586, 64.6075)">
<path transform="scale(0.0040, -0.0040)" d="M312 64c0 23 -18 41 -41 41c-39 0 -201 -110 -228 -142c-7 -8 -10 -17 -10 -27c0 -23 18 -41 41 -41c39 0 201 110 228 142c7 8 10 17 10 27zM259 137c46 0 86 -17 86 -74c0 -26 -15 -112 -73 -151c-29 -20 -89 -49 -186 -49c-46 0 -86 17 -86 74c0 26 16 112 74 151
c29 20 88 49 185 49z" fill="currentColor"/>
</g>
<g transform="translate(0.0000, 78.1075)">
<line stroke-linejoin="round" stroke-linecap="round" stroke-width="0.0558" stroke="currentColor" x1="0.0279" y1="0" x2="82.3177" y2="0"/>
</g>
<g transform="translate(0.0000, 77.1075)">
<line stroke-linejoin="round" stroke-linecap="round" stroke-width="0.0558" stroke="currentColor" x1="0.0279" y1="0" x2="82.3177" y2="0"/>
</g>
<g transform="translate(0.0000, 76.1075)">
<line stroke-linejoin="round" stroke-linecap="round" stroke-width="0.0558" stroke="currentColor" x1="0.0279" y1="0" x2="82.3177" y2="0"/>
</g>
<g transform="translate(0.0000, 75.1075)">
<line stroke-linejoin="round" stroke-linecap="round" stroke-width="0.0558" stroke="currentColor" x1="0.0279" y1="0" x2="82.3177" y2="0"/>
</g>
<g transform="translate(0.0000, 74.1075)">
<line stroke-linejoin="round" stroke-linecap="round" stroke-width="0.0558" stroke="currentColor" x1="0.0279" y1="0" x2="82.3177" y2="0"/>
</g>
<g transform="translate(82.1336, 76.1075)">
<rect x="0.0000" y="-2.0000" width="0.2120" height="4.0000" ry="0.0000" fill="currentColor"/>
</g>
<g transform="translate(26.5306, 76.1075)">
<rect x="0.0000" y="-2.0000" width="0.2120" height="4.0000" ry="0.0000" fill="currentColor"/>
</g>
<g transform="translate(46.7946, 76.1075)">
<rect x="0.0000" y="-2.0000" width="0.2120" height="4.0000" ry="0.0000" fill="currentColor"/>
</g>
<g transform="translate(67.4467, 76.1075)">
<rect x="0.0000" y="-2.0000" width="0.2120" height="4.0000" ry="0.0000" fill="currentColor"/>
</g>
<g transform="translate(70.4913, 76.1075)">
<path transform="scale(0.0040, -0.0040)" d="M312 64c0 23 -18 41 -41 41c-39 0 -201 -110 -228 -142c-7 -8 -10 -17 -10 -27c0 -23 18 -41 41 -41c39 0 201 110 228 142c7 8 10 17 10 27zM259 137c46 0 86 -17 86 -74c0 -26 -15 -112 -73 -151c-29 -20 -89 -49 -186 -49c-46 0 -86 17 -86 74c0 26 16 112 74 151
c29 20 88 49 185 49z" fill="currentColor"/>
</g>
<g transform="translate(62.4044, 76.1075)">
<rect x="-0.0363" y="-3.0000" width="0.0725" height="3.3206" ry="0.0363" fill="currentColor"/>
</g>
<g transform="translate(61.1379, 76.6075)">
<path transform="scale(0.0040, -0.0040)" d="M215 137c67 0 111 -37 111 -92c0 -90 -111 -182 -215 -182c-67 0 -111 37 -111 92c0 90 111 182 215 182z" fill="currentColor"/>
</g>
<g transform="translate(55.0513, 76.1075)">
<rect x="-0.0363" y="0.1794" width="0.0725" height="3.1540" ry="0.0363" fill="currentColor"/>
</g>
<g transform="translate(55.0150, 81.6075)">
<text font-family="Noto Serif" font-size="2.4690" text-anchor="start" fill="currentColor">
<tspan>tvůj</tspan>
</text>
</g>
<g transform="translate(55.0150, 76.1075)">
<path transform="scale(0.0040, -0.0040)" d="M215 137c67 0 111 -37 111 -92c0 -90 -111 -182 -215 -182c-67 0 -111 37 -111 92c0 90 111 182 215 182z" fill="currentColor"/>
</g>
<g transform="translate(48.8720, 75.6075)">
<path transform="scale(0.0040, -0.0040)" d="M215 137c67 0 111 -37 111 -92c0 -90 -111 -182 -215 -182c-67 0 -111 37 -111 92c0 90 111 182 215 182z" fill="currentColor"/>
</g>
<g transform="translate(48.0171, 81.6075)">
<text font-family="Noto Serif" font-size="2.4690" text-anchor="start" fill="currentColor">
<tspan>na</tspan>
</text>
</g>
<g transform="translate(48.9083, 76.1075)">
<rect x="-0.0363" y="-0.3206" width="0.0725" height="3.3206" ry="0.0363" fill="currentColor"/>
</g>
<g transform="translate(17.3556, 81.6075)">
<rect x="0.0000" y="-0.5651" width="0.6600" height="0.1451" ry="0.0446" fill="currentColor"/>
</g>
<g transform="translate(25.0394, 81.6075)">
<rect x="0.0000" y="-0.5651" width="0.6600" height="0.1451" ry="0.0446" fill="currentColor"/>
</g>
<g transform="translate(28.4754, 76.1075)">
<path stroke-width="0.0446" stroke-linejoin="round" stroke-linecap="round" stroke="currentColor" fill="currentColor" d="M0.6971 2.1986C2.1414 3.2079 5.6390 2.8378 6.8401 1.5486L6.8401 1.5486C5.6320 2.7712 2.1343 3.1413 0.6971 2.1986z"/>
</g>
<g transform="translate(34.8853, 81.6075)">
<rect x="0.0000" y="-0.5651" width="0.6600" height="0.1451" ry="0.0446" fill="currentColor"/>
</g>
<g transform="translate(55.0150, 76.1075)">
<path stroke-width="0.0446" stroke-linejoin="round" stroke-linecap="round" stroke="currentColor" fill="currentColor" d="M0.6953 -1.1904C2.1683 -2.1942 5.8194 -1.8209 7.0531 -0.5404L7.0531 -0.5404C5.8126 -1.7543 2.1615 -2.1276 0.6953 -1.1904z"/>
</g>
<g transform="translate(72.3178, 75.6075)">
<path transform="scale(0.0040, -0.0040)" d="M0 0c0 31 25 56 56 56s55 -25 55 -56s-24 -56 -55 -56s-56 25 -56 56z" fill="currentColor"/>
</g>
<g transform="translate(70.5276, 76.1075)">
<rect x="-0.0363" y="0.2530" width="0.0725" height="3.0804" ry="0.0363" fill="currentColor"/>
</g>
<g transform="translate(68.0685, 81.6075)">
<text font-family="Noto Serif" font-size="2.4690" text-anchor="start" fill="currentColor">
<tspan>dech,</tspan>
</text>
</g>
<g transform="translate(80.6336, 74.1075)">
<path transform="scale(0.0040, -0.0040)" d="M62 158c38 0 68 -31 68 -69v-20c0 -110 -103 -165 -116 -165c-8 0 -14 6 -14 14c0 18 69 25 83 123h-28c-30 0 -55 25 -55 55c0 34 28 62 62 62z" fill="currentColor"/>
</g>
<g transform="translate(13.4291, 81.6075)">
<text font-family="Noto Serif" font-size="2.4690" text-anchor="start" fill="currentColor">
<tspan>če</tspan>
</text>
</g>
<g transform="translate(7.9000, 78.1075)">
<path transform="scale(0.0040, -0.0040)" d="M215 137c67 0 111 -37 111 -92c0 -90 -111 -182 -215 -182c-67 0 -111 37 -111 92c0 90 111 182 215 182z" fill="currentColor"/>
</g>
<g transform="translate(6.1614, 81.6075)">
<text font-family="Noto Serif" font-size="2.4690" text-anchor="start" fill="currentColor">
<tspan>svět</tspan>
</text>
</g>
<g transform="translate(9.1665, 76.1075)">
<rect x="-0.0363" y="-1.5000" width="0.0725" height="3.3206" ry="0.0363" fill="currentColor"/>
</g>
<g transform="translate(14.0431, 77.6075)">
<path transform="scale(0.0040, -0.0040)" d="M215 137c67 0 111 -37 111 -92c0 -90 -111 -182 -215 -182c-67 0 -111 37 -111 92c0 90 111 182 215 182z" fill="currentColor"/>
</g>
<g transform="translate(15.3096, 76.1075)">
<rect x="-0.0363" y="-2.0000" width="0.0725" height="3.3206" ry="0.0363" fill="currentColor"/>
</g>
<g transform="translate(20.1861, 77.1075)">
<path transform="scale(0.0040, -0.0040)" d="M215 137c67 0 111 -37 111 -92c0 -90 -111 -182 -215 -182c-67 0 -111 37 -111 92c0 90 111 182 215 182z" fill="currentColor"/>
</g>
<g transform="translate(21.4526, 76.1075)">
<rect x="-0.0363" y="-2.5000" width="0.0725" height="3.3206" ry="0.0363" fill="currentColor"/>
</g>
<g transform="translate(19.4115, 81.6075)">
<text font-family="Noto Serif" font-size="2.4690" text-anchor="start" fill="currentColor">
<tspan>ka</tspan>
</text>
</g>
<g transform="translate(0.8000, 77.1075)">
<path transform="scale(0.0040, -0.0040)" d="M646 2c0 -113 -74 -213 -180 -247c3 -34 5 -68 5 -102c0 -20 -1 -40 -2 -60c-7 -121 -91 -228 -209 -228c-108 0 -196 87 -196 196c0 58 53 104 112 104c54 0 95 -48 95 -104c0 -52 -43 -95 -95 -95c-10 0 -20 2 -29 6c26 -38 68 -63 116 -63h3c93 2 153 92 159 190
c1 19 2 37 2 56c0 30 -2 60 -4 90c-5 -1 -43 -8 -88 -8c-194 0 -333 180 -333 375c0 177 130 307 246 442c-31 98 -53 170 -53 347c0 115 55 223 148 290c7 5 16 4 22 -1c68 -80 134 -243 134 -357c0 -143 -85 -255 -178 -364c21 -68 40 -137 57 -206c1 0 5 1 11 1
c156 0 257 -129 257 -262zM462 -202c66 24 111 88 111 162c0 89 -65 178 -170 190c28 -135 50 -272 59 -352zM75 26c0 -145 141 -245 263 -245c1 0 46 0 81 6c-7 65 -27 206 -61 363c-79 -8 -124 -61 -124 -119c0 -43 25 -89 80 -121c5 -5 7 -11 7 -16
c0 -12 -10 -23 -22 -23c-16 0 -127 63 -127 188c0 89 58 175 161 198c-14 58 -29 116 -46 173c-106 -122 -212 -244 -212 -404zM406 1042c-99 -47 -162 -148 -162 -257c0 -49 13 -111 38 -191c79 97 144 199 144 324c0 33 0 63 -20 124z" fill="currentColor"/>
</g>
<g transform="translate(4.3000, 74.1075)">
<path transform="scale(0.0040, -0.0040)" d="M0 117c0 9 6 18 15 21l43 16v157c0 11 8 19 19 19s20 -8 20 -19v-142l81 30v156c0 11 9 20 20 20s19 -9 19 -20v-142l28 11c3 1 5 1 8 1c12 0 22 -10 22 -23v-57c0 -9 -6 -18 -15 -21l-43 -16v-157l28 10c3 1 5 1 8 1c12 0 22 -9 22 -22v-57c0 -9 -6 -18 -15 -21l-43 -16
v-157c0 -11 -8 -19 -19 -19s-20 8 -20 19v142l-81 -30v-156c0 -11 -9 -20 -20 -20s-19 9 -19 20v142l-28 -11c-3 -1 -5 -1 -8 -1c-12 0 -22 10 -22 23v57c0 9 6 18 15 21l43 16v157l-28 -10c-3 -1 -5 -1 -8 -1c-12 0 -22 9 -22 22v57zM178 94l-81 -30v-158l81 30v158z" fill="currentColor"/>
</g>
<g transform="translate(34.6184, 76.6075)">
<path transform="scale(0.0040, -0.0040)" d="M215 137c67 0 111 -37 111 -92c0 -90 -111 -182 -215 -182c-67 0 -111 37 -111 92c0 90 111 182 215 182z" fill="currentColor"/>
</g>
<g transform="translate(35.8850, 76.1075)">
<rect x="-0.0363" y="-3.0000" width="0.0725" height="3.3206" ry="0.0363" fill="currentColor"/>
</g>
<g transform="translate(40.7816, 76.1075)">
<path transform="scale(0.0040, -0.0040)" d="M215 137c67 0 111 -37 111 -92c0 -90 -111 -182 -215 -182c-67 0 -111 37 -111 92c0 90 111 182 215 182z" fill="currentColor"/>
</g>
<g transform="translate(40.4288, 81.6075)">
<text font-family="Noto Serif" font-size="2.4690" text-anchor="start" fill="currentColor">
<tspan>cí</tspan>
</text>
</g>
<g transform="translate(40.8179, 76.1075)">
<rect x="-0.0363" y="0.1794" width="0.0725" height="3.1540" ry="0.0363" fill="currentColor"/>
</g>
<g transform="translate(29.7419, 76.1075)">
<rect x="-0.0363" y="-2.5000" width="0.0725" height="3.3206" ry="0.0363" fill="currentColor"/>
</g>
<g transform="translate(28.4754, 81.6075)">
<text font-family="Noto Serif" font-size="2.4690" text-anchor="start" fill="currentColor">
<tspan>jí</tspan>
</text>
</g>
<g transform="translate(28.4754, 77.1075)">
<path transform="scale(0.0040, -0.0040)" d="M215 137c67 0 111 -37 111 -92c0 -90 -111 -182 -215 -182c-67 0 -111 37 -111 92c0 90 111 182 215 182z" fill="currentColor"/>
</g>
<g transform="translate(0.0000, 90.1075)">
<line stroke-linejoin="round" stroke-linecap="round" stroke-width="0.0558" stroke="currentColor" x1="0.0279" y1="0" x2="82.3177" y2="0"/>
</g>
<g transform="translate(0.0000, 89.1075)">
<line stroke-linejoin="round" stroke-linecap="round" stroke-width="0.0558" stroke="currentColor" x1="0.0279" y1="0" x2="82.3177" y2="0"/>
</g>
<g transform="translate(0.0000, 88.1075)">
<line stroke-linejoin="round" stroke-linecap="round" stroke-width="0.0558" stroke="currentColor" x1="0.0279" y1="0" x2="82.3177" y2="0"/>
</g>
<g transform="translate(0.0000, 87.1075)">
<line stroke-linejoin="round" stroke-linecap="round" stroke-width="0.0558" stroke="currentColor" x1="0.0279" y1="0" x2="82.3177" y2="0"/>
</g>
<g transform="translate(0.0000, 86.1075)">
<line stroke-linejoin="round" stroke-linecap="round" stroke-width="0.0558" stroke="currentColor" x1="0.0279" y1="0" x2="82.3177" y2="0"/>
</g>
<g transform="translate(66.4274, 88.1075)">
<rect x="0.0000" y="-2.0000" width="0.2120" height="4.0000" ry="0.0000" fill="currentColor"/>
</g>
<g transform="translate(26.0252, 88.1075)">
<rect x="0.0000" y="-2.0000" width="0.2120" height="4.0000" ry="0.0000" fill="currentColor"/>
</g>
<g transform="translate(81.6760, 88.1075)">
<rect x="0.0000" y="-2.0000" width="0.6696" height="4.0000" ry="0.0000" fill="currentColor"/>
</g>
<g transform="translate(81.1292, 88.1075)">
<rect x="0.0000" y="-2.0000" width="0.2120" height="4.0000" ry="0.0000" fill="currentColor"/>
</g>
<g transform="translate(46.1778, 88.1075)">
<rect x="0.0000" y="-2.0000" width="0.2120" height="4.0000" ry="0.0000" fill="currentColor"/>
</g>
<g transform="translate(54.2224, 89.1075)">
<path transform="scale(0.0040, -0.0040)" d="M215 137c67 0 111 -37 111 -92c0 -90 -111 -182 -215 -182c-67 0 -111 37 -111 92c0 90 111 182 215 182z" fill="currentColor"/>
</g>
<g transform="translate(52.9658, 93.6075)">
<text font-family="Noto Serif" font-size="2.4690" text-anchor="start" fill="currentColor">
<tspan>srd</tspan>
</text>
</g>
<g transform="translate(55.4889, 88.1075)">
<rect x="-0.0363" y="-2.5000" width="0.0725" height="3.3206" ry="0.0363" fill="currentColor"/>
</g>
<g transform="translate(60.0813, 90.1075)">
<path transform="scale(0.0040, -0.0040)" d="M215 137c67 0 111 -37 111 -92c0 -90 -111 -182 -215 -182c-67 0 -111 37 -111 92c0 90 111 182 215 182z" fill="currentColor"/>
</g>
<g transform="translate(59.4674, 93.6075)">
<text font-family="Noto Serif" font-size="2.4690" text-anchor="start" fill="currentColor">
<tspan>ce</tspan>
</text>
</g>
<g transform="translate(61.3478, 88.1075)">
<rect x="-0.0363" y="-1.5000" width="0.0725" height="3.3206" ry="0.0363" fill="currentColor"/>
</g>
<g transform="translate(69.3631, 89.1075)">
<path transform="scale(0.0040, -0.0040)" d="M312 64c0 23 -18 41 -41 41c-39 0 -201 -110 -228 -142c-7 -8 -10 -17 -10 -27c0 -23 18 -41 41 -41c39 0 201 110 228 142c7 8 10 17 10 27zM259 137c46 0 86 -17 86 -74c0 -26 -15 -112 -73 -151c-29 -20 -89 -49 -186 -49c-46 0 -86 17 -86 74c0 26 16 112 74 151
c29 20 88 49 185 49z" fill="currentColor"/>
</g>
<g transform="translate(48.1135, 88.6075)">
<path transform="scale(0.0040, -0.0040)" d="M215 137c67 0 111 -37 111 -92c0 -90 -111 -182 -215 -182c-67 0 -111 37 -111 92c0 90 111 182 215 182z" fill="currentColor"/>
</g>
<g transform="translate(49.3800, 88.1075)">
<rect x="-0.0363" y="-3.0000" width="0.0725" height="3.3206" ry="0.0363" fill="currentColor"/>
</g>
<g transform="translate(48.0619, 93.6075)">
<text font-family="Noto Serif" font-size="2.4690" text-anchor="start" fill="currentColor">
<tspan>a</tspan>
</text>
</g>
<g transform="translate(17.3044, 93.6075)">
<rect x="0.0000" y="-0.5651" width="0.6600" height="0.1451" ry="0.0446" fill="currentColor"/>
</g>
<g transform="translate(31.6581, 93.6075)">
<rect x="0.0000" y="-0.5651" width="0.6600" height="0.1451" ry="0.0446" fill="currentColor"/>
</g>
<g transform="translate(57.7946, 93.6075)">
<rect x="0.0000" y="-0.5651" width="0.6600" height="0.1451" ry="0.0446" fill="currentColor"/>
</g>
<g transform="translate(66.4181, 93.6075)">
<text font-family="Noto Serif" font-size="2.4690" text-anchor="start" fill="currentColor">
<tspan>všech.</tspan>
</text>
</g>
<g transform="translate(71.1896, 88.6075)">
<path transform="scale(0.0040, -0.0040)" d="M0 0c0 31 25 56 56 56s55 -25 55 -56s-24 -56 -55 -56s-56 25 -56 56z" fill="currentColor"/>
</g>
<g transform="translate(70.7074, 88.1075)">
<rect x="-0.0363" y="-2.5000" width="0.0725" height="3.2470" ry="0.0363" fill="currentColor"/>
</g>
<g transform="translate(13.3950, 93.6075)">
<text font-family="Noto Serif" font-size="2.4690" text-anchor="start" fill="currentColor">
<tspan>če</tspan>
</text>
</g>
<g transform="translate(7.9000, 88.1075)">
<path transform="scale(0.0040, -0.0040)" d="M215 137c67 0 111 -37 111 -92c0 -90 -111 -182 -215 -182c-67 0 -111 37 -111 92c0 90 111 182 215 182z" fill="currentColor"/>
</g>
<g transform="translate(6.7639, 93.6075)">
<text font-family="Noto Serif" font-size="2.4690" text-anchor="start" fill="currentColor">
<tspan>jak</tspan>
</text>
</g>
<g transform="translate(7.9363, 88.1075)">
<rect x="-0.0363" y="0.1794" width="0.0725" height="3.1540" ry="0.0363" fill="currentColor"/>
</g>
<g transform="translate(14.0089, 87.6075)">
<path transform="scale(0.0040, -0.0040)" d="M215 137c67 0 111 -37 111 -92c0 -90 -111 -182 -215 -182c-67 0 -111 37 -111 92c0 90 111 182 215 182z" fill="currentColor"/>
</g>
<g transform="translate(14.0452, 88.1075)">
<rect x="-0.0363" y="-0.3206" width="0.0725" height="3.3206" ry="0.0363" fill="currentColor"/>
</g>
<g transform="translate(20.1178, 87.1075)">
<path transform="scale(0.0040, -0.0040)" d="M215 137c67 0 111 -37 111 -92c0 -90 -111 -182 -215 -182c-67 0 -111 37 -111 92c0 90 111 182 215 182z" fill="currentColor"/>
</g>
<g transform="translate(19.3432, 93.6075)">
<text font-family="Noto Serif" font-size="2.4690" text-anchor="start" fill="currentColor">
<tspan>ká</tspan>
</text>
</g>
<g transform="translate(0.8000, 89.1075)">
<path transform="scale(0.0040, -0.0040)" d="M646 2c0 -113 -74 -213 -180 -247c3 -34 5 -68 5 -102c0 -20 -1 -40 -2 -60c-7 -121 -91 -228 -209 -228c-108 0 -196 87 -196 196c0 58 53 104 112 104c54 0 95 -48 95 -104c0 -52 -43 -95 -95 -95c-10 0 -20 2 -29 6c26 -38 68 -63 116 -63h3c93 2 153 92 159 190
c1 19 2 37 2 56c0 30 -2 60 -4 90c-5 -1 -43 -8 -88 -8c-194 0 -333 180 -333 375c0 177 130 307 246 442c-31 98 -53 170 -53 347c0 115 55 223 148 290c7 5 16 4 22 -1c68 -80 134 -243 134 -357c0 -143 -85 -255 -178 -364c21 -68 40 -137 57 -206c1 0 5 1 11 1
c156 0 257 -129 257 -262zM462 -202c66 24 111 88 111 162c0 89 -65 178 -170 190c28 -135 50 -272 59 -352zM75 26c0 -145 141 -245 263 -245c1 0 46 0 81 6c-7 65 -27 206 -61 363c-79 -8 -124 -61 -124 -119c0 -43 25 -89 80 -121c5 -5 7 -11 7 -16
c0 -12 -10 -23 -22 -23c-16 0 -127 63 -127 188c0 89 58 175 161 198c-14 58 -29 116 -46 173c-106 -122 -212 -244 -212 -404zM406 1042c-99 -47 -162 -148 -162 -257c0 -49 13 -111 38 -191c79 97 144 199 144 324c0 33 0 63 -20 124z" fill="currentColor"/>
</g>
<g transform="translate(20.1541, 88.1075)">
<rect x="-0.0363" y="-0.8206" width="0.0725" height="3.3206" ry="0.0363" fill="currentColor"/>
</g>
<g transform="translate(4.3000, 86.1075)">
<path transform="scale(0.0040, -0.0040)" d="M0 117c0 9 6 18 15 21l43 16v157c0 11 8 19 19 19s20 -8 20 -19v-142l81 30v156c0 11 9 20 20 20s19 -9 19 -20v-142l28 11c3 1 5 1 8 1c12 0 22 -10 22 -23v-57c0 -9 -6 -18 -15 -21l-43 -16v-157l28 10c3 1 5 1 8 1c12 0 22 -9 22 -22v-57c0 -9 -6 -18 -15 -21l-43 -16
v-157c0 -11 -8 -19 -19 -19s-20 8 -20 19v142l-81 -30v-156c0 -11 -9 -20 -20 -20s-19 9 -19 20v142l-28 -11c-3 -1 -5 -1 -8 -1c-12 0 -22 10 -22 23v57c0 9 6 18 15 21l43 16v157l-28 -10c-3 -1 -5 -1 -8 -1c-12 0 -22 9 -22 22v57zM178 94l-81 -30v-158l81 30v158z" fill="currentColor"/>
</g>
<g transform="translate(35.3364, 88.1075)">
<rect x="-0.0363" y="-3.0000" width="0.0725" height="3.3206" ry="0.0363" fill="currentColor"/>
</g>
<g transform="translate(33.4559, 93.6075)">
<text font-family="Noto Serif" font-size="2.4690" text-anchor="start" fill="currentColor">
<tspan>ce</tspan>
</text>
</g>
<g transform="translate(34.0698, 88.6075)">
<path transform="scale(0.0040, -0.0040)" d="M215 137c67 0 111 -37 111 -92c0 -90 -111 -182 -215 -182c-67 0 -111 37 -111 92c0 90 111 182 215 182z" fill="currentColor"/>
</g>
<g transform="translate(40.1989, 88.1075)">
<path transform="scale(0.0040, -0.0040)" d="M215 137c67 0 111 -37 111 -92c0 -90 -111 -182 -215 -182c-67 0 -111 37 -111 92c0 90 111 182 215 182z" fill="currentColor"/>
</g>
<g transform="translate(40.2352, 88.1075)">
<rect x="-0.0363" y="0.1794" width="0.0725" height="3.1540" ry="0.0363" fill="currentColor"/>
</g>
<g transform="translate(39.0227, 93.6075)">
<text font-family="Noto Serif" font-size="2.4690" text-anchor="start" fill="currentColor">
<tspan>mé</tspan>
</text>
</g>
<g transform="translate(27.9609, 89.1075)">
<path transform="scale(0.0040, -0.0040)" d="M215 137c67 0 111 -37 111 -92c0 -90 -111 -182 -215 -182c-67 0 -111 37 -111 92c0 90 111 182 215 182z" fill="currentColor"/>
</g>
<g transform="translate(26.7043, 93.6075)">
<text font-family="Noto Serif" font-size="2.4690" text-anchor="start" fill="currentColor">
<tspan>srd</tspan>
</text>
</g>
<g transform="translate(29.2275, 88.1075)">
<rect x="-0.0363" y="-2.5000" width="0.0725" height="3.3206" ry="0.0363" fill="currentColor"/>
</g>
</svg>
