<svg xmlns="http://www.w3.org/2000/svg" xmlns:xlink="http://www.w3.org/1999/xlink" version="1.2"   viewBox="0.0000 -0.0000 82.3456 15.96295">
<style type="text/css">
<![CDATA[
tspan { white-space: pre; }
]]>
</style>
<g transform="translate(0.0000, 6.1075)">
<line stroke-linejoin="round" stroke-linecap="round" stroke-width="0.0558" stroke="currentColor" x1="0.0279" y1="0" x2="30.8621" y2="0"/>
</g>
<g transform="translate(0.0000, 5.1075)">
<line stroke-linejoin="round" stroke-linecap="round" stroke-width="0.0558" stroke="currentColor" x1="0.0279" y1="0" x2="30.8621" y2="0"/>
</g>
<g transform="translate(0.0000, 4.1075)">
<line stroke-linejoin="round" stroke-linecap="round" stroke-width="0.0558" stroke="currentColor" x1="0.0279" y1="0" x2="30.8621" y2="0"/>
</g>
<g transform="translate(0.0000, 3.1075)">
<line stroke-linejoin="round" stroke-linecap="round" stroke-width="0.0558" stroke="currentColor" x1="0.0279" y1="0" x2="30.8621" y2="0"/>
</g>
<g transform="translate(0.0000, 2.1075)">
<line stroke-linejoin="round" stroke-linecap="round" stroke-width="0.0558" stroke="currentColor" x1="0.0279" y1="0" x2="30.8621" y2="0"/>
</g>
<g transform="translate(30.6779, 4.1075)">
<rect x="0.0000" y="-2.0000" width="0.2120" height="4.0000" ry="0.0000" fill="currentColor"/>
</g>
<g transform="translate(30.1311, 4.1075)">
<rect x="0.0000" y="-2.0000" width="0.2120" height="4.0000" ry="0.0000" fill="currentColor"/>
</g>
<g transform="translate(18.4253, 1.6546)">
<path transform="scale(0.0040, -0.0040)" d="M0 0c0 -197 207 -335 207 -532c0 -71 -15 -141 -41 -207c-5 -8 -13 -12 -21 -12c-14 0 -27 11 -24 28c26 60 42 125 42 191c0 103 -93 207 -163 282h-18v250h18z" fill="currentColor"/>
</g>
<g transform="translate(25.7722, 4.1075)">
<rect x="-0.0363" y="-2.5000" width="0.0725" height="3.3206" ry="0.0363" fill="currentColor"/>
</g>
<g transform="translate(23.5057, 15.3457)">
<text font-family="Noto Serif" font-size="2.4690" text-anchor="start" fill="currentColor">
<tspan>se.</tspan>
</text>
</g>
<g transform="translate(28.1585, 15.3457)">
<text font-family="Noto Serif" font-size="2.4690" text-anchor="start" fill="currentColor">
<tspan>2×</tspan>
</text>
</g>
<g transform="translate(23.5057, 12.5457)">
<text font-family="Noto Serif" font-size="2.4690" text-anchor="start" fill="currentColor">
<tspan>se.</tspan>
</text>
</g>
<g transform="translate(28.1585, 12.5457)">
<text font-family="Noto Serif" font-size="2.4690" text-anchor="start" fill="currentColor">
<tspan>2×</tspan>
</text>
</g>
<g transform="translate(23.5057, 9.7457)">
<text font-family="Noto Serif" font-size="2.4690" text-anchor="start" fill="currentColor">
<tspan>se.</tspan>
</text>
</g>
<g transform="translate(28.1585, 9.7457)">
<text font-family="Noto Serif" font-size="2.4690" text-anchor="start" fill="currentColor">
<tspan>2×</tspan>
</text>
</g>
<g transform="translate(24.5057, 5.1075)">
<path transform="scale(0.0040, -0.0040)" d="M215 137c67 0 111 -37 111 -92c0 -90 -111 -182 -215 -182c-67 0 -111 37 -111 92c0 90 111 182 215 182z" fill="currentColor"/>
</g>
<g transform="translate(22.1807, 2.1546)">
<path transform="scale(0.0040, -0.0040)" d="M0 0c0 -197 207 -335 207 -532c0 -71 -15 -141 -41 -207c-5 -8 -13 -12 -21 -12c-14 0 -27 11 -24 28c26 60 42 125 42 191c0 103 -93 207 -163 282h-18v250h18z" fill="currentColor"/>
</g>
<g transform="translate(22.1444, 4.1075)">
<rect x="-0.0363" y="-2.0000" width="0.0725" height="3.3206" ry="0.0363" fill="currentColor"/>
</g>
<g transform="translate(20.0029, 15.3457)">
<text font-family="Noto Serif" font-size="2.4690" text-anchor="start" fill="currentColor">
<tspan>luj</tspan>
</text>
</g>
<g transform="translate(20.0029, 12.5457)">
<text font-family="Noto Serif" font-size="2.4690" text-anchor="start" fill="currentColor">
<tspan>luj</tspan>
</text>
</g>
<g transform="translate(20.0029, 9.7457)">
<text font-family="Noto Serif" font-size="2.4690" text-anchor="start" fill="currentColor">
<tspan>luj</tspan>
</text>
</g>
<g transform="translate(20.8779, 5.6075)">
<path transform="scale(0.0040, -0.0040)" d="M215 137c67 0 111 -37 111 -92c0 -90 -111 -182 -215 -182c-67 0 -111 37 -111 92c0 90 111 182 215 182z" fill="currentColor"/>
</g>
<g transform="translate(10.8268, 15.3457)">
<rect x="0.0000" y="-0.5651" width="0.5625" height="0.1451" ry="0.0446" fill="currentColor"/>
</g>
<g transform="translate(10.8268, 9.7457)">
<rect x="0.0000" y="-0.5651" width="0.5625" height="0.1451" ry="0.0446" fill="currentColor"/>
</g>
<g transform="translate(7.8646, 9.7457)">
<text font-family="Noto Serif" font-size="2.4690" text-anchor="start" fill="currentColor">
<tspan>Pa</tspan>
</text>
</g>
<g transform="translate(8.7318, 7.4355)">
<path transform="scale(0.0040, -0.0040)" d="M0 0h-18v250h18v-250zM0 0v250c96 59 222 149 222 259c0 57 -15 111 -40 162c-3 17 10 29 24 29c8 0 16 -5 21 -13c25 -56 40 -116 40 -178c0 -203 -267 -306 -267 -509z" fill="currentColor"/>
</g>
<g transform="translate(8.6956, 4.1075)">
<rect x="-0.0363" y="0.1794" width="0.0725" height="3.1956" ry="0.0363" fill="currentColor"/>
</g>
<g transform="translate(7.8646, 15.3457)">
<text font-family="Noto Serif" font-size="2.4690" text-anchor="start" fill="currentColor">
<tspan>Pa</tspan>
</text>
</g>
<g transform="translate(7.4630, 12.5457)">
<text font-family="Noto Serif" font-size="2.4690" text-anchor="start" fill="currentColor">
<tspan>Kri</tspan>
</text>
</g>
<g transform="translate(18.3891, 4.1075)">
<rect x="-0.0363" y="-2.5000" width="0.0725" height="3.3206" ry="0.0363" fill="currentColor"/>
</g>
<g transform="translate(4.4297, 4.1075)">
<path transform="scale(0.0040, -0.0040)" d="M29 39l-2 -64v-11c0 -22 2 -43 5 -65c44 38 91 80 91 138c0 33 -13 66 -42 66c-31 0 -51 -31 -52 -64zM-28 454c9 5 18 8 28 8s19 -3 28 -8l-7 -343c25 23 58 36 92 36c51 0 87 -49 87 -103c0 -79 -84 -117 -144 -169c-16 -14 -25 -41 -47 -41c-14 0 -25 13 -25 27z" fill="currentColor"/>
</g>
<g transform="translate(5.3593, 2.6075)">
<path transform="scale(0.0040, -0.0040)" d="M29 39l-2 -64v-11c0 -22 2 -43 5 -65c44 38 91 80 91 138c0 33 -13 66 -42 66c-31 0 -51 -31 -52 -64zM-28 454c9 5 18 8 28 8s19 -3 28 -8l-7 -343c25 23 58 36 92 36c51 0 87 -49 87 -103c0 -79 -84 -117 -144 -169c-16 -14 -25 -41 -47 -41c-14 0 -25 13 -25 27z" fill="currentColor"/>
</g>
<g transform="translate(0.8000, 5.1075)">
<path transform="scale(0.0040, -0.0040)" d="M646 2c0 -113 -74 -213 -180 -247c3 -34 5 -68 5 -102c0 -20 -1 -40 -2 -60c-7 -121 -91 -228 -209 -228c-108 0 -196 87 -196 196c0 58 53 104 112 104c54 0 95 -48 95 -104c0 -52 -43 -95 -95 -95c-10 0 -20 2 -29 6c26 -38 68 -63 116 -63h3c93 2 153 92 159 190
c1 19 2 37 2 56c0 30 -2 60 -4 90c-5 -1 -43 -8 -88 -8c-194 0 -333 180 -333 375c0 177 130 307 246 442c-31 98 -53 170 -53 347c0 115 55 223 148 290c7 5 16 4 22 -1c68 -80 134 -243 134 -357c0 -143 -85 -255 -178 -364c21 -68 40 -137 57 -206c1 0 5 1 11 1
c156 0 257 -129 257 -262zM462 -202c66 24 111 88 111 162c0 89 -65 178 -170 190c28 -135 50 -272 59 -352zM75 26c0 -145 141 -245 263 -245c1 0 46 0 81 6c-7 65 -27 206 -61 363c-79 -8 -124 -61 -124 -119c0 -43 25 -89 80 -121c5 -5 7 -11 7 -16
c0 -12 -10 -23 -22 -23c-16 0 -127 63 -127 188c0 89 58 175 161 198c-14 58 -29 116 -46 173c-106 -122 -212 -244 -212 -404zM406 1042c-99 -47 -162 -148 -162 -257c0 -49 13 -111 38 -191c79 97 144 199 144 324c0 33 0 63 -20 124z" fill="currentColor"/>
</g>
<g transform="translate(8.6593, 4.1075)">
<path transform="scale(0.0040, -0.0040)" d="M215 137c67 0 111 -37 111 -92c0 -90 -111 -182 -215 -182c-67 0 -111 37 -111 92c0 90 111 182 215 182z" fill="currentColor"/>
</g>
<g transform="translate(13.8781, 1.6546)">
<path transform="scale(0.0040, -0.0040)" d="M0 0c0 -197 207 -335 207 -532c0 -71 -15 -141 -41 -207c-5 -8 -13 -12 -21 -12c-14 0 -27 11 -24 28c26 60 42 125 42 191c0 103 -93 207 -163 282h-18v250h18z" fill="currentColor"/>
</g>
<g transform="translate(15.6450, 15.3457)">
<text font-family="Noto Serif" font-size="2.4690" text-anchor="start" fill="currentColor">
<tspan>smi</tspan>
</text>
</g>
<g transform="translate(15.6450, 12.5457)">
<text font-family="Noto Serif" font-size="2.4690" text-anchor="start" fill="currentColor">
<tspan>smi</tspan>
</text>
</g>
<g transform="translate(15.6450, 9.7457)">
<text font-family="Noto Serif" font-size="2.4690" text-anchor="start" fill="currentColor">
<tspan>smi</tspan>
</text>
</g>
<g transform="translate(17.1225, 5.1075)">
<path transform="scale(0.0040, -0.0040)" d="M215 137c67 0 111 -37 111 -92c0 -90 -111 -182 -215 -182c-67 0 -111 37 -111 92c0 90 111 182 215 182z" fill="currentColor"/>
</g>
<g transform="translate(13.8419, 4.1075)">
<rect x="-0.0363" y="-2.5000" width="0.0725" height="3.3206" ry="0.0363" fill="currentColor"/>
</g>
<g transform="translate(11.4593, 15.3457)">
<text font-family="Noto Serif" font-size="2.4690" text-anchor="start" fill="currentColor">
<tspan>ne,</tspan>
</text>
</g>
<g transform="translate(11.2585, 12.5457)">
<text font-family="Noto Serif" font-size="2.4690" text-anchor="start" fill="currentColor">
<tspan>ste,</tspan>
</text>
</g>
<g transform="translate(11.4593, 9.7457)">
<text font-family="Noto Serif" font-size="2.4690" text-anchor="start" fill="currentColor">
<tspan>ne,</tspan>
</text>
</g>
<g transform="translate(12.5753, 5.1075)">
<path transform="scale(0.0040, -0.0040)" d="M215 137c67 0 111 -37 111 -92c0 -90 -111 -182 -215 -182c-67 0 -111 37 -111 92c0 90 111 182 215 182z" fill="currentColor"/>
</g>
</svg>
