<svg xmlns="http://www.w3.org/2000/svg" xmlns:xlink="http://www.w3.org/1999/xlink" version="1.2" viewBox="0.0000 -0.0000 82.3456 46.65025">
<style type="text/css">
<![CDATA[
tspan { white-space: pre; }
]]>
</style>
<g transform="translate(0.0000, 6.1075)">
<line stroke-linejoin="round" stroke-linecap="round" stroke-width="0.0558" stroke="currentColor" x1="0.0279" y1="0" x2="82.3177" y2="0"/>
</g>
<g transform="translate(0.0000, 5.1075)">
<line stroke-linejoin="round" stroke-linecap="round" stroke-width="0.0558" stroke="currentColor" x1="0.0279" y1="0" x2="82.3177" y2="0"/>
</g>
<g transform="translate(0.0000, 4.1075)">
<line stroke-linejoin="round" stroke-linecap="round" stroke-width="0.0558" stroke="currentColor" x1="0.0279" y1="0" x2="82.3177" y2="0"/>
</g>
<g transform="translate(0.0000, 3.1075)">
<line stroke-linejoin="round" stroke-linecap="round" stroke-width="0.0558" stroke="currentColor" x1="0.0279" y1="0" x2="82.3177" y2="0"/>
</g>
<g transform="translate(0.0000, 2.1075)">
<line stroke-linejoin="round" stroke-linecap="round" stroke-width="0.0558" stroke="currentColor" x1="0.0279" y1="0" x2="82.3177" y2="0"/>
</g>
<g transform="translate(82.1336, 4.1075)">
<rect x="0.0000" y="-2.0000" width="0.2120" height="4.0000" ry="0.0000" fill="currentColor"/>
</g>
<g transform="translate(55.3097, 4.1075)">
<rect x="0.0000" y="-2.0000" width="0.2120" height="4.0000" ry="0.0000" fill="currentColor"/>
</g>
<g transform="translate(24.3755, 4.1075)">
<rect x="0.0000" y="-2.0000" width="0.2120" height="4.0000" ry="0.0000" fill="currentColor"/>
</g>
<g transform="translate(39.0511, 4.1075)">
<rect x="0.0000" y="-2.0000" width="0.2120" height="4.0000" ry="0.0000" fill="currentColor"/>
</g>
<g transform="translate(70.2609, 4.1075)">
<rect x="0.0000" y="-2.0000" width="0.2120" height="4.0000" ry="0.0000" fill="currentColor"/>
</g>
<g transform="translate(56.9529, 5.1075)">
<path transform="scale(0.0040, -0.0040)" d="M215 137c67 0 111 -37 111 -92c0 -90 -111 -182 -215 -182c-67 0 -111 37 -111 92c0 90 111 182 215 182z" fill="currentColor"/>
</g>
<g transform="translate(62.1112, 9.8593)">
<text font-family="Noto Serif" font-size="2.4690" text-anchor="start" fill="currentColor">
<tspan>dos</tspan>
</text>
</g>
<g transform="translate(56.3390, 9.8593)">
<text font-family="Noto Serif" font-size="2.4690" text-anchor="start" fill="currentColor">
<tspan>ra</tspan>
</text>
</g>
<g transform="translate(58.2194, 4.1075)">
<rect x="-0.0363" y="-2.5000" width="0.0725" height="3.3206" ry="0.0363" fill="currentColor"/>
</g>
<g transform="translate(63.4883, 5.6075)">
<path transform="scale(0.0040, -0.0040)" d="M215 137c67 0 111 -37 111 -92c0 -90 -111 -182 -215 -182c-67 0 -111 37 -111 92c0 90 111 182 215 182z" fill="currentColor"/>
</g>
<g transform="translate(69.1295, 9.8593)">
<rect x="0.0000" y="-0.5651" width="0.6600" height="0.1451" ry="0.0446" fill="currentColor"/>
</g>
<g transform="translate(47.3622, 4.1075)">
<path transform="scale(0.0040, -0.0040)" d="M215 137c67 0 111 -37 111 -92c0 -90 -111 -182 -215 -182c-67 0 -111 37 -111 92c0 90 111 182 215 182z" fill="currentColor"/>
</g>
<g transform="translate(46.7483, 9.8593)">
<text font-family="Noto Serif" font-size="2.4690" text-anchor="start" fill="currentColor">
<tspan>so</tspan>
</text>
</g>
<g transform="translate(47.3985, 4.1075)">
<rect x="-0.0363" y="0.1794" width="0.0725" height="3.1956" ry="0.0363" fill="currentColor"/>
</g>
<g transform="translate(47.4348, 7.4355)">
<path transform="scale(0.0040, -0.0040)" d="M0 0h-18v250h18v-250zM0 0v250c96 59 222 149 222 259c0 57 -15 111 -40 162c-3 17 10 29 24 29c8 0 16 -5 21 -13c25 -56 40 -116 40 -178c0 -203 -267 -306 -267 -509z" fill="currentColor"/>
</g>
<g transform="translate(51.2983, 4.6075)">
<path transform="scale(0.0040, -0.0040)" d="M215 137c67 0 111 -37 111 -92c0 -90 -111 -182 -215 -182c-67 0 -111 37 -111 92c0 90 111 182 215 182z" fill="currentColor"/>
</g>
<g transform="translate(49.3790, 9.8593)">
<text font-family="Noto Serif" font-size="2.4690" text-anchor="start" fill="currentColor">
<tspan>tem,</tspan>
</text>
</g>
<g transform="translate(52.5649, 4.1075)">
<rect x="-0.0363" y="-3.0000" width="0.0725" height="3.3206" ry="0.0363" fill="currentColor"/>
</g>
<g transform="translate(52.6012, 1.1546)">
<path transform="scale(0.0040, -0.0040)" d="M0 0c0 -197 207 -335 207 -532c0 -71 -15 -141 -41 -207c-5 -8 -13 -12 -21 -12c-14 0 -27 11 -24 28c26 60 42 125 42 191c0 103 -93 207 -163 282h-18v250h18z" fill="currentColor"/>
</g>
<g transform="translate(11.0785, 9.8593)">
<rect x="0.0000" y="-0.5651" width="0.6600" height="0.1451" ry="0.0446" fill="currentColor"/>
</g>
<g transform="translate(14.7466, 9.8593)">
<rect x="0.0000" y="-0.5651" width="0.6600" height="0.1451" ry="0.0446" fill="currentColor"/>
</g>
<g transform="translate(29.8142, 9.8593)">
<rect x="0.0000" y="-0.5651" width="0.6600" height="0.1451" ry="0.0446" fill="currentColor"/>
</g>
<g transform="translate(44.7574, 9.8593)">
<rect x="0.0000" y="-0.5651" width="0.6600" height="0.1451" ry="0.0446" fill="currentColor"/>
</g>
<g transform="translate(60.1604, 9.8593)">
<rect x="0.0000" y="-0.5651" width="0.6600" height="0.1451" ry="0.0446" fill="currentColor"/>
</g>
<g transform="translate(72.9041, 6.1075)">
<path transform="scale(0.0040, -0.0040)" d="M312 64c0 23 -18 41 -41 41c-39 0 -201 -110 -228 -142c-7 -8 -10 -17 -10 -27c0 -23 18 -41 41 -41c39 0 201 110 228 142c7 8 10 17 10 27zM259 137c46 0 86 -17 86 -74c0 -26 -15 -112 -73 -151c-29 -20 -89 -49 -186 -49c-46 0 -86 17 -86 74c0 26 16 112 74 151
c29 20 88 49 185 49z" fill="currentColor"/>
</g>
<g transform="translate(72.7508, 9.8593)">
<text font-family="Noto Serif" font-size="2.4690" text-anchor="start" fill="currentColor">
<tspan>tí</tspan>
</text>
</g>
<g transform="translate(74.2484, 4.1075)">
<rect x="-0.0363" y="-1.5000" width="0.0725" height="3.2470" ry="0.0363" fill="currentColor"/>
</g>
<g transform="translate(64.7548, 4.1075)">
<rect x="-0.0363" y="-2.0000" width="0.0725" height="3.3206" ry="0.0363" fill="currentColor"/>
</g>
<g transform="translate(80.6336, 2.1075)">
<path transform="scale(0.0040, -0.0040)" d="M62 158c38 0 68 -31 68 -69v-20c0 -110 -103 -165 -116 -165c-8 0 -14 6 -14 14c0 18 69 25 83 123h-28c-30 0 -55 25 -55 55c0 34 28 62 62 62z" fill="currentColor"/>
</g>
<g transform="translate(16.4450, 4.1075)">
<path transform="scale(0.0040, -0.0040)" d="M215 137c67 0 111 -37 111 -92c0 -90 -111 -182 -215 -182c-67 0 -111 37 -111 92c0 90 111 182 215 182z" fill="currentColor"/>
</g>
<g transform="translate(12.5259, 3.6075)">
<path transform="scale(0.0040, -0.0040)" d="M215 137c67 0 111 -37 111 -92c0 -90 -111 -182 -215 -182c-67 0 -111 37 -111 92c0 90 111 182 215 182z" fill="currentColor"/>
</g>
<g transform="translate(12.1329, 9.8593)">
<text font-family="Noto Serif" font-size="2.4690" text-anchor="start" fill="currentColor">
<tspan>le</tspan>
</text>
</g>
<g transform="translate(12.5621, 4.1075)">
<rect x="-0.0363" y="-0.3206" width="0.0725" height="3.3206" ry="0.0363" fill="currentColor"/>
</g>
<g transform="translate(12.5984, 7.0605)">
<path transform="scale(0.0040, -0.0040)" d="M0 0h-18v250h18v-250zM0 0v250c96 59 222 149 222 259c0 57 -15 111 -40 162c-3 17 10 29 24 29c8 0 16 -5 21 -13c25 -56 40 -116 40 -178c0 -203 -267 -306 -267 -509z" fill="currentColor"/>
</g>
<g transform="translate(15.9315, 9.8593)">
<text font-family="Noto Serif" font-size="2.4690" text-anchor="start" fill="currentColor">
<tspan>bí</tspan>
</text>
</g>
<g transform="translate(16.4813, 4.1075)">
<rect x="-0.0363" y="0.1794" width="0.0725" height="3.1956" ry="0.0363" fill="currentColor"/>
</g>
<g transform="translate(16.5175, 7.4355)">
<path transform="scale(0.0040, -0.0040)" d="M0 0h-18v250h18v-250zM0 0v250c96 59 222 149 222 259c0 57 -15 111 -40 162c-3 17 10 29 24 29c8 0 16 -5 21 -13c25 -56 40 -116 40 -178c0 -203 -267 -306 -267 -509z" fill="currentColor"/>
</g>
<g transform="translate(19.1477, 9.8593)">
<text font-family="Noto Serif" font-size="2.4690" text-anchor="start" fill="currentColor">
<tspan>má</tspan>
</text>
</g>
<g transform="translate(21.6306, 4.1075)">
<rect x="-0.0363" y="-3.0000" width="0.0725" height="3.3206" ry="0.0363" fill="currentColor"/>
</g>
<g transform="translate(7.8322, 9.8593)">
<text font-family="Noto Serif" font-size="2.4690" text-anchor="start" fill="currentColor">
<tspan>Ve</tspan>
</text>
</g>
<g transform="translate(8.6067, 3.6075)">
<path transform="scale(0.0040, -0.0040)" d="M215 137c67 0 111 -37 111 -92c0 -90 -111 -182 -215 -182c-67 0 -111 37 -111 92c0 90 111 182 215 182z" fill="currentColor"/>
</g>
<g transform="translate(0.8000, 5.1075)">
<path transform="scale(0.0040, -0.0040)" d="M646 2c0 -113 -74 -213 -180 -247c3 -34 5 -68 5 -102c0 -20 -1 -40 -2 -60c-7 -121 -91 -228 -209 -228c-108 0 -196 87 -196 196c0 58 53 104 112 104c54 0 95 -48 95 -104c0 -52 -43 -95 -95 -95c-10 0 -20 2 -29 6c26 -38 68 -63 116 -63h3c93 2 153 92 159 190
c1 19 2 37 2 56c0 30 -2 60 -4 90c-5 -1 -43 -8 -88 -8c-194 0 -333 180 -333 375c0 177 130 307 246 442c-31 98 -53 170 -53 347c0 115 55 223 148 290c7 5 16 4 22 -1c68 -80 134 -243 134 -357c0 -143 -85 -255 -178 -364c21 -68 40 -137 57 -206c1 0 5 1 11 1
c156 0 257 -129 257 -262zM462 -202c66 24 111 88 111 162c0 89 -65 178 -170 190c28 -135 50 -272 59 -352zM75 26c0 -145 141 -245 263 -245c1 0 46 0 81 6c-7 65 -27 206 -61 363c-79 -8 -124 -61 -124 -119c0 -43 25 -89 80 -121c5 -5 7 -11 7 -16
c0 -12 -10 -23 -22 -23c-16 0 -127 63 -127 188c0 89 58 175 161 198c-14 58 -29 116 -46 173c-106 -122 -212 -244 -212 -404zM406 1042c-99 -47 -162 -148 -162 -257c0 -49 13 -111 38 -191c79 97 144 199 144 324c0 33 0 63 -20 124z" fill="currentColor"/>
</g>
<g transform="translate(5.0603, 4.1075)">
<path transform="scale(0.0040, -0.0040)" d="M230 0c-89 0 -90 67 -144 67c-30 0 -58 -21 -61 -56c-1 -8 -7 -11 -13 -11s-12 4 -12 12c0 154 232 169 232 343c0 58 -16 120 -66 120c-26 0 -51 -13 -51 -37c0 -27 35 -41 35 -68c0 -38 -30 -68 -68 -68s-69 30 -69 68c0 76 72 130 153 130c96 0 185 -57 185 -145
c0 -149 -145 -158 -242 -216c7 1 14 2 22 2c84 0 111 -60 170 -60c48 0 38 39 56 39c6 0 13 -5 13 -12c0 -22 -44 -108 -140 -108z" fill="currentColor"/>
</g>
<g transform="translate(5.0000, 6.1194)">
<path transform="scale(0.0040, -0.0040)" d="M194 120h120c0 -49 29 -95 75 -95c8 0 12 -7 12 -13s-4 -12 -12 -12c-45 0 -90 13 -135 13s-90 -13 -135 -13c-8 0 -12 6 -12 12s4 13 12 13c46 0 75 46 75 95zM224 487c37 0 70 14 78 14c9 0 14 -7 14 -13c0 -2 0 -3 -2 -5l-283 -327h163v122c0 35 36 28 70 74
c23 30 22 57 36 57c6 0 14 -6 14 -15v-238h74c10 0 16 -8 16 -16s-6 -15 -16 -15h-74v-5h-120v5h-163c-24 0 -33 15 -33 24c0 12 136 140 136 334c0 11 8 20 17 17c24 -7 48 -13 73 -13z" fill="currentColor"/>
</g>
<g transform="translate(20.3641, 4.6075)">
<path transform="scale(0.0040, -0.0040)" d="M215 137c67 0 111 -37 111 -92c0 -90 -111 -182 -215 -182c-67 0 -111 37 -111 92c0 90 111 182 215 182z" fill="currentColor"/>
</g>
<g transform="translate(4.9844, 9.8593)">
<text font-family="serif" font-weight="bold" font-size="2.4690" text-anchor="start" fill="currentColor">
<tspan>1.</tspan>
</text>
</g>
<g transform="translate(8.6430, 4.1075)">
<rect x="-0.0363" y="-0.3206" width="0.0725" height="3.3206" ry="0.0363" fill="currentColor"/>
</g>
<g transform="translate(8.6793, 7.0605)">
<path transform="scale(0.0040, -0.0040)" d="M0 0h-18v250h18v-250zM0 0v250c96 59 222 149 222 259c0 57 -15 111 -40 162c-3 17 10 29 24 29c8 0 16 -5 21 -13c25 -56 40 -116 40 -178c0 -203 -267 -306 -267 -509z" fill="currentColor"/>
</g>
<g transform="translate(32.6457, 4.1075)">
<path transform="scale(0.0040, -0.0040)" d="M215 137c67 0 111 -37 111 -92c0 -90 -111 -182 -215 -182c-67 0 -111 37 -111 92c0 90 111 182 215 182z" fill="currentColor"/>
</g>
<g transform="translate(32.0719, 9.8593)">
<text font-family="Noto Serif" font-size="2.4690" text-anchor="start" fill="currentColor">
<tspan>še</tspan>
</text>
</g>
<g transform="translate(32.6819, 4.1075)">
<rect x="-0.0363" y="0.1794" width="0.0725" height="3.1540" ry="0.0363" fill="currentColor"/>
</g>
<g transform="translate(40.8268, 3.6075)">
<path transform="scale(0.0040, -0.0040)" d="M215 137c67 0 111 -37 111 -92c0 -90 -111 -182 -215 -182c-67 0 -111 37 -111 92c0 90 111 182 215 182z" fill="currentColor"/>
</g>
<g transform="translate(39.5300, 9.8593)">
<text font-family="Noto Serif" font-size="2.4690" text-anchor="start" fill="currentColor">
<tspan>s já</tspan>
</text>
</g>
<g transform="translate(40.8631, 4.1075)">
<rect x="-0.0363" y="-0.3206" width="0.0725" height="3.3206" ry="0.0363" fill="currentColor"/>
</g>
<g transform="translate(21.6669, 1.1546)">
<path transform="scale(0.0040, -0.0040)" d="M0 0c0 -197 207 -335 207 -532c0 -71 -15 -141 -41 -207c-5 -8 -13 -12 -21 -12c-14 0 -27 11 -24 28c26 60 42 125 42 191c0 103 -93 207 -163 282h-18v250h18z" fill="currentColor"/>
</g>
<g transform="translate(26.0186, 5.1075)">
<path transform="scale(0.0040, -0.0040)" d="M215 137c67 0 111 -37 111 -92c0 -90 -111 -182 -215 -182c-67 0 -111 37 -111 92c0 90 111 182 215 182z" fill="currentColor"/>
</g>
<g transform="translate(25.1235, 9.8593)">
<text font-family="Noto Serif" font-size="2.4690" text-anchor="start" fill="currentColor">
<tspan>du</tspan>
</text>
</g>
<g transform="translate(27.2852, 4.1075)">
<rect x="-0.0363" y="-2.5000" width="0.0725" height="3.3206" ry="0.0363" fill="currentColor"/>
</g>
<g transform="translate(0.0000, 18.1075)">
<line stroke-linejoin="round" stroke-linecap="round" stroke-width="0.0558" stroke="currentColor" x1="0.0279" y1="0" x2="82.3177" y2="0"/>
</g>
<g transform="translate(0.0000, 17.1075)">
<line stroke-linejoin="round" stroke-linecap="round" stroke-width="0.0558" stroke="currentColor" x1="0.0279" y1="0" x2="82.3177" y2="0"/>
</g>
<g transform="translate(0.0000, 16.1075)">
<line stroke-linejoin="round" stroke-linecap="round" stroke-width="0.0558" stroke="currentColor" x1="0.0279" y1="0" x2="82.3177" y2="0"/>
</g>
<g transform="translate(0.0000, 15.1075)">
<line stroke-linejoin="round" stroke-linecap="round" stroke-width="0.0558" stroke="currentColor" x1="0.0279" y1="0" x2="82.3177" y2="0"/>
</g>
<g transform="translate(0.0000, 14.1075)">
<line stroke-linejoin="round" stroke-linecap="round" stroke-width="0.0558" stroke="currentColor" x1="0.0279" y1="0" x2="82.3177" y2="0"/>
</g>
<g transform="translate(82.1336, 16.1075)">
<rect x="0.0000" y="-2.0000" width="0.2120" height="4.0000" ry="0.0000" fill="currentColor"/>
</g>
<g transform="translate(55.1072, 16.1075)">
<rect x="0.0000" y="-2.0000" width="0.2120" height="4.0000" ry="0.0000" fill="currentColor"/>
</g>
<g transform="translate(21.8696, 16.1075)">
<rect x="0.0000" y="-2.0000" width="0.2120" height="4.0000" ry="0.0000" fill="currentColor"/>
</g>
<g transform="translate(70.1627, 16.1075)">
<rect x="0.0000" y="-2.0000" width="0.2120" height="4.0000" ry="0.0000" fill="currentColor"/>
</g>
<g transform="translate(38.2919, 16.1075)">
<rect x="0.0000" y="-2.0000" width="0.2120" height="4.0000" ry="0.0000" fill="currentColor"/>
</g>
<g transform="translate(0.0000, 19.1075)">
<rect x="72.4717" y="-0.0779" width="2.0709" height="0.1558" ry="0.0779" fill="currentColor"/>
</g>
<g transform="translate(58.0278, 16.1075)">
<rect x="-0.0363" y="-1.5000" width="0.0725" height="3.3206" ry="0.0363" fill="currentColor"/>
</g>
<g transform="translate(52.3695, 14.1546)">
<path transform="scale(0.0040, -0.0040)" d="M0 0c0 -197 207 -335 207 -532c0 -71 -15 -141 -41 -207c-5 -8 -13 -12 -21 -12c-14 0 -27 11 -24 28c26 60 42 125 42 191c0 103 -93 207 -163 282h-18v250h18z" fill="currentColor"/>
</g>
<g transform="translate(56.7612, 18.1075)">
<path transform="scale(0.0040, -0.0040)" d="M215 137c67 0 111 -37 111 -92c0 -90 -111 -182 -215 -182c-67 0 -111 37 -111 92c0 90 111 182 215 182z" fill="currentColor"/>
</g>
<g transform="translate(55.0427, 22.0330)">
<text font-family="Noto Serif" font-size="2.4690" text-anchor="start" fill="currentColor">
<tspan>z vý</tspan>
</text>
</g>
<g transform="translate(68.9187, 22.0330)">
<rect x="0.0000" y="-0.5651" width="0.6600" height="0.1451" ry="0.0446" fill="currentColor"/>
</g>
<g transform="translate(41.2125, 16.1075)">
<rect x="-0.0363" y="-2.5000" width="0.0725" height="3.3206" ry="0.0363" fill="currentColor"/>
</g>
<g transform="translate(46.5396, 17.1075)">
<path transform="scale(0.0040, -0.0040)" d="M215 137c67 0 111 -37 111 -92c0 -90 -111 -182 -215 -182c-67 0 -111 37 -111 92c0 90 111 182 215 182z" fill="currentColor"/>
</g>
<g transform="translate(45.9056, 22.0330)">
<text font-family="Noto Serif" font-size="2.4690" text-anchor="start" fill="currentColor">
<tspan>rý</tspan>
</text>
</g>
<g transform="translate(47.8061, 16.1075)">
<rect x="-0.0363" y="-2.5000" width="0.0725" height="3.3206" ry="0.0363" fill="currentColor"/>
</g>
<g transform="translate(47.8424, 13.6546)">
<path transform="scale(0.0040, -0.0040)" d="M0 0c0 -197 207 -335 207 -532c0 -71 -15 -141 -41 -207c-5 -8 -13 -12 -21 -12c-14 0 -27 11 -24 28c26 60 42 125 42 191c0 103 -93 207 -163 282h-18v250h18z" fill="currentColor"/>
</g>
<g transform="translate(51.0667, 17.6075)">
<path transform="scale(0.0040, -0.0040)" d="M215 137c67 0 111 -37 111 -92c0 -90 -111 -182 -215 -182c-67 0 -111 37 -111 92c0 90 111 182 215 182z" fill="currentColor"/>
</g>
<g transform="translate(48.9264, 22.0330)">
<text font-family="Noto Serif" font-size="2.4690" text-anchor="start" fill="currentColor">
<tspan>dnes</tspan>
</text>
</g>
<g transform="translate(52.3332, 16.1075)">
<rect x="-0.0363" y="-2.0000" width="0.0725" height="3.3206" ry="0.0363" fill="currentColor"/>
</g>
<g transform="translate(8.1115, 22.0330)">
<rect x="0.0000" y="-0.5651" width="0.6600" height="0.1451" ry="0.0446" fill="currentColor"/>
</g>
<g transform="translate(16.5907, 22.0330)">
<rect x="0.0000" y="-0.5651" width="0.3537" height="0.1451" ry="0.0446" fill="currentColor"/>
</g>
<g transform="translate(27.9530, 22.0330)">
<rect x="0.0000" y="-0.5651" width="0.6600" height="0.1451" ry="0.0446" fill="currentColor"/>
</g>
<g transform="translate(31.4600, 13.1075)">
<polygon stroke-linejoin="round" stroke-linecap="round" stroke-width="0.0941" fill="currentColor" stroke="currentColor" points="3.9737 0.0192 3.9737 0.4050 0.0471 0.1929 0.0471 -0.1929"/>
</g>
<g transform="translate(30.2297, 16.1075)">
<path stroke-width="0.0446" stroke-linejoin="round" stroke-linecap="round" stroke="currentColor" fill="currentColor" d="M0.6131 1.2905C1.5009 2.5905 3.5188 2.7694 4.5613 1.6405L4.5613 1.6405C3.5248 2.7027 1.5068 2.5238 0.6131 1.2905z"/>
</g>
<g transform="translate(43.8353, 22.0330)">
<rect x="0.0000" y="-0.5651" width="0.6600" height="0.1451" ry="0.0446" fill="currentColor"/>
</g>
<g transform="translate(60.6506, 22.0330)">
<rect x="0.0000" y="-0.5651" width="0.6600" height="0.1451" ry="0.0446" fill="currentColor"/>
</g>
<g transform="translate(62.1786, 22.0330)">
<text font-family="Noto Serif" font-size="2.4690" text-anchor="start" fill="currentColor">
<tspan>sos</tspan>
</text>
</g>
<g transform="translate(64.6214, 16.1075)">
<rect x="-0.0363" y="-1.0000" width="0.0725" height="3.3206" ry="0.0363" fill="currentColor"/>
</g>
<g transform="translate(72.8168, 19.1075)">
<path transform="scale(0.0040, -0.0040)" d="M312 64c0 23 -18 41 -41 41c-39 0 -201 -110 -228 -142c-7 -8 -10 -17 -10 -27c0 -23 18 -41 41 -41c39 0 201 110 228 142c7 8 10 17 10 27zM259 137c46 0 86 -17 86 -74c0 -26 -15 -112 -73 -151c-29 -20 -89 -49 -186 -49c-46 0 -86 17 -86 74c0 26 16 112 74 151
c29 20 88 49 185 49z" fill="currentColor"/>
</g>
<g transform="translate(72.6635, 22.0330)">
<text font-family="Noto Serif" font-size="2.4690" text-anchor="start" fill="currentColor">
<tspan>ti</tspan>
</text>
</g>
<g transform="translate(74.1611, 16.1075)">
<rect x="-0.0363" y="-0.5000" width="0.0725" height="3.2470" ry="0.0363" fill="currentColor"/>
</g>
<g transform="translate(63.3548, 18.6075)">
<path transform="scale(0.0040, -0.0040)" d="M215 137c67 0 111 -37 111 -92c0 -90 -111 -182 -215 -182c-67 0 -111 37 -111 92c0 90 111 182 215 182z" fill="currentColor"/>
</g>
<g transform="translate(80.6336, 14.1075)">
<path transform="scale(0.0040, -0.0040)" d="M62 158c38 0 68 -31 68 -69v-20c0 -110 -103 -165 -116 -165c-8 0 -14 6 -14 14c0 18 69 25 83 123h-28c-30 0 -55 25 -55 55c0 34 28 62 62 62z" fill="currentColor"/>
</g>
<g transform="translate(13.8809, 16.1075)">
<path transform="scale(0.0040, -0.0040)" d="M215 137c67 0 111 -37 111 -92c0 -90 -111 -182 -215 -182c-67 0 -111 37 -111 92c0 90 111 182 215 182z" fill="currentColor"/>
</g>
<g transform="translate(7.1028, 13.6546)">
<path transform="scale(0.0040, -0.0040)" d="M0 0c0 -197 207 -335 207 -532c0 -71 -15 -141 -41 -207c-5 -8 -13 -12 -21 -12c-14 0 -27 11 -24 28c26 60 42 125 42 191c0 103 -93 207 -163 282h-18v250h18z" fill="currentColor"/>
</g>
<g transform="translate(9.8405, 16.6075)">
<path transform="scale(0.0040, -0.0040)" d="M215 137c67 0 111 -37 111 -92c0 -90 -111 -182 -215 -182c-67 0 -111 37 -111 92c0 90 111 182 215 182z" fill="currentColor"/>
</g>
<g transform="translate(8.9855, 22.0330)">
<text font-family="Noto Serif" font-size="2.4690" text-anchor="start" fill="currentColor">
<tspan>na</tspan>
</text>
</g>
<g transform="translate(11.1070, 16.1075)">
<rect x="-0.0363" y="-3.0000" width="0.0725" height="3.3206" ry="0.0363" fill="currentColor"/>
</g>
<g transform="translate(11.1433, 13.1546)">
<path transform="scale(0.0040, -0.0040)" d="M0 0c0 -197 207 -335 207 -532c0 -71 -15 -141 -41 -207c-5 -8 -13 -12 -21 -12c-14 0 -27 11 -24 28c26 60 42 125 42 191c0 103 -93 207 -163 282h-18v250h18z" fill="currentColor"/>
</g>
<g transform="translate(7.0665, 16.1075)">
<rect x="-0.0363" y="-2.5000" width="0.0725" height="3.3206" ry="0.0363" fill="currentColor"/>
</g>
<g transform="translate(12.5440, 22.0330)">
<text font-family="Noto Serif" font-size="2.4690" text-anchor="start" fill="currentColor">
<tspan>věč</tspan>
</text>
</g>
<g transform="translate(13.9172, 16.1075)">
<rect x="-0.0363" y="0.1794" width="0.0725" height="3.1956" ry="0.0363" fill="currentColor"/>
</g>
<g transform="translate(13.9535, 19.4355)">
<path transform="scale(0.0040, -0.0040)" d="M0 0h-18v250h18v-250zM0 0v250c96 59 222 149 222 259c0 57 -15 111 -40 162c-3 17 10 29 24 29c8 0 16 -5 21 -13c25 -56 40 -116 40 -178c0 -203 -267 -306 -267 -509z" fill="currentColor"/>
</g>
<g transform="translate(38.7697, 22.0330)">
<text font-family="Noto Serif" font-size="2.4690" text-anchor="start" fill="currentColor">
<tspan>kte</tspan>
</text>
</g>
<g transform="translate(17.0144, 22.0330)">
<text font-family="Noto Serif" font-size="2.4690" text-anchor="start" fill="currentColor">
<tspan>né</tspan>
</text>
</g>
<g transform="translate(19.0957, 16.1075)">
<rect x="-0.0363" y="-2.5000" width="0.0725" height="3.3206" ry="0.0363" fill="currentColor"/>
</g>
<g transform="translate(0.8000, 17.1075)">
<path transform="scale(0.0040, -0.0040)" d="M646 2c0 -113 -74 -213 -180 -247c3 -34 5 -68 5 -102c0 -20 -1 -40 -2 -60c-7 -121 -91 -228 -209 -228c-108 0 -196 87 -196 196c0 58 53 104 112 104c54 0 95 -48 95 -104c0 -52 -43 -95 -95 -95c-10 0 -20 2 -29 6c26 -38 68 -63 116 -63h3c93 2 153 92 159 190
c1 19 2 37 2 56c0 30 -2 60 -4 90c-5 -1 -43 -8 -88 -8c-194 0 -333 180 -333 375c0 177 130 307 246 442c-31 98 -53 170 -53 347c0 115 55 223 148 290c7 5 16 4 22 -1c68 -80 134 -243 134 -357c0 -143 -85 -255 -178 -364c21 -68 40 -137 57 -206c1 0 5 1 11 1
c156 0 257 -129 257 -262zM462 -202c66 24 111 88 111 162c0 89 -65 178 -170 190c28 -135 50 -272 59 -352zM75 26c0 -145 141 -245 263 -245c1 0 46 0 81 6c-7 65 -27 206 -61 363c-79 -8 -124 -61 -124 -119c0 -43 25 -89 80 -121c5 -5 7 -11 7 -16
c0 -12 -10 -23 -22 -23c-16 0 -127 63 -127 188c0 89 58 175 161 198c-14 58 -29 116 -46 173c-106 -122 -212 -244 -212 -404zM406 1042c-99 -47 -162 -148 -162 -257c0 -49 13 -111 38 -191c79 97 144 199 144 324c0 33 0 63 -20 124z" fill="currentColor"/>
</g>
<g transform="translate(17.8291, 17.1075)">
<path transform="scale(0.0040, -0.0040)" d="M215 137c67 0 111 -37 111 -92c0 -90 -111 -182 -215 -182c-67 0 -111 37 -111 92c0 90 111 182 215 182z" fill="currentColor"/>
</g>
<g transform="translate(5.8000, 17.1075)">
<path transform="scale(0.0040, -0.0040)" d="M215 137c67 0 111 -37 111 -92c0 -90 -111 -182 -215 -182c-67 0 -111 37 -111 92c0 90 111 182 215 182z" fill="currentColor"/>
</g>
<g transform="translate(5.0053, 22.0330)">
<text font-family="Noto Serif" font-size="2.4690" text-anchor="start" fill="currentColor">
<tspan>Pá</tspan>
</text>
</g>
<g transform="translate(35.4445, 16.1075)">
<rect x="-0.0363" y="-2.7898" width="0.0725" height="3.1104" ry="0.0363" fill="currentColor"/>
</g>
<g transform="translate(19.1319, 13.6546)">
<path transform="scale(0.0040, -0.0040)" d="M0 0c0 -197 207 -335 207 -532c0 -71 -15 -141 -41 -207c-5 -8 -13 -12 -21 -12c-14 0 -27 11 -24 28c26 60 42 125 42 191c0 103 -93 207 -163 282h-18v250h18z" fill="currentColor"/>
</g>
<g transform="translate(30.2297, 16.1075)">
<path transform="scale(0.0040, -0.0040)" d="M215 137c67 0 111 -37 111 -92c0 -90 -111 -182 -215 -182c-67 0 -111 37 -111 92c0 90 111 182 215 182z" fill="currentColor"/>
</g>
<g transform="translate(34.1779, 16.6075)">
<path transform="scale(0.0040, -0.0040)" d="M215 137c67 0 111 -37 111 -92c0 -90 -111 -182 -215 -182c-67 0 -111 37 -111 92c0 90 111 182 215 182z" fill="currentColor"/>
</g>
<g transform="translate(30.2297, 22.0330)">
<text font-family="Noto Serif" font-size="2.4690" text-anchor="start" fill="currentColor">
<tspan>sy,</tspan>
</text>
</g>
<g transform="translate(31.4962, 16.1075)">
<rect x="-0.0363" y="-2.9981" width="0.0725" height="2.8187" ry="0.0363" fill="currentColor"/>
</g>
<g transform="translate(39.9460, 17.1075)">
<path transform="scale(0.0040, -0.0040)" d="M215 137c67 0 111 -37 111 -92c0 -90 -111 -182 -215 -182c-67 0 -111 37 -111 92c0 90 111 182 215 182z" fill="currentColor"/>
</g>
<g transform="translate(23.6563, 15.6075)">
<path transform="scale(0.0040, -0.0040)" d="M215 137c67 0 111 -37 111 -92c0 -90 -111 -182 -215 -182c-67 0 -111 37 -111 92c0 90 111 182 215 182z" fill="currentColor"/>
</g>
<g transform="translate(22.2792, 22.0330)">
<text font-family="Noto Serif" font-size="2.4690" text-anchor="start" fill="currentColor">
<tspan>spá</tspan>
</text>
</g>
<g transform="translate(23.6925, 16.1075)">
<rect x="-0.0363" y="-0.3206" width="0.0725" height="3.3206" ry="0.0363" fill="currentColor"/>
</g>
<g transform="translate(0.0000, 30.1075)">
<line stroke-linejoin="round" stroke-linecap="round" stroke-width="0.0558" stroke="currentColor" x1="0.0279" y1="0" x2="82.3177" y2="0"/>
</g>
<g transform="translate(0.0000, 29.1075)">
<line stroke-linejoin="round" stroke-linecap="round" stroke-width="0.0558" stroke="currentColor" x1="0.0279" y1="0" x2="82.3177" y2="0"/>
</g>
<g transform="translate(0.0000, 28.1075)">
<line stroke-linejoin="round" stroke-linecap="round" stroke-width="0.0558" stroke="currentColor" x1="0.0279" y1="0" x2="82.3177" y2="0"/>
</g>
<g transform="translate(0.0000, 27.1075)">
<line stroke-linejoin="round" stroke-linecap="round" stroke-width="0.0558" stroke="currentColor" x1="0.0279" y1="0" x2="82.3177" y2="0"/>
</g>
<g transform="translate(0.0000, 26.1075)">
<line stroke-linejoin="round" stroke-linecap="round" stroke-width="0.0558" stroke="currentColor" x1="0.0279" y1="0" x2="82.3177" y2="0"/>
</g>
<g transform="translate(0.0000, 31.1075)">
<rect x="64.3294" y="-0.0779" width="1.9542" height="0.1558" ry="0.0779" fill="currentColor"/>
</g>
<g transform="translate(43.7316, 28.1075)">
<rect x="0.0000" y="-2.0000" width="0.2120" height="4.0000" ry="0.0000" fill="currentColor"/>
</g>
<g transform="translate(82.1336, 28.1075)">
<rect x="0.0000" y="-2.0000" width="0.2120" height="4.0000" ry="0.0000" fill="currentColor"/>
</g>
<g transform="translate(31.9076, 33.6075)">
<text font-family="Noto Serif" font-size="2.4690" text-anchor="start" fill="currentColor">
<tspan>k své</tspan>
</text>
</g>
<g transform="translate(48.6931, 28.1075)">
<rect x="-0.0363" y="-2.5000" width="0.0725" height="3.3206" ry="0.0363" fill="currentColor"/>
</g>
<g transform="translate(46.1901, 33.6075)">
<text font-family="Noto Serif" font-size="2.4690" text-anchor="start" fill="currentColor">
<tspan>dív</tspan>
</text>
</g>
<g transform="translate(47.4266, 29.1075)">
<path transform="scale(0.0040, -0.0040)" d="M215 137c67 0 111 -37 111 -92c0 -90 -111 -182 -215 -182c-67 0 -111 37 -111 92c0 90 111 182 215 182z" fill="currentColor"/>
</g>
<g transform="translate(35.5515, 26.1546)">
<path transform="scale(0.0040, -0.0040)" d="M0 0c0 -197 207 -335 207 -532c0 -71 -15 -141 -41 -207c-5 -8 -13 -12 -21 -12c-14 0 -27 11 -24 28c26 60 42 125 42 191c0 103 -93 207 -163 282h-18v250h18z" fill="currentColor"/>
</g>
<g transform="translate(35.5153, 28.1075)">
<rect x="-0.0363" y="-2.0000" width="0.0725" height="3.3206" ry="0.0363" fill="currentColor"/>
</g>
<g transform="translate(56.6736, 33.6075)">
<rect x="0.0000" y="-0.5651" width="0.6600" height="0.1451" ry="0.0446" fill="currentColor"/>
</g>
<g transform="translate(20.6872, 33.6075)">
<rect x="0.0000" y="-0.5651" width="0.6600" height="0.1451" ry="0.0446" fill="currentColor"/>
</g>
<g transform="translate(10.6821, 33.6075)">
<rect x="0.0000" y="-0.5651" width="0.6600" height="0.1451" ry="0.0446" fill="currentColor"/>
</g>
<g transform="translate(80.6336, 26.1075)">
<path transform="scale(0.0040, -0.0040)" d="M62 158c38 0 68 -31 68 -69v-20c0 -110 -103 -165 -116 -165c-8 0 -14 6 -14 14c0 18 69 25 83 123h-28c-30 0 -55 25 -55 55c0 34 28 62 62 62z" fill="currentColor"/>
</g>
<g transform="translate(65.9216, 28.1075)">
<rect x="-0.0363" y="-0.5000" width="0.0725" height="3.3206" ry="0.0363" fill="currentColor"/>
</g>
<g transform="translate(64.0412, 33.6075)">
<text font-family="Noto Serif" font-size="2.4690" text-anchor="start" fill="currentColor">
<tspan>ce</tspan>
</text>
</g>
<g transform="translate(64.6551, 31.1075)">
<path transform="scale(0.0040, -0.0040)" d="M215 137c67 0 111 -37 111 -92c0 -90 -111 -182 -215 -182c-67 0 -111 37 -111 92c0 90 111 182 215 182z" fill="currentColor"/>
</g>
<g transform="translate(7.1028, 26.6546)">
<path transform="scale(0.0040, -0.0040)" d="M0 0c0 -197 207 -335 207 -532c0 -71 -15 -141 -41 -207c-5 -8 -13 -12 -21 -12c-14 0 -27 11 -24 28c26 60 42 125 42 191c0 103 -93 207 -163 282h-18v250h18z" fill="currentColor"/>
</g>
<g transform="translate(7.0665, 28.1075)">
<rect x="-0.0363" y="-1.5000" width="0.0725" height="3.3206" ry="0.0363" fill="currentColor"/>
</g>
<g transform="translate(34.2487, 29.6075)">
<path transform="scale(0.0040, -0.0040)" d="M215 137c67 0 111 -37 111 -92c0 -90 -111 -182 -215 -182c-67 0 -111 37 -111 92c0 90 111 182 215 182z" fill="currentColor"/>
</g>
<g transform="translate(4.9852, 33.6075)">
<text font-family="Noto Serif" font-size="2.4690" text-anchor="start" fill="currentColor">
<tspan>po</tspan>
</text>
</g>
<g transform="translate(5.8000, 30.1075)">
<path transform="scale(0.0040, -0.0040)" d="M215 137c67 0 111 -37 111 -92c0 -90 -111 -182 -215 -182c-67 0 -111 37 -111 92c0 90 111 182 215 182z" fill="currentColor"/>
</g>
<g transform="translate(0.8000, 29.1075)">
<path transform="scale(0.0040, -0.0040)" d="M646 2c0 -113 -74 -213 -180 -247c3 -34 5 -68 5 -102c0 -20 -1 -40 -2 -60c-7 -121 -91 -228 -209 -228c-108 0 -196 87 -196 196c0 58 53 104 112 104c54 0 95 -48 95 -104c0 -52 -43 -95 -95 -95c-10 0 -20 2 -29 6c26 -38 68 -63 116 -63h3c93 2 153 92 159 190
c1 19 2 37 2 56c0 30 -2 60 -4 90c-5 -1 -43 -8 -88 -8c-194 0 -333 180 -333 375c0 177 130 307 246 442c-31 98 -53 170 -53 347c0 115 55 223 148 290c7 5 16 4 22 -1c68 -80 134 -243 134 -357c0 -143 -85 -255 -178 -364c21 -68 40 -137 57 -206c1 0 5 1 11 1
c156 0 257 -129 257 -262zM462 -202c66 24 111 88 111 162c0 89 -65 178 -170 190c28 -135 50 -272 59 -352zM75 26c0 -145 141 -245 263 -245c1 0 46 0 81 6c-7 65 -27 206 -61 363c-79 -8 -124 -61 -124 -119c0 -43 25 -89 80 -121c5 -5 7 -11 7 -16
c0 -12 -10 -23 -22 -23c-16 0 -127 63 -127 188c0 89 58 175 161 198c-14 58 -29 116 -46 173c-106 -122 -212 -244 -212 -404zM406 1042c-99 -47 -162 -148 -162 -257c0 -49 13 -111 38 -191c79 97 144 199 144 324c0 33 0 63 -20 124z" fill="currentColor"/>
</g>
<g transform="translate(26.0686, 26.6546)">
<path transform="scale(0.0040, -0.0040)" d="M0 0c0 -197 207 -335 207 -532c0 -71 -15 -141 -41 -207c-5 -8 -13 -12 -21 -12c-14 0 -27 11 -24 28c26 60 42 125 42 191c0 103 -93 207 -163 282h-18v250h18z" fill="currentColor"/>
</g>
<g transform="translate(26.0323, 28.1075)">
<rect x="-0.0363" y="-1.5000" width="0.0725" height="3.3206" ry="0.0363" fill="currentColor"/>
</g>
<g transform="translate(24.2724, 33.6075)">
<text font-family="Noto Serif" font-size="2.4690" text-anchor="start" fill="currentColor">
<tspan>dl</tspan>
</text>
</g>
<g transform="translate(24.7658, 30.1075)">
<path transform="scale(0.0040, -0.0040)" d="M215 137c67 0 111 -37 111 -92c0 -90 -111 -182 -215 -182c-67 0 -111 37 -111 92c0 90 111 182 215 182z" fill="currentColor"/>
</g>
<g transform="translate(16.5857, 27.1546)">
<path transform="scale(0.0040, -0.0040)" d="M0 0c0 -197 207 -335 207 -532c0 -71 -15 -141 -41 -207c-5 -8 -13 -12 -21 -12c-14 0 -27 11 -24 28c26 60 42 125 42 191c0 103 -93 207 -163 282h-18v250h18z" fill="currentColor"/>
</g>
<g transform="translate(16.5494, 28.1075)">
<rect x="-0.0363" y="-1.0000" width="0.0725" height="3.3206" ry="0.0363" fill="currentColor"/>
</g>
<g transform="translate(14.1066, 33.6075)">
<text font-family="Noto Serif" font-size="2.4690" text-anchor="start" fill="currentColor">
<tspan>hlé</tspan>
</text>
</g>
<g transform="translate(15.2829, 30.6075)">
<path transform="scale(0.0040, -0.0040)" d="M215 137c67 0 111 -37 111 -92c0 -90 -111 -182 -215 -182c-67 0 -111 37 -111 92c0 90 111 182 215 182z" fill="currentColor"/>
</g>
<g transform="translate(0.0000, 42.1075)">
<line stroke-linejoin="round" stroke-linecap="round" stroke-width="0.0558" stroke="currentColor" x1="0.0279" y1="0" x2="82.3177" y2="0"/>
</g>
<g transform="translate(0.0000, 41.1075)">
<line stroke-linejoin="round" stroke-linecap="round" stroke-width="0.0558" stroke="currentColor" x1="0.0279" y1="0" x2="82.3177" y2="0"/>
</g>
<g transform="translate(0.0000, 40.1075)">
<line stroke-linejoin="round" stroke-linecap="round" stroke-width="0.0558" stroke="currentColor" x1="0.0279" y1="0" x2="82.3177" y2="0"/>
</g>
<g transform="translate(0.0000, 39.1075)">
<line stroke-linejoin="round" stroke-linecap="round" stroke-width="0.0558" stroke="currentColor" x1="0.0279" y1="0" x2="82.3177" y2="0"/>
</g>
<g transform="translate(0.0000, 38.1075)">
<line stroke-linejoin="round" stroke-linecap="round" stroke-width="0.0558" stroke="currentColor" x1="0.0279" y1="0" x2="82.3177" y2="0"/>
</g>
<g transform="translate(0.0000, 43.1075)">
<rect x="71.3906" y="-0.0779" width="2.0709" height="0.1558" ry="0.0779" fill="currentColor"/>
</g>
<g transform="translate(81.6760, 40.1075)">
<rect x="0.0000" y="-2.0000" width="0.6696" height="4.0000" ry="0.0000" fill="currentColor"/>
</g>
<g transform="translate(81.1292, 40.1075)">
<rect x="0.0000" y="-2.0000" width="0.2120" height="4.0000" ry="0.0000" fill="currentColor"/>
</g>
<g transform="translate(38.0074, 40.1075)">
<rect x="0.0000" y="-2.0000" width="0.2120" height="4.0000" ry="0.0000" fill="currentColor"/>
</g>
<g transform="translate(54.1874, 40.1075)">
<rect x="0.0000" y="-2.0000" width="0.2120" height="4.0000" ry="0.0000" fill="currentColor"/>
</g>
<g transform="translate(69.0944, 40.1075)">
<rect x="0.0000" y="-2.0000" width="0.2120" height="4.0000" ry="0.0000" fill="currentColor"/>
</g>
<g transform="translate(21.7337, 40.1075)">
<rect x="0.0000" y="-2.0000" width="0.2120" height="4.0000" ry="0.0000" fill="currentColor"/>
</g>
<g transform="translate(51.4838, 38.1546)">
<path transform="scale(0.0040, -0.0040)" d="M0 0c0 -197 207 -335 207 -532c0 -71 -15 -141 -41 -207c-5 -8 -13 -12 -21 -12c-14 0 -27 11 -24 28c26 60 42 125 42 191c0 103 -93 207 -163 282h-18v250h18z" fill="currentColor"/>
</g>
<g transform="translate(55.8288, 42.1075)">
<path transform="scale(0.0040, -0.0040)" d="M215 137c67 0 111 -37 111 -92c0 -90 -111 -182 -215 -182c-67 0 -111 37 -111 92c0 90 111 182 215 182z" fill="currentColor"/>
</g>
<g transform="translate(54.9136, 46.0330)">
<text font-family="Noto Serif" font-size="2.4690" text-anchor="start" fill="currentColor">
<tspan>mi</tspan>
</text>
</g>
<g transform="translate(57.0953, 40.1075)">
<rect x="-0.0363" y="-1.5000" width="0.0725" height="3.3206" ry="0.0363" fill="currentColor"/>
</g>
<g transform="translate(67.6370, 46.0330)">
<rect x="0.0000" y="-0.5651" width="0.6600" height="0.1451" ry="0.0446" fill="currentColor"/>
</g>
<g transform="translate(40.9153, 40.1075)">
<rect x="-0.0363" y="-2.5000" width="0.0725" height="3.3206" ry="0.0363" fill="currentColor"/>
</g>
<g transform="translate(51.4475, 40.1075)">
<rect x="-0.0363" y="-2.0000" width="0.0725" height="3.3206" ry="0.0363" fill="currentColor"/>
</g>
<g transform="translate(46.1744, 41.1075)">
<path transform="scale(0.0040, -0.0040)" d="M215 137c67 0 111 -37 111 -92c0 -90 -111 -182 -215 -182c-67 0 -111 37 -111 92c0 90 111 182 215 182z" fill="currentColor"/>
</g>
<g transform="translate(45.5605, 46.0330)">
<text font-family="Noto Serif" font-size="2.4690" text-anchor="start" fill="currentColor">
<tspan>ce</tspan>
</text>
</g>
<g transform="translate(47.4410, 40.1075)">
<rect x="-0.0363" y="-2.5000" width="0.0725" height="3.3206" ry="0.0363" fill="currentColor"/>
</g>
<g transform="translate(47.4773, 37.6546)">
<path transform="scale(0.0040, -0.0040)" d="M0 0c0 -197 207 -335 207 -532c0 -71 -15 -141 -41 -207c-5 -8 -13 -12 -21 -12c-14 0 -27 11 -24 28c26 60 42 125 42 191c0 103 -93 207 -163 282h-18v250h18z" fill="currentColor"/>
</g>
<g transform="translate(50.1809, 41.6075)">
<path transform="scale(0.0040, -0.0040)" d="M215 137c67 0 111 -37 111 -92c0 -90 -111 -182 -215 -182c-67 0 -111 37 -111 92c0 90 111 182 215 182z" fill="currentColor"/>
</g>
<g transform="translate(50.1294, 46.0330)">
<text font-family="Noto Serif" font-size="2.4690" text-anchor="start" fill="currentColor">
<tspan>a</tspan>
</text>
</g>
<g transform="translate(12.5162, 46.0330)">
<rect x="0.0000" y="-0.5651" width="0.4120" height="0.1451" ry="0.0446" fill="currentColor"/>
</g>
<g transform="translate(7.9876, 46.0330)">
<rect x="0.0000" y="-0.5651" width="0.4120" height="0.1451" ry="0.0446" fill="currentColor"/>
</g>
<g transform="translate(16.0815, 46.0330)">
<rect x="0.0000" y="-0.5651" width="0.6600" height="0.1451" ry="0.0446" fill="currentColor"/>
</g>
<g transform="translate(27.7101, 46.0330)">
<rect x="0.0000" y="-0.5651" width="0.6600" height="0.1451" ry="0.0446" fill="currentColor"/>
</g>
<g transform="translate(31.2435, 37.1075)">
<polygon stroke-linejoin="round" stroke-linecap="round" stroke-width="0.0941" fill="currentColor" stroke="currentColor" points="3.9397 0.0192 3.9397 0.4050 0.0471 0.1929 0.0471 -0.1929"/>
</g>
<g transform="translate(30.0132, 40.1075)">
<path stroke-width="0.0446" stroke-linejoin="round" stroke-linecap="round" stroke="currentColor" fill="currentColor" d="M0.6127 1.2916C1.4940 2.5904 3.4907 2.7689 4.5270 1.6416L4.5270 1.6416C3.4966 2.7022 1.5000 2.5237 0.6127 1.2916z"/>
</g>
<g transform="translate(43.9460, 46.0330)">
<rect x="0.0000" y="-0.5651" width="0.6600" height="0.1451" ry="0.0446" fill="currentColor"/>
</g>
<g transform="translate(59.3728, 46.0330)">
<rect x="0.0000" y="-0.5651" width="0.6600" height="0.1451" ry="0.0446" fill="currentColor"/>
</g>
<g transform="translate(62.3545, 42.6075)">
<path transform="scale(0.0040, -0.0040)" d="M215 137c67 0 111 -37 111 -92c0 -90 -111 -182 -215 -182c-67 0 -111 37 -111 92c0 90 111 182 215 182z" fill="currentColor"/>
</g>
<g transform="translate(61.3589, 46.0330)">
<text font-family="Noto Serif" font-size="2.4690" text-anchor="start" fill="currentColor">
<tspan>los</tspan>
</text>
</g>
<g transform="translate(63.6210, 40.1075)">
<rect x="-0.0363" y="-1.0000" width="0.0725" height="3.3206" ry="0.0363" fill="currentColor"/>
</g>
<g transform="translate(71.7358, 43.1075)">
<path transform="scale(0.0040, -0.0040)" d="M312 64c0 23 -18 41 -41 41c-39 0 -201 -110 -228 -142c-7 -8 -10 -17 -10 -27c0 -23 18 -41 41 -41c39 0 201 110 228 142c7 8 10 17 10 27zM259 137c46 0 86 -17 86 -74c0 -26 -15 -112 -73 -151c-29 -20 -89 -49 -186 -49c-46 0 -86 17 -86 74c0 26 16 112 74 151
c29 20 88 49 185 49z" fill="currentColor"/>
</g>
<g transform="translate(71.2812, 46.0330)">
<text font-family="Noto Serif" font-size="2.4690" text-anchor="start" fill="currentColor">
<tspan>ti.</tspan>
</text>
</g>
<g transform="translate(73.0801, 40.1075)">
<rect x="-0.0363" y="-0.5000" width="0.0725" height="3.2470" ry="0.0363" fill="currentColor"/>
</g>
<g transform="translate(13.8130, 40.1075)">
<path transform="scale(0.0040, -0.0040)" d="M215 137c67 0 111 -37 111 -92c0 -90 -111 -182 -215 -182c-67 0 -111 37 -111 92c0 90 111 182 215 182z" fill="currentColor"/>
</g>
<g transform="translate(7.1028, 37.6546)">
<path transform="scale(0.0040, -0.0040)" d="M0 0c0 -197 207 -335 207 -532c0 -71 -15 -141 -41 -207c-5 -8 -13 -12 -21 -12c-14 0 -27 11 -24 28c26 60 42 125 42 191c0 103 -93 207 -163 282h-18v250h18z" fill="currentColor"/>
</g>
<g transform="translate(9.8065, 40.6075)">
<path transform="scale(0.0040, -0.0040)" d="M215 137c67 0 111 -37 111 -92c0 -90 -111 -182 -215 -182c-67 0 -111 37 -111 92c0 90 111 182 215 182z" fill="currentColor"/>
</g>
<g transform="translate(8.4696, 46.0330)">
<text font-family="Noto Serif" font-size="2.4690" text-anchor="start" fill="currentColor">
<tspan>kor</tspan>
</text>
</g>
<g transform="translate(11.0730, 40.1075)">
<rect x="-0.0363" y="-3.0000" width="0.0725" height="3.3206" ry="0.0363" fill="currentColor"/>
</g>
<g transform="translate(11.1093, 37.1546)">
<path transform="scale(0.0040, -0.0040)" d="M0 0c0 -197 207 -335 207 -532c0 -71 -15 -141 -41 -207c-5 -8 -13 -12 -21 -12c-14 0 -27 11 -24 28c26 60 42 125 42 191c0 103 -93 207 -163 282h-18v250h18z" fill="currentColor"/>
</g>
<g transform="translate(7.0665, 40.1075)">
<rect x="-0.0363" y="-2.5000" width="0.0725" height="3.3206" ry="0.0363" fill="currentColor"/>
</g>
<g transform="translate(12.9982, 46.0330)">
<text font-family="Noto Serif" font-size="2.4690" text-anchor="start" fill="currentColor">
<tspan>né</tspan>
</text>
</g>
<g transform="translate(13.8493, 40.1075)">
<rect x="-0.0363" y="0.1794" width="0.0725" height="3.1956" ry="0.0363" fill="currentColor"/>
</g>
<g transform="translate(13.8855, 43.4355)">
<path transform="scale(0.0040, -0.0040)" d="M0 0h-18v250h18v-250zM0 0v250c96 59 222 149 222 259c0 57 -15 111 -40 162c-3 17 10 29 24 29c8 0 16 -5 21 -13c25 -56 40 -116 40 -178c0 -203 -267 -306 -267 -509z" fill="currentColor"/>
</g>
<g transform="translate(17.7272, 41.1075)">
<path transform="scale(0.0040, -0.0040)" d="M215 137c67 0 111 -37 111 -92c0 -90 -111 -182 -215 -182c-67 0 -111 37 -111 92c0 90 111 182 215 182z" fill="currentColor"/>
</g>
<g transform="translate(37.6089, 46.0330)">
<text font-family="Noto Serif" font-size="2.4690" text-anchor="start" fill="currentColor">
<tspan>v lás</tspan>
</text>
</g>
<g transform="translate(18.9938, 40.1075)">
<rect x="-0.0363" y="-2.5000" width="0.0725" height="3.3206" ry="0.0363" fill="currentColor"/>
</g>
<g transform="translate(0.8000, 41.1075)">
<path transform="scale(0.0040, -0.0040)" d="M646 2c0 -113 -74 -213 -180 -247c3 -34 5 -68 5 -102c0 -20 -1 -40 -2 -60c-7 -121 -91 -228 -209 -228c-108 0 -196 87 -196 196c0 58 53 104 112 104c54 0 95 -48 95 -104c0 -52 -43 -95 -95 -95c-10 0 -20 2 -29 6c26 -38 68 -63 116 -63h3c93 2 153 92 159 190
c1 19 2 37 2 56c0 30 -2 60 -4 90c-5 -1 -43 -8 -88 -8c-194 0 -333 180 -333 375c0 177 130 307 246 442c-31 98 -53 170 -53 347c0 115 55 223 148 290c7 5 16 4 22 -1c68 -80 134 -243 134 -357c0 -143 -85 -255 -178 -364c21 -68 40 -137 57 -206c1 0 5 1 11 1
c156 0 257 -129 257 -262zM462 -202c66 24 111 88 111 162c0 89 -65 178 -170 190c28 -135 50 -272 59 -352zM75 26c0 -145 141 -245 263 -245c1 0 46 0 81 6c-7 65 -27 206 -61 363c-79 -8 -124 -61 -124 -119c0 -43 25 -89 80 -121c5 -5 7 -11 7 -16
c0 -12 -10 -23 -22 -23c-16 0 -127 63 -127 188c0 89 58 175 161 198c-14 58 -29 116 -46 173c-106 -122 -212 -244 -212 -404zM406 1042c-99 -47 -162 -148 -162 -257c0 -49 13 -111 38 -191c79 97 144 199 144 324c0 33 0 63 -20 124z" fill="currentColor"/>
</g>
<g transform="translate(16.8924, 46.0330)">
<text font-family="Noto Serif" font-size="2.4690" text-anchor="start" fill="currentColor">
<tspan>ho</tspan>
</text>
</g>
<g transform="translate(5.8000, 41.1075)">
<path transform="scale(0.0040, -0.0040)" d="M215 137c67 0 111 -37 111 -92c0 -90 -111 -182 -215 -182c-67 0 -111 37 -111 92c0 90 111 182 215 182z" fill="currentColor"/>
</g>
<g transform="translate(4.9852, 46.0330)">
<text font-family="Noto Serif" font-size="2.4690" text-anchor="start" fill="currentColor">
<tspan>po</tspan>
</text>
</g>
<g transform="translate(19.0301, 37.6546)">
<path transform="scale(0.0040, -0.0040)" d="M0 0c0 -197 207 -335 207 -532c0 -71 -15 -141 -41 -207c-5 -8 -13 -12 -21 -12c-14 0 -27 11 -24 28c26 60 42 125 42 191c0 103 -93 207 -163 282h-18v250h18z" fill="currentColor"/>
</g>
<g transform="translate(30.0132, 40.1075)">
<path transform="scale(0.0040, -0.0040)" d="M215 137c67 0 111 -37 111 -92c0 -90 -111 -182 -215 -182c-67 0 -111 37 -111 92c0 90 111 182 215 182z" fill="currentColor"/>
</g>
<g transform="translate(30.0132, 46.0330)">
<text font-family="Noto Serif" font-size="2.4690" text-anchor="start" fill="currentColor">
<tspan>ce</tspan>
</text>
</g>
<g transform="translate(31.2797, 40.1075)">
<rect x="-0.0363" y="-2.9981" width="0.0725" height="2.8187" ry="0.0363" fill="currentColor"/>
</g>
<g transform="translate(33.9274, 40.6075)">
<path transform="scale(0.0040, -0.0040)" d="M215 137c67 0 111 -37 111 -92c0 -90 -111 -182 -215 -182c-67 0 -111 37 -111 92c0 90 111 182 215 182z" fill="currentColor"/>
</g>
<g transform="translate(35.1940, 40.1075)">
<rect x="-0.0363" y="-2.7898" width="0.0725" height="3.1105" ry="0.0363" fill="currentColor"/>
</g>
<g transform="translate(39.6488, 41.1075)">
<path transform="scale(0.0040, -0.0040)" d="M215 137c67 0 111 -37 111 -92c0 -90 -111 -182 -215 -182c-67 0 -111 37 -111 92c0 90 111 182 215 182z" fill="currentColor"/>
</g>
<g transform="translate(23.5077, 39.6075)">
<path transform="scale(0.0040, -0.0040)" d="M215 137c67 0 111 -37 111 -92c0 -90 -111 -182 -215 -182c-67 0 -111 37 -111 92c0 90 111 182 215 182z" fill="currentColor"/>
</g>
<g transform="translate(22.2511, 46.0330)">
<text font-family="Noto Serif" font-size="2.4690" text-anchor="start" fill="currentColor">
<tspan>srd</tspan>
</text>
</g>
<g transform="translate(23.5439, 40.1075)">
<rect x="-0.0363" y="-0.3206" width="0.0725" height="3.3206" ry="0.0363" fill="currentColor"/>
</g>
</svg>
