<svg xmlns="http://www.w3.org/2000/svg" xmlns:xlink="http://www.w3.org/1999/xlink" version="1.2"   viewBox="0.0000 -0.0000 82.3456 10.22475">
<style type="text/css">
<![CDATA[
tspan { white-space: pre; }
]]>
</style>
<g transform="translate(0.0000, 6.1075)">
<line stroke-linejoin="round" stroke-linecap="round" stroke-width="0.0558" stroke="currentColor" x1="0.0279" y1="0" x2="33.6769" y2="0"/>
</g>
<g transform="translate(0.0000, 5.1075)">
<line stroke-linejoin="round" stroke-linecap="round" stroke-width="0.0558" stroke="currentColor" x1="0.0279" y1="0" x2="33.6769" y2="0"/>
</g>
<g transform="translate(0.0000, 4.1075)">
<line stroke-linejoin="round" stroke-linecap="round" stroke-width="0.0558" stroke="currentColor" x1="0.0279" y1="0" x2="33.6769" y2="0"/>
</g>
<g transform="translate(0.0000, 3.1075)">
<line stroke-linejoin="round" stroke-linecap="round" stroke-width="0.0558" stroke="currentColor" x1="0.0279" y1="0" x2="33.6769" y2="0"/>
</g>
<g transform="translate(0.0000, 2.1075)">
<line stroke-linejoin="round" stroke-linecap="round" stroke-width="0.0558" stroke="currentColor" x1="0.0279" y1="0" x2="33.6769" y2="0"/>
</g>
<g transform="translate(33.4927, 4.1075)">
<rect x="0.0000" y="-2.0000" width="0.2120" height="4.0000" ry="0.0000" fill="currentColor"/>
</g>
<g transform="translate(32.9459, 4.1075)">
<rect x="0.0000" y="-2.0000" width="0.2120" height="4.0000" ry="0.0000" fill="currentColor"/>
</g>
<g transform="translate(27.5085, 1.1546)">
<path transform="scale(0.0040, -0.0040)" d="M0 0c0 -197 207 -335 207 -532c0 -71 -15 -141 -41 -207c-5 -8 -13 -12 -21 -12c-14 0 -27 11 -24 28c26 60 42 125 42 191c0 103 -93 207 -163 282h-18v250h18z" fill="currentColor"/>
</g>
<g transform="translate(27.4722, 4.1075)">
<rect x="-0.0363" y="-3.0000" width="0.0725" height="3.3206" ry="0.0363" fill="currentColor"/>
</g>
<g transform="translate(26.4554, 9.6075)">
<text font-family="Noto Serif" font-size="2.4690" text-anchor="start" fill="currentColor">
<tspan>i</tspan>
</text>
</g>
<g transform="translate(26.2057, 4.6075)">
<path transform="scale(0.0040, -0.0040)" d="M215 137c67 0 111 -37 111 -92c0 -90 -111 -182 -215 -182c-67 0 -111 37 -111 92c0 90 111 182 215 182z" fill="currentColor"/>
</g>
<g transform="translate(24.9135, 1.6546)">
<path transform="scale(0.0040, -0.0040)" d="M0 0c0 -197 207 -335 207 -532c0 -71 -15 -141 -41 -207c-5 -8 -13 -12 -21 -12c-14 0 -27 11 -24 28c26 60 42 125 42 191c0 103 -93 207 -163 282h-18v250h18z" fill="currentColor"/>
</g>
<g transform="translate(24.8772, 4.1075)">
<rect x="-0.0363" y="-2.5000" width="0.0725" height="3.3206" ry="0.0363" fill="currentColor"/>
</g>
<g transform="translate(23.2177, 9.6075)">
<text font-family="Noto Serif" font-size="2.4690" text-anchor="start" fill="currentColor">
<tspan>lé</tspan>
</text>
</g>
<g transform="translate(23.6107, 5.1075)">
<path transform="scale(0.0040, -0.0040)" d="M215 137c67 0 111 -37 111 -92c0 -90 -111 -182 -215 -182c-67 0 -111 37 -111 92c0 90 111 182 215 182z" fill="currentColor"/>
</g>
<g transform="translate(22.3184, 2.1546)">
<path transform="scale(0.0040, -0.0040)" d="M0 0c0 -197 207 -335 207 -532c0 -71 -15 -141 -41 -207c-5 -8 -13 -12 -21 -12c-14 0 -27 11 -24 28c26 60 42 125 42 191c0 103 -93 207 -163 282h-18v250h18z" fill="currentColor"/>
</g>
<g transform="translate(22.2821, 4.1075)">
<rect x="-0.0363" y="-2.0000" width="0.0725" height="3.3206" ry="0.0363" fill="currentColor"/>
</g>
<g transform="translate(21.0042, 9.6075)">
<text font-family="Noto Serif" font-size="2.4690" text-anchor="start" fill="currentColor">
<tspan>e</tspan>
</text>
</g>
<g transform="translate(21.0156, 5.6075)">
<path transform="scale(0.0040, -0.0040)" d="M215 137c67 0 111 -37 111 -92c0 -90 -111 -182 -215 -182c-67 0 -111 37 -111 92c0 90 111 182 215 182z" fill="currentColor"/>
</g>
<g transform="translate(25.5509, 9.6075)">
<rect x="0.0000" y="-0.5651" width="0.6600" height="0.1451" ry="0.0446" fill="currentColor"/>
</g>
<g transform="translate(22.4437, 9.6075)">
<rect x="0.0000" y="-0.5651" width="0.6600" height="0.1451" ry="0.0446" fill="currentColor"/>
</g>
<g transform="translate(16.2600, 4.1075)">
<path stroke-width="0.0446" stroke-linejoin="round" stroke-linecap="round" stroke="currentColor" fill="currentColor" d="M0.6514 1.4870C1.3232 1.8554 2.4824 1.8554 3.1542 1.4870L3.1542 1.4870C2.4824 1.7884 1.3232 1.7884 0.6514 1.4870z"/>
</g>
<g transform="translate(17.4902, 1.3196)">
<polygon stroke-linejoin="round" stroke-linecap="round" stroke-width="0.0941" fill="currentColor" stroke="currentColor" points="2.5283 -0.1929 2.5283 0.1929 0.0471 0.1929 0.0471 -0.1929"/>
</g>
<g transform="translate(14.4113, 9.6075)">
<rect x="0.0000" y="-0.5651" width="0.6600" height="0.1451" ry="0.0446" fill="currentColor"/>
</g>
<g transform="translate(11.2544, 4.1075)">
<path stroke-width="0.0446" stroke-linejoin="round" stroke-linecap="round" stroke="currentColor" fill="currentColor" d="M0.7606 2.1986C1.5874 2.6365 2.7541 2.3335 3.2634 1.5486L3.2634 1.5486C2.7373 2.2687 1.5706 2.5717 0.7606 2.1986z"/>
</g>
<g transform="translate(12.4846, 2.1075)">
<polygon stroke-linejoin="round" stroke-linecap="round" stroke-width="0.0941" fill="currentColor" stroke="currentColor" points="2.5283 -0.4050 2.5283 -0.0192 0.0471 0.1929 0.0471 -0.1929"/>
</g>
<g transform="translate(10.8957, 9.6075)">
<rect x="0.0000" y="-0.5651" width="0.3000" height="0.1451" ry="0.0446" fill="currentColor"/>
</g>
<g transform="translate(29.0773, 4.6075)">
<path transform="scale(0.0040, -0.0040)" d="M215 137c67 0 111 -37 111 -92c0 -90 -111 -182 -215 -182c-67 0 -111 37 -111 92c0 90 111 182 215 182z" fill="currentColor"/>
</g>
<g transform="translate(30.3439, 4.1075)">
<rect x="-0.0363" y="-3.0000" width="0.0725" height="3.3206" ry="0.0363" fill="currentColor"/>
</g>
<g transform="translate(27.3588, 9.6075)">
<text font-family="Noto Serif" font-size="2.4690" text-anchor="start" fill="currentColor">
<tspan>son.</tspan>
</text>
</g>
<g transform="translate(9.9621, 2.1546)">
<path transform="scale(0.0040, -0.0040)" d="M0 0c0 -197 207 -335 207 -532c0 -71 -15 -141 -41 -207c-5 -8 -13 -12 -21 -12c-14 0 -27 11 -24 28c26 60 42 125 42 191c0 103 -93 207 -163 282h-18v250h18z" fill="currentColor"/>
</g>
<g transform="translate(12.5209, 4.1075)">
<rect x="-0.0363" y="-2.0030" width="0.0725" height="2.8236" ry="0.0363" fill="currentColor"/>
</g>
<g transform="translate(11.2544, 9.6075)">
<text font-family="Noto Serif" font-size="2.4690" text-anchor="start" fill="currentColor">
<tspan>ri</tspan>
</text>
</g>
<g transform="translate(11.2544, 5.1075)">
<path transform="scale(0.0040, -0.0040)" d="M215 137c67 0 111 -37 111 -92c0 -90 -111 -182 -215 -182c-67 0 -111 37 -111 92c0 90 111 182 215 182z" fill="currentColor"/>
</g>
<g transform="translate(9.9258, 4.1075)">
<rect x="-0.0363" y="-2.0000" width="0.0725" height="3.3206" ry="0.0363" fill="currentColor"/>
</g>
<g transform="translate(7.7843, 9.6075)">
<text font-family="Noto Serif" font-size="2.4690" text-anchor="start" fill="currentColor">
<tspan>Ky</tspan>
</text>
</g>
<g transform="translate(4.4297, 4.1075)">
<path transform="scale(0.0040, -0.0040)" d="M29 39l-2 -64v-11c0 -22 2 -43 5 -65c44 38 91 80 91 138c0 33 -13 66 -42 66c-31 0 -51 -31 -52 -64zM-28 454c9 5 18 8 28 8s19 -3 28 -8l-7 -343c25 23 58 36 92 36c51 0 87 -49 87 -103c0 -79 -84 -117 -144 -169c-16 -14 -25 -41 -47 -41c-14 0 -25 13 -25 27z" fill="currentColor"/>
</g>
<g transform="translate(5.3593, 2.6075)">
<path transform="scale(0.0040, -0.0040)" d="M29 39l-2 -64v-11c0 -22 2 -43 5 -65c44 38 91 80 91 138c0 33 -13 66 -42 66c-31 0 -51 -31 -52 -64zM-28 454c9 5 18 8 28 8s19 -3 28 -8l-7 -343c25 23 58 36 92 36c51 0 87 -49 87 -103c0 -79 -84 -117 -144 -169c-16 -14 -25 -41 -47 -41c-14 0 -25 13 -25 27z" fill="currentColor"/>
</g>
<g transform="translate(0.8000, 5.1075)">
<path transform="scale(0.0040, -0.0040)" d="M646 2c0 -113 -74 -213 -180 -247c3 -34 5 -68 5 -102c0 -20 -1 -40 -2 -60c-7 -121 -91 -228 -209 -228c-108 0 -196 87 -196 196c0 58 53 104 112 104c54 0 95 -48 95 -104c0 -52 -43 -95 -95 -95c-10 0 -20 2 -29 6c26 -38 68 -63 116 -63h3c93 2 153 92 159 190
c1 19 2 37 2 56c0 30 -2 60 -4 90c-5 -1 -43 -8 -88 -8c-194 0 -333 180 -333 375c0 177 130 307 246 442c-31 98 -53 170 -53 347c0 115 55 223 148 290c7 5 16 4 22 -1c68 -80 134 -243 134 -357c0 -143 -85 -255 -178 -364c21 -68 40 -137 57 -206c1 0 5 1 11 1
c156 0 257 -129 257 -262zM462 -202c66 24 111 88 111 162c0 89 -65 178 -170 190c28 -135 50 -272 59 -352zM75 26c0 -145 141 -245 263 -245c1 0 46 0 81 6c-7 65 -27 206 -61 363c-79 -8 -124 -61 -124 -119c0 -43 25 -89 80 -121c5 -5 7 -11 7 -16
c0 -12 -10 -23 -22 -23c-16 0 -127 63 -127 188c0 89 58 175 161 198c-14 58 -29 116 -46 173c-106 -122 -212 -244 -212 -404zM406 1042c-99 -47 -162 -148 -162 -257c0 -49 13 -111 38 -191c79 97 144 199 144 324c0 33 0 63 -20 124z" fill="currentColor"/>
</g>
<g transform="translate(8.6593, 5.6075)">
<path transform="scale(0.0040, -0.0040)" d="M215 137c67 0 111 -37 111 -92c0 -90 -111 -182 -215 -182c-67 0 -111 37 -111 92c0 90 111 182 215 182z" fill="currentColor"/>
</g>
<g transform="translate(16.2600, 4.6075)">
<path transform="scale(0.0040, -0.0040)" d="M215 137c67 0 111 -37 111 -92c0 -90 -111 -182 -215 -182c-67 0 -111 37 -111 92c0 90 111 182 215 182z" fill="currentColor"/>
</g>
<g transform="translate(20.0293, 4.1075)">
<rect x="-0.0363" y="-2.7879" width="0.0725" height="3.1085" ry="0.0363" fill="currentColor"/>
</g>
<g transform="translate(18.7628, 4.6075)">
<path transform="scale(0.0040, -0.0040)" d="M215 137c67 0 111 -37 111 -92c0 -90 -111 -182 -215 -182c-67 0 -111 37 -111 92c0 90 111 182 215 182z" fill="currentColor"/>
</g>
<g transform="translate(17.5265, 4.1075)">
<rect x="-0.0363" y="-2.7879" width="0.0725" height="3.1085" ry="0.0363" fill="currentColor"/>
</g>
<g transform="translate(16.2600, 9.6075)">
<text font-family="Noto Serif" font-size="2.4690" text-anchor="start" fill="currentColor">
<tspan>e</tspan>
</text>
</g>
<g transform="translate(13.7572, 4.6075)">
<path transform="scale(0.0040, -0.0040)" d="M215 137c67 0 111 -37 111 -92c0 -90 -111 -182 -215 -182c-67 0 -111 37 -111 92c0 90 111 182 215 182z" fill="currentColor"/>
</g>
<g transform="translate(15.0237, 4.1075)">
<rect x="-0.0363" y="-2.2091" width="0.0725" height="2.5298" ry="0.0363" fill="currentColor"/>
</g>
</svg>
