<svg xmlns="http://www.w3.org/2000/svg" xmlns:xlink="http://www.w3.org/1999/xlink" version="1.2" viewBox="0.0000 -0.0000 82.3456 26.15305">
<style type="text/css">
<![CDATA[
tspan { white-space: pre; }
]]>
</style>
<g transform="translate(0.0000, 6.3305)">
<line stroke-linejoin="round" stroke-linecap="round" stroke-width="0.0558" stroke="currentColor" x1="0.0279" y1="0" x2="82.3177" y2="0"/>
</g>
<g transform="translate(0.0000, 5.3305)">
<line stroke-linejoin="round" stroke-linecap="round" stroke-width="0.0558" stroke="currentColor" x1="0.0279" y1="0" x2="82.3177" y2="0"/>
</g>
<g transform="translate(0.0000, 4.3305)">
<line stroke-linejoin="round" stroke-linecap="round" stroke-width="0.0558" stroke="currentColor" x1="0.0279" y1="0" x2="82.3177" y2="0"/>
</g>
<g transform="translate(0.0000, 3.3305)">
<line stroke-linejoin="round" stroke-linecap="round" stroke-width="0.0558" stroke="currentColor" x1="0.0279" y1="0" x2="82.3177" y2="0"/>
</g>
<g transform="translate(0.0000, 2.3305)">
<line stroke-linejoin="round" stroke-linecap="round" stroke-width="0.0558" stroke="currentColor" x1="0.0279" y1="0" x2="82.3177" y2="0"/>
</g>
<g transform="translate(39.7700, 4.3305)">
<rect x="0.0000" y="-2.0000" width="0.2120" height="4.0000" ry="0.0000" fill="currentColor"/>
</g>
<g transform="translate(19.5035, 4.3305)">
<rect x="0.0000" y="-2.0000" width="0.2120" height="4.0000" ry="0.0000" fill="currentColor"/>
</g>
<g transform="translate(58.9552, 4.3305)">
<rect x="0.0000" y="-2.0000" width="0.2120" height="4.0000" ry="0.0000" fill="currentColor"/>
</g>
<g transform="translate(82.1336, 4.3305)">
<rect x="0.0000" y="-2.0000" width="0.2120" height="4.0000" ry="0.0000" fill="currentColor"/>
</g>
<g transform="translate(76.1220, 4.3305)">
<rect x="-0.0363" y="-2.0021" width="0.0725" height="2.8228" ry="0.0363" fill="currentColor"/>
</g>
<g transform="translate(66.2718, 5.3305)">
<path transform="scale(0.0040, -0.0040)" d="M215 137c67 0 111 -37 111 -92c0 -90 -111 -182 -215 -182c-67 0 -111 37 -111 92c0 90 111 182 215 182z" fill="currentColor"/>
</g>
<g transform="translate(66.2718, 10.0555)">
<text font-family="Noto Serif" font-size="2.4690" text-anchor="start" fill="currentColor">
<tspan>stoj</tspan>
</text>
</g>
<g transform="translate(65.5374, 12.8555)">
<text font-family="Noto Serif" font-size="2.4690" text-anchor="start" fill="currentColor">
<tspan>ve</tspan>
</text>
</g>
<g transform="translate(67.5383, 4.3305)">
<rect x="-0.0363" y="-1.9982" width="0.0725" height="2.8188" ry="0.0363" fill="currentColor"/>
</g>
<g transform="translate(70.4690, 5.8305)">
<path transform="scale(0.0040, -0.0040)" d="M215 137c67 0 111 -37 111 -92c0 -90 -111 -182 -215 -182c-67 0 -111 37 -111 92c0 90 111 182 215 182z" fill="currentColor"/>
</g>
<g transform="translate(68.4090, 12.8555)">
<text font-family="Noto Serif" font-size="2.4690" text-anchor="start" fill="currentColor">
<tspan>smír</tspan>
</text>
</g>
<g transform="translate(71.7355, 4.3305)">
<rect x="-0.0363" y="-1.7897" width="0.0725" height="3.1103" ry="0.0363" fill="currentColor"/>
</g>
<g transform="translate(74.8555, 5.3305)">
<path transform="scale(0.0040, -0.0040)" d="M215 137c67 0 111 -37 111 -92c0 -90 -111 -182 -215 -182c-67 0 -111 37 -111 92c0 90 111 182 215 182z" fill="currentColor"/>
</g>
<g transform="translate(74.0408, 10.0555)">
<text font-family="Noto Serif" font-size="2.4690" text-anchor="start" fill="currentColor">
<tspan>né</tspan>
</text>
</g>
<g transform="translate(74.2818, 12.8555)">
<text font-family="Noto Serif" font-size="2.4690" text-anchor="start" fill="currentColor">
<tspan>se</tspan>
</text>
</g>
<g transform="translate(76.0858, 2.3305)">
<polygon stroke-linejoin="round" stroke-linecap="round" stroke-width="0.0941" fill="currentColor" stroke="currentColor" points="3.5816 -0.4050 3.5816 -0.0192 0.0471 0.1929 0.0471 -0.1929"/>
</g>
<g transform="translate(52.9799, 4.8305)">
<path transform="scale(0.0040, -0.0040)" d="M215 137c67 0 111 -37 111 -92c0 -90 -111 -182 -215 -182c-67 0 -111 37 -111 92c0 90 111 182 215 182z" fill="currentColor"/>
</g>
<g transform="translate(52.6071, 10.0555)">
<text font-family="Noto Serif" font-size="2.4690" text-anchor="start" fill="currentColor">
<tspan>je</tspan>
</text>
</g>
<g transform="translate(52.3660, 12.8555)">
<text font-family="Noto Serif" font-size="2.4690" text-anchor="start" fill="currentColor">
<tspan>ce</tspan>
</text>
</g>
<g transform="translate(54.2465, 4.3305)">
<rect x="-0.0363" y="-3.0000" width="0.0725" height="3.3206" ry="0.0363" fill="currentColor"/>
</g>
<g transform="translate(60.4623, 5.3305)">
<path transform="scale(0.0040, -0.0040)" d="M215 137c67 0 111 -37 111 -92c0 -90 -111 -182 -215 -182c-67 0 -111 37 -111 92c0 90 111 182 215 182z" fill="currentColor"/>
</g>
<g transform="translate(59.5672, 10.0555)">
<text font-family="Noto Serif" font-size="2.4690" text-anchor="start" fill="currentColor">
<tspan>dů</tspan>
</text>
</g>
<g transform="translate(60.0291, 12.8555)">
<text font-family="Noto Serif" font-size="2.4690" text-anchor="start" fill="currentColor">
<tspan>lý</tspan>
</text>
</g>
<g transform="translate(61.7288, 4.3305)">
<rect x="-0.0363" y="-2.5000" width="0.0725" height="3.3206" ry="0.0363" fill="currentColor"/>
</g>
<g transform="translate(24.3006, 10.0555)">
<rect x="0.0000" y="-0.5651" width="0.6600" height="0.1451" ry="0.0446" fill="currentColor"/>
</g>
<g transform="translate(24.3006, 12.8555)">
<rect x="0.0000" y="-0.5651" width="0.6600" height="0.1451" ry="0.0446" fill="currentColor"/>
</g>
<g transform="translate(44.5972, 10.0555)">
<rect x="0.0000" y="-0.5651" width="0.6600" height="0.1451" ry="0.0446" fill="currentColor"/>
</g>
<g transform="translate(44.5972, 12.8555)">
<rect x="0.0000" y="-0.5651" width="0.6600" height="0.1451" ry="0.0446" fill="currentColor"/>
</g>
<g transform="translate(32.7336, 6.5426)">
<polygon stroke-linejoin="round" stroke-linecap="round" stroke-width="0.0941" fill="currentColor" stroke="currentColor" points="3.6001 0.3829 3.6001 0.7687 0.0471 0.1929 0.0471 -0.1929"/>
</g>
<g transform="translate(57.1329, 12.8555)">
<rect x="0.0000" y="-0.5651" width="0.6600" height="0.1451" ry="0.0446" fill="currentColor"/>
</g>
<g transform="translate(64.1360, 10.0555)">
<rect x="0.0000" y="-0.5651" width="0.6600" height="0.1451" ry="0.0446" fill="currentColor"/>
</g>
<g transform="translate(67.5021, 2.3305)">
<polygon stroke-linejoin="round" stroke-linecap="round" stroke-width="0.0941" fill="currentColor" stroke="currentColor" points="4.2227 0.0192 4.2227 0.4050 0.0471 0.1929 0.0471 -0.1929"/>
</g>
<g transform="translate(71.8950, 10.0555)">
<rect x="0.0000" y="-0.5651" width="0.6600" height="0.1451" ry="0.0446" fill="currentColor"/>
</g>
<g transform="translate(78.4117, 4.8305)">
<path transform="scale(0.0040, -0.0040)" d="M215 137c67 0 111 -37 111 -92c0 -90 -111 -182 -215 -182c-67 0 -111 37 -111 92c0 90 111 182 215 182z" fill="currentColor"/>
</g>
<g transform="translate(77.6973, 10.0555)">
<text font-family="Noto Serif" font-size="2.4690" text-anchor="start" fill="currentColor">
<tspan>Tě</tspan>
</text>
</g>
<g transform="translate(77.8982, 12.8555)">
<text font-family="Noto Serif" font-size="2.4690" text-anchor="start" fill="currentColor">
<tspan>Ti</tspan>
</text>
</g>
<g transform="translate(79.6782, 4.3305)">
<rect x="-0.0363" y="-2.2100" width="0.0725" height="2.5306" ry="0.0363" fill="currentColor"/>
</g>
<g transform="translate(21.1146, 4.3305)">
<path transform="scale(0.0040, -0.0040)" d="M215 137c67 0 111 -37 111 -92c0 -90 -111 -182 -215 -182c-67 0 -111 37 -111 92c0 90 111 182 215 182z" fill="currentColor"/>
</g>
<g transform="translate(20.2596, 10.0555)">
<text font-family="Noto Serif" font-size="2.4690" text-anchor="start" fill="currentColor">
<tspan>Bo</tspan>
</text>
</g>
<g transform="translate(20.2596, 12.8555)">
<text font-family="Noto Serif" font-size="2.4690" text-anchor="start" fill="currentColor">
<tspan>Bo</tspan>
</text>
</g>
<g transform="translate(21.1508, 4.3305)">
<rect x="-0.0363" y="0.1794" width="0.0725" height="3.1540" ry="0.0363" fill="currentColor"/>
</g>
<g transform="translate(26.9241, 4.3305)">
<path transform="scale(0.0040, -0.0040)" d="M215 137c67 0 111 -37 111 -92c0 -90 -111 -182 -215 -182c-67 0 -111 37 -111 92c0 90 111 182 215 182z" fill="currentColor"/>
</g>
<g transform="translate(25.9888, 10.0555)">
<text font-family="Noto Serif" font-size="2.4690" text-anchor="start" fill="currentColor">
<tspan>že,</tspan>
</text>
</g>
<g transform="translate(25.9888, 12.8555)">
<text font-family="Noto Serif" font-size="2.4690" text-anchor="start" fill="currentColor">
<tspan>že,</tspan>
</text>
</g>
<g transform="translate(9.9906, 4.3305)">
<path transform="scale(0.0040, -0.0040)" d="M264 265c0 -34 72 -24 72 -125c0 -92 -80 -140 -180 -140c-79 0 -156 43 -156 115c0 36 29 65 65 65s65 -29 65 -65c0 -25 -40 -29 -40 -54c0 -28 34 -36 66 -36c48 0 61 59 61 115v22c0 50 -3 88 -49 88h-78c-10 0 -15 7 -15 15s5 15 15 15h78c46 0 49 40 49 92v14
c0 53 -18 89 -66 89c-29 0 -59 -8 -59 -33c0 -22 36 -25 36 -47c0 -31 -26 -57 -57 -57s-57 26 -57 57c0 65 66 105 137 105c92 0 170 -33 170 -114c0 -119 -57 -80 -57 -121z" fill="currentColor"/>
</g>
<g transform="translate(9.8500, 6.3424)">
<path transform="scale(0.0040, -0.0040)" d="M194 120h120c0 -49 29 -95 75 -95c8 0 12 -7 12 -13s-4 -12 -12 -12c-45 0 -90 13 -135 13s-90 -13 -135 -13c-8 0 -12 6 -12 12s4 13 12 13c46 0 75 46 75 95zM224 487c37 0 70 14 78 14c9 0 14 -7 14 -13c0 -2 0 -3 -2 -5l-283 -327h163v122c0 35 36 28 70 74
c23 30 22 57 36 57c6 0 14 -6 14 -15v-238h74c10 0 16 -8 16 -16s-6 -15 -16 -15h-74v-5h-120v5h-163c-24 0 -33 15 -33 24c0 12 136 140 136 334c0 11 8 20 17 17c24 -7 48 -13 73 -13z" fill="currentColor"/>
</g>
<g transform="translate(13.4568, 6.3305)">
<path transform="scale(0.0040, -0.0040)" d="M215 137c67 0 111 -37 111 -92c0 -90 -111 -182 -215 -182c-67 0 -111 37 -111 92c0 90 111 182 215 182z" fill="currentColor"/>
</g>
<g transform="translate(0.8000, 5.3305)">
<path transform="scale(0.0040, -0.0040)" d="M646 2c0 -113 -74 -213 -180 -247c3 -34 5 -68 5 -102c0 -20 -1 -40 -2 -60c-7 -121 -91 -228 -209 -228c-108 0 -196 87 -196 196c0 58 53 104 112 104c54 0 95 -48 95 -104c0 -52 -43 -95 -95 -95c-10 0 -20 2 -29 6c26 -38 68 -63 116 -63h3c93 2 153 92 159 190
c1 19 2 37 2 56c0 30 -2 60 -4 90c-5 -1 -43 -8 -88 -8c-194 0 -333 180 -333 375c0 177 130 307 246 442c-31 98 -53 170 -53 347c0 115 55 223 148 290c7 5 16 4 22 -1c68 -80 134 -243 134 -357c0 -143 -85 -255 -178 -364c21 -68 40 -137 57 -206c1 0 5 1 11 1
c156 0 257 -129 257 -262zM462 -202c66 24 111 88 111 162c0 89 -65 178 -170 190c28 -135 50 -272 59 -352zM75 26c0 -145 141 -245 263 -245c1 0 46 0 81 6c-7 65 -27 206 -61 363c-79 -8 -124 -61 -124 -119c0 -43 25 -89 80 -121c5 -5 7 -11 7 -16
c0 -12 -10 -23 -22 -23c-16 0 -127 63 -127 188c0 89 58 175 161 198c-14 58 -29 116 -46 173c-106 -122 -212 -244 -212 -404zM406 1042c-99 -47 -162 -148 -162 -257c0 -49 13 -111 38 -191c79 97 144 199 144 324c0 33 0 63 -20 124z" fill="currentColor"/>
</g>
<g transform="translate(4.3000, 2.3305)">
<path transform="scale(0.0040, -0.0040)" d="M0 117c0 9 6 18 15 21l43 16v157c0 11 8 19 19 19s20 -8 20 -19v-142l81 30v156c0 11 9 20 20 20s19 -9 19 -20v-142l28 11c3 1 5 1 8 1c12 0 22 -10 22 -23v-57c0 -9 -6 -18 -15 -21l-43 -16v-157l28 10c3 1 5 1 8 1c12 0 22 -9 22 -22v-57c0 -9 -6 -18 -15 -21l-43 -16
v-157c0 -11 -8 -19 -19 -19s-20 8 -20 19v142l-81 -30v-156c0 -11 -9 -20 -20 -20s-19 9 -19 20v142l-28 -11c-3 -1 -5 -1 -8 -1c-12 0 -22 10 -22 23v57c0 9 6 18 15 21l43 16v157l-28 -10c-3 -1 -5 -1 -8 -1c-12 0 -22 9 -22 22v57zM178 94l-81 -30v-158l81 30v158z" fill="currentColor"/>
</g>
<g transform="translate(5.4000, 3.8305)">
<path transform="scale(0.0040, -0.0040)" d="M0 117c0 9 6 18 15 21l43 16v157c0 11 8 19 19 19s20 -8 20 -19v-142l81 30v156c0 11 9 20 20 20s19 -9 19 -20v-142l28 11c3 1 5 1 8 1c12 0 22 -10 22 -23v-57c0 -9 -6 -18 -15 -21l-43 -16v-157l28 10c3 1 5 1 8 1c12 0 22 -9 22 -22v-57c0 -9 -6 -18 -15 -21l-43 -16
v-157c0 -11 -8 -19 -19 -19s-20 8 -20 19v142l-81 -30v-156c0 -11 -9 -20 -20 -20s-19 9 -19 20v142l-28 -11c-3 -1 -5 -1 -8 -1c-12 0 -22 10 -22 23v57c0 9 6 18 15 21l43 16v157l-28 -10c-3 -1 -5 -1 -8 -1c-12 0 -22 9 -22 22v57zM178 94l-81 -30v-158l81 30v158z" fill="currentColor"/>
</g>
<g transform="translate(6.5000, 1.8305)">
<path transform="scale(0.0040, -0.0040)" d="M0 117c0 9 6 18 15 21l43 16v157c0 11 8 19 19 19s20 -8 20 -19v-142l81 30v156c0 11 9 20 20 20s19 -9 19 -20v-142l28 11c3 1 5 1 8 1c12 0 22 -10 22 -23v-57c0 -9 -6 -18 -15 -21l-43 -16v-157l28 10c3 1 5 1 8 1c12 0 22 -9 22 -22v-57c0 -9 -6 -18 -15 -21l-43 -16
v-157c0 -11 -8 -19 -19 -19s-20 8 -20 19v142l-81 -30v-156c0 -11 -9 -20 -20 -20s-19 9 -19 20v142l-28 -11c-3 -1 -5 -1 -8 -1c-12 0 -22 10 -22 23v57c0 9 6 18 15 21l43 16v157l-28 -10c-3 -1 -5 -1 -8 -1c-12 0 -22 9 -22 22v57zM178 94l-81 -30v-158l81 30v158z" fill="currentColor"/>
</g>
<g transform="translate(7.6000, 3.3305)">
<path transform="scale(0.0040, -0.0040)" d="M0 117c0 9 6 18 15 21l43 16v157c0 11 8 19 19 19s20 -8 20 -19v-142l81 30v156c0 11 9 20 20 20s19 -9 19 -20v-142l28 11c3 1 5 1 8 1c12 0 22 -10 22 -23v-57c0 -9 -6 -18 -15 -21l-43 -16v-157l28 10c3 1 5 1 8 1c12 0 22 -9 22 -22v-57c0 -9 -6 -18 -15 -21l-43 -16
v-157c0 -11 -8 -19 -19 -19s-20 8 -20 19v142l-81 -30v-156c0 -11 -9 -20 -20 -20s-19 9 -19 20v142l-28 -11c-3 -1 -5 -1 -8 -1c-12 0 -22 10 -22 23v57c0 9 6 18 15 21l43 16v157l-28 -10c-3 -1 -5 -1 -8 -1c-12 0 -22 9 -22 22v57zM178 94l-81 -30v-158l81 30v158z" fill="currentColor"/>
</g>
<g transform="translate(26.9604, 4.3305)">
<rect x="-0.0363" y="0.1794" width="0.0725" height="3.1540" ry="0.0363" fill="currentColor"/>
</g>
<g transform="translate(12.9232, 10.0555)">
<text font-family="Noto Serif" font-size="2.4690" text-anchor="start" fill="currentColor">
<tspan>Ó,</tspan>
</text>
</g>
<g transform="translate(12.9232, 12.8555)">
<text font-family="Noto Serif" font-size="2.4690" text-anchor="start" fill="currentColor">
<tspan>Ó,</tspan>
</text>
</g>
<g transform="translate(14.7233, 4.3305)">
<rect x="-0.0363" y="-1.5000" width="0.0725" height="3.3206" ry="0.0363" fill="currentColor"/>
</g>
<g transform="translate(40.5262, 12.8555)">
<text font-family="Noto Serif" font-size="2.4690" text-anchor="start" fill="currentColor">
<tspan>na</tspan>
</text>
</g>
<g transform="translate(41.3811, 4.3305)">
<path transform="scale(0.0040, -0.0040)" d="M215 137c67 0 111 -37 111 -92c0 -90 -111 -182 -215 -182c-67 0 -111 37 -111 92c0 90 111 182 215 182z" fill="currentColor"/>
</g>
<g transform="translate(40.5262, 10.0555)">
<text font-family="Noto Serif" font-size="2.4690" text-anchor="start" fill="currentColor">
<tspan>na</tspan>
</text>
</g>
<g transform="translate(41.4174, 4.3305)">
<rect x="-0.0363" y="0.1794" width="0.0725" height="3.1540" ry="0.0363" fill="currentColor"/>
</g>
<g transform="translate(47.2269, 4.3305)">
<rect x="-0.0363" y="0.1794" width="0.0725" height="3.1540" ry="0.0363" fill="currentColor"/>
</g>
<g transform="translate(32.7336, 3.8305)">
<path transform="scale(0.0040, -0.0040)" d="M215 137c67 0 111 -37 111 -92c0 -90 -111 -182 -215 -182c-67 0 -111 37 -111 92c0 90 111 182 215 182z" fill="currentColor"/>
</g>
<g transform="translate(30.9950, 10.0555)">
<text font-family="Noto Serif" font-size="2.4690" text-anchor="start" fill="currentColor">
<tspan>svět</tspan>
</text>
</g>
<g transform="translate(30.9950, 12.8555)">
<text font-family="Noto Serif" font-size="2.4690" text-anchor="start" fill="currentColor">
<tspan>svět</tspan>
</text>
</g>
<g transform="translate(32.7699, 4.3305)">
<rect x="-0.0363" y="-0.3206" width="0.0725" height="2.5385" ry="0.0363" fill="currentColor"/>
</g>
<g transform="translate(46.3156, 12.8555)">
<text font-family="Noto Serif" font-size="2.4690" text-anchor="start" fill="currentColor">
<tspan>še,</tspan>
</text>
</g>
<g transform="translate(46.3156, 10.0555)">
<text font-family="Noto Serif" font-size="2.4690" text-anchor="start" fill="currentColor">
<tspan>še,</tspan>
</text>
</g>
<g transform="translate(47.1906, 4.3305)">
<path transform="scale(0.0040, -0.0040)" d="M215 137c67 0 111 -37 111 -92c0 -90 -111 -182 -215 -182c-67 0 -111 37 -111 92c0 90 111 182 215 182z" fill="currentColor"/>
</g>
<g transform="translate(36.3082, 4.8305)">
<path transform="scale(0.0040, -0.0040)" d="M215 137c67 0 111 -37 111 -92c0 -90 -111 -182 -215 -182c-67 0 -111 37 -111 92c0 90 111 182 215 182z" fill="currentColor"/>
</g>
<g transform="translate(35.8750, 10.0555)">
<text font-family="Noto Serif" font-size="2.4690" text-anchor="start" fill="currentColor">
<tspan>lo</tspan>
</text>
</g>
<g transform="translate(35.8750, 12.8555)">
<text font-family="Noto Serif" font-size="2.4690" text-anchor="start" fill="currentColor">
<tspan>lo</tspan>
</text>
</g>
<g transform="translate(36.3445, 4.3305)">
<rect x="-0.0363" y="0.6794" width="0.0725" height="2.1028" ry="0.0363" fill="currentColor"/>
</g>
<g transform="translate(0.0000, 19.2358)">
<line stroke-linejoin="round" stroke-linecap="round" stroke-width="0.0558" stroke="currentColor" x1="0.0279" y1="0" x2="82.3177" y2="0"/>
</g>
<g transform="translate(0.0000, 18.2358)">
<line stroke-linejoin="round" stroke-linecap="round" stroke-width="0.0558" stroke="currentColor" x1="0.0279" y1="0" x2="82.3177" y2="0"/>
</g>
<g transform="translate(0.0000, 17.2358)">
<line stroke-linejoin="round" stroke-linecap="round" stroke-width="0.0558" stroke="currentColor" x1="0.0279" y1="0" x2="82.3177" y2="0"/>
</g>
<g transform="translate(0.0000, 16.2358)">
<line stroke-linejoin="round" stroke-linecap="round" stroke-width="0.0558" stroke="currentColor" x1="0.0279" y1="0" x2="82.3177" y2="0"/>
</g>
<g transform="translate(0.0000, 15.2358)">
<line stroke-linejoin="round" stroke-linecap="round" stroke-width="0.0558" stroke="currentColor" x1="0.0279" y1="0" x2="82.3177" y2="0"/>
</g>
<g transform="translate(71.5073, 17.2358)">
<rect x="0.0000" y="-2.0000" width="0.2120" height="4.0000" ry="0.0000" fill="currentColor"/>
</g>
<g transform="translate(25.6185, 17.2358)">
<rect x="0.0000" y="-2.0000" width="0.2120" height="4.0000" ry="0.0000" fill="currentColor"/>
</g>
<g transform="translate(80.3485, 16.7358)">
<path transform="scale(0.0040, -0.0040)" d="M0 0c0 31 25 56 56 56s55 -25 55 -56s-24 -56 -55 -56s-56 25 -56 56z" fill="currentColor"/>
</g>
<g transform="translate(80.3485, 17.7358)">
<path transform="scale(0.0040, -0.0040)" d="M0 0c0 31 25 56 56 56s55 -25 55 -56s-24 -56 -55 -56s-56 25 -56 56z" fill="currentColor"/>
</g>
<g transform="translate(81.6760, 17.2358)">
<rect x="0.0000" y="-2.0000" width="0.6696" height="4.0000" ry="0.0000" fill="currentColor"/>
</g>
<g transform="translate(81.1292, 17.2358)">
<rect x="0.0000" y="-2.0000" width="0.2120" height="4.0000" ry="0.0000" fill="currentColor"/>
</g>
<g transform="translate(39.7386, 17.2358)">
<rect x="0.0000" y="-2.0000" width="0.2120" height="4.0000" ry="0.0000" fill="currentColor"/>
</g>
<g transform="translate(52.4845, 17.2358)">
<rect x="0.0000" y="-2.0000" width="0.2120" height="4.0000" ry="0.0000" fill="currentColor"/>
</g>
<g transform="translate(59.7964, 17.2358)">
<rect x="-0.0363" y="-2.2105" width="0.0725" height="2.5311" ry="0.0363" fill="currentColor"/>
</g>
<g transform="translate(59.7601, 15.0237)">
<polygon stroke-linejoin="round" stroke-linecap="round" stroke-width="0.0941" fill="currentColor" stroke="currentColor" points="4.7334 0.0192 4.7334 0.4050 0.0471 0.1929 0.0471 -0.1929"/>
</g>
<g transform="translate(63.2377, 18.2358)">
<path transform="scale(0.0040, -0.0040)" d="M215 137c67 0 111 -37 111 -92c0 -90 -111 -182 -215 -182c-67 0 -111 37 -111 92c0 90 111 182 215 182z" fill="currentColor"/>
</g>
<g transform="translate(61.8003, 22.7358)">
<text font-family="Noto Serif" font-size="2.4690" text-anchor="start" fill="currentColor">
<tspan>Sva</tspan>
</text>
</g>
<g transform="translate(61.8003, 25.5358)">
<text font-family="Noto Serif" font-size="2.4690" text-anchor="start" fill="currentColor">
<tspan>Sva</tspan>
</text>
</g>
<g transform="translate(64.5042, 17.2358)">
<rect x="-0.0363" y="-2.0016" width="0.0725" height="2.8222" ry="0.0363" fill="currentColor"/>
</g>
<g transform="translate(57.0121, 25.5358)">
<text font-family="Noto Serif" font-size="2.4690" text-anchor="start" fill="currentColor">
<tspan>chu</tspan>
</text>
</g>
<g transform="translate(66.5311, 18.7358)">
<path transform="scale(0.0040, -0.0040)" d="M215 137c67 0 111 -37 111 -92c0 -90 -111 -182 -215 -182c-67 0 -111 37 -111 92c0 90 111 182 215 182z" fill="currentColor"/>
</g>
<g transform="translate(66.0779, 22.7358)">
<text font-family="Noto Serif" font-size="2.4690" text-anchor="start" fill="currentColor">
<tspan>té</tspan>
</text>
</g>
<g transform="translate(66.0779, 25.5358)">
<text font-family="Noto Serif" font-size="2.4690" text-anchor="start" fill="currentColor">
<tspan>té</tspan>
</text>
</g>
<g transform="translate(67.7976, 17.2358)">
<rect x="-0.0363" y="-2.0000" width="0.0725" height="3.3206" ry="0.0363" fill="currentColor"/>
</g>
<g transform="translate(73.8136, 19.2358)">
<path transform="scale(0.0040, -0.0040)" d="M312 64c0 23 -18 41 -41 41c-39 0 -201 -110 -228 -142c-7 -8 -10 -17 -10 -27c0 -23 18 -41 41 -41c39 0 201 110 228 142c7 8 10 17 10 27zM259 137c46 0 86 -17 86 -74c0 -26 -15 -112 -73 -151c-29 -20 -89 -49 -186 -49c-46 0 -86 17 -86 74c0 26 16 112 74 151
c29 20 88 49 185 49z" fill="currentColor"/>
</g>
<g transform="translate(47.8295, 22.7358)">
<text font-family="Noto Serif" font-size="2.4690" text-anchor="start" fill="currentColor">
<tspan>i</tspan>
</text>
</g>
<g transform="translate(53.7908, 18.2358)">
<path transform="scale(0.0040, -0.0040)" d="M215 137c67 0 111 -37 111 -92c0 -90 -111 -182 -215 -182c-67 0 -111 37 -111 92c0 90 111 182 215 182z" fill="currentColor"/>
</g>
<g transform="translate(48.8463, 17.2358)">
<rect x="-0.0363" y="-3.0000" width="0.0725" height="3.3206" ry="0.0363" fill="currentColor"/>
</g>
<g transform="translate(52.7552, 22.7358)">
<text font-family="Noto Serif" font-size="2.4690" text-anchor="start" fill="currentColor">
<tspan>Du</tspan>
</text>
</g>
<g transform="translate(52.7552, 25.5358)">
<text font-family="Noto Serif" font-size="2.4690" text-anchor="start" fill="currentColor">
<tspan>Du</tspan>
</text>
</g>
<g transform="translate(55.0574, 17.2358)">
<rect x="-0.0363" y="-2.5000" width="0.0725" height="3.3206" ry="0.0363" fill="currentColor"/>
</g>
<g transform="translate(47.8295, 25.5358)">
<text font-family="Noto Serif" font-size="2.4690" text-anchor="start" fill="currentColor">
<tspan>i</tspan>
</text>
</g>
<g transform="translate(58.5298, 17.7358)">
<path transform="scale(0.0040, -0.0040)" d="M215 137c67 0 111 -37 111 -92c0 -90 -111 -182 -215 -182c-67 0 -111 37 -111 92c0 90 111 182 215 182z" fill="currentColor"/>
</g>
<g transform="translate(57.0925, 22.7358)">
<text font-family="Noto Serif" font-size="2.4690" text-anchor="start" fill="currentColor">
<tspan>cha</tspan>
</text>
</g>
<g transform="translate(14.7136, 22.7358)">
<rect x="0.0000" y="-0.5651" width="0.3000" height="0.1451" ry="0.0446" fill="currentColor"/>
</g>
<g transform="translate(14.0416, 25.5358)">
<rect x="0.0000" y="-0.5651" width="0.6600" height="0.1451" ry="0.0446" fill="currentColor"/>
</g>
<g transform="translate(24.0418, 22.7358)">
<rect x="0.0000" y="-0.5651" width="0.6600" height="0.1451" ry="0.0446" fill="currentColor"/>
</g>
<g transform="translate(24.1724, 25.5358)">
<rect x="0.0000" y="-0.5651" width="0.6600" height="0.1451" ry="0.0446" fill="currentColor"/>
</g>
<g transform="translate(33.7096, 17.2358)">
<path stroke-width="0.0446" stroke-linejoin="round" stroke-linecap="round" stroke="currentColor" fill="currentColor" d="M0.4612 1.1986C0.8589 2.2004 2.1980 2.8529 3.2321 2.5486L3.2321 2.5486C2.2274 2.7927 0.8882 2.1402 0.4612 1.1986z"/>
</g>
<g transform="translate(37.9849, 22.7358)">
<rect x="0.0000" y="-0.5651" width="0.6600" height="0.1451" ry="0.0446" fill="currentColor"/>
</g>
<g transform="translate(37.9447, 25.5358)">
<rect x="0.0000" y="-0.5651" width="0.6600" height="0.1451" ry="0.0446" fill="currentColor"/>
</g>
<g transform="translate(34.9399, 14.2358)">
<polygon stroke-linejoin="round" stroke-linecap="round" stroke-width="0.0941" fill="currentColor" stroke="currentColor" points="2.7964 0.5950 2.7964 0.9808 0.0471 0.1929 0.0471 -0.1929"/>
</g>
<g transform="translate(56.2809, 22.7358)">
<rect x="0.0000" y="-0.5651" width="0.6600" height="0.1451" ry="0.0446" fill="currentColor"/>
</g>
<g transform="translate(56.2407, 25.5358)">
<rect x="0.0000" y="-0.5651" width="0.6600" height="0.1451" ry="0.0446" fill="currentColor"/>
</g>
<g transform="translate(70.1718, 22.7358)">
<rect x="0.0000" y="-0.5651" width="0.6600" height="0.1451" ry="0.0446" fill="currentColor"/>
</g>
<g transform="translate(69.9408, 25.5358)">
<rect x="0.0000" y="-0.5651" width="0.6600" height="0.1451" ry="0.0446" fill="currentColor"/>
</g>
<g transform="translate(72.7164, 22.7358)">
<text font-family="Noto Serif" font-size="2.4690" text-anchor="start" fill="currentColor">
<tspan>ho.</tspan>
</text>
</g>
<g transform="translate(72.2545, 25.5358)">
<text font-family="Noto Serif" font-size="2.4690" text-anchor="start" fill="currentColor">
<tspan>mu.</tspan>
</text>
</g>
<g transform="translate(75.1579, 17.2358)">
<rect x="-0.0363" y="-1.5000" width="0.0725" height="3.2470" ry="0.0363" fill="currentColor"/>
</g>
<g transform="translate(15.9390, 18.7358)">
<path transform="scale(0.0040, -0.0040)" d="M215 137c67 0 111 -37 111 -92c0 -90 -111 -182 -215 -182c-67 0 -111 37 -111 92c0 90 111 182 215 182z" fill="currentColor"/>
</g>
<g transform="translate(15.0640, 22.7358)">
<text font-family="Noto Serif" font-size="2.4690" text-anchor="start" fill="currentColor">
<tspan>lit,</tspan>
</text>
</g>
<g transform="translate(15.0841, 25.5358)">
<text font-family="Noto Serif" font-size="2.4690" text-anchor="start" fill="currentColor">
<tspan>ní,</tspan>
</text>
</g>
<g transform="translate(17.2056, 17.2358)">
<rect x="-0.0363" y="-2.0000" width="0.0725" height="3.3206" ry="0.0363" fill="currentColor"/>
</g>
<g transform="translate(20.6780, 18.2358)">
<path transform="scale(0.0040, -0.0040)" d="M215 137c67 0 111 -37 111 -92c0 -90 -111 -182 -215 -182c-67 0 -111 37 -111 92c0 90 111 182 215 182z" fill="currentColor"/>
</g>
<g transform="translate(19.9637, 22.7358)">
<text font-family="Noto Serif" font-size="2.4690" text-anchor="start" fill="currentColor">
<tspan>Ot</tspan>
</text>
</g>
<g transform="translate(19.9637, 25.5358)">
<text font-family="Noto Serif" font-size="2.4690" text-anchor="start" fill="currentColor">
<tspan>Ot</tspan>
</text>
</g>
<g transform="translate(21.9445, 17.2358)">
<rect x="-0.0363" y="-2.5000" width="0.0725" height="3.3206" ry="0.0363" fill="currentColor"/>
</g>
<g transform="translate(26.9248, 19.2358)">
<path transform="scale(0.0040, -0.0040)" d="M312 64c0 23 -18 41 -41 41c-39 0 -201 -110 -228 -142c-7 -8 -10 -17 -10 -27c0 -23 18 -41 41 -41c39 0 201 110 228 142c7 8 10 17 10 27zM259 137c46 0 86 -17 86 -74c0 -26 -15 -112 -73 -151c-29 -20 -89 -49 -186 -49c-46 0 -86 17 -86 74c0 26 16 112 74 151
c29 20 88 49 185 49z" fill="currentColor"/>
</g>
<g transform="translate(26.0485, 22.7358)">
<text font-family="Noto Serif" font-size="2.4690" text-anchor="start" fill="currentColor">
<tspan>ce,</tspan>
</text>
</g>
<g transform="translate(26.3096, 25.5358)">
<text font-family="Noto Serif" font-size="2.4690" text-anchor="start" fill="currentColor">
<tspan>ci,</tspan>
</text>
</g>
<g transform="translate(47.5798, 17.7358)">
<path transform="scale(0.0040, -0.0040)" d="M215 137c67 0 111 -37 111 -92c0 -90 -111 -182 -215 -182c-67 0 -111 37 -111 92c0 90 111 182 215 182z" fill="currentColor"/>
</g>
<g transform="translate(0.8000, 18.2358)">
<path transform="scale(0.0040, -0.0040)" d="M646 2c0 -113 -74 -213 -180 -247c3 -34 5 -68 5 -102c0 -20 -1 -40 -2 -60c-7 -121 -91 -228 -209 -228c-108 0 -196 87 -196 196c0 58 53 104 112 104c54 0 95 -48 95 -104c0 -52 -43 -95 -95 -95c-10 0 -20 2 -29 6c26 -38 68 -63 116 -63h3c93 2 153 92 159 190
c1 19 2 37 2 56c0 30 -2 60 -4 90c-5 -1 -43 -8 -88 -8c-194 0 -333 180 -333 375c0 177 130 307 246 442c-31 98 -53 170 -53 347c0 115 55 223 148 290c7 5 16 4 22 -1c68 -80 134 -243 134 -357c0 -143 -85 -255 -178 -364c21 -68 40 -137 57 -206c1 0 5 1 11 1
c156 0 257 -129 257 -262zM462 -202c66 24 111 88 111 162c0 89 -65 178 -170 190c28 -135 50 -272 59 -352zM75 26c0 -145 141 -245 263 -245c1 0 46 0 81 6c-7 65 -27 206 -61 363c-79 -8 -124 -61 -124 -119c0 -43 25 -89 80 -121c5 -5 7 -11 7 -16
c0 -12 -10 -23 -22 -23c-16 0 -127 63 -127 188c0 89 58 175 161 198c-14 58 -29 116 -46 173c-106 -122 -212 -244 -212 -404zM406 1042c-99 -47 -162 -148 -162 -257c0 -49 13 -111 38 -191c79 97 144 199 144 324c0 33 0 63 -20 124z" fill="currentColor"/>
</g>
<g transform="translate(4.3000, 15.2358)">
<path transform="scale(0.0040, -0.0040)" d="M0 117c0 9 6 18 15 21l43 16v157c0 11 8 19 19 19s20 -8 20 -19v-142l81 30v156c0 11 9 20 20 20s19 -9 19 -20v-142l28 11c3 1 5 1 8 1c12 0 22 -10 22 -23v-57c0 -9 -6 -18 -15 -21l-43 -16v-157l28 10c3 1 5 1 8 1c12 0 22 -9 22 -22v-57c0 -9 -6 -18 -15 -21l-43 -16
v-157c0 -11 -8 -19 -19 -19s-20 8 -20 19v142l-81 -30v-156c0 -11 -9 -20 -20 -20s-19 9 -19 20v142l-28 -11c-3 -1 -5 -1 -8 -1c-12 0 -22 10 -22 23v57c0 9 6 18 15 21l43 16v157l-28 -10c-3 -1 -5 -1 -8 -1c-12 0 -22 9 -22 22v57zM178 94l-81 -30v-158l81 30v158z" fill="currentColor"/>
</g>
<g transform="translate(5.4000, 16.7358)">
<path transform="scale(0.0040, -0.0040)" d="M0 117c0 9 6 18 15 21l43 16v157c0 11 8 19 19 19s20 -8 20 -19v-142l81 30v156c0 11 9 20 20 20s19 -9 19 -20v-142l28 11c3 1 5 1 8 1c12 0 22 -10 22 -23v-57c0 -9 -6 -18 -15 -21l-43 -16v-157l28 10c3 1 5 1 8 1c12 0 22 -9 22 -22v-57c0 -9 -6 -18 -15 -21l-43 -16
v-157c0 -11 -8 -19 -19 -19s-20 8 -20 19v142l-81 -30v-156c0 -11 -9 -20 -20 -20s-19 9 -19 20v142l-28 -11c-3 -1 -5 -1 -8 -1c-12 0 -22 10 -22 23v57c0 9 6 18 15 21l43 16v157l-28 -10c-3 -1 -5 -1 -8 -1c-12 0 -22 9 -22 22v57zM178 94l-81 -30v-158l81 30v158z" fill="currentColor"/>
</g>
<g transform="translate(6.5000, 14.7358)">
<path transform="scale(0.0040, -0.0040)" d="M0 117c0 9 6 18 15 21l43 16v157c0 11 8 19 19 19s20 -8 20 -19v-142l81 30v156c0 11 9 20 20 20s19 -9 19 -20v-142l28 11c3 1 5 1 8 1c12 0 22 -10 22 -23v-57c0 -9 -6 -18 -15 -21l-43 -16v-157l28 10c3 1 5 1 8 1c12 0 22 -9 22 -22v-57c0 -9 -6 -18 -15 -21l-43 -16
v-157c0 -11 -8 -19 -19 -19s-20 8 -20 19v142l-81 -30v-156c0 -11 -9 -20 -20 -20s-19 9 -19 20v142l-28 -11c-3 -1 -5 -1 -8 -1c-12 0 -22 10 -22 23v57c0 9 6 18 15 21l43 16v157l-28 -10c-3 -1 -5 -1 -8 -1c-12 0 -22 9 -22 22v57zM178 94l-81 -30v-158l81 30v158z" fill="currentColor"/>
</g>
<g transform="translate(7.6000, 16.2358)">
<path transform="scale(0.0040, -0.0040)" d="M0 117c0 9 6 18 15 21l43 16v157c0 11 8 19 19 19s20 -8 20 -19v-142l81 30v156c0 11 9 20 20 20s19 -9 19 -20v-142l28 11c3 1 5 1 8 1c12 0 22 -10 22 -23v-57c0 -9 -6 -18 -15 -21l-43 -16v-157l28 10c3 1 5 1 8 1c12 0 22 -9 22 -22v-57c0 -9 -6 -18 -15 -21l-43 -16
v-157c0 -11 -8 -19 -19 -19s-20 8 -20 19v142l-81 -30v-156c0 -11 -9 -20 -20 -20s-19 9 -19 20v142l-28 -11c-3 -1 -5 -1 -8 -1c-12 0 -22 10 -22 23v57c0 9 6 18 15 21l43 16v157l-28 -10c-3 -1 -5 -1 -8 -1c-12 0 -22 9 -22 22v57zM178 94l-81 -30v-158l81 30v158z" fill="currentColor"/>
</g>
<g transform="translate(28.2691, 17.2358)">
<rect x="-0.0363" y="-1.5000" width="0.0725" height="3.2470" ry="0.0363" fill="currentColor"/>
</g>
<g transform="translate(11.2000, 18.7358)">
<path transform="scale(0.0040, -0.0040)" d="M215 137c67 0 111 -37 111 -92c0 -90 -111 -182 -215 -182c-67 0 -111 37 -111 92c0 90 111 182 215 182z" fill="currentColor"/>
</g>
<g transform="translate(9.0396, 22.7358)">
<text font-family="Noto Serif" font-size="2.4690" text-anchor="start" fill="currentColor">
<tspan>chvá</tspan>
</text>
</g>
<g transform="translate(10.0439, 25.5358)">
<text font-family="Noto Serif" font-size="2.4690" text-anchor="start" fill="currentColor">
<tspan>kla</tspan>
</text>
</g>
<g transform="translate(12.4666, 17.2358)">
<rect x="-0.0363" y="-2.0000" width="0.0725" height="3.3206" ry="0.0363" fill="currentColor"/>
</g>
<g transform="translate(36.4805, 18.7358)">
<path transform="scale(0.0040, -0.0040)" d="M215 137c67 0 111 -37 111 -92c0 -90 -111 -182 -215 -182c-67 0 -111 37 -111 92c0 90 111 182 215 182z" fill="currentColor"/>
</g>
<g transform="translate(37.7471, 17.2358)">
<rect x="-0.0363" y="-2.2222" width="0.0725" height="3.5428" ry="0.0363" fill="currentColor"/>
</g>
<g transform="translate(41.0449, 18.2358)">
<path transform="scale(0.0040, -0.0040)" d="M312 64c0 23 -18 41 -41 41c-39 0 -201 -110 -228 -142c-7 -8 -10 -17 -10 -27c0 -23 18 -41 41 -41c39 0 201 110 228 142c7 8 10 17 10 27zM259 137c46 0 86 -17 86 -74c0 -26 -15 -112 -73 -151c-29 -20 -89 -49 -186 -49c-46 0 -86 17 -86 74c0 26 16 112 74 151
c29 20 88 49 185 49z" fill="currentColor"/>
</g>
<g transform="translate(42.3892, 17.2358)">
<rect x="-0.0363" y="-2.5000" width="0.0725" height="3.2470" ry="0.0363" fill="currentColor"/>
</g>
<g transform="translate(40.2289, 22.7358)">
<text font-family="Noto Serif" font-size="2.4690" text-anchor="start" fill="currentColor">
<tspan>na</tspan>
</text>
</g>
<g transform="translate(40.1486, 25.5358)">
<text font-family="Noto Serif" font-size="2.4690" text-anchor="start" fill="currentColor">
<tspan>nu</tspan>
</text>
</g>
<g transform="translate(33.7096, 17.2358)">
<path transform="scale(0.0040, -0.0040)" d="M215 137c67 0 111 -37 111 -92c0 -90 -111 -182 -215 -182c-67 0 -111 37 -111 92c0 90 111 182 215 182z" fill="currentColor"/>
</g>
<g transform="translate(33.7096, 22.7358)">
<text font-family="Noto Serif" font-size="2.4690" text-anchor="start" fill="currentColor">
<tspan>Sy</tspan>
</text>
</g>
<g transform="translate(33.7096, 25.5358)">
<text font-family="Noto Serif" font-size="2.4690" text-anchor="start" fill="currentColor">
<tspan>Sy</tspan>
</text>
</g>
<g transform="translate(34.9762, 17.2358)">
<rect x="-0.0363" y="-2.9900" width="0.0725" height="2.8106" ry="0.0363" fill="currentColor"/>
</g>
</svg>
