<?xml version="1.0" encoding="UTF-8" standalone="no"?>
<!-- Created with Inkscape (http://www.inkscape.org/) -->

<svg
   width="236.57431mm"
   height="170.99297mm"
   viewBox="0 0 236.57431 170.99297"
   version="1.1"
   id="svg1"
   xml:space="preserve"
   xmlns="http://www.w3.org/2000/svg"
   xmlns:svg="http://www.w3.org/2000/svg"><defs
     id="defs1" /><g
     id="layer1"
     transform="translate(28.033205,-70.46365)"><g
       id="g1"
       transform="rotate(-20,101.22361,169.41912)"
       style="fill:#f06021;fill-opacity:1"><path
         style="fill:#f06021;fill-opacity:1"
         d="m 104.04863,239.82013 c -2.96511,0.0726 -5.673675,-0.0677 -8.082756,-0.24266 -2.18535,-0.17262 -4.27694,-0.37945 -5.35782,-0.52982 -7.158015,-0.99559 -9.75881,-1.52585 -13.229166,-2.39345 -0.291042,-0.0728 -0.767292,-0.19182 -1.058333,-0.26458 -0.291042,-0.0728 -0.797058,-0.19878 -1.124479,-0.28005 -1.90941,-0.47392 -5.099218,-1.47333 -9.326563,-2.92213 -13.909975,-4.75364 -27.031946,-12.13915 -38.33373,-21.89474 -0.329607,-0.31219 -1.235692,-1.1034 -2.013523,-1.75825 -1.649542,-1.38872 -1.833112,-1.56961 -6.880873,-6.78031 -4.940352,-5.09983 -8.566689,-9.4514 -11.1764236,-13.32802 -0.244912,-0.3638 -0.926033,-1.35808 -1.513602,-2.2095 -0.587569,-0.85143 -1.068307,-1.60055 -1.068307,-1.66471 0,-0.0642 -0.222345,-0.35533 -0.4941,-0.64702 -1.044735,-1.12137 -3.3788884,-5.58015 -6.6813864,-11.91093 -5.7135997,-11.22836 -9.697722,-23.40895 -11.204083,-35.95534 -0.03858,-0.65484 -0.09525,-1.19062 -0.125947,-1.19062 -0.173083,0 -0.361801,-1.48769 -0.671261,-5.29167 -0.09471,-1.16416 -0.279848,-3.18823 -0.411424,-4.49791 -0.216742,-2.15742 -0.127071,-12.08612 0.126648,-14.02292 0.05719,-0.43656 0.113653,-1.24023 0.125476,-1.78594 l 0.02149,-0.99219 c 42.202499,0.24924 90.234139,0.13583 164.034983,-0.0511 0.0764,-0.006 17.12976,0.003 37.89626,0.0198 l 37.75729,0.0313 0.21042,0.99218 c 0.44574,2.10172 0.20824,18.78945 -0.31914,22.42344 -0.0634,0.43656 -0.18933,1.44859 -0.27995,2.24896 -0.28457,2.51331 -0.31692,2.72621 -0.76381,5.02708 -0.90254,4.6468 -1.2466,6.27594 -1.76016,8.33437 -4.57258,18.32736 -10.72836,27.45962 -10.62641,27.57941 0.0856,0.10057 -5.4589,12.20754 -18.58385,26.21192 -1.16417,1.24217 -2.70202,2.80369 -3.41745,3.47004 -6.14842,6.36793 -31.4619,22.52303 -35.25999,23.75526 0.46151,0.7468 -15.46909,6.43446 -21.1184,7.38697 -0.43656,0.0736 -1.27,0.26846 -1.85208,0.433 -0.58208,0.16455 -1.23693,0.33012 -1.45521,0.36794 -0.59878,0.10375 -1.91747,0.35726 -2.51354,0.48322 -0.29104,0.0615 -0.91273,0.16819 -1.38153,0.2371 -0.4688,0.0689 -1.06411,0.19042 -1.32292,0.27002 -2.61326,0.80383 -16.15722,1.23832 -20.76435,1.34186 z m 11.03338,-12.11681 c 0.58209,-0.0664 1.83224,-0.20009 2.77813,-0.29715 7.33056,-0.75223 16.93673,-2.86971 24.20937,-5.60436 38.03033,-14.30012 48.38313,-35.386 50.15619,-36.60902 0.0987,-0.0681 0.37337,-0.28856 0.56321,-0.64124 11.90223,-21.51255 9.28114,-15.95257 11.61348,-19.97641 3.15378,-5.44103 4.86228,-11.85926 6.54503,-18.67298 2.38809,-9.43938 3.87712,-19.33473 3.36319,-29.0897 l -0.18815,-2.00787 -105.47646,0.014 c -36.264937,0.74727 -72.991212,-0.85612 -109.11519664,-0.17724 l -2.71754056,0.04 -0.016497,6.08542 c -0.00907,3.34698 0.04684,6.20448 0.1242509,6.35 0.077411,0.14552 0.1547134,0.56224 0.1717826,0.92604 0.9316513,19.85662 10.5055356,38.67243 11.1675221,39.95208 1.242125,2.40109 2.4395706,4.72281 2.6609916,5.15938 0.221421,0.43656 0.483479,0.85328 0.58235,0.92604 0.09887,0.0728 0.465385,0.62509 0.814476,1.22741 9.219537,15.41735 21.496505,28.32035 37.279503,37.29743 2.347683,1.41609 2.933952,1.74004 4.299479,2.37569 0.836745,0.38951 1.521354,0.80367 1.521354,0.92037 0,0.11669 0.267891,0.29311 0.595313,0.39204 0.327422,0.0989 1.666875,0.68313 2.976562,1.29824 4.88789,2.07329 9.806686,4.56638 15.010037,5.84429 0.330209,0.063 0.898036,0.22723 1.261838,0.36492 1.426629,0.53995 11.490383,2.77552 13.758334,3.05628 0.654844,0.0811 1.666879,0.20659 2.248959,0.27893 2.41242,0.29982 3.14388,0.37311 5.35448,0.53646 1.27514,0.0942 2.37015,0.22103 2.43336,0.28179 0.1444,0.13882 14.590482,-0.0873 16.024662,-0.2508 z m -4.64248,-13.12728 c -0.86722,-0.26329 -1.91285,-1.24453 -2.4584,-2.30701 -0.39055,-0.76059 -0.43642,-4.64884 -0.50097,-42.46562 l -0.0711,-41.62837 0.60767,-0.49195 c 0.60619,-0.49074 0.61168,-0.48852 2.24896,0.91144 4.37191,4.63608 9.10926,8.70625 13.62179,13.14697 2.46361,2.43387 7.86006,7.69144 11.9921,11.68349 27.20596,26.28426 32.72938,31.71005 33.2014,32.61451 0.44671,0.85595 0.96447,3.02828 0.0794,3.88475 -6.80046,6.5807 -10.18775,7.18802 -19.02115,14.10664 -1.07863,0.64462 -2.40492,1.10264 -3.57206,1.66155 -9.36155,4.51746 -19.7946,7.53802 -30.16232,8.73254 -3.75457,0.43259 -4.93933,0.46259 -5.9654,0.15106 z m 6.80824,-27.31275 c 0.36798,-0.34569 0.61237,-0.88252 0.61237,-1.34511 0,-0.42341 -1.01677,-7.45711 -2.2595,-15.63045 -1.24272,-8.17333 -2.31915,-15.33686 -2.39206,-15.91894 -0.28061,-2.24059 -1.61271,-9.28725 -1.6782,-10.79739 -0.0118,-0.43218 -0.13277,-0.67367 -0.28914,-0.57703 -0.1479,0.0914 -0.20548,0.2688 -0.12798,0.39421 0.0662,1.23317 0.1412,2.47238 0.25464,3.70417 0.0924,0.93188 0.32214,4.10751 0.54546,7.54062 0.24319,3.73862 0.97479,14.51856 1.56764,23.09878 0.5809,8.40724 0.63671,8.84097 1.21718,9.45885 0.75278,0.8013 1.74369,0.8294 2.54959,0.0723 z m 22.51391,-4.86367 c 0.32343,-0.22653 0.58804,-0.684 0.58804,-1.01659 0,-0.34318 -1.10478,-2.13892 -2.55452,-4.15218 -1.40499,-1.95111 -2.9735,-4.14279 -3.48559,-4.87039 -0.51208,-0.72761 -1.5441,-2.15636 -2.29336,-3.175 -0.74927,-1.01865 -2.13553,-2.92365 -3.0806,-4.23334 -3.81208,-5.28288 -4.53178,-6.23504 -4.63488,-6.13195 -0.0592,0.0592 0.50712,1.16546 1.2585,2.45834 2.16721,3.72908 5.08564,8.77761 8.62398,14.9184 3.88365,6.74009 4.24214,7.13869 5.57843,6.20271 z m -51.005708,31.25134 c -7.532766,-0.96001 -16.095709,-3.85571 -26.193751,-8.6198 -8.495634,-4.81311 -4.834306,-1.76975 -16.136618,-10.31341 -1.751777,-1.64782 -4.015867,-3.75127 -4.37494,-6.21771 -0.150511,-1.16935 -0.08324,-1.45102 0.579494,-2.42648 0.412375,-0.60696 1.880866,-2.2745 3.263314,-3.70564 1.382448,-1.43114 5.601787,-5.87563 9.376308,-9.87664 6.439727,-6.82615 8.459036,-8.94874 15.10118,-15.87353 2.237659,-2.33288 12.93377,-13.63381 18.781722,-19.84375 4.117953,-4.37285 7.725093,-8.10233 8.260913,-8.54111 0.32331,-0.26474 0.79956,-0.4456 1.05834,-0.40189 1.1278,0.19047 1.13948,0.34783 1.01115,13.61904 -0.0673,6.95979 -0.1774,25.34563 -0.24467,40.85742 -0.13256,30.56675 -0.0563,29.05533 -1.54828,30.68316 -0.59573,0.64996 -1.20025,1.00871 -2.05499,1.21952 -2.309216,0.5335 -4.588045,-0.25807 -6.879172,-0.55918 z m 3.583902,-24.34515 c 0.43386,-0.43385 0.64943,-0.94689 0.64943,-1.54555 0,-0.49287 0.17565,-3.50461 0.39033,-6.69276 0.21467,-3.18814 0.45391,-6.80866 0.53163,-8.04559 0.26915,-4.28362 0.41733,-6.48834 0.5246,-7.8052 0.0593,-0.72761 0.18355,-2.63261 0.27618,-4.23334 0.0926,-1.60073 0.20969,-3.2676 0.26012,-3.70416 0.19074,-1.65114 0.44256,-7.13809 0.32178,-7.01146 -0.0694,0.0728 -0.20308,0.78021 -0.29707,1.57211 -0.094,0.7919 -0.22571,1.68487 -0.29272,1.98437 -0.16792,0.75054 -0.35167,1.83112 -0.65497,3.85185 -0.14198,0.94589 -0.31744,2.01268 -0.38993,2.37066 -0.0011,0.005 -1.389613,8.20076 -1.44932,8.63686 -0.452559,3.30527 -3.189379,18.98607 -3.189379,19.68611 0,0.54552 1.301629,1.58554 1.984379,1.58554 0.37703,0 0.97775,-0.29225 1.33494,-0.64944 z m -3.242033,-35.27366 c 0.227249,-0.25141 1.745443,-4.50524 3.373773,-9.45294 1.62833,-4.94771 3.01329,-9.08513 3.07768,-9.19427 0.0644,-0.10914 0.0509,-0.19844 -0.0301,-0.19844 -0.20846,0 -8.879939,17.38605 -8.879939,17.804 0,0.57707 0.821182,1.39744 1.450993,1.44956 0.326901,0.0271 0.780295,-0.15651 1.007543,-0.40791 z m -55.11062,25.94407 c -5.697966,-1.12407 -8.380066,-7.76684 -11.213252,-12.47595 -6.194547,-10.3172 -10.716795,-23.90516 -12.18401,-36.60918 -0.348399,-3.01665 -0.34612,-3.5152 0.02178,-4.7625 0.499123,-1.6922 2.116212,-3.37204 3.704037,-3.84776 0.828988,-0.24837 9.838288,-0.3235 38.796653,-0.3235 20.744314,0 37.905265,0.0723 38.135455,0.1606 0.93942,0.3605 0.37942,1.30795 -2.558053,4.3279 -3.66569,3.76861 -9.124691,9.40644 -14.355793,14.82608 -2.177106,2.25558 -6.328241,6.54183 -9.224746,9.525 -5.609646,5.77751 -9.173361,9.46424 -15.096537,15.61767 -10.333838,10.73554 -12.15915,12.49991 -13.585677,13.13213 -0.768134,0.34042 -1.422978,0.5999 -1.455209,0.57661 -0.03223,-0.0233 -0.47532,-0.0895 -0.984643,-0.1471 z m 24.515182,-31.46881 c 4.051911,-3.44205 7.416719,-6.29955 7.477353,-6.35 0.06063,-0.0505 0.05566,-0.14633 -0.01106,-0.21305 -0.169262,-0.16926 -15.280384,9.40692 -16.172623,10.24888 -0.400182,0.37762 -0.727604,0.87278 -0.727604,1.10034 0,0.5737 0.953613,1.47208 1.562578,1.47208 0.277334,0 3.819444,-2.81621 7.871354,-6.25825 z m -20.318762,-5.3604 c 0.529625,-0.26857 1.379674,-0.67358 1.888997,-0.90003 1.644781,-0.73126 4.0784,-1.80492 4.960937,-2.18867 0.472943,-0.20564 1.246849,-0.54553 1.719792,-0.7553 0.472943,-0.20977 2.288646,-0.9944 4.034896,-1.74362 1.74625,-0.74922 3.710781,-1.60636 4.365625,-1.90475 0.654844,-0.29839 3.631406,-1.61411 6.614583,-2.92383 2.983177,-1.30972 6.294294,-2.76458 7.358038,-3.23303 1.063744,-0.46845 2.07532,-0.99297 2.247948,-1.1656 0.172627,-0.17262 -7.365209,2.26593 -16.750747,5.41902 -9.385538,3.15309 -17.183677,5.75967 -17.329197,5.7924 -0.145521,0.0327 -0.599757,0.19686 -1.009412,0.36474 -0.409656,0.16788 -0.849389,0.30524 -0.977185,0.30524 -0.386463,0 -1.056112,1.13542 -1.056112,1.79069 0,0.33804 0.294499,0.90911 0.654442,1.26906 0.744946,0.74494 1.62623,0.71098 3.277395,-0.12632 z m 18.023822,-16.02069 c 6.443467,-0.9406 11.789173,-1.78563 11.879347,-1.87785 0.09017,-0.0922 -1.38386,-0.0953 -3.27563,-0.007 -1.891771,0.0885 -7.486467,0.28972 -12.432657,0.44726 -4.946191,0.15753 -9.202675,0.3986 -9.458855,0.53571 -0.542782,0.29048 -0.64048,1.80221 -0.14828,2.29441 0.174625,0.17462 0.633215,0.3175 1.01909,0.3175 0.385875,0 5.973518,-0.76958 12.416985,-1.71018 z m 119.404617,52.26464 c -1.36385,-0.34219 -2.05832,-0.91165 -6.95194,-5.70047 -2.54662,-2.49208 -8.49974,-8.26833 -13.22917,-12.83612 -4.72942,-4.56778 -10.26583,-9.92283 -12.30312,-11.9001 -10.95809,-10.63528 -14.30535,-13.36828 -16.36611,-15.65027 -1.97759,-2.1899 -2.48405,-2.61572 -4.69869,-4.65009 -3.33311,-3.11372 -5.7909,-5.58745 -5.78636,-5.82392 0.006,-0.31423 0.42695,-0.92121 0.62084,-0.89526 0.0929,0.0124 0.19862,0.0206 0.235,0.0182 16.98699,-0.23544 31.86078,-0.1378 49.27865,-0.12748 h 29.36875 l 1.45766,0.73864 c 2.40795,1.22018 3.30414,3.03578 3.03101,6.14052 -0.68558,7.79332 -2.82189,16.99989 -5.67897,24.47396 -0.0395,0.24032 -2.21743,7.99567 -10.03484,19.57917 -2.69531,4.00887 -3.95449,5.52818 -5.04113,6.08254 -1.22683,0.62589 -2.74748,0.84067 -3.90161,0.55109 z m -18.66918,-34.9164 c 0.40384,-0.53023 0.40809,-0.6474 0.0518,-1.42934 -0.21053,-0.46208 -1.33497,-1.12113 -4.16718,-2.44244 -2.13337,-0.99528 -5.42666,-2.54715 -7.31843,-3.4486 -7.86899,-3.74967 -9.73563,-4.61351 -9.96917,-4.61351 -0.13524,0 -0.90475,-0.36658 -1.71002,-0.81463 -0.80527,-0.44804 -1.53778,-0.74098 -1.62779,-0.65096 -0.16142,0.16142 2.25352,1.38833 2.94339,1.83296 1.57693,1.03365 16.78987,10.25484 18.96255,11.49398 1.51277,0.86278 2.21919,0.88085 2.83484,0.0725 z m 23.76781,-7.82083 c 1.00609,-1.00609 0.71733,-2.48882 -0.58508,-3.00428 -0.60607,-0.23987 -21.25277,-4.1379 -24.69466,-4.66228 -0.50932,-0.0776 -1.2237,-0.2063 -1.5875,-0.28599 -1.0126,-0.22184 -4.51679,-0.8761 -5.55625,-1.0374 -0.50932,-0.079 -1.25346,-0.2047 -1.65364,-0.27924 -0.40019,-0.0746 -1.02628,-0.18737 -1.39134,-0.25072 -0.36505,-0.0634 -0.87106,-0.17979 -1.12447,-0.25876 -0.25342,-0.079 -1.23466,-0.25915 -2.18055,-0.40042 -1.24394,-0.16293 -2.47132,-0.42008 -3.70416,-0.64696 -0.67561,-0.0754 -1.45783,-0.37211 -2.08633,-0.31219 0.0561,0.0561 0.22101,0.12361 0.36653,0.15009 2.99046,1.12464 6.16983,1.77363 9.25632,2.62264 2.18056,0.60485 4.14509,1.13456 4.36563,1.17712 0.22053,0.0426 1.05581,0.27162 1.85618,0.50902 6.69026,1.98453 -3.9641,-1.2197 19.71146,5.31746 3.92906,1.08488 7.41705,1.98125 7.75109,1.99194 0.33403,0.0107 0.89958,-0.2728 1.25677,-0.62999 z"
         id="path1" /></g></g></svg>
