<?xml version="1.0" encoding="UTF-8" standalone="no"?>
<!-- Created with Inkscape (http://www.inkscape.org/) -->

<svg
   version="1.1"
   id="svg1"
   width="2132.0601"
   height="3254.283"
   viewBox="0 0 2132.0601 3254.283"
   xmlns="http://www.w3.org/2000/svg"
   xmlns:svg="http://www.w3.org/2000/svg">
  <defs
     id="defs1" />
  <g
     id="g1"
     transform="translate(15.633347,-10.913489)">
    <path
       style="fill:#f06021"
       d="m 2018.5636,3264.6204 c -5.1873,-0.5437 -15.2673,-1.946 -22.4,-3.1162 -20.3827,-3.3441 -51.8706,-6.1832 -100.9685,-9.1039 -24.9333,-1.4831 -68.8533,-4.354 -97.6,-6.3796 -86.0806,-6.0655 -139.6119,-8.9943 -273.0667,-14.9398 -173.2326,-7.7176 -176.5714,-7.9153 -360.5333,-21.3471 -187.21832,-13.6695 -276.49472,-18.6997 -388.26668,-21.8765 -85.78609,-2.4382 -166.90585,-6.3032 -346.49436,-16.5091 -46.44142,-2.6392 -132.67896,-7.4457 -191.63895,-10.681 -161.475922,-8.8606 -201.172702,-11.3725 -208.533322,-13.1953 -1.83077,-0.4533 -3.74199,-1.9097 -4.46667,-3.4037 -3.92548,-8.0925 -5.27959,-99.9383 -6.6905,-453.799 -1.09908,-275.655 -1.57317,-359.5616 -3.28466,-581.3334 -1.45054,-187.9585 -2.82309,-295.5458 -5.4568102,-427.7333 -2.69216,-135.1203 -3.11047,-281.1255 -1.11088,-387.7333 3.1070802,-165.6538 -4.14738,-502.04849 -14.73341,-683.20009 -3.4830698,-59.60327 -5.2459898,-116.52105 -7.5822298,-244.79999 -1.38796,-76.21072 -1.90731,-344.591522 -0.67532,-348.983802 1.4656,-5.22516 5.1592798,-5.6968 43.46714,-5.55031 76.671682,0.2932 312.945732,11.81383 396.266652,19.32181 26.31381,2.37112 147.33387,2.51899 314.13332,0.38383 117.77566,-1.50762 209.53286,-1.07907 437.33338,2.04255 38.4267,0.52657 129.3866,0.98058 202.1333,1.00891 124.8733,0.0486 168.9016,0.75887 203.7333,3.28657 8.2134,0.59603 24.2934,1.77417 35.7334,2.61808 37.8639,2.79317 113.5374,5.80581 201.6,8.02591 70.8047,1.78501 120.7577,4.30341 129.6,6.53383 10.6343,2.68247 20.4617,3.03163 78.2485,2.78017 60.6334,-0.26385 61.6694,-0.23282 74.8181,2.24152 7.3334,1.37999 13.6958,2.8464 14.1387,3.25869 0.6899,0.6421 -0.9641,88.679882 -2.9275,155.832242 -0.3345,11.44 -1.3183,45.52 -2.1862,75.73333 -0.8678,30.21334 -2.2896,76.77334 -3.1594,103.46667 -3.9531,121.31094 -4.8807,151.46872 -6.3651,206.93329 -2.3999,89.6756 -3.6272,146.9737 -5.3807,251.2 -1.7352,103.1458 -3.8937,215.73769 -6.38,332.80009 -5.2868,248.9114 -8.6905,645.4127 -11.2309,1308.2667 -2.471,644.7386 -3.0274,767.1407 -3.4892,767.6025 -1.0058,1.0058 -47.577,1.2929 -56.5845,0.3487 z m -940.897,-134.87 c 10.4418,-6.1193 25.7739,-34.6606 32.9556,-61.3479 7.9283,-29.4619 11.0438,-61.9578 13.908,-145.0666 1.7013,-49.3672 3.2792,-82.8733 4.3951,-93.3334 0.5875,-5.5067 0.8207,-6.0289 1.6709,-3.7416 2.7804,7.481 8.1051,70.035 9.3527,109.875 0.8722,27.8521 0.9403,28.4621 4.6459,41.6 11.3925,40.3911 31.9759,86.4 38.6536,86.4 7.7466,0 20.8124,-35.1764 29.715,-80 4.6821,-23.5741 6.4333,-37.8828 9.1997,-75.1686 1.2175,-16.4094 2.3078,-29.9242 2.4228,-30.0328 0.1151,-0.1086 5.2213,9.3839 11.3473,21.0944 11.51,22.003 16.7317,29.6707 19.1765,28.1598 2.3197,-1.4337 4.2393,-7.3861 8.1536,-25.2827 4.1446,-18.9494 5.9863,-24.3701 8.2801,-24.3701 3.622,0 6.1091,7.6755 8.6626,26.7343 3.4619,25.8391 5.0108,35.2157 7.548,45.6941 2.6329,10.8737 9.8377,31.0382 11.0899,31.0382 0.3851,0 2.5446,-6.2334 4.7989,-13.8521 5.8396,-19.7353 9.7488,-27.578 12.4167,-24.9101 1.7474,1.7474 7.3362,26.3129 11.1241,48.8956 4.244,25.3023 5.6962,30.4895 10.3245,36.8787 4.6712,6.4484 6.2203,10.7817 6.2203,17.3998 0,10.1294 1.6602,11.4456 7.2121,5.7175 7.3774,-7.6115 8.4872,-16.7282 9.8358,-80.796 0.5619,-26.6934 1.3038,-51.6534 1.6487,-55.4667 1.1914,-13.1711 4.0138,-17.2859 7.3851,-10.7666 5.8826,11.3757 17.9301,68.3831 21.2263,100.4403 1.6655,16.1979 3.3446,21.08 10.0001,29.0752 5.0064,6.0142 5.9742,7.9269 7.6491,15.1178 1.2869,5.5249 5.6582,12.7989 8.9095,14.8255 1.3507,0.8419 2.3827,0.838 3.7333,-0.014 1.5345,-0.9682 1.886,-2.8656 1.9753,-10.6612 0.077,-6.6998 0.7941,-11.5186 2.4441,-16.4168 4.1434,-12.3007 7.2955,-35.6702 10.2868,-76.2667 3.0416,-41.28 6.877,-63.4774 11.9334,-69.0647 4.0575,-4.4835 4.7453,-2.3762 9.9506,30.4903 4.804,30.3325 8.5254,47.8831 12.2525,57.785 1.4219,3.7779 4.2254,15.6409 6.2299,26.3625 4.0157,21.4788 6.4259,29.1394 9.8886,31.4295 2.0967,1.3867 2.6199,1.2318 6.0703,-1.7977 4.4411,-3.8993 13.1772,-20.4959 20.2556,-38.4807 11.9881,-30.4597 24.4734,-79.9006 40.2507,-159.3908 8.8223,-44.4491 12.7394,-58.5046 15.7807,-56.625 4.2918,2.6525 5.2999,20.3013 6.4939,113.6916 1.4611,114.2831 2.9484,138.5501 9.0383,147.4759 1.976,2.8961 2.9924,3.4381 6.2602,3.3382 4.9095,-0.1501 10.7058,-4.4276 13.5475,-9.9978 4.7516,-9.3139 6.5797,-19.3032 12.3629,-67.5555 1.5341,-12.7999 3.7055,-27.4399 4.8253,-32.5333 4.6481,-21.1411 6.5236,-42.9463 10.5678,-122.8608 3.6534,-72.1922 7.1804,-104.7109 12.0847,-111.4179 1.4196,-1.9413 1.5468,-1.9107 3.322,0.7986 1.0152,1.5494 2.7929,6.514 3.9504,11.0323 2.8456,11.1079 7.116,20.1709 12.3471,26.2041 3.0759,3.5477 4.7083,6.6719 5.5729,10.6667 2.1144,9.7682 3.1688,26.1908 3.2059,49.9344 0.068,43.1575 3.075,70.4238 9.1333,82.8066 5.9463,12.1538 16.298,11.7514 24.3304,-0.9457 7.7079,-12.1841 13.1113,-28.8898 19.2884,-59.6343 4.3363,-21.5829 8.009,-34.0791 12.5311,-42.6372 3.4926,-6.6098 7.4964,-9.6931 9.7077,-7.4759 1.5912,1.5955 1.4624,18.0004 -0.3486,44.4016 -1.6557,24.1376 -1.655,49.6643 0,57.6 0.7348,3.52 2.9019,10 4.8157,14.4 4.8387,11.1249 6.9676,20.465 8.6261,37.8457 2.0861,21.8612 4.1076,27.5789 14.2732,40.3713 5.5984,7.045 6.8651,8.1222 8.2244,6.9941 3.2136,-2.667 17.5775,-22.5867 20.5424,-28.4877 1.6737,-3.3312 3.5663,-8.5218 4.2059,-11.5348 1.5196,-7.1584 6.1183,-18.6614 15.0854,-37.7339 12.8006,-27.2259 17.6092,-43.7661 21.3783,-73.5356 3.2255,-25.4758 5.7952,-36.7707 10.0828,-44.3191 3.3412,-5.8821 6.3284,-19.4994 10.0618,-45.8666 6.3849,-45.0938 11.2601,-101.4069 12.9084,-149.1038 1.0107,-29.2477 1.8396,-37.1748 4.1262,-39.4615 1.6928,-1.6927 4.1825,0.9465 5.6815,6.0228 1.8006,6.0977 1.7536,54.2161 -0.1065,108.9425 -1.5391,45.2835 -1.2249,75.0103 0.8644,81.7799 0.6643,2.1522 2.4172,5.0322 3.8954,6.4 5.1761,4.7891 6.2341,8.0939 6.0894,19.0201 -0.074,5.5733 -0.8997,16.1333 -1.8352,23.4666 -4.2498,33.3118 -2.6213,113.5123 2.7141,133.6669 1.5014,5.6714 3.7286,4.8093 8.0833,-3.1286 9.9477,-18.1328 24.548,-65.5012 36.6189,-118.8049 6.1536,-27.1731 17.5425,-73.1666 26.1487,-105.6 12.8295,-48.3489 28.1671,-141.3426 43.1023,-261.3334 12.8336,-103.1054 17.0862,-157.6287 13.9612,-178.9957 -1.5643,-10.696 -3.0432,-83.4926 -4.273,-210.3376 -2.7242,-280.9809 -3.41,-315.383 -6.9812,-350.2165 -1.8256,-17.8074 -3.722,-28.3451 -11.1669,-62.0502 -10.7927,-48.862 -13.5247,-72.332 -14.9617,-128.5333 -1.6247,-63.5412 -3.6498,-108.728 -7.6486,-170.6667 -1.6647,-25.7842 -2.328,-47.1674 -2.3825,-76.8 -0.078,-42.3437 -0.01,-43.468 5.2784,-82.6667 7.334,-54.4007 10.6256,-108.6999 13.3527,-220.26669 2.0681,-84.6062 5.0065,-148.6012 11.1666,-243.2 5.0346,-77.3132 7.5562,-143.16608 6.4127,-167.46665 -1.6523,-35.11239 -8.5164,-72.53346 -19.2721,-105.06667 -7.2164,-21.82782 -13.607,-35.80539 -25.6336,-56.06614 l -6.9311,-11.67667 -5.471,6.57398 c -12.9559,15.56814 -17.9967,29.03 -22.6899,60.59514 -3.9703,26.70294 -6.1751,62.28845 -8.5609,138.17369 -2.4323,77.36442 -5.217,136.20212 -9.0364,190.93332 -4.3363,62.1388 -4.7201,71.5865 -4.7444,116.8 -0.025,46.0376 0.5992,60.9318 4.8266,115.2 2.7991,35.93329 3.7074,74.72049 2.1448,91.58759 -0.672,7.2531 -2.6335,22.3731 -4.359,33.6 -5.8274,37.9152 -10.058,77.6442 -17.1103,160.6791 -2.3668,27.8667 -5.9816,68.6667 -8.033,90.6667 -9.0235,96.771 -11.1019,119.9823 -12.2252,136.5333 -0.657,9.68 -1.587,17.9994 -2.0667,18.4876 -0.4797,0.4882 -1.8177,0.2971 -2.9733,-0.4246 -8.162,-5.0973 -8.2657,-20.3131 -0.8398,-123.2685 16.0399,-222.3831 21.1043,-409.02909 12.7683,-470.57059 -2.2596,-16.6816 -7.8468,-32.7502 -19.1269,-55.0083 -9.6796,-19.0999 -9.6828,-19.0048 2.0289,-60.949 17.6137,-63.0819 25.0509,-149.6765 28.3535,-330.13329 2.2593,-123.44808 1.0218,-159.43493 -5.6265,-163.62731 -3.2771,-2.06652 -7.2448,1.22736 -9.5089,7.89398 -6.9651,20.5087 -18.9888,99.3588 -19.5185,128 -0.3179,17.19131 -1.0915,21.03285 -5.8535,29.06667 -5.1572,8.70049 -5.5334,6.39133 -6.4721,-39.73334 -1.2882,-63.29237 -7.2838,-110.28779 -20.7877,-162.94066 -9.3952,-36.63268 -18.938,-56.15286 -26.521,-54.24965 -8.1038,2.03392 -26.293,40.0211 -32.2362,67.32364 -4.0468,18.59058 -5.872,24.9893 -7.8116,27.38453 -1.8063,2.23072 -1.8124,2.22866 -5.0683,-1.72134 -1.7929,-2.17511 -5.3363,-8.11914 -7.8743,-13.20896 -10.1459,-20.3476 -24.5508,-40.32488 -48.9753,-67.9209 -8.3079,-9.38666 -17.9352,-20.90666 -21.3939,-25.6 -9.3358,-12.66812 -9.0562,-12.42879 -14.0885,-12.05847 -4.0539,0.29833 -4.6247,0.72733 -6.9212,5.20185 -4.9424,9.62995 -8.6816,35.95422 -10.8981,76.72329 -2.6429,48.61355 -3.4152,99.98165 -4.3936,292.26666 -0.5687,111.76 -1.406,209.92 -1.8606,218.1333 -1.3257,23.95 -4.0617,27.4279 -22.1022,28.0957 l -11.1557,0.413 0.01,-7.321 c 0.012,-11.3501 4.0863,-113.8812 5.3557,-134.7877 2.2398,-36.8875 5.1088,-63.7445 7.4739,-69.9651 3.119,-8.2039 4.0512,-83.86154 2.1015,-170.56819 -3.7981,-168.90835 -6.3163,-209.96344 -14.4245,-235.16747 -1.9875,-6.17789 -5.1004,-16.75253 -6.9176,-23.4992 -5.1141,-18.98678 -9.2014,-23.42742 -18.5605,-20.16543 -8.1712,2.84795 -11.3951,11.87735 -13.4841,37.76543 -0.6154,7.62667 -1.5523,56.10667 -2.0819,107.73334 -1.1493,112.02187 -2.6057,143.32578 -6.8665,147.58654 -1.3994,1.39946 -1.7042,1.26378 -2.6298,-1.17069 -1.733,-4.55804 -2.2111,-17.44028 -3.3361,-89.88252 -1.8049,-116.22029 -3.4551,-155.51416 -7.5469,-179.70683 -4.265,-25.21341 -20.6346,-64.02671 -27.0039,-64.02671 -3.6386,0 -6.4646,6.42677 -9.6879,22.03143 -1.2951,6.2702 -8.91,62.29997 -9.1106,67.03524 -0.025,0.58667 -3.5998,-10.2352 -7.9442,-24.04859 -13.0113,-41.37018 -20.303,-56.11693 -26.5604,-53.71571 -0.9002,0.34542 -1.8775,1.4237 -2.1717,2.39617 -3.2781,10.83422 -11.067,130.75342 -17.1234,263.6348 -3.5683,78.28977 -5.021,94.6895 -8.291,93.59949 -1.9729,-0.65761 -2.7943,-5.54283 -4.1635,-24.75974 -1.3216,-18.54942 -1.8069,-118.75805 -0.9223,-190.43975 0.4552,-36.88502 -0.4049,-57.13226 -4.8258,-113.6 -3.6579,-46.72098 -6.1612,-65.60001 -8.6984,-65.60001 -7.197,0 -20.7874,20.62141 -32.0938,48.69755 -4.3597,10.82609 -7.6032,15.73521 -10.6903,16.18001 -3.0023,0.43257 -4.924,-3.67532 -10.2756,-21.96507 -7.45,-25.4609 -12.9269,-36.33074 -18.3803,-36.47856 -10.1384,-0.27482 -28.4079,51.28057 -32.2829,91.10046 -4.7881,49.20294 -3.9861,210.17105 1.6267,326.46562 2.3628,48.9556 1.6367,118.04309 -1.6198,154.13329 -5.901,65.3977 -11.4611,108.8 -13.938,108.8 -2.4352,0 -2.8327,-25.4613 -2.3145,-148.2666 0.3546,-84.01179 -0.2518,-106.70411 -3.5174,-131.64282 -2.973,-22.70373 -5.8977,-70.56675 -8.0227,-131.29054 -3.6789,-105.1337 -10.6197,-159.98932 -27.3976,-216.53333 -2.089,-7.04 -5.6262,-17.04259 -7.8605,-22.22797 -6.3122,-14.64924 -8.9435,-16.38002 -14.7859,-9.72586 -9.1218,10.38919 -18.2359,37.8909 -18.2359,55.02688 0,2.85649 -0.48,5.19361 -1.0666,5.19361 -0.5867,0 -1.0667,-0.16522 -1.0667,-0.36717 0,-2.09587 -9.8989,-37.65012 -11.163,-40.09468 -0.9248,-1.78826 -2.8605,-4.02399 -4.3017,-4.96828 -2.4458,-1.60254 -2.9239,-1.56783 -7.1778,0.521 -2.5066,1.23085 -8.7886,5.83893 -13.96,10.24018 -5.1714,4.40126 -10.0914,8.00229 -10.9334,8.00229 -1.0873,0 -1.5353,-1.3132 -1.5465,-4.53334 -0.044,-12.76633 -13.5765,-47.88832 -25.2558,-65.550642 -4.4889,-6.78843 -6.9953,-7.82483 -10.6811,-4.41671 -5.4504,5.03969 -9.277,17.424012 -14.121,45.700692 -3.7239,21.73814 -4.7232,25.61126 -7.4772,28.9813 -4.3732,5.35136 -6.0287,-0.8151 -7.4945,-27.91464 -1.3701,-25.33232 -4.8072,-38.820312 -12.4436,-48.832092 -5.4692,-7.17054 -13.7459,-9.66862 -20.486,-6.18314 -8.4669,4.37837 -18.7556,21.664332 -24.1746,40.615232 -1.5098,5.28 -4.6328,20.34901 -6.94,33.48668 -2.3072,13.13767 -4.3573,24.04906 -4.5558,24.24752 -0.1984,0.19846 -1.2104,-7.19054 -2.2487,-16.42001 -3.6134,-32.11957 -7.0819,-46.36019 -15.5307,-63.765502 -5.4669,-11.26215 -12.7728,-19.68203 -17.0781,-19.68203 -2.69762,0 -6.89372,5.70562 -13.16792,17.90488 -11.2031,21.783122 -11.9293,28.290222 -11.9293,106.895132 0,34.32 0.2351,80.4 0.5224,102.4 0.4611,35.30148 0.2994,41.1903 -1.3766,50.13334 -1.9338,10.31881 -4.217,15.01705 -5.3712,11.05227 -2.9898,-10.27032 -6.0836,-54.83069 -8.173,-117.71894 -2.864,-86.20075 -5.2739,-109.82162 -12.9403,-126.83466 -2.2792,-5.05792 -5.2547,-8.97759 -11.4459,-15.07797 -12.002,-11.825922 -13.7631,-11.986322 -18.7799,-1.71044 -1.9082,3.90846 -3.021,8.71581 -3.8635,16.68973 -0.8115,7.68033 -1.4508,99.86226 -2.0344,293.33334 -0.7649,253.59249 -1.7207,345.89139 -3.8166,368.53329 -1.0201,11.0195 -3.4189,13.1793 -6.2198,5.6 -3.6907,-9.987 -5.8016,-37.0828 -9.1615,-117.6 -3.4259,-82.0979 -6.7675,-134.37562 -10.8408,-169.59995 -2.8095,-24.29539 -3.7595,-68.12492 -2.0396,-94.10492 2.1385,-32.30226 5.451,-56.01247 11.3986,-81.58681 6.4017,-27.52731 7.208,-35.33522 7.2465,-70.17495 0.061,-55.17596 -5.4771,-85.17004 -24.4218,-132.26666 -5.7643,-14.33023 -7.3691,-17.06667 -10.0085,-17.06667 -7.4019,0 -10.4365,16.63392 -11.8703,65.06667 -1.1683,39.4625 -2.6365,52.26666 -5.9933,52.26666 -5.491,0 -9.4817,-10.85766 -17.9966,-48.96412 -8.6318,-38.6297 -18.4952,-69.69802 -29.49231,-92.896722 -5.68555,-11.99385 -8.64829,-16.00583 -11.81988,-16.00583 -3.06626,0 -12.32305,9.24457 -18.1573,18.13333 -6.98566,10.64299 -11.54682,20.324862 -16.84365,35.753672 -4.3297,12.6117 -7.04959,18.31972 -8.18728,17.18203 -0.3205,-0.3205 -1.9234,-8.64215 -3.562,-18.49254 -3.45198,-20.751512 -6.55822,-29.923772 -13.64601,-40.294692 -8.3563,-12.22701 -21.89711,-21.27374 -26.33232,-17.59284 -4.63324,3.84525 -5.72459,19.55582 -6.92175,99.642502 -1.02628,68.65529 -2.37366,105.24277 -4.33825,117.80333 -1.28024,8.18519 -3.83633,14.78069 -5.1883,13.38741 -1.40307,-1.44596 -4.01528,-12.45148 -5.42486,-22.85552 -3.0474,-22.49281 -2.90243,-117.50169 0.21322,-139.73334 0.78107,-5.57333 1.42013,-13.49333 1.42013,-17.6 0,-6.69812 -0.35902,-7.98372 -3.48806,-12.48995 -1.91843,-2.762812 -6.19657,-6.962812 -9.50697,-9.333342 -7.36886,-5.27672 -11.50693,-5.64556 -15.44568,-1.37672 -6.69907,7.26052 -9.59114,23.022942 -13.16154,71.733342 -2.02937,27.68636 -4.40326,50.00186 -6.46782,60.8 -0.84126,4.4 -1.52964,8.12 -1.52974,8.26667 -10e-5,0.14667 -0.44296,0.26667 -0.98413,0.26667 -2.41315,0 -5.44489,-17.58751 -7.53878,-43.73334 -3.12202,-38.98392 -9.02835,-67.18903 -17.66744,-84.3692 -6.1098,-12.150282 -12.61105,-18.007682 -17.74988,-15.992032 -4.32174,1.69516 -11.18483,9.90914 -17.73043,21.220402 l -6.36114,10.9925 -12.86572,-14.72584 C 532.73123,85.576218 523.69694,77.873938 521.09608,80.474798 c -3.58636,3.58636 -6.81931,33.905502 -8.32369,78.060982 -0.60963,17.89334 -1.3922,90.85334 -1.73904,162.13334 -0.64495,132.5451 0.52118,231.23882 3.03111,256.53334 0.69857,7.03995 1.29874,19.82785 1.33371,28.41745 0.0566,13.905 -0.1589,15.8638 -1.96536,17.8634 -2.78561,3.0833 -12.99163,6.2504 -15.37458,4.771 -4.32428,-2.6847 -4.7115,-5.7947 -5.08037,-40.8037 -0.19538,-18.54317 -0.9402,-46.91482 -1.65515,-63.04815 -2.67085,-60.26916 -1.28047,-142.15485 4.04791,-238.40001 3.19048,-57.62887 3.91567,-115.38784 1.64727,-131.2 -3.30268,-23.02167 -9.32717,-41.19384 -22.14753,-66.805442 -9.7915,-19.56076 -11.55873,-21.06377 -17.08171,-14.5279 -6.00935,7.11143 -10.50533,20.88573 -14.35681,43.984782 -2.60688,15.63469 -4.73218,23.27994 -6.99323,25.15644 -1.46531,1.2161 -2.00563,1.04447 -3.75816,-1.19379 -1.12574,-1.43775 -3.66882,-5.97409 -5.65128,-10.08076 -1.98247,-4.10666 -6.25696,-12.98666 -9.49887,-19.73333 -9.63003,-20.040852 -23.49182,-34.003072 -35.55436,-35.811962 -10.93651,-1.64003 -16.86239,4.94544 -40.8636,45.411962 -8.82093,14.87228 -12.29505,18.99684 -14.73629,17.49531 -2.06343,-1.26914 -10.08524,-10.83148 -21.79012,-25.97473 -16.78223,-21.712102 -29.29985,-26.459052 -39.62748,-15.027602 -9.50958,10.525972 -15.44611,31.436982 -19.84624,69.907022 -3.51967,30.77218 -7.21078,54.4694 -14.45466,92.8 -10.07782,53.32632 -10.49993,63.59978 -5.32492,129.6 4.25578,54.27672 4.76138,112.35476 1.60183,184.00001 -2.1634,49.05665 -6.9448,171.75175 -8.00179,205.33335 -0.32315,10.2666 -0.85859,22.6171 -1.18988,27.4455 l -0.60233,8.7789 -14.57268,7.6296 c -39.74416,20.8083 -49.40076,28.0695 -59.12309,44.4571 -6.31051,10.6368 -15.15546,32.5847 -16.85423,41.8222 -2.92263,15.8926 -7.63732,26.2415 -22.83935,50.1334 -12.164492,19.1179 -13.780462,22.2684 -16.784022,32.7219 -2.21113,7.69549 -2.39449,10.46079 -2.35689,35.54479 0.0432,28.7969 1.4828,43.5847 5.87597,60.3573 4.68927,17.9032 10.090462,24.976 19.072952,24.976 7.26429,0 19.52606,-2.5015 36.83599,-7.5149 8.21333,-2.3788 18.31725,-4.6031 22.45314,-4.9429 11.698,-0.9611 12.93597,0.035 21.13153,17.011 3.74759,7.7624 8.03331,15.2388 9.52382,16.6141 4.81217,4.4405 8.90678,1.3316 19.44979,-14.7673 7.17314,-10.9532 12.3506,-16.7553 16.28702,-18.252 1.37147,-0.5214 7.32567,-0.948 13.23157,-0.948 9.03179,0 11.31137,-0.3544 14.34657,-2.2302 3.82856,-2.3662 11.03863,-12.8227 22.73691,-32.9744 11.01936,-18.9822 16.96898,-24.422 18.95266,-17.3287 1.26606,4.5272 0.73325,55.0779 -0.69425,65.8666 -1.9278,14.57 -3.20293,16.5036 -13.05882,19.8023 -10.73297,3.5922 -14.95452,6.9608 -18.96947,15.1363 -4.03338,8.2132 -6.00431,18.5159 -6.96588,36.413 -0.95527,17.78 -1.72043,19.9489 -4.06396,11.5197 -5.33648,-19.1942 -11.65604,-8.0997 -16.28438,28.5887 -2.98126,23.6321 -8.5621,52.2075 -10.9323,55.9762 -1.16429,1.8513 -2.21785,-6.8488 -2.28248,-18.8482 -0.19799,-36.7554 -12.03084,-72.3213 -24.06147,-72.3213 -3.72914,0 -8.65995,4.7372 -10.8567,10.4303 -1.82769,4.7367 -1.93772,10.3985 -1.84949,95.1697 0.13978,134.3135 3.69025,266.4683 8.71173,324.2667 1.32539,15.2556 1.79975,32.031 1.77958,62.9333 -0.0239,36.6976 -0.39544,46.3305 -2.87951,74.6667 -8.76089,99.9367 -9.26898,207.8515 -1.28316,272.5333 7.21859,58.4676 7.22401,58.7859 6.11669,358.9333 -1.19064,322.734 -0.5644,388.0543 4.05479,422.9334 2.28173,17.2292 11.66113,49.8695 18.91753,65.833 3.20304,7.0464 7.52232,12.567 9.8324,12.567 1.81655,0 6.20542,-10.5172 8.97955,-21.5179 6.79262,-26.936 8.34032,-85.3029 10.14921,-382.7488 1.2466,-204.9851 0.31253,-249.2259 -7.42065,-351.4667 -5.30985,-70.2018 -9.34452,-167.5815 -11.77782,-284.2666 -1.08209,-51.8901 -0.55725,-91.7459 1.1843,-89.935 2.72903,2.8377 7.18785,71.2258 12.19231,187.0016 4.04513,93.5824 8.22068,167.3801 11.79904,208.5334 3.2276,37.1193 3.63869,43.3066 4.74831,71.4666 2.4694,62.6683 3.25714,127.5664 4.25319,350.4001 1.18084,264.1735 1.9565,299.4834 7.0178,319.4666 1.67967,6.6318 15.44407,32.9314 16.56783,31.6561 0.35031,-0.3975 1.92941,-13.2973 3.50911,-28.6662 3.61006,-35.1223 6.37777,-54.466 9.73005,-68.004 2.70969,-10.9429 5.09552,-15.276 6.84919,-12.4396 1.87207,3.028 4.35489,29.0762 6.97593,73.1871 2.90724,48.9275 4.93489,66.1138 10.21722,86.6007 5.59426,21.6967 17.66597,48.7812 38.5722,86.5417 27.72036,50.0681 36.55743,54.4934 41.34279,20.7032 7.00252,-49.446 -0.71866,-187.589 -14.88863,-266.379 -3.73497,-20.7677 -4.58348,-28.3577 -3.3771,-30.2088 1.46388,-2.2461 8.10326,6.1741 18.18884,23.0676 9.61157,16.0995 16.8794,26.0695 20.36298,27.9338 1.83208,0.9805 2.31188,0.7797 3.102,-1.2985 1.79947,-4.733 2.38572,-29.2945 1.24183,-52.0274 -2.7574,-54.7985 -2.76807,-65.0667 -0.0676,-65.0667 6.60394,0 10.88779,37.2006 15.47691,134.4 4.0785,86.3843 7.76941,131.4274 14.55285,177.6 2.41332,16.4267 4.53657,30.0384 4.71834,30.2483 0.18176,0.2099 12.47876,1.0387 27.32666,1.8418 81.19783,4.3919 149.42364,11.2771 206.19617,20.8086 44.08596,7.4016 71.91885,14.7847 90.13333,23.9092 13.53067,6.7782 23.62127,9.3269 39.08377,9.8718 10.504,0.3702 16.2518,0.045 22.9333,-1.2968 15.3665,-3.0863 33.8851,-11.4281 51.0496,-22.9956 9.1365,-6.1573 14.6142,-8.6413 17.4731,-7.9238 1.9131,0.4802 9.0813,-2.6995 28.9293,-12.8325 23.8592,-12.1808 26.8487,-13.4401 31.2178,-13.1509 7.4268,0.4917 8.9361,3.2452 9.7987,17.8765 0.539,9.1409 1.116,12.2343 2.54862,13.6631 1.6186,1.6142 4.2996,1.8499 21.2755,1.8703 12.0755,0.014 20.4325,0.4782 22.0903,1.226 5.7951,2.6136 10.7909,10.2195 14.5131,22.0952 3.7587,11.9922 9.9448,15.1362 19.1584,9.7367 z m -213.40482,-48.3721 c -5.28,-2.2796 -16.9445,-7.5647 -25.9211,-11.7447 -42.33003,-19.7112 -70.91696,-27.743 -110.86324,-31.1484 -21.74407,-1.8536 -78.67311,-0.7486 -115.48235,2.2416 -17.18311,1.3959 -39.0535,2.4297 -52.8,2.496 -22.47591,0.1083 -23.67771,0.01 -28.46552,-2.3493 -10.80917,-5.3243 -16.95576,-15.702 -17.72992,-29.9345 -0.61119,-11.2365 0.93974,-18.477 6.42683,-30.0031 3.81234,-8.0083 5.82523,-10.5641 17.24242,-21.8935 15.78827,-15.6668 36.20507,-33.5689 77.45953,-67.9187 52.70086,-43.8804 83.06777,-72.2302 106.8444,-99.7471 28.3483,-32.8077 40.11131,-52.2309 56.3875,-93.1074 22.90145,-57.5154 46.27405,-96.898 73.43285,-123.7333 17.4103,-17.203 31.8998,-26.3895 51.1512,-32.4302 40.3613,-12.6648 172.95032,-39.441 216.85062,-43.7929 17.4829,-1.733 50.4124,-3.4171 84.6668,-4.3298 26.0579,-0.6944 42.2578,-2.0678 45.6212,-3.8679 2.1878,-1.1708 2.179,-1.2115 -0.5689,-2.6513 -4.1903,-2.1955 -14.8013,-4.4256 -37.4411,-7.8688 -36.8434,-5.6033 -50.6294,-6.8074 -78.0112,-6.8135 -33.7055,-0.01 -37.8189,0.5648 -102.9333,14.3209 -251.96898,53.2311 -358.1031,68.2036 -454.58879,64.1293 -74.99547,-3.1668 -88.54112,-9.7341 -106.40513,-51.5878 -8.10137,-18.9808 -8.9929,-24.5418 -8.25768,-51.5081 0.99529,-36.5047 5.52246,-63.3663 16.30673,-96.7547 14.91128,-46.1657 46.72918,-102.9988 97.38993,-173.9577 15.97089,-22.3699 19.50977,-27.1423 67.39501,-90.8876 33.92614,-45.1627 48.41972,-64.7527 88.78166,-120 62.99829,-86.2318 96.33525,-127.3446 139.07515,-171.5143 l 24.0433,-24.8477 -5.4482,-29.5523 c -6.0896,-33.0316 -8.827,-49.912 -11.2788,-69.5523 -8.3789,-67.1191 -13.3294,-153.4098 -18.7255,-326.4 -5.4157,-173.619 -6.7664,-188.8862 -20.4777,-231.4667 -17.4154,-54.0838 -40.88099,-98.5027 -76.07228,-143.99999 -26.59517,-34.3838 -44.06767,-58.3571 -70.35674,-96.5334 -29.71284,-43.1482 -43.44314,-60.6715 -59.02299,-75.3279 -13.35591,-12.5642 -27.84974,-19.0721 -42.47615,-19.0721 -39.17692,0 -142.76575,38.3911 -205.89831,76.308 -33.32806,20.0166 -51.05017,35.9844 -59.32183,53.4495 -3.16514,6.6829 -3.45796,8.1774 -3.41757,17.4425 0.0383,8.7847 0.52983,11.482 3.69323,20.2667 3.21556,8.9295 3.65381,11.4005 3.68916,20.8 0.0371,9.88 -0.18864,11.06 -3.06147,16 -1.70586,2.9333 -6.42432,8.5744 -10.48545,12.5357 -13.49157,13.15989 -44.91371,32.33629 -54.14631,33.04459 -3.66202,0.2809 -3.73945,0.2028 -4.0537,-4.0908 -0.1762,-2.4075 0.9038,-9.6928 2.4,-16.1897 3.14279,-13.64659 3.32122,-16.53989 1.13206,-18.35679 -2.488,-2.0648 -7.87582,-0.4808 -16.61158,4.8839 -9.645,5.92299 -13.59869,9.48829 -15.53148,14.00549 -2.02131,4.7241 -1.84855,8.9393 1.14789,28.0069 1.42663,9.0782 2.47536,16.6244 2.33052,16.7692 -0.62604,0.6261 -23.24135,-13.1755 -30.43827,-18.5757 -4.34018,-3.2567 -10.82018,-9.0725 -14.4,-12.9241 -11.93856,-12.845 -15.86004,-16.2878 -18.1751,-15.9567 -1.68858,0.2415 -2.27579,1.2191 -2.52476,4.2034 -0.4994,5.9862 3.44748,12.946 13.36692,23.571 7.70006,8.2478 8.89645,10.0312 8.61623,12.8435 -0.51685,5.1874 -3.87692,5.6962 -22.87604,3.4635 -23.35932,-2.745 -26.29927,-1.8523 -42.70871,12.9681 -5.53749,5.0013 -10.21809,8.9219 -10.40133,8.7125 -0.54365,-0.6211 3.50786,-56.0073 4.7727,-65.2452 2.18219,-15.93779 7.16564,-25.16249 22.87081,-42.33549 18.63895,-20.3809 35.18241,-42.4999 48.26638,-64.5333 9.39246,-15.8169 12.60331,-20.5074 17.76854,-25.9565 5.90037,-6.2247 11.85796,-9.0459 25.18226,-11.925 37.53663,-8.111 68.51471,-25.4793 107.52554,-60.2856 5.10095,-4.5512 21.38533,-19.9259 36.18751,-34.1659 46.80926,-45.0315 58.87853,-53.8287 106.42681,-77.5735 12.3164,-6.1507 36.07346,-17.5266 52.79346,-25.28 50.79236,-23.5533 78.22708,-38.1486 96.68423,-51.436 12.53102,-9.0212 17.2329,-11.8235 18.80951,-11.2103 1.7699,0.6884 9.16639,13.3546 21.62557,37.0328 16.39535,31.1587 30.05092,53.1303 51.04675,82.1333 22.0709,30.4881 43.62696,54.5061 50.30739,56.0531 5.06496,1.1729 23.74527,11.3616 41.2391,22.4928 26.975,17.164 68.6786,42.0235 84.5541,50.4026 67.1601,35.4471 112.53282,70.3691 201.06672,154.75499 29.9781,28.5736 51.2336,47.9617 60.6846,55.353 l 5.7512,4.4979 2.4551,-2.3065 c 3.1095,-2.9211 16.1676,-28.5182 25.5316,-50.0478 17.7834,-40.88789 36.2041,-73.66549 54.0866,-96.24159 15.6858,-19.8027 23.2442,-23.9861 67.8111,-37.5314 61.3856,-18.657 100.7326,-26.2108 153.8131,-29.5288 19.0913,-1.1934 76.456,-0.7226 123.7333,1.0155 l 18.6667,0.6862 62.9333,32.4222 c 34.6134,17.8322 66.1204,34.5138 70.0156,37.0703 9.4359,6.1929 24.4051,22.0297 28.2783,29.9175 2.875,5.8552 3.0595,7.0844 3.4091,22.7234 0.8315,37.18659 -4.9422,77.02679 -14.7705,101.92089 -10.4685,26.5156 -24.2203,44.0075 -53.1294,67.579 -6.0483,4.9316 -16.3683,14.5831 -22.9333,21.4478 -6.565,6.8646 -13.0862,13.0839 -14.4914,13.8205 -1.5658,0.8208 -6.1941,1.2813 -11.9542,1.1894 -14.8973,-0.2378 -31.4113,3.5383 -77.2242,17.6578 -28.2319,8.7011 -40.729,11.6252 -45.1086,10.5547 -1.5902,-0.3887 -5.4301,-3.196 -8.533,-6.2384 -5.5319,-5.424 -5.7602,-5.5289 -11.7333,-5.3877 -3.3505,0.079 -10.8917,1.3637 -16.7584,2.8545 -15.9193,4.0452 -32.7072,6.4021 -45.8878,6.4424 -18.1369,0.055 -22.3985,-2.9553 -27.6319,-19.522 -3.1759,-10.0537 -4.6965,-18.2669 -5.8805,-31.7637 -0.5028,-5.732 -1.5258,-11.7534 -2.2732,-13.3808 -1.8097,-3.9403 -5.7109,-4.8506 -9.3009,-2.1703 -1.6291,1.2163 -13.4538,20.7041 -28.4404,46.8715 -32.4559,56.6696 -36.6882,64.7633 -35.1854,67.2876 1.7016,2.858 13.7776,10.6051 34.6001,22.1967 22.3927,12.4657 29.1645,16.957 34.5421,22.9093 7.6874,8.509 9.0721,16.1971 6.6277,36.7975 -0.905,7.6266 -2.8287,23.7066 -4.275,35.7333 -10.281,85.4968 -16.5269,202.9608 -16.6094,312.3658 l -0.019,24.8991 11.9087,19.3675 c 21.9791,35.7453 35.1914,52.662 65.9579,84.4508 22.3055,23.0466 35.3211,38.1589 51.6997,60.0278 23.1344,30.8893 28.7316,41.9561 49.2059,97.289 25.6228,69.2472 48.0162,120.0812 73.9689,167.9126 17.5668,32.3758 26.0919,42.0821 50.2773,57.2434 20.9392,13.1263 49.9516,32.4355 71.8797,47.8394 31.0945,21.8432 46.9867,31.0046 53.7834,31.0046 1.6614,0 4.8596,1.2479 7.1071,2.7731 2.9799,2.0222 4.9788,2.6283 7.3818,2.2383 6.2061,-1.0071 24.5675,-8.4839 46.9629,-19.1234 46.8797,-22.2714 75.4373,-31.7829 95.2938,-31.7389 8.192,0.018 12.0062,1.5648 13.3614,5.4183 1.5841,4.5044 -2.0061,10.1206 -14.9643,23.4087 -15.61,16.0073 -17.2762,19.4493 -18.5242,38.2672 -0.4997,7.5352 -1.6988,16.758 -2.6647,20.4952 -8.7472,33.8454 -38.5642,64.338 -58.3687,59.6914 -7.1584,-1.6796 -12.9355,0.4918 -30.5571,11.4852 -16.5537,10.3272 -34.2429,16.9612 -34.2429,12.8421 0,-0.6469 1.8546,-5.1337 4.1213,-9.9707 5.1382,-10.9648 7.0065,-18.5376 6.1376,-24.8776 -0.7785,-5.6791 -3.1462,-8.7756 -6.7103,-8.7756 -3.0098,0 -24.6275,11.0595 -34.7184,17.7617 -12.4992,8.3018 -16.8302,15.2518 -16.8302,27.0081 0,9.3586 2.9936,19.2454 14.7044,48.5636 10.6033,26.5454 12.9005,35.7333 8.9344,35.7333 -7.8,0 -63.6165,-33.9214 -75.7458,-46.033 -6.7143,-6.7045 -7.759,-9.4166 -8.8403,-22.9479 -1.699,-21.2606 -7.1829,-43.2451 -17.6488,-70.7524 -10.8074,-28.4048 -28.3463,-61.0958 -40.9807,-76.3843 -11.8356,-14.3218 -57.1968,-65.2691 -64.685,-72.6507 -29.9125,-29.4866 -56.0528,-44.2764 -111.7903,-63.2494 -12.2888,-4.1831 -25.2243,-9.1304 -28.7456,-10.994 -11.9366,-6.3172 -17.3724,-13.2308 -55.4094,-70.4732 -35.5335,-53.4747 -54.9108,-81.4417 -66.4366,-95.8873 -4.6805,-5.8662 -76.5548,-88.9426 -87.9969,-101.7119 -2.0238,-2.2585 -1.9912,-2.6699 2.916,-36.8 6.1092,-42.4897 10.9109,-68.4784 17.0196,-92.1159 5.4144,-20.9513 7.5435,-31.768 8.6081,-43.7333 1.73,-19.4427 10.1459,-33.0594 46.6198,-75.4295 21.7434,-25.2583 28.0154,-34.6261 30.6352,-45.7564 0.606,-2.5745 1.8373,-15.7208 2.7364,-29.2141 0.899,-13.4934 2.3896,-30.7734 3.3125,-38.4 2.516,-20.7928 3.0267,-35.8807 1.2874,-38.0354 -1.8383,-2.2775 -5.409,-1.0057 -7.9151,2.819 -4.5545,6.9511 -6.7888,32.3207 -6.8254,77.5013 l -0.02,25.2183 -21.5233,25.9817 c -55.2626,66.7099 -56.1964,68.9008 -80.2096,188.1821 -9.916,49.2564 -11.8843,62.7154 -11.0574,75.6111 1.0068,15.7003 5.5181,24.4721 25.2521,49.1002 23.4963,29.3236 60.3168,74.5887 78.9755,97.0883 32.6392,39.3581 48.7744,61.9466 80.7645,113.0667 62.083,99.2086 74.9375,125.9795 99.362,206.9333 19.9919,66.2619 30.7537,106.3908 31.8098,118.6124 0.9003,10.4193 -0.365,13.1396 -8.006,17.2122 -3.332,1.776 -7.1092,4.3477 -8.3937,5.715 -5.1848,5.519 -6.9519,21.1195 -8.8571,78.1938 -1.7716,53.0686 -4.7509,96.4685 -7.5788,110.4 -2.8658,14.1182 -14.098,30.1884 -37.7311,53.9827 -24.3234,24.4893 -45.1343,42.5788 -46.9246,40.7885 -0.8455,-0.8455 -3.476,-15.8956 -6.963,-39.8379 -3.4753,-23.8618 -6.3076,-37.0542 -12.3662,-57.6 -11.2142,-38.0295 -32.4209,-82.1972 -43.5372,-90.676 -10.0187,-7.6416 -38.6956,1.1311 -107.2826,32.8194 -78.1766,36.1189 -131.7841,64.602 -187.2,99.4644 -76.7858,48.3063 -155.53622,101.395 -197.86672,133.3895 -35.1558,26.5717 -61.8731,50.8072 -63.6014,57.6934 -0.3943,1.571 0.3175,6.0898 1.7117,10.8661 5.1611,17.6812 3.746,25.2685 -4.6683,25.0299 -4.7932,-0.1358 -8.8153,-2.6551 -11.1441,-6.9801 -3.709,-6.8883 -7.0862,-9.7782 -11.28813,-9.6591 -8.39704,0.2381 -17.5646,9.946 -26.78426,28.3632 -3.69371,7.3786 -4.51659,9.8734 -3.45291,10.4687 2.14097,1.1981 15.6621,4.5036 47.2274,11.5456 49.7283,11.0941 80.5325,20.4984 98.6667,30.1224 27.8578,14.7844 59.188,39.425 61.4161,48.3026 0.6132,2.4431 0,3.6341 -3.9454,7.7103 -13.1087,13.53 -57.8053,42.4901 -79.6689,51.6194 -11.9895,5.0063 -14.9372,5.0171 -26.3351,0.096 z m -244.26669,-69.5545 c 28.73217,-2.6578 72.20042,-3.9942 173.86666,-5.3453 70.60243,-0.9383 89.90743,-1.8049 94.45793,-4.2403 1.9338,-1.035 1.9707,-1.3441 0.4992,-4.1897 -0.8738,-1.6897 -2.558,-5.6628 -3.7427,-8.8291 -4.1979,-11.2201 -11.7623,-15.2794 -36.2811,-19.4697 -57.53075,-9.8321 -80.63363,-17.117 -99.3447,-31.3258 -16.04874,-12.1871 -16.28285,-21.9262 -0.93962,-39.088 11.64727,-13.0278 14.25054,-18.8359 9.28825,-20.7225 -6.46833,-2.4593 -67.74143,-8.9926 -79.34177,-8.46 -14.50053,0.6658 -19.94314,4.492 -59.20093,41.6182 -47.62532,45.0393 -57.37031,57.3308 -58.28481,73.5152 -0.43444,7.6884 0.74309,11.0415 6.41035,18.2538 8.07923,10.2819 16.56463,11.6178 52.61324,8.2832 z m 175.21276,-159.0935 c 9.80813,-3.5321 19.97073,-9.8702 40.78723,-25.4375 33.7788,-25.2609 60.8124,-49.3668 58.2435,-51.9357 -0.9818,-0.9818 -13.7154,8.05 -25.1768,17.8575 -5.5734,4.7692 -13.0094,10.5575 -16.5245,12.8629 -6.7865,4.451 -12.2755,5.5313 -12.2755,2.416 0,-0.9767 5.8414,-13.0967 12.981,-26.9334 22.8195,-44.2247 24.9243,-48.4477 28.949,-58.0814 8.1194,-19.4347 6.0791,-22.7234 -6.1885,-9.975 -4.1112,4.2723 -12.6185,14.5057 -18.9051,22.741 -15.2232,19.9419 -25.6797,31.7324 -36.7459,41.4332 -18.4801,16.2003 -32.35719,22.8831 -32.35719,15.5825 0,-5.871 13.12039,-33.6767 23.15379,-49.0693 6.6072,-10.1362 8.8462,-15.5298 8.8462,-21.3094 0,-3.6808 -1.4752,-6.4792 -3.4155,-6.4792 -3.3848,0 -58.75626,84.1629 -74.34629,113.004 -5.90385,10.922 -7.7979,11.6545 -17.19534,6.6502 -8.51396,-4.5339 -12.05661,-5.0729 -16.26127,-2.4743 -6.82589,4.2187 -10.37211,11.9963 -6.81555,14.948 4.64946,3.8587 38.06016,7.522 65.76729,7.211 18.28858,-0.2052 20.30045,-0.4257 27.47943,-3.0111 z m 140.27243,-101.9685 c 28.7996,-21.6121 88.16502,-77.0349 94.97512,-88.6677 2.4369,-4.1626 1.6465,-4.2172 -9.6052,-0.6627 -9.4643,2.9898 -18.3123,8.0015 -26.92702,15.252 -18.9026,15.9094 -41.7583,36.8685 -52.759,48.3811 -11.2582,11.7819 -36.9024,42.4698 -36.9024,44.1602 0,1.6938 20.5676,-10.4701 31.2185,-18.4629 z m 6.424,-60.1165 c 8.6022,-4.3875 25.2908,-23.4257 25.2908,-28.8516 0,-4.9903 -9.5623,0.2897 -20.7053,11.4326 -15.9305,15.9305 -18.1426,24.3337 -4.5855,17.419 z m 503.33002,-64.7896 c 7.7965,-4.9443 26.0981,-23.2251 31.8272,-31.7909 5.3512,-8.0006 6.4926,-10.9176 8.592,-21.9586 0.8818,-4.6378 2.196,-7.3462 5.3105,-10.9448 2.2763,-2.6301 4.3935,-6.3367 4.7049,-8.2371 0.3113,-1.9003 1.0766,-6.5751 1.7005,-10.3884 1.5344,-9.3785 5.9239,-25.9045 16.0852,-60.5587 13.7618,-46.9335 17.1529,-65.2047 14.7599,-79.5273 -1.7924,-10.7287 -3.8698,-15.3932 -7.8183,-17.555 -2.8606,-1.5663 -6.593,-1.8213 -26.2678,-1.7943 -28.1532,0.038 -34.3911,1.069 -38.9333,6.4313 -2.7377,3.2321 -4.1246,3.9094 -9.6,4.6882 -9.1941,1.3078 -16.5058,4.3563 -30.1234,12.5596 -27.6996,16.6863 -58.339,40.1878 -78.2157,59.9941 -7.2916,7.2658 -13.2816,14.241 -14.6431,17.0517 l -2.3041,4.7563 2.2211,2.3642 c 1.2216,1.3003 6.8167,4.6003 12.4336,7.3333 14.6801,7.1428 21.7,12.2365 34.426,24.98 19.0579,19.084 31.9202,37.6721 47.5679,68.7436 12.5149,24.8506 19.9568,36.933 22.7481,36.933 0.3696,0 2.8575,-1.3861 5.5288,-3.0802 z m 348.3048,-168.2843 c 1.1204,-2.9197 -1.53,-10.6549 -9.3202,-27.2007 -15.2468,-32.3829 -15.4548,-46.9621 -0.8681,-60.8206 5.9579,-5.6605 21.2563,-13.8425 35.5776,-19.0279 11.4926,-4.1613 19.4447,-8.061 30.8045,-15.1066 22.6115,-14.0241 49.1362,-37.6798 56.6436,-50.5168 5.7498,-9.8317 12.3359,-13.9562 31.265,-19.5796 25.6693,-7.6258 42.0226,-18.0916 39.3109,-25.1582 -0.6164,-1.6062 -1.5274,-1.8004 -5.7379,-1.2233 -13.4552,1.8442 -49.4996,16.4658 -81.8861,33.2174 -22.616,11.698 -34.9036,16.5141 -42.1333,16.5141 -15.8069,0 -63.6442,-24.8631 -130.1333,-67.6357 -16.0486,-10.3241 -36.2373,-20.8977 -39.9011,-20.8977 -2.4654,0 -5.8571,3.0359 -7.9656,7.1299 -2.0847,4.0477 -1.4092,14.8041 1.4679,23.3749 4.5951,13.6887 12.7167,28.5021 30.729,56.0487 29.9194,45.7563 44.396,83.2052 47.3597,122.5132 1.1577,15.3545 3.0778,19.6118 13.4346,29.7864 16.023,15.7413 29.4006,23.67 31.3528,18.5825 z m -480.3233,-36.4724 c 8.5552,-4.8856 5.5819,-8.7048 -6.7579,-8.6808 -8.3006,0.016 -12.3306,1.2802 -14.34,4.4976 -3.6533,5.8497 12.553,9.063 21.0979,4.1832 z m -27.1762,-4.8688 c -0.2445,-0.2414 -6.6845,-2.1879 -14.3111,-4.3254 -55.7515,-15.6258 -132.4018,-40.8296 -147.7792,-48.5921 -8.0432,-4.0602 -9.3781,-5.7548 -6.1589,-7.8181 6.7086,-4.2998 74.4012,-15.5576 93.8856,-15.614 7.4239,-0.021 15.021,-2.2825 18.1361,-5.3976 5.5097,-5.5097 3.5904,-14.7902 -7.7284,-37.3699 -8.1106,-16.1795 -13.4962,-24.9712 -21.9302,-35.7997 -16.0343,-20.5866 -32.578,-31.3006 -65.7023,-42.5499 -30.3979,-10.3234 -40.2525,-16.4844 -58.4995,-36.5732 -7.3161,-8.0544 -11.5354,-11.9141 -12.664,-11.5842 -0.9309,0.272 -16.8126,6.9703 -35.2926,14.885 -63.01232,26.9872 -62.24302,26.7999 -107.20002,26.1019 -34.1572,-0.5303 -50.0918,0.2475 -58.6667,2.8633 -2.9333,0.8949 -12.0533,5.6298 -20.2666,10.522 -8.2134,4.8923 -25.9734,15.0534 -39.4667,22.5802 -48.93529,27.2969 -55.35279,31.7581 -54.73961,38.0536 0.62826,6.45 10.51394,9.4465 38.20628,11.5806 59.33053,4.5723 94.13703,9.7086 148.80003,21.9583 42.5427,9.5336 61.8987,15.2914 110.93332,32.9995 19.9467,7.2035 51.1467,18.1489 69.3334,24.3233 52.9626,17.9806 63.8916,21.7848 83.1459,28.9414 19.2845,7.1678 24.9411,8.648 38.5095,10.0772 8.6611,0.9123 50.2607,1.5329 49.4557,0.7378 z m 621.9555,-61.1397 c 7.5047,-4.3805 10.365,-8.1601 13.3668,-17.6627 2.7945,-8.8459 4.5092,-22.9889 3.3481,-27.615 -0.5361,-2.136 -2.0479,-3.0024 -8.7527,-5.0163 -4.4575,-1.3388 -8.7709,-2.1786 -9.5852,-1.8661 -2.6507,1.0172 -5.5147,8.4364 -7.8772,20.4054 -1.2737,6.4534 -3.4973,15.6428 -4.9412,20.421 -1.4439,4.7781 -2.6253,9.6743 -2.6253,10.8803 0,5.1633 8.606,5.392 17.0667,0.4534 z m 41.1362,-20.9402 c 3.4152,-7.4598 5.1437,-23.3666 4.3102,-39.6658 -0.8098,-15.8366 -2.4368,-22.2099 -5.7934,-22.6945 -3.6494,-0.5268 -11.4598,4.6264 -15.1576,10.001 -4.6519,6.7613 -5.0959,10.8592 -1.8006,16.6184 3.268,5.7116 4.7179,12.3441 5.4806,25.0701 0.6273,10.4684 1.8566,15.098 4.5533,17.1484 2.6509,2.0154 5.5374,-0.2085 8.4075,-6.4776 z m -302.0335,-168.9478 c -1.402,-7.7101 -10.383,-31.9657 -21.2468,-57.3821 -39.2511,-91.8301 -89.0032,-178.0042 -132.9921,-230.3512 -11.3047,-13.4527 -31.9732,-33.2166 -41.0133,-39.2184 -10.4452,-6.9345 -28.9434,-15.6809 -33.2041,-15.6996 -3.2651,-0.014 -3.4424,0.1713 -2.786,2.918 1.8231,7.6287 6.8657,18.6803 20.0149,43.8653 7.8493,15.034 26.8719,52.0547 42.2725,82.268 49.3617,96.8396 66.134,127.8889 82.7433,153.1761 12.4115,18.8961 22.7084,28.7177 26.3206,25.1056 1.9604,-1.9605 -0.4898,-11.1345 -6.4744,-24.2417 -6.1661,-13.5045 -10.9814,-28.5395 -13.9766,-43.64 -1.9814,-9.9893 -6.0826,-48.2336 -5.2606,-49.0557 0.2057,-0.2057 3.2194,5.7077 6.697,13.1409 30.9713,66.1993 73.1755,143.1148 78.5283,143.1148 0.6946,0 0.8347,-1.4846 0.3773,-4 z m -564.1693,-352.5429 c 21.2967,-8.5083 40.0983,-18.0266 44.702,-22.6302 2.0994,-2.0995 4.2649,-5.6759 4.9283,-8.1394 2.0768,-7.713 -1.1074,-19.2449 -6.5873,-23.8559 -6.8344,-5.7508 -7.3826,-11.1118 -4.1574,-40.6582 3.2234,-29.53 4.25,-52.371 5.3893,-119.9067 0.9881,-58.5757 1.6694,-75.202 4.2616,-104 0.5809,-6.4534 1.0571,-18.2134 1.0582,-26.1334 0,-26.14 -4.0263,-28.0156 -28.3966,-13.2169 -22.2019,13.482 -36.613,19.6282 -45.9645,19.6034 -9.9998,-0.026 -24.8551,-9.833 -43.0789,-28.438 -13.3543,-13.6335 -22.11162,-25.1975 -30.38912,-40.1286 -8.9666,-16.174 -14.8597,-25.5114 -17.904,-28.3685 -2.5486,-2.3919 -2.873,-2.4456 -5.2732,-0.873 -12.9086,8.4581 -43.9771,89.32 -49.85,129.7449 -1.502,10.3386 -0.7458,27.4776 1.5974,36.2032 5.1105,19.0309 18.4052,30.9779 44.0228,39.5607 11.5167,3.8584 17.7003,4.077 26.9517,0.9527 3.7352,-1.2614 22.03742,-9.9072 40.67172,-19.2129 18.6342,-9.3057 35.2741,-17.1982 36.9774,-17.5389 2.9131,-0.5826 3.2717,-0.2505 6.0381,5.5921 1.6175,3.4163 5.5446,13.878 8.7268,23.2483 l 5.7859,17.0369 -6.1914,6.4506 c -3.4052,3.5479 -13.4329,13.917 -22.2838,23.0426 -8.8509,9.1255 -16.4459,17.7054 -16.8779,19.0665 -1.1068,3.4871 0.7632,4.3061 9.8763,4.3253 8.5929,0.018 10.2915,1.3098 7.3962,5.6245 -0.8827,1.3155 -7.8793,9.0462 -15.5478,17.1793 -22.2791,23.6287 -31.6359,39.7142 -48.17142,82.8125 -10.2101,26.6118 -12.9674,32.4694 -16.252,34.5255 -1.3155,0.8235 -6.1399,1.8147 -10.7209,2.2027 -4.581,0.388 -9.4818,1.1437 -10.8907,1.6793 -4.0663,1.5461 -6.9135,5.0459 -6.9135,8.4984 0,5.7095 4.0209,6.8489 25.7767,7.304 22.6799,0.4744 43.11262,-1.1752 49.48782,-3.9952 3.3207,-1.4689 5.5465,-3.585 8.3024,-7.8931 4.2028,-6.5701 9.1529,-9.955 19.712,-13.4793 14.0293,-4.6825 44.9878,-7.3375 44.9878,-3.8581 0,1.5812 -7.3692,8.138 -16.5475,14.7233 -6.5964,4.7328 -16.6884,15.1963 -19.0366,19.7372 -3.6093,6.9796 -1.2812,11.5878 5.1841,10.2612 1.76,-0.3611 10.4,-3.5331 19.2,-7.0488 z m -107.11782,-247.362 c -2.0081,-1.3723 -3.8546,-3.1146 -4.1033,-3.8717 -0.7967,-2.4251 7.1414,-8.6713 17.1925,-13.5285 15.77562,-7.6235 25.39152,-9.0488 26.12322,-3.872 0.2807,1.9856 -1.17,4.0092 -6.4995,9.0666 -13.77382,13.0705 -25.20572,17.3358 -32.71292,12.2056 z m -20.789,-14.2063 c -12.6822,-12.6822 -15.6771,-37.0886 -8.7724,-71.4888 l 3.4255,-17.0667 1.2892,27.2 c 1.4058,29.6615 2.8999,39.5816 7.8069,51.8363 4.8952,12.2251 3.2172,16.4856 -3.7492,9.5192 z m 146.44572,0.1235 c -3.505,-7.6926 5.6853,-21.4701 11.4902,-17.2254 2.917,2.1329 2.7511,12.1406 -0.2684,16.2015 -3.1593,4.2488 -9.4893,4.8264 -11.2218,1.0239 z m -130.37362,-14.363 c -0.971,-1.0728 -1.7654,-2.956 -1.7654,-4.1848 0,-2.9573 4.9949,-8.7978 7.524,-8.7978 4.4162,0 5.3218,8.6241 1.3647,12.9966 -2.2365,2.4714 -4.8789,2.4662 -7.1233,-0.014 z m 146.13332,-65.0666 c -3.5362,-3.9074 -0.9246,-8.716 4.7337,-8.716 4.0621,0 6.211,3.9413 4.3617,8 -1.4863,3.262 -6.4384,3.6519 -9.0954,0.716 z m 20.9097,251.8173 c 5.5602,-6.2063 26.7579,-47.6978 31.471,-61.6 2.8102,-8.2893 2.8911,-9.2045 2.8293,-32 -0.053,-19.6818 -0.6103,-27.8536 -3.4531,-50.6667 -6.6004,-52.9681 -6.8657,-73.6547 -1.2379,-96.5333 1.1545,-4.6933 2.1028,-11.2585 2.1074,-14.5893 0.01,-5.2769 -0.3532,-6.3402 -2.8022,-8.2666 -1.9319,-1.5196 -4.3496,-2.2057 -7.7334,-2.1944 -5.5994,0.018 -7.0401,0.6939 -7.9297,3.717 -2.0537,6.9785 -5.139,54.6927 -7.656,118.4 -2.7686,70.0763 -5.6735,117.2494 -8.0419,130.5959 -1.2692,7.1522 -1.3358,15.0041 -0.1272,15.0041 0.4958,0 1.6539,-0.84 2.5737,-1.8667 z m 166.0875,-133.2031 c 7.4023,-6.8533 18.0835,-20.5905 21.964,-28.2483 4.0807,-8.0529 5.5642,-16.7692 6.7876,-39.8819 2.0594,-38.9066 9.1926,-61.4189 25.2473,-79.68 14.1197,-16.0602 17.5435,-23.3437 12.2459,-26.0507 -3.5856,-1.8322 -6.9577,0.071 -13.8758,7.833 -10.9294,12.2621 -21.9266,30.9595 -26.6514,45.3127 -3.9156,11.8955 -13.854,26.7566 -35.0421,52.4 -13.8041,16.7067 -17.8211,23.0107 -16.771,26.3193 0.3514,1.1071 3.5729,4.5547 7.1589,7.6613 3.9885,3.4554 7.3121,7.4391 8.5601,10.2605 1.9822,4.4812 1.9872,4.9229 0.1757,15.5606 -1.0255,6.0217 -1.5565,11.7514 -1.1799,12.7326 1.2302,3.206 4.7836,1.8886 11.3807,-4.2191 z m -155.1838,-174.2581 c 10.0688,-2.5752 29.6322,-10.2816 42.6459,-16.799 20.7396,-10.3868 48.2429,-31.3801 81.801,-62.439 21.2301,-19.649 40.4966,-41.576 51.5348,-58.6511 l 1.9072,-2.9504 -38.2671,-18.7865 c -45.745,-22.4577 -72.9338,-36.6648 -72.9338,-38.1104 0,-0.5816 3.3389,-7.0901 7.4198,-14.4633 11.7675,-21.2606 16.213,-35.4206 20.2832,-64.6058 2.363,-16.9436 4.6434,-26.6289 6.5467,-27.8052 5.9426,-3.6728 10.932,25.0986 12.1283,69.9386 0.3522,13.2 1.1214,25.8063 1.7094,28.014 1.6618,6.2398 6.6557,10.9703 17.1013,16.1994 13.2659,6.641 15.5203,6.9171 23.652,2.8969 10.102,-4.9942 23.8329,-16.5019 27.2356,-22.8257 3.6108,-6.7106 11.3297,-16.8771 24.3601,-32.0849 19.9006,-23.2257 39.0821,-55.562 52.9519,-89.2664 7.1715,-17.4271 8.7766,-25.1355 7.1276,-34.2292 -1.3481,-7.4343 -10.4149,-34.2825 -15.187,-44.9708 -2.8672,-6.42199 -3.539,-7.19999 -6.2167,-7.19999 -12.1733,0 -84.2566,30.38409 -169.5122,71.45189 -33.041,15.9158 -49.9273,23.4814 -52.4105,23.4814 -2.5481,0 -11.5381,-6.7191 -27.5895,-20.6203 -8.5067,-7.3672 -17.6267,-14.4958 -20.2667,-15.8414 -6.8695,-3.5013 -19.2169,-3.8019 -38.9083,-0.9471 -40.1886,5.8265 -44.1286,11.3078 -51.7453,71.9875 -4.8657,38.763 -5.8292,53.2775 -5.8477,88.088 -0.022,41.8917 2.3398,62.82 10.6958,94.7689 6.2259,23.8049 18.2917,53.0426 28.1811,68.2884 10.5688,16.2933 30.6672,31.7262 48.919,37.5634 8.3365,2.6661 22.074,2.6317 32.6841,-0.082 z m 412.2879,-227.1626 c 23.457,-7.245 73.4687,-25.0009 82.6667,-29.3495 19.2559,-9.1037 22.9071,-13.689 32.3507,-40.6272 10.0197,-28.5814 14.3414,-36.8674 17.5535,-33.6553 0.9099,0.9099 1.2827,7.4292 1.2881,22.5283 0.01,18.2282 0.2553,21.4957 1.7499,22.9918 2.3437,2.346 4.4231,1.1359 11.871,-6.9088 11.4213,-12.3364 25.1661,-35.863 30.152,-51.6106 10.4957,-33.1495 -12.3595,-68.4098 -71.4985,-110.30609 -9.5909,-6.7945 -53.0272,-34.9061 -58.2713,-37.7127 -3.8235,-2.0462 -58.1323,27.8011 -88.2852,48.5202 l -13.223,9.086 -5.4436,-4.3107 c -23.865,-18.8985 -34.7769,-29.2449 -34.7769,-32.9746 0,-1.0189 -0.7196,-2.4497 -1.5991,-3.1796 -4.0904,-3.3948 -14.016,5.9788 -19.7651,18.6659 -5.6164,12.3942 -6.8348,19.5829 -6.8701,40.53329 -0.039,23.3357 1.0923,29.1698 8.3516,43.0537 6.9734,13.3371 6.9986,16.4232 0.3413,41.7464 -6.7668,25.7402 -9.4929,45.0076 -9.6588,68.2666 -0.201,28.1786 1.2913,33.0667 10.0947,33.0667 8.1973,0 12.6877,-4.1814 14.3582,-13.3702 1.1704,-6.4373 4.4112,-12.1048 7.3425,-12.8405 4.8144,-1.2084 6.3895,-0.092 9.773,6.9237 3.8191,7.9198 7.2798,11.2843 13.2646,12.8958 9.7006,2.6121 16.7005,-1.7733 19.7677,-12.3845 2.2936,-7.9346 6.2499,-16.9842 7.8604,-17.9796 2.1552,-1.3319 4.0518,1.3598 12.8441,18.2289 9.9342,19.0599 13.776,25.1942 15.4016,24.5918 0.638,-0.2365 6.2,-1.9866 12.36,-3.8892 z m 56.2256,-60.7693 c -6.2666,-7.4475 -10.0183,-25.3013 -8.9589,-42.6345 0.7027,-11.4963 1.9987,-16.9308 4.8888,-20.5 1.8927,-2.3374 2.0754,-2.3619 4.715,-0.6324 3.7925,2.4849 11.0779,17.7183 13.1168,27.4267 2.4245,11.5437 1.599,26.8573 -1.8195,33.7533 -2.1539,4.3452 -3.1035,5.2321 -5.8917,5.5036 -2.613,0.2544 -3.9071,-0.3695 -6.0505,-2.9167 z M 142.24577,1017.4454 c 1.23787,-1.0136 5.78055,-6.6429 10.09485,-12.5096 10.31382,-14.02489 28.16357,-32.03709 33.06265,-33.36339 2.10594,-0.5702 4.43529,-0.5965 5.48894,-0.062 2.94296,1.4927 4.34332,8.9422 3.57643,19.0254 -0.8462,11.12609 0.66902,19.89409 4.01641,23.24149 4.09845,4.0984 6.30284,1.8002 12.06123,-12.5748 5.51656,-13.77129 44.0988,-42.36029 60.05562,-44.50059 8.15002,-1.0931 11.45012,5.1617 12.77374,24.2105 0.86667,12.4727 2.58755,18.1568 5.49703,18.1568 3.98997,0 16.17288,-11.1851 19.75108,-18.1334 2.82629,-5.4882 2.25773,-16.3218 -2.07126,-39.4666 -6.72451,-35.9524 -6.74581,-35.6829 3.66836,-46.4231 9.43063,-9.7259 13.03834,-17.2638 13.58726,-28.3893 0.30117,-6.1041 -0.0519,-9.1019 -1.40849,-11.9608 -2.18297,-4.6003 -4.60417,-5.5363 -9.88793,-3.8228 -5.30677,1.7211 -19.13961,8.6762 -26.10676,13.1266 -15.22415,9.7245 -30.84417,16.0183 -44.97183,18.1206 -6.33978,0.9434 -11.52826,2.3722 -13.87022,3.8196 -5.20745,3.2184 -11.98071,11.0156 -22.17351,25.5257 -11.89989,16.9403 -22.43165,30.8948 -37.13473,49.2035 -24.97727,31.1023 -32.93867,42.87779 -34.49513,51.02059 -1.29417,6.7707 3.37738,9.939 8.48626,5.7556 z m 907.68573,-20.99959 c 1.1653,-1.7786 1.4887,-3.6709 1.0043,-5.8766 -2.4029,-10.9402 -34.2161,-40.8457 -80.00742,-75.2097 -34.3496,-25.7777 -61.3872,-43.4156 -107.2,-69.9317 -62.4729,-36.1589 -119.59775,-74.1918 -148.26662,-98.7137 -4.98667,-4.2654 -14.51746,-13.5666 -21.17953,-20.6693 -14.40313,-15.3559 -18.0575,-17.6066 -27.29776,-16.8124 -7.38029,0.6344 -16.90074,4.0371 -21.45431,7.668 -3.03599,2.4208 -3.07528,2.5776 -1.64028,6.5461 5.95716,16.4742 36.9981,55.5876 48.55513,61.1822 2.46966,1.1956 6.27416,2.1737 8.45445,2.1737 9.54333,0 14.55181,4.7401 26.8229,25.3855 4.58457,7.7132 9.98722,15.8272 12.00588,18.0311 3.51839,3.8412 3.73232,3.9222 5.16858,1.958 0.83783,-1.1458 1.52481,-4.6627 1.55847,-7.9784 0.13146,-12.9465 4.48009,-17.2878 10.67462,-10.6565 1.76213,1.8863 6.14172,9.1921 9.73241,16.235 3.59069,7.0429 8.86093,16.2926 11.71165,20.5547 5.44687,8.1438 16.31345,18.9732 18.35531,18.2926 0.72666,-0.2422 1.65763,-6.0377 2.36312,-14.7108 1.09038,-13.4043 3.15258,-21.2445 5.58788,-21.2445 5.0087,0 42.8423,36.3755 60.6681,58.33 17.7375,21.8457 25.3282,34.95 36.3407,62.7367 7.9147,19.9704 13.6522,31.4667 15.7043,31.4667 2.3507,0 6.3738,-6.8006 10.6012,-17.92 7.4088,-19.4877 18.0702,-29.7807 32.9604,-31.8217 3.8115,-0.5224 5.5612,-0.1983 8.3633,1.5493 5.0719,3.1631 16.3239,15.0122 26.012,27.3924 9.54792,12.201 19.27422,22.1609 26.48772,27.1239 4.2443,2.9202 15.9646,6.3565 25.4192,7.4528 0.4265,0.049 1.5489,-1.0906 2.4943,-2.5334 z M 502.78393,2819.6406 c -6.75444,-11.5256 -11.10348,-50.8678 -13.5846,-122.8886 -1.50254,-43.615 0.0571,-74.0624 3.73114,-72.8377 4.50212,1.5007 10.50477,38.6382 15.8112,97.8216 1.62588,18.1336 1.75288,93.7655 0.16556,98.5971 -1.52384,4.6385 -3.1039,4.4598 -6.1233,-0.6924 z m -80.86325,-412.6665 c -3.92026,-2.1939 -6.36745,-13.6158 -10.9494,-51.1049 -9.8494,-80.587 -15.54047,-179.543 -19.26237,-334.9334 -2.41657,-100.8923 -4.81307,-167.8331 -6.95001,-194.1333 -1.28591,-15.826 -1.29156,-37.3565 -0.009,-35.1672 2.48087,4.2356 12.37958,49.8492 18.16403,83.7005 7.76937,45.4673 11.40734,97.6021 16.00289,229.3334 3.36633,96.4957 6.18207,157.9482 8.12539,177.3333 0.52811,5.268 1.0444,6.6667 2.46092,6.6667 2.55013,0 8.21416,-6.3411 16.67352,-18.6667 7.97854,-11.625 17.02122,-21.8667 19.30675,-21.8667 1.7943,0 1.91722,6.1348 0.28214,14.0809 -0.63973,3.1089 -4.69807,17.8925 -9.01854,32.8525 -10.04886,34.795 -14.68956,53.7105 -18.66463,76.0769 -4.16458,23.4327 -7.55957,33.1433 -12.51457,35.7951 -1.16191,0.6218 -2.5718,0.6346 -3.64688,0.033 z M 1805.5882,2223.6128 c -6.3503,-1.7897 -9.507,-4.2624 -10.5937,-8.2984 -3.9289,-14.5909 -5.1131,-102.772 -3.3837,-251.9786 2.0044,-172.9443 3.7287,-243.5269 8.2471,-337.6 3.0674,-63.8636 3.0335,-102.7375 -0.1225,-140.8 -2.3252,-28.0425 -3.3342,-81.3798 -1.6884,-89.2513 1.4931,-7.1407 3.5951,-9.6154 5.3624,-6.3133 1.5455,2.8878 3.8837,20.3674 5.3639,40.098 4.2399,56.5176 8.4013,88.0125 19.2378,145.6 l 6.5233,34.6666 0.9396,54.4 c 1.2575,72.8174 1.2499,158.5978 -0.02,226.1334 -2.0186,107.3316 -6.0837,161.4662 -16.7408,222.9333 -2.8445,16.4066 -3.3482,29.0674 -2.5674,64.5333 0.1615,7.3334 -0.2417,17.4134 -0.8959,22.4 -1.2185,9.2881 -4.7963,23.0144 -6.2021,23.7944 -0.4322,0.2398 -1.9888,0.097 -3.4593,-0.3174 z m 94.3146,-18.1436 c 0.3623,-5.5734 1.3624,-26.6934 2.2225,-46.9334 0.8601,-20.24 1.8221,-42.56 2.1377,-49.6 1.0832,-24.1574 4.4687,-133.5965 8.0183,-259.2 3.7087,-131.2329 7.8733,-227.7114 12.2938,-284.8 6.1591,-79.5412 6.9555,-98.8054 7.6402,-184.8 0.3281,-41.2133 1.0128,-74.9333 1.5215,-74.9333 0.5087,0 0.9251,0.36 0.9254,0.8 8e-4,1.6043 12.7178,59.8954 16.3564,74.9732 2.0582,8.5287 4.2386,20.0487 4.8453,25.6 4.6347,42.4018 0.6599,151.8033 -9.474,260.7601 -6.6293,71.277 -10.3682,143.9343 -13.3109,258.6667 -4.6432,181.0378 -6.7756,226.9258 -11.8391,254.7707 -3.0265,16.6426 -5.098,20.1606 -18.9536,32.1885 l -3.0421,2.6408 z m -165.241,-40.7568 c -7.2706,-2.5484 -7.451,-3.0991 -9.6115,-29.3445 -1.8599,-22.5923 -5.0264,-37.1544 -14.0976,-64.8321 -8.6451,-26.3776 -9.5887,-34.2085 -5.261,-43.6614 1.5166,-3.3127 5.4091,-10.0912 8.6501,-15.0633 12.5728,-19.2883 13.3122,-22.301 14.1236,-57.5419 0.3377,-14.6667 0.072,-59.0667 -0.591,-98.6667 -0.6628,-39.6 -1.4326,-85.68 -1.7108,-102.4 l -0.5059,-30.4 5.2505,39.4667 c 10.9234,82.1076 14.5805,122.8299 17.147,190.9333 1.4799,39.2669 0.7377,194.4445 -0.9712,203.0686 -1.8015,9.0916 -4.7844,11.1185 -12.4222,8.4413 z M 556.61379,2113.4113 c -3.33942,-16.6957 -5.785,-44.2687 -7.72905,-87.1421 -1.66642,-36.7509 -1.68936,-175.5545 -0.0331,-200.5334 1.91828,-28.9311 3.03177,-34.0056 5.44179,-24.8 2.23757,8.547 3.37853,25.8697 4.36026,66.2002 1.75985,72.2964 5.32844,108.3001 16.59704,167.4485 6.21777,32.6368 6.84158,41.0834 3.7186,50.3513 -3.69883,10.9769 -16.19013,32.0771 -19.81253,33.4672 -1.01474,0.3893 -1.75879,-1.0712 -2.54297,-4.9917 z m 72.07671,-77.2799 c -2.09521,-3.3901 -5.10631,-37.0109 -8.19142,-91.4622 -3.89711,-68.7828 -6.5079,-99.6673 -12.75904,-150.9334 -2.32489,-19.0666 -7.84863,-67.0666 -12.27497,-106.6666 -4.42634,-39.6 -12.20616,-104.64 -17.28849,-144.5334 -8.97059,-70.4138 -10.73425,-90.0151 -8.17737,-90.8829 6.03883,-2.0496 28.2928,146.2832 36.6791,244.4829 4.78761,56.0607 11.19384,107.32 26.79506,214.4 10.29802,70.6813 12.13891,90.5129 9.46678,101.9848 -2.37402,10.1921 -12.33865,26.7029 -14.24965,23.6108 z m 49.02435,-85.3289 c -1.81856,-9.1487 -3.23045,-20.4072 -8.12636,-64.8 -12.84757,-116.4933 -22.39515,-193.5703 -27.22021,-219.7472 -7.02607,-38.1178 -14.25363,-122.9485 -27.26273,-319.9861 -3.73263,-56.5349 -2.99782,-87.1893 2.24372,-93.6011 4.01138,-4.9071 4.50439,-1.8735 5.97348,36.756 1.46318,38.4739 2.39256,50.9679 5.73605,77.1117 3.94256,30.8282 6.92792,68.3571 11.20043,140.8 8.29706,140.6818 21.71067,237.8521 47.33931,342.9334 10.94648,44.8822 11.13228,50.5583 2.50086,76.4002 -5.99951,17.9621 -9.68306,27.0664 -10.95091,27.0664 -0.46781,0 -1.11295,-1.32 -1.43364,-2.9333 z m 66.57334,-95.6638 c -1.93641,-5.0932 -7.65229,-36.7066 -18.15215,-100.3961 -12.05922,-73.1483 -17.76468,-105.2572 -26.111,-146.9463 -8.70336,-43.4724 -12.87737,-78.5244 -18.69492,-156.9938 -4.17318,-56.2895 -5.99331,-75.2661 -8.54274,-89.0667 -2.1903,-11.8565 -4.90049,-34.8399 -8.5531,-72.5333 -4.3618,-45.012 -10.33766,-83.7572 -19.33076,-125.3333 -5.44171,-25.1577 -8.73874,-44.2586 -7.80132,-45.196 3.22368,-3.2237 12.33254,29.7395 22.86077,82.7287 8.37593,42.1564 14.32309,78.3104 23.47913,142.7339 20.68174,145.5206 32.63717,214.1971 48.0005,275.7334 5.92972,23.7508 9.07815,38.139 14.47137,66.1333 5.23251,27.1601 12.87677,56.7947 22.82784,88.4969 4.62296,14.7279 9.50975,31.3589 10.85953,36.9578 l 2.45413,10.1799 -2.92767,5.5918 c -5.60285,10.7013 -26.25432,30.5069 -31.80979,30.5069 -1.1825,0 -2.45812,-1.0934 -3.02982,-2.5971 z m -231.81072,-63.2392 c -2.81249,-6.5309 -3.69857,-11.3336 -6.54901,-35.497 -6.60903,-56.0253 -17.27192,-190.5785 -20.83267,-262.8842 -2.05583,-41.746 -1.22644,-57.2403 3.32323,-62.0832 1.29137,-1.3746 3.12947,-2.4993 4.08467,-2.4993 1.82258,0 2.17768,3.7412 12.90562,135.9666 3.2331,39.849 7.37257,100.327 9.63947,140.8334 1.70375,30.4437 1.91466,89.2651 0.32199,89.803 -0.63671,0.2151 -1.93869,-1.4226 -2.8933,-3.6393 z M 242.51218,1642.1447 c -4.04367,-14.2872 -6.91592,-53.9491 -9.68448,-133.7295 -0.8141,-23.4597 -1.35585,-42.7783 -1.20388,-42.9303 0.4172,-0.4172 8.0799,55.4576 10.27425,74.9176 3.13094,27.7659 4.53879,51.7039 4.65469,79.1444 0.0785,18.5779 -0.2447,26.1653 -1.15318,27.0755 -0.97233,0.9741 -1.63544,-0.054 -2.8874,-4.4777 z m -14.51233,-214.7964 c -1.73262,-4.5571 -3.18579,-25.2285 -3.19562,-45.4576 -0.0148,-30.372 2.53322,-53.7549 5.85754,-53.7549 4.65806,0 7.3733,43.3045 4.75192,75.7868 -1.77156,21.9518 -4.58925,30.8549 -7.41384,23.4257 z m 486.57539,-73.8791 c -5.90517,-31.1137 -8.95295,-149.7161 -3.97524,-154.6938 1.45131,-1.4514 7.18777,5.9371 8.90087,11.4641 1.62443,5.241 1.81897,11.6463 1.75038,57.6297 -0.0829,55.5741 -1.94357,91.7333 -4.72038,91.7333 -0.43536,0 -1.31539,-2.76 -1.95563,-6.1333 z M 488.83989,1251.5539 c -7.74202,-11.8158 -17.64964,-146.2148 -16.28198,-220.8686 0.52899,-28.8749 1.21186,-35.85219 3.58633,-36.64369 2.22542,-0.7418 5.70143,9.80369 8.86489,26.89419 8.56765,46.2865 15.80562,142.9062 14.69766,196.1993 -0.63285,30.4405 -1.61514,36.1101 -6.35242,36.6651 -2.03526,0.2385 -3.2981,-0.3899 -4.51448,-2.2463 z M 1937.5062,1231.958 c -1.0988,-1.0987 -0.84,-11.8833 0.302,-12.5891 1.4151,-0.8746 3.2536,2.9356 3.2536,6.7429 0,5.2523 -1.5693,7.8326 -3.5556,5.8462 z M 1491.8017,809.69741 c -1.5731,-0.8542 -3.1083,-2.3949 -3.4117,-3.424 -1.6471,-5.5868 -1.7109,-32.4128 -0.1959,-82.4043 3.4609,-114.2048 3.2384,-282.24233 -0.3898,-294.31107 -1.8,-5.98765 -4.1627,-29.79936 -5.8828,-59.28892 -0.8898,-15.25333 -1.8329,-30.61333 -2.0959,-34.13333 -0.47,-6.29069 -0.3969,-6.16315 4.2838,7.46666 5.4858,15.97467 8.051,29.53798 11.0426,58.38855 8.399,80.9998 13.5687,217.73581 12.5036,330.71571 -0.6901,73.2086 -1.3244,78.6724 -9.1232,78.5864 -2.1289,-0.024 -5.1577,-0.7416 -6.7307,-1.5957 z m -1205.67103,-7.9573 c -3.02742,-5.8544 -3.70874,-28.9009 -4.77745,-161.6043 -1.54012,-191.23914 -1.23563,-348.76643 0.67046,-346.86034 1.44884,1.44885 5.68655,52.84869 8.89813,107.92698 7.55983,129.65008 10.88269,225.53606 11.07091,319.46666 0.1435,71.6163 -0.20728,77.6763 -4.75972,82.2288 -1.224,1.224 -3.51797,2.0379 -5.74384,2.0379 -3.03776,0 -4.00389,-0.5762 -5.35849,-3.1957 z m 60.41878,-85.071 c -2.91924,-7.3118 -4.74059,-21.5915 -7.04062,-55.2 -6.1875,-90.41256 -8.59288,-173.10258 -4.73827,-162.88775 2.35095,6.23009 7.90876,53.52342 11.05699,94.08775 4.14264,53.3772 6.25915,116.7076 4.16191,124.5333 -0.85921,3.2062 -2.01879,3.0264 -3.44001,-0.5333 z m 437.71093,-111.5721 c -2.37931,-5.6945 -5.65582,-23.6031 -6.85989,-37.49455 -3.32597,-38.37201 -5.37009,-169.18828 -3.43447,-219.79304 1.09234,-28.55794 2.16137,-38.1011 3.69549,-32.98945 4.14389,13.80736 11.39147,174.97202 11.3976,253.44915 0.003,33.38369 -0.40003,40.39999 -2.31845,40.39999 -0.54327,0 -1.6594,-1.6074 -2.48028,-3.5721 z m -225.22005,-16.7976 c -6.31386,-1.4921 -9.5006,-4.8987 -10.97431,-11.73115 -7.32409,-33.95641 1.3957,-234.30101 12.24353,-281.30561 3.54699,-15.36939 5.30868,-13.87616 6.84857,5.80493 0.59105,7.55418 1.55359,41.81487 2.13898,76.13487 1.3214,77.47094 3.06997,140.36163 4.38921,157.86667 0.55267,7.33334 1.30169,21.25334 1.6645,30.93334 0.60902,16.24925 0.50473,17.78935 -1.35893,20.06715 -2.37838,2.907 -8.3303,3.7946 -14.95155,2.2298 z m 60.42795,-46.7165 c -2.18294,-0.60743 -2.8301,-1.68863 -3.60752,-6.027 -1.15092,-6.4227 -1.52819,-137.57535 -0.399,-138.70716 1.30279,-1.3058 1.78508,-0.18619 4.45027,10.33116 7.29875,28.80226 16.66935,105.46169 14.85045,121.48921 -1.35343,11.92594 -5.68889,15.58662 -15.2942,12.91379 z m -2.55267,-160.42709 c -1.01078,-0.7391 -2.2853,-3.25097 -2.83227,-5.58193 -1.61308,-6.87423 -2.44827,-27.94569 -1.56317,-39.4381 l 0.8215,-10.66667 1.95429,8 c 4.05599,16.60346 6.29913,30.25061 6.29913,38.32354 0,9.1605 -1.32658,11.81485 -4.67948,9.36316 z m 220.55357,-2.35337 c -1.4717,-6.67491 -1.0456,-82.26654 0.547,-97.0176 1.9892,-18.42529 4.4781,-24.49716 6.8983,-16.82878 1.5573,4.93443 2.0694,52.62372 0.7751,72.17603 -1.3921,21.02809 -3.5984,37.20276 -5.7809,42.3811 l -1.4988,3.55592 z M 1204.6988,274.11978 c -1.0922,-6.61099 -0.7899,-47.20327 0.408,-54.784 1.4977,-9.47816 3.1351,-14.31321 4.4142,-13.03415 1.809,1.809 2.2602,20.47554 0.9446,39.08077 -1.802,25.484 -4.2714,37.78946 -5.7668,28.73738 z"
       id="path1" />
  </g>
</svg>
