<svg xmlns="http://www.w3.org/2000/svg" xmlns:xlink="http://www.w3.org/1999/xlink" version="1.2"   viewBox="0.0000 -0.0000 82.3456 46.22475">
<style type="text/css">
<![CDATA[
tspan { white-space: pre; }
]]>
</style>
<g transform="translate(0.0000, 6.1075)">
<line stroke-linejoin="round" stroke-linecap="round" stroke-width="0.0558" stroke="currentColor" x1="0.0279" y1="0" x2="82.3177" y2="0"/>
</g>
<g transform="translate(0.0000, 5.1075)">
<line stroke-linejoin="round" stroke-linecap="round" stroke-width="0.0558" stroke="currentColor" x1="0.0279" y1="0" x2="82.3177" y2="0"/>
</g>
<g transform="translate(0.0000, 4.1075)">
<line stroke-linejoin="round" stroke-linecap="round" stroke-width="0.0558" stroke="currentColor" x1="0.0279" y1="0" x2="82.3177" y2="0"/>
</g>
<g transform="translate(0.0000, 3.1075)">
<line stroke-linejoin="round" stroke-linecap="round" stroke-width="0.0558" stroke="currentColor" x1="0.0279" y1="0" x2="82.3177" y2="0"/>
</g>
<g transform="translate(0.0000, 2.1075)">
<line stroke-linejoin="round" stroke-linecap="round" stroke-width="0.0558" stroke="currentColor" x1="0.0279" y1="0" x2="82.3177" y2="0"/>
</g>
<g transform="translate(82.1336, 4.1075)">
<rect x="0.0000" y="-2.0000" width="0.2120" height="4.0000" ry="0.0000" fill="currentColor"/>
</g>
<g transform="translate(29.9486, 4.1075)">
<rect x="0.0000" y="-2.0000" width="0.2120" height="4.0000" ry="0.0000" fill="currentColor"/>
</g>
<g transform="translate(45.4279, 4.1075)">
<rect x="0.0000" y="-2.0000" width="0.2120" height="4.0000" ry="0.0000" fill="currentColor"/>
</g>
<g transform="translate(66.6543, 4.1075)">
<rect x="0.0000" y="-2.0000" width="0.2120" height="4.0000" ry="0.0000" fill="currentColor"/>
</g>
<g transform="translate(0.0000, 7.1075)">
<rect x="9.8311" y="-0.0779" width="1.9542" height="0.1558" ry="0.0779" fill="currentColor"/>
</g>
<g transform="translate(69.6764, 5.1075)">
<path transform="scale(0.0040, -0.0040)" d="M312 64c0 23 -18 41 -41 41c-39 0 -201 -110 -228 -142c-7 -8 -10 -17 -10 -27c0 -23 18 -41 41 -41c39 0 201 110 228 142c7 8 10 17 10 27zM259 137c46 0 86 -17 86 -74c0 -26 -15 -112 -73 -151c-29 -20 -89 -49 -186 -49c-46 0 -86 17 -86 74c0 26 16 112 74 151
c29 20 88 49 185 49z" fill="currentColor"/>
</g>
<g transform="translate(63.7441, 2.1546)">
<path transform="scale(0.0040, -0.0040)" d="M0 0c0 -197 207 -335 207 -532c0 -71 -15 -141 -41 -207c-5 -8 -13 -12 -21 -12c-14 0 -27 11 -24 28c26 60 42 125 42 191c0 103 -93 207 -163 282h-18v250h18z" fill="currentColor"/>
</g>
<g transform="translate(63.7079, 4.1075)">
<rect x="-0.0363" y="-2.0000" width="0.0725" height="3.3206" ry="0.0363" fill="currentColor"/>
</g>
<g transform="translate(62.1689, 10.2760)">
<text font-family="Source Sans Pro" font-size="2.4690" text-anchor="start" fill="currentColor">
<tspan>já</tspan>
</text>
</g>
<g transform="translate(62.4413, 5.6075)">
<path transform="scale(0.0040, -0.0040)" d="M215 137c67 0 111 -37 111 -92c0 -90 -111 -182 -215 -182c-67 0 -111 37 -111 92c0 90 111 182 215 182z" fill="currentColor"/>
</g>
<g transform="translate(55.1514, 4.1075)">
<rect x="-0.0363" y="-2.5000" width="0.0725" height="3.3206" ry="0.0363" fill="currentColor"/>
</g>
<g transform="translate(55.6337, 4.6075)">
<path transform="scale(0.0040, -0.0040)" d="M0 0c0 31 25 56 56 56s55 -25 55 -56s-24 -56 -55 -56s-56 25 -56 56z" fill="currentColor"/>
</g>
<g transform="translate(52.7287, 10.2760)">
<text font-family="Source Sans Pro" font-size="2.4690" text-anchor="start" fill="currentColor">
<tspan>pas</tspan>
</text>
</g>
<g transform="translate(53.8849, 5.1075)">
<path transform="scale(0.0040, -0.0040)" d="M215 137c67 0 111 -37 111 -92c0 -90 -111 -182 -215 -182c-67 0 -111 37 -111 92c0 90 111 182 215 182z" fill="currentColor"/>
</g>
<g transform="translate(48.7165, 4.1075)">
<rect x="-0.0363" y="-3.0000" width="0.0725" height="3.3206" ry="0.0363" fill="currentColor"/>
</g>
<g transform="translate(65.6566, 10.2760)">
<rect x="0.0000" y="-0.5651" width="0.6600" height="0.1451" ry="0.0446" fill="currentColor"/>
</g>
<g transform="translate(50.9085, 10.2760)">
<rect x="0.0000" y="-0.5651" width="0.6600" height="0.1451" ry="0.0446" fill="currentColor"/>
</g>
<g transform="translate(27.8017, 10.2760)">
<rect x="0.0000" y="-0.5651" width="0.6600" height="0.1451" ry="0.0446" fill="currentColor"/>
</g>
<g transform="translate(13.5896, 10.2760)">
<rect x="0.0000" y="-0.5651" width="0.6600" height="0.1451" ry="0.0446" fill="currentColor"/>
</g>
<g transform="translate(71.0207, 4.1075)">
<rect x="-0.0363" y="-2.5000" width="0.0725" height="3.2470" ry="0.0363" fill="currentColor"/>
</g>
<g transform="translate(71.5029, 4.6075)">
<path transform="scale(0.0040, -0.0040)" d="M0 0c0 31 25 56 56 56s55 -25 55 -56s-24 -56 -55 -56s-56 25 -56 56z" fill="currentColor"/>
</g>
<g transform="translate(67.9565, 10.2760)">
<text font-family="Source Sans Pro" font-size="2.4690" text-anchor="start" fill="currentColor">
<tspan>chac</tspan>
</text>
</g>
<g transform="translate(24.5431, 4.1075)">
<rect x="-0.0363" y="-2.0000" width="0.0725" height="3.3206" ry="0.0363" fill="currentColor"/>
</g>
<g transform="translate(46.4545, 10.2760)">
<text font-family="Source Sans Pro" font-size="2.4690" text-anchor="start" fill="currentColor">
<tspan>kar</tspan>
</text>
</g>
<g transform="translate(23.2765, 5.6075)">
<path transform="scale(0.0040, -0.0040)" d="M215 137c67 0 111 -37 111 -92c0 -90 -111 -182 -215 -182c-67 0 -111 37 -111 92c0 90 111 182 215 182z" fill="currentColor"/>
</g>
<g transform="translate(18.1082, 4.1075)">
<rect x="-0.0363" y="-1.5000" width="0.0725" height="3.3206" ry="0.0363" fill="currentColor"/>
</g>
<g transform="translate(15.6855, 10.2760)">
<text font-family="Source Sans Pro" font-size="2.4690" text-anchor="start" fill="currentColor">
<tspan>déš</tspan>
</text>
</g>
<g transform="translate(16.8416, 6.1075)">
<path transform="scale(0.0040, -0.0040)" d="M215 137c67 0 111 -37 111 -92c0 -90 -111 -182 -215 -182c-67 0 -111 37 -111 92c0 90 111 182 215 182z" fill="currentColor"/>
</g>
<g transform="translate(22.8434, 10.2760)">
<text font-family="Source Sans Pro" font-size="2.4690" text-anchor="start" fill="currentColor">
<tspan>ur</tspan>
</text>
</g>
<g transform="translate(11.4233, 4.1075)">
<rect x="-0.0363" y="-0.0000" width="0.0725" height="3.3206" ry="0.0363" fill="currentColor"/>
</g>
<g transform="translate(9.4625, 10.2760)">
<text font-family="Source Sans Pro" font-size="2.4690" text-anchor="start" fill="currentColor">
<tspan>Ka</tspan>
</text>
</g>
<g transform="translate(6.6906, 4.1075)">
<path transform="scale(0.0040, -0.0040)" d="M264 265c0 -34 72 -24 72 -125c0 -92 -80 -140 -180 -140c-79 0 -156 43 -156 115c0 36 29 65 65 65s65 -29 65 -65c0 -25 -40 -29 -40 -54c0 -28 34 -36 66 -36c48 0 61 59 61 115v22c0 50 -3 88 -49 88h-78c-10 0 -15 7 -15 15s5 15 15 15h78c46 0 49 40 49 92v14
c0 53 -18 89 -66 89c-29 0 -59 -8 -59 -33c0 -22 36 -25 36 -47c0 -31 -26 -57 -57 -57s-57 26 -57 57c0 65 66 105 137 105c92 0 170 -33 170 -114c0 -119 -57 -80 -57 -121z" fill="currentColor"/>
</g>
<g transform="translate(6.5500, 6.1194)">
<path transform="scale(0.0040, -0.0040)" d="M194 120h120c0 -49 29 -95 75 -95c8 0 12 -7 12 -13s-4 -12 -12 -12c-45 0 -90 13 -135 13s-90 -13 -135 -13c-8 0 -12 6 -12 12s4 13 12 13c46 0 75 46 75 95zM224 487c37 0 70 14 78 14c9 0 14 -7 14 -13c0 -2 0 -3 -2 -5l-283 -327h163v122c0 35 36 28 70 74
c23 30 22 57 36 57c6 0 14 -6 14 -15v-238h74c10 0 16 -8 16 -16s-6 -15 -16 -15h-74v-5h-120v5h-163c-24 0 -33 15 -33 24c0 12 136 140 136 334c0 11 8 20 17 17c24 -7 48 -13 73 -13z" fill="currentColor"/>
</g>
<g transform="translate(4.3000, 2.1075)">
<path transform="scale(0.0040, -0.0040)" d="M0 117c0 9 6 18 15 21l43 16v157c0 11 8 19 19 19s20 -8 20 -19v-142l81 30v156c0 11 9 20 20 20s19 -9 19 -20v-142l28 11c3 1 5 1 8 1c12 0 22 -10 22 -23v-57c0 -9 -6 -18 -15 -21l-43 -16v-157l28 10c3 1 5 1 8 1c12 0 22 -9 22 -22v-57c0 -9 -6 -18 -15 -21l-43 -16
v-157c0 -11 -8 -19 -19 -19s-20 8 -20 19v142l-81 -30v-156c0 -11 -9 -20 -20 -20s-19 9 -19 20v142l-28 -11c-3 -1 -5 -1 -8 -1c-12 0 -22 10 -22 23v57c0 9 6 18 15 21l43 16v157l-28 -10c-3 -1 -5 -1 -8 -1c-12 0 -22 9 -22 22v57zM178 94l-81 -30v-158l81 30v158z" fill="currentColor"/>
</g>
<g transform="translate(0.8000, 5.1075)">
<path transform="scale(0.0040, -0.0040)" d="M646 2c0 -113 -74 -213 -180 -247c3 -34 5 -68 5 -102c0 -20 -1 -40 -2 -60c-7 -121 -91 -228 -209 -228c-108 0 -196 87 -196 196c0 58 53 104 112 104c54 0 95 -48 95 -104c0 -52 -43 -95 -95 -95c-10 0 -20 2 -29 6c26 -38 68 -63 116 -63h3c93 2 153 92 159 190
c1 19 2 37 2 56c0 30 -2 60 -4 90c-5 -1 -43 -8 -88 -8c-194 0 -333 180 -333 375c0 177 130 307 246 442c-31 98 -53 170 -53 347c0 115 55 223 148 290c7 5 16 4 22 -1c68 -80 134 -243 134 -357c0 -143 -85 -255 -178 -364c21 -68 40 -137 57 -206c1 0 5 1 11 1
c156 0 257 -129 257 -262zM462 -202c66 24 111 88 111 162c0 89 -65 178 -170 190c28 -135 50 -272 59 -352zM75 26c0 -145 141 -245 263 -245c1 0 46 0 81 6c-7 65 -27 206 -61 363c-79 -8 -124 -61 -124 -119c0 -43 25 -89 80 -121c5 -5 7 -11 7 -16
c0 -12 -10 -23 -22 -23c-16 0 -127 63 -127 188c0 89 58 175 161 198c-14 58 -29 116 -46 173c-106 -122 -212 -244 -212 -404zM406 1042c-99 -47 -162 -148 -162 -257c0 -49 13 -111 38 -191c79 97 144 199 144 324c0 33 0 63 -20 124z" fill="currentColor"/>
</g>
<g transform="translate(10.1568, 7.6075)">
<path transform="scale(0.0040, -0.0040)" d="M215 137c67 0 111 -37 111 -92c0 -90 -111 -182 -215 -182c-67 0 -111 37 -111 92c0 90 111 182 215 182z" fill="currentColor"/>
</g>
<g transform="translate(47.4500, 4.6075)">
<path transform="scale(0.0040, -0.0040)" d="M215 137c67 0 111 -37 111 -92c0 -90 -111 -182 -215 -182c-67 0 -111 37 -111 92c0 90 111 182 215 182z" fill="currentColor"/>
</g>
<g transform="translate(34.3150, 4.1075)">
<rect x="-0.0363" y="-2.5000" width="0.0725" height="3.2470" ry="0.0363" fill="currentColor"/>
</g>
<g transform="translate(32.9707, 5.1075)">
<path transform="scale(0.0040, -0.0040)" d="M312 64c0 23 -18 41 -41 41c-39 0 -201 -110 -228 -142c-7 -8 -10 -17 -10 -27c0 -23 18 -41 41 -41c39 0 201 110 228 142c7 8 10 17 10 27zM259 137c46 0 86 -17 86 -74c0 -26 -15 -112 -73 -151c-29 -20 -89 -49 -186 -49c-46 0 -86 17 -86 74c0 26 16 112 74 151
c29 20 88 49 185 49z" fill="currentColor"/>
</g>
<g transform="translate(31.2509, 10.2760)">
<text font-family="Source Sans Pro" font-size="2.4690" text-anchor="start" fill="currentColor">
<tspan>chac</tspan>
</text>
</g>
<g transform="translate(34.7972, 4.6075)">
<path transform="scale(0.0040, -0.0040)" d="M0 0c0 31 25 56 56 56s55 -25 55 -56s-24 -56 -55 -56s-56 25 -56 56z" fill="currentColor"/>
</g>
<g transform="translate(0.0000, 18.1075)">
<line stroke-linejoin="round" stroke-linecap="round" stroke-width="0.0558" stroke="currentColor" x1="0.0279" y1="0" x2="82.3177" y2="0"/>
</g>
<g transform="translate(0.0000, 17.1075)">
<line stroke-linejoin="round" stroke-linecap="round" stroke-width="0.0558" stroke="currentColor" x1="0.0279" y1="0" x2="82.3177" y2="0"/>
</g>
<g transform="translate(0.0000, 16.1075)">
<line stroke-linejoin="round" stroke-linecap="round" stroke-width="0.0558" stroke="currentColor" x1="0.0279" y1="0" x2="82.3177" y2="0"/>
</g>
<g transform="translate(0.0000, 15.1075)">
<line stroke-linejoin="round" stroke-linecap="round" stroke-width="0.0558" stroke="currentColor" x1="0.0279" y1="0" x2="82.3177" y2="0"/>
</g>
<g transform="translate(0.0000, 14.1075)">
<line stroke-linejoin="round" stroke-linecap="round" stroke-width="0.0558" stroke="currentColor" x1="0.0279" y1="0" x2="82.3177" y2="0"/>
</g>
<g transform="translate(66.1334, 16.1075)">
<rect x="0.0000" y="-2.0000" width="0.2120" height="4.0000" ry="0.0000" fill="currentColor"/>
</g>
<g transform="translate(28.3020, 16.1075)">
<rect x="0.0000" y="-2.0000" width="0.2120" height="4.0000" ry="0.0000" fill="currentColor"/>
</g>
<g transform="translate(82.1336, 16.1075)">
<rect x="0.0000" y="-2.0000" width="0.2120" height="4.0000" ry="0.0000" fill="currentColor"/>
</g>
<g transform="translate(44.2665, 16.1075)">
<rect x="0.0000" y="-2.0000" width="0.2120" height="4.0000" ry="0.0000" fill="currentColor"/>
</g>
<g transform="translate(0.0000, 19.1075)">
<rect x="7.5743" y="-0.0779" width="1.9542" height="0.1558" ry="0.0779" fill="currentColor"/>
</g>
<g transform="translate(54.7295, 16.6075)">
<path transform="scale(0.0040, -0.0040)" d="M0 0c0 31 25 56 56 56s55 -25 55 -56s-24 -56 -55 -56s-56 25 -56 56z" fill="currentColor"/>
</g>
<g transform="translate(45.3068, 21.8859)">
<text font-family="Source Sans Pro" font-size="2.4690" text-anchor="start" fill="currentColor">
<tspan>mo</tspan>
</text>
</g>
<g transform="translate(69.2094, 18.1075)">
<path transform="scale(0.0040, -0.0040)" d="M312 64c0 23 -18 41 -41 41c-39 0 -201 -110 -228 -142c-7 -8 -10 -17 -10 -27c0 -23 18 -41 41 -41c39 0 201 110 228 142c7 8 10 17 10 27zM259 137c46 0 86 -17 86 -74c0 -26 -15 -112 -73 -151c-29 -20 -89 -49 -186 -49c-46 0 -86 17 -86 74c0 26 16 112 74 151
c29 20 88 49 185 49z" fill="currentColor"/>
</g>
<g transform="translate(63.1275, 14.1546)">
<path transform="scale(0.0040, -0.0040)" d="M0 0c0 -197 207 -335 207 -532c0 -71 -15 -141 -41 -207c-5 -8 -13 -12 -21 -12c-14 0 -27 11 -24 28c26 60 42 125 42 191c0 103 -93 207 -163 282h-18v250h18z" fill="currentColor"/>
</g>
<g transform="translate(63.0912, 16.1075)">
<rect x="-0.0363" y="-2.0000" width="0.0725" height="3.3206" ry="0.0363" fill="currentColor"/>
</g>
<g transform="translate(60.8292, 21.8859)">
<text font-family="Source Sans Pro" font-size="2.4690" text-anchor="start" fill="currentColor">
<tspan>má</tspan>
</text>
</g>
<g transform="translate(61.8247, 17.6075)">
<path transform="scale(0.0040, -0.0040)" d="M215 137c67 0 111 -37 111 -92c0 -90 -111 -182 -215 -182c-67 0 -111 37 -111 92c0 90 111 182 215 182z" fill="currentColor"/>
</g>
<g transform="translate(54.2473, 16.1075)">
<rect x="-0.0363" y="-2.5000" width="0.0725" height="3.3206" ry="0.0363" fill="currentColor"/>
</g>
<g transform="translate(66.0989, 21.8859)">
<rect x="0.0000" y="-0.5651" width="0.6600" height="0.1451" ry="0.0446" fill="currentColor"/>
</g>
<g transform="translate(52.7685, 21.8859)">
<text font-family="Source Sans Pro" font-size="2.4690" text-anchor="start" fill="currentColor">
<tspan>cí</tspan>
</text>
</g>
<g transform="translate(52.9808, 17.1075)">
<path transform="scale(0.0040, -0.0040)" d="M215 137c67 0 111 -37 111 -92c0 -90 -111 -182 -215 -182c-67 0 -111 37 -111 92c0 90 111 182 215 182z" fill="currentColor"/>
</g>
<g transform="translate(47.6090, 16.1075)">
<rect x="-0.0363" y="-3.0000" width="0.0725" height="3.3206" ry="0.0363" fill="currentColor"/>
</g>
<g transform="translate(11.6856, 21.8859)">
<rect x="0.0000" y="-0.5651" width="0.6600" height="0.1451" ry="0.0446" fill="currentColor"/>
</g>
<g transform="translate(27.2854, 21.8859)">
<rect x="0.0000" y="-0.5651" width="0.6600" height="0.1451" ry="0.0446" fill="currentColor"/>
</g>
<g transform="translate(50.3947, 21.8859)">
<rect x="0.0000" y="-0.5651" width="0.6600" height="0.1451" ry="0.0446" fill="currentColor"/>
</g>
<g transform="translate(70.5537, 16.1075)">
<rect x="-0.0363" y="-1.5000" width="0.0725" height="3.2470" ry="0.0363" fill="currentColor"/>
</g>
<g transform="translate(71.0360, 17.6075)">
<path transform="scale(0.0040, -0.0040)" d="M0 0c0 31 25 56 56 56s55 -25 55 -56s-24 -56 -55 -56s-56 25 -56 56z" fill="currentColor"/>
</g>
<g transform="translate(68.7348, 21.8859)">
<text font-family="Source Sans Pro" font-size="2.4690" text-anchor="start" fill="currentColor">
<tspan>cá</tspan>
</text>
</g>
<g transform="translate(14.7883, 18.1075)">
<path transform="scale(0.0040, -0.0040)" d="M215 137c67 0 111 -37 111 -92c0 -90 -111 -182 -215 -182c-67 0 -111 37 -111 92c0 90 111 182 215 182z" fill="currentColor"/>
</g>
<g transform="translate(7.9000, 19.6075)">
<path transform="scale(0.0040, -0.0040)" d="M215 137c67 0 111 -37 111 -92c0 -90 -111 -182 -215 -182c-67 0 -111 37 -111 92c0 90 111 182 215 182z" fill="currentColor"/>
</g>
<g transform="translate(6.9045, 21.8859)">
<text font-family="Source Sans Pro" font-size="2.4690" text-anchor="start" fill="currentColor">
<tspan>ma</tspan>
</text>
</g>
<g transform="translate(9.1665, 16.1075)">
<rect x="-0.0363" y="-0.0000" width="0.0725" height="3.3206" ry="0.0363" fill="currentColor"/>
</g>
<g transform="translate(13.8329, 21.8859)">
<text font-family="Source Sans Pro" font-size="2.4690" text-anchor="start" fill="currentColor">
<tspan>gíd</tspan>
</text>
</g>
<g transform="translate(16.0548, 16.1075)">
<rect x="-0.0363" y="-1.5000" width="0.0725" height="3.3206" ry="0.0363" fill="currentColor"/>
</g>
<g transform="translate(21.4266, 17.6075)">
<path transform="scale(0.0040, -0.0040)" d="M215 137c67 0 111 -37 111 -92c0 -90 -111 -182 -215 -182c-67 0 -111 37 -111 92c0 90 111 182 215 182z" fill="currentColor"/>
</g>
<g transform="translate(19.8285, 21.8859)">
<text font-family="Source Sans Pro" font-size="2.4690" text-anchor="start" fill="currentColor">
<tspan>rach</tspan>
</text>
</g>
<g transform="translate(4.3000, 14.1075)">
<path transform="scale(0.0040, -0.0040)" d="M0 117c0 9 6 18 15 21l43 16v157c0 11 8 19 19 19s20 -8 20 -19v-142l81 30v156c0 11 9 20 20 20s19 -9 19 -20v-142l28 11c3 1 5 1 8 1c12 0 22 -10 22 -23v-57c0 -9 -6 -18 -15 -21l-43 -16v-157l28 10c3 1 5 1 8 1c12 0 22 -9 22 -22v-57c0 -9 -6 -18 -15 -21l-43 -16
v-157c0 -11 -8 -19 -19 -19s-20 8 -20 19v142l-81 -30v-156c0 -11 -9 -20 -20 -20s-19 9 -19 20v142l-28 -11c-3 -1 -5 -1 -8 -1c-12 0 -22 10 -22 23v57c0 9 6 18 15 21l43 16v157l-28 -10c-3 -1 -5 -1 -8 -1c-12 0 -22 9 -22 22v57zM178 94l-81 -30v-158l81 30v158z" fill="currentColor"/>
</g>
<g transform="translate(0.8000, 17.1075)">
<path transform="scale(0.0040, -0.0040)" d="M646 2c0 -113 -74 -213 -180 -247c3 -34 5 -68 5 -102c0 -20 -1 -40 -2 -60c-7 -121 -91 -228 -209 -228c-108 0 -196 87 -196 196c0 58 53 104 112 104c54 0 95 -48 95 -104c0 -52 -43 -95 -95 -95c-10 0 -20 2 -29 6c26 -38 68 -63 116 -63h3c93 2 153 92 159 190
c1 19 2 37 2 56c0 30 -2 60 -4 90c-5 -1 -43 -8 -88 -8c-194 0 -333 180 -333 375c0 177 130 307 246 442c-31 98 -53 170 -53 347c0 115 55 223 148 290c7 5 16 4 22 -1c68 -80 134 -243 134 -357c0 -143 -85 -255 -178 -364c21 -68 40 -137 57 -206c1 0 5 1 11 1
c156 0 257 -129 257 -262zM462 -202c66 24 111 88 111 162c0 89 -65 178 -170 190c28 -135 50 -272 59 -352zM75 26c0 -145 141 -245 263 -245c1 0 46 0 81 6c-7 65 -27 206 -61 363c-79 -8 -124 -61 -124 -119c0 -43 25 -89 80 -121c5 -5 7 -11 7 -16
c0 -12 -10 -23 -22 -23c-16 0 -127 63 -127 188c0 89 58 175 161 198c-14 58 -29 116 -46 173c-106 -122 -212 -244 -212 -404zM406 1042c-99 -47 -162 -148 -162 -257c0 -49 13 -111 38 -191c79 97 144 199 144 324c0 33 0 63 -20 124z" fill="currentColor"/>
</g>
<g transform="translate(30.9034, 21.8859)">
<text font-family="Source Sans Pro" font-size="2.4690" text-anchor="start" fill="currentColor">
<tspan>cá</tspan>
</text>
</g>
<g transform="translate(32.7223, 16.1075)">
<rect x="-0.0363" y="-2.5000" width="0.0725" height="3.2470" ry="0.0363" fill="currentColor"/>
</g>
<g transform="translate(22.6931, 16.1075)">
<rect x="-0.0363" y="-2.0000" width="0.0725" height="3.3206" ry="0.0363" fill="currentColor"/>
</g>
<g transform="translate(33.2046, 16.6075)">
<path transform="scale(0.0040, -0.0040)" d="M0 0c0 31 25 56 56 56s55 -25 55 -56s-24 -56 -55 -56s-56 25 -56 56z" fill="currentColor"/>
</g>
<g transform="translate(31.3780, 17.1075)">
<path transform="scale(0.0040, -0.0040)" d="M312 64c0 23 -18 41 -41 41c-39 0 -201 -110 -228 -142c-7 -8 -10 -17 -10 -27c0 -23 18 -41 41 -41c39 0 201 110 228 142c7 8 10 17 10 27zM259 137c46 0 86 -17 86 -74c0 -26 -15 -112 -73 -151c-29 -20 -89 -49 -186 -49c-46 0 -86 17 -86 74c0 26 16 112 74 151
c29 20 88 49 185 49z" fill="currentColor"/>
</g>
<g transform="translate(46.3425, 16.6075)">
<path transform="scale(0.0040, -0.0040)" d="M215 137c67 0 111 -37 111 -92c0 -90 -111 -182 -215 -182c-67 0 -111 37 -111 92c0 90 111 182 215 182z" fill="currentColor"/>
</g>
<g transform="translate(0.0000, 30.1075)">
<line stroke-linejoin="round" stroke-linecap="round" stroke-width="0.0558" stroke="currentColor" x1="0.0279" y1="0" x2="82.3177" y2="0"/>
</g>
<g transform="translate(0.0000, 29.1075)">
<line stroke-linejoin="round" stroke-linecap="round" stroke-width="0.0558" stroke="currentColor" x1="0.0279" y1="0" x2="82.3177" y2="0"/>
</g>
<g transform="translate(0.0000, 28.1075)">
<line stroke-linejoin="round" stroke-linecap="round" stroke-width="0.0558" stroke="currentColor" x1="0.0279" y1="0" x2="82.3177" y2="0"/>
</g>
<g transform="translate(0.0000, 27.1075)">
<line stroke-linejoin="round" stroke-linecap="round" stroke-width="0.0558" stroke="currentColor" x1="0.0279" y1="0" x2="82.3177" y2="0"/>
</g>
<g transform="translate(0.0000, 26.1075)">
<line stroke-linejoin="round" stroke-linecap="round" stroke-width="0.0558" stroke="currentColor" x1="0.0279" y1="0" x2="82.3177" y2="0"/>
</g>
<g transform="translate(44.0935, 28.1075)">
<rect x="0.0000" y="-2.0000" width="0.2120" height="4.0000" ry="0.0000" fill="currentColor"/>
</g>
<g transform="translate(28.1650, 28.1075)">
<rect x="0.0000" y="-2.0000" width="0.2120" height="4.0000" ry="0.0000" fill="currentColor"/>
</g>
<g transform="translate(66.2051, 28.1075)">
<rect x="0.0000" y="-2.0000" width="0.2120" height="4.0000" ry="0.0000" fill="currentColor"/>
</g>
<g transform="translate(82.1336, 28.1075)">
<rect x="0.0000" y="-2.0000" width="0.2120" height="4.0000" ry="0.0000" fill="currentColor"/>
</g>
<g transform="translate(61.8597, 28.6075)">
<path transform="scale(0.0040, -0.0040)" d="M215 137c67 0 111 -37 111 -92c0 -90 -111 -182 -215 -182c-67 0 -111 37 -111 92c0 90 111 182 215 182z" fill="currentColor"/>
</g>
<g transform="translate(51.1184, 33.6075)">
<text font-family="Source Sans Pro" font-size="2.4690" text-anchor="start" fill="currentColor">
<tspan>chan</tspan>
</text>
</g>
<g transform="translate(54.7464, 27.6075)">
<path transform="scale(0.0040, -0.0040)" d="M0 0c0 31 25 56 56 56s55 -25 55 -56s-24 -56 -55 -56s-56 25 -56 56z" fill="currentColor"/>
</g>
<g transform="translate(53.0339, 28.1075)">
<rect x="-0.0363" y="-0.3206" width="0.0725" height="3.3206" ry="0.0363" fill="currentColor"/>
</g>
<g transform="translate(52.9976, 27.6075)">
<path transform="scale(0.0040, -0.0040)" d="M215 137c67 0 111 -37 111 -92c0 -90 -111 -182 -215 -182c-67 0 -111 37 -111 92c0 90 111 182 215 182z" fill="currentColor"/>
</g>
<g transform="translate(61.8483, 33.6075)">
<text font-family="Source Sans Pro" font-size="2.4690" text-anchor="start" fill="currentColor">
<tspan>o</tspan>
</text>
</g>
<g transform="translate(63.1263, 28.1075)">
<rect x="-0.0363" y="-3.0000" width="0.0725" height="3.3206" ry="0.0363" fill="currentColor"/>
</g>
<g transform="translate(63.1625, 25.1546)">
<path transform="scale(0.0040, -0.0040)" d="M0 0c0 -197 207 -335 207 -532c0 -71 -15 -141 -41 -207c-5 -8 -13 -12 -21 -12c-14 0 -27 11 -24 28c26 60 42 125 42 191c0 103 -93 207 -163 282h-18v250h18z" fill="currentColor"/>
</g>
<g transform="translate(69.4015, 28.1075)">
<path transform="scale(0.0040, -0.0040)" d="M312 64c0 23 -18 41 -41 41c-39 0 -201 -110 -228 -142c-7 -8 -10 -17 -10 -27c0 -23 18 -41 41 -41c39 0 201 110 228 142c7 8 10 17 10 27zM259 137c46 0 86 -17 86 -74c0 -26 -15 -112 -73 -151c-29 -20 -89 -49 -186 -49c-46 0 -86 17 -86 74c0 26 16 112 74 151
c29 20 88 49 185 49z" fill="currentColor"/>
</g>
<g transform="translate(47.4566, 28.1075)">
<rect x="-0.0363" y="-3.0000" width="0.0725" height="3.3206" ry="0.0363" fill="currentColor"/>
</g>
<g transform="translate(45.3352, 33.6075)">
<text font-family="Source Sans Pro" font-size="2.4690" text-anchor="start" fill="currentColor">
<tspan>šul</tspan>
</text>
</g>
<g transform="translate(65.1781, 33.6075)">
<rect x="0.0000" y="-0.5651" width="0.6600" height="0.1451" ry="0.0446" fill="currentColor"/>
</g>
<g transform="translate(27.4293, 33.6075)">
<rect x="0.0000" y="-0.5651" width="0.6600" height="0.1451" ry="0.0446" fill="currentColor"/>
</g>
<g transform="translate(11.7747, 33.6075)">
<rect x="0.0000" y="-0.5651" width="0.6600" height="0.1451" ry="0.0446" fill="currentColor"/>
</g>
<g transform="translate(49.4031, 33.6075)">
<rect x="0.0000" y="-0.5651" width="0.6600" height="0.1451" ry="0.0446" fill="currentColor"/>
</g>
<g transform="translate(69.4377, 28.1075)">
<rect x="-0.0363" y="0.2530" width="0.0725" height="3.0804" ry="0.0363" fill="currentColor"/>
</g>
<g transform="translate(71.2280, 27.6075)">
<path transform="scale(0.0040, -0.0040)" d="M0 0c0 31 25 56 56 56s55 -25 55 -56s-24 -56 -55 -56s-56 25 -56 56z" fill="currentColor"/>
</g>
<g transform="translate(67.8423, 33.6075)">
<text font-family="Source Sans Pro" font-size="2.4690" text-anchor="start" fill="currentColor">
<tspan>rech</tspan>
</text>
</g>
<g transform="translate(14.0110, 33.6075)">
<text font-family="Source Sans Pro" font-size="2.4690" text-anchor="start" fill="currentColor">
<tspan>ror</tspan>
</text>
</g>
<g transform="translate(7.9000, 30.6075)">
<path transform="scale(0.0040, -0.0040)" d="M215 137c67 0 111 -37 111 -92c0 -90 -111 -182 -215 -182c-67 0 -111 37 -111 92c0 90 111 182 215 182z" fill="currentColor"/>
</g>
<g transform="translate(6.9045, 33.6075)">
<text font-family="Source Sans Pro" font-size="2.4690" text-anchor="start" fill="currentColor">
<tspan>ma</tspan>
</text>
</g>
<g transform="translate(9.1665, 28.1075)">
<rect x="-0.0363" y="-1.0000" width="0.0725" height="3.3206" ry="0.0363" fill="currentColor"/>
</g>
<g transform="translate(14.8660, 29.1075)">
<path transform="scale(0.0040, -0.0040)" d="M215 137c67 0 111 -37 111 -92c0 -90 -111 -182 -215 -182c-67 0 -111 37 -111 92c0 90 111 182 215 182z" fill="currentColor"/>
</g>
<g transform="translate(16.6147, 28.6075)">
<path transform="scale(0.0040, -0.0040)" d="M0 0c0 31 25 56 56 56s55 -25 55 -56s-24 -56 -55 -56s-56 25 -56 56z" fill="currentColor"/>
</g>
<g transform="translate(16.1325, 28.1075)">
<rect x="-0.0363" y="-2.5000" width="0.0725" height="3.3206" ry="0.0363" fill="currentColor"/>
</g>
<g transform="translate(23.8196, 28.6075)">
<path transform="scale(0.0040, -0.0040)" d="M215 137c67 0 111 -37 111 -92c0 -90 -111 -182 -215 -182c-67 0 -111 37 -111 92c0 90 111 182 215 182z" fill="currentColor"/>
</g>
<g transform="translate(0.8000, 29.1075)">
<path transform="scale(0.0040, -0.0040)" d="M646 2c0 -113 -74 -213 -180 -247c3 -34 5 -68 5 -102c0 -20 -1 -40 -2 -60c-7 -121 -91 -228 -209 -228c-108 0 -196 87 -196 196c0 58 53 104 112 104c54 0 95 -48 95 -104c0 -52 -43 -95 -95 -95c-10 0 -20 2 -29 6c26 -38 68 -63 116 -63h3c93 2 153 92 159 190
c1 19 2 37 2 56c0 30 -2 60 -4 90c-5 -1 -43 -8 -88 -8c-194 0 -333 180 -333 375c0 177 130 307 246 442c-31 98 -53 170 -53 347c0 115 55 223 148 290c7 5 16 4 22 -1c68 -80 134 -243 134 -357c0 -143 -85 -255 -178 -364c21 -68 40 -137 57 -206c1 0 5 1 11 1
c156 0 257 -129 257 -262zM462 -202c66 24 111 88 111 162c0 89 -65 178 -170 190c28 -135 50 -272 59 -352zM75 26c0 -145 141 -245 263 -245c1 0 46 0 81 6c-7 65 -27 206 -61 363c-79 -8 -124 -61 -124 -119c0 -43 25 -89 80 -121c5 -5 7 -11 7 -16
c0 -12 -10 -23 -22 -23c-16 0 -127 63 -127 188c0 89 58 175 161 198c-14 58 -29 116 -46 173c-106 -122 -212 -244 -212 -404zM406 1042c-99 -47 -162 -148 -162 -257c0 -49 13 -111 38 -191c79 97 144 199 144 324c0 33 0 63 -20 124z" fill="currentColor"/>
</g>
<g transform="translate(4.3000, 26.1075)">
<path transform="scale(0.0040, -0.0040)" d="M0 117c0 9 6 18 15 21l43 16v157c0 11 8 19 19 19s20 -8 20 -19v-142l81 30v156c0 11 9 20 20 20s19 -9 19 -20v-142l28 11c3 1 5 1 8 1c12 0 22 -10 22 -23v-57c0 -9 -6 -18 -15 -21l-43 -16v-157l28 10c3 1 5 1 8 1c12 0 22 -9 22 -22v-57c0 -9 -6 -18 -15 -21l-43 -16
v-157c0 -11 -8 -19 -19 -19s-20 8 -20 19v142l-81 -30v-156c0 -11 -9 -20 -20 -20s-19 9 -19 20v142l-28 -11c-3 -1 -5 -1 -8 -1c-12 0 -22 10 -22 23v57c0 9 6 18 15 21l43 16v157l-28 -10c-3 -1 -5 -1 -8 -1c-12 0 -22 9 -22 22v57zM178 94l-81 -30v-158l81 30v158z" fill="currentColor"/>
</g>
<g transform="translate(31.3977, 28.1075)">
<rect x="-0.0363" y="0.2530" width="0.0725" height="3.0804" ry="0.0363" fill="currentColor"/>
</g>
<g transform="translate(33.1880, 27.6075)">
<path transform="scale(0.0040, -0.0040)" d="M0 0c0 31 25 56 56 56s55 -25 55 -56s-24 -56 -55 -56s-56 25 -56 56z" fill="currentColor"/>
</g>
<g transform="translate(29.8022, 33.6075)">
<text font-family="Source Sans Pro" font-size="2.4690" text-anchor="start" fill="currentColor">
<tspan>rech</tspan>
</text>
</g>
<g transform="translate(31.3614, 28.1075)">
<path transform="scale(0.0040, -0.0040)" d="M312 64c0 23 -18 41 -41 41c-39 0 -201 -110 -228 -142c-7 -8 -10 -17 -10 -27c0 -23 18 -41 41 -41c39 0 201 110 228 142c7 8 10 17 10 27zM259 137c46 0 86 -17 86 -74c0 -26 -15 -112 -73 -151c-29 -20 -89 -49 -186 -49c-46 0 -86 17 -86 74c0 26 16 112 74 151
c29 20 88 49 185 49z" fill="currentColor"/>
</g>
<g transform="translate(25.1224, 25.1546)">
<path transform="scale(0.0040, -0.0040)" d="M0 0c0 -197 207 -335 207 -532c0 -71 -15 -141 -41 -207c-5 -8 -13 -12 -21 -12c-14 0 -27 11 -24 28c26 60 42 125 42 191c0 103 -93 207 -163 282h-18v250h18z" fill="currentColor"/>
</g>
<g transform="translate(25.0862, 28.1075)">
<rect x="-0.0363" y="-3.0000" width="0.0725" height="3.3206" ry="0.0363" fill="currentColor"/>
</g>
<g transform="translate(23.2258, 33.6075)">
<text font-family="Source Sans Pro" font-size="2.4690" text-anchor="start" fill="currentColor">
<tspan>ko</tspan>
</text>
</g>
<g transform="translate(46.1901, 28.6075)">
<path transform="scale(0.0040, -0.0040)" d="M215 137c67 0 111 -37 111 -92c0 -90 -111 -182 -215 -182c-67 0 -111 37 -111 92c0 90 111 182 215 182z" fill="currentColor"/>
</g>
<g transform="translate(0.0000, 42.1075)">
<line stroke-linejoin="round" stroke-linecap="round" stroke-width="0.0558" stroke="currentColor" x1="0.0279" y1="0" x2="82.3177" y2="0"/>
</g>
<g transform="translate(0.0000, 41.1075)">
<line stroke-linejoin="round" stroke-linecap="round" stroke-width="0.0558" stroke="currentColor" x1="0.0279" y1="0" x2="82.3177" y2="0"/>
</g>
<g transform="translate(0.0000, 40.1075)">
<line stroke-linejoin="round" stroke-linecap="round" stroke-width="0.0558" stroke="currentColor" x1="0.0279" y1="0" x2="82.3177" y2="0"/>
</g>
<g transform="translate(0.0000, 39.1075)">
<line stroke-linejoin="round" stroke-linecap="round" stroke-width="0.0558" stroke="currentColor" x1="0.0279" y1="0" x2="82.3177" y2="0"/>
</g>
<g transform="translate(0.0000, 38.1075)">
<line stroke-linejoin="round" stroke-linecap="round" stroke-width="0.0558" stroke="currentColor" x1="0.0279" y1="0" x2="82.3177" y2="0"/>
</g>
<g transform="translate(43.3646, 40.1075)">
<rect x="0.0000" y="-2.0000" width="0.2120" height="4.0000" ry="0.0000" fill="currentColor"/>
</g>
<g transform="translate(27.4903, 40.1075)">
<rect x="0.0000" y="-2.0000" width="0.2120" height="4.0000" ry="0.0000" fill="currentColor"/>
</g>
<g transform="translate(65.2192, 40.1075)">
<rect x="0.0000" y="-2.0000" width="0.2120" height="4.0000" ry="0.0000" fill="currentColor"/>
</g>
<g transform="translate(81.6760, 40.1075)">
<rect x="0.0000" y="-2.0000" width="0.6696" height="4.0000" ry="0.0000" fill="currentColor"/>
</g>
<g transform="translate(81.1292, 40.1075)">
<rect x="0.0000" y="-2.0000" width="0.2120" height="4.0000" ry="0.0000" fill="currentColor"/>
</g>
<g transform="translate(68.2852, 42.1075)">
<path transform="scale(0.0040, -0.0040)" d="M312 64c0 23 -18 41 -41 41c-39 0 -201 -110 -228 -142c-7 -8 -10 -17 -10 -27c0 -23 18 -41 41 -41c39 0 201 110 228 142c7 8 10 17 10 27zM259 137c46 0 86 -17 86 -74c0 -26 -15 -112 -73 -151c-29 -20 -89 -49 -186 -49c-46 0 -86 17 -86 74c0 26 16 112 74 151
c29 20 88 49 185 49z" fill="currentColor"/>
</g>
<g transform="translate(59.6481, 40.1075)">
<rect x="-0.0363" y="-1.5000" width="0.0725" height="3.3206" ry="0.0363" fill="currentColor"/>
</g>
<g transform="translate(57.6270, 45.6075)">
<text font-family="Source Sans Pro" font-size="2.4690" text-anchor="start" fill="currentColor">
<tspan>nir</tspan>
</text>
</g>
<g transform="translate(58.3815, 42.1075)">
<path transform="scale(0.0040, -0.0040)" d="M215 137c67 0 111 -37 111 -92c0 -90 -111 -182 -215 -182c-67 0 -111 37 -111 92c0 90 111 182 215 182z" fill="currentColor"/>
</g>
<g transform="translate(53.2976, 40.1075)">
<rect x="-0.0363" y="-2.5000" width="0.0725" height="3.3206" ry="0.0363" fill="currentColor"/>
</g>
<g transform="translate(51.4372, 45.6075)">
<text font-family="Source Sans Pro" font-size="2.4690" text-anchor="start" fill="currentColor">
<tspan>lel</tspan>
</text>
</g>
<g transform="translate(52.0311, 41.1075)">
<path transform="scale(0.0040, -0.0040)" d="M215 137c67 0 111 -37 111 -92c0 -90 -111 -182 -215 -182c-67 0 -111 37 -111 92c0 90 111 182 215 182z" fill="currentColor"/>
</g>
<g transform="translate(46.6971, 40.1075)">
<rect x="-0.0363" y="-2.0000" width="0.0725" height="3.3206" ry="0.0363" fill="currentColor"/>
</g>
<g transform="translate(44.7966, 45.6075)">
<text font-family="Source Sans Pro" font-size="2.4690" text-anchor="start" fill="currentColor">
<tspan>ba</tspan>
</text>
</g>
<g transform="translate(63.6441, 45.6075)">
<rect x="0.0000" y="-0.5651" width="0.6600" height="0.1451" ry="0.0446" fill="currentColor"/>
</g>
<g transform="translate(26.7367, 45.6075)">
<rect x="0.0000" y="-0.5651" width="0.6600" height="0.1451" ry="0.0446" fill="currentColor"/>
</g>
<g transform="translate(11.2505, 45.6075)">
<rect x="0.0000" y="-0.5651" width="0.6600" height="0.1451" ry="0.0446" fill="currentColor"/>
</g>
<g transform="translate(49.0723, 45.6075)">
<rect x="0.0000" y="-0.5651" width="0.6600" height="0.1451" ry="0.0446" fill="currentColor"/>
</g>
<g transform="translate(69.6295, 40.1075)">
<rect x="-0.0363" y="-1.5000" width="0.0725" height="3.2470" ry="0.0363" fill="currentColor"/>
</g>
<g transform="translate(70.1117, 41.6075)">
<path transform="scale(0.0040, -0.0040)" d="M0 0c0 31 25 56 56 56s55 -25 55 -56s-24 -56 -55 -56s-56 25 -56 56z" fill="currentColor"/>
</g>
<g transform="translate(67.5093, 45.6075)">
<text font-family="Source Sans Pro" font-size="2.4690" text-anchor="start" fill="currentColor">
<tspan>cá.</tspan>
</text>
</g>
<g transform="translate(13.4447, 45.6075)">
<text font-family="Source Sans Pro" font-size="2.4690" text-anchor="start" fill="currentColor">
<tspan>fun</tspan>
</text>
</g>
<g transform="translate(7.9000, 40.1075)">
<path transform="scale(0.0040, -0.0040)" d="M215 137c67 0 111 -37 111 -92c0 -90 -111 -182 -215 -182c-67 0 -111 37 -111 92c0 90 111 182 215 182z" fill="currentColor"/>
</g>
<g transform="translate(7.3865, 45.6075)">
<text font-family="Source Sans Pro" font-size="2.4690" text-anchor="start" fill="currentColor">
<tspan>ca</tspan>
</text>
</g>
<g transform="translate(7.9363, 40.1075)">
<rect x="-0.0363" y="0.1794" width="0.0725" height="3.1540" ry="0.0363" fill="currentColor"/>
</g>
<g transform="translate(14.5005, 39.6075)">
<path transform="scale(0.0040, -0.0040)" d="M215 137c67 0 111 -37 111 -92c0 -90 -111 -182 -215 -182c-67 0 -111 37 -111 92c0 90 111 182 215 182z" fill="currentColor"/>
</g>
<g transform="translate(16.2493, 39.6075)">
<path transform="scale(0.0040, -0.0040)" d="M0 0c0 31 25 56 56 56s55 -25 55 -56s-24 -56 -55 -56s-56 25 -56 56z" fill="currentColor"/>
</g>
<g transform="translate(14.5368, 40.1075)">
<rect x="-0.0363" y="-0.3206" width="0.0725" height="3.3206" ry="0.0363" fill="currentColor"/>
</g>
<g transform="translate(45.4306, 41.6075)">
<path transform="scale(0.0040, -0.0040)" d="M215 137c67 0 111 -37 111 -92c0 -90 -111 -182 -215 -182c-67 0 -111 37 -111 92c0 90 111 182 215 182z" fill="currentColor"/>
</g>
<g transform="translate(23.1994, 40.6075)">
<path transform="scale(0.0040, -0.0040)" d="M215 137c67 0 111 -37 111 -92c0 -90 -111 -182 -215 -182c-67 0 -111 37 -111 92c0 90 111 182 215 182z" fill="currentColor"/>
</g>
<g transform="translate(4.3000, 38.1075)">
<path transform="scale(0.0040, -0.0040)" d="M0 117c0 9 6 18 15 21l43 16v157c0 11 8 19 19 19s20 -8 20 -19v-142l81 30v156c0 11 9 20 20 20s19 -9 19 -20v-142l28 11c3 1 5 1 8 1c12 0 22 -10 22 -23v-57c0 -9 -6 -18 -15 -21l-43 -16v-157l28 10c3 1 5 1 8 1c12 0 22 -9 22 -22v-57c0 -9 -6 -18 -15 -21l-43 -16
v-157c0 -11 -8 -19 -19 -19s-20 8 -20 19v142l-81 -30v-156c0 -11 -9 -20 -20 -20s-19 9 -19 20v142l-28 -11c-3 -1 -5 -1 -8 -1c-12 0 -22 10 -22 23v57c0 9 6 18 15 21l43 16v157l-28 -10c-3 -1 -5 -1 -8 -1c-12 0 -22 9 -22 22v57zM178 94l-81 -30v-158l81 30v158z" fill="currentColor"/>
</g>
<g transform="translate(0.8000, 41.1075)">
<path transform="scale(0.0040, -0.0040)" d="M646 2c0 -113 -74 -213 -180 -247c3 -34 5 -68 5 -102c0 -20 -1 -40 -2 -60c-7 -121 -91 -228 -209 -228c-108 0 -196 87 -196 196c0 58 53 104 112 104c54 0 95 -48 95 -104c0 -52 -43 -95 -95 -95c-10 0 -20 2 -29 6c26 -38 68 -63 116 -63h3c93 2 153 92 159 190
c1 19 2 37 2 56c0 30 -2 60 -4 90c-5 -1 -43 -8 -88 -8c-194 0 -333 180 -333 375c0 177 130 307 246 442c-31 98 -53 170 -53 347c0 115 55 223 148 290c7 5 16 4 22 -1c68 -80 134 -243 134 -357c0 -143 -85 -255 -178 -364c21 -68 40 -137 57 -206c1 0 5 1 11 1
c156 0 257 -129 257 -262zM462 -202c66 24 111 88 111 162c0 89 -65 178 -170 190c28 -135 50 -272 59 -352zM75 26c0 -145 141 -245 263 -245c1 0 46 0 81 6c-7 65 -27 206 -61 363c-79 -8 -124 -61 -124 -119c0 -43 25 -89 80 -121c5 -5 7 -11 7 -16
c0 -12 -10 -23 -22 -23c-16 0 -127 63 -127 188c0 89 58 175 161 198c-14 58 -29 116 -46 173c-106 -122 -212 -244 -212 -404zM406 1042c-99 -47 -162 -148 -162 -257c0 -49 13 -111 38 -191c79 97 144 199 144 324c0 33 0 63 -20 124z" fill="currentColor"/>
</g>
<g transform="translate(31.9006, 40.1075)">
<rect x="-0.0363" y="-2.5000" width="0.0725" height="3.2470" ry="0.0363" fill="currentColor"/>
</g>
<g transform="translate(32.3828, 40.6075)">
<path transform="scale(0.0040, -0.0040)" d="M0 0c0 31 25 56 56 56s55 -25 55 -56s-24 -56 -55 -56s-56 25 -56 56z" fill="currentColor"/>
</g>
<g transform="translate(22.5654, 45.6075)">
<text font-family="Source Sans Pro" font-size="2.4690" text-anchor="start" fill="currentColor">
<tspan>ba</tspan>
</text>
</g>
<g transform="translate(28.9971, 45.6075)">
<text font-family="Source Sans Pro" font-size="2.4690" text-anchor="start" fill="currentColor">
<tspan>rech</tspan>
</text>
</g>
<g transform="translate(30.5563, 41.1075)">
<path transform="scale(0.0040, -0.0040)" d="M312 64c0 23 -18 41 -41 41c-39 0 -201 -110 -228 -142c-7 -8 -10 -17 -10 -27c0 -23 18 -41 41 -41c39 0 201 110 228 142c7 8 10 17 10 27zM259 137c46 0 86 -17 86 -74c0 -26 -15 -112 -73 -151c-29 -20 -89 -49 -186 -49c-46 0 -86 17 -86 74c0 26 16 112 74 151
c29 20 88 49 185 49z" fill="currentColor"/>
</g>
<g transform="translate(24.5022, 37.1546)">
<path transform="scale(0.0040, -0.0040)" d="M0 0c0 -197 207 -335 207 -532c0 -71 -15 -141 -41 -207c-5 -8 -13 -12 -21 -12c-14 0 -27 11 -24 28c26 60 42 125 42 191c0 103 -93 207 -163 282h-18v250h18z" fill="currentColor"/>
</g>
<g transform="translate(24.4659, 40.1075)">
<rect x="-0.0363" y="-3.0000" width="0.0725" height="3.3206" ry="0.0363" fill="currentColor"/>
</g>
</svg>
