<svg xmlns="http://www.w3.org/2000/svg" xmlns:xlink="http://www.w3.org/1999/xlink" version="1.2"   viewBox="0.0000 -0.0000 82.3456 63.67895">
<style type="text/css">
<![CDATA[
tspan { white-space: pre; }
]]>
</style>
<g transform="translate(0.0000, 6.1075)">
<line stroke-linejoin="round" stroke-linecap="round" stroke-width="0.0558" stroke="currentColor" x1="0.0279" y1="0" x2="82.3177" y2="0"/>
</g>
<g transform="translate(0.0000, 5.1075)">
<line stroke-linejoin="round" stroke-linecap="round" stroke-width="0.0558" stroke="currentColor" x1="0.0279" y1="0" x2="82.3177" y2="0"/>
</g>
<g transform="translate(0.0000, 4.1075)">
<line stroke-linejoin="round" stroke-linecap="round" stroke-width="0.0558" stroke="currentColor" x1="0.0279" y1="0" x2="82.3177" y2="0"/>
</g>
<g transform="translate(0.0000, 3.1075)">
<line stroke-linejoin="round" stroke-linecap="round" stroke-width="0.0558" stroke="currentColor" x1="0.0279" y1="0" x2="82.3177" y2="0"/>
</g>
<g transform="translate(0.0000, 2.1075)">
<line stroke-linejoin="round" stroke-linecap="round" stroke-width="0.0558" stroke="currentColor" x1="0.0279" y1="0" x2="82.3177" y2="0"/>
</g>
<g transform="translate(16.0831, 3.6075)">
<path transform="scale(0.0040, -0.0040)" d="M0 0c0 31 25 56 56 56s55 -25 55 -56s-24 -56 -55 -56s-56 25 -56 56z" fill="currentColor"/>
</g>
<g transform="translate(16.0831, 4.6075)">
<path transform="scale(0.0040, -0.0040)" d="M0 0c0 31 25 56 56 56s55 -25 55 -56s-24 -56 -55 -56s-56 25 -56 56z" fill="currentColor"/>
</g>
<g transform="translate(15.5363, 4.1075)">
<rect x="0.0000" y="-2.0000" width="0.2120" height="4.0000" ry="0.0000" fill="currentColor"/>
</g>
<g transform="translate(14.5319, 4.1075)">
<rect x="0.0000" y="-2.0000" width="0.6696" height="4.0000" ry="0.0000" fill="currentColor"/>
</g>
<g transform="translate(52.1243, 4.1075)">
<rect x="0.0000" y="-2.0000" width="0.2120" height="4.0000" ry="0.0000" fill="currentColor"/>
</g>
<g transform="translate(82.1336, 4.1075)">
<rect x="0.0000" y="-2.0000" width="0.2120" height="4.0000" ry="0.0000" fill="currentColor"/>
</g>
<g transform="translate(73.9488, 4.1075)">
<path transform="scale(0.0040, -0.0040)" d="M70 205c80 0 46 -97 90 -97c15 0 52 45 59 59c6 13 26 13 31 0l-121 -417c-9 -7 -19 -11 -30 -11s-21 4 -30 11l118 326c-33 -12 -68 -22 -103 -22c-47 0 -87 34 -87 79c0 40 33 72 73 72z" fill="currentColor"/>
</g>
<g transform="translate(58.1618, 4.1075)">
<path transform="scale(0.0040, -0.0040)" d="M215 137c67 0 111 -37 111 -92c0 -90 -111 -182 -215 -182c-67 0 -111 37 -111 92c0 90 111 182 215 182z" fill="currentColor"/>
</g>
<g transform="translate(57.3672, 9.7830)">
<text font-family="Source Sans Pro" font-size="2.4690" text-anchor="start" fill="currentColor">
<tspan>šel</tspan>
</text>
</g>
<g transform="translate(57.9496, 12.5830)">
<text font-family="Source Sans Pro" font-size="2.4690" text-anchor="start" fill="currentColor">
<tspan>čí</tspan>
</text>
</g>
<g transform="translate(59.9106, 3.6075)">
<path transform="scale(0.0040, -0.0040)" d="M0 0c0 31 25 56 56 56s55 -25 55 -56s-24 -56 -55 -56s-56 25 -56 56z" fill="currentColor"/>
</g>
<g transform="translate(58.1981, 4.1075)">
<rect x="-0.0363" y="0.1794" width="0.0725" height="3.1540" ry="0.0363" fill="currentColor"/>
</g>
<g transform="translate(66.8562, 5.1075)">
<path transform="scale(0.0040, -0.0040)" d="M215 137c67 0 111 -37 111 -92c0 -90 -111 -182 -215 -182c-67 0 -111 37 -111 92c0 90 111 182 215 182z" fill="currentColor"/>
</g>
<g transform="translate(65.5192, 9.7830)">
<text font-family="Source Sans Pro" font-size="2.4690" text-anchor="start" fill="currentColor">
<tspan>čas,</tspan>
</text>
</g>
<g transform="translate(66.2021, 12.5830)">
<text font-family="Source Sans Pro" font-size="2.4690" text-anchor="start" fill="currentColor">
<tspan>tá,</tspan>
</text>
</g>
<g transform="translate(68.1227, 4.1075)">
<rect x="-0.0363" y="-2.5000" width="0.0725" height="3.3206" ry="0.0363" fill="currentColor"/>
</g>
<g transform="translate(53.8719, 5.1075)">
<path transform="scale(0.0040, -0.0040)" d="M215 137c67 0 111 -37 111 -92c0 -90 -111 -182 -215 -182c-67 0 -111 37 -111 92c0 90 111 182 215 182z" fill="currentColor"/>
</g>
<g transform="translate(47.6766, 6.6075)">
<path transform="scale(0.0040, -0.0040)" d="M215 137c67 0 111 -37 111 -92c0 -90 -111 -182 -215 -182c-67 0 -111 37 -111 92c0 90 111 182 215 182z" fill="currentColor"/>
</g>
<g transform="translate(46.3396, 9.7830)">
<text font-family="Source Sans Pro" font-size="2.4690" text-anchor="start" fill="currentColor">
<tspan>mu:</tspan>
</text>
</g>
<g transform="translate(45.8174, 12.5830)">
<text font-family="Source Sans Pro" font-size="2.4690" text-anchor="start" fill="currentColor">
<tspan>s tím</tspan>
</text>
</g>
<g transform="translate(48.9431, 4.1075)">
<rect x="-0.0363" y="-0.7897" width="0.0725" height="3.1103" ry="0.0363" fill="currentColor"/>
</g>
<g transform="translate(53.0973, 9.7830)">
<text font-family="Source Sans Pro" font-size="2.4690" text-anchor="start" fill="currentColor">
<tspan>Při</tspan>
</text>
</g>
<g transform="translate(53.1776, 12.5830)">
<text font-family="Source Sans Pro" font-size="2.4690" text-anchor="start" fill="currentColor">
<tspan>po</tspan>
</text>
</g>
<g transform="translate(55.1384, 4.1075)">
<rect x="-0.0363" y="-2.5000" width="0.0725" height="3.3206" ry="0.0363" fill="currentColor"/>
</g>
<g transform="translate(55.1747, 1.6546)">
<path transform="scale(0.0040, -0.0040)" d="M0 0c0 -197 207 -335 207 -532c0 -71 -15 -141 -41 -207c-5 -8 -13 -12 -21 -12c-14 0 -27 11 -24 28c26 60 42 125 42 191c0 103 -93 207 -163 282h-18v250h18z" fill="currentColor"/>
</g>
<g transform="translate(19.7217, 12.5830)">
<rect x="0.0000" y="-0.5651" width="0.6600" height="0.1451" ry="0.0446" fill="currentColor"/>
</g>
<g transform="translate(26.6288, 7.1075)">
<polygon stroke-linejoin="round" stroke-linecap="round" stroke-width="0.0941" fill="currentColor" stroke="currentColor" points="4.2232 -0.1929 4.2232 0.1929 0.0471 0.1929 0.0471 -0.1929"/>
</g>
<g transform="translate(29.3101, 9.7830)">
<rect x="0.0000" y="-0.5651" width="0.6600" height="0.1451" ry="0.0446" fill="currentColor"/>
</g>
<g transform="translate(36.5638, 2.1075)">
<polygon stroke-linejoin="round" stroke-linecap="round" stroke-width="0.0941" fill="currentColor" stroke="currentColor" points="4.2232 -0.1929 4.2232 0.1929 0.0471 0.1929 0.0471 -0.1929"/>
</g>
<g transform="translate(37.3922, 9.7830)">
<rect x="0.0000" y="-0.5651" width="0.6600" height="0.1451" ry="0.0446" fill="currentColor"/>
</g>
<g transform="translate(37.9948, 12.5830)">
<rect x="0.0000" y="-0.5651" width="0.6600" height="0.1451" ry="0.0446" fill="currentColor"/>
</g>
<g transform="translate(20.3727, 9.7830)">
<rect x="0.0000" y="-0.5651" width="0.4626" height="0.1451" ry="0.0446" fill="currentColor"/>
</g>
<g transform="translate(45.8874, 9.7830)">
<rect x="0.0000" y="-0.5651" width="0.3823" height="0.1451" ry="0.0446" fill="currentColor"/>
</g>
<g transform="translate(56.3282, 9.7830)">
<rect x="0.0000" y="-0.5651" width="0.6600" height="0.1451" ry="0.0446" fill="currentColor"/>
</g>
<g transform="translate(56.5793, 12.5830)">
<rect x="0.0000" y="-0.5651" width="0.6600" height="0.1451" ry="0.0446" fill="currentColor"/>
</g>
<g transform="translate(44.7092, 3.1075)">
<polygon stroke-linejoin="round" stroke-linecap="round" stroke-width="0.0941" fill="currentColor" stroke="currentColor" points="4.2232 0.0192 4.2232 0.4050 0.0471 0.1929 0.0471 -0.1929"/>
</g>
<g transform="translate(62.6095, 12.5830)">
<rect x="0.0000" y="-0.5651" width="0.6600" height="0.1451" ry="0.0446" fill="currentColor"/>
</g>
<g transform="translate(77.8436, 6.6075)">
<path transform="scale(0.0040, -0.0040)" d="M215 137c67 0 111 -37 111 -92c0 -90 -111 -182 -215 -182c-67 0 -111 37 -111 92c0 90 111 182 215 182z" fill="currentColor"/>
</g>
<g transform="translate(76.0046, 9.7830)">
<text font-family="Source Sans Pro" font-size="2.4690" text-anchor="start" fill="currentColor">
<tspan>dnes</tspan>
</text>
</g>
<g transform="translate(77.3703, 12.5830)">
<text font-family="Source Sans Pro" font-size="2.4690" text-anchor="start" fill="currentColor">
<tspan>že</tspan>
</text>
</g>
<g transform="translate(79.1102, 4.1075)">
<rect x="-0.0363" y="-1.0000" width="0.0725" height="3.3206" ry="0.0363" fill="currentColor"/>
</g>
<g transform="translate(79.1465, 3.1546)">
<path transform="scale(0.0040, -0.0040)" d="M0 0c0 -197 207 -335 207 -532c0 -71 -15 -141 -41 -207c-5 -8 -13 -12 -21 -12c-14 0 -27 11 -24 28c26 60 42 125 42 191c0 103 -93 207 -163 282h-18v250h18z" fill="currentColor"/>
</g>
<g transform="translate(19.2949, 2.1075)">
<polygon stroke-linejoin="round" stroke-linecap="round" stroke-width="0.0941" fill="currentColor" stroke="currentColor" points="4.2232 -0.1929 4.2232 0.1929 0.0471 0.1929 0.0471 -0.1929"/>
</g>
<g transform="translate(18.0647, 5.1075)">
<path transform="scale(0.0040, -0.0040)" d="M215 137c67 0 111 -37 111 -92c0 -90 -111 -182 -215 -182c-67 0 -111 37 -111 92c0 90 111 182 215 182z" fill="currentColor"/>
</g>
<g transform="translate(17.1294, 9.7830)">
<text font-family="Source Sans Pro" font-size="2.4690" text-anchor="start" fill="currentColor">
<tspan>jed</tspan>
</text>
</g>
<g transform="translate(17.9930, 12.5830)">
<text font-family="Source Sans Pro" font-size="2.4690" text-anchor="start" fill="currentColor">
<tspan>ří</tspan>
</text>
</g>
<g transform="translate(19.3312, 4.1075)">
<rect x="-0.0363" y="-2.0000" width="0.0725" height="2.8206" ry="0.0363" fill="currentColor"/>
</g>
<g transform="translate(22.2624, 5.1075)">
<path transform="scale(0.0040, -0.0040)" d="M215 137c67 0 111 -37 111 -92c0 -90 -111 -182 -215 -182c-67 0 -111 37 -111 92c0 90 111 182 215 182z" fill="currentColor"/>
</g>
<g transform="translate(20.9053, 9.7830)">
<text font-family="Source Sans Pro" font-size="2.4690" text-anchor="start" fill="currentColor">
<tspan>nou</tspan>
</text>
</g>
<g transform="translate(23.5289, 4.1075)">
<rect x="-0.0363" y="-2.0000" width="0.0725" height="2.8206" ry="0.0363" fill="currentColor"/>
</g>
<g transform="translate(6.5500, 4.1075)">
<path transform="scale(0.0040, -0.0040)" d="M358 29c-30 0 -74 23 -74 73c0 38 27 76 71 76c4 0 7 0 11 -1c-27 36 -69 59 -116 59h-14v-472h14c79 0 136 70 155 150c2 7 7 10 13 10c7 0 14 -5 14 -13c0 -21 -50 -175 -182 -175c-5 0 -9 1 -14 1v-76c0 -6 -5 -11 -11 -11h-17c-6 0 -12 5 -12 11v80
c-65 11 -196 58 -196 259c0 75 21 230 196 259v80c0 6 6 11 12 11h17c6 0 11 -5 11 -11v-76c5 0 9 1 14 1c115 0 174 -109 174 -165c0 -39 -30 -70 -66 -70zM196 -227v454c-55 -23 -59 -89 -59 -179c0 -15 1 -31 1 -48s-1 -33 -1 -48c0 -90 4 -156 59 -179z" fill="currentColor"/>
</g>
<g transform="translate(10.2420, 6.6075)">
<path transform="scale(0.0040, -0.0040)" d="M215 137c67 0 111 -37 111 -92c0 -90 -111 -182 -215 -182c-67 0 -111 37 -111 92c0 90 111 182 215 182z" fill="currentColor"/>
</g>
<g transform="translate(0.8000, 5.1075)">
<path transform="scale(0.0040, -0.0040)" d="M646 2c0 -113 -74 -213 -180 -247c3 -34 5 -68 5 -102c0 -20 -1 -40 -2 -60c-7 -121 -91 -228 -209 -228c-108 0 -196 87 -196 196c0 58 53 104 112 104c54 0 95 -48 95 -104c0 -52 -43 -95 -95 -95c-10 0 -20 2 -29 6c26 -38 68 -63 116 -63h3c93 2 153 92 159 190
c1 19 2 37 2 56c0 30 -2 60 -4 90c-5 -1 -43 -8 -88 -8c-194 0 -333 180 -333 375c0 177 130 307 246 442c-31 98 -53 170 -53 347c0 115 55 223 148 290c7 5 16 4 22 -1c68 -80 134 -243 134 -357c0 -143 -85 -255 -178 -364c21 -68 40 -137 57 -206c1 0 5 1 11 1
c156 0 257 -129 257 -262zM462 -202c66 24 111 88 111 162c0 89 -65 178 -170 190c28 -135 50 -272 59 -352zM75 26c0 -145 141 -245 263 -245c1 0 46 0 81 6c-7 65 -27 206 -61 363c-79 -8 -124 -61 -124 -119c0 -43 25 -89 80 -121c5 -5 7 -11 7 -16
c0 -12 -10 -23 -22 -23c-16 0 -127 63 -127 188c0 89 58 175 161 198c-14 58 -29 116 -46 173c-106 -122 -212 -244 -212 -404zM406 1042c-99 -47 -162 -148 -162 -257c0 -49 13 -111 38 -191c79 97 144 199 144 324c0 33 0 63 -20 124z" fill="currentColor"/>
</g>
<g transform="translate(4.3000, 2.1075)">
<path transform="scale(0.0040, -0.0040)" d="M0 117c0 9 6 18 15 21l43 16v157c0 11 8 19 19 19s20 -8 20 -19v-142l81 30v156c0 11 9 20 20 20s19 -9 19 -20v-142l28 11c3 1 5 1 8 1c12 0 22 -10 22 -23v-57c0 -9 -6 -18 -15 -21l-43 -16v-157l28 10c3 1 5 1 8 1c12 0 22 -9 22 -22v-57c0 -9 -6 -18 -15 -21l-43 -16
v-157c0 -11 -8 -19 -19 -19s-20 8 -20 19v142l-81 -30v-156c0 -11 -9 -20 -20 -20s-19 9 -19 20v142l-28 -11c-3 -1 -5 -1 -8 -1c-12 0 -22 10 -22 23v57c0 9 6 18 15 21l43 16v157l-28 -10c-3 -1 -5 -1 -8 -1c-12 0 -22 9 -22 22v57zM178 94l-81 -30v-158l81 30v158z" fill="currentColor"/>
</g>
<g transform="translate(20.6643, 12.5830)">
<text font-family="Source Sans Pro" font-size="2.4690" text-anchor="start" fill="currentColor">
<tspan>kám</tspan>
</text>
</g>
<g transform="translate(8.7243, 9.7830)">
<text font-family="Source Sans Pro" font-size="2.4690" text-anchor="start" fill="currentColor">
<tspan>Řek’</tspan>
</text>
</g>
<g transform="translate(5.8765, 9.7830)">
<text font-family="serif" font-weight="bold" font-size="2.4690" text-anchor="start" fill="currentColor">
<tspan>1.</tspan>
</text>
</g>
<g transform="translate(11.5085, 4.1075)">
<rect x="-0.0363" y="-1.0000" width="0.0725" height="3.3206" ry="0.0363" fill="currentColor"/>
</g>
<g transform="translate(11.5448, 3.1546)">
<path transform="scale(0.0040, -0.0040)" d="M0 0c0 -197 207 -335 207 -532c0 -71 -15 -141 -41 -207c-5 -8 -13 -12 -21 -12c-14 0 -27 11 -24 28c26 60 42 125 42 191c0 103 -93 207 -163 282h-18v250h18z" fill="currentColor"/>
</g>
<g transform="translate(39.5312, 5.1075)">
<path transform="scale(0.0040, -0.0040)" d="M215 137c67 0 111 -37 111 -92c0 -90 -111 -182 -215 -182c-67 0 -111 37 -111 92c0 90 111 182 215 182z" fill="currentColor"/>
</g>
<g transform="translate(35.3335, 5.1075)">
<path transform="scale(0.0040, -0.0040)" d="M215 137c67 0 111 -37 111 -92c0 -90 -111 -182 -215 -182c-67 0 -111 37 -111 92c0 90 111 182 215 182z" fill="currentColor"/>
</g>
<g transform="translate(35.3623, 9.7830)">
<text font-family="Source Sans Pro" font-size="2.4690" text-anchor="start" fill="currentColor">
<tspan>li</tspan>
</text>
</g>
<g transform="translate(34.2376, 12.5830)">
<text font-family="Source Sans Pro" font-size="2.4690" text-anchor="start" fill="currentColor">
<tspan>kaž</tspan>
</text>
</g>
<g transform="translate(36.6000, 4.1075)">
<rect x="-0.0363" y="-2.0000" width="0.0725" height="2.8206" ry="0.0363" fill="currentColor"/>
</g>
<g transform="translate(38.8370, 9.7830)">
<text font-family="Source Sans Pro" font-size="2.4690" text-anchor="start" fill="currentColor">
<tspan>du</tspan>
</text>
</g>
<g transform="translate(38.9173, 12.5830)">
<text font-family="Source Sans Pro" font-size="2.4690" text-anchor="start" fill="currentColor">
<tspan>dý</tspan>
</text>
</g>
<g transform="translate(40.7977, 4.1075)">
<rect x="-0.0363" y="-2.0000" width="0.0725" height="2.8206" ry="0.0363" fill="currentColor"/>
</g>
<g transform="translate(43.4789, 6.1075)">
<path transform="scale(0.0040, -0.0040)" d="M215 137c67 0 111 -37 111 -92c0 -90 -111 -182 -215 -182c-67 0 -111 37 -111 92c0 90 111 182 215 182z" fill="currentColor"/>
</g>
<g transform="translate(42.4432, 9.7830)">
<text font-family="Source Sans Pro" font-size="2.4690" text-anchor="start" fill="currentColor">
<tspan>své</tspan>
</text>
</g>
<g transform="translate(43.1060, 12.5830)">
<text font-family="Source Sans Pro" font-size="2.4690" text-anchor="start" fill="currentColor">
<tspan>ať</tspan>
</text>
</g>
<g transform="translate(44.7454, 4.1075)">
<rect x="-0.0363" y="-0.9982" width="0.0725" height="2.8188" ry="0.0363" fill="currentColor"/>
</g>
<g transform="translate(26.6651, 4.1075)">
<rect x="-0.0363" y="0.1794" width="0.0725" height="2.8206" ry="0.0363" fill="currentColor"/>
</g>
<g transform="translate(26.6288, 4.1075)">
<path transform="scale(0.0040, -0.0040)" d="M215 137c67 0 111 -37 111 -92c0 -90 -111 -182 -215 -182c-67 0 -111 37 -111 92c0 90 111 182 215 182z" fill="currentColor"/>
</g>
<g transform="translate(25.4124, 9.7830)">
<text font-family="Source Sans Pro" font-size="2.4690" text-anchor="start" fill="currentColor">
<tspan>Moj</tspan>
</text>
</g>
<g transform="translate(25.6132, 12.5830)">
<text font-family="Source Sans Pro" font-size="2.4690" text-anchor="start" fill="currentColor">
<tspan>rov</tspan>
</text>
</g>
<g transform="translate(30.8265, 4.1075)">
<path transform="scale(0.0040, -0.0040)" d="M215 137c67 0 111 -37 111 -92c0 -90 -111 -182 -215 -182c-67 0 -111 37 -111 92c0 90 111 182 215 182z" fill="currentColor"/>
</g>
<g transform="translate(30.8627, 4.1075)">
<rect x="-0.0363" y="0.1794" width="0.0725" height="2.8206" ry="0.0363" fill="currentColor"/>
</g>
<g transform="translate(29.1682, 12.5830)">
<text font-family="Source Sans Pro" font-size="2.4690" text-anchor="start" fill="currentColor">
<tspan>nou,</tspan>
</text>
</g>
<g transform="translate(30.1322, 9.7830)">
<text font-family="Source Sans Pro" font-size="2.4690" text-anchor="start" fill="currentColor">
<tspan>žíš</tspan>
</text>
</g>
<g transform="translate(0.0000, 19.3391)">
<line stroke-linejoin="round" stroke-linecap="round" stroke-width="0.0558" stroke="currentColor" x1="0.0279" y1="0" x2="82.3177" y2="0"/>
</g>
<g transform="translate(0.0000, 18.3391)">
<line stroke-linejoin="round" stroke-linecap="round" stroke-width="0.0558" stroke="currentColor" x1="0.0279" y1="0" x2="82.3177" y2="0"/>
</g>
<g transform="translate(0.0000, 17.3391)">
<line stroke-linejoin="round" stroke-linecap="round" stroke-width="0.0558" stroke="currentColor" x1="0.0279" y1="0" x2="82.3177" y2="0"/>
</g>
<g transform="translate(0.0000, 16.3391)">
<line stroke-linejoin="round" stroke-linecap="round" stroke-width="0.0558" stroke="currentColor" x1="0.0279" y1="0" x2="82.3177" y2="0"/>
</g>
<g transform="translate(0.0000, 15.3391)">
<line stroke-linejoin="round" stroke-linecap="round" stroke-width="0.0558" stroke="currentColor" x1="0.0279" y1="0" x2="82.3177" y2="0"/>
</g>
<g transform="translate(82.1336, 17.3391)">
<rect x="0.0000" y="-2.0000" width="0.2120" height="4.0000" ry="0.0000" fill="currentColor"/>
</g>
<g transform="translate(48.2647, 17.3391)">
<rect x="0.0000" y="-2.0000" width="0.2120" height="4.0000" ry="0.0000" fill="currentColor"/>
</g>
<g transform="translate(55.3966, 18.3391)">
<path transform="scale(0.0040, -0.0040)" d="M215 137c67 0 111 -37 111 -92c0 -90 -111 -182 -215 -182c-67 0 -111 37 -111 92c0 90 111 182 215 182z" fill="currentColor"/>
</g>
<g transform="translate(54.7827, 23.8874)">
<text font-family="Source Sans Pro" font-size="2.4690" text-anchor="start" fill="currentColor">
<tspan>dý</tspan>
</text>
</g>
<g transform="translate(55.0639, 26.6874)">
<text font-family="Source Sans Pro" font-size="2.4690" text-anchor="start" fill="currentColor">
<tspan>ni</tspan>
</text>
</g>
<g transform="translate(57.1454, 17.8391)">
<path transform="scale(0.0040, -0.0040)" d="M0 0c0 31 25 56 56 56s55 -25 55 -56s-24 -56 -55 -56s-56 25 -56 56z" fill="currentColor"/>
</g>
<g transform="translate(56.6632, 17.3391)">
<rect x="-0.0363" y="-2.5000" width="0.0725" height="3.3206" ry="0.0363" fill="currentColor"/>
</g>
<g transform="translate(42.6320, 23.8874)">
<text font-family="Source Sans Pro" font-size="2.4690" text-anchor="start" fill="currentColor">
<tspan>se</tspan>
</text>
</g>
<g transform="translate(65.9900, 19.3391)">
<path transform="scale(0.0040, -0.0040)" d="M215 137c67 0 111 -37 111 -92c0 -90 -111 -182 -215 -182c-67 0 -111 37 -111 92c0 90 111 182 215 182z" fill="currentColor"/>
</g>
<g transform="translate(65.9900, 23.8874)">
<text font-family="Source Sans Pro" font-size="2.4690" text-anchor="start" fill="currentColor">
<tspan>z nás.</tspan>
</text>
</g>
<g transform="translate(65.9900, 26.6874)">
<text font-family="Source Sans Pro" font-size="2.4690" text-anchor="start" fill="currentColor">
<tspan>tá.</tspan>
</text>
</g>
<g transform="translate(67.2566, 17.3391)">
<rect x="-0.0363" y="-1.5000" width="0.0725" height="3.3206" ry="0.0363" fill="currentColor"/>
</g>
<g transform="translate(67.2928, 15.8862)">
<path transform="scale(0.0040, -0.0040)" d="M0 0c0 -197 207 -335 207 -532c0 -71 -15 -141 -41 -207c-5 -8 -13 -12 -21 -12c-14 0 -27 11 -24 28c26 60 42 125 42 191c0 103 -93 207 -163 282h-18v250h18z" fill="currentColor"/>
</g>
<g transform="translate(49.2148, 23.8874)">
<text font-family="Source Sans Pro" font-size="2.4690" text-anchor="start" fill="currentColor">
<tspan>kaž</tspan>
</text>
</g>
<g transform="translate(65.9900, 17.3391)">
<path stroke-width="0.0446" stroke-linejoin="round" stroke-linecap="round" stroke="currentColor" fill="currentColor" d="M0.6089 3.0486C1.6694 4.1935 4.4317 4.4651 5.6948 3.5486L5.6948 3.5486C4.4382 4.3984 1.6759 4.1269 0.6089 3.0486z"/>
</g>
<g transform="translate(42.8529, 26.6874)">
<text font-family="Source Sans Pro" font-size="2.4690" text-anchor="start" fill="currentColor">
<tspan>je</tspan>
</text>
</g>
<g transform="translate(44.3718, 17.3391)">
<rect x="-0.0363" y="-2.7894" width="0.0725" height="3.1101" ry="0.0363" fill="currentColor"/>
</g>
<g transform="translate(50.3108, 18.3391)">
<path transform="scale(0.0040, -0.0040)" d="M215 137c67 0 111 -37 111 -92c0 -90 -111 -182 -215 -182c-67 0 -111 37 -111 92c0 90 111 182 215 182z" fill="currentColor"/>
</g>
<g transform="translate(50.1186, 26.6874)">
<text font-family="Source Sans Pro" font-size="2.4690" text-anchor="start" fill="currentColor">
<tspan>tr</tspan>
</text>
</g>
<g transform="translate(51.5773, 17.3391)">
<rect x="-0.0363" y="-2.5000" width="0.0725" height="3.3206" ry="0.0363" fill="currentColor"/>
</g>
<g transform="translate(51.6136, 14.8862)">
<path transform="scale(0.0040, -0.0040)" d="M0 0c0 -197 207 -335 207 -532c0 -71 -15 -141 -41 -207c-5 -8 -13 -12 -21 -12c-14 0 -27 11 -24 28c26 60 42 125 42 191c0 103 -93 207 -163 282h-18v250h18z" fill="currentColor"/>
</g>
<g transform="translate(36.6348, 26.6874)">
<rect x="0.0000" y="-0.5651" width="0.6600" height="0.1451" ry="0.0446" fill="currentColor"/>
</g>
<g transform="translate(17.9788, 20.3391)">
<polygon stroke-linejoin="round" stroke-linecap="round" stroke-width="0.0941" fill="currentColor" stroke="currentColor" points="5.0191 -0.1929 5.0191 0.1929 0.0471 0.1929 0.0471 -0.1929"/>
</g>
<g transform="translate(20.5962, 23.8874)">
<rect x="0.0000" y="-0.5651" width="0.6600" height="0.1451" ry="0.0446" fill="currentColor"/>
</g>
<g transform="translate(21.1284, 26.6874)">
<rect x="0.0000" y="-0.5651" width="0.6600" height="0.1451" ry="0.0446" fill="currentColor"/>
</g>
<g transform="translate(28.2161, 19.3391)">
<polygon stroke-linejoin="round" stroke-linecap="round" stroke-width="0.0941" fill="currentColor" stroke="currentColor" points="5.0191 -0.1929 5.0191 0.1929 0.0471 0.1929 0.0471 -0.1929"/>
</g>
<g transform="translate(30.8937, 23.8874)">
<rect x="0.0000" y="-0.5651" width="0.6600" height="0.1451" ry="0.0446" fill="currentColor"/>
</g>
<g transform="translate(36.3436, 23.8874)">
<rect x="0.0000" y="-0.5651" width="0.6600" height="0.1451" ry="0.0446" fill="currentColor"/>
</g>
<g transform="translate(53.4161, 23.8874)">
<rect x="0.0000" y="-0.5651" width="0.6600" height="0.1451" ry="0.0446" fill="currentColor"/>
</g>
<g transform="translate(53.1048, 26.6874)">
<rect x="0.0000" y="-0.5651" width="0.6600" height="0.1451" ry="0.0446" fill="currentColor"/>
</g>
<g transform="translate(39.3420, 14.3391)">
<polygon stroke-linejoin="round" stroke-linecap="round" stroke-width="0.0941" fill="currentColor" stroke="currentColor" points="5.0191 0.0192 5.0191 0.4050 0.0471 0.1929 0.0471 -0.1929"/>
</g>
<g transform="translate(61.1811, 26.6874)">
<rect x="0.0000" y="-0.5651" width="0.6600" height="0.1451" ry="0.0446" fill="currentColor"/>
</g>
<g transform="translate(71.0759, 19.8391)">
<path transform="scale(0.0040, -0.0040)" d="M215 137c67 0 111 -37 111 -92c0 -90 -111 -182 -215 -182c-67 0 -111 37 -111 92c0 90 111 182 215 182z" fill="currentColor"/>
</g>
<g transform="translate(72.8247, 19.8391)">
<path transform="scale(0.0040, -0.0040)" d="M0 0c0 31 25 56 56 56s55 -25 55 -56s-24 -56 -55 -56s-56 25 -56 56z" fill="currentColor"/>
</g>
<g transform="translate(72.3424, 17.3391)">
<rect x="-0.0363" y="-1.0000" width="0.0725" height="3.3206" ry="0.0363" fill="currentColor"/>
</g>
<g transform="translate(9.1303, 15.3391)">
<polygon stroke-linejoin="round" stroke-linecap="round" stroke-width="0.0941" fill="currentColor" stroke="currentColor" points="5.0191 -0.1929 5.0191 0.1929 0.0471 0.1929 0.0471 -0.1929"/>
</g>
<g transform="translate(11.3710, 23.8874)">
<rect x="0.0000" y="-0.5651" width="0.6600" height="0.1451" ry="0.0446" fill="currentColor"/>
</g>
<g transform="translate(10.8086, 26.6874)">
<rect x="0.0000" y="-0.5651" width="0.6600" height="0.1451" ry="0.0446" fill="currentColor"/>
</g>
<g transform="translate(14.1602, 17.3391)">
<rect x="-0.0363" y="-2.0000" width="0.0725" height="2.8206" ry="0.0363" fill="currentColor"/>
</g>
<g transform="translate(6.3823, 23.8874)">
<text font-family="Source Sans Pro" font-size="2.4690" text-anchor="start" fill="currentColor">
<tspan>v no</tspan>
</text>
</g>
<g transform="translate(7.2459, 26.6874)">
<text font-family="Source Sans Pro" font-size="2.4690" text-anchor="start" fill="currentColor">
<tspan>na</tspan>
</text>
</g>
<g transform="translate(9.1665, 17.3391)">
<rect x="-0.0363" y="-2.0000" width="0.0725" height="2.8206" ry="0.0363" fill="currentColor"/>
</g>
<g transform="translate(12.8936, 18.3391)">
<path transform="scale(0.0040, -0.0040)" d="M215 137c67 0 111 -37 111 -92c0 -90 -111 -182 -215 -182c-67 0 -111 37 -111 92c0 90 111 182 215 182z" fill="currentColor"/>
</g>
<g transform="translate(12.6814, 23.8874)">
<text font-family="Source Sans Pro" font-size="2.4690" text-anchor="start" fill="currentColor">
<tspan>ci</tspan>
</text>
</g>
<g transform="translate(12.4203, 26.6874)">
<text font-family="Source Sans Pro" font-size="2.4690" text-anchor="start" fill="currentColor">
<tspan>še</tspan>
</text>
</g>
<g transform="translate(7.9000, 18.3391)">
<path transform="scale(0.0040, -0.0040)" d="M215 137c67 0 111 -37 111 -92c0 -90 -111 -182 -215 -182c-67 0 -111 37 -111 92c0 90 111 182 215 182z" fill="currentColor"/>
</g>
<g transform="translate(17.9788, 17.3391)">
<path transform="scale(0.0040, -0.0040)" d="M215 137c67 0 111 -37 111 -92c0 -90 -111 -182 -215 -182c-67 0 -111 37 -111 92c0 90 111 182 215 182z" fill="currentColor"/>
</g>
<g transform="translate(17.9072, 23.8874)">
<text font-family="Source Sans Pro" font-size="2.4690" text-anchor="start" fill="currentColor">
<tspan>ti</tspan>
</text>
</g>
<g transform="translate(16.9633, 26.6874)">
<text font-family="Source Sans Pro" font-size="2.4690" text-anchor="start" fill="currentColor">
<tspan>ces</tspan>
</text>
</g>
<g transform="translate(43.1053, 17.8391)">
<path transform="scale(0.0040, -0.0040)" d="M215 137c67 0 111 -37 111 -92c0 -90 -111 -182 -215 -182c-67 0 -111 37 -111 92c0 90 111 182 215 182z" fill="currentColor"/>
</g>
<g transform="translate(0.8000, 18.3391)">
<path transform="scale(0.0040, -0.0040)" d="M646 2c0 -113 -74 -213 -180 -247c3 -34 5 -68 5 -102c0 -20 -1 -40 -2 -60c-7 -121 -91 -228 -209 -228c-108 0 -196 87 -196 196c0 58 53 104 112 104c54 0 95 -48 95 -104c0 -52 -43 -95 -95 -95c-10 0 -20 2 -29 6c26 -38 68 -63 116 -63h3c93 2 153 92 159 190
c1 19 2 37 2 56c0 30 -2 60 -4 90c-5 -1 -43 -8 -88 -8c-194 0 -333 180 -333 375c0 177 130 307 246 442c-31 98 -53 170 -53 347c0 115 55 223 148 290c7 5 16 4 22 -1c68 -80 134 -243 134 -357c0 -143 -85 -255 -178 -364c21 -68 40 -137 57 -206c1 0 5 1 11 1
c156 0 257 -129 257 -262zM462 -202c66 24 111 88 111 162c0 89 -65 178 -170 190c28 -135 50 -272 59 -352zM75 26c0 -145 141 -245 263 -245c1 0 46 0 81 6c-7 65 -27 206 -61 363c-79 -8 -124 -61 -124 -119c0 -43 25 -89 80 -121c5 -5 7 -11 7 -16
c0 -12 -10 -23 -22 -23c-16 0 -127 63 -127 188c0 89 58 175 161 198c-14 58 -29 116 -46 173c-106 -122 -212 -244 -212 -404zM406 1042c-99 -47 -162 -148 -162 -257c0 -49 13 -111 38 -191c79 97 144 199 144 324c0 33 0 63 -20 124z" fill="currentColor"/>
</g>
<g transform="translate(18.0151, 17.3391)">
<rect x="-0.0363" y="0.1794" width="0.0725" height="2.8206" ry="0.0363" fill="currentColor"/>
</g>
<g transform="translate(4.3000, 15.3391)">
<path transform="scale(0.0040, -0.0040)" d="M0 117c0 9 6 18 15 21l43 16v157c0 11 8 19 19 19s20 -8 20 -19v-142l81 30v156c0 11 9 20 20 20s19 -9 19 -20v-142l28 11c3 1 5 1 8 1c12 0 22 -10 22 -23v-57c0 -9 -6 -18 -15 -21l-43 -16v-157l28 10c3 1 5 1 8 1c12 0 22 -9 22 -22v-57c0 -9 -6 -18 -15 -21l-43 -16
v-157c0 -11 -8 -19 -19 -19s-20 8 -20 19v142l-81 -30v-156c0 -11 -9 -20 -20 -20s-19 9 -19 20v142l-28 -11c-3 -1 -5 -1 -8 -1c-12 0 -22 10 -22 23v57c0 9 6 18 15 21l43 16v157l-28 -10c-3 -1 -5 -1 -8 -1c-12 0 -22 9 -22 22v57zM178 94l-81 -30v-158l81 30v158z" fill="currentColor"/>
</g>
<g transform="translate(33.2097, 16.3391)">
<path transform="scale(0.0040, -0.0040)" d="M215 137c67 0 111 -37 111 -92c0 -90 -111 -182 -215 -182c-67 0 -111 37 -111 92c0 90 111 182 215 182z" fill="currentColor"/>
</g>
<g transform="translate(32.4150, 23.8874)">
<text font-family="Source Sans Pro" font-size="2.4690" text-anchor="start" fill="currentColor">
<tspan>tra</tspan>
</text>
</g>
<g transform="translate(31.8326, 26.6874)">
<text font-family="Source Sans Pro" font-size="2.4690" text-anchor="start" fill="currentColor">
<tspan>štěs</tspan>
</text>
</g>
<g transform="translate(33.2460, 17.3391)">
<rect x="-0.0363" y="-0.8206" width="0.0725" height="2.8206" ry="0.0363" fill="currentColor"/>
</g>
<g transform="translate(38.1117, 17.3391)">
<path transform="scale(0.0040, -0.0040)" d="M215 137c67 0 111 -37 111 -92c0 -90 -111 -182 -215 -182c-67 0 -111 37 -111 92c0 90 111 182 215 182z" fill="currentColor"/>
</g>
<g transform="translate(38.0401, 23.8874)">
<text font-family="Source Sans Pro" font-size="2.4690" text-anchor="start" fill="currentColor">
<tspan>tí</tspan>
</text>
</g>
<g transform="translate(38.0401, 26.6874)">
<text font-family="Source Sans Pro" font-size="2.4690" text-anchor="start" fill="currentColor">
<tspan>tí</tspan>
</text>
</g>
<g transform="translate(39.3782, 17.3391)">
<rect x="-0.0363" y="-2.9985" width="0.0725" height="2.8191" ry="0.0363" fill="currentColor"/>
</g>
<g transform="translate(27.6825, 26.6874)">
<text font-family="Source Sans Pro" font-size="2.4690" text-anchor="start" fill="currentColor">
<tspan>ke</tspan>
</text>
</g>
<g transform="translate(22.9725, 17.3391)">
<path transform="scale(0.0040, -0.0040)" d="M215 137c67 0 111 -37 111 -92c0 -90 -111 -182 -215 -182c-67 0 -111 37 -111 92c0 90 111 182 215 182z" fill="currentColor"/>
</g>
<g transform="translate(22.4991, 23.8874)">
<text font-family="Source Sans Pro" font-size="2.4690" text-anchor="start" fill="currentColor">
<tspan>še</tspan>
</text>
</g>
<g transform="translate(22.6196, 26.6874)">
<text font-family="Source Sans Pro" font-size="2.4690" text-anchor="start" fill="currentColor">
<tspan>ta</tspan>
</text>
</g>
<g transform="translate(23.0087, 17.3391)">
<rect x="-0.0363" y="0.1794" width="0.0725" height="2.8206" ry="0.0363" fill="currentColor"/>
</g>
<g transform="translate(28.2523, 17.3391)">
<rect x="-0.0363" y="-0.8206" width="0.0725" height="2.8206" ry="0.0363" fill="currentColor"/>
</g>
<g transform="translate(28.2161, 16.3391)">
<path transform="scale(0.0040, -0.0040)" d="M215 137c67 0 111 -37 111 -92c0 -90 -111 -182 -215 -182c-67 0 -111 37 -111 92c0 90 111 182 215 182z" fill="currentColor"/>
</g>
<g transform="translate(27.7026, 23.8874)">
<text font-family="Source Sans Pro" font-size="2.4690" text-anchor="start" fill="currentColor">
<tspan>vy</tspan>
</text>
</g>
<g transform="translate(0.0000, 34.9234)">
<line stroke-linejoin="round" stroke-linecap="round" stroke-width="0.0558" stroke="currentColor" x1="0.0279" y1="0" x2="82.3177" y2="0"/>
</g>
<g transform="translate(0.0000, 33.9234)">
<line stroke-linejoin="round" stroke-linecap="round" stroke-width="0.0558" stroke="currentColor" x1="0.0279" y1="0" x2="82.3177" y2="0"/>
</g>
<g transform="translate(0.0000, 32.9234)">
<line stroke-linejoin="round" stroke-linecap="round" stroke-width="0.0558" stroke="currentColor" x1="0.0279" y1="0" x2="82.3177" y2="0"/>
</g>
<g transform="translate(0.0000, 31.9234)">
<line stroke-linejoin="round" stroke-linecap="round" stroke-width="0.0558" stroke="currentColor" x1="0.0279" y1="0" x2="82.3177" y2="0"/>
</g>
<g transform="translate(0.0000, 30.9234)">
<line stroke-linejoin="round" stroke-linecap="round" stroke-width="0.0558" stroke="currentColor" x1="0.0279" y1="0" x2="82.3177" y2="0"/>
</g>
<g transform="translate(80.3485, 32.4234)">
<path transform="scale(0.0040, -0.0040)" d="M0 0c0 31 25 56 56 56s55 -25 55 -56s-24 -56 -55 -56s-56 25 -56 56z" fill="currentColor"/>
</g>
<g transform="translate(80.3485, 33.4234)">
<path transform="scale(0.0040, -0.0040)" d="M0 0c0 31 25 56 56 56s55 -25 55 -56s-24 -56 -55 -56s-56 25 -56 56z" fill="currentColor"/>
</g>
<g transform="translate(81.6760, 32.9234)">
<rect x="0.0000" y="-2.0000" width="0.6696" height="4.0000" ry="0.0000" fill="currentColor"/>
</g>
<g transform="translate(81.1292, 32.9234)">
<rect x="0.0000" y="-2.0000" width="0.2120" height="4.0000" ry="0.0000" fill="currentColor"/>
</g>
<g transform="translate(21.1155, 32.9234)">
<rect x="0.0000" y="-2.0000" width="0.2120" height="4.0000" ry="0.0000" fill="currentColor"/>
</g>
<g transform="translate(60.9953, 32.9234)">
<rect x="0.0000" y="-2.0000" width="0.2120" height="4.0000" ry="0.0000" fill="currentColor"/>
</g>
<g transform="translate(39.7164, 32.9234)">
<rect x="0.0000" y="-2.0000" width="0.2120" height="4.0000" ry="0.0000" fill="currentColor"/>
</g>
<g transform="translate(53.9420, 38.3142)">
<text font-family="Source Sans Pro" font-size="2.4690" text-anchor="start" fill="currentColor">
<tspan>ná</tspan>
</text>
</g>
<g transform="translate(56.3449, 33.4234)">
<path transform="scale(0.0040, -0.0040)" d="M0 0c0 31 25 56 56 56s55 -25 55 -56s-24 -56 -55 -56s-56 25 -56 56z" fill="currentColor"/>
</g>
<g transform="translate(55.8626, 32.9234)">
<rect x="-0.0363" y="-2.5000" width="0.0725" height="3.3206" ry="0.0363" fill="currentColor"/>
</g>
<g transform="translate(62.3675, 33.9234)">
<path transform="scale(0.0040, -0.0040)" d="M312 64c0 23 -18 41 -41 41c-39 0 -201 -110 -228 -142c-7 -8 -10 -17 -10 -27c0 -23 18 -41 41 -41c39 0 201 110 228 142c7 8 10 17 10 27zM259 137c46 0 86 -17 86 -74c0 -26 -15 -112 -73 -151c-29 -20 -89 -49 -186 -49c-46 0 -86 17 -86 74c0 26 16 112 74 151
c29 20 88 49 185 49z" fill="currentColor"/>
</g>
<g transform="translate(60.6075, 38.3142)">
<text font-family="Source Sans Pro" font-size="2.4690" text-anchor="start" fill="currentColor">
<tspan>zem.</tspan>
</text>
</g>
<g transform="translate(63.7118, 32.9234)">
<rect x="-0.0363" y="-2.5000" width="0.0725" height="3.2470" ry="0.0363" fill="currentColor"/>
</g>
<g transform="translate(48.5891, 31.9705)">
<path transform="scale(0.0040, -0.0040)" d="M0 0c0 -197 207 -335 207 -532c0 -71 -15 -141 -41 -207c-5 -8 -13 -12 -21 -12c-14 0 -27 11 -24 28c26 60 42 125 42 191c0 103 -93 207 -163 282h-18v250h18z" fill="currentColor"/>
</g>
<g transform="translate(47.2863, 35.4234)">
<path transform="scale(0.0040, -0.0040)" d="M215 137c67 0 111 -37 111 -92c0 -90 -111 -182 -215 -182c-67 0 -111 37 -111 92c0 90 111 182 215 182z" fill="currentColor"/>
</g>
<g transform="translate(46.1903, 38.3142)">
<text font-family="Source Sans Pro" font-size="2.4690" text-anchor="start" fill="currentColor">
<tspan>svo</tspan>
</text>
</g>
<g transform="translate(48.5528, 32.9234)">
<rect x="-0.0363" y="-1.0000" width="0.0725" height="3.3206" ry="0.0363" fill="currentColor"/>
</g>
<g transform="translate(54.5961, 33.9234)">
<path transform="scale(0.0040, -0.0040)" d="M215 137c67 0 111 -37 111 -92c0 -90 -111 -182 -215 -182c-67 0 -111 37 -111 92c0 90 111 182 215 182z" fill="currentColor"/>
</g>
<g transform="translate(51.1621, 34.9234)">
<path transform="scale(0.0040, -0.0040)" d="M215 137c67 0 111 -37 111 -92c0 -90 -111 -182 -215 -182c-67 0 -111 37 -111 92c0 90 111 182 215 182z" fill="currentColor"/>
</g>
<g transform="translate(49.7850, 38.3142)">
<text font-family="Source Sans Pro" font-size="2.4690" text-anchor="start" fill="currentColor">
<tspan>bod</tspan>
</text>
</g>
<g transform="translate(52.4286, 32.9234)">
<rect x="-0.0363" y="-1.5000" width="0.0725" height="3.3206" ry="0.0363" fill="currentColor"/>
</g>
<g transform="translate(52.4649, 31.4705)">
<path transform="scale(0.0040, -0.0040)" d="M0 0c0 -197 207 -335 207 -532c0 -71 -15 -141 -41 -207c-5 -8 -13 -12 -21 -12c-14 0 -27 11 -24 28c26 60 42 125 42 191c0 103 -93 207 -163 282h-18v250h18z" fill="currentColor"/>
</g>
<g transform="translate(10.8566, 38.3142)">
<rect x="0.0000" y="-0.5651" width="0.6600" height="0.1451" ry="0.0446" fill="currentColor"/>
</g>
<g transform="translate(25.6145, 38.3142)">
<rect x="0.0000" y="-0.5651" width="0.6600" height="0.1451" ry="0.0446" fill="currentColor"/>
</g>
<g transform="translate(74.1661, 32.9234)">
<path transform="scale(0.0040, -0.0040)" d="M70 205c80 0 46 -97 90 -97c15 0 52 45 59 59c6 13 26 13 31 0l-121 -417c-9 -7 -19 -11 -30 -11s-21 4 -30 11l118 326c-33 -12 -68 -22 -103 -22c-47 0 -87 34 -87 79c0 40 33 72 73 72z" fill="currentColor"/>
</g>
<g transform="translate(69.4289, 32.9234)">
<path transform="scale(0.0040, -0.0040)" d="M-8 78c0 59 125 83 125 182c0 25 -9 49 -26 69l-33 40c-3 4 -4 7 -4 11c0 9 9 17 18 17c4 0 8 -2 12 -6l150 -179c7 -9 11 -18 11 -26c0 -59 -125 -83 -125 -182c0 -25 8 -49 25 -69l82 -97c3 -4 4 -7 4 -11c0 -9 -8 -17 -17 -17c-10 0 -42 42 -106 42
c-19 0 -54 -1 -54 -66c0 -34 10 -73 27 -93c7 -9 -5 -20 -12 -11c-45 53 -93 147 -93 201c0 42 27 42 43 42c31 0 74 -11 113 -27l-129 154c-7 9 -11 18 -11 26z" fill="currentColor"/>
</g>
<g transform="translate(77.0598, 35.4234)">
<path transform="scale(0.0040, -0.0040)" d="M215 137c67 0 111 -37 111 -92c0 -90 -111 -182 -215 -182c-67 0 -111 37 -111 92c0 90 111 182 215 182z" fill="currentColor"/>
</g>
<g transform="translate(76.4860, 38.3142)">
<text font-family="Source Sans Pro" font-size="2.4690" text-anchor="start" fill="currentColor">
<tspan>Já</tspan>
</text>
</g>
<g transform="translate(78.3263, 32.9234)">
<rect x="-0.0363" y="-1.0000" width="0.0725" height="3.3206" ry="0.0363" fill="currentColor"/>
</g>
<g transform="translate(78.3626, 31.9705)">
<path transform="scale(0.0040, -0.0040)" d="M0 0c0 -197 207 -335 207 -532c0 -71 -15 -141 -41 -207c-5 -8 -13 -12 -21 -12c-14 0 -27 11 -24 28c26 60 42 125 42 191c0 103 -93 207 -163 282h-18v250h18z" fill="currentColor"/>
</g>
<g transform="translate(7.0250, 38.3142)">
<text font-family="Source Sans Pro" font-size="2.4690" text-anchor="start" fill="currentColor">
<tspan>Má</tspan>
</text>
</g>
<g transform="translate(9.1665, 32.9234)">
<rect x="-0.0363" y="-2.5000" width="0.0725" height="3.3206" ry="0.0363" fill="currentColor"/>
</g>
<g transform="translate(13.0712, 32.9234)">
<path transform="scale(0.0040, -0.0040)" d="M312 64c0 23 -18 41 -41 41c-39 0 -201 -110 -228 -142c-7 -8 -10 -17 -10 -27c0 -23 18 -41 41 -41c39 0 201 110 228 142c7 8 10 17 10 27zM259 137c46 0 86 -17 86 -74c0 -26 -15 -112 -73 -151c-29 -20 -89 -49 -186 -49c-46 0 -86 17 -86 74c0 26 16 112 74 151
c29 20 88 49 185 49z" fill="currentColor"/>
</g>
<g transform="translate(12.2953, 38.3142)">
<text font-family="Source Sans Pro" font-size="2.4690" text-anchor="start" fill="currentColor">
<tspan>vá,</tspan>
</text>
</g>
<g transform="translate(14.8977, 32.4234)">
<path transform="scale(0.0040, -0.0040)" d="M0 0c0 31 25 56 56 56s55 -25 55 -56s-24 -56 -55 -56s-56 25 -56 56z" fill="currentColor"/>
</g>
<g transform="translate(13.1074, 32.9234)">
<rect x="-0.0363" y="0.2530" width="0.0725" height="3.0804" ry="0.0363" fill="currentColor"/>
</g>
<g transform="translate(7.9000, 33.9234)">
<path transform="scale(0.0040, -0.0040)" d="M215 137c67 0 111 -37 111 -92c0 -90 -111 -182 -215 -182c-67 0 -111 37 -111 92c0 90 111 182 215 182z" fill="currentColor"/>
</g>
<g transform="translate(22.4876, 33.4234)">
<path transform="scale(0.0040, -0.0040)" d="M215 137c67 0 111 -37 111 -92c0 -90 -111 -182 -215 -182c-67 0 -111 37 -111 92c0 90 111 182 215 182z" fill="currentColor"/>
</g>
<g transform="translate(21.4921, 38.3142)">
<text font-family="Source Sans Pro" font-size="2.4690" text-anchor="start" fill="currentColor">
<tspan>má</tspan>
</text>
</g>
<g transform="translate(23.7542, 32.9234)">
<rect x="-0.0363" y="-3.0000" width="0.0725" height="3.3206" ry="0.0363" fill="currentColor"/>
</g>
<g transform="translate(0.8000, 33.9234)">
<path transform="scale(0.0040, -0.0040)" d="M646 2c0 -113 -74 -213 -180 -247c3 -34 5 -68 5 -102c0 -20 -1 -40 -2 -60c-7 -121 -91 -228 -209 -228c-108 0 -196 87 -196 196c0 58 53 104 112 104c54 0 95 -48 95 -104c0 -52 -43 -95 -95 -95c-10 0 -20 2 -29 6c26 -38 68 -63 116 -63h3c93 2 153 92 159 190
c1 19 2 37 2 56c0 30 -2 60 -4 90c-5 -1 -43 -8 -88 -8c-194 0 -333 180 -333 375c0 177 130 307 246 442c-31 98 -53 170 -53 347c0 115 55 223 148 290c7 5 16 4 22 -1c68 -80 134 -243 134 -357c0 -143 -85 -255 -178 -364c21 -68 40 -137 57 -206c1 0 5 1 11 1
c156 0 257 -129 257 -262zM462 -202c66 24 111 88 111 162c0 89 -65 178 -170 190c28 -135 50 -272 59 -352zM75 26c0 -145 141 -245 263 -245c1 0 46 0 81 6c-7 65 -27 206 -61 363c-79 -8 -124 -61 -124 -119c0 -43 25 -89 80 -121c5 -5 7 -11 7 -16
c0 -12 -10 -23 -22 -23c-16 0 -127 63 -127 188c0 89 58 175 161 198c-14 58 -29 116 -46 173c-106 -122 -212 -244 -212 -404zM406 1042c-99 -47 -162 -148 -162 -257c0 -49 13 -111 38 -191c79 97 144 199 144 324c0 33 0 63 -20 124z" fill="currentColor"/>
</g>
<g transform="translate(62.0288, 29.5812)">
<g>
<path transform="scale(0.0025, -0.0025)" d="M194 486c16 0 29 15 41 15c13 0 24 -13 24 -31v-341c0 -47 35 -86 81 -86c14 0 21 -10 21 -21s-7 -22 -21 -22c-49 0 -97 14 -146 14s-96 -14 -145 -14c-14 0 -22 11 -22 22s8 21 22 21c46 0 80 39 80 86v137c0 23 -16 35 -30 35c-7 0 -13 -4 -17 -11l-34 -65
c-5 -10 -14 -15 -23 -15c-14 0 -28 12 -28 27c0 4 1 8 3 13l129 250c2 4 7 6 11 6c18 0 37 -20 54 -20z" fill="currentColor"/>

<path transform="translate(0.9640, 0.0000) scale(0.0025, -0.0025)" d="M0 51c0 28 23 51 51 51s51 -23 51 -51s-23 -51 -51 -51s-51 23 -51 51z" fill="currentColor"/>
</g>
</g>
<g transform="translate(60.9953, 27.8062)">
<line stroke-linejoin="round" stroke-linecap="round" stroke-width="0.1786" stroke="currentColor" x1="21.2610" y1="-0.0000" x2="21.2610" y2="2.0000"/>
</g>
<g transform="translate(60.9953, 27.8062)">
<line stroke-linejoin="round" stroke-linecap="round" stroke-width="0.1786" stroke="currentColor" x1="0.1228" y1="-0.0000" x2="0.1228" y2="2.0000"/>
</g>
<g transform="translate(60.9953, 27.8062)">
<line stroke-linejoin="round" stroke-linecap="round" stroke-width="0.1786" stroke="currentColor" x1="0.1228" y1="-0.0000" x2="21.2610" y2="-0.0000"/>
</g>
<g transform="translate(4.3000, 30.9234)">
<path transform="scale(0.0040, -0.0040)" d="M0 117c0 9 6 18 15 21l43 16v157c0 11 8 19 19 19s20 -8 20 -19v-142l81 30v156c0 11 9 20 20 20s19 -9 19 -20v-142l28 11c3 1 5 1 8 1c12 0 22 -10 22 -23v-57c0 -9 -6 -18 -15 -21l-43 -16v-157l28 10c3 1 5 1 8 1c12 0 22 -9 22 -22v-57c0 -9 -6 -18 -15 -21l-43 -16
v-157c0 -11 -8 -19 -19 -19s-20 8 -20 19v142l-81 -30v-156c0 -11 -9 -20 -20 -20s-19 9 -19 20v142l-28 -11c-3 -1 -5 -1 -8 -1c-12 0 -22 10 -22 23v57c0 9 6 18 15 21l43 16v157l-28 -10c-3 -1 -5 -1 -8 -1c-12 0 -22 9 -22 22v57zM178 94l-81 -30v-158l81 30v158z" fill="currentColor"/>
</g>
<g transform="translate(34.3891, 34.9234)">
<path transform="scale(0.0040, -0.0040)" d="M215 137c67 0 111 -37 111 -92c0 -90 -111 -182 -215 -182c-67 0 -111 37 -111 92c0 90 111 182 215 182z" fill="currentColor"/>
</g>
<g transform="translate(32.7108, 38.3142)">
<text font-family="Source Sans Pro" font-size="2.4690" text-anchor="start" fill="currentColor">
<tspan>nám</tspan>
</text>
</g>
<g transform="translate(35.6557, 32.9234)">
<rect x="-0.0363" y="-1.5000" width="0.0725" height="3.3206" ry="0.0363" fill="currentColor"/>
</g>
<g transform="translate(41.0885, 35.4234)">
<path transform="scale(0.0040, -0.0040)" d="M215 137c67 0 111 -37 111 -92c0 -90 -111 -182 -215 -182c-67 0 -111 37 -111 92c0 90 111 182 215 182z" fill="currentColor"/>
</g>
<g transform="translate(39.0085, 38.3142)">
<text font-family="Source Sans Pro" font-size="2.4690" text-anchor="start" fill="currentColor">
<tspan>všem</tspan>
</text>
</g>
<g transform="translate(42.8373, 35.4234)">
<path transform="scale(0.0040, -0.0040)" d="M0 0c0 31 25 56 56 56s55 -25 55 -56s-24 -56 -55 -56s-56 25 -56 56z" fill="currentColor"/>
</g>
<g transform="translate(42.3551, 32.9234)">
<rect x="-0.0363" y="-1.0000" width="0.0725" height="3.3206" ry="0.0363" fill="currentColor"/>
</g>
<g transform="translate(27.5777, 33.9234)">
<path transform="scale(0.0040, -0.0040)" d="M312 64c0 23 -18 41 -41 41c-39 0 -201 -110 -228 -142c-7 -8 -10 -17 -10 -27c0 -23 18 -41 41 -41c39 0 201 110 228 142c7 8 10 17 10 27zM259 137c46 0 86 -17 86 -74c0 -26 -15 -112 -73 -151c-29 -20 -89 -49 -186 -49c-46 0 -86 17 -86 74c0 26 16 112 74 151
c29 20 88 49 185 49z" fill="currentColor"/>
</g>
<g transform="translate(27.1031, 38.3142)">
<text font-family="Source Sans Pro" font-size="2.4690" text-anchor="start" fill="currentColor">
<tspan>vá</tspan>
</text>
</g>
<g transform="translate(28.9220, 32.9234)">
<rect x="-0.0363" y="-2.5000" width="0.0725" height="3.2470" ry="0.0363" fill="currentColor"/>
</g>
<g transform="translate(57.4611, 45.1804)">
<rect x="0.0000" y="-2.0000" width="0.2120" height="4.0000" ry="0.0000" fill="currentColor"/>
</g>
<g transform="translate(82.1336, 45.1804)">
<rect x="0.0000" y="-2.0000" width="0.2120" height="4.0000" ry="0.0000" fill="currentColor"/>
</g>
<g transform="translate(39.1400, 45.1804)">
<rect x="0.0000" y="-2.0000" width="0.2120" height="4.0000" ry="0.0000" fill="currentColor"/>
</g>
<g transform="translate(20.7556, 45.1804)">
<rect x="0.0000" y="-2.0000" width="0.2120" height="4.0000" ry="0.0000" fill="currentColor"/>
</g>
<g transform="translate(20.2088, 45.1804)">
<rect x="0.0000" y="-2.0000" width="0.2120" height="4.0000" ry="0.0000" fill="currentColor"/>
</g>
<g transform="translate(0.0000, 47.1804)">
<line stroke-linejoin="round" stroke-linecap="round" stroke-width="0.0558" stroke="currentColor" x1="0.0279" y1="0" x2="82.3177" y2="0"/>
</g>
<g transform="translate(0.0000, 46.1804)">
<line stroke-linejoin="round" stroke-linecap="round" stroke-width="0.0558" stroke="currentColor" x1="0.0279" y1="0" x2="82.3177" y2="0"/>
</g>
<g transform="translate(0.0000, 45.1804)">
<line stroke-linejoin="round" stroke-linecap="round" stroke-width="0.0558" stroke="currentColor" x1="0.0279" y1="0" x2="82.3177" y2="0"/>
</g>
<g transform="translate(0.0000, 44.1804)">
<line stroke-linejoin="round" stroke-linecap="round" stroke-width="0.0558" stroke="currentColor" x1="0.0279" y1="0" x2="82.3177" y2="0"/>
</g>
<g transform="translate(0.0000, 43.1804)">
<line stroke-linejoin="round" stroke-linecap="round" stroke-width="0.0558" stroke="currentColor" x1="0.0279" y1="0" x2="82.3177" y2="0"/>
</g>
<g transform="translate(61.8974, 44.6804)">
<path transform="scale(0.0040, -0.0040)" d="M215 137c67 0 111 -37 111 -92c0 -90 -111 -182 -215 -182c-67 0 -111 37 -111 92c0 90 111 182 215 182z" fill="currentColor"/>
</g>
<g transform="translate(60.9421, 50.8490)">
<text font-family="Source Sans Pro" font-size="2.4690" text-anchor="start" fill="currentColor">
<tspan>dle</tspan>
</text>
</g>
<g transform="translate(61.9337, 45.1804)">
<rect x="-0.0363" y="-0.3206" width="0.0725" height="3.1085" ry="0.0363" fill="currentColor"/>
</g>
<g transform="translate(65.0186, 45.1804)">
<path transform="scale(0.0040, -0.0040)" d="M215 137c67 0 111 -37 111 -92c0 -90 -111 -182 -215 -182c-67 0 -111 37 -111 92c0 90 111 182 215 182z" fill="currentColor"/>
</g>
<g transform="translate(64.6056, 50.8490)">
<text font-family="Source Sans Pro" font-size="2.4690" text-anchor="start" fill="currentColor">
<tspan>tó</tspan>
</text>
</g>
<g transform="translate(65.0549, 45.1804)">
<rect x="-0.0363" y="0.1794" width="0.0725" height="2.8206" ry="0.0363" fill="currentColor"/>
</g>
<g transform="translate(70.4543, 50.8490)">
<text font-family="Source Sans Pro" font-size="2.4690" text-anchor="start" fill="currentColor">
<tspan>fa</tspan>
</text>
</g>
<g transform="translate(70.8032, 45.1804)">
<rect x="-0.0363" y="-0.3206" width="0.0725" height="3.1085" ry="0.0363" fill="currentColor"/>
</g>
<g transform="translate(67.8928, 45.1804)">
<path transform="scale(0.0040, -0.0040)" d="M215 137c67 0 111 -37 111 -92c0 -90 -111 -182 -215 -182c-67 0 -111 37 -111 92c0 90 111 182 215 182z" fill="currentColor"/>
</g>
<g transform="translate(67.1985, 50.8490)">
<text font-family="Source Sans Pro" font-size="2.4690" text-anchor="start" fill="currentColor">
<tspan>nů</tspan>
</text>
</g>
<g transform="translate(67.9291, 45.1804)">
<rect x="-0.0363" y="0.1794" width="0.0725" height="2.8206" ry="0.0363" fill="currentColor"/>
</g>
<g transform="translate(70.7670, 44.6804)">
<path transform="scale(0.0040, -0.0040)" d="M215 137c67 0 111 -37 111 -92c0 -90 -111 -182 -215 -182c-67 0 -111 37 -111 92c0 90 111 182 215 182z" fill="currentColor"/>
</g>
<g transform="translate(77.9324, 50.8490)">
<rect x="0.0000" y="-0.5651" width="0.6600" height="0.1451" ry="0.0446" fill="currentColor"/>
</g>
<g transform="translate(54.5869, 45.1804)">
<path transform="scale(0.0040, -0.0040)" d="M215 137c67 0 111 -37 111 -92c0 -90 -111 -182 -215 -182c-67 0 -111 37 -111 92c0 90 111 182 215 182z" fill="currentColor"/>
</g>
<g transform="translate(53.5513, 50.8490)">
<text font-family="Source Sans Pro" font-size="2.4690" text-anchor="start" fill="currentColor">
<tspan>ten</tspan>
</text>
</g>
<g transform="translate(54.6232, 45.1804)">
<rect x="-0.0363" y="0.1794" width="0.0725" height="3.1956" ry="0.0363" fill="currentColor"/>
</g>
<g transform="translate(54.6595, 48.5084)">
<path transform="scale(0.0040, -0.0040)" d="M0 0h-18v250h18v-250zM0 0v250c96 59 222 149 222 259c0 57 -15 111 -40 162c-3 17 10 29 24 29c8 0 16 -5 21 -13c25 -56 40 -116 40 -178c0 -203 -267 -306 -267 -509z" fill="currentColor"/>
</g>
<g transform="translate(58.8450, 44.6804)">
<path transform="scale(0.0040, -0.0040)" d="M215 137c67 0 111 -37 111 -92c0 -90 -111 -182 -215 -182c-67 0 -111 37 -111 92c0 90 111 182 215 182z" fill="currentColor"/>
</g>
<g transform="translate(58.1508, 50.8490)">
<text font-family="Source Sans Pro" font-size="2.4690" text-anchor="start" fill="currentColor">
<tspan>po</tspan>
</text>
</g>
<g transform="translate(58.8813, 45.1804)">
<rect x="-0.0363" y="-0.3206" width="0.0725" height="3.1085" ry="0.0363" fill="currentColor"/>
</g>
<g transform="translate(33.1151, 50.8490)">
<rect x="0.0000" y="-0.5651" width="0.6600" height="0.1451" ry="0.0446" fill="currentColor"/>
</g>
<g transform="translate(58.8450, 47.9683)">
<polygon stroke-linejoin="round" stroke-linecap="round" stroke-width="0.0941" fill="currentColor" stroke="currentColor" points="3.0779 -0.1929 3.0779 0.1929 0.0471 0.1929 0.0471 -0.1929"/>
</g>
<g transform="translate(65.0186, 48.1804)">
<polygon stroke-linejoin="round" stroke-linecap="round" stroke-width="0.0941" fill="currentColor" stroke="currentColor" points="2.8996 -0.1929 2.8996 0.1929 0.0471 0.1929 0.0471 -0.1929"/>
</g>
<g transform="translate(66.8045, 50.8490)">
<rect x="0.0000" y="-0.5651" width="0.3241" height="0.1451" ry="0.0446" fill="currentColor"/>
</g>
<g transform="translate(70.7670, 47.9683)">
<polygon stroke-linejoin="round" stroke-linecap="round" stroke-width="0.0941" fill="currentColor" stroke="currentColor" points="2.8996 -0.1929 2.8996 0.1929 0.0471 0.1929 0.0471 -0.1929"/>
</g>
<g transform="translate(72.4953, 50.8490)">
<rect x="0.0000" y="-0.5651" width="0.6600" height="0.1451" ry="0.0446" fill="currentColor"/>
</g>
<g transform="translate(75.5804, 50.8490)">
<rect x="0.0000" y="-0.5651" width="0.6600" height="0.1451" ry="0.0446" fill="currentColor"/>
</g>
<g transform="translate(76.5153, 48.1804)">
<polygon stroke-linejoin="round" stroke-linecap="round" stroke-width="0.0941" fill="currentColor" stroke="currentColor" points="2.8996 -0.1929 2.8996 0.1929 0.0471 0.1929 0.0471 -0.1929"/>
</g>
<g transform="translate(73.6411, 44.6804)">
<path transform="scale(0.0040, -0.0040)" d="M215 137c67 0 111 -37 111 -92c0 -90 -111 -182 -215 -182c-67 0 -111 37 -111 92c0 90 111 182 215 182z" fill="currentColor"/>
</g>
<g transform="translate(73.2682, 50.8490)">
<text font-family="Source Sans Pro" font-size="2.4690" text-anchor="start" fill="currentColor">
<tspan>ra</tspan>
</text>
</g>
<g transform="translate(73.6774, 45.1804)">
<rect x="-0.0363" y="-0.3206" width="0.0725" height="3.1085" ry="0.0363" fill="currentColor"/>
</g>
<g transform="translate(76.5153, 45.1804)">
<path transform="scale(0.0040, -0.0040)" d="M215 137c67 0 111 -37 111 -92c0 -90 -111 -182 -215 -182c-67 0 -111 37 -111 92c0 90 111 182 215 182z" fill="currentColor"/>
</g>
<g transform="translate(76.5039, 50.8490)">
<text font-family="Source Sans Pro" font-size="2.4690" text-anchor="start" fill="currentColor">
<tspan>ó</tspan>
</text>
</g>
<g transform="translate(76.5516, 45.1804)">
<rect x="-0.0363" y="0.1794" width="0.0725" height="2.8206" ry="0.0363" fill="currentColor"/>
</g>
<g transform="translate(79.3895, 45.1804)">
<path transform="scale(0.0040, -0.0040)" d="M215 137c67 0 111 -37 111 -92c0 -90 -111 -182 -215 -182c-67 0 -111 37 -111 92c0 90 111 182 215 182z" fill="currentColor"/>
</g>
<g transform="translate(78.6952, 50.8490)">
<text font-family="Source Sans Pro" font-size="2.4690" text-anchor="start" fill="currentColor">
<tspan>nů</tspan>
</text>
</g>
<g transform="translate(79.4257, 45.1804)">
<rect x="-0.0363" y="0.1794" width="0.0725" height="2.8206" ry="0.0363" fill="currentColor"/>
</g>
<g transform="translate(22.1395, 44.6804)">
<path transform="scale(0.0040, -0.0040)" d="M215 137c67 0 111 -37 111 -92c0 -90 -111 -182 -215 -182c-67 0 -111 37 -111 92c0 90 111 182 215 182z" fill="currentColor"/>
</g>
<g transform="translate(20.7423, 50.8490)">
<text font-family="Source Sans Pro" font-size="2.4690" text-anchor="start" fill="currentColor">
<tspan>Kdo</tspan>
</text>
</g>
<g transform="translate(15.4844, 50.8490)">
<text font-family="serif" font-weight="bold" font-size="2.4690" text-anchor="start" fill="currentColor">
<tspan>Ref.</tspan>
</text>
</g>
<g transform="translate(22.1758, 45.1804)">
<rect x="-0.0363" y="-0.3206" width="0.0725" height="3.3206" ry="0.0363" fill="currentColor"/>
</g>
<g transform="translate(13.9947, 45.1804)">
<path transform="scale(0.0040, -0.0040)" d="M364 0h-353c-6 0 -11 5 -11 11v134c0 6 5 11 11 11h353c6 0 11 -5 11 -11v-134c0 -6 -5 -11 -11 -11z" fill="currentColor"/>
</g>
<g transform="translate(26.5850, 45.1804)">
<path transform="scale(0.0040, -0.0040)" d="M215 137c67 0 111 -37 111 -92c0 -90 -111 -182 -215 -182c-67 0 -111 37 -111 92c0 90 111 182 215 182z" fill="currentColor"/>
</g>
<g transform="translate(26.1117, 50.8490)">
<text font-family="Source Sans Pro" font-size="2.4690" text-anchor="start" fill="currentColor">
<tspan>se</tspan>
</text>
</g>
<g transform="translate(50.3972, 45.1804)">
<rect x="-0.0363" y="-2.5000" width="0.0725" height="3.3206" ry="0.0363" fill="currentColor"/>
</g>
<g transform="translate(6.2215, 41.5831)">
<g>
<path transform="scale(0.0025, -0.0025)" d="M94 66c-60 0 -39 -66 -72 -66c-11 0 -22 7 -22 21c0 154 232 162 232 334c0 50 -17 102 -61 102c-33 0 -66 -14 -66 -44c0 -24 31 -37 31 -61c0 -34 -27 -61 -61 -61s-61 27 -61 61c0 84 72 148 157 148c98 0 190 -55 190 -145c0 -140 -131 -154 -225 -205
c85 -2 113 -61 165 -61c45 0 28 41 57 41c11 0 22 -8 22 -21c0 -29 -48 -109 -144 -109c-92 0 -96 66 -142 66z" fill="currentColor"/>

<path transform="translate(1.0042, 0.0000) scale(0.0025, -0.0025)" d="M0 51c0 28 23 51 51 51s51 -23 51 -51s-23 -51 -51 -51s-51 23 -51 51z" fill="currentColor"/>
</g>
</g>
<g transform="translate(5.4000, 39.8232)">
<line stroke-linejoin="round" stroke-linecap="round" stroke-width="0.1786" stroke="currentColor" x1="14.8980" y1="-0.0000" x2="14.8980" y2="-0.0000"/>
</g>
<g transform="translate(5.4000, 39.8232)">
<line stroke-linejoin="round" stroke-linecap="round" stroke-width="0.1786" stroke="currentColor" x1="-0.0893" y1="-0.0000" x2="-0.0893" y2="2.0000"/>
</g>
<g transform="translate(5.4000, 39.8232)">
<line stroke-linejoin="round" stroke-linecap="round" stroke-width="0.1786" stroke="currentColor" x1="-0.0893" y1="-0.0000" x2="14.8980" y2="-0.0000"/>
</g>
<g transform="translate(0.8000, 46.1804)">
<path transform="scale(0.0040, -0.0040)" d="M646 2c0 -113 -74 -213 -180 -247c3 -34 5 -68 5 -102c0 -20 -1 -40 -2 -60c-7 -121 -91 -228 -209 -228c-108 0 -196 87 -196 196c0 58 53 104 112 104c54 0 95 -48 95 -104c0 -52 -43 -95 -95 -95c-10 0 -20 2 -29 6c26 -38 68 -63 116 -63h3c93 2 153 92 159 190
c1 19 2 37 2 56c0 30 -2 60 -4 90c-5 -1 -43 -8 -88 -8c-194 0 -333 180 -333 375c0 177 130 307 246 442c-31 98 -53 170 -53 347c0 115 55 223 148 290c7 5 16 4 22 -1c68 -80 134 -243 134 -357c0 -143 -85 -255 -178 -364c21 -68 40 -137 57 -206c1 0 5 1 11 1
c156 0 257 -129 257 -262zM462 -202c66 24 111 88 111 162c0 89 -65 178 -170 190c28 -135 50 -272 59 -352zM75 26c0 -145 141 -245 263 -245c1 0 46 0 81 6c-7 65 -27 206 -61 363c-79 -8 -124 -61 -124 -119c0 -43 25 -89 80 -121c5 -5 7 -11 7 -16
c0 -12 -10 -23 -22 -23c-16 0 -127 63 -127 188c0 89 58 175 161 198c-14 58 -29 116 -46 173c-106 -122 -212 -244 -212 -404zM406 1042c-99 -47 -162 -148 -162 -257c0 -49 13 -111 38 -191c79 97 144 199 144 324c0 33 0 63 -20 124z" fill="currentColor"/>
</g>
<g transform="translate(4.3000, 43.1804)">
<path transform="scale(0.0040, -0.0040)" d="M0 117c0 9 6 18 15 21l43 16v157c0 11 8 19 19 19s20 -8 20 -19v-142l81 30v156c0 11 9 20 20 20s19 -9 19 -20v-142l28 11c3 1 5 1 8 1c12 0 22 -10 22 -23v-57c0 -9 -6 -18 -15 -21l-43 -16v-157l28 10c3 1 5 1 8 1c12 0 22 -9 22 -22v-57c0 -9 -6 -18 -15 -21l-43 -16
v-157c0 -11 -8 -19 -19 -19s-20 8 -20 19v142l-81 -30v-156c0 -11 -9 -20 -20 -20s-19 9 -19 20v142l-28 -11c-3 -1 -5 -1 -8 -1c-12 0 -22 10 -22 23v57c0 9 6 18 15 21l43 16v157l-28 -10c-3 -1 -5 -1 -8 -1c-12 0 -22 9 -22 22v57zM178 94l-81 -30v-158l81 30v158z" fill="currentColor"/>
</g>
<g transform="translate(26.6213, 45.1804)">
<rect x="-0.0363" y="0.1794" width="0.0725" height="3.1540" ry="0.0363" fill="currentColor"/>
</g>
<g transform="translate(7.9000, 46.1804)">
<path transform="scale(0.0040, -0.0040)" d="M312 64c0 23 -18 41 -41 41c-39 0 -201 -110 -228 -142c-7 -8 -10 -17 -10 -27c0 -23 18 -41 41 -41c39 0 201 110 228 142c7 8 10 17 10 27zM259 137c46 0 86 -17 86 -74c0 -26 -15 -112 -73 -151c-29 -20 -89 -49 -186 -49c-46 0 -86 17 -86 74c0 26 16 112 74 151
c29 20 88 49 185 49z" fill="currentColor"/>
</g>
<g transform="translate(6.1400, 50.8490)">
<text font-family="Source Sans Pro" font-size="2.4690" text-anchor="start" fill="currentColor">
<tspan>zem.</tspan>
</text>
</g>
<g transform="translate(9.2443, 45.1804)">
<rect x="-0.0363" y="-2.5000" width="0.0725" height="3.2470" ry="0.0363" fill="currentColor"/>
</g>
<g transform="translate(39.9502, 50.8490)">
<text font-family="Source Sans Pro" font-size="2.4690" text-anchor="start" fill="currentColor">
<tspan>vo</tspan>
</text>
</g>
<g transform="translate(40.5602, 45.1804)">
<rect x="-0.0363" y="-0.3206" width="0.0725" height="3.3206" ry="0.0363" fill="currentColor"/>
</g>
<g transform="translate(40.5965, 48.1334)">
<path transform="scale(0.0040, -0.0040)" d="M0 0h-18v250h18v-250zM0 0v250c96 59 222 149 222 259c0 57 -15 111 -40 162c-3 17 10 29 24 29c8 0 16 -5 21 -13c25 -56 40 -116 40 -178c0 -203 -267 -306 -267 -509z" fill="currentColor"/>
</g>
<g transform="translate(43.8575, 45.1804)">
<path transform="scale(0.0040, -0.0040)" d="M215 137c67 0 111 -37 111 -92c0 -90 -111 -182 -215 -182c-67 0 -111 37 -111 92c0 90 111 182 215 182z" fill="currentColor"/>
</g>
<g transform="translate(42.5005, 50.8490)">
<text font-family="Source Sans Pro" font-size="2.4690" text-anchor="start" fill="currentColor">
<tspan>dou</tspan>
</text>
</g>
<g transform="translate(45.6063, 44.6804)">
<path transform="scale(0.0040, -0.0040)" d="M0 0c0 31 25 56 56 56s55 -25 55 -56s-24 -56 -55 -56s-56 25 -56 56z" fill="currentColor"/>
</g>
<g transform="translate(43.8938, 45.1804)">
<rect x="-0.0363" y="0.1794" width="0.0725" height="3.1540" ry="0.0363" fill="currentColor"/>
</g>
<g transform="translate(49.1306, 46.1804)">
<path transform="scale(0.0040, -0.0040)" d="M215 137c67 0 111 -37 111 -92c0 -90 -111 -182 -215 -182c-67 0 -111 37 -111 92c0 90 111 182 215 182z" fill="currentColor"/>
</g>
<g transform="translate(48.4565, 50.8490)">
<text font-family="Source Sans Pro" font-size="2.4690" text-anchor="start" fill="currentColor">
<tspan>jít,</tspan>
</text>
</g>
<g transform="translate(50.8794, 45.6804)">
<path transform="scale(0.0040, -0.0040)" d="M0 0c0 31 25 56 56 56s55 -25 55 -56s-24 -56 -55 -56s-56 25 -56 56z" fill="currentColor"/>
</g>
<g transform="translate(33.9542, 50.8490)">
<text font-family="Source Sans Pro" font-size="2.4690" text-anchor="start" fill="currentColor">
<tspan>jí</tspan>
</text>
</g>
<g transform="translate(30.9389, 46.1804)">
<path transform="scale(0.0040, -0.0040)" d="M215 137c67 0 111 -37 111 -92c0 -90 -111 -182 -215 -182c-67 0 -111 37 -111 92c0 90 111 182 215 182z" fill="currentColor"/>
</g>
<g transform="translate(30.2447, 50.8490)">
<text font-family="Source Sans Pro" font-size="2.4690" text-anchor="start" fill="currentColor">
<tspan>bo</tspan>
</text>
</g>
<g transform="translate(32.2055, 45.1804)">
<rect x="-0.0363" y="-2.5000" width="0.0725" height="3.3206" ry="0.0363" fill="currentColor"/>
</g>
<g transform="translate(32.2417, 42.7275)">
<path transform="scale(0.0040, -0.0040)" d="M0 0c0 -197 207 -335 207 -532c0 -71 -15 -141 -41 -207c-5 -8 -13 -12 -21 -12c-14 0 -27 11 -24 28c26 60 42 125 42 191c0 103 -93 207 -163 282h-18v250h18z" fill="currentColor"/>
</g>
<g transform="translate(33.9054, 45.1804)">
<path transform="scale(0.0040, -0.0040)" d="M215 137c67 0 111 -37 111 -92c0 -90 -111 -182 -215 -182c-67 0 -111 37 -111 92c0 90 111 182 215 182z" fill="currentColor"/>
</g>
<g transform="translate(35.6541, 44.6804)">
<path transform="scale(0.0040, -0.0040)" d="M0 0c0 31 25 56 56 56s55 -25 55 -56s-24 -56 -55 -56s-56 25 -56 56z" fill="currentColor"/>
</g>
<g transform="translate(33.9416, 45.1804)">
<rect x="-0.0363" y="0.1794" width="0.0725" height="3.1540" ry="0.0363" fill="currentColor"/>
</g>
<g transform="translate(40.5239, 44.6804)">
<path transform="scale(0.0040, -0.0040)" d="M215 137c67 0 111 -37 111 -92c0 -90 -111 -182 -215 -182c-67 0 -111 37 -111 92c0 90 111 182 215 182z" fill="currentColor"/>
</g>
<g transform="translate(0.0000, 59.5617)">
<line stroke-linejoin="round" stroke-linecap="round" stroke-width="0.0558" stroke="currentColor" x1="0.0279" y1="0" x2="82.3177" y2="0"/>
</g>
<g transform="translate(0.0000, 58.5617)">
<line stroke-linejoin="round" stroke-linecap="round" stroke-width="0.0558" stroke="currentColor" x1="0.0279" y1="0" x2="82.3177" y2="0"/>
</g>
<g transform="translate(0.0000, 57.5617)">
<line stroke-linejoin="round" stroke-linecap="round" stroke-width="0.0558" stroke="currentColor" x1="0.0279" y1="0" x2="82.3177" y2="0"/>
</g>
<g transform="translate(0.0000, 56.5617)">
<line stroke-linejoin="round" stroke-linecap="round" stroke-width="0.0558" stroke="currentColor" x1="0.0279" y1="0" x2="82.3177" y2="0"/>
</g>
<g transform="translate(0.0000, 55.5617)">
<line stroke-linejoin="round" stroke-linecap="round" stroke-width="0.0558" stroke="currentColor" x1="0.0279" y1="0" x2="82.3177" y2="0"/>
</g>
<g transform="translate(69.7934, 57.0617)">
<path transform="scale(0.0040, -0.0040)" d="M0 0c0 31 25 56 56 56s55 -25 55 -56s-24 -56 -55 -56s-56 25 -56 56z" fill="currentColor"/>
</g>
<g transform="translate(69.7934, 58.0617)">
<path transform="scale(0.0040, -0.0040)" d="M0 0c0 31 25 56 56 56s55 -25 55 -56s-24 -56 -55 -56s-56 25 -56 56z" fill="currentColor"/>
</g>
<g transform="translate(71.1210, 57.5617)">
<rect x="0.0000" y="-2.0000" width="0.6696" height="4.0000" ry="0.0000" fill="currentColor"/>
</g>
<g transform="translate(70.5742, 57.5617)">
<rect x="0.0000" y="-2.0000" width="0.2120" height="4.0000" ry="0.0000" fill="currentColor"/>
</g>
<g transform="translate(27.5182, 57.5617)">
<rect x="0.0000" y="-2.0000" width="0.2120" height="4.0000" ry="0.0000" fill="currentColor"/>
</g>
<g transform="translate(18.5988, 57.5617)">
<rect x="0.0000" y="-2.0000" width="0.2120" height="4.0000" ry="0.0000" fill="currentColor"/>
</g>
<g transform="translate(81.6760, 57.5617)">
<rect x="0.0000" y="-2.0000" width="0.6696" height="4.0000" ry="0.0000" fill="currentColor"/>
</g>
<g transform="translate(81.1292, 57.5617)">
<rect x="0.0000" y="-2.0000" width="0.2120" height="4.0000" ry="0.0000" fill="currentColor"/>
</g>
<g transform="translate(40.0384, 57.5617)">
<rect x="0.0000" y="-2.0000" width="0.2120" height="4.0000" ry="0.0000" fill="currentColor"/>
</g>
<g transform="translate(57.3976, 57.5617)">
<rect x="0.0000" y="-2.0000" width="0.2120" height="4.0000" ry="0.0000" fill="currentColor"/>
</g>
<g transform="translate(58.4232, 58.5617)">
<path transform="scale(0.0040, -0.0040)" d="M312 64c0 23 -18 41 -41 41c-39 0 -201 -110 -228 -142c-7 -8 -10 -17 -10 -27c0 -23 18 -41 41 -41c39 0 201 110 228 142c7 8 10 17 10 27zM259 137c46 0 86 -17 86 -74c0 -26 -15 -112 -73 -151c-29 -20 -89 -49 -186 -49c-46 0 -86 17 -86 74c0 26 16 112 74 151
c29 20 88 49 185 49z" fill="currentColor"/>
</g>
<g transform="translate(58.4232, 63.0617)">
<text font-family="Source Sans Pro" font-size="2.4690" text-anchor="start" fill="currentColor">
<tspan>zem.</tspan>
</text>
</g>
<g transform="translate(59.7676, 57.5617)">
<rect x="-0.0363" y="-2.5000" width="0.0725" height="3.2470" ry="0.0363" fill="currentColor"/>
</g>
<g transform="translate(62.6261, 57.5617)">
<path transform="scale(0.0040, -0.0040)" d="M-8 78c0 59 125 83 125 182c0 25 -9 49 -26 69l-33 40c-3 4 -4 7 -4 11c0 9 9 17 18 17c4 0 8 -2 12 -6l150 -179c7 -9 11 -18 11 -26c0 -59 -125 -83 -125 -182c0 -25 8 -49 25 -69l82 -97c3 -4 4 -7 4 -11c0 -9 -8 -17 -17 -17c-10 0 -42 42 -106 42
c-19 0 -54 -1 -54 -66c0 -34 10 -73 27 -93c7 -9 -5 -20 -12 -11c-45 53 -93 147 -93 201c0 42 27 42 43 42c31 0 74 -11 113 -27l-129 154c-7 9 -11 18 -11 26z" fill="currentColor"/>
</g>
<g transform="translate(46.1517, 60.0617)">
<path transform="scale(0.0040, -0.0040)" d="M215 137c67 0 111 -37 111 -92c0 -90 -111 -182 -215 -182c-67 0 -111 37 -111 92c0 90 111 182 215 182z" fill="currentColor"/>
</g>
<g transform="translate(45.0558, 63.0617)">
<text font-family="Source Sans Pro" font-size="2.4690" text-anchor="start" fill="currentColor">
<tspan>svo</tspan>
</text>
</g>
<g transform="translate(47.4182, 57.5617)">
<rect x="-0.0363" y="-1.0000" width="0.0725" height="3.3206" ry="0.0363" fill="currentColor"/>
</g>
<g transform="translate(54.7281, 57.5617)">
<rect x="-0.0363" y="-2.5000" width="0.0725" height="3.3206" ry="0.0363" fill="currentColor"/>
</g>
<g transform="translate(47.4545, 56.6087)">
<path transform="scale(0.0040, -0.0040)" d="M0 0c0 -197 207 -335 207 -532c0 -71 -15 -141 -41 -207c-5 -8 -13 -12 -21 -12c-14 0 -27 11 -24 28c26 60 42 125 42 191c0 103 -93 207 -163 282h-18v250h18z" fill="currentColor"/>
</g>
<g transform="translate(50.0276, 59.5617)">
<path transform="scale(0.0040, -0.0040)" d="M215 137c67 0 111 -37 111 -92c0 -90 -111 -182 -215 -182c-67 0 -111 37 -111 92c0 90 111 182 215 182z" fill="currentColor"/>
</g>
<g transform="translate(48.6504, 63.0617)">
<text font-family="Source Sans Pro" font-size="2.4690" text-anchor="start" fill="currentColor">
<tspan>bod</tspan>
</text>
</g>
<g transform="translate(51.2941, 57.5617)">
<rect x="-0.0363" y="-1.5000" width="0.0725" height="3.3206" ry="0.0363" fill="currentColor"/>
</g>
<g transform="translate(51.3304, 56.1087)">
<path transform="scale(0.0040, -0.0040)" d="M0 0c0 -197 207 -335 207 -532c0 -71 -15 -141 -41 -207c-5 -8 -13 -12 -21 -12c-14 0 -27 11 -24 28c26 60 42 125 42 191c0 103 -93 207 -163 282h-18v250h18z" fill="currentColor"/>
</g>
<g transform="translate(53.4615, 58.5617)">
<path transform="scale(0.0040, -0.0040)" d="M215 137c67 0 111 -37 111 -92c0 -90 -111 -182 -215 -182c-67 0 -111 37 -111 92c0 90 111 182 215 182z" fill="currentColor"/>
</g>
<g transform="translate(52.8075, 63.0617)">
<text font-family="Source Sans Pro" font-size="2.4690" text-anchor="start" fill="currentColor">
<tspan>ná</tspan>
</text>
</g>
<g transform="translate(55.2103, 58.0617)">
<path transform="scale(0.0040, -0.0040)" d="M0 0c0 31 25 56 56 56s55 -25 55 -56s-24 -56 -55 -56s-56 25 -56 56z" fill="currentColor"/>
</g>
<g transform="translate(76.8070, 57.5617)">
<path transform="scale(0.0040, -0.0040)" d="M364 0h-353c-6 0 -11 5 -11 11v134c0 6 5 11 11 11h353c6 0 11 -5 11 -11v-134c0 -6 -5 -11 -11 -11z" fill="currentColor"/>
</g>
<g transform="translate(21.8081, 63.0617)">
<rect x="0.0000" y="-0.5651" width="0.3000" height="0.1451" ry="0.0446" fill="currentColor"/>
</g>
<g transform="translate(30.8978, 63.0617)">
<rect x="0.0000" y="-0.5651" width="0.3000" height="0.1451" ry="0.0446" fill="currentColor"/>
</g>
<g transform="translate(58.4311, 54.2194)">
<g>
<path transform="scale(0.0025, -0.0025)" d="M194 486c16 0 29 15 41 15c13 0 24 -13 24 -31v-341c0 -47 35 -86 81 -86c14 0 21 -10 21 -21s-7 -22 -21 -22c-49 0 -97 14 -146 14s-96 -14 -145 -14c-14 0 -22 11 -22 22s8 21 22 21c46 0 80 39 80 86v137c0 23 -16 35 -30 35c-7 0 -13 -4 -17 -11l-34 -65
c-5 -10 -14 -15 -23 -15c-14 0 -28 12 -28 27c0 4 1 8 3 13l129 250c2 4 7 6 11 6c18 0 37 -20 54 -20z" fill="currentColor"/>

<path transform="translate(0.9640, 0.0000) scale(0.0025, -0.0025)" d="M0 51c0 28 23 51 51 51s51 -23 51 -51s-23 -51 -51 -51s-51 23 -51 51z" fill="currentColor"/>


<path transform="translate(1.3657, 0.0000) scale(0.0025, -0.0025)" d="M94 66c-60 0 -39 -66 -72 -66c-11 0 -22 7 -22 21c0 154 232 162 232 334c0 50 -17 102 -61 102c-33 0 -66 -14 -66 -44c0 -24 31 -37 31 -61c0 -34 -27 -61 -61 -61s-61 27 -61 61c0 84 72 148 157 148c98 0 190 -55 190 -145c0 -140 -131 -154 -225 -205
c85 -2 113 -61 165 -61c45 0 28 41 57 41c11 0 22 -8 22 -21c0 -29 -48 -109 -144 -109c-92 0 -96 66 -142 66z" fill="currentColor"/>

<path transform="translate(2.3699, 0.0000) scale(0.0025, -0.0025)" d="M0 51c0 28 23 51 51 51s51 -23 51 -51s-23 -51 -51 -51s-51 23 -51 51z" fill="currentColor"/>
</g>
</g>
<g transform="translate(57.3976, 52.4445)">
<line stroke-linejoin="round" stroke-linecap="round" stroke-width="0.1786" stroke="currentColor" x1="13.2658" y1="-0.0000" x2="13.2658" y2="2.0000"/>
</g>
<g transform="translate(57.3976, 52.4445)">
<line stroke-linejoin="round" stroke-linecap="round" stroke-width="0.1786" stroke="currentColor" x1="0.1228" y1="-0.0000" x2="0.1228" y2="2.0000"/>
</g>
<g transform="translate(57.3976, 52.4445)">
<line stroke-linejoin="round" stroke-linecap="round" stroke-width="0.1786" stroke="currentColor" x1="0.1228" y1="-0.0000" x2="13.2658" y2="-0.0000"/>
</g>
<g transform="translate(65.4576, 57.5617)">
<path transform="scale(0.0040, -0.0040)" d="M70 205c80 0 46 -97 90 -97c15 0 52 45 59 59c6 13 26 13 31 0l-121 -417c-9 -7 -19 -11 -30 -11s-21 4 -30 11l118 326c-33 -12 -68 -22 -103 -22c-47 0 -87 34 -87 79c0 40 33 72 73 72z" fill="currentColor"/>
</g>
<g transform="translate(67.3983, 60.0617)">
<path transform="scale(0.0040, -0.0040)" d="M215 137c67 0 111 -37 111 -92c0 -90 -111 -182 -215 -182c-67 0 -111 37 -111 92c0 90 111 182 215 182z" fill="currentColor"/>
</g>
<g transform="translate(68.6649, 57.5617)">
<rect x="-0.0363" y="-1.0000" width="0.0725" height="3.3206" ry="0.0363" fill="currentColor"/>
</g>
<g transform="translate(68.7011, 56.6087)">
<path transform="scale(0.0040, -0.0040)" d="M0 0c0 -197 207 -335 207 -532c0 -71 -15 -141 -41 -207c-5 -8 -13 -12 -21 -12c-14 0 -27 11 -24 28c26 60 42 125 42 191c0 103 -93 207 -163 282h-18v250h18z" fill="currentColor"/>
</g>
<g transform="translate(72.6041, 58.5617)">
<path transform="scale(0.0040, -0.0040)" d="M312 64c0 23 -18 41 -41 41c-39 0 -201 -110 -228 -142c-7 -8 -10 -17 -10 -27c0 -23 18 -41 41 -41c39 0 201 110 228 142c7 8 10 17 10 27zM259 137c46 0 86 -17 86 -74c0 -26 -15 -112 -73 -151c-29 -20 -89 -49 -186 -49c-46 0 -86 17 -86 74c0 26 16 112 74 151
c29 20 88 49 185 49z" fill="currentColor"/>
</g>
<g transform="translate(70.8441, 63.0617)">
<text font-family="Source Sans Pro" font-size="2.4690" text-anchor="start" fill="currentColor">
<tspan>zem.</tspan>
</text>
</g>
<g transform="translate(73.9484, 57.5617)">
<rect x="-0.0363" y="-2.5000" width="0.0725" height="3.2470" ry="0.0363" fill="currentColor"/>
</g>
<g transform="translate(12.2593, 57.0617)">
<path transform="scale(0.0040, -0.0040)" d="M0 0c0 31 25 56 56 56s55 -25 55 -56s-24 -56 -55 -56s-56 25 -56 56z" fill="currentColor"/>
</g>
<g transform="translate(10.5468, 57.5617)">
<rect x="-0.0363" y="0.1794" width="0.0725" height="3.1540" ry="0.0363" fill="currentColor"/>
</g>
<g transform="translate(14.2355, 58.0617)">
<path transform="scale(0.0040, -0.0040)" d="M312 64c0 23 -18 41 -41 41c-39 0 -201 -110 -228 -142c-7 -8 -10 -17 -10 -27c0 -23 18 -41 41 -41c39 0 201 110 228 142c7 8 10 17 10 27zM259 137c46 0 86 -17 86 -74c0 -26 -15 -112 -73 -151c-29 -20 -89 -49 -186 -49c-46 0 -86 17 -86 74c0 26 16 112 74 151
c29 20 88 49 185 49z" fill="currentColor"/>
</g>
<g transform="translate(13.3793, 63.0617)">
<text font-family="Source Sans Pro" font-size="2.4690" text-anchor="start" fill="currentColor">
<tspan>žít.</tspan>
</text>
</g>
<g transform="translate(15.5798, 57.5617)">
<rect x="-0.0363" y="-3.0000" width="0.0725" height="3.2470" ry="0.0363" fill="currentColor"/>
</g>
<g transform="translate(19.6244, 58.5617)">
<path transform="scale(0.0040, -0.0040)" d="M215 137c67 0 111 -37 111 -92c0 -90 -111 -182 -215 -182c-67 0 -111 37 -111 92c0 90 111 182 215 182z" fill="currentColor"/>
</g>
<g transform="translate(10.3385, 63.0617)">
<text font-family="Source Sans Pro" font-size="2.4690" text-anchor="start" fill="currentColor">
<tspan>sí</tspan>
</text>
</g>
<g transform="translate(18.7494, 63.0617)">
<text font-family="Source Sans Pro" font-size="2.4690" text-anchor="start" fill="currentColor">
<tspan>Má</tspan>
</text>
</g>
<g transform="translate(20.8910, 57.5617)">
<rect x="-0.0363" y="-2.5000" width="0.0725" height="3.3206" ry="0.0363" fill="currentColor"/>
</g>
<g transform="translate(72.6120, 54.2043)">
<g>
<path transform="scale(0.0025, -0.0025)" d="M261 266c0 -54 85 -40 85 -125c0 -94 -83 -141 -186 -141c-84 0 -160 54 -160 133c0 32 26 58 58 58s58 -26 58 -58c0 -22 -36 -26 -36 -48c0 -33 42 -42 80 -42c41 0 56 50 56 98v21c0 44 -2 77 -43 77h-65c-18 0 -27 14 -27 27s9 27 27 27h65c42 0 43 36 43 83v11
c0 43 -20 70 -61 70c-34 0 -71 -8 -71 -38c0 -19 32 -23 32 -42c0 -28 -23 -51 -51 -51s-51 23 -51 51c0 72 66 123 141 123c93 0 174 -31 174 -113c0 -94 -68 -67 -68 -121z" fill="currentColor"/>

<path transform="translate(0.9239, 0.0000) scale(0.0025, -0.0025)" d="M0 51c0 28 23 51 51 51s51 -23 51 -51s-23 -51 -51 -51s-51 23 -51 51z" fill="currentColor"/>
</g>
</g>
<g transform="translate(70.5742, 52.4445)">
<line stroke-linejoin="round" stroke-linecap="round" stroke-width="0.1786" stroke="currentColor" x1="11.6822" y1="-0.0000" x2="11.6822" y2="2.0000"/>
</g>
<g transform="translate(70.5742, 52.4445)">
<line stroke-linejoin="round" stroke-linecap="round" stroke-width="0.1786" stroke="currentColor" x1="1.1271" y1="-0.0000" x2="1.1271" y2="2.0000"/>
</g>
<g transform="translate(70.5742, 52.4445)">
<line stroke-linejoin="round" stroke-linecap="round" stroke-width="0.1786" stroke="currentColor" x1="1.1271" y1="-0.0000" x2="11.6822" y2="-0.0000"/>
</g>
<g transform="translate(0.8000, 58.5617)">
<path transform="scale(0.0040, -0.0040)" d="M646 2c0 -113 -74 -213 -180 -247c3 -34 5 -68 5 -102c0 -20 -1 -40 -2 -60c-7 -121 -91 -228 -209 -228c-108 0 -196 87 -196 196c0 58 53 104 112 104c54 0 95 -48 95 -104c0 -52 -43 -95 -95 -95c-10 0 -20 2 -29 6c26 -38 68 -63 116 -63h3c93 2 153 92 159 190
c1 19 2 37 2 56c0 30 -2 60 -4 90c-5 -1 -43 -8 -88 -8c-194 0 -333 180 -333 375c0 177 130 307 246 442c-31 98 -53 170 -53 347c0 115 55 223 148 290c7 5 16 4 22 -1c68 -80 134 -243 134 -357c0 -143 -85 -255 -178 -364c21 -68 40 -137 57 -206c1 0 5 1 11 1
c156 0 257 -129 257 -262zM462 -202c66 24 111 88 111 162c0 89 -65 178 -170 190c28 -135 50 -272 59 -352zM75 26c0 -145 141 -245 263 -245c1 0 46 0 81 6c-7 65 -27 206 -61 363c-79 -8 -124 -61 -124 -119c0 -43 25 -89 80 -121c5 -5 7 -11 7 -16
c0 -12 -10 -23 -22 -23c-16 0 -127 63 -127 188c0 89 58 175 161 198c-14 58 -29 116 -46 173c-106 -122 -212 -244 -212 -404zM406 1042c-99 -47 -162 -148 -162 -257c0 -49 13 -111 38 -191c79 97 144 199 144 324c0 33 0 63 -20 124z" fill="currentColor"/>
</g>
<g transform="translate(4.3000, 55.5617)">
<path transform="scale(0.0040, -0.0040)" d="M0 117c0 9 6 18 15 21l43 16v157c0 11 8 19 19 19s20 -8 20 -19v-142l81 30v156c0 11 9 20 20 20s19 -9 19 -20v-142l28 11c3 1 5 1 8 1c12 0 22 -10 22 -23v-57c0 -9 -6 -18 -15 -21l-43 -16v-157l28 10c3 1 5 1 8 1c12 0 22 -9 22 -22v-57c0 -9 -6 -18 -15 -21l-43 -16
v-157c0 -11 -8 -19 -19 -19s-20 8 -20 19v142l-81 -30v-156c0 -11 -9 -20 -20 -20s-19 9 -19 20v142l-28 -11c-3 -1 -5 -1 -8 -1c-12 0 -22 10 -22 23v57c0 9 6 18 15 21l43 16v157l-28 -10c-3 -1 -5 -1 -8 -1c-12 0 -22 9 -22 22v57zM178 94l-81 -30v-158l81 30v158z" fill="currentColor"/>
</g>
<g transform="translate(7.9000, 57.0617)">
<path transform="scale(0.0040, -0.0040)" d="M215 137c67 0 111 -37 111 -92c0 -90 -111 -182 -215 -182c-67 0 -111 37 -111 92c0 90 111 182 215 182z" fill="currentColor"/>
</g>
<g transform="translate(6.8643, 63.0617)">
<text font-family="Source Sans Pro" font-size="2.4690" text-anchor="start" fill="currentColor">
<tspan>mu</tspan>
</text>
</g>
<g transform="translate(7.9363, 57.5617)">
<rect x="-0.0363" y="-0.3206" width="0.0725" height="3.3206" ry="0.0363" fill="currentColor"/>
</g>
<g transform="translate(7.9725, 60.5146)">
<path transform="scale(0.0040, -0.0040)" d="M0 0h-18v250h18v-250zM0 0v250c96 59 222 149 222 259c0 57 -15 111 -40 162c-3 17 10 29 24 29c8 0 16 -5 21 -13c25 -56 40 -116 40 -178c0 -203 -267 -306 -267 -509z" fill="currentColor"/>
</g>
<g transform="translate(10.5105, 57.5617)">
<path transform="scale(0.0040, -0.0040)" d="M215 137c67 0 111 -37 111 -92c0 -90 -111 -182 -215 -182c-67 0 -111 37 -111 92c0 90 111 182 215 182z" fill="currentColor"/>
</g>
<g transform="translate(35.7117, 59.5617)">
<path transform="scale(0.0040, -0.0040)" d="M215 137c67 0 111 -37 111 -92c0 -90 -111 -182 -215 -182c-67 0 -111 37 -111 92c0 90 111 182 215 182z" fill="currentColor"/>
</g>
<g transform="translate(31.7281, 58.5617)">
<path transform="scale(0.0040, -0.0040)" d="M312 64c0 23 -18 41 -41 41c-39 0 -201 -110 -228 -142c-7 -8 -10 -17 -10 -27c0 -23 18 -41 41 -41c39 0 201 110 228 142c7 8 10 17 10 27zM259 137c46 0 86 -17 86 -74c0 -26 -15 -112 -73 -151c-29 -20 -89 -49 -186 -49c-46 0 -86 17 -86 74c0 26 16 112 74 151
c29 20 88 49 185 49z" fill="currentColor"/>
</g>
<g transform="translate(31.2535, 63.0617)">
<text font-family="Source Sans Pro" font-size="2.4690" text-anchor="start" fill="currentColor">
<tspan>vá</tspan>
</text>
</g>
<g transform="translate(33.0724, 57.5617)">
<rect x="-0.0363" y="-2.5000" width="0.0725" height="3.2470" ry="0.0363" fill="currentColor"/>
</g>
<g transform="translate(34.0333, 63.0617)">
<text font-family="Source Sans Pro" font-size="2.4690" text-anchor="start" fill="currentColor">
<tspan>nám</tspan>
</text>
</g>
<g transform="translate(36.9782, 57.5617)">
<rect x="-0.0363" y="-1.5000" width="0.0725" height="3.3206" ry="0.0363" fill="currentColor"/>
</g>
<g transform="translate(41.2229, 60.0617)">
<path transform="scale(0.0040, -0.0040)" d="M215 137c67 0 111 -37 111 -92c0 -90 -111 -182 -215 -182c-67 0 -111 37 -111 92c0 90 111 182 215 182z" fill="currentColor"/>
</g>
<g transform="translate(39.1428, 63.0617)">
<text font-family="Source Sans Pro" font-size="2.4690" text-anchor="start" fill="currentColor">
<tspan>všem</tspan>
</text>
</g>
<g transform="translate(42.9717, 60.0617)">
<path transform="scale(0.0040, -0.0040)" d="M0 0c0 31 25 56 56 56s55 -25 55 -56s-24 -56 -55 -56s-56 25 -56 56z" fill="currentColor"/>
</g>
<g transform="translate(42.4894, 57.5617)">
<rect x="-0.0363" y="-1.0000" width="0.0725" height="3.3206" ry="0.0363" fill="currentColor"/>
</g>
<g transform="translate(22.9261, 57.5617)">
<rect x="-0.0363" y="0.2530" width="0.0725" height="3.0804" ry="0.0363" fill="currentColor"/>
</g>
<g transform="translate(27.5483, 63.0617)">
<text font-family="Source Sans Pro" font-size="2.4690" text-anchor="start" fill="currentColor">
<tspan>má</tspan>
</text>
</g>
<g transform="translate(28.5438, 58.0617)">
<path transform="scale(0.0040, -0.0040)" d="M215 137c67 0 111 -37 111 -92c0 -90 -111 -182 -215 -182c-67 0 -111 37 -111 92c0 90 111 182 215 182z" fill="currentColor"/>
</g>
<g transform="translate(24.7164, 57.0617)">
<path transform="scale(0.0040, -0.0040)" d="M0 0c0 31 25 56 56 56s55 -25 55 -56s-24 -56 -55 -56s-56 25 -56 56z" fill="currentColor"/>
</g>
<g transform="translate(29.8103, 57.5617)">
<rect x="-0.0363" y="-3.0000" width="0.0725" height="3.3206" ry="0.0363" fill="currentColor"/>
</g>
<g transform="translate(22.1140, 63.0617)">
<text font-family="Source Sans Pro" font-size="2.4690" text-anchor="start" fill="currentColor">
<tspan>vá,</tspan>
</text>
</g>
<g transform="translate(22.8898, 57.5617)">
<path transform="scale(0.0040, -0.0040)" d="M312 64c0 23 -18 41 -41 41c-39 0 -201 -110 -228 -142c-7 -8 -10 -17 -10 -27c0 -23 18 -41 41 -41c39 0 201 110 228 142c7 8 10 17 10 27zM259 137c46 0 86 -17 86 -74c0 -26 -15 -112 -73 -151c-29 -20 -89 -49 -186 -49c-46 0 -86 17 -86 74c0 26 16 112 74 151
c29 20 88 49 185 49z" fill="currentColor"/>
</g>
</svg>
