<svg xmlns="http://www.w3.org/2000/svg" xmlns:xlink="http://www.w3.org/1999/xlink" version="1.2"   viewBox="0.0000 -0.0000 82.3456 46.93835">
<style type="text/css">
<![CDATA[
tspan { white-space: pre; }
]]>
</style>
<g transform="translate(0.0000, 6.1075)">
<line stroke-linejoin="round" stroke-linecap="round" stroke-width="0.0558" stroke="currentColor" x1="0.0279" y1="0" x2="82.3177" y2="0"/>
</g>
<g transform="translate(0.0000, 5.1075)">
<line stroke-linejoin="round" stroke-linecap="round" stroke-width="0.0558" stroke="currentColor" x1="0.0279" y1="0" x2="82.3177" y2="0"/>
</g>
<g transform="translate(0.0000, 4.1075)">
<line stroke-linejoin="round" stroke-linecap="round" stroke-width="0.0558" stroke="currentColor" x1="0.0279" y1="0" x2="82.3177" y2="0"/>
</g>
<g transform="translate(0.0000, 3.1075)">
<line stroke-linejoin="round" stroke-linecap="round" stroke-width="0.0558" stroke="currentColor" x1="0.0279" y1="0" x2="82.3177" y2="0"/>
</g>
<g transform="translate(0.0000, 2.1075)">
<line stroke-linejoin="round" stroke-linecap="round" stroke-width="0.0558" stroke="currentColor" x1="0.0279" y1="0" x2="82.3177" y2="0"/>
</g>
<g transform="translate(82.1336, 4.1075)">
<rect x="0.0000" y="-2.0000" width="0.2120" height="4.0000" ry="0.0000" fill="currentColor"/>
</g>
<g transform="translate(66.1514, 4.1075)">
<rect x="0.0000" y="-2.0000" width="0.2120" height="4.0000" ry="0.0000" fill="currentColor"/>
</g>
<g transform="translate(28.5665, 4.1075)">
<rect x="0.0000" y="-2.0000" width="0.2120" height="4.0000" ry="0.0000" fill="currentColor"/>
</g>
<g transform="translate(46.2809, 4.1075)">
<rect x="0.0000" y="-2.0000" width="0.2120" height="4.0000" ry="0.0000" fill="currentColor"/>
</g>
<g transform="translate(0.0000, 7.1075)">
<rect x="35.2804" y="-0.0779" width="1.9542" height="0.1558" ry="0.0779" fill="currentColor"/>
</g>
<g transform="translate(54.5159, 10.2761)">
<text font-family="Source Sans Pro" font-size="2.4690" text-anchor="start" fill="currentColor">
<tspan>já</tspan>
</text>
</g>
<g transform="translate(56.0549, 4.1075)">
<rect x="-0.0363" y="-1.5000" width="0.0725" height="3.3206" ry="0.0363" fill="currentColor"/>
</g>
<g transform="translate(60.3513, 6.1075)">
<path transform="scale(0.0040, -0.0040)" d="M215 137c67 0 111 -37 111 -92c0 -90 -111 -182 -215 -182c-67 0 -111 37 -111 92c0 90 111 182 215 182z" fill="currentColor"/>
</g>
<g transform="translate(59.6772, 10.2761)">
<text font-family="Source Sans Pro" font-size="2.4690" text-anchor="start" fill="currentColor">
<tspan>hú</tspan>
</text>
</g>
<g transform="translate(61.6179, 4.1075)">
<rect x="-0.0363" y="-1.5000" width="0.0725" height="3.3206" ry="0.0363" fill="currentColor"/>
</g>
<g transform="translate(67.6122, 5.1075)">
<path transform="scale(0.0040, -0.0040)" d="M215 137c67 0 111 -37 111 -92c0 -90 -111 -182 -215 -182c-67 0 -111 37 -111 92c0 90 111 182 215 182z" fill="currentColor"/>
</g>
<g transform="translate(66.9782, 10.2761)">
<text font-family="Source Sans Pro" font-size="2.4690" text-anchor="start" fill="currentColor">
<tspan>ha</tspan>
</text>
</g>
<g transform="translate(68.8788, 4.1075)">
<rect x="-0.0363" y="-2.0022" width="0.0725" height="2.8228" ry="0.0363" fill="currentColor"/>
</g>
<g transform="translate(68.8425, 2.1075)">
<polygon stroke-linejoin="round" stroke-linecap="round" stroke-width="0.0941" fill="currentColor" stroke="currentColor" points="3.4583 -0.4050 3.4583 -0.0192 0.0471 0.1929 0.0471 -0.1929"/>
</g>
<g transform="translate(49.4905, 4.6075)">
<path transform="scale(0.0040, -0.0040)" d="M0 0c0 31 25 56 56 56s55 -25 55 -56s-24 -56 -55 -56s-56 25 -56 56z" fill="currentColor"/>
</g>
<g transform="translate(49.0082, 4.1075)">
<rect x="-0.0363" y="-2.2105" width="0.0725" height="3.0311" ry="0.0363" fill="currentColor"/>
</g>
<g transform="translate(54.7884, 6.1075)">
<path transform="scale(0.0040, -0.0040)" d="M215 137c67 0 111 -37 111 -92c0 -90 -111 -182 -215 -182c-67 0 -111 37 -111 92c0 90 111 182 215 182z" fill="currentColor"/>
</g>
<g transform="translate(52.4206, 5.6075)">
<path transform="scale(0.0040, -0.0040)" d="M215 137c67 0 111 -37 111 -92c0 -90 -111 -182 -215 -182c-67 0 -111 37 -111 92c0 90 111 182 215 182z" fill="currentColor"/>
</g>
<g transform="translate(52.4494, 10.2761)">
<text font-family="Source Sans Pro" font-size="2.4690" text-anchor="start" fill="currentColor">
<tspan>li</tspan>
</text>
</g>
<g transform="translate(53.6871, 4.1075)">
<rect x="-0.0363" y="-2.0016" width="0.0725" height="3.3223" ry="0.0363" fill="currentColor"/>
</g>
<g transform="translate(12.8276, 10.2761)">
<rect x="0.0000" y="-0.5651" width="0.6600" height="0.1451" ry="0.0446" fill="currentColor"/>
</g>
<g transform="translate(16.1903, 10.2761)">
<rect x="0.0000" y="-0.5651" width="0.6600" height="0.1451" ry="0.0446" fill="currentColor"/>
</g>
<g transform="translate(20.1055, 10.2761)">
<rect x="0.0000" y="-0.5651" width="0.6600" height="0.1451" ry="0.0446" fill="currentColor"/>
</g>
<g transform="translate(11.3870, 1.8954)">
<polygon stroke-linejoin="round" stroke-linecap="round" stroke-width="0.0941" fill="currentColor" stroke="currentColor" points="4.7043 0.0192 4.7043 0.4050 0.0471 0.1929 0.0471 -0.1929"/>
</g>
<g transform="translate(15.0022, 2.8447)">
<polygon stroke-linejoin="round" stroke-linecap="round" stroke-width="0.0941" fill="currentColor" stroke="currentColor" points="1.0892 -0.1422 1.0892 0.2437 0.0471 0.1929 0.0471 -0.1929"/>
</g>
<g transform="translate(33.6428, 10.2761)">
<rect x="0.0000" y="-0.5651" width="0.6600" height="0.1451" ry="0.0446" fill="currentColor"/>
</g>
<g transform="translate(32.4076, 3.8954)">
<polygon stroke-linejoin="round" stroke-linecap="round" stroke-width="0.0941" fill="currentColor" stroke="currentColor" points="4.4543 0.2313 4.4543 0.6171 0.0471 0.1929 0.0471 -0.1929"/>
</g>
<g transform="translate(35.7727, 5.0004)">
<polygon stroke-linejoin="round" stroke-linecap="round" stroke-width="0.0941" fill="currentColor" stroke="currentColor" points="1.0892 -0.0859 1.0892 0.3000 0.0471 0.1929 0.0471 -0.1929"/>
</g>
<g transform="translate(50.4126, 10.2761)">
<rect x="0.0000" y="-0.5651" width="0.6600" height="0.1451" ry="0.0446" fill="currentColor"/>
</g>
<g transform="translate(53.7753, 10.2761)">
<rect x="0.0000" y="-0.5651" width="0.6600" height="0.1451" ry="0.0446" fill="currentColor"/>
</g>
<g transform="translate(57.6904, 10.2761)">
<rect x="0.0000" y="-0.5651" width="0.6600" height="0.1451" ry="0.0446" fill="currentColor"/>
</g>
<g transform="translate(48.9720, 1.8954)">
<polygon stroke-linejoin="round" stroke-linecap="round" stroke-width="0.0941" fill="currentColor" stroke="currentColor" points="4.7043 0.0192 4.7043 0.4050 0.0471 0.1929 0.0471 -0.1929"/>
</g>
<g transform="translate(52.5871, 2.8447)">
<polygon stroke-linejoin="round" stroke-linecap="round" stroke-width="0.0941" fill="currentColor" stroke="currentColor" points="1.0892 -0.1422 1.0892 0.2437 0.0471 0.1929 0.0471 -0.1929"/>
</g>
<g transform="translate(69.6190, 10.2761)">
<rect x="0.0000" y="-0.5651" width="0.5212" height="0.1451" ry="0.0446" fill="currentColor"/>
</g>
<g transform="translate(73.2527, 10.2761)">
<rect x="0.0000" y="-0.5651" width="0.5698" height="0.1451" ry="0.0446" fill="currentColor"/>
</g>
<g transform="translate(71.0451, 4.6075)">
<path transform="scale(0.0040, -0.0040)" d="M215 137c67 0 111 -37 111 -92c0 -90 -111 -182 -215 -182c-67 0 -111 37 -111 92c0 90 111 182 215 182z" fill="currentColor"/>
</g>
<g transform="translate(70.2103, 10.2761)">
<text font-family="Source Sans Pro" font-size="2.4690" text-anchor="start" fill="currentColor">
<tspan>Tiš</tspan>
</text>
</g>
<g transform="translate(72.3116, 4.1075)">
<rect x="-0.0363" y="-2.2099" width="0.0725" height="2.5305" ry="0.0363" fill="currentColor"/>
</g>
<g transform="translate(74.4876, 4.1075)">
<path transform="scale(0.0040, -0.0040)" d="M312 64c0 23 -18 41 -41 41c-39 0 -201 -110 -228 -142c-7 -8 -10 -17 -10 -27c0 -23 18 -41 41 -41c39 0 201 110 228 142c7 8 10 17 10 27zM259 137c46 0 86 -17 86 -74c0 -26 -15 -112 -73 -151c-29 -20 -89 -49 -186 -49c-46 0 -86 17 -86 74c0 26 16 112 74 151
c29 20 88 49 185 49z" fill="currentColor"/>
</g>
<g transform="translate(73.8925, 10.2761)">
<text font-family="Source Sans Pro" font-size="2.4690" text-anchor="start" fill="currentColor">
<tspan>bí,</tspan>
</text>
</g>
<g transform="translate(74.5239, 4.1075)">
<rect x="-0.0363" y="0.2530" width="0.0725" height="3.0804" ry="0.0363" fill="currentColor"/>
</g>
<g transform="translate(18.4700, 4.1075)">
<rect x="-0.0363" y="-1.5000" width="0.0725" height="3.3206" ry="0.0363" fill="currentColor"/>
</g>
<g transform="translate(14.8356, 5.6075)">
<path transform="scale(0.0040, -0.0040)" d="M215 137c67 0 111 -37 111 -92c0 -90 -111 -182 -215 -182c-67 0 -111 37 -111 92c0 90 111 182 215 182z" fill="currentColor"/>
</g>
<g transform="translate(14.8644, 10.2761)">
<text font-family="Source Sans Pro" font-size="2.4690" text-anchor="start" fill="currentColor">
<tspan>li</tspan>
</text>
</g>
<g transform="translate(16.1022, 4.1075)">
<rect x="-0.0363" y="-2.0016" width="0.0725" height="3.3223" ry="0.0363" fill="currentColor"/>
</g>
<g transform="translate(17.2035, 6.1075)">
<path transform="scale(0.0040, -0.0040)" d="M215 137c67 0 111 -37 111 -92c0 -90 -111 -182 -215 -182c-67 0 -111 37 -111 92c0 90 111 182 215 182z" fill="currentColor"/>
</g>
<g transform="translate(16.9310, 10.2761)">
<text font-family="Source Sans Pro" font-size="2.4690" text-anchor="start" fill="currentColor">
<tspan>já</tspan>
</text>
</g>
<g transform="translate(22.7664, 6.1075)">
<path transform="scale(0.0040, -0.0040)" d="M215 137c67 0 111 -37 111 -92c0 -90 -111 -182 -215 -182c-67 0 -111 37 -111 92c0 90 111 182 215 182z" fill="currentColor"/>
</g>
<g transform="translate(22.0922, 10.2761)">
<text font-family="Source Sans Pro" font-size="2.4690" text-anchor="start" fill="currentColor">
<tspan>hú</tspan>
</text>
</g>
<g transform="translate(24.0329, 4.1075)">
<rect x="-0.0363" y="-1.5000" width="0.0725" height="3.3206" ry="0.0363" fill="currentColor"/>
</g>
<g transform="translate(47.7504, 10.2761)">
<text font-family="Source Sans Pro" font-size="2.4690" text-anchor="start" fill="currentColor">
<tspan>E</tspan>
</text>
</g>
<g transform="translate(31.1773, 6.6075)">
<path transform="scale(0.0040, -0.0040)" d="M215 137c67 0 111 -37 111 -92c0 -90 -111 -182 -215 -182c-67 0 -111 37 -111 92c0 90 111 182 215 182z" fill="currentColor"/>
</g>
<g transform="translate(11.9055, 4.6075)">
<path transform="scale(0.0040, -0.0040)" d="M0 0c0 31 25 56 56 56s55 -25 55 -56s-24 -56 -55 -56s-56 25 -56 56z" fill="currentColor"/>
</g>
<g transform="translate(10.1568, 5.1075)">
<path transform="scale(0.0040, -0.0040)" d="M215 137c67 0 111 -37 111 -92c0 -90 -111 -182 -215 -182c-67 0 -111 37 -111 92c0 90 111 182 215 182z" fill="currentColor"/>
</g>
<g transform="translate(0.8000, 5.1075)">
<path transform="scale(0.0040, -0.0040)" d="M646 2c0 -113 -74 -213 -180 -247c3 -34 5 -68 5 -102c0 -20 -1 -40 -2 -60c-7 -121 -91 -228 -209 -228c-108 0 -196 87 -196 196c0 58 53 104 112 104c54 0 95 -48 95 -104c0 -52 -43 -95 -95 -95c-10 0 -20 2 -29 6c26 -38 68 -63 116 -63h3c93 2 153 92 159 190
c1 19 2 37 2 56c0 30 -2 60 -4 90c-5 -1 -43 -8 -88 -8c-194 0 -333 180 -333 375c0 177 130 307 246 442c-31 98 -53 170 -53 347c0 115 55 223 148 290c7 5 16 4 22 -1c68 -80 134 -243 134 -357c0 -143 -85 -255 -178 -364c21 -68 40 -137 57 -206c1 0 5 1 11 1
c156 0 257 -129 257 -262zM462 -202c66 24 111 88 111 162c0 89 -65 178 -170 190c28 -135 50 -272 59 -352zM75 26c0 -145 141 -245 263 -245c1 0 46 0 81 6c-7 65 -27 206 -61 363c-79 -8 -124 -61 -124 -119c0 -43 25 -89 80 -121c5 -5 7 -11 7 -16
c0 -12 -10 -23 -22 -23c-16 0 -127 63 -127 188c0 89 58 175 161 198c-14 58 -29 116 -46 173c-106 -122 -212 -244 -212 -404zM406 1042c-99 -47 -162 -148 -162 -257c0 -49 13 -111 38 -191c79 97 144 199 144 324c0 33 0 63 -20 124z" fill="currentColor"/>
</g>
<g transform="translate(4.3000, 2.1075)">
<path transform="scale(0.0040, -0.0040)" d="M0 117c0 9 6 18 15 21l43 16v157c0 11 8 19 19 19s20 -8 20 -19v-142l81 30v156c0 11 9 20 20 20s19 -9 19 -20v-142l28 11c3 1 5 1 8 1c12 0 22 -10 22 -23v-57c0 -9 -6 -18 -15 -21l-43 -16v-157l28 10c3 1 5 1 8 1c12 0 22 -9 22 -22v-57c0 -9 -6 -18 -15 -21l-43 -16
v-157c0 -11 -8 -19 -19 -19s-20 8 -20 19v142l-81 -30v-156c0 -11 -9 -20 -20 -20s-19 9 -19 20v142l-28 -11c-3 -1 -5 -1 -8 -1c-12 0 -22 10 -22 23v57c0 9 6 18 15 21l43 16v157l-28 -10c-3 -1 -5 -1 -8 -1c-12 0 -22 9 -22 22v57zM178 94l-81 -30v-158l81 30v158z" fill="currentColor"/>
</g>
<g transform="translate(6.6906, 4.1075)">
<path transform="scale(0.0040, -0.0040)" d="M264 265c0 -34 72 -24 72 -125c0 -92 -80 -140 -180 -140c-79 0 -156 43 -156 115c0 36 29 65 65 65s65 -29 65 -65c0 -25 -40 -29 -40 -54c0 -28 34 -36 66 -36c48 0 61 59 61 115v22c0 50 -3 88 -49 88h-78c-10 0 -15 7 -15 15s5 15 15 15h78c46 0 49 40 49 92v14
c0 53 -18 89 -66 89c-29 0 -59 -8 -59 -33c0 -22 36 -25 36 -47c0 -31 -26 -57 -57 -57s-57 26 -57 57c0 65 66 105 137 105c92 0 170 -33 170 -114c0 -119 -57 -80 -57 -121z" fill="currentColor"/>
</g>
<g transform="translate(6.5500, 6.1194)">
<path transform="scale(0.0040, -0.0040)" d="M194 120h120c0 -49 29 -95 75 -95c8 0 12 -7 12 -13s-4 -12 -12 -12c-45 0 -90 13 -135 13s-90 -13 -135 -13c-8 0 -12 6 -12 12s4 13 12 13c46 0 75 46 75 95zM224 487c37 0 70 14 78 14c9 0 14 -7 14 -13c0 -2 0 -3 -2 -5l-283 -327h163v122c0 35 36 28 70 74
c23 30 22 57 36 57c6 0 14 -6 14 -15v-238h74c10 0 16 -8 16 -16s-6 -15 -16 -15h-74v-5h-120v5h-163c-24 0 -33 15 -33 24c0 12 136 140 136 334c0 11 8 20 17 17c24 -7 48 -13 73 -13z" fill="currentColor"/>
</g>
<g transform="translate(10.1655, 10.2761)">
<text font-family="Source Sans Pro" font-size="2.4690" text-anchor="start" fill="currentColor">
<tspan>E</tspan>
</text>
</g>
<g transform="translate(11.4233, 4.1075)">
<rect x="-0.0363" y="-2.2105" width="0.0725" height="3.0311" ry="0.0363" fill="currentColor"/>
</g>
<g transform="translate(39.6225, 4.1075)">
<rect x="-0.0363" y="-1.5000" width="0.0725" height="3.2470" ry="0.0363" fill="currentColor"/>
</g>
<g transform="translate(29.7273, 6.6075)">
<path transform="scale(0.0040, -0.0040)" d="M0 117c0 9 6 18 15 21l43 16v157c0 11 8 19 19 19s20 -8 20 -19v-142l81 30v156c0 11 9 20 20 20s19 -9 19 -20v-142l28 11c3 1 5 1 8 1c12 0 22 -10 22 -23v-57c0 -9 -6 -18 -15 -21l-43 -16v-157l28 10c3 1 5 1 8 1c12 0 22 -9 22 -22v-57c0 -9 -6 -18 -15 -21l-43 -16
v-157c0 -11 -8 -19 -19 -19s-20 8 -20 19v142l-81 -30v-156c0 -11 -9 -20 -20 -20s-19 9 -19 20v142l-28 -11c-3 -1 -5 -1 -8 -1c-12 0 -22 10 -22 23v57c0 9 6 18 15 21l43 16v157l-28 -10c-3 -1 -5 -1 -8 -1c-12 0 -22 9 -22 22v57zM178 94l-81 -30v-158l81 30v158z" fill="currentColor"/>
</g>
<g transform="translate(37.7835, 10.2761)">
<text font-family="Source Sans Pro" font-size="2.4690" text-anchor="start" fill="currentColor">
<tspan>ví,</tspan>
</text>
</g>
<g transform="translate(35.6061, 7.6075)">
<path transform="scale(0.0040, -0.0040)" d="M215 137c67 0 111 -37 111 -92c0 -90 -111 -182 -215 -182c-67 0 -111 37 -111 92c0 90 111 182 215 182z" fill="currentColor"/>
</g>
<g transform="translate(34.8316, 10.2761)">
<text font-family="Source Sans Pro" font-size="2.4690" text-anchor="start" fill="currentColor">
<tspan>Na</tspan>
</text>
</g>
<g transform="translate(36.8727, 4.1075)">
<rect x="-0.0363" y="0.2087" width="0.0725" height="3.1120" ry="0.0363" fill="currentColor"/>
</g>
<g transform="translate(38.2782, 6.1075)">
<path transform="scale(0.0040, -0.0040)" d="M312 64c0 23 -18 41 -41 41c-39 0 -201 -110 -228 -142c-7 -8 -10 -17 -10 -27c0 -23 18 -41 41 -41c39 0 201 110 228 142c7 8 10 17 10 27zM259 137c46 0 86 -17 86 -74c0 -26 -15 -112 -73 -151c-29 -20 -89 -49 -186 -49c-46 0 -86 17 -86 74c0 26 16 112 74 151
c29 20 88 49 185 49z" fill="currentColor"/>
</g>
<g transform="translate(30.5433, 10.2761)">
<text font-family="Source Sans Pro" font-size="2.4690" text-anchor="start" fill="currentColor">
<tspan>ha</tspan>
</text>
</g>
<g transform="translate(47.7417, 5.1075)">
<path transform="scale(0.0040, -0.0040)" d="M215 137c67 0 111 -37 111 -92c0 -90 -111 -182 -215 -182c-67 0 -111 37 -111 92c0 90 111 182 215 182z" fill="currentColor"/>
</g>
<g transform="translate(32.4438, 4.1075)">
<rect x="-0.0363" y="-0.2087" width="0.0725" height="2.5293" ry="0.0363" fill="currentColor"/>
</g>
<g transform="translate(32.9261, 6.6075)">
<path transform="scale(0.0040, -0.0040)" d="M0 0c0 31 25 56 56 56s55 -25 55 -56s-24 -56 -55 -56s-56 25 -56 56z" fill="currentColor"/>
</g>
<g transform="translate(0.0000, 18.3970)">
<line stroke-linejoin="round" stroke-linecap="round" stroke-width="0.0558" stroke="currentColor" x1="0.0279" y1="0" x2="82.3177" y2="0"/>
</g>
<g transform="translate(0.0000, 17.3970)">
<line stroke-linejoin="round" stroke-linecap="round" stroke-width="0.0558" stroke="currentColor" x1="0.0279" y1="0" x2="82.3177" y2="0"/>
</g>
<g transform="translate(0.0000, 16.3970)">
<line stroke-linejoin="round" stroke-linecap="round" stroke-width="0.0558" stroke="currentColor" x1="0.0279" y1="0" x2="82.3177" y2="0"/>
</g>
<g transform="translate(0.0000, 15.3970)">
<line stroke-linejoin="round" stroke-linecap="round" stroke-width="0.0558" stroke="currentColor" x1="0.0279" y1="0" x2="82.3177" y2="0"/>
</g>
<g transform="translate(0.0000, 14.3970)">
<line stroke-linejoin="round" stroke-linecap="round" stroke-width="0.0558" stroke="currentColor" x1="0.0279" y1="0" x2="82.3177" y2="0"/>
</g>
<g transform="translate(25.3517, 16.3970)">
<rect x="0.0000" y="-2.0000" width="0.2120" height="4.0000" ry="0.0000" fill="currentColor"/>
</g>
<g transform="translate(65.6067, 16.3970)">
<rect x="0.0000" y="-2.0000" width="0.2120" height="4.0000" ry="0.0000" fill="currentColor"/>
</g>
<g transform="translate(82.1336, 16.3970)">
<rect x="0.0000" y="-2.0000" width="0.2120" height="4.0000" ry="0.0000" fill="currentColor"/>
</g>
<g transform="translate(81.5868, 16.3970)">
<rect x="0.0000" y="-2.0000" width="0.2120" height="4.0000" ry="0.0000" fill="currentColor"/>
</g>
<g transform="translate(44.6736, 16.3970)">
<rect x="0.0000" y="-2.0000" width="0.2120" height="4.0000" ry="0.0000" fill="currentColor"/>
</g>
<g transform="translate(0.0000, 19.3970)">
<rect x="70.9804" y="-0.0779" width="1.9542" height="0.1558" ry="0.0779" fill="currentColor"/>
</g>
<g transform="translate(68.2614, 14.6091)">
<polygon stroke-linejoin="round" stroke-linecap="round" stroke-width="0.0941" fill="currentColor" stroke="currentColor" points="4.3005 0.8071 4.3005 1.1929 0.0471 0.1929 0.0471 -0.1929"/>
</g>
<g transform="translate(71.4726, 16.1357)">
<polygon stroke-linejoin="round" stroke-linecap="round" stroke-width="0.0941" fill="currentColor" stroke="currentColor" points="1.0892 0.0684 1.0892 0.4543 0.0471 0.1929 0.0471 -0.1929"/>
</g>
<g transform="translate(63.0859, 17.3970)">
<path transform="scale(0.0040, -0.0040)" d="M215 137c67 0 111 -37 111 -92c0 -90 -111 -182 -215 -182c-67 0 -111 37 -111 92c0 90 111 182 215 182z" fill="currentColor"/>
</g>
<g transform="translate(62.4520, 22.3364)">
<text font-family="Source Sans Pro" font-size="2.4690" text-anchor="start" fill="currentColor">
<tspan>ha</tspan>
</text>
</g>
<g transform="translate(64.3525, 16.3970)">
<rect x="-0.0363" y="-1.7836" width="0.0725" height="2.6042" ry="0.0363" fill="currentColor"/>
</g>
<g transform="translate(59.5775, 16.3970)">
<rect x="-0.0363" y="-1.2164" width="0.0725" height="3.0370" ry="0.0363" fill="currentColor"/>
</g>
<g transform="translate(67.0311, 17.8970)">
<path transform="scale(0.0040, -0.0040)" d="M215 137c67 0 111 -37 111 -92c0 -90 -111 -182 -215 -182c-67 0 -111 37 -111 92c0 90 111 182 215 182z" fill="currentColor"/>
</g>
<g transform="translate(66.2967, 22.3364)">
<text font-family="Source Sans Pro" font-size="2.4690" text-anchor="start" fill="currentColor">
<tspan>Gil</tspan>
</text>
</g>
<g transform="translate(68.7799, 17.8970)">
<path transform="scale(0.0040, -0.0040)" d="M0 0c0 31 25 56 56 56s55 -25 55 -56s-24 -56 -55 -56s-56 25 -56 56z" fill="currentColor"/>
</g>
<g transform="translate(68.2976, 16.3970)">
<rect x="-0.0363" y="-1.7796" width="0.0725" height="3.1002" ry="0.0363" fill="currentColor"/>
</g>
<g transform="translate(50.6229, 17.8970)">
<path transform="scale(0.0040, -0.0040)" d="M215 137c67 0 111 -37 111 -92c0 -90 -111 -182 -215 -182c-67 0 -111 37 -111 92c0 90 111 182 215 182z" fill="currentColor"/>
</g>
<g transform="translate(50.6517, 22.3364)">
<text font-family="Source Sans Pro" font-size="2.4690" text-anchor="start" fill="currentColor">
<tspan>li</tspan>
</text>
</g>
<g transform="translate(51.8895, 16.3970)">
<rect x="-0.0363" y="-2.0017" width="0.0725" height="3.3223" ry="0.0363" fill="currentColor"/>
</g>
<g transform="translate(52.9422, 18.3970)">
<path transform="scale(0.0040, -0.0040)" d="M215 137c67 0 111 -37 111 -92c0 -90 -111 -182 -215 -182c-67 0 -111 37 -111 92c0 90 111 182 215 182z" fill="currentColor"/>
</g>
<g transform="translate(52.6698, 22.3364)">
<text font-family="Source Sans Pro" font-size="2.4690" text-anchor="start" fill="currentColor">
<tspan>já</tspan>
</text>
</g>
<g transform="translate(54.2088, 16.3970)">
<rect x="-0.0363" y="-1.5000" width="0.0725" height="3.3206" ry="0.0363" fill="currentColor"/>
</g>
<g transform="translate(58.3110, 18.3970)">
<path transform="scale(0.0040, -0.0040)" d="M215 137c67 0 111 -37 111 -92c0 -90 -111 -182 -215 -182c-67 0 -111 37 -111 92c0 90 111 182 215 182z" fill="currentColor"/>
</g>
<g transform="translate(57.6368, 22.3364)">
<text font-family="Source Sans Pro" font-size="2.4690" text-anchor="start" fill="currentColor">
<tspan>hú</tspan>
</text>
</g>
<g transform="translate(60.0598, 17.8970)">
<path transform="scale(0.0040, -0.0040)" d="M0 0c0 31 25 56 56 56s55 -25 55 -56s-24 -56 -55 -56s-56 25 -56 56z" fill="currentColor"/>
</g>
<g transform="translate(32.6451, 22.3364)">
<rect x="0.0000" y="-0.5651" width="0.5328" height="0.1451" ry="0.0446" fill="currentColor"/>
</g>
<g transform="translate(10.4939, 22.3364)">
<rect x="0.0000" y="-0.5651" width="0.6600" height="0.1451" ry="0.0446" fill="currentColor"/>
</g>
<g transform="translate(13.8804, 22.3364)">
<rect x="0.0000" y="-0.5651" width="0.6600" height="0.1451" ry="0.0446" fill="currentColor"/>
</g>
<g transform="translate(17.5236, 22.3364)">
<rect x="0.0000" y="-0.5651" width="0.6600" height="0.1451" ry="0.0446" fill="currentColor"/>
</g>
<g transform="translate(11.3613, 19.1091)">
<polygon stroke-linejoin="round" stroke-linecap="round" stroke-width="0.0941" fill="currentColor" stroke="currentColor" points="1.0892 -0.1929 1.0892 0.1929 0.0471 0.1929 0.0471 -0.1929"/>
</g>
<g transform="translate(7.9000, 19.8970)">
<polygon stroke-linejoin="round" stroke-linecap="round" stroke-width="0.0941" fill="currentColor" stroke="currentColor" points="4.5505 -0.1929 4.5505 0.1929 0.0471 0.1929 0.0471 -0.1929"/>
</g>
<g transform="translate(29.3700, 22.3364)">
<rect x="0.0000" y="-0.5651" width="0.6600" height="0.1451" ry="0.0446" fill="currentColor"/>
</g>
<g transform="translate(36.2996, 22.3364)">
<rect x="0.0000" y="-0.5651" width="0.6600" height="0.1451" ry="0.0446" fill="currentColor"/>
</g>
<g transform="translate(28.0064, 13.6091)">
<polygon stroke-linejoin="round" stroke-linecap="round" stroke-width="0.0941" fill="currentColor" stroke="currentColor" points="4.5505 -0.1929 4.5505 0.1929 0.0471 0.1929 0.0471 -0.1929"/>
</g>
<g transform="translate(31.4676, 14.3970)">
<polygon stroke-linejoin="round" stroke-linecap="round" stroke-width="0.0941" fill="currentColor" stroke="currentColor" points="1.0892 -0.1929 1.0892 0.1929 0.0471 0.1929 0.0471 -0.1929"/>
</g>
<g transform="translate(48.6919, 22.3364)">
<rect x="0.0000" y="-0.5651" width="0.6600" height="0.1451" ry="0.0446" fill="currentColor"/>
</g>
<g transform="translate(51.9670, 22.3364)">
<rect x="0.0000" y="-0.5651" width="0.6328" height="0.1451" ry="0.0446" fill="currentColor"/>
</g>
<g transform="translate(55.7472, 22.3364)">
<rect x="0.0000" y="-0.5651" width="0.6600" height="0.1451" ry="0.0446" fill="currentColor"/>
</g>
<g transform="translate(47.3282, 14.1849)">
<polygon stroke-linejoin="round" stroke-linecap="round" stroke-width="0.0941" fill="currentColor" stroke="currentColor" points="4.5505 0.0192 4.5505 0.4050 0.0471 0.1929 0.0471 -0.1929"/>
</g>
<g transform="translate(50.7895, 15.1325)">
<polygon stroke-linejoin="round" stroke-linecap="round" stroke-width="0.0941" fill="currentColor" stroke="currentColor" points="1.0892 -0.1405 1.0892 0.2454 0.0471 0.1929 0.0471 -0.1929"/>
</g>
<g transform="translate(65.3297, 22.3364)">
<rect x="0.0000" y="-0.5651" width="0.6600" height="0.1451" ry="0.0446" fill="currentColor"/>
</g>
<g transform="translate(69.8716, 22.3364)">
<rect x="0.0000" y="-0.5651" width="0.6600" height="0.1451" ry="0.0446" fill="currentColor"/>
</g>
<g transform="translate(59.5412, 15.1849)">
<polygon stroke-linejoin="round" stroke-linecap="round" stroke-width="0.0941" fill="currentColor" stroke="currentColor" points="4.8005 -0.7687 4.8005 -0.3829 0.0471 0.1929 0.0471 -0.1929"/>
</g>
<g transform="translate(63.2525, 15.5320)">
<polygon stroke-linejoin="round" stroke-linecap="round" stroke-width="0.0941" fill="currentColor" stroke="currentColor" points="1.0892 -0.3279 1.0892 0.0580 0.0471 0.1929 0.0471 -0.1929"/>
</g>
<g transform="translate(72.7508, 22.3364)">
<rect x="0.0000" y="-0.5651" width="0.6600" height="0.1451" ry="0.0446" fill="currentColor"/>
</g>
<g transform="translate(71.3061, 19.8970)">
<path transform="scale(0.0040, -0.0040)" d="M215 137c67 0 111 -37 111 -92c0 -90 -111 -182 -215 -182c-67 0 -111 37 -111 92c0 90 111 182 215 182z" fill="currentColor"/>
</g>
<g transform="translate(71.3349, 22.3364)">
<text font-family="Source Sans Pro" font-size="2.4690" text-anchor="start" fill="currentColor">
<tspan>a</tspan>
</text>
</g>
<g transform="translate(72.5726, 16.3970)">
<rect x="-0.0363" y="-0.7962" width="0.0725" height="4.1169" ry="0.0363" fill="currentColor"/>
</g>
<g transform="translate(73.8754, 18.3970)">
<path transform="scale(0.0040, -0.0040)" d="M312 64c0 23 -18 41 -41 41c-39 0 -201 -110 -228 -142c-7 -8 -10 -17 -10 -27c0 -23 18 -41 41 -41c39 0 201 110 228 142c7 8 10 17 10 27zM259 137c46 0 86 -17 86 -74c0 -26 -15 -112 -73 -151c-29 -20 -89 -49 -186 -49c-46 0 -86 17 -86 74c0 26 16 112 74 151
c29 20 88 49 185 49z" fill="currentColor"/>
</g>
<g transform="translate(73.5815, 22.3364)">
<text font-family="Source Sans Pro" font-size="2.4690" text-anchor="start" fill="currentColor">
<tspan>dí</tspan>
</text>
</g>
<g transform="translate(75.2197, 16.3970)">
<rect x="-0.0363" y="-1.5000" width="0.0725" height="3.2470" ry="0.0363" fill="currentColor"/>
</g>
<g transform="translate(77.0255, 13.5312)">
<text font-family="serif" font-size="2.7723" text-anchor="start" fill="currentColor">
<tspan>Fine</tspan>
</text>
</g>
<g transform="translate(12.4250, 16.3970)">
<path transform="scale(0.0040, -0.0040)" d="M215 137c67 0 111 -37 111 -92c0 -90 -111 -182 -215 -182c-67 0 -111 37 -111 92c0 90 111 182 215 182z" fill="currentColor"/>
</g>
<g transform="translate(12.4538, 22.3364)">
<text font-family="Source Sans Pro" font-size="2.4690" text-anchor="start" fill="currentColor">
<tspan>li</tspan>
</text>
</g>
<g transform="translate(12.4613, 16.3970)">
<rect x="-0.0363" y="0.1794" width="0.0725" height="3.3206" ry="0.0363" fill="currentColor"/>
</g>
<g transform="translate(14.9943, 15.3970)">
<path transform="scale(0.0040, -0.0040)" d="M215 137c67 0 111 -37 111 -92c0 -90 -111 -182 -215 -182c-67 0 -111 37 -111 92c0 90 111 182 215 182z" fill="currentColor"/>
</g>
<g transform="translate(14.7218, 22.3364)">
<text font-family="Source Sans Pro" font-size="2.4690" text-anchor="start" fill="currentColor">
<tspan>já</tspan>
</text>
</g>
<g transform="translate(15.0305, 16.3970)">
<rect x="-0.0363" y="-0.8206" width="0.0725" height="3.3206" ry="0.0363" fill="currentColor"/>
</g>
<g transform="translate(20.1130, 16.3970)">
<path transform="scale(0.0040, -0.0040)" d="M215 137c67 0 111 -37 111 -92c0 -90 -111 -182 -215 -182c-67 0 -111 37 -111 92c0 90 111 182 215 182z" fill="currentColor"/>
</g>
<g transform="translate(19.1376, 22.3364)">
<text font-family="Source Sans Pro" font-size="2.4690" text-anchor="start" fill="currentColor">
<tspan>hú,</tspan>
</text>
</g>
<g transform="translate(20.1493, 16.3970)">
<rect x="-0.0363" y="0.1794" width="0.0725" height="3.1540" ry="0.0363" fill="currentColor"/>
</g>
<g transform="translate(26.7848, 22.3364)">
<text font-family="Source Sans Pro" font-size="2.4690" text-anchor="start" fill="currentColor">
<tspan>E</tspan>
</text>
</g>
<g transform="translate(0.8000, 17.3970)">
<path transform="scale(0.0040, -0.0040)" d="M646 2c0 -113 -74 -213 -180 -247c3 -34 5 -68 5 -102c0 -20 -1 -40 -2 -60c-7 -121 -91 -228 -209 -228c-108 0 -196 87 -196 196c0 58 53 104 112 104c54 0 95 -48 95 -104c0 -52 -43 -95 -95 -95c-10 0 -20 2 -29 6c26 -38 68 -63 116 -63h3c93 2 153 92 159 190
c1 19 2 37 2 56c0 30 -2 60 -4 90c-5 -1 -43 -8 -88 -8c-194 0 -333 180 -333 375c0 177 130 307 246 442c-31 98 -53 170 -53 347c0 115 55 223 148 290c7 5 16 4 22 -1c68 -80 134 -243 134 -357c0 -143 -85 -255 -178 -364c21 -68 40 -137 57 -206c1 0 5 1 11 1
c156 0 257 -129 257 -262zM462 -202c66 24 111 88 111 162c0 89 -65 178 -170 190c28 -135 50 -272 59 -352zM75 26c0 -145 141 -245 263 -245c1 0 46 0 81 6c-7 65 -27 206 -61 363c-79 -8 -124 -61 -124 -119c0 -43 25 -89 80 -121c5 -5 7 -11 7 -16
c0 -12 -10 -23 -22 -23c-16 0 -127 63 -127 188c0 89 58 175 161 198c-14 58 -29 116 -46 173c-106 -122 -212 -244 -212 -404zM406 1042c-99 -47 -162 -148 -162 -257c0 -49 13 -111 38 -191c79 97 144 199 144 324c0 33 0 63 -20 124z" fill="currentColor"/>
</g>
<g transform="translate(4.3000, 14.3970)">
<path transform="scale(0.0040, -0.0040)" d="M0 117c0 9 6 18 15 21l43 16v157c0 11 8 19 19 19s20 -8 20 -19v-142l81 30v156c0 11 9 20 20 20s19 -9 19 -20v-142l28 11c3 1 5 1 8 1c12 0 22 -10 22 -23v-57c0 -9 -6 -18 -15 -21l-43 -16v-157l28 10c3 1 5 1 8 1c12 0 22 -9 22 -22v-57c0 -9 -6 -18 -15 -21l-43 -16
v-157c0 -11 -8 -19 -19 -19s-20 8 -20 19v142l-81 -30v-156c0 -11 -9 -20 -20 -20s-19 9 -19 20v142l-28 -11c-3 -1 -5 -1 -8 -1c-12 0 -22 10 -22 23v57c0 9 6 18 15 21l43 16v157l-28 -10c-3 -1 -5 -1 -8 -1c-12 0 -22 9 -22 22v57zM178 94l-81 -30v-158l81 30v158z" fill="currentColor"/>
</g>
<g transform="translate(26.7761, 16.8970)">
<path transform="scale(0.0040, -0.0040)" d="M215 137c67 0 111 -37 111 -92c0 -90 -111 -182 -215 -182c-67 0 -111 37 -111 92c0 90 111 182 215 182z" fill="currentColor"/>
</g>
<g transform="translate(7.9000, 16.3970)">
<path transform="scale(0.0040, -0.0040)" d="M215 137c67 0 111 -37 111 -92c0 -90 -111 -182 -215 -182c-67 0 -111 37 -111 92c0 90 111 182 215 182z" fill="currentColor"/>
</g>
<g transform="translate(7.9087, 22.3364)">
<text font-family="Source Sans Pro" font-size="2.4690" text-anchor="start" fill="currentColor">
<tspan>E</tspan>
</text>
</g>
<g transform="translate(9.6488, 15.8970)">
<path transform="scale(0.0040, -0.0040)" d="M0 0c0 31 25 56 56 56s55 -25 55 -56s-24 -56 -55 -56s-56 25 -56 56z" fill="currentColor"/>
</g>
<g transform="translate(7.9363, 16.3970)">
<rect x="-0.0363" y="0.1794" width="0.0725" height="3.3206" ry="0.0363" fill="currentColor"/>
</g>
<g transform="translate(38.1637, 22.3364)">
<text font-family="Source Sans Pro" font-size="2.4690" text-anchor="start" fill="currentColor">
<tspan>hú,</tspan>
</text>
</g>
<g transform="translate(32.5676, 16.3970)">
<rect x="-0.0363" y="-2.7879" width="0.0725" height="3.1085" ry="0.0363" fill="currentColor"/>
</g>
<g transform="translate(28.5249, 16.8970)">
<path transform="scale(0.0040, -0.0040)" d="M0 0c0 31 25 56 56 56s55 -25 55 -56s-24 -56 -55 -56s-56 25 -56 56z" fill="currentColor"/>
</g>
<g transform="translate(33.5204, 17.8970)">
<path transform="scale(0.0040, -0.0040)" d="M215 137c67 0 111 -37 111 -92c0 -90 -111 -182 -215 -182c-67 0 -111 37 -111 92c0 90 111 182 215 182z" fill="currentColor"/>
</g>
<g transform="translate(33.2479, 22.3364)">
<text font-family="Source Sans Pro" font-size="2.4690" text-anchor="start" fill="currentColor">
<tspan>já</tspan>
</text>
</g>
<g transform="translate(34.7869, 16.3970)">
<rect x="-0.0363" y="-2.0000" width="0.0725" height="3.3206" ry="0.0363" fill="currentColor"/>
</g>
<g transform="translate(39.1391, 16.8970)">
<path transform="scale(0.0040, -0.0040)" d="M215 137c67 0 111 -37 111 -92c0 -90 -111 -182 -215 -182c-67 0 -111 37 -111 92c0 90 111 182 215 182z" fill="currentColor"/>
</g>
<g transform="translate(40.4056, 16.3970)">
<rect x="-0.0363" y="-3.0000" width="0.0725" height="3.3206" ry="0.0363" fill="currentColor"/>
</g>
<g transform="translate(46.0980, 17.3970)">
<path transform="scale(0.0040, -0.0040)" d="M215 137c67 0 111 -37 111 -92c0 -90 -111 -182 -215 -182c-67 0 -111 37 -111 92c0 90 111 182 215 182z" fill="currentColor"/>
</g>
<g transform="translate(46.1067, 22.3364)">
<text font-family="Source Sans Pro" font-size="2.4690" text-anchor="start" fill="currentColor">
<tspan>E</tspan>
</text>
</g>
<g transform="translate(47.8468, 16.8970)">
<path transform="scale(0.0040, -0.0040)" d="M0 0c0 31 25 56 56 56s55 -25 55 -56s-24 -56 -55 -56s-56 25 -56 56z" fill="currentColor"/>
</g>
<g transform="translate(47.3645, 16.3970)">
<rect x="-0.0363" y="-2.2104" width="0.0725" height="3.0311" ry="0.0363" fill="currentColor"/>
</g>
<g transform="translate(31.3011, 16.8970)">
<path transform="scale(0.0040, -0.0040)" d="M215 137c67 0 111 -37 111 -92c0 -90 -111 -182 -215 -182c-67 0 -111 37 -111 92c0 90 111 182 215 182z" fill="currentColor"/>
</g>
<g transform="translate(28.0426, 16.3970)">
<rect x="-0.0363" y="-2.7879" width="0.0725" height="3.1085" ry="0.0363" fill="currentColor"/>
</g>
<g transform="translate(31.3299, 22.3364)">
<text font-family="Source Sans Pro" font-size="2.4690" text-anchor="start" fill="currentColor">
<tspan>li</tspan>
</text>
</g>
<g transform="translate(0.0000, 30.3970)">
<line stroke-linejoin="round" stroke-linecap="round" stroke-width="0.0558" stroke="currentColor" x1="0.0279" y1="0" x2="82.3177" y2="0"/>
</g>
<g transform="translate(0.0000, 29.3970)">
<line stroke-linejoin="round" stroke-linecap="round" stroke-width="0.0558" stroke="currentColor" x1="0.0279" y1="0" x2="82.3177" y2="0"/>
</g>
<g transform="translate(0.0000, 28.3970)">
<line stroke-linejoin="round" stroke-linecap="round" stroke-width="0.0558" stroke="currentColor" x1="0.0279" y1="0" x2="82.3177" y2="0"/>
</g>
<g transform="translate(0.0000, 27.3970)">
<line stroke-linejoin="round" stroke-linecap="round" stroke-width="0.0558" stroke="currentColor" x1="0.0279" y1="0" x2="82.3177" y2="0"/>
</g>
<g transform="translate(0.0000, 26.3970)">
<line stroke-linejoin="round" stroke-linecap="round" stroke-width="0.0558" stroke="currentColor" x1="0.0279" y1="0" x2="82.3177" y2="0"/>
</g>
<g transform="translate(45.1574, 28.3970)">
<rect x="0.0000" y="-2.0000" width="0.2120" height="4.0000" ry="0.0000" fill="currentColor"/>
</g>
<g transform="translate(62.5241, 28.3970)">
<rect x="0.0000" y="-2.0000" width="0.2120" height="4.0000" ry="0.0000" fill="currentColor"/>
</g>
<g transform="translate(25.6194, 28.3970)">
<rect x="0.0000" y="-2.0000" width="0.2120" height="4.0000" ry="0.0000" fill="currentColor"/>
</g>
<g transform="translate(82.1336, 28.3970)">
<rect x="0.0000" y="-2.0000" width="0.2120" height="4.0000" ry="0.0000" fill="currentColor"/>
</g>
<g transform="translate(63.9802, 33.9441)">
<text font-family="Source Sans Pro" font-size="2.4690" text-anchor="start" fill="currentColor">
<tspan>ej</tspan>
</text>
</g>
<g transform="translate(59.0116, 28.8970)">
<path transform="scale(0.0040, -0.0040)" d="M215 137c67 0 111 -37 111 -92c0 -90 -111 -182 -215 -182c-67 0 -111 37 -111 92c0 90 111 182 215 182z" fill="currentColor"/>
</g>
<g transform="translate(60.2781, 28.3970)">
<rect x="-0.0363" y="-3.0000" width="0.0725" height="3.3206" ry="0.0363" fill="currentColor"/>
</g>
<g transform="translate(60.3144, 25.4441)">
<path transform="scale(0.0040, -0.0040)" d="M0 0c0 -197 207 -335 207 -532c0 -71 -15 -141 -41 -207c-5 -8 -13 -12 -21 -12c-14 0 -27 11 -24 28c26 60 42 125 42 191c0 103 -93 207 -163 282h-18v250h18z" fill="currentColor"/>
</g>
<g transform="translate(63.9802, 29.3970)">
<path transform="scale(0.0040, -0.0040)" d="M215 137c67 0 111 -37 111 -92c0 -90 -111 -182 -215 -182c-67 0 -111 37 -111 92c0 90 111 182 215 182z" fill="currentColor"/>
</g>
<g transform="translate(65.2468, 28.3970)">
<rect x="-0.0363" y="-1.9978" width="0.0725" height="2.8184" ry="0.0363" fill="currentColor"/>
</g>
<g transform="translate(73.7002, 33.9441)">
<rect x="0.0000" y="-0.5651" width="0.6600" height="0.1451" ry="0.0446" fill="currentColor"/>
</g>
<g transform="translate(65.2105, 26.3970)">
<polygon stroke-linejoin="round" stroke-linecap="round" stroke-width="0.0941" fill="currentColor" stroke="currentColor" points="3.4458 0.0192 3.4458 0.4050 0.0471 0.1929 0.0471 -0.1929"/>
</g>
<g transform="translate(46.4450, 33.9441)">
<text font-family="Source Sans Pro" font-size="2.4690" text-anchor="start" fill="currentColor">
<tspan>ja</tspan>
</text>
</g>
<g transform="translate(46.7538, 28.3970)">
<rect x="-0.0363" y="0.1794" width="0.0725" height="3.1540" ry="0.0363" fill="currentColor"/>
</g>
<g transform="translate(52.2553, 28.3970)">
<path transform="scale(0.0040, -0.0040)" d="M215 137c67 0 111 -37 111 -92c0 -90 -111 -182 -215 -182c-67 0 -111 37 -111 92c0 90 111 182 215 182z" fill="currentColor"/>
</g>
<g transform="translate(52.2553, 33.9441)">
<text font-family="Source Sans Pro" font-size="2.4690" text-anchor="start" fill="currentColor">
<tspan>vó</tspan>
</text>
</g>
<g transform="translate(54.0041, 27.8970)">
<path transform="scale(0.0040, -0.0040)" d="M0 0c0 31 25 56 56 56s55 -25 55 -56s-24 -56 -55 -56s-56 25 -56 56z" fill="currentColor"/>
</g>
<g transform="translate(52.2916, 28.3970)">
<rect x="-0.0363" y="0.1794" width="0.0725" height="3.1540" ry="0.0363" fill="currentColor"/>
</g>
<g transform="translate(9.1303, 25.6091)">
<polygon stroke-linejoin="round" stroke-linecap="round" stroke-width="0.0941" fill="currentColor" stroke="currentColor" points="3.7407 -0.1929 3.7407 0.1929 0.0471 0.1929 0.0471 -0.1929"/>
</g>
<g transform="translate(24.8780, 33.9441)">
<rect x="0.0000" y="-0.5651" width="0.6600" height="0.1451" ry="0.0446" fill="currentColor"/>
</g>
<g transform="translate(27.0754, 28.3970)">
<path stroke-width="0.0446" stroke-linejoin="round" stroke-linecap="round" stroke="currentColor" fill="currentColor" d="M0.6956 2.5486C1.6398 3.2457 3.3325 3.0724 4.1159 2.1986L4.1159 2.1986C3.3257 3.0058 1.6330 3.1790 0.6956 2.5486z"/>
</g>
<g transform="translate(30.4513, 33.9441)">
<rect x="0.0000" y="-0.5651" width="0.6600" height="0.1451" ry="0.0446" fill="currentColor"/>
</g>
<g transform="translate(37.1469, 33.9441)">
<rect x="0.0000" y="-0.5651" width="0.6600" height="0.1451" ry="0.0446" fill="currentColor"/>
</g>
<g transform="translate(28.3057, 26.6091)">
<polygon stroke-linejoin="round" stroke-linecap="round" stroke-width="0.0941" fill="currentColor" stroke="currentColor" points="3.4458 -0.4050 3.4458 -0.0192 0.0471 0.1929 0.0471 -0.1929"/>
</g>
<g transform="translate(49.9441, 33.9441)">
<rect x="0.0000" y="-0.5651" width="0.6600" height="0.1451" ry="0.0446" fill="currentColor"/>
</g>
<g transform="translate(52.2553, 28.3970)">
<path stroke-width="0.0446" stroke-linejoin="round" stroke-linecap="round" stroke="currentColor" fill="currentColor" d="M0.6914 -1.1784C2.2460 -2.2025 6.3604 -1.8202 7.6865 -0.5284L7.6865 -0.5284C6.3542 -1.7536 2.2398 -2.1359 0.6914 -1.1784z"/>
</g>
<g transform="translate(54.7949, 33.9441)">
<rect x="0.0000" y="-0.0893" width="5.5195" height="0.0893" ry="0.0357" fill="currentColor"/>
</g>
<g transform="translate(67.4005, 29.8970)">
<path transform="scale(0.0040, -0.0040)" d="M215 137c67 0 111 -37 111 -92c0 -90 -111 -182 -215 -182c-67 0 -111 37 -111 92c0 90 111 182 215 182z" fill="currentColor"/>
</g>
<g transform="translate(68.6671, 28.3970)">
<rect x="-0.0363" y="-1.7901" width="0.0725" height="3.1107" ry="0.0363" fill="currentColor"/>
</g>
<g transform="translate(70.8208, 30.3970)">
<path transform="scale(0.0040, -0.0040)" d="M215 137c67 0 111 -37 111 -92c0 -90 -111 -182 -215 -182c-67 0 -111 37 -111 92c0 90 111 182 215 182z" fill="currentColor"/>
</g>
<g transform="translate(70.2471, 33.9441)">
<text font-family="Source Sans Pro" font-size="2.4690" text-anchor="start" fill="currentColor">
<tspan>léj</tspan>
</text>
</g>
<g transform="translate(72.0874, 28.3970)">
<rect x="-0.0363" y="-1.5000" width="0.0725" height="3.3206" ry="0.0363" fill="currentColor"/>
</g>
<g transform="translate(63.9802, 28.3970)">
<path stroke-width="0.0446" stroke-linejoin="round" stroke-linecap="round" stroke="currentColor" fill="currentColor" d="M0.6072 2.1986C1.3906 3.0724 3.0833 3.2457 4.0275 2.5486L4.0275 2.5486C3.0901 3.1790 1.3974 3.0058 0.6072 2.1986z"/>
</g>
<g transform="translate(76.3586, 30.3970)">
<path transform="scale(0.0040, -0.0040)" d="M215 137c67 0 111 -37 111 -92c0 -90 -111 -182 -215 -182c-67 0 -111 37 -111 92c0 90 111 182 215 182z" fill="currentColor"/>
</g>
<g transform="translate(75.3631, 33.9441)">
<text font-family="Source Sans Pro" font-size="2.4690" text-anchor="start" fill="currentColor">
<tspan>nu,</tspan>
</text>
</g>
<g transform="translate(77.6251, 28.3970)">
<rect x="-0.0363" y="-1.5000" width="0.0725" height="3.3206" ry="0.0363" fill="currentColor"/>
</g>
<g transform="translate(67.6874, 33.9441)">
<rect x="0.0000" y="-0.5651" width="0.6600" height="0.1451" ry="0.0446" fill="currentColor"/>
</g>
<g transform="translate(17.0791, 28.8970)">
<path transform="scale(0.0040, -0.0040)" d="M0 0c0 31 25 56 56 56s55 -25 55 -56s-24 -56 -55 -56s-56 25 -56 56z" fill="currentColor"/>
</g>
<g transform="translate(11.6152, 28.8970)">
<path transform="scale(0.0040, -0.0040)" d="M215 137c67 0 111 -37 111 -92c0 -90 -111 -182 -215 -182c-67 0 -111 37 -111 92c0 90 111 182 215 182z" fill="currentColor"/>
</g>
<g transform="translate(9.6757, 33.9441)">
<text font-family="Source Sans Pro" font-size="2.4690" text-anchor="start" fill="currentColor">
<tspan>mhej</tspan>
</text>
</g>
<g transform="translate(12.8817, 28.3970)">
<rect x="-0.0363" y="-2.7879" width="0.0725" height="3.1085" ry="0.0363" fill="currentColor"/>
</g>
<g transform="translate(15.3304, 28.8970)">
<path transform="scale(0.0040, -0.0040)" d="M215 137c67 0 111 -37 111 -92c0 -90 -111 -182 -215 -182c-67 0 -111 37 -111 92c0 90 111 182 215 182z" fill="currentColor"/>
</g>
<g transform="translate(14.9575, 33.9441)">
<text font-family="Source Sans Pro" font-size="2.4690" text-anchor="start" fill="currentColor">
<tspan>rá</tspan>
</text>
</g>
<g transform="translate(16.5969, 28.3970)">
<rect x="-0.0363" y="-3.0000" width="0.0725" height="3.3206" ry="0.0363" fill="currentColor"/>
</g>
<g transform="translate(22.1068, 29.3970)">
<path transform="scale(0.0040, -0.0040)" d="M215 137c67 0 111 -37 111 -92c0 -90 -111 -182 -215 -182c-67 0 -111 37 -111 92c0 90 111 182 215 182z" fill="currentColor"/>
</g>
<g transform="translate(46.7175, 28.3970)">
<path transform="scale(0.0040, -0.0040)" d="M215 137c67 0 111 -37 111 -92c0 -90 -111 -182 -215 -182c-67 0 -111 37 -111 92c0 90 111 182 215 182z" fill="currentColor"/>
</g>
<g transform="translate(23.3733, 28.3970)">
<rect x="-0.0363" y="-2.5000" width="0.0725" height="3.3206" ry="0.0363" fill="currentColor"/>
</g>
<g transform="translate(23.4096, 25.9441)">
<path transform="scale(0.0040, -0.0040)" d="M0 0c0 -197 207 -335 207 -532c0 -71 -15 -141 -41 -207c-5 -8 -13 -12 -21 -12c-14 0 -27 11 -24 28c26 60 42 125 42 191c0 103 -93 207 -163 282h-18v250h18z" fill="currentColor"/>
</g>
<g transform="translate(0.8000, 29.3970)">
<path transform="scale(0.0040, -0.0040)" d="M646 2c0 -113 -74 -213 -180 -247c3 -34 5 -68 5 -102c0 -20 -1 -40 -2 -60c-7 -121 -91 -228 -209 -228c-108 0 -196 87 -196 196c0 58 53 104 112 104c54 0 95 -48 95 -104c0 -52 -43 -95 -95 -95c-10 0 -20 2 -29 6c26 -38 68 -63 116 -63h3c93 2 153 92 159 190
c1 19 2 37 2 56c0 30 -2 60 -4 90c-5 -1 -43 -8 -88 -8c-194 0 -333 180 -333 375c0 177 130 307 246 442c-31 98 -53 170 -53 347c0 115 55 223 148 290c7 5 16 4 22 -1c68 -80 134 -243 134 -357c0 -143 -85 -255 -178 -364c21 -68 40 -137 57 -206c1 0 5 1 11 1
c156 0 257 -129 257 -262zM462 -202c66 24 111 88 111 162c0 89 -65 178 -170 190c28 -135 50 -272 59 -352zM75 26c0 -145 141 -245 263 -245c1 0 46 0 81 6c-7 65 -27 206 -61 363c-79 -8 -124 -61 -124 -119c0 -43 25 -89 80 -121c5 -5 7 -11 7 -16
c0 -12 -10 -23 -22 -23c-16 0 -127 63 -127 188c0 89 58 175 161 198c-14 58 -29 116 -46 173c-106 -122 -212 -244 -212 -404zM406 1042c-99 -47 -162 -148 -162 -257c0 -49 13 -111 38 -191c79 97 144 199 144 324c0 33 0 63 -20 124z" fill="currentColor"/>
</g>
<g transform="translate(4.3000, 26.3970)">
<path transform="scale(0.0040, -0.0040)" d="M0 117c0 9 6 18 15 21l43 16v157c0 11 8 19 19 19s20 -8 20 -19v-142l81 30v156c0 11 9 20 20 20s19 -9 19 -20v-142l28 11c3 1 5 1 8 1c12 0 22 -10 22 -23v-57c0 -9 -6 -18 -15 -21l-43 -16v-157l28 10c3 1 5 1 8 1c12 0 22 -9 22 -22v-57c0 -9 -6 -18 -15 -21l-43 -16
v-157c0 -11 -8 -19 -19 -19s-20 8 -20 19v142l-81 -30v-156c0 -11 -9 -20 -20 -20s-19 9 -19 20v142l-28 -11c-3 -1 -5 -1 -8 -1c-12 0 -22 10 -22 23v57c0 9 6 18 15 21l43 16v157l-28 -10c-3 -1 -5 -1 -8 -1c-12 0 -22 9 -22 22v57zM178 94l-81 -30v-158l81 30v158z" fill="currentColor"/>
</g>
<g transform="translate(22.1758, 33.9441)">
<text font-family="Source Sans Pro" font-size="2.4690" text-anchor="start" fill="currentColor">
<tspan>v</tspan>
</text>
</g>
<g transform="translate(7.9000, 28.8970)">
<path transform="scale(0.0040, -0.0040)" d="M215 137c67 0 111 -37 111 -92c0 -90 -111 -182 -215 -182c-67 0 -111 37 -111 92c0 90 111 182 215 182z" fill="currentColor"/>
</g>
<g transform="translate(7.5271, 33.9441)">
<text font-family="Source Sans Pro" font-size="2.4690" text-anchor="start" fill="currentColor">
<tspan>Bi</tspan>
</text>
</g>
<g transform="translate(9.1665, 28.3970)">
<rect x="-0.0363" y="-2.7879" width="0.0725" height="3.1085" ry="0.0363" fill="currentColor"/>
</g>
<g transform="translate(30.4957, 29.3970)">
<path transform="scale(0.0040, -0.0040)" d="M215 137c67 0 111 -37 111 -92c0 -90 -111 -182 -215 -182c-67 0 -111 37 -111 92c0 90 111 182 215 182z" fill="currentColor"/>
</g>
<g transform="translate(31.7623, 28.3970)">
<rect x="-0.0363" y="-1.9978" width="0.0725" height="2.8184" ry="0.0363" fill="currentColor"/>
</g>
<g transform="translate(35.1826, 28.3970)">
<rect x="-0.0363" y="-3.0000" width="0.0725" height="3.3206" ry="0.0363" fill="currentColor"/>
</g>
<g transform="translate(32.6394, 33.9441)">
<text font-family="Source Sans Pro" font-size="2.4690" text-anchor="start" fill="currentColor">
<tspan>mej</tspan>
</text>
</g>
<g transform="translate(33.9160, 28.8970)">
<path transform="scale(0.0040, -0.0040)" d="M215 137c67 0 111 -37 111 -92c0 -90 -111 -182 -215 -182c-67 0 -111 37 -111 92c0 90 111 182 215 182z" fill="currentColor"/>
</g>
<g transform="translate(39.4538, 28.8970)">
<path transform="scale(0.0040, -0.0040)" d="M215 137c67 0 111 -37 111 -92c0 -90 -111 -182 -215 -182c-67 0 -111 37 -111 92c0 90 111 182 215 182z" fill="currentColor"/>
</g>
<g transform="translate(27.0754, 29.8970)">
<path transform="scale(0.0040, -0.0040)" d="M215 137c67 0 111 -37 111 -92c0 -90 -111 -182 -215 -182c-67 0 -111 37 -111 92c0 90 111 182 215 182z" fill="currentColor"/>
</g>
<g transform="translate(27.0754, 33.9441)">
<text font-family="Source Sans Pro" font-size="2.4690" text-anchor="start" fill="currentColor">
<tspan>ja</tspan>
</text>
</g>
<g transform="translate(28.3420, 28.3970)">
<rect x="-0.0363" y="-1.7901" width="0.0725" height="3.1107" ry="0.0363" fill="currentColor"/>
</g>
<g transform="translate(40.7204, 28.3970)">
<rect x="-0.0363" y="-3.0000" width="0.0725" height="3.3206" ry="0.0363" fill="currentColor"/>
</g>
<g transform="translate(38.4583, 33.9441)">
<text font-family="Source Sans Pro" font-size="2.4690" text-anchor="start" fill="currentColor">
<tspan>nú,</tspan>
</text>
</g>
<g transform="translate(0.0000, 42.6456)">
<line stroke-linejoin="round" stroke-linecap="round" stroke-width="0.0558" stroke="currentColor" x1="0.0279" y1="0" x2="82.3177" y2="0"/>
</g>
<g transform="translate(0.0000, 41.6456)">
<line stroke-linejoin="round" stroke-linecap="round" stroke-width="0.0558" stroke="currentColor" x1="0.0279" y1="0" x2="82.3177" y2="0"/>
</g>
<g transform="translate(0.0000, 40.6456)">
<line stroke-linejoin="round" stroke-linecap="round" stroke-width="0.0558" stroke="currentColor" x1="0.0279" y1="0" x2="82.3177" y2="0"/>
</g>
<g transform="translate(0.0000, 39.6456)">
<line stroke-linejoin="round" stroke-linecap="round" stroke-width="0.0558" stroke="currentColor" x1="0.0279" y1="0" x2="82.3177" y2="0"/>
</g>
<g transform="translate(0.0000, 38.6456)">
<line stroke-linejoin="round" stroke-linecap="round" stroke-width="0.0558" stroke="currentColor" x1="0.0279" y1="0" x2="82.3177" y2="0"/>
</g>
<g transform="translate(82.1336, 40.6456)">
<rect x="0.0000" y="-2.0000" width="0.2120" height="4.0000" ry="0.0000" fill="currentColor"/>
</g>
<g transform="translate(44.2140, 40.6456)">
<rect x="0.0000" y="-2.0000" width="0.2120" height="4.0000" ry="0.0000" fill="currentColor"/>
</g>
<g transform="translate(26.4933, 40.6456)">
<rect x="0.0000" y="-2.0000" width="0.2120" height="4.0000" ry="0.0000" fill="currentColor"/>
</g>
<g transform="translate(64.3415, 40.6456)">
<rect x="0.0000" y="-2.0000" width="0.2120" height="4.0000" ry="0.0000" fill="currentColor"/>
</g>
<g transform="translate(60.5669, 41.1456)">
<path transform="scale(0.0040, -0.0040)" d="M215 137c67 0 111 -37 111 -92c0 -90 -111 -182 -215 -182c-67 0 -111 37 -111 92c0 90 111 182 215 182z" fill="currentColor"/>
</g>
<g transform="translate(59.3705, 46.3211)">
<text font-family="Source Sans Pro" font-size="2.4690" text-anchor="start" fill="currentColor">
<tspan>ach</tspan>
</text>
</g>
<g transform="translate(61.8334, 40.6456)">
<rect x="-0.0363" y="-3.0000" width="0.0725" height="3.3206" ry="0.0363" fill="currentColor"/>
</g>
<g transform="translate(61.8697, 37.6927)">
<path transform="scale(0.0040, -0.0040)" d="M0 0c0 -197 207 -335 207 -532c0 -71 -15 -141 -41 -207c-5 -8 -13 -12 -21 -12c-14 0 -27 11 -24 28c26 60 42 125 42 191c0 103 -93 207 -163 282h-18v250h18z" fill="currentColor"/>
</g>
<g transform="translate(65.8959, 41.1456)">
<path transform="scale(0.0040, -0.0040)" d="M215 137c67 0 111 -37 111 -92c0 -90 -111 -182 -215 -182c-67 0 -111 37 -111 92c0 90 111 182 215 182z" fill="currentColor"/>
</g>
<g transform="translate(64.5790, 46.3211)">
<text font-family="Source Sans Pro" font-size="2.4690" text-anchor="start" fill="currentColor">
<tspan>ben</tspan>
</text>
</g>
<g transform="translate(67.1624, 40.6456)">
<rect x="-0.0363" y="-2.7825" width="0.0725" height="3.1031" ry="0.0363" fill="currentColor"/>
</g>
<g transform="translate(49.4507, 40.6456)">
<path transform="scale(0.0040, -0.0040)" d="M215 137c67 0 111 -37 111 -92c0 -90 -111 -182 -215 -182c-67 0 -111 37 -111 92c0 90 111 182 215 182z" fill="currentColor"/>
</g>
<g transform="translate(67.1262, 37.8577)">
<polygon stroke-linejoin="round" stroke-linecap="round" stroke-width="0.0941" fill="currentColor" stroke="currentColor" points="3.8296 0.3829 3.8296 0.7687 0.0471 0.1929 0.0471 -0.1929"/>
</g>
<g transform="translate(48.5757, 46.3211)">
<text font-family="Source Sans Pro" font-size="2.4690" text-anchor="start" fill="currentColor">
<tspan>Ma</tspan>
</text>
</g>
<g transform="translate(50.7173, 40.6456)">
<rect x="-0.0363" y="-2.9980" width="0.0725" height="2.8186" ry="0.0363" fill="currentColor"/>
</g>
<g transform="translate(53.1331, 40.6456)">
<path transform="scale(0.0040, -0.0040)" d="M215 137c67 0 111 -37 111 -92c0 -90 -111 -182 -215 -182c-67 0 -111 37 -111 92c0 90 111 182 215 182z" fill="currentColor"/>
</g>
<g transform="translate(52.9611, 46.3211)">
<text font-family="Source Sans Pro" font-size="2.4690" text-anchor="start" fill="currentColor">
<tspan>ší</tspan>
</text>
</g>
<g transform="translate(54.8819, 40.1456)">
<path transform="scale(0.0040, -0.0040)" d="M0 0c0 31 25 56 56 56s55 -25 55 -56s-24 -56 -55 -56s-56 25 -56 56z" fill="currentColor"/>
</g>
<g transform="translate(53.1694, 40.6456)">
<rect x="-0.0363" y="0.1794" width="0.0725" height="3.1540" ry="0.0363" fill="currentColor"/>
</g>
<g transform="translate(14.0965, 46.3211)">
<rect x="0.0000" y="-0.5651" width="0.6600" height="0.1451" ry="0.0446" fill="currentColor"/>
</g>
<g transform="translate(18.8010, 46.3211)">
<rect x="0.0000" y="-0.5651" width="0.6600" height="0.1451" ry="0.0446" fill="currentColor"/>
</g>
<g transform="translate(9.1303, 37.8577)">
<polygon stroke-linejoin="round" stroke-linecap="round" stroke-width="0.0941" fill="currentColor" stroke="currentColor" points="3.7079 -0.1929 3.7079 0.1929 0.0471 0.1929 0.0471 -0.1929"/>
</g>
<g transform="translate(33.9590, 46.3211)">
<rect x="0.0000" y="-0.5651" width="0.3276" height="0.1451" ry="0.0446" fill="currentColor"/>
</g>
<g transform="translate(29.2780, 38.8577)">
<polygon stroke-linejoin="round" stroke-linecap="round" stroke-width="0.0941" fill="currentColor" stroke="currentColor" points="3.8296 -0.4050 3.8296 -0.0192 0.0471 0.1929 0.0471 -0.1929"/>
</g>
<g transform="translate(51.9648, 46.3211)">
<rect x="0.0000" y="-0.5651" width="0.6600" height="0.1451" ry="0.0446" fill="currentColor"/>
</g>
<g transform="translate(56.6593, 46.3211)">
<rect x="0.0000" y="-0.5651" width="0.6600" height="0.1451" ry="0.0446" fill="currentColor"/>
</g>
<g transform="translate(46.9986, 37.8577)">
<polygon stroke-linejoin="round" stroke-linecap="round" stroke-width="0.0941" fill="currentColor" stroke="currentColor" points="3.7079 -0.4050 3.7079 -0.0192 0.0471 0.1929 0.0471 -0.1929"/>
</g>
<g transform="translate(71.8072, 46.3211)">
<rect x="0.0000" y="-0.5651" width="0.3276" height="0.1451" ry="0.0446" fill="currentColor"/>
</g>
<g transform="translate(69.7000, 42.1456)">
<path transform="scale(0.0040, -0.0040)" d="M215 137c67 0 111 -37 111 -92c0 -90 -111 -182 -215 -182c-67 0 -111 37 -111 92c0 90 111 182 215 182z" fill="currentColor"/>
</g>
<g transform="translate(68.9656, 46.3211)">
<text font-family="Source Sans Pro" font-size="2.4690" text-anchor="start" fill="currentColor">
<tspan>Da</tspan>
</text>
</g>
<g transform="translate(70.9665, 40.6456)">
<rect x="-0.0363" y="-2.2175" width="0.0725" height="3.5381" ry="0.0363" fill="currentColor"/>
</g>
<g transform="translate(73.3823, 42.6456)">
<path transform="scale(0.0040, -0.0040)" d="M312 64c0 23 -18 41 -41 41c-39 0 -201 -110 -228 -142c-7 -8 -10 -17 -10 -27c0 -23 18 -41 41 -41c39 0 201 110 228 142c7 8 10 17 10 27zM259 137c46 0 86 -17 86 -74c0 -26 -15 -112 -73 -151c-29 -20 -89 -49 -186 -49c-46 0 -86 17 -86 74c0 26 16 112 74 151
c29 20 88 49 185 49z" fill="currentColor"/>
</g>
<g transform="translate(72.2048, 46.3211)">
<text font-family="Source Sans Pro" font-size="2.4690" text-anchor="start" fill="currentColor">
<tspan>vid.</tspan>
</text>
</g>
<g transform="translate(74.7267, 40.6456)">
<rect x="-0.0363" y="-1.5000" width="0.0725" height="3.2470" ry="0.0363" fill="currentColor"/>
</g>
<g transform="translate(68.6225, 37.3573)">
<text font-family="serif" font-size="2.7723" text-anchor="start" fill="currentColor">
<tspan>D. C. al fine</tspan>
</text>
</g>
<g transform="translate(16.5313, 40.6456)">
<rect x="-0.0363" y="-3.0000" width="0.0725" height="3.3206" ry="0.0363" fill="currentColor"/>
</g>
<g transform="translate(11.5824, 41.1456)">
<path transform="scale(0.0040, -0.0040)" d="M215 137c67 0 111 -37 111 -92c0 -90 -111 -182 -215 -182c-67 0 -111 37 -111 92c0 90 111 182 215 182z" fill="currentColor"/>
</g>
<g transform="translate(10.7074, 46.3211)">
<text font-family="Source Sans Pro" font-size="2.4690" text-anchor="start" fill="currentColor">
<tspan>Ma</tspan>
</text>
</g>
<g transform="translate(12.8489, 40.6456)">
<rect x="-0.0363" y="-2.7879" width="0.0725" height="3.1085" ry="0.0363" fill="currentColor"/>
</g>
<g transform="translate(15.2648, 41.1456)">
<path transform="scale(0.0040, -0.0040)" d="M215 137c67 0 111 -37 111 -92c0 -90 -111 -182 -215 -182c-67 0 -111 37 -111 92c0 90 111 182 215 182z" fill="currentColor"/>
</g>
<g transform="translate(15.0927, 46.3211)">
<text font-family="Source Sans Pro" font-size="2.4690" text-anchor="start" fill="currentColor">
<tspan>ší</tspan>
</text>
</g>
<g transform="translate(17.0136, 41.1456)">
<path transform="scale(0.0040, -0.0040)" d="M0 0c0 31 25 56 56 56s55 -25 55 -56s-24 -56 -55 -56s-56 25 -56 56z" fill="currentColor"/>
</g>
<g transform="translate(22.7187, 41.6456)">
<path transform="scale(0.0040, -0.0040)" d="M215 137c67 0 111 -37 111 -92c0 -90 -111 -182 -215 -182c-67 0 -111 37 -111 92c0 90 111 182 215 182z" fill="currentColor"/>
</g>
<g transform="translate(21.5223, 46.3211)">
<text font-family="Source Sans Pro" font-size="2.4690" text-anchor="start" fill="currentColor">
<tspan>ach</tspan>
</text>
</g>
<g transform="translate(23.9852, 40.6456)">
<rect x="-0.0363" y="-2.5000" width="0.0725" height="3.3206" ry="0.0363" fill="currentColor"/>
</g>
<g transform="translate(47.0349, 40.6456)">
<rect x="-0.0363" y="-2.7899" width="0.0725" height="3.1106" ry="0.0363" fill="currentColor"/>
</g>
<g transform="translate(24.0215, 38.1927)">
<path transform="scale(0.0040, -0.0040)" d="M0 0c0 -197 207 -335 207 -532c0 -71 -15 -141 -41 -207c-5 -8 -13 -12 -21 -12c-14 0 -27 11 -24 28c26 60 42 125 42 191c0 103 -93 207 -163 282h-18v250h18z" fill="currentColor"/>
</g>
<g transform="translate(0.8000, 41.6456)">
<path transform="scale(0.0040, -0.0040)" d="M646 2c0 -113 -74 -213 -180 -247c3 -34 5 -68 5 -102c0 -20 -1 -40 -2 -60c-7 -121 -91 -228 -209 -228c-108 0 -196 87 -196 196c0 58 53 104 112 104c54 0 95 -48 95 -104c0 -52 -43 -95 -95 -95c-10 0 -20 2 -29 6c26 -38 68 -63 116 -63h3c93 2 153 92 159 190
c1 19 2 37 2 56c0 30 -2 60 -4 90c-5 -1 -43 -8 -88 -8c-194 0 -333 180 -333 375c0 177 130 307 246 442c-31 98 -53 170 -53 347c0 115 55 223 148 290c7 5 16 4 22 -1c68 -80 134 -243 134 -357c0 -143 -85 -255 -178 -364c21 -68 40 -137 57 -206c1 0 5 1 11 1
c156 0 257 -129 257 -262zM462 -202c66 24 111 88 111 162c0 89 -65 178 -170 190c28 -135 50 -272 59 -352zM75 26c0 -145 141 -245 263 -245c1 0 46 0 81 6c-7 65 -27 206 -61 363c-79 -8 -124 -61 -124 -119c0 -43 25 -89 80 -121c5 -5 7 -11 7 -16
c0 -12 -10 -23 -22 -23c-16 0 -127 63 -127 188c0 89 58 175 161 198c-14 58 -29 116 -46 173c-106 -122 -212 -244 -212 -404zM406 1042c-99 -47 -162 -148 -162 -257c0 -49 13 -111 38 -191c79 97 144 199 144 324c0 33 0 63 -20 124z" fill="currentColor"/>
</g>
<g transform="translate(4.3000, 38.6456)">
<path transform="scale(0.0040, -0.0040)" d="M0 117c0 9 6 18 15 21l43 16v157c0 11 8 19 19 19s20 -8 20 -19v-142l81 30v156c0 11 9 20 20 20s19 -9 19 -20v-142l28 11c3 1 5 1 8 1c12 0 22 -10 22 -23v-57c0 -9 -6 -18 -15 -21l-43 -16v-157l28 10c3 1 5 1 8 1c12 0 22 -9 22 -22v-57c0 -9 -6 -18 -15 -21l-43 -16
v-157c0 -11 -8 -19 -19 -19s-20 8 -20 19v142l-81 -30v-156c0 -11 -9 -20 -20 -20s-19 9 -19 20v142l-28 -11c-3 -1 -5 -1 -8 -1c-12 0 -22 10 -22 23v57c0 9 6 18 15 21l43 16v157l-28 -10c-3 -1 -5 -1 -8 -1c-12 0 -22 9 -22 22v57zM178 94l-81 -30v-158l81 30v158z" fill="currentColor"/>
</g>
<g transform="translate(7.9000, 41.1456)">
<path transform="scale(0.0040, -0.0040)" d="M215 137c67 0 111 -37 111 -92c0 -90 -111 -182 -215 -182c-67 0 -111 37 -111 92c0 90 111 182 215 182z" fill="currentColor"/>
</g>
<g transform="translate(7.2258, 46.3211)">
<text font-family="Source Sans Pro" font-size="2.4690" text-anchor="start" fill="currentColor">
<tspan>im</tspan>
</text>
</g>
<g transform="translate(9.1665, 40.6456)">
<rect x="-0.0363" y="-2.7879" width="0.0725" height="3.1085" ry="0.0363" fill="currentColor"/>
</g>
<g transform="translate(31.1174, 46.3211)">
<text font-family="Source Sans Pro" font-size="2.4690" text-anchor="start" fill="currentColor">
<tspan>Da</tspan>
</text>
</g>
<g transform="translate(31.8518, 41.6456)">
<path transform="scale(0.0040, -0.0040)" d="M215 137c67 0 111 -37 111 -92c0 -90 -111 -182 -215 -182c-67 0 -111 37 -111 92c0 90 111 182 215 182z" fill="currentColor"/>
</g>
<g transform="translate(33.1183, 40.6456)">
<rect x="-0.0363" y="-1.9980" width="0.0725" height="2.8187" ry="0.0363" fill="currentColor"/>
</g>
<g transform="translate(36.8785, 40.6456)">
<rect x="-0.0363" y="-3.0000" width="0.0725" height="3.2470" ry="0.0363" fill="currentColor"/>
</g>
<g transform="translate(34.3566, 46.3211)">
<text font-family="Source Sans Pro" font-size="2.4690" text-anchor="start" fill="currentColor">
<tspan>vid,</tspan>
</text>
</g>
<g transform="translate(35.5342, 41.1456)">
<path transform="scale(0.0040, -0.0040)" d="M312 64c0 23 -18 41 -41 41c-39 0 -201 -110 -228 -142c-7 -8 -10 -17 -10 -27c0 -23 18 -41 41 -41c39 0 201 110 228 142c7 8 10 17 10 27zM259 137c46 0 86 -17 86 -74c0 -26 -15 -112 -73 -151c-29 -20 -89 -49 -186 -49c-46 0 -86 17 -86 74c0 26 16 112 74 151
c29 20 88 49 185 49z" fill="currentColor"/>
</g>
<g transform="translate(28.0477, 42.1456)">
<path transform="scale(0.0040, -0.0040)" d="M215 137c67 0 111 -37 111 -92c0 -90 -111 -182 -215 -182c-67 0 -111 37 -111 92c0 90 111 182 215 182z" fill="currentColor"/>
</g>
<g transform="translate(26.7309, 46.3211)">
<text font-family="Source Sans Pro" font-size="2.4690" text-anchor="start" fill="currentColor">
<tspan>ben</tspan>
</text>
</g>
<g transform="translate(45.0942, 46.3211)">
<text font-family="Source Sans Pro" font-size="2.4690" text-anchor="start" fill="currentColor">
<tspan>im</tspan>
</text>
</g>
<g transform="translate(29.3143, 40.6456)">
<rect x="-0.0363" y="-1.7899" width="0.0725" height="3.1105" ry="0.0363" fill="currentColor"/>
</g>
<g transform="translate(45.7684, 41.1456)">
<path transform="scale(0.0040, -0.0040)" d="M215 137c67 0 111 -37 111 -92c0 -90 -111 -182 -215 -182c-67 0 -111 37 -111 92c0 90 111 182 215 182z" fill="currentColor"/>
</g>
</svg>
