<?xml version="1.0" encoding="UTF-8" standalone="no"?>
<svg
   viewBox="0 0 2125.8128 2192.1819"
   version="1.1"
   id="svg1"
   width="2125.8127"
   height="2192.1819"
   xmlns="http://www.w3.org/2000/svg"
   xmlns:svg="http://www.w3.org/2000/svg">
  <defs
     id="defs1" />
  <path
     style="fill:#f06021"
     d="m 1507.8616,2191.5728 c -5.0184,-0.9567 -19.9278,-8.3417 -28.2681,-14.0019 -7.9201,-5.3751 -14.5619,-12.7972 -17.8197,-19.9132 -2.3876,-5.2151 -2.6457,-6.9554 -2.2523,-15.1845 0.3799,-7.9445 1.0058,-10.4764 4.3098,-17.4338 7.2041,-15.1696 17.0515,-27.8132 45.0929,-57.8968 38.9524,-41.7894 53.5954,-62.195 58.2492,-81.1728 0.7007,-2.8575 2.5822,-7.8355 4.1812,-11.0622 10.1896,-20.5626 14.9684,-45.1209 12.7331,-65.4352 -4.9635,-45.1075 -38.4984,-82.1978 -94.1197,-104.0985 -4.5614,-1.796 -25.4414,-12.0825 -46.4,-22.8589 -103.4715,-53.2023 -154.536,-78.0625 -204.2082,-99.4163 -18.7631,-8.0662 -29.3327,-14.9123 -40.9159,-26.5019 -9.9558,-9.9613 -16.1177,-18.6773 -21.8462,-30.9016 -13.9395,-29.7461 -16.386,-65.0913 -9.6434,-139.3209 4.2349,-46.623 5.1071,-70.7291 3.2226,-89.0667 -1.9944,-19.4064 -1.7855,-21.779 3.2399,-36.8 2.4535,-7.3333 7.0879,-21.4933 10.2988,-31.4666 9.0006,-27.9569 17.7299,-43.6487 31.9717,-57.4723 9.0607,-8.7947 14.0865,-18.2679 16.8794,-31.8161 6.234,-30.241 -3.8815,-60.0777 -41.693,-122.9783 -8.8166,-14.6666 -18.1181,-30.5066 -20.6699,-35.2 -2.5518,-4.6933 -7.5943,-12.8533 -11.2056,-18.1333 -37.9694,-55.5154 -63.1674,-123.48602 -71.3759,-192.5333 -2.2677,-19.0757 -3.1926,-57.8193 -1.8041,-75.5746 1.0363,-13.2519 1.3589,-14.65 4.6452,-20.1282 8.4297,-14.0527 19.2788,-21.6004 31.0768,-21.6202 9.3792,-0.016 19.7806,4.0204 47.0993,18.2762 29.1291,15.2006 32.1888,16.115 53.8887,16.1048 29.6917,-0.014 62.2938,-7.8203 77.8745,-18.6465 8.4855,-5.8961 13.5897,-8.5129 22.3817,-11.4747 13.6341,-4.593 31.1363,-4.6182 44.6255,-0.064 5.6963,1.923 6.0245,1.919 16.0667,-0.1984 11.9764,-2.5252 38.4223,-2.9635 53.4516,-0.8859 25.5649,3.534 67.5586,11.1094 74.1334,13.3731 18.4885,6.3657 30.3003,3.8126 36.197,-7.8239 5.9144,-11.6715 6.2453,-31.4521 1.1877,-70.9816 -3.1379,-24.5252 -3.3596,-32.2224 -1.0851,-37.6661 5.3402,-12.7807 16.1266,-17.9957 31.4765,-15.218 3.7898,0.6858 15.7565,4.1049 26.5926,7.598 10.8361,3.4931 23.0761,6.8412 27.2,7.4403 4.1239,0.5992 16.8579,2.7333 28.2979,4.7426 46.7042,8.203 72.0001,11.1473 95.7738,11.1473 17.2498,0 26.2352,-1.2103 32.4234,-4.3673 13.8467,-7.064 5.0482,-21.1625 -29.0395,-46.5324 -7.9432,-5.9118 -17.4015,-13.9121 -21.0183,-17.7786 -30.0796,-32.15515 -32.2472,-67.19617 -4.792,-77.46846 10.1111,-3.78307 18.1323,-3.72105 55.186,0.42665 51.5559,5.77107 64.8655,6.9648 93.0687,8.34729 68.4375,3.35474 121.509,-6.94495 158.3996,-30.74093 43.4053,-27.99824 18.7401,-48.11857 -64.6772,-52.75977 -22.7044,-1.26323 -50.2196,-0.16293 -69.3713,2.77408 -29.8099,4.57148 -78.8597,-7.83042 -103.0273,-26.04974 -10.9668,-8.26758 -17.0722,-18.38483 -17.0488,-28.25161 0.02,-8.31917 7.5513,-20.76399 17.5,-28.91621 4.2235,-3.46087 5.7952,-3.98529 17.8274,-5.94825 31.8828,-5.20145 62.0792,-14.42684 129.9955,-39.71525 19.6533,-7.31785 40.0533,-14.66134 45.3333,-16.31887 7.4147,-2.32764 11.1784,-4.2615 16.5334,-8.49512 3.8133,-3.01479 14.9994,-10.88383 24.8579,-17.48677 28.2651,-18.93101 35.8237,-27.29808 32.2934,-35.74734 -1.4466,-3.46229 -8.3019,-9.41951 -12.2996,-10.68832 -1.0258,-0.32559 -7.5497,1.60508 -14.4975,4.29036 -25.772,9.96062 -59.9778,18.41269 -94.4787,23.34517 -34.3834,4.91567 -62.3755,7.00722 -129.4755,9.67431 -46.8329,1.86152 -84.5522,4.14101 -106.6667,6.4462 -8.2133,0.85615 -24.5333,1.56233 -36.2666,1.5693 -110.9657,0.0659 -213.1808,31.87495 -292.4198,91.00031 -15.2811,11.40214 -102.8489,70.47227 -131.0469,88.39946 -36.2407,23.04048 -71.4309,42.10125 -100.2667,54.30952 -11.6958,4.95171 -25.1821,12.19064 -50.1333,26.90978 -69.1812,40.81113 -99.0659,55.67606 -127.37402,63.35701 -14.1323,3.8346 -28.3235,4.0171 -35.552,0.4573 -2.7825,-1.3704 -6.0303,-3.8554 -7.2172,-5.5222 l -2.158,-3.03063 13.0839,-6.75874 c 20.2129,-10.44138 33.8957,-19.03395 59.71442,-37.49957 38.0919,-27.24347 52.6646,-36.49593 63.423,-40.26824 17.0282,-5.97077 37.8776,-17.68593 75.638,-42.50057 53.6354,-35.24711 65.2938,-42.53257 95.3752,-59.60128 59.1703,-33.57416 78.7569,-46.22027 101.6875,-65.6545 7.6537,-6.4867 12.8525,-10.03265 16.5384,-11.28047 7.1655,-2.42576 17.581,-8.85139 44.4408,-27.41678 53.2662,-36.81741 78.9164,-49.29218 107.2,-52.13586 3.8133,-0.3834 11.4933,-2.07696 17.0667,-3.76346 19.8015,-5.992 37.921,-8.7125 84.8,-12.73202 33.8088,-2.89885 50.7714,-4.88533 68.9608,-8.07591 14.0739,-2.4687 15.7779,-2.55411 26.8991,-1.34832 15.7387,1.70644 55.8478,1.6916 70.5401,-0.0261 22.5807,-2.63995 45.2263,-7.42392 67.2,-14.19629 13.8516,-4.26912 25.4365,-4.83255 53.566,-2.6052 27.3165,2.16298 52.6166,2.20835 64.6157,0.11588 13.1982,-2.30158 26.0113,-7.30417 37.2861,-14.55762 20.5436,-13.21639 31.3024,-17.00658 48.2655,-17.00331 13.6001,0.003 24.063,2.63806 37.0919,9.34282 7.8878,4.05913 11.7655,6.97804 19.5338,14.70386 13.6221,13.54745 19.9554,25.70607 21.3812,41.04712 2.0078,21.6031 -10.3387,41.01542 -35.8762,56.40807 -6.1586,3.71205 -14.4951,9.305 -18.5256,12.4288 -21.8886,16.96449 -51.2412,29.52026 -121.2051,51.84633 -43.8884,14.00515 -62.8099,21.81174 -79.3163,32.72402 -5.3777,3.55522 -6.9114,5.06329 -5.7884,5.69176 4.1838,2.34138 25.3876,3.36996 47.2817,2.2936 22.2079,-1.0918 37.8621,-0.4917 47.423,1.81792 2.64,0.63775 14.64,2.1054 26.6666,3.26144 24.5645,2.36123 33.894,3.61263 72,9.65759 14.6667,2.32666 28.481,4.50719 30.6985,4.84562 3.3283,0.50798 4.9644,1.7612 9.377,7.18288 11.1007,13.63915 17.9196,32.46238 16.6572,45.98138 -2.0452,21.90147 -17.13,43.01129 -43.1855,60.43424 -31.6908,21.19125 -72.0899,35.18369 -113.805,39.41697 -16.2212,1.64615 -32.362,0.74284 -47.167,-2.63965 -18.4241,-4.20934 -32.6351,-6.03533 -52.1615,-6.70232 -35.9065,-1.22652 -58.0151,4.56108 -63.0002,16.49229 -3.4302,8.20962 0.7832,17.38405 14.0757,30.64885 11.6082,11.584 24.381,21.0927 33.0275,24.5875 24.8934,10.0614 39.6348,32.4895 35.806,54.4764 -6.273,36.0222 -46.9484,51.3949 -89.1226,33.6826 -4.9389,-2.0742 -10.1781,-3.351 -15.4755,-3.7712 -14.6456,-1.1619 -31.5268,-7.0781 -82.3075,-28.8454 -43.8377,-18.7913 -64.3773,-24.8597 -80.8837,-23.8972 -13.0414,0.7604 -21.4206,6.4178 -25.4317,17.1705 l -2.0089,5.3852 4.5194,7.007 c 10.4143,16.1464 18.9587,37.3744 21.9262,54.4737 2.0798,11.9844 1.6242,29.7961 -1.0182,39.8015 -6.0021,22.728 -21.4647,37.9255 -44.9201,44.15 -5.1934,1.3782 -10.8148,1.8078 -22.4,1.7119 -16.3962,-0.1358 -14.075,0.2533 -58.1334,-9.7449 -36.9965,-8.3957 -66.4575,-11.4379 -101.8666,-10.519 -33.8457,0.8784 -56.5257,4.6441 -85.209,14.1479 -14.0884,4.6679 -38.0577,15.4905 -48.3951,21.8511 -2.9209,1.7973 -5.8582,3.0578 -6.5273,2.801 -0.669,-0.2567 -5.4424,-3.6541 -10.6074,-7.5496 -34.1921,-25.7883 -76.6004,-31.4441 -95.3307,-12.7138 -6.9417,6.9418 -9.199,12.9787 -9.6957,25.9306 -0.5218,13.6091 0.9785,20.7922 8.2434,39.4666 2.8529,7.3334 6.7335,19.8134 8.6236,27.73338 4.6962,19.678 13.0887,43.6583 25.7379,73.54182 5.8492,13.8187 12.2925,29.2048 14.3185,34.1915 2.0259,4.9867 10.6613,22.0267 19.1898,37.8667 39.0481,72.5243 61.1863,120.7695 71.7383,156.3368 l 3.3436,11.2701 -8.0674,12.1965 c -38.1843,57.7277 -59.3958,119.2298 -54.7998,158.8903 0.6441,5.5584 1.6198,14.1862 2.1683,19.1729 0.5484,4.9867 0.9998,30.4267 1.0031,56.5333 0.01,48.1487 0.9204,68.9712 3.7468,85.3334 3.3536,19.4139 9.0913,34.7004 17.5518,46.7617 7.1644,10.2136 24.2537,21.3094 45.3673,29.4562 18.3539,7.0821 28.4288,11.6465 40.2779,18.2482 5.7262,3.1903 10.8951,5.8005 11.4864,5.8005 2.9205,0 27.7996,8.8131 51.169,18.126 29.0643,11.5823 31.1857,12.3182 50.1333,17.3915 12.8502,3.4407 13.7641,3.8808 25.2208,12.1453 33.2397,23.9781 79.288,49.6661 108.5997,60.5821 13.3239,4.962 24.3706,7.8066 34.8842,8.9828 10.342,1.1571 17.9162,5.2621 27.6275,14.9735 16.066,16.066 22.3217,36.2258 22.3302,71.9623 0.01,26.3803 -3.0738,50.3022 -15.3951,119.5699 -8.9494,50.3113 -13.4577,70.6918 -20.9216,94.5791 -16.84,53.8943 -40.9448,84.1021 -74.7845,93.7189 -8.5037,2.4167 -29.0843,3.6718 -36.6278,2.2338 z M 299.66234,2072.0531 c -2.74955,-1.0751 -6.58955,-2.9296 -8.53334,-4.1211 -1.94378,-1.1916 -12.41415,-6.6656 -23.26748,-12.1646 -37.97371,-19.2399 -70.08743,-41.9801 -124.69365,-88.2974 -38.55091,-32.699 -61.448085,-51.6621 -74.127635,-61.3913 -10.93215,-8.3884 -12.75915,-10.2675 -15.99818,-16.4538 -7.27538,-13.8956 -7.57714,-26.4404 -0.95444,-39.6784 9.82688,-19.6428 33.38652,-33.5948 58.765935,-34.8012 15.24867,-0.7249 21.85228,1.1917 35.80691,10.3921 23.26036,15.3357 40.13258,31.194 82.31735,77.3702 17.15056,18.7734 33.13596,36.0117 35.52313,38.3074 l 4.3403,4.174 12.04347,-3.4635 c 36.97588,-10.6337 57.32781,-21.966 77.11014,-42.9362 8.68496,-9.2064 10.66755,-10.7063 20.8,-15.7353 34.88928,-17.3167 70.76429,-49.7949 84.26666,-76.288 1.46667,-2.8777 8.66667,-12.7721 16,-21.9874 7.33334,-9.2154 21.70935,-28.4512 31.94669,-42.7464 36.25588,-50.6268 50.45534,-69.2241 69.93198,-91.5912 5.6064,-6.4385 16.8042,-21.8568 26.3392,-36.2667 28.4479,-42.9923 51.4284,-74.3774 74.8843,-102.2716 18.9595,-22.547 29.2471,-35.805 41.3605,-53.3032 29.945,-43.2561 36.0368,-51.7643 45.1727,-63.0919 9.6977,-12.024 23.9333,-26.5125 35.8491,-36.486 16.2241,-13.5795 28.1651,-38.3108 33.1127,-68.5806 0.8719,-5.3342 1.3552,-17.1312 1.2892,-31.4667 -0.117,-25.382 -2.0715,-41.927 -8.0649,-68.2667 -7.8531,-34.5128 -10.9074,-66.8892 -14.2384,-150.9333 -2.4292,-61.29262 -3.6698,-78.55692 -8.5081,-118.4 -4.3723,-36.0055 -5.9264,-61.6354 -9.0695,-149.5693 -2.063,-57.7172 -2.0629,-57.8529 0.063,-66.1333 8.0608,-31.3982 -1.2053,-71.6807 -18.8699,-82.0328 -9.9621,-5.8382 -19.2394,-5.4722 -32.3985,1.2781 -6.4662,3.3171 -9.7294,5.666 -21.5267,15.4955 -3.1201,2.5997 -7.5325,4.7353 -13.6734,6.618 -22.8187,6.996 -42.7492,19.9718 -92.2666,60.0704 -33.8672,27.4254 -45.7683,35.8084 -63.17322,44.4985 -27.87543,13.9181 -49.34575,14.5344 -70.99146,2.0378 l -5.09805,-2.9432 -11.04281,-33.0599 c -29.78718,-89.1766 -66.2433,-168.54801 -107.90418,-234.92648 -2.88245,-4.59262 -4.84882,-6.66147 -6.32054,-6.64996 -3.55307,0.0278 -21.67275,4.04736 -34.13636,7.57262 -28.21252,7.97974 -49.59102,17.30781 -113.01151,49.31028 -51.3535,25.91337 -63.77247,31.72456 -86.08417,40.28126 -14.99935,5.75235 -41.413275,13.75246 -45.406465,13.75246 -7.82723,0 -26.03636,-19.57781 -35.2194,-37.86667 C 30.377325,526.14664 23.778135,499.27855 14.528095,437.43057 9.0469054,400.782 5.5684554,382.44645 1.7477154,370.06297 c -2.91741,-9.45573 -2.54163996,-11.11489 3.88954,-17.1737 8.6122996,-8.11364 21.3829296,-10.94974 40.1883996,-8.92502 13.87455,1.49382 24.35729,3.62826 52.43594,10.6767 38.427145,9.64617 39.545095,9.81686 63.358375,9.67351 23.13426,-0.13925 32.94083,0.52264 78.10285,5.27155 41.85047,4.40069 67.14442,5.69293 85.03441,4.3443 13.11189,-0.98842 15.25837,-0.89296 22.69685,1.00949 10.14665,2.59507 22.42027,2.70714 43.20344,0.39446 17.17811,-1.91152 27.62538,-1.49317 43.7108,1.75038 10.11603,2.03984 10.35505,2.03996 19.73333,0.0101 18.37148,-3.9763 30.10187,-4.68703 69.75993,-4.22671 66.1839,0.76822 74.4728,0.33768 94.5882,-4.91308 40.8935,-10.67446 63.3856,-39.18031 69.6368,-88.25559 1.2754,-10.01239 2.7337,-13.29648 10.3787,-23.37225 7.031,-9.26653 14.7633,-15.45764 26.463,-21.18831 12.2473,-5.99897 22.719,-8.85517 54.5854,-14.88845 18.9231,-3.58273 24.8039,-4.27825 36.2667,-4.28929 7.5246,-0.007 21.6012,-0.72132 31.2812,-1.58683 20.9302,-1.87141 44.6254,-2.06041 52.4808,-0.4186 3.1089,0.64977 8.0525,2.37305 10.9859,3.82949 2.9333,1.45645 9.1733,3.84848 13.8666,5.31561 52.9105,16.53979 91.18652,70.08828 94.02362,131.54017 1.9933,43.17637 -13.9855,80.70822 -44.69062,104.97162 -4.8398,3.82448 -12.6067,10.83801 -17.2598,15.58562 -23.8684,24.35348 -55.9805,36.2305 -97.9819,36.23975 -16.8017,0.004 -30.4618,-1.42679 -47.1579,-4.93839 -7.04,-1.48069 -17.8823,-3.08415 -24.0939,-3.56326 -21.3058,-1.64335 -37.6375,-8.13027 -56.7468,-22.53981 -5.991,-4.5175 -21.4758,-18.46057 -34.4108,-30.98459 -31.3987,-30.40126 -40.1077,-36.90295 -56.2703,-42.00875 -10.5572,-3.33507 -15.866,-3.3273 -46.2412,0.0677 -57.74,6.45343 -88.14535,12.70627 -113.22791,23.28526 -25.151,10.60786 -41.72879,27.00543 -45.98481,45.4849 -1.77796,7.71985 -1.35435,22.06172 0.92944,31.46667 2.77504,11.42804 5.60744,18.27837 15.65666,37.86666 9.32547,18.17755 13.43124,28.18773 24.89566,60.69762 12.63218,35.8214 19.65178,50.7937 31.05387,66.2357 2.8157,3.8133 6.72854,8.1956 8.69521,9.7383 8.3456,6.5466 19.90325,10.5284 30.56006,10.5284 12.63997,0 31.61572,-7.7203 46.51812,-18.926 13.8011,-10.3776 25.8711,-23.2942 40.4787,-43.3181 3.5975,-4.9315 17.4528,-14.2215 33.2874,-22.3194 20.8087,-10.6418 35.5162,-15.77506 75.5137,-26.35624 15.2828,-4.04299 31.9484,-8.82 37.0348,-10.61559 28.8097,-10.17033 49.3026,3.22687 56.659,37.04073 3.1862,14.6455 3.0967,52.1454 -0.2129,89.2946 -4.0202,45.1235 -5.6663,137.553 -3.2769,184 2.822,54.85758 9.1822,113.28578 17.6489,162.1334 1.4745,8.5066 3.1411,22.6975 3.7037,31.5351 1.0478,16.4618 3.0619,32.0465 10.5368,81.5315 7.1432,47.2883 7.9884,56.4215 7.9461,85.8667 -0.032,22.4452 -0.3951,28.6085 -2.292,38.9333 -4.685,25.5002 -9.7738,38.1663 -28.4507,70.8144 -16.2767,28.4525 -23.0964,38.7767 -65.4423,99.0717 -22.5948,32.172 -34.0385,50.2392 -44.415,70.1215 -4.1356,7.9242 -9.717,17.2842 -12.4031,20.8 -9.0923,11.9011 -27.1635,38.2151 -60.4288,87.9924 -50.8752,76.1283 -68.4268,100.9571 -94.63093,133.8667 -6.53983,8.2133 -15.81383,20.4533 -20.60889,27.2 -19.509,27.4492 -43.95969,57.3562 -92.00245,112.5333 -63.71286,73.1742 -90.7629,108.1975 -116.15994,150.3993 -4.23644,7.0396 -8.50869,13.7059 -9.4939,14.8139 -4.52988,5.0946 -16.82349,6.45 -25.99046,2.8656 z M 135.18823,520.38967 c 32.32751,-24.28113 74.05873,-45.77974 105.3907,-54.29398 11.98162,-3.25591 26.72797,-5.84465 33.32749,-5.85068 2.4447,-0.002 6.7647,-1.01513 9.6,-2.25089 2.83531,-1.23575 14.83525,-5.52747 26.66655,-9.53715 24.8077,-8.40745 30.73729,-11.15834 35.33196,-16.39138 5.17505,-5.89406 5.43094,-10.0146 1.15029,-18.52317 l -3.5937,-7.14313 -30.93333,-0.14201 c -19.28302,-0.0885 -37.3611,-0.77924 -48,-1.83398 -59.18521,-5.86756 -73.81768,-7.16049 -93.57794,-8.26857 -43.62435,-2.44629 -76.647485,2.30167 -101.888725,14.64923 -5.42667,2.65463 -9.86054,5.38393 -9.85305,6.06513 0.007,0.68119 1.22812,5.04178 2.71251,9.6902 1.48439,4.64842 4.62758,19.04842 6.98487,32 5.34213,29.35114 7.67308,38.62094 12.09029,48.08112 7.08164,15.16648 18.4435,23.52723 33.840535,24.90192 5.8327,0.52075 7.91246,0.36013 8.16899,-0.6309 0.18928,-0.73123 5.85143,-5.46602 12.58256,-10.52176 z m 744.44085,-60.56164 c 2.9145,-0.81378 6.7391,-1.99152 8.4991,-2.61721 1.76,-0.62569 6.56,-1.88667 10.6666,-2.80218 11.5379,-2.57219 18.2417,-6.36664 27.2359,-15.4159 14.7713,-14.86179 21.8373,-33.63909 23.1265,-61.45691 1.0201,-22.0131 -2.9306,-44.78021 -11.2964,-65.09791 -4.8836,-11.86061 -15.727,-29.57508 -22.9654,-37.51771 -17.3031,-18.9865 -44.8124,-29.11733 -79.1431,-29.14596 -37.6225,-0.0314 -70.58,11.3264 -92.2872,31.80385 -16.8641,15.90875 -24.2452,35.36778 -21.2321,55.97485 1.8948,12.95833 2.5996,14.30764 8.496,16.26612 6.2257,2.06785 13.3035,7.94062 16.044,13.31239 2.4358,4.77448 3.9517,13.76391 4.8127,28.5382 0.734,12.59523 2.4394,19.17152 6.7179,25.90462 5.6242,8.85092 17.6093,14.75132 35.0987,17.27952 7.5707,1.09439 10.4271,2.0554 14.7259,4.95442 22.9741,15.49311 55.2984,24.54374 71.5009,20.01981 z M 1016.158,184.63432 c -2.1181,-2.11812 -2.7046,-3.7934 -2.7344,-7.81155 -0.021,-2.81333 -0.7334,-7.99515 -1.5834,-11.51515 -1.9999,-8.28255 -1.9946,-19.82126 0.013,-27.52715 6.0182,-23.10558 28.4573,-40.149549 52.9164,-40.193529 25.3173,-0.0455 31.8064,18.268209 15.3115,43.212849 -12.3656,18.7 -42.845,42.88159 -57.7893,45.84858 -2.7898,0.55388 -3.9446,0.17468 -6.1333,-2.01405 z M 911.00878,141.98603 c -5.9657,-1.60631 -12.4435,-5.49754 -13.2036,-7.93137 -1.3845,-4.43329 -4.8117,-23.0106 -6.0412,-32.74704 -0.7408,-5.866669 -1.3411,-19.546665 -1.3339,-30.399995 0.011,-16.24603 0.4302,-21.71262 2.3736,-30.93333 4.0449,-19.191773 10.9207,-30.9144028 21.6026,-36.8308324 5.0262,-2.78390001 6.7593,-3.16593001 14.2552,-3.14249000503 4.9506,0.015499995 11.0561,0.79649999503 14.5421,1.86024000503 6.7189,2.05029 7.9678,3.7650596 11.1254,15.2759494 2.6862,9.792133 3.26,40.339843 1.0697,56.944413 -6.3298,47.986545 -23.0982,73.637495 -44.3899,67.904455 z m -119.9473,-15.39177 c -4.82,-1.64482 -5.661,-2.43945 -8.738,-8.25678 -6.4118,-12.1217 -9.0356,-23.579025 -9.6403,-42.096525 -0.7505,-22.98064 2.2461,-37.67166 10.2625,-50.31223 4.7421,-7.477513 9.7961,-10.813623 17.1924,-11.348633 8.3697,-0.60541 15.6385,2.78819 24.9989,11.671383 6.8012,6.45442 7.0975,6.93812 6.0026,9.80138 -0.6334,1.65654 -1.8849,12.69654 -2.7812,24.53333 -0.8962,11.83679 -2.3457,25.84144 -3.2212,31.12144 -5.0474,30.441065 -15.5608,41.204755 -34.0757,34.886635 z"
     id="path1" />
</svg>
