<svg xmlns="http://www.w3.org/2000/svg" xmlns:xlink="http://www.w3.org/1999/xlink" version="1.2"   viewBox="0.0000 -0.0000 82.3456 51.54075">
<style type="text/css">
<![CDATA[
tspan { white-space: pre; }
]]>
</style>
<g transform="translate(0.0000, 6.1075)">
<line stroke-linejoin="round" stroke-linecap="round" stroke-width="0.0558" stroke="currentColor" x1="0.0279" y1="0" x2="82.3177" y2="0"/>
</g>
<g transform="translate(0.0000, 5.1075)">
<line stroke-linejoin="round" stroke-linecap="round" stroke-width="0.0558" stroke="currentColor" x1="0.0279" y1="0" x2="82.3177" y2="0"/>
</g>
<g transform="translate(0.0000, 4.1075)">
<line stroke-linejoin="round" stroke-linecap="round" stroke-width="0.0558" stroke="currentColor" x1="0.0279" y1="0" x2="82.3177" y2="0"/>
</g>
<g transform="translate(0.0000, 3.1075)">
<line stroke-linejoin="round" stroke-linecap="round" stroke-width="0.0558" stroke="currentColor" x1="0.0279" y1="0" x2="82.3177" y2="0"/>
</g>
<g transform="translate(0.0000, 2.1075)">
<line stroke-linejoin="round" stroke-linecap="round" stroke-width="0.0558" stroke="currentColor" x1="0.0279" y1="0" x2="82.3177" y2="0"/>
</g>
<g transform="translate(45.6802, 4.1075)">
<rect x="0.0000" y="-2.0000" width="0.2120" height="4.0000" ry="0.0000" fill="currentColor"/>
</g>
<g transform="translate(64.0255, 4.1075)">
<rect x="0.0000" y="-2.0000" width="0.2120" height="4.0000" ry="0.0000" fill="currentColor"/>
</g>
<g transform="translate(82.1336, 4.1075)">
<rect x="0.0000" y="-2.0000" width="0.2120" height="4.0000" ry="0.0000" fill="currentColor"/>
</g>
<g transform="translate(27.5721, 4.1075)">
<rect x="0.0000" y="-2.0000" width="0.2120" height="4.0000" ry="0.0000" fill="currentColor"/>
</g>
<g transform="translate(69.1230, 15.0143)">
<text font-family="Source Sans Pro" font-size="2.4690" text-anchor="start" fill="currentColor">
<tspan>ha</tspan>
</text>
</g>
<g transform="translate(69.1230, 12.2143)">
<text font-family="Source Sans Pro" font-size="2.4690" text-anchor="start" fill="currentColor">
<tspan>ha</tspan>
</text>
</g>
<g transform="translate(69.2033, 9.4143)">
<text font-family="Source Sans Pro" font-size="2.4690" text-anchor="start" fill="currentColor">
<tspan>Mi</tspan>
</text>
</g>
<g transform="translate(69.7570, 5.1075)">
<path transform="scale(0.0040, -0.0040)" d="M215 137c67 0 111 -37 111 -92c0 -90 -111 -182 -215 -182c-67 0 -111 37 -111 92c0 90 111 182 215 182z" fill="currentColor"/>
</g>
<g transform="translate(76.5044, 12.2143)">
<text font-family="Source Sans Pro" font-size="2.4690" text-anchor="start" fill="currentColor">
<tspan>bat,</tspan>
</text>
</g>
<g transform="translate(73.2054, 15.0143)">
<text font-family="Source Sans Pro" font-size="2.4690" text-anchor="start" fill="currentColor">
<tspan>To</tspan>
</text>
</g>
<g transform="translate(51.4495, 9.4143)">
<text font-family="Source Sans Pro" font-size="2.4690" text-anchor="start" fill="currentColor">
<tspan>ci</tspan>
</text>
</g>
<g transform="translate(76.5647, 9.4143)">
<text font-family="Source Sans Pro" font-size="2.4690" text-anchor="start" fill="currentColor">
<tspan>jim,</tspan>
</text>
</g>
<g transform="translate(77.8414, 6.1075)">
<path transform="scale(0.0040, -0.0040)" d="M215 137c67 0 111 -37 111 -92c0 -90 -111 -182 -215 -182c-67 0 -111 37 -111 92c0 90 111 182 215 182z" fill="currentColor"/>
</g>
<g transform="translate(75.0657, 4.1075)">
<rect x="-0.0363" y="-1.2102" width="0.0725" height="2.5309" ry="0.0363" fill="currentColor"/>
</g>
<g transform="translate(71.0235, 4.1075)">
<rect x="-0.0363" y="-1.9981" width="0.0725" height="2.8188" ry="0.0363" fill="currentColor"/>
</g>
<g transform="translate(73.1652, 12.2143)">
<text font-family="Source Sans Pro" font-size="2.4690" text-anchor="start" fill="currentColor">
<tspan>Ša</tspan>
</text>
</g>
<g transform="translate(72.8639, 9.4143)">
<text font-family="Source Sans Pro" font-size="2.4690" text-anchor="start" fill="currentColor">
<tspan>cra</tspan>
</text>
</g>
<g transform="translate(73.7992, 5.6075)">
<path transform="scale(0.0040, -0.0040)" d="M215 137c67 0 111 -37 111 -92c0 -90 -111 -182 -215 -182c-67 0 -111 37 -111 92c0 90 111 182 215 182z" fill="currentColor"/>
</g>
<g transform="translate(56.9704, 4.1075)">
<rect x="-0.0363" y="-1.7879" width="0.0725" height="3.1085" ry="0.0363" fill="currentColor"/>
</g>
<g transform="translate(55.4113, 15.0143)">
<text font-family="Source Sans Pro" font-size="2.4690" text-anchor="start" fill="currentColor">
<tspan>la</tspan>
</text>
</g>
<g transform="translate(55.4113, 12.2143)">
<text font-family="Source Sans Pro" font-size="2.4690" text-anchor="start" fill="currentColor">
<tspan>la</tspan>
</text>
</g>
<g transform="translate(55.7327, 9.4143)">
<text font-family="Source Sans Pro" font-size="2.4690" text-anchor="start" fill="currentColor">
<tspan>a</tspan>
</text>
</g>
<g transform="translate(55.7039, 5.6075)">
<path transform="scale(0.0040, -0.0040)" d="M215 137c67 0 111 -37 111 -92c0 -90 -111 -182 -215 -182c-67 0 -111 37 -111 92c0 90 111 182 215 182z" fill="currentColor"/>
</g>
<g transform="translate(52.9282, 4.1075)">
<rect x="-0.0363" y="-1.7831" width="0.0725" height="3.1038" ry="0.0363" fill="currentColor"/>
</g>
<g transform="translate(50.6260, 15.0143)">
<text font-family="Source Sans Pro" font-size="2.4690" text-anchor="start" fill="currentColor">
<tspan>tan</tspan>
</text>
</g>
<g transform="translate(50.6260, 12.2143)">
<text font-family="Source Sans Pro" font-size="2.4690" text-anchor="start" fill="currentColor">
<tspan>tan</tspan>
</text>
</g>
<g transform="translate(75.0295, 2.8954)">
<polygon stroke-linejoin="round" stroke-linecap="round" stroke-width="0.0941" fill="currentColor" stroke="currentColor" points="4.0677 0.0192 4.0677 0.4050 0.0471 0.1929 0.0471 -0.1929"/>
</g>
<g transform="translate(65.3419, 15.0143)">
<text font-family="Source Sans Pro" font-size="2.4690" text-anchor="start" fill="currentColor">
<tspan>et</tspan>
</text>
</g>
<g transform="translate(65.3419, 12.2143)">
<text font-family="Source Sans Pro" font-size="2.4690" text-anchor="start" fill="currentColor">
<tspan>et</tspan>
</text>
</g>
<g transform="translate(65.0406, 9.4143)">
<text font-family="Source Sans Pro" font-size="2.4690" text-anchor="start" fill="currentColor">
<tspan>mi</tspan>
</text>
</g>
<g transform="translate(65.7148, 5.6075)">
<path transform="scale(0.0040, -0.0040)" d="M215 137c67 0 111 -37 111 -92c0 -90 -111 -182 -215 -182c-67 0 -111 37 -111 92c0 90 111 182 215 182z" fill="currentColor"/>
</g>
<g transform="translate(66.9813, 4.1075)">
<rect x="-0.0363" y="-1.7898" width="0.0725" height="3.1104" ry="0.0363" fill="currentColor"/>
</g>
<g transform="translate(61.0126, 4.1075)">
<rect x="-0.0363" y="-1.7879" width="0.0725" height="3.1085" ry="0.0363" fill="currentColor"/>
</g>
<g transform="translate(59.0518, 15.0143)">
<text font-family="Source Sans Pro" font-size="2.4690" text-anchor="start" fill="currentColor">
<tspan>nu</tspan>
</text>
</g>
<g transform="translate(59.0518, 12.2143)">
<text font-family="Source Sans Pro" font-size="2.4690" text-anchor="start" fill="currentColor">
<tspan>nu</tspan>
</text>
</g>
<g transform="translate(59.0518, 9.4143)">
<text font-family="Source Sans Pro" font-size="2.4690" text-anchor="start" fill="currentColor">
<tspan>nu</tspan>
</text>
</g>
<g transform="translate(59.7461, 5.6075)">
<path transform="scale(0.0040, -0.0040)" d="M215 137c67 0 111 -37 111 -92c0 -90 -111 -182 -215 -182c-67 0 -111 37 -111 92c0 90 111 182 215 182z" fill="currentColor"/>
</g>
<g transform="translate(57.6849, 9.4143)">
<rect x="0.0000" y="-0.5651" width="0.6600" height="0.1451" ry="0.0446" fill="currentColor"/>
</g>
<g transform="translate(54.1247, 9.4143)">
<rect x="0.0000" y="-0.5651" width="0.6600" height="0.1451" ry="0.0446" fill="currentColor"/>
</g>
<g transform="translate(38.5760, 2.8954)">
<polygon stroke-linejoin="round" stroke-linecap="round" stroke-width="0.0941" fill="currentColor" stroke="currentColor" points="4.0677 0.0192 4.0677 0.4050 0.0471 0.1929 0.0471 -0.1929"/>
</g>
<g transform="translate(49.6462, 15.0143)">
<rect x="0.0000" y="-0.5651" width="0.6600" height="0.1451" ry="0.0446" fill="currentColor"/>
</g>
<g transform="translate(49.6462, 12.2143)">
<rect x="0.0000" y="-0.5651" width="0.6600" height="0.1451" ry="0.0446" fill="currentColor"/>
</g>
<g transform="translate(50.0679, 9.4143)">
<rect x="0.0000" y="-0.5651" width="0.6600" height="0.1451" ry="0.0446" fill="currentColor"/>
</g>
<g transform="translate(57.8455, 12.2143)">
<rect x="0.0000" y="-0.5651" width="0.6600" height="0.1451" ry="0.0446" fill="currentColor"/>
</g>
<g transform="translate(30.4916, 2.3196)">
<polygon stroke-linejoin="round" stroke-linecap="round" stroke-width="0.0941" fill="currentColor" stroke="currentColor" points="4.0677 -0.4050 4.0677 -0.0192 0.0471 0.1929 0.0471 -0.1929"/>
</g>
<g transform="translate(39.3368, 15.0143)">
<rect x="0.0000" y="-0.5651" width="0.6600" height="0.1451" ry="0.0446" fill="currentColor"/>
</g>
<g transform="translate(39.3368, 12.2143)">
<rect x="0.0000" y="-0.5651" width="0.6600" height="0.1451" ry="0.0446" fill="currentColor"/>
</g>
<g transform="translate(39.1761, 9.4143)">
<rect x="0.0000" y="-0.5651" width="0.6600" height="0.1451" ry="0.0446" fill="currentColor"/>
</g>
<g transform="translate(66.9450, 2.3196)">
<polygon stroke-linejoin="round" stroke-linecap="round" stroke-width="0.0941" fill="currentColor" stroke="currentColor" points="4.0677 -0.4050 4.0677 -0.0192 0.0471 0.1929 0.0471 -0.1929"/>
</g>
<g transform="translate(76.1015, 15.0143)">
<rect x="0.0000" y="-0.5651" width="0.6600" height="0.1451" ry="0.0446" fill="currentColor"/>
</g>
<g transform="translate(75.8060, 12.2143)">
<rect x="0.0000" y="-0.5651" width="0.6285" height="0.1451" ry="0.0446" fill="currentColor"/>
</g>
<g transform="translate(76.1072, 9.4143)">
<rect x="0.0000" y="-0.5651" width="0.3875" height="0.1451" ry="0.0446" fill="currentColor"/>
</g>
<g transform="translate(72.1196, 15.0143)">
<rect x="0.0000" y="-0.5651" width="0.6600" height="0.1451" ry="0.0446" fill="currentColor"/>
</g>
<g transform="translate(72.0995, 12.2143)">
<rect x="0.0000" y="-0.5651" width="0.6600" height="0.1451" ry="0.0446" fill="currentColor"/>
</g>
<g transform="translate(71.9087, 9.4143)">
<rect x="0.0000" y="-0.5651" width="0.6600" height="0.1451" ry="0.0446" fill="currentColor"/>
</g>
<g transform="translate(56.9341, 2.3196)">
<polygon stroke-linejoin="round" stroke-linecap="round" stroke-width="0.0941" fill="currentColor" stroke="currentColor" points="4.0677 -0.1929 4.0677 0.1929 0.0471 0.1929 0.0471 -0.1929"/>
</g>
<g transform="translate(68.1175, 9.4143)">
<rect x="0.0000" y="-0.5651" width="0.6600" height="0.1451" ry="0.0446" fill="currentColor"/>
</g>
<g transform="translate(48.5997, 2.8954)">
<polygon stroke-linejoin="round" stroke-linecap="round" stroke-width="0.0941" fill="currentColor" stroke="currentColor" points="4.3177 -0.7687 4.3177 -0.3829 0.0471 0.1929 0.0471 -0.1929"/>
</g>
<g transform="translate(57.8455, 15.0143)">
<rect x="0.0000" y="-0.5651" width="0.6600" height="0.1451" ry="0.0446" fill="currentColor"/>
</g>
<g transform="translate(12.9272, 9.4143)">
<rect x="0.0000" y="-0.5651" width="0.6600" height="0.1451" ry="0.0446" fill="currentColor"/>
</g>
<g transform="translate(12.9272, 12.2143)">
<rect x="0.0000" y="-0.5651" width="0.6600" height="0.1451" ry="0.0446" fill="currentColor"/>
</g>
<g transform="translate(79.1079, 4.1075)">
<rect x="-0.0363" y="-1.0019" width="0.0725" height="2.8225" ry="0.0363" fill="currentColor"/>
</g>
<g transform="translate(12.1463, 3.3196)">
<polygon stroke-linejoin="round" stroke-linecap="round" stroke-width="0.0941" fill="currentColor" stroke="currentColor" points="4.0677 -0.1929 4.0677 0.1929 0.0471 0.1929 0.0471 -0.1929"/>
</g>
<g transform="translate(35.7666, 9.4143)">
<rect x="0.0000" y="-0.5651" width="0.6600" height="0.1451" ry="0.0446" fill="currentColor"/>
</g>
<g transform="translate(20.4807, 2.3196)">
<polygon stroke-linejoin="round" stroke-linecap="round" stroke-width="0.0941" fill="currentColor" stroke="currentColor" points="4.0677 -0.1929 4.0677 0.1929 0.0471 0.1929 0.0471 -0.1929"/>
</g>
<g transform="translate(31.4131, 15.0143)">
<rect x="0.0000" y="-0.5651" width="0.6600" height="0.1451" ry="0.0446" fill="currentColor"/>
</g>
<g transform="translate(31.4131, 12.2143)">
<rect x="0.0000" y="-0.5651" width="0.6600" height="0.1451" ry="0.0446" fill="currentColor"/>
</g>
<g transform="translate(31.8348, 9.4143)">
<rect x="0.0000" y="-0.5651" width="0.6600" height="0.1451" ry="0.0446" fill="currentColor"/>
</g>
<g transform="translate(77.1672, 15.0143)">
<text font-family="Source Sans Pro" font-size="2.4690" text-anchor="start" fill="currentColor">
<tspan>ra,</tspan>
</text>
</g>
<g transform="translate(21.2773, 15.0143)">
<rect x="0.0000" y="-0.5651" width="0.6084" height="0.1451" ry="0.0446" fill="currentColor"/>
</g>
<g transform="translate(21.2773, 12.2143)">
<rect x="0.0000" y="-0.5651" width="0.6084" height="0.1451" ry="0.0446" fill="currentColor"/>
</g>
<g transform="translate(21.6733, 9.4143)">
<rect x="0.0000" y="-0.5651" width="0.6600" height="0.1451" ry="0.0446" fill="currentColor"/>
</g>
<g transform="translate(12.9272, 15.0143)">
<rect x="0.0000" y="-0.5651" width="0.6600" height="0.1451" ry="0.0446" fill="currentColor"/>
</g>
<g transform="translate(18.5763, 9.4143)">
<text font-family="Source Sans Pro" font-size="2.4690" text-anchor="start" fill="currentColor">
<tspan>ho</tspan>
</text>
</g>
<g transform="translate(23.2927, 5.6075)">
<path transform="scale(0.0040, -0.0040)" d="M215 137c67 0 111 -37 111 -92c0 -90 -111 -182 -215 -182c-67 0 -111 37 -111 92c0 90 111 182 215 182z" fill="currentColor"/>
</g>
<g transform="translate(20.5170, 4.1075)">
<rect x="-0.0363" y="-1.7879" width="0.0725" height="3.1085" ry="0.0363" fill="currentColor"/>
</g>
<g transform="translate(18.5964, 15.0143)">
<text font-family="Source Sans Pro" font-size="2.4690" text-anchor="start" fill="currentColor">
<tspan>na</tspan>
</text>
</g>
<g transform="translate(18.5964, 12.2143)">
<text font-family="Source Sans Pro" font-size="2.4690" text-anchor="start" fill="currentColor">
<tspan>na</tspan>
</text>
</g>
<g transform="translate(22.7792, 9.4143)">
<text font-family="Source Sans Pro" font-size="2.4690" text-anchor="start" fill="currentColor">
<tspan>ci,</tspan>
</text>
</g>
<g transform="translate(19.2505, 5.6075)">
<path transform="scale(0.0040, -0.0040)" d="M215 137c67 0 111 -37 111 -92c0 -90 -111 -182 -215 -182c-67 0 -111 37 -111 92c0 90 111 182 215 182z" fill="currentColor"/>
</g>
<g transform="translate(16.2248, 4.1075)">
<rect x="-0.0363" y="-0.7879" width="0.0725" height="3.1085" ry="0.0363" fill="currentColor"/>
</g>
<g transform="translate(14.6255, 15.0143)">
<text font-family="Source Sans Pro" font-size="2.4690" text-anchor="start" fill="currentColor">
<tspan>lu</tspan>
</text>
</g>
<g transform="translate(14.6255, 12.2143)">
<text font-family="Source Sans Pro" font-size="2.4690" text-anchor="start" fill="currentColor">
<tspan>lu</tspan>
</text>
</g>
<g transform="translate(29.2614, 5.6075)">
<path transform="scale(0.0040, -0.0040)" d="M215 137c67 0 111 -37 111 -92c0 -90 -111 -182 -215 -182c-67 0 -111 37 -111 92c0 90 111 182 215 182z" fill="currentColor"/>
</g>
<g transform="translate(30.5279, 4.1075)">
<rect x="-0.0363" y="-1.7898" width="0.0725" height="3.1104" ry="0.0363" fill="currentColor"/>
</g>
<g transform="translate(51.6617, 5.6075)">
<path transform="scale(0.0040, -0.0040)" d="M215 137c67 0 111 -37 111 -92c0 -90 -111 -182 -215 -182c-67 0 -111 37 -111 92c0 90 111 182 215 182z" fill="currentColor"/>
</g>
<g transform="translate(28.6073, 12.2143)">
<text font-family="Source Sans Pro" font-size="2.4690" text-anchor="start" fill="currentColor">
<tspan>na</tspan>
</text>
</g>
<g transform="translate(28.5872, 9.4143)">
<text font-family="Source Sans Pro" font-size="2.4690" text-anchor="start" fill="currentColor">
<tspan>ho</tspan>
</text>
</g>
<g transform="translate(14.6255, 9.4143)">
<text font-family="Source Sans Pro" font-size="2.4690" text-anchor="start" fill="currentColor">
<tspan>lu</tspan>
</text>
</g>
<g transform="translate(24.5592, 4.1075)">
<rect x="-0.0363" y="-1.7879" width="0.0725" height="3.1085" ry="0.0363" fill="currentColor"/>
</g>
<g transform="translate(21.9557, 15.0143)">
<text font-family="Source Sans Pro" font-size="2.4690" text-anchor="start" fill="currentColor">
<tspan>tan,</tspan>
</text>
</g>
<g transform="translate(21.9557, 12.2143)">
<text font-family="Source Sans Pro" font-size="2.4690" text-anchor="start" fill="currentColor">
<tspan>tan,</tspan>
</text>
</g>
<g transform="translate(8.3984, 9.4143)">
<text font-family="serif" font-weight="bold" font-size="2.4690" text-anchor="start" fill="currentColor">
<tspan>1.</tspan>
</text>
</g>
<g transform="translate(11.2461, 9.4143)">
<text font-family="Source Sans Pro" font-size="2.4690" text-anchor="start" fill="currentColor">
<tspan>I</tspan>
</text>
</g>
<g transform="translate(7.3696, 4.1075)">
<path transform="scale(0.0040, -0.0040)" d="M230 0c-89 0 -90 67 -144 67c-30 0 -58 -21 -61 -56c-1 -8 -7 -11 -13 -11s-12 4 -12 12c0 154 232 169 232 343c0 58 -16 120 -66 120c-26 0 -51 -13 -51 -37c0 -27 35 -41 35 -68c0 -38 -30 -68 -68 -68s-69 30 -69 68c0 76 72 130 153 130c96 0 185 -57 185 -145
c0 -149 -145 -158 -242 -216c7 1 14 2 22 2c84 0 111 -60 170 -60c48 0 38 39 56 39c6 0 13 -5 13 -12c0 -22 -44 -108 -140 -108z" fill="currentColor"/>
</g>
<g transform="translate(7.3093, 6.1194)">
<path transform="scale(0.0040, -0.0040)" d="M194 120h120c0 -49 29 -95 75 -95c8 0 12 -7 12 -13s-4 -12 -12 -12c-45 0 -90 13 -135 13s-90 -13 -135 -13c-8 0 -12 6 -12 12s4 13 12 13c46 0 75 46 75 95zM224 487c37 0 70 14 78 14c9 0 14 -7 14 -13c0 -2 0 -3 -2 -5l-283 -327h163v122c0 35 36 28 70 74
c23 30 22 57 36 57c6 0 14 -6 14 -15v-238h74c10 0 16 -8 16 -16s-6 -15 -16 -15h-74v-5h-120v5h-163c-24 0 -33 15 -33 24c0 12 136 140 136 334c0 11 8 20 17 17c24 -7 48 -13 73 -13z" fill="currentColor"/>
</g>
<g transform="translate(4.4297, 4.1075)">
<path transform="scale(0.0040, -0.0040)" d="M29 39l-2 -64v-11c0 -22 2 -43 5 -65c44 38 91 80 91 138c0 33 -13 66 -42 66c-31 0 -51 -31 -52 -64zM-28 454c9 5 18 8 28 8s19 -3 28 -8l-7 -343c25 23 58 36 92 36c51 0 87 -49 87 -103c0 -79 -84 -117 -144 -169c-16 -14 -25 -41 -47 -41c-14 0 -25 13 -25 27z" fill="currentColor"/>
</g>
<g transform="translate(5.3593, 2.6075)">
<path transform="scale(0.0040, -0.0040)" d="M29 39l-2 -64v-11c0 -22 2 -43 5 -65c44 38 91 80 91 138c0 33 -13 66 -42 66c-31 0 -51 -31 -52 -64zM-28 454c9 5 18 8 28 8s19 -3 28 -8l-7 -343c25 23 58 36 92 36c51 0 87 -49 87 -103c0 -79 -84 -117 -144 -169c-16 -14 -25 -41 -47 -41c-14 0 -25 13 -25 27z" fill="currentColor"/>
</g>
<g transform="translate(0.8000, 5.1075)">
<path transform="scale(0.0040, -0.0040)" d="M646 2c0 -113 -74 -213 -180 -247c3 -34 5 -68 5 -102c0 -20 -1 -40 -2 -60c-7 -121 -91 -228 -209 -228c-108 0 -196 87 -196 196c0 58 53 104 112 104c54 0 95 -48 95 -104c0 -52 -43 -95 -95 -95c-10 0 -20 2 -29 6c26 -38 68 -63 116 -63h3c93 2 153 92 159 190
c1 19 2 37 2 56c0 30 -2 60 -4 90c-5 -1 -43 -8 -88 -8c-194 0 -333 180 -333 375c0 177 130 307 246 442c-31 98 -53 170 -53 347c0 115 55 223 148 290c7 5 16 4 22 -1c68 -80 134 -243 134 -357c0 -143 -85 -255 -178 -364c21 -68 40 -137 57 -206c1 0 5 1 11 1
c156 0 257 -129 257 -262zM462 -202c66 24 111 88 111 162c0 89 -65 178 -170 190c28 -135 50 -272 59 -352zM75 26c0 -145 141 -245 263 -245c1 0 46 0 81 6c-7 65 -27 206 -61 363c-79 -8 -124 -61 -124 -119c0 -43 25 -89 80 -121c5 -5 7 -11 7 -16
c0 -12 -10 -23 -22 -23c-16 0 -127 63 -127 188c0 89 58 175 161 198c-14 58 -29 116 -46 173c-106 -122 -212 -244 -212 -404zM406 1042c-99 -47 -162 -148 -162 -257c0 -49 13 -111 38 -191c79 97 144 199 144 324c0 33 0 63 -20 124z" fill="currentColor"/>
</g>
<g transform="translate(10.9161, 6.6075)">
<path transform="scale(0.0040, -0.0040)" d="M215 137c67 0 111 -37 111 -92c0 -90 -111 -182 -215 -182c-67 0 -111 37 -111 92c0 90 111 182 215 182z" fill="currentColor"/>
</g>
<g transform="translate(11.2461, 12.2143)">
<text font-family="Source Sans Pro" font-size="2.4690" text-anchor="start" fill="currentColor">
<tspan>I</tspan>
</text>
</g>
<g transform="translate(14.9583, 6.6075)">
<path transform="scale(0.0040, -0.0040)" d="M215 137c67 0 111 -37 111 -92c0 -90 -111 -182 -215 -182c-67 0 -111 37 -111 92c0 90 111 182 215 182z" fill="currentColor"/>
</g>
<g transform="translate(28.6073, 15.0143)">
<text font-family="Source Sans Pro" font-size="2.4690" text-anchor="start" fill="currentColor">
<tspan>na</tspan>
</text>
</g>
<g transform="translate(12.1826, 4.1075)">
<rect x="-0.0363" y="-0.7879" width="0.0725" height="3.1085" ry="0.0363" fill="currentColor"/>
</g>
<g transform="translate(8.3984, 15.0143)">
<text font-family="serif" font-weight="bold" font-size="2.4690" text-anchor="start" fill="currentColor">
<tspan>3.</tspan>
</text>
</g>
<g transform="translate(11.2461, 15.0143)">
<text font-family="Source Sans Pro" font-size="2.4690" text-anchor="start" fill="currentColor">
<tspan>I</tspan>
</text>
</g>
<g transform="translate(8.3984, 12.2143)">
<text font-family="serif" font-weight="bold" font-size="2.4690" text-anchor="start" fill="currentColor">
<tspan>2.</tspan>
</text>
</g>
<g transform="translate(37.3746, 9.4143)">
<text font-family="Source Sans Pro" font-size="2.4690" text-anchor="start" fill="currentColor">
<tspan>a</tspan>
</text>
</g>
<g transform="translate(37.0532, 15.0143)">
<text font-family="Source Sans Pro" font-size="2.4690" text-anchor="start" fill="currentColor">
<tspan>la</tspan>
</text>
</g>
<g transform="translate(38.6123, 4.1075)">
<rect x="-0.0363" y="-1.2102" width="0.0725" height="2.5309" ry="0.0363" fill="currentColor"/>
</g>
<g transform="translate(41.3880, 6.1075)">
<path transform="scale(0.0040, -0.0040)" d="M215 137c67 0 111 -37 111 -92c0 -90 -111 -182 -215 -182c-67 0 -111 37 -111 92c0 90 111 182 215 182z" fill="currentColor"/>
</g>
<g transform="translate(40.3925, 9.4143)">
<text font-family="Source Sans Pro" font-size="2.4690" text-anchor="start" fill="currentColor">
<tspan>nu,</tspan>
</text>
</g>
<g transform="translate(40.3925, 12.2143)">
<text font-family="Source Sans Pro" font-size="2.4690" text-anchor="start" fill="currentColor">
<tspan>nu,</tspan>
</text>
</g>
<g transform="translate(40.3925, 15.0143)">
<text font-family="Source Sans Pro" font-size="2.4690" text-anchor="start" fill="currentColor">
<tspan>nu,</tspan>
</text>
</g>
<g transform="translate(42.6545, 4.1075)">
<rect x="-0.0363" y="-1.0019" width="0.0725" height="2.8225" ry="0.0363" fill="currentColor"/>
</g>
<g transform="translate(37.0532, 12.2143)">
<text font-family="Source Sans Pro" font-size="2.4690" text-anchor="start" fill="currentColor">
<tspan>la</tspan>
</text>
</g>
<g transform="translate(48.6360, 4.1075)">
<rect x="-0.0363" y="-1.2169" width="0.0725" height="3.5375" ry="0.0363" fill="currentColor"/>
</g>
<g transform="translate(47.3695, 6.6075)">
<path transform="scale(0.0040, -0.0040)" d="M215 137c67 0 111 -37 111 -92c0 -90 -111 -182 -215 -182c-67 0 -111 37 -111 92c0 90 111 182 215 182z" fill="currentColor"/>
</g>
<g transform="translate(46.6953, 9.4143)">
<text font-family="Source Sans Pro" font-size="2.4690" text-anchor="start" fill="currentColor">
<tspan>ho</tspan>
</text>
</g>
<g transform="translate(46.7154, 12.2143)">
<text font-family="Source Sans Pro" font-size="2.4690" text-anchor="start" fill="currentColor">
<tspan>na</tspan>
</text>
</g>
<g transform="translate(46.7154, 15.0143)">
<text font-family="Source Sans Pro" font-size="2.4690" text-anchor="start" fill="currentColor">
<tspan>na</tspan>
</text>
</g>
<g transform="translate(33.3036, 5.1075)">
<path transform="scale(0.0040, -0.0040)" d="M215 137c67 0 111 -37 111 -92c0 -90 -111 -182 -215 -182c-67 0 -111 37 -111 92c0 90 111 182 215 182z" fill="currentColor"/>
</g>
<g transform="translate(37.3458, 5.6075)">
<path transform="scale(0.0040, -0.0040)" d="M215 137c67 0 111 -37 111 -92c0 -90 -111 -182 -215 -182c-67 0 -111 37 -111 92c0 90 111 182 215 182z" fill="currentColor"/>
</g>
<g transform="translate(33.0913, 9.4143)">
<text font-family="Source Sans Pro" font-size="2.4690" text-anchor="start" fill="currentColor">
<tspan>ci</tspan>
</text>
</g>
<g transform="translate(32.2679, 12.2143)">
<text font-family="Source Sans Pro" font-size="2.4690" text-anchor="start" fill="currentColor">
<tspan>tan</tspan>
</text>
</g>
<g transform="translate(32.2679, 15.0143)">
<text font-family="Source Sans Pro" font-size="2.4690" text-anchor="start" fill="currentColor">
<tspan>tan</tspan>
</text>
</g>
<g transform="translate(34.5701, 4.1075)">
<rect x="-0.0363" y="-1.9981" width="0.0725" height="2.8188" ry="0.0363" fill="currentColor"/>
</g>
<g transform="translate(0.0000, 20.4620)">
<line stroke-linejoin="round" stroke-linecap="round" stroke-width="0.0558" stroke="currentColor" x1="0.0279" y1="0" x2="82.3177" y2="0"/>
</g>
<g transform="translate(0.0000, 19.4620)">
<line stroke-linejoin="round" stroke-linecap="round" stroke-width="0.0558" stroke="currentColor" x1="0.0279" y1="0" x2="82.3177" y2="0"/>
</g>
<g transform="translate(0.0000, 18.4620)">
<line stroke-linejoin="round" stroke-linecap="round" stroke-width="0.0558" stroke="currentColor" x1="0.0279" y1="0" x2="82.3177" y2="0"/>
</g>
<g transform="translate(0.0000, 17.4620)">
<line stroke-linejoin="round" stroke-linecap="round" stroke-width="0.0558" stroke="currentColor" x1="0.0279" y1="0" x2="82.3177" y2="0"/>
</g>
<g transform="translate(0.0000, 16.4620)">
<line stroke-linejoin="round" stroke-linecap="round" stroke-width="0.0558" stroke="currentColor" x1="0.0279" y1="0" x2="82.3177" y2="0"/>
</g>
<g transform="translate(27.9386, 18.4620)">
<rect x="0.0000" y="-2.0000" width="0.2120" height="4.0000" ry="0.0000" fill="currentColor"/>
</g>
<g transform="translate(49.1532, 18.4620)">
<rect x="0.0000" y="-2.0000" width="0.2120" height="4.0000" ry="0.0000" fill="currentColor"/>
</g>
<g transform="translate(67.4892, 18.4620)">
<rect x="0.0000" y="-2.0000" width="0.2120" height="4.0000" ry="0.0000" fill="currentColor"/>
</g>
<g transform="translate(82.1336, 18.4620)">
<rect x="0.0000" y="-2.0000" width="0.2120" height="4.0000" ry="0.0000" fill="currentColor"/>
</g>
<g transform="translate(0.0000, 21.4620)">
<rect x="70.0793" y="-0.0779" width="2.0709" height="0.1558" ry="0.0779" fill="currentColor"/>
</g>
<g transform="translate(0.0000, 21.4620)">
<rect x="38.9442" y="-0.0779" width="1.9542" height="0.1558" ry="0.0779" fill="currentColor"/>
</g>
<g transform="translate(0.0000, 21.4620)">
<rect x="17.7297" y="-0.0779" width="1.9542" height="0.1558" ry="0.0779" fill="currentColor"/>
</g>
<g transform="translate(59.1817, 20.9620)">
<path transform="scale(0.0040, -0.0040)" d="M215 137c67 0 111 -37 111 -92c0 -90 -111 -182 -215 -182c-67 0 -111 37 -111 92c0 90 111 182 215 182z" fill="currentColor"/>
</g>
<g transform="translate(58.9293, 24.2107)">
<text font-family="Source Sans Pro" font-size="2.4690" text-anchor="start" fill="currentColor">
<tspan>ej</tspan>
</text>
</g>
<g transform="translate(58.9293, 27.0107)">
<text font-family="Source Sans Pro" font-size="2.4690" text-anchor="start" fill="currentColor">
<tspan>ej</tspan>
</text>
</g>
<g transform="translate(58.9293, 29.8107)">
<text font-family="Source Sans Pro" font-size="2.4690" text-anchor="start" fill="currentColor">
<tspan>ej</tspan>
</text>
</g>
<g transform="translate(60.4482, 18.4620)">
<rect x="-0.0363" y="-1.0000" width="0.0725" height="3.3206" ry="0.0363" fill="currentColor"/>
</g>
<g transform="translate(70.4245, 21.9620)">
<path transform="scale(0.0040, -0.0040)" d="M312 64c0 23 -18 41 -41 41c-39 0 -201 -110 -228 -142c-7 -8 -10 -17 -10 -27c0 -23 18 -41 41 -41c39 0 201 110 228 142c7 8 10 17 10 27zM259 137c46 0 86 -17 86 -74c0 -26 -15 -112 -73 -151c-29 -20 -89 -49 -186 -49c-46 0 -86 17 -86 74c0 26 16 112 74 151
c29 20 88 49 185 49z" fill="currentColor"/>
</g>
<g transform="translate(69.4076, 24.2107)">
<text font-family="Source Sans Pro" font-size="2.4690" text-anchor="start" fill="currentColor">
<tspan>nu!</tspan>
</text>
</g>
<g transform="translate(69.4076, 27.0107)">
<text font-family="Source Sans Pro" font-size="2.4690" text-anchor="start" fill="currentColor">
<tspan>nu!</tspan>
</text>
</g>
<g transform="translate(69.4076, 29.8107)">
<text font-family="Source Sans Pro" font-size="2.4690" text-anchor="start" fill="currentColor">
<tspan>nu!</tspan>
</text>
</g>
<g transform="translate(71.7688, 18.4620)">
<rect x="-0.0363" y="-0.0000" width="0.0725" height="3.2470" ry="0.0363" fill="currentColor"/>
</g>
<g transform="translate(64.7422, 29.8107)">
<rect x="0.0000" y="-0.5651" width="0.6600" height="0.1451" ry="0.0446" fill="currentColor"/>
</g>
<g transform="translate(44.2180, 20.4620)">
<path transform="scale(0.0040, -0.0040)" d="M215 137c67 0 111 -37 111 -92c0 -90 -111 -182 -215 -182c-67 0 -111 37 -111 92c0 90 111 182 215 182z" fill="currentColor"/>
</g>
<g transform="translate(42.9413, 24.2107)">
<text font-family="Source Sans Pro" font-size="2.4690" text-anchor="start" fill="currentColor">
<tspan>jim,</tspan>
</text>
</g>
<g transform="translate(42.8810, 27.0107)">
<text font-family="Source Sans Pro" font-size="2.4690" text-anchor="start" fill="currentColor">
<tspan>bat,</tspan>
</text>
</g>
<g transform="translate(43.5438, 29.8107)">
<text font-family="Source Sans Pro" font-size="2.4690" text-anchor="start" fill="currentColor">
<tspan>ra,</tspan>
</text>
</g>
<g transform="translate(45.4845, 18.4620)">
<rect x="-0.0363" y="-0.7837" width="0.0725" height="2.6044" ry="0.0363" fill="currentColor"/>
</g>
<g transform="translate(51.0884, 20.9620)">
<path transform="scale(0.0040, -0.0040)" d="M215 137c67 0 111 -37 111 -92c0 -90 -111 -182 -215 -182c-67 0 -111 37 -111 92c0 90 111 182 215 182z" fill="currentColor"/>
</g>
<g transform="translate(50.1331, 24.2107)">
<text font-family="Source Sans Pro" font-size="2.4690" text-anchor="start" fill="currentColor">
<tspan>daj</tspan>
</text>
</g>
<g transform="translate(50.1331, 27.0107)">
<text font-family="Source Sans Pro" font-size="2.4690" text-anchor="start" fill="currentColor">
<tspan>daj</tspan>
</text>
</g>
<g transform="translate(50.1331, 29.8107)">
<text font-family="Source Sans Pro" font-size="2.4690" text-anchor="start" fill="currentColor">
<tspan>daj</tspan>
</text>
</g>
<g transform="translate(52.3550, 18.4620)">
<rect x="-0.0363" y="-1.0000" width="0.0725" height="3.3206" ry="0.0363" fill="currentColor"/>
</g>
<g transform="translate(41.8946, 24.2107)">
<rect x="0.0000" y="-0.5651" width="0.6600" height="0.1451" ry="0.0446" fill="currentColor"/>
</g>
<g transform="translate(20.6499, 29.8107)">
<rect x="0.0000" y="-0.5651" width="0.6600" height="0.1451" ry="0.0446" fill="currentColor"/>
</g>
<g transform="translate(9.8896, 17.2499)">
<polygon stroke-linejoin="round" stroke-linecap="round" stroke-width="0.0941" fill="currentColor" stroke="currentColor" points="4.9735 -0.7687 4.9735 -0.3829 0.0471 0.1929 0.0471 -0.1929"/>
</g>
<g transform="translate(32.7295, 24.2107)">
<rect x="0.0000" y="-0.5651" width="0.6600" height="0.1451" ry="0.0446" fill="currentColor"/>
</g>
<g transform="translate(19.2856, 18.2499)">
<polygon stroke-linejoin="round" stroke-linecap="round" stroke-width="0.0941" fill="currentColor" stroke="currentColor" points="4.9735 -0.7687 4.9735 -0.3829 0.0471 0.1929 0.0471 -0.1929"/>
</g>
<g transform="translate(37.1765, 24.2107)">
<rect x="0.0000" y="-0.5651" width="0.6600" height="0.1451" ry="0.0446" fill="currentColor"/>
</g>
<g transform="translate(37.3673, 27.0107)">
<rect x="0.0000" y="-0.5651" width="0.6600" height="0.1451" ry="0.0446" fill="currentColor"/>
</g>
<g transform="translate(37.3874, 29.8107)">
<rect x="0.0000" y="-0.5651" width="0.6600" height="0.1451" ry="0.0446" fill="currentColor"/>
</g>
<g transform="translate(20.6499, 27.0107)">
<rect x="0.0000" y="-0.5651" width="0.6600" height="0.1451" ry="0.0446" fill="currentColor"/>
</g>
<g transform="translate(41.7139, 27.0107)">
<rect x="0.0000" y="-0.5651" width="0.6600" height="0.1451" ry="0.0446" fill="currentColor"/>
</g>
<g transform="translate(42.0252, 29.8107)">
<rect x="0.0000" y="-0.5651" width="0.6600" height="0.1451" ry="0.0446" fill="currentColor"/>
</g>
<g transform="translate(31.1041, 17.2499)">
<polygon stroke-linejoin="round" stroke-linecap="round" stroke-width="0.0941" fill="currentColor" stroke="currentColor" points="4.9735 -0.7687 4.9735 -0.3829 0.0471 0.1929 0.0471 -0.1929"/>
</g>
<g transform="translate(55.8079, 24.2107)">
<rect x="0.0000" y="-0.5651" width="0.6600" height="0.1451" ry="0.0446" fill="currentColor"/>
</g>
<g transform="translate(55.8079, 27.0107)">
<rect x="0.0000" y="-0.5651" width="0.6600" height="0.1451" ry="0.0446" fill="currentColor"/>
</g>
<g transform="translate(55.8079, 29.8107)">
<rect x="0.0000" y="-0.5651" width="0.6600" height="0.1451" ry="0.0446" fill="currentColor"/>
</g>
<g transform="translate(40.5002, 18.2499)">
<polygon stroke-linejoin="round" stroke-linecap="round" stroke-width="0.0941" fill="currentColor" stroke="currentColor" points="4.9735 -0.7687 4.9735 -0.3829 0.0471 0.1929 0.0471 -0.1929"/>
</g>
<g transform="translate(64.7422, 24.2107)">
<rect x="0.0000" y="-0.5651" width="0.6600" height="0.1451" ry="0.0446" fill="currentColor"/>
</g>
<g transform="translate(64.7422, 27.0107)">
<rect x="0.0000" y="-0.5651" width="0.6600" height="0.1451" ry="0.0446" fill="currentColor"/>
</g>
<g transform="translate(11.6857, 24.2107)">
<rect x="0.0000" y="-0.5651" width="0.6600" height="0.1451" ry="0.0446" fill="currentColor"/>
</g>
<g transform="translate(11.2639, 27.0107)">
<rect x="0.0000" y="-0.5651" width="0.6600" height="0.1451" ry="0.0446" fill="currentColor"/>
</g>
<g transform="translate(11.2639, 29.8107)">
<rect x="0.0000" y="-0.5651" width="0.6600" height="0.1451" ry="0.0446" fill="currentColor"/>
</g>
<g transform="translate(16.2733, 24.2107)">
<rect x="0.0000" y="-0.5651" width="0.6600" height="0.1451" ry="0.0446" fill="currentColor"/>
</g>
<g transform="translate(20.4893, 24.2107)">
<rect x="0.0000" y="-0.5651" width="0.6600" height="0.1451" ry="0.0446" fill="currentColor"/>
</g>
<g transform="translate(9.9258, 18.4620)">
<rect x="-0.0363" y="-1.2163" width="0.0725" height="3.5369" ry="0.0363" fill="currentColor"/>
</g>
<g transform="translate(13.6073, 19.9620)">
<path transform="scale(0.0040, -0.0040)" d="M215 137c67 0 111 -37 111 -92c0 -90 -111 -182 -215 -182c-67 0 -111 37 -111 92c0 90 111 182 215 182z" fill="currentColor"/>
</g>
<g transform="translate(13.3951, 24.2107)">
<text font-family="Source Sans Pro" font-size="2.4690" text-anchor="start" fill="currentColor">
<tspan>ci</tspan>
</text>
</g>
<g transform="translate(12.5717, 27.0107)">
<text font-family="Source Sans Pro" font-size="2.4690" text-anchor="start" fill="currentColor">
<tspan>tan</tspan>
</text>
</g>
<g transform="translate(12.5717, 29.8107)">
<text font-family="Source Sans Pro" font-size="2.4690" text-anchor="start" fill="currentColor">
<tspan>tan</tspan>
</text>
</g>
<g transform="translate(14.8739, 18.4620)">
<rect x="-0.0363" y="-1.7837" width="0.0725" height="3.1044" ry="0.0363" fill="currentColor"/>
</g>
<g transform="translate(8.0052, 29.8107)">
<text font-family="Source Sans Pro" font-size="2.4690" text-anchor="start" fill="currentColor">
<tspan>na</tspan>
</text>
</g>
<g transform="translate(18.0554, 21.4620)">
<path transform="scale(0.0040, -0.0040)" d="M215 137c67 0 111 -37 111 -92c0 -90 -111 -182 -215 -182c-67 0 -111 37 -111 92c0 90 111 182 215 182z" fill="currentColor"/>
</g>
<g transform="translate(18.0842, 24.2107)">
<text font-family="Source Sans Pro" font-size="2.4690" text-anchor="start" fill="currentColor">
<tspan>a</tspan>
</text>
</g>
<g transform="translate(17.7628, 27.0107)">
<text font-family="Source Sans Pro" font-size="2.4690" text-anchor="start" fill="currentColor">
<tspan>la</tspan>
</text>
</g>
<g transform="translate(17.7628, 29.8107)">
<text font-family="Source Sans Pro" font-size="2.4690" text-anchor="start" fill="currentColor">
<tspan>la</tspan>
</text>
</g>
<g transform="translate(19.3219, 18.4620)">
<rect x="-0.0363" y="-0.2163" width="0.0725" height="3.0369" ry="0.0363" fill="currentColor"/>
</g>
<g transform="translate(23.0034, 20.4620)">
<path transform="scale(0.0040, -0.0040)" d="M215 137c67 0 111 -37 111 -92c0 -90 -111 -182 -215 -182c-67 0 -111 37 -111 92c0 90 111 182 215 182z" fill="currentColor"/>
</g>
<g transform="translate(22.3092, 24.2107)">
<text font-family="Source Sans Pro" font-size="2.4690" text-anchor="start" fill="currentColor">
<tspan>nu</tspan>
</text>
</g>
<g transform="translate(0.8000, 19.4620)">
<path transform="scale(0.0040, -0.0040)" d="M646 2c0 -113 -74 -213 -180 -247c3 -34 5 -68 5 -102c0 -20 -1 -40 -2 -60c-7 -121 -91 -228 -209 -228c-108 0 -196 87 -196 196c0 58 53 104 112 104c54 0 95 -48 95 -104c0 -52 -43 -95 -95 -95c-10 0 -20 2 -29 6c26 -38 68 -63 116 -63h3c93 2 153 92 159 190
c1 19 2 37 2 56c0 30 -2 60 -4 90c-5 -1 -43 -8 -88 -8c-194 0 -333 180 -333 375c0 177 130 307 246 442c-31 98 -53 170 -53 347c0 115 55 223 148 290c7 5 16 4 22 -1c68 -80 134 -243 134 -357c0 -143 -85 -255 -178 -364c21 -68 40 -137 57 -206c1 0 5 1 11 1
c156 0 257 -129 257 -262zM462 -202c66 24 111 88 111 162c0 89 -65 178 -170 190c28 -135 50 -272 59 -352zM75 26c0 -145 141 -245 263 -245c1 0 46 0 81 6c-7 65 -27 206 -61 363c-79 -8 -124 -61 -124 -119c0 -43 25 -89 80 -121c5 -5 7 -11 7 -16
c0 -12 -10 -23 -22 -23c-16 0 -127 63 -127 188c0 89 58 175 161 198c-14 58 -29 116 -46 173c-106 -122 -212 -244 -212 -404zM406 1042c-99 -47 -162 -148 -162 -257c0 -49 13 -111 38 -191c79 97 144 199 144 324c0 33 0 63 -20 124z" fill="currentColor"/>
</g>
<g transform="translate(4.4297, 18.4620)">
<path transform="scale(0.0040, -0.0040)" d="M29 39l-2 -64v-11c0 -22 2 -43 5 -65c44 38 91 80 91 138c0 33 -13 66 -42 66c-31 0 -51 -31 -52 -64zM-28 454c9 5 18 8 28 8s19 -3 28 -8l-7 -343c25 23 58 36 92 36c51 0 87 -49 87 -103c0 -79 -84 -117 -144 -169c-16 -14 -25 -41 -47 -41c-14 0 -25 13 -25 27z" fill="currentColor"/>
</g>
<g transform="translate(5.3593, 16.9620)">
<path transform="scale(0.0040, -0.0040)" d="M29 39l-2 -64v-11c0 -22 2 -43 5 -65c44 38 91 80 91 138c0 33 -13 66 -42 66c-31 0 -51 -31 -52 -64zM-28 454c9 5 18 8 28 8s19 -3 28 -8l-7 -343c25 23 58 36 92 36c51 0 87 -49 87 -103c0 -79 -84 -117 -144 -169c-16 -14 -25 -41 -47 -41c-14 0 -25 13 -25 27z" fill="currentColor"/>
</g>
<g transform="translate(8.6593, 20.9620)">
<path transform="scale(0.0040, -0.0040)" d="M215 137c67 0 111 -37 111 -92c0 -90 -111 -182 -215 -182c-67 0 -111 37 -111 92c0 90 111 182 215 182z" fill="currentColor"/>
</g>
<g transform="translate(7.9851, 24.2107)">
<text font-family="Source Sans Pro" font-size="2.4690" text-anchor="start" fill="currentColor">
<tspan>ho</tspan>
</text>
</g>
<g transform="translate(8.0052, 27.0107)">
<text font-family="Source Sans Pro" font-size="2.4690" text-anchor="start" fill="currentColor">
<tspan>na</tspan>
</text>
</g>
<g transform="translate(34.1879, 29.8107)">
<text font-family="Source Sans Pro" font-size="2.4690" text-anchor="start" fill="currentColor">
<tspan>ha</tspan>
</text>
</g>
<g transform="translate(22.3092, 27.0107)">
<text font-family="Source Sans Pro" font-size="2.4690" text-anchor="start" fill="currentColor">
<tspan>nu</tspan>
</text>
</g>
<g transform="translate(34.8219, 19.9620)">
<path transform="scale(0.0040, -0.0040)" d="M215 137c67 0 111 -37 111 -92c0 -90 -111 -182 -215 -182c-67 0 -111 37 -111 92c0 90 111 182 215 182z" fill="currentColor"/>
</g>
<g transform="translate(34.2682, 24.2107)">
<text font-family="Source Sans Pro" font-size="2.4690" text-anchor="start" fill="currentColor">
<tspan>Mi</tspan>
</text>
</g>
<g transform="translate(34.1879, 27.0107)">
<text font-family="Source Sans Pro" font-size="2.4690" text-anchor="start" fill="currentColor">
<tspan>ha</tspan>
</text>
</g>
<g transform="translate(36.0884, 18.4620)">
<rect x="-0.0363" y="-1.7837" width="0.0725" height="3.1044" ry="0.0363" fill="currentColor"/>
</g>
<g transform="translate(39.2699, 21.4620)">
<path transform="scale(0.0040, -0.0040)" d="M215 137c67 0 111 -37 111 -92c0 -90 -111 -182 -215 -182c-67 0 -111 37 -111 92c0 90 111 182 215 182z" fill="currentColor"/>
</g>
<g transform="translate(38.3347, 24.2107)">
<text font-family="Source Sans Pro" font-size="2.4690" text-anchor="start" fill="currentColor">
<tspan>cra</tspan>
</text>
</g>
<g transform="translate(38.6359, 27.0107)">
<text font-family="Source Sans Pro" font-size="2.4690" text-anchor="start" fill="currentColor">
<tspan>Ša</tspan>
</text>
</g>
<g transform="translate(38.6761, 29.8107)">
<text font-family="Source Sans Pro" font-size="2.4690" text-anchor="start" fill="currentColor">
<tspan>To</tspan>
</text>
</g>
<g transform="translate(40.5365, 18.4620)">
<rect x="-0.0363" y="-0.2163" width="0.0725" height="3.0369" ry="0.0363" fill="currentColor"/>
</g>
<g transform="translate(22.3092, 29.8107)">
<text font-family="Source Sans Pro" font-size="2.4690" text-anchor="start" fill="currentColor">
<tspan>nu</tspan>
</text>
</g>
<g transform="translate(24.2699, 18.4620)">
<rect x="-0.0363" y="-0.7837" width="0.0725" height="2.6044" ry="0.0363" fill="currentColor"/>
</g>
<g transform="translate(29.8739, 20.9620)">
<path transform="scale(0.0040, -0.0040)" d="M215 137c67 0 111 -37 111 -92c0 -90 -111 -182 -215 -182c-67 0 -111 37 -111 92c0 90 111 182 215 182z" fill="currentColor"/>
</g>
<g transform="translate(29.5010, 27.0107)">
<text font-family="Source Sans Pro" font-size="2.4690" text-anchor="start" fill="currentColor">
<tspan>et</tspan>
</text>
</g>
<g transform="translate(31.1404, 18.4620)">
<rect x="-0.0363" y="-1.2163" width="0.0725" height="3.5369" ry="0.0363" fill="currentColor"/>
</g>
<g transform="translate(29.5010, 29.8107)">
<text font-family="Source Sans Pro" font-size="2.4690" text-anchor="start" fill="currentColor">
<tspan>et</tspan>
</text>
</g>
<g transform="translate(29.1997, 24.2107)">
<text font-family="Source Sans Pro" font-size="2.4690" text-anchor="start" fill="currentColor">
<tspan>mi</tspan>
</text>
</g>
<g transform="translate(0.0000, 35.3745)">
<line stroke-linejoin="round" stroke-linecap="round" stroke-width="0.0558" stroke="currentColor" x1="0.0279" y1="0" x2="82.3177" y2="0"/>
</g>
<g transform="translate(0.0000, 34.3745)">
<line stroke-linejoin="round" stroke-linecap="round" stroke-width="0.0558" stroke="currentColor" x1="0.0279" y1="0" x2="82.3177" y2="0"/>
</g>
<g transform="translate(0.0000, 33.3745)">
<line stroke-linejoin="round" stroke-linecap="round" stroke-width="0.0558" stroke="currentColor" x1="0.0279" y1="0" x2="82.3177" y2="0"/>
</g>
<g transform="translate(0.0000, 32.3745)">
<line stroke-linejoin="round" stroke-linecap="round" stroke-width="0.0558" stroke="currentColor" x1="0.0279" y1="0" x2="82.3177" y2="0"/>
</g>
<g transform="translate(0.0000, 31.3745)">
<line stroke-linejoin="round" stroke-linecap="round" stroke-width="0.0558" stroke="currentColor" x1="0.0279" y1="0" x2="82.3177" y2="0"/>
</g>
<g transform="translate(45.3345, 33.3745)">
<rect x="0.0000" y="-2.0000" width="0.2120" height="4.0000" ry="0.0000" fill="currentColor"/>
</g>
<g transform="translate(64.4273, 33.3745)">
<rect x="0.0000" y="-2.0000" width="0.2120" height="4.0000" ry="0.0000" fill="currentColor"/>
</g>
<g transform="translate(27.6282, 33.3745)">
<rect x="0.0000" y="-2.0000" width="0.2120" height="4.0000" ry="0.0000" fill="currentColor"/>
</g>
<g transform="translate(82.1336, 33.3745)">
<rect x="0.0000" y="-2.0000" width="0.2120" height="4.0000" ry="0.0000" fill="currentColor"/>
</g>
<g transform="translate(8.8105, 32.8745)">
<path transform="scale(0.0040, -0.0040)" d="M0 0c0 31 25 56 56 56s55 -25 55 -56s-24 -56 -55 -56s-56 25 -56 56z" fill="currentColor"/>
</g>
<g transform="translate(8.8105, 33.8745)">
<path transform="scale(0.0040, -0.0040)" d="M0 0c0 31 25 56 56 56s55 -25 55 -56s-24 -56 -55 -56s-56 25 -56 56z" fill="currentColor"/>
</g>
<g transform="translate(8.2637, 33.3745)">
<rect x="0.0000" y="-2.0000" width="0.2120" height="4.0000" ry="0.0000" fill="currentColor"/>
</g>
<g transform="translate(7.2593, 33.3745)">
<rect x="0.0000" y="-2.0000" width="0.6696" height="4.0000" ry="0.0000" fill="currentColor"/>
</g>
<g transform="translate(55.7614, 35.3745)">
<path transform="scale(0.0040, -0.0040)" d="M215 137c67 0 111 -37 111 -92c0 -90 -111 -182 -215 -182c-67 0 -111 37 -111 92c0 90 111 182 215 182z" fill="currentColor"/>
</g>
<g transform="translate(67.7283, 30.9215)">
<path transform="scale(0.0040, -0.0040)" d="M0 0c0 -197 207 -335 207 -532c0 -71 -15 -141 -41 -207c-5 -8 -13 -12 -21 -12c-14 0 -27 11 -24 28c26 60 42 125 42 191c0 103 -93 207 -163 282h-18v250h18z" fill="currentColor"/>
</g>
<g transform="translate(61.7663, 38.6813)">
<rect x="0.0000" y="-0.5651" width="0.6600" height="0.1451" ry="0.0446" fill="currentColor"/>
</g>
<g transform="translate(67.6920, 33.3745)">
<rect x="-0.0363" y="-2.5000" width="0.0725" height="3.3206" ry="0.0363" fill="currentColor"/>
</g>
<g transform="translate(66.1731, 38.6813)">
<text font-family="Source Sans Pro" font-size="2.4690" text-anchor="start" fill="currentColor">
<tspan>éj</tspan>
</text>
</g>
<g transform="translate(66.4254, 34.3745)">
<path transform="scale(0.0040, -0.0040)" d="M215 137c67 0 111 -37 111 -92c0 -90 -111 -182 -215 -182c-67 0 -111 37 -111 92c0 90 111 182 215 182z" fill="currentColor"/>
</g>
<g transform="translate(57.0279, 33.3745)">
<rect x="-0.0363" y="-1.5000" width="0.0725" height="3.3206" ry="0.0363" fill="currentColor"/>
</g>
<g transform="translate(54.8060, 38.6813)">
<text font-family="Source Sans Pro" font-size="2.4690" text-anchor="start" fill="currentColor">
<tspan>daj</tspan>
</text>
</g>
<g transform="translate(48.5992, 33.3745)">
<rect x="-0.0363" y="-1.5000" width="0.0725" height="3.3206" ry="0.0363" fill="currentColor"/>
</g>
<g transform="translate(46.0760, 38.6813)">
<text font-family="Source Sans Pro" font-size="2.4690" text-anchor="start" fill="currentColor">
<tspan>daj,</tspan>
</text>
</g>
<g transform="translate(69.0049, 38.6813)">
<rect x="0.0000" y="-0.5651" width="0.6600" height="0.1451" ry="0.0446" fill="currentColor"/>
</g>
<g transform="translate(24.9787, 38.6813)">
<rect x="0.0000" y="-0.5651" width="0.6600" height="0.1451" ry="0.0446" fill="currentColor"/>
</g>
<g transform="translate(32.2059, 38.6813)">
<rect x="0.0000" y="-0.5651" width="0.6600" height="0.1451" ry="0.0446" fill="currentColor"/>
</g>
<g transform="translate(72.6500, 33.3745)">
<rect x="-0.0363" y="-2.0000" width="0.0725" height="3.3206" ry="0.0363" fill="currentColor"/>
</g>
<g transform="translate(73.1323, 34.8745)">
<path transform="scale(0.0040, -0.0040)" d="M0 0c0 31 25 56 56 56s55 -25 55 -56s-24 -56 -55 -56s-56 25 -56 56z" fill="currentColor"/>
</g>
<g transform="translate(70.6892, 38.6813)">
<text font-family="Source Sans Pro" font-size="2.4690" text-anchor="start" fill="currentColor">
<tspan>nu</tspan>
</text>
</g>
<g transform="translate(71.3835, 34.8745)">
<path transform="scale(0.0040, -0.0040)" d="M215 137c67 0 111 -37 111 -92c0 -90 -111 -182 -215 -182c-67 0 -111 37 -111 92c0 90 111 182 215 182z" fill="currentColor"/>
</g>
<g transform="translate(29.6264, 34.8745)">
<path transform="scale(0.0040, -0.0040)" d="M215 137c67 0 111 -37 111 -92c0 -90 -111 -182 -215 -182c-67 0 -111 37 -111 92c0 90 111 182 215 182z" fill="currentColor"/>
</g>
<g transform="translate(20.2517, 33.3745)">
<rect x="-0.0363" y="-1.0000" width="0.0725" height="3.3206" ry="0.0363" fill="currentColor"/>
</g>
<g transform="translate(18.0299, 38.6813)">
<text font-family="Source Sans Pro" font-size="2.4690" text-anchor="start" fill="currentColor">
<tspan>daj</tspan>
</text>
</g>
<g transform="translate(18.9852, 35.8745)">
<path transform="scale(0.0040, -0.0040)" d="M215 137c67 0 111 -37 111 -92c0 -90 -111 -182 -215 -182c-67 0 -111 37 -111 92c0 90 111 182 215 182z" fill="currentColor"/>
</g>
<g transform="translate(11.8230, 33.3745)">
<rect x="-0.0363" y="-1.0000" width="0.0725" height="3.3206" ry="0.0363" fill="currentColor"/>
</g>
<g transform="translate(3.9617, 38.6813)">
<text font-family="serif" font-weight="bold" font-size="2.4690" text-anchor="start" fill="currentColor">
<tspan>Ref.</tspan>
</text>
</g>
<g transform="translate(9.2195, 38.6813)">
<text font-family="Source Sans Pro" font-size="2.4690" text-anchor="start" fill="currentColor">
<tspan>Daj,</tspan>
</text>
</g>
<g transform="translate(10.5565, 35.8745)">
<path transform="scale(0.0040, -0.0040)" d="M215 137c67 0 111 -37 111 -92c0 -90 -111 -182 -215 -182c-67 0 -111 37 -111 92c0 90 111 182 215 182z" fill="currentColor"/>
</g>
<g transform="translate(4.4297, 33.3745)">
<path transform="scale(0.0040, -0.0040)" d="M29 39l-2 -64v-11c0 -22 2 -43 5 -65c44 38 91 80 91 138c0 33 -13 66 -42 66c-31 0 -51 -31 -52 -64zM-28 454c9 5 18 8 28 8s19 -3 28 -8l-7 -343c25 23 58 36 92 36c51 0 87 -49 87 -103c0 -79 -84 -117 -144 -169c-16 -14 -25 -41 -47 -41c-14 0 -25 13 -25 27z" fill="currentColor"/>
</g>
<g transform="translate(5.3593, 31.8745)">
<path transform="scale(0.0040, -0.0040)" d="M29 39l-2 -64v-11c0 -22 2 -43 5 -65c44 38 91 80 91 138c0 33 -13 66 -42 66c-31 0 -51 -31 -52 -64zM-28 454c9 5 18 8 28 8s19 -3 28 -8l-7 -343c25 23 58 36 92 36c51 0 87 -49 87 -103c0 -79 -84 -117 -144 -169c-16 -14 -25 -41 -47 -41c-14 0 -25 13 -25 27z" fill="currentColor"/>
</g>
<g transform="translate(0.8000, 34.3745)">
<path transform="scale(0.0040, -0.0040)" d="M646 2c0 -113 -74 -213 -180 -247c3 -34 5 -68 5 -102c0 -20 -1 -40 -2 -60c-7 -121 -91 -228 -209 -228c-108 0 -196 87 -196 196c0 58 53 104 112 104c54 0 95 -48 95 -104c0 -52 -43 -95 -95 -95c-10 0 -20 2 -29 6c26 -38 68 -63 116 -63h3c93 2 153 92 159 190
c1 19 2 37 2 56c0 30 -2 60 -4 90c-5 -1 -43 -8 -88 -8c-194 0 -333 180 -333 375c0 177 130 307 246 442c-31 98 -53 170 -53 347c0 115 55 223 148 290c7 5 16 4 22 -1c68 -80 134 -243 134 -357c0 -143 -85 -255 -178 -364c21 -68 40 -137 57 -206c1 0 5 1 11 1
c156 0 257 -129 257 -262zM462 -202c66 24 111 88 111 162c0 89 -65 178 -170 190c28 -135 50 -272 59 -352zM75 26c0 -145 141 -245 263 -245c1 0 46 0 81 6c-7 65 -27 206 -61 363c-79 -8 -124 -61 -124 -119c0 -43 25 -89 80 -121c5 -5 7 -11 7 -16
c0 -12 -10 -23 -22 -23c-16 0 -127 63 -127 188c0 89 58 175 161 198c-14 58 -29 116 -46 173c-106 -122 -212 -244 -212 -404zM406 1042c-99 -47 -162 -148 -162 -257c0 -49 13 -111 38 -191c79 97 144 199 144 324c0 33 0 63 -20 124z" fill="currentColor"/>
</g>
<g transform="translate(36.3332, 34.8745)">
<path transform="scale(0.0040, -0.0040)" d="M0 0c0 31 25 56 56 56s55 -25 55 -56s-24 -56 -55 -56s-56 25 -56 56z" fill="currentColor"/>
</g>
<g transform="translate(33.8901, 38.6813)">
<text font-family="Source Sans Pro" font-size="2.4690" text-anchor="start" fill="currentColor">
<tspan>nu</tspan>
</text>
</g>
<g transform="translate(34.5844, 35.3745)">
<path transform="scale(0.0040, -0.0040)" d="M215 137c67 0 111 -37 111 -92c0 -90 -111 -182 -215 -182c-67 0 -111 37 -111 92c0 90 111 182 215 182z" fill="currentColor"/>
</g>
<g transform="translate(35.8509, 33.3745)">
<rect x="-0.0363" y="-1.5000" width="0.0725" height="3.3206" ry="0.0363" fill="currentColor"/>
</g>
<g transform="translate(30.9292, 31.4215)">
<path transform="scale(0.0040, -0.0040)" d="M0 0c0 -197 207 -335 207 -532c0 -71 -15 -141 -41 -207c-5 -8 -13 -12 -21 -12c-14 0 -27 11 -24 28c26 60 42 125 42 191c0 103 -93 207 -163 282h-18v250h18z" fill="currentColor"/>
</g>
<g transform="translate(30.8929, 33.3745)">
<rect x="-0.0363" y="-2.0000" width="0.0725" height="3.3206" ry="0.0363" fill="currentColor"/>
</g>
<g transform="translate(29.3740, 38.6813)">
<text font-family="Source Sans Pro" font-size="2.4690" text-anchor="start" fill="currentColor">
<tspan>éj</tspan>
</text>
</g>
<g transform="translate(47.3327, 35.3745)">
<path transform="scale(0.0040, -0.0040)" d="M215 137c67 0 111 -37 111 -92c0 -90 -111 -182 -215 -182c-67 0 -111 37 -111 92c0 90 111 182 215 182z" fill="currentColor"/>
</g>
<g transform="translate(0.0000, 47.4235)">
<line stroke-linejoin="round" stroke-linecap="round" stroke-width="0.0558" stroke="currentColor" x1="0.0279" y1="0" x2="82.3177" y2="0"/>
</g>
<g transform="translate(0.0000, 46.4235)">
<line stroke-linejoin="round" stroke-linecap="round" stroke-width="0.0558" stroke="currentColor" x1="0.0279" y1="0" x2="82.3177" y2="0"/>
</g>
<g transform="translate(0.0000, 45.4235)">
<line stroke-linejoin="round" stroke-linecap="round" stroke-width="0.0558" stroke="currentColor" x1="0.0279" y1="0" x2="82.3177" y2="0"/>
</g>
<g transform="translate(0.0000, 44.4235)">
<line stroke-linejoin="round" stroke-linecap="round" stroke-width="0.0558" stroke="currentColor" x1="0.0279" y1="0" x2="82.3177" y2="0"/>
</g>
<g transform="translate(0.0000, 43.4235)">
<line stroke-linejoin="round" stroke-linecap="round" stroke-width="0.0558" stroke="currentColor" x1="0.0279" y1="0" x2="82.3177" y2="0"/>
</g>
<g transform="translate(50.9346, 45.4235)">
<rect x="0.0000" y="-2.0000" width="0.2120" height="4.0000" ry="0.0000" fill="currentColor"/>
</g>
<g transform="translate(35.1366, 45.4235)">
<rect x="0.0000" y="-2.0000" width="0.2120" height="4.0000" ry="0.0000" fill="currentColor"/>
</g>
<g transform="translate(66.5668, 44.9235)">
<path transform="scale(0.0040, -0.0040)" d="M0 0c0 31 25 56 56 56s55 -25 55 -56s-24 -56 -55 -56s-56 25 -56 56z" fill="currentColor"/>
</g>
<g transform="translate(66.5668, 45.9235)">
<path transform="scale(0.0040, -0.0040)" d="M0 0c0 31 25 56 56 56s55 -25 55 -56s-24 -56 -55 -56s-56 25 -56 56z" fill="currentColor"/>
</g>
<g transform="translate(67.8944, 45.4235)">
<rect x="0.0000" y="-2.0000" width="0.6696" height="4.0000" ry="0.0000" fill="currentColor"/>
</g>
<g transform="translate(67.3476, 45.4235)">
<rect x="0.0000" y="-2.0000" width="0.2120" height="4.0000" ry="0.0000" fill="currentColor"/>
</g>
<g transform="translate(20.5192, 45.4235)">
<rect x="0.0000" y="-2.0000" width="0.2120" height="4.0000" ry="0.0000" fill="currentColor"/>
</g>
<g transform="translate(81.6760, 45.4235)">
<rect x="0.0000" y="-2.0000" width="0.6696" height="4.0000" ry="0.0000" fill="currentColor"/>
</g>
<g transform="translate(81.1292, 45.4235)">
<rect x="0.0000" y="-2.0000" width="0.2120" height="4.0000" ry="0.0000" fill="currentColor"/>
</g>
<g transform="translate(0.0000, 48.4235)">
<rect x="62.6841" y="-0.0779" width="1.9542" height="0.1558" ry="0.0779" fill="currentColor"/>
</g>
<g transform="translate(59.4527, 47.9235)">
<path transform="scale(0.0040, -0.0040)" d="M215 137c67 0 111 -37 111 -92c0 -90 -111 -182 -215 -182c-67 0 -111 37 -111 92c0 90 111 182 215 182z" fill="currentColor"/>
</g>
<g transform="translate(56.1456, 46.9235)">
<path transform="scale(0.0040, -0.0040)" d="M215 137c67 0 111 -37 111 -92c0 -90 -111 -182 -215 -182c-67 0 -111 37 -111 92c0 90 111 182 215 182z" fill="currentColor"/>
</g>
<g transform="translate(55.1903, 50.9235)">
<text font-family="Source Sans Pro" font-size="2.4690" text-anchor="start" fill="currentColor">
<tspan>daj</tspan>
</text>
</g>
<g transform="translate(57.4121, 45.4235)">
<rect x="-0.0363" y="-2.2197" width="0.0725" height="3.5403" ry="0.0363" fill="currentColor"/>
</g>
<g transform="translate(59.2003, 50.9235)">
<text font-family="Source Sans Pro" font-size="2.4690" text-anchor="start" fill="currentColor">
<tspan>éj</tspan>
</text>
</g>
<g transform="translate(60.7192, 45.4235)">
<rect x="-0.0363" y="-0.2100" width="0.0725" height="2.5306" ry="0.0363" fill="currentColor"/>
</g>
<g transform="translate(63.0098, 48.4235)">
<path transform="scale(0.0040, -0.0040)" d="M215 137c67 0 111 -37 111 -92c0 -90 -111 -182 -215 -182c-67 0 -111 37 -111 92c0 90 111 182 215 182z" fill="currentColor"/>
</g>
<g transform="translate(62.3155, 50.9235)">
<text font-family="Source Sans Pro" font-size="2.4690" text-anchor="start" fill="currentColor">
<tspan>nu</tspan>
</text>
</g>
<g transform="translate(64.2763, 45.4235)">
<rect x="-0.0363" y="-0.0021" width="0.0725" height="2.8228" ry="0.0363" fill="currentColor"/>
</g>
<g transform="translate(60.6830, 45.2114)">
<polygon stroke-linejoin="round" stroke-linecap="round" stroke-width="0.0941" fill="currentColor" stroke="currentColor" points="3.5826 0.0192 3.5826 0.4050 0.0471 0.1929 0.0471 -0.1929"/>
</g>
<g transform="translate(47.2117, 45.9235)">
<path transform="scale(0.0040, -0.0040)" d="M215 137c67 0 111 -37 111 -92c0 -90 -111 -182 -215 -182c-67 0 -111 37 -111 92c0 90 111 182 215 182z" fill="currentColor"/>
</g>
<g transform="translate(46.9593, 50.9235)">
<text font-family="Source Sans Pro" font-size="2.4690" text-anchor="start" fill="currentColor">
<tspan>éj</tspan>
</text>
</g>
<g transform="translate(48.4783, 45.4235)">
<rect x="-0.0363" y="-2.2100" width="0.0725" height="2.5306" ry="0.0363" fill="currentColor"/>
</g>
<g transform="translate(52.4420, 45.4235)">
<path transform="scale(0.0040, -0.0040)" d="M215 137c67 0 111 -37 111 -92c0 -90 -111 -182 -215 -182c-67 0 -111 37 -111 92c0 90 111 182 215 182z" fill="currentColor"/>
</g>
<g transform="translate(51.4464, 50.9235)">
<text font-family="Source Sans Pro" font-size="2.4690" text-anchor="start" fill="currentColor">
<tspan>nu,</tspan>
</text>
</g>
<g transform="translate(53.7085, 45.4235)">
<rect x="-0.0363" y="-2.9924" width="0.0725" height="2.8131" ry="0.0363" fill="currentColor"/>
</g>
<g transform="translate(18.9215, 50.9235)">
<rect x="0.0000" y="-0.5651" width="0.6600" height="0.1451" ry="0.0446" fill="currentColor"/>
</g>
<g transform="translate(61.3317, 50.9235)">
<rect x="0.0000" y="-0.5651" width="0.6600" height="0.1451" ry="0.0446" fill="currentColor"/>
</g>
<g transform="translate(23.8011, 50.9235)">
<rect x="0.0000" y="-0.5651" width="0.6600" height="0.1451" ry="0.0446" fill="currentColor"/>
</g>
<g transform="translate(34.7385, 50.9235)">
<rect x="0.0000" y="-0.5651" width="0.6600" height="0.1451" ry="0.0446" fill="currentColor"/>
</g>
<g transform="translate(38.2691, 50.9235)">
<rect x="0.0000" y="-0.5651" width="0.6164" height="0.1451" ry="0.0446" fill="currentColor"/>
</g>
<g transform="translate(46.1061, 50.9235)">
<rect x="0.0000" y="-0.5651" width="0.6600" height="0.1451" ry="0.0446" fill="currentColor"/>
</g>
<g transform="translate(37.8742, 42.6356)">
<polygon stroke-linejoin="round" stroke-linecap="round" stroke-width="0.0941" fill="currentColor" stroke="currentColor" points="3.3326 0.3829 3.3326 0.7687 0.0471 0.1929 0.0471 -0.1929"/>
</g>
<g transform="translate(49.7767, 50.9235)">
<rect x="0.0000" y="-0.5651" width="0.6600" height="0.1451" ry="0.0446" fill="currentColor"/>
</g>
<g transform="translate(51.9680, 42.0813)">
<g>
<path transform="scale(0.0025, -0.0025)" d="M194 486c16 0 29 15 41 15c13 0 24 -13 24 -31v-341c0 -47 35 -86 81 -86c14 0 21 -10 21 -21s-7 -22 -21 -22c-49 0 -97 14 -146 14s-96 -14 -145 -14c-14 0 -22 11 -22 22s8 21 22 21c46 0 80 39 80 86v137c0 23 -16 35 -30 35c-7 0 -13 -4 -17 -11l-34 -65
c-5 -10 -14 -15 -23 -15c-14 0 -28 12 -28 27c0 4 1 8 3 13l129 250c2 4 7 6 11 6c18 0 37 -20 54 -20z" fill="currentColor"/>

<path transform="translate(0.9640, 0.0000) scale(0.0025, -0.0025)" d="M0 51c0 28 23 51 51 51s51 -23 51 -51s-23 -51 -51 -51s-51 23 -51 51z" fill="currentColor"/>
</g>
</g>
<g transform="translate(50.9346, 40.3064)">
<line stroke-linejoin="round" stroke-linecap="round" stroke-width="0.1786" stroke="currentColor" x1="16.5023" y1="-0.0000" x2="16.5023" y2="2.0000"/>
</g>
<g transform="translate(50.9346, 40.3064)">
<line stroke-linejoin="round" stroke-linecap="round" stroke-width="0.1786" stroke="currentColor" x1="0.1228" y1="-0.0000" x2="0.1228" y2="2.0000"/>
</g>
<g transform="translate(50.9346, 40.3064)">
<line stroke-linejoin="round" stroke-linecap="round" stroke-width="0.1786" stroke="currentColor" x1="0.1228" y1="-0.0000" x2="16.5023" y2="-0.0000"/>
</g>
<g transform="translate(44.8849, 43.4235)">
<polygon stroke-linejoin="round" stroke-linecap="round" stroke-width="0.0941" fill="currentColor" stroke="currentColor" points="3.5826 -0.4050 3.5826 -0.0192 0.0471 0.1929 0.0471 -0.1929"/>
</g>
<g transform="translate(69.8593, 45.4235)">
<path transform="scale(0.0040, -0.0040)" d="M215 137c67 0 111 -37 111 -92c0 -90 -111 -182 -215 -182c-67 0 -111 37 -111 92c0 90 111 182 215 182z" fill="currentColor"/>
</g>
<g transform="translate(69.1651, 50.9235)">
<text font-family="Source Sans Pro" font-size="2.4690" text-anchor="start" fill="currentColor">
<tspan>nu</tspan>
</text>
</g>
<g transform="translate(69.8956, 45.4235)">
<rect x="-0.0363" y="0.1794" width="0.0725" height="3.1540" ry="0.0363" fill="currentColor"/>
</g>
<g transform="translate(58.4738, 50.9235)">
<rect x="0.0000" y="-0.5651" width="0.6565" height="0.1451" ry="0.0446" fill="currentColor"/>
</g>
<g transform="translate(53.6722, 42.4235)">
<polygon stroke-linejoin="round" stroke-linecap="round" stroke-width="0.0941" fill="currentColor" stroke="currentColor" points="3.7291 0.5950 3.7291 0.9808 0.0471 0.1929 0.0471 -0.1929"/>
</g>
<g transform="translate(75.6707, 45.4235)">
<path transform="scale(0.0040, -0.0040)" d="M-8 78c0 59 125 83 125 182c0 25 -9 49 -26 69l-33 40c-3 4 -4 7 -4 11c0 9 9 17 18 17c4 0 8 -2 12 -6l150 -179c7 -9 11 -18 11 -26c0 -59 -125 -83 -125 -182c0 -25 8 -49 25 -69l82 -97c3 -4 4 -7 4 -11c0 -9 -8 -17 -17 -17c-10 0 -42 42 -106 42
c-19 0 -54 -1 -54 -66c0 -34 10 -73 27 -93c7 -9 -5 -20 -12 -11c-45 53 -93 147 -93 201c0 42 27 42 43 42c31 0 74 -11 113 -27l-129 154c-7 9 -11 18 -11 26z" fill="currentColor"/>
</g>
<g transform="translate(14.4706, 46.9235)">
<path transform="scale(0.0040, -0.0040)" d="M215 137c67 0 111 -37 111 -92c0 -90 -111 -182 -215 -182c-67 0 -111 37 -111 92c0 90 111 182 215 182z" fill="currentColor"/>
</g>
<g transform="translate(13.5153, 50.9235)">
<text font-family="Source Sans Pro" font-size="2.4690" text-anchor="start" fill="currentColor">
<tspan>daj</tspan>
</text>
</g>
<g transform="translate(15.7372, 45.4235)">
<rect x="-0.0363" y="-2.0000" width="0.0725" height="3.3206" ry="0.0363" fill="currentColor"/>
</g>
<g transform="translate(22.0266, 45.9235)">
<path transform="scale(0.0040, -0.0040)" d="M215 137c67 0 111 -37 111 -92c0 -90 -111 -182 -215 -182c-67 0 -111 37 -111 92c0 90 111 182 215 182z" fill="currentColor"/>
</g>
<g transform="translate(21.7742, 50.9235)">
<text font-family="Source Sans Pro" font-size="2.4690" text-anchor="start" fill="currentColor">
<tspan>éj</tspan>
</text>
</g>
<g transform="translate(23.2931, 45.4235)">
<rect x="-0.0363" y="-3.0000" width="0.0725" height="3.3206" ry="0.0363" fill="currentColor"/>
</g>
<g transform="translate(23.3294, 42.4706)">
<path transform="scale(0.0040, -0.0040)" d="M0 0c0 -197 207 -335 207 -532c0 -71 -15 -141 -41 -207c-5 -8 -13 -12 -21 -12c-14 0 -27 11 -24 28c26 60 42 125 42 191c0 103 -93 207 -163 282h-18v250h18z" fill="currentColor"/>
</g>
<g transform="translate(25.6759, 45.9235)">
<path transform="scale(0.0040, -0.0040)" d="M215 137c67 0 111 -37 111 -92c0 -90 -111 -182 -215 -182c-67 0 -111 37 -111 92c0 90 111 182 215 182z" fill="currentColor"/>
</g>
<g transform="translate(69.3854, 42.0662)">
<g>
<path transform="scale(0.0025, -0.0025)" d="M94 66c-60 0 -39 -66 -72 -66c-11 0 -22 7 -22 21c0 154 232 162 232 334c0 50 -17 102 -61 102c-33 0 -66 -14 -66 -44c0 -24 31 -37 31 -61c0 -34 -27 -61 -61 -61s-61 27 -61 61c0 84 72 148 157 148c98 0 190 -55 190 -145c0 -140 -131 -154 -225 -205
c85 -2 113 -61 165 -61c45 0 28 41 57 41c11 0 22 -8 22 -21c0 -29 -48 -109 -144 -109c-92 0 -96 66 -142 66z" fill="currentColor"/>

<path transform="translate(1.0042, 0.0000) scale(0.0025, -0.0025)" d="M0 51c0 28 23 51 51 51s51 -23 51 -51s-23 -51 -51 -51s-51 23 -51 51z" fill="currentColor"/>
</g>
</g>
<g transform="translate(67.3476, 40.3064)">
<line stroke-linejoin="round" stroke-linecap="round" stroke-width="0.1786" stroke="currentColor" x1="14.9088" y1="-0.0000" x2="14.9088" y2="2.0000"/>
</g>
<g transform="translate(67.3476, 40.3064)">
<line stroke-linejoin="round" stroke-linecap="round" stroke-width="0.1786" stroke="currentColor" x1="1.1271" y1="-0.0000" x2="1.1271" y2="2.0000"/>
</g>
<g transform="translate(67.3476, 40.3064)">
<line stroke-linejoin="round" stroke-linecap="round" stroke-width="0.1786" stroke="currentColor" x1="1.1271" y1="-0.0000" x2="14.9088" y2="-0.0000"/>
</g>
<g transform="translate(0.8000, 46.4235)">
<path transform="scale(0.0040, -0.0040)" d="M646 2c0 -113 -74 -213 -180 -247c3 -34 5 -68 5 -102c0 -20 -1 -40 -2 -60c-7 -121 -91 -228 -209 -228c-108 0 -196 87 -196 196c0 58 53 104 112 104c54 0 95 -48 95 -104c0 -52 -43 -95 -95 -95c-10 0 -20 2 -29 6c26 -38 68 -63 116 -63h3c93 2 153 92 159 190
c1 19 2 37 2 56c0 30 -2 60 -4 90c-5 -1 -43 -8 -88 -8c-194 0 -333 180 -333 375c0 177 130 307 246 442c-31 98 -53 170 -53 347c0 115 55 223 148 290c7 5 16 4 22 -1c68 -80 134 -243 134 -357c0 -143 -85 -255 -178 -364c21 -68 40 -137 57 -206c1 0 5 1 11 1
c156 0 257 -129 257 -262zM462 -202c66 24 111 88 111 162c0 89 -65 178 -170 190c28 -135 50 -272 59 -352zM75 26c0 -145 141 -245 263 -245c1 0 46 0 81 6c-7 65 -27 206 -61 363c-79 -8 -124 -61 -124 -119c0 -43 25 -89 80 -121c5 -5 7 -11 7 -16
c0 -12 -10 -23 -22 -23c-16 0 -127 63 -127 188c0 89 58 175 161 198c-14 58 -29 116 -46 173c-106 -122 -212 -244 -212 -404zM406 1042c-99 -47 -162 -148 -162 -257c0 -49 13 -111 38 -191c79 97 144 199 144 324c0 33 0 63 -20 124z" fill="currentColor"/>
</g>
<g transform="translate(4.4297, 45.4235)">
<path transform="scale(0.0040, -0.0040)" d="M29 39l-2 -64v-11c0 -22 2 -43 5 -65c44 38 91 80 91 138c0 33 -13 66 -42 66c-31 0 -51 -31 -52 -64zM-28 454c9 5 18 8 28 8s19 -3 28 -8l-7 -343c25 23 58 36 92 36c51 0 87 -49 87 -103c0 -79 -84 -117 -144 -169c-16 -14 -25 -41 -47 -41c-14 0 -25 13 -25 27z" fill="currentColor"/>
</g>
<g transform="translate(5.3593, 43.9235)">
<path transform="scale(0.0040, -0.0040)" d="M29 39l-2 -64v-11c0 -22 2 -43 5 -65c44 38 91 80 91 138c0 33 -13 66 -42 66c-31 0 -51 -31 -52 -64zM-28 454c9 5 18 8 28 8s19 -3 28 -8l-7 -343c25 23 58 36 92 36c51 0 87 -49 87 -103c0 -79 -84 -117 -144 -169c-16 -14 -25 -41 -47 -41c-14 0 -25 13 -25 27z" fill="currentColor"/>
</g>
<g transform="translate(44.9212, 45.4235)">
<rect x="-0.0363" y="-2.0021" width="0.0725" height="2.8228" ry="0.0363" fill="currentColor"/>
</g>
<g transform="translate(8.6593, 46.9235)">
<path transform="scale(0.0040, -0.0040)" d="M215 137c67 0 111 -37 111 -92c0 -90 -111 -182 -215 -182c-67 0 -111 37 -111 92c0 90 111 182 215 182z" fill="currentColor"/>
</g>
<g transform="translate(7.4027, 50.9235)">
<text font-family="Source Sans Pro" font-size="2.4690" text-anchor="start" fill="currentColor">
<tspan>daj,</tspan>
</text>
</g>
<g transform="translate(9.9258, 45.4235)">
<rect x="-0.0363" y="-2.0000" width="0.0725" height="3.3206" ry="0.0363" fill="currentColor"/>
</g>
<g transform="translate(36.3915, 50.9235)">
<text font-family="Source Sans Pro" font-size="2.4690" text-anchor="start" fill="currentColor">
<tspan>ej</tspan>
</text>
</g>
<g transform="translate(37.9105, 45.4235)">
<rect x="-0.0363" y="-2.7817" width="0.0725" height="3.1024" ry="0.0363" fill="currentColor"/>
</g>
<g transform="translate(26.9424, 45.4235)">
<rect x="-0.0363" y="-3.0000" width="0.0725" height="3.3206" ry="0.0363" fill="currentColor"/>
</g>
<g transform="translate(39.9510, 46.9235)">
<path transform="scale(0.0040, -0.0040)" d="M215 137c67 0 111 -37 111 -92c0 -90 -111 -182 -215 -182c-67 0 -111 37 -111 92c0 90 111 182 215 182z" fill="currentColor"/>
</g>
<g transform="translate(38.9555, 50.9235)">
<text font-family="Source Sans Pro" font-size="2.4690" text-anchor="start" fill="currentColor">
<tspan>nu,</tspan>
</text>
</g>
<g transform="translate(41.2175, 45.4235)">
<rect x="-0.0363" y="-2.2183" width="0.0725" height="3.5389" ry="0.0363" fill="currentColor"/>
</g>
<g transform="translate(43.6547, 46.4235)">
<path transform="scale(0.0040, -0.0040)" d="M215 137c67 0 111 -37 111 -92c0 -90 -111 -182 -215 -182c-67 0 -111 37 -111 92c0 90 111 182 215 182z" fill="currentColor"/>
</g>
<g transform="translate(42.6993, 50.9235)">
<text font-family="Source Sans Pro" font-size="2.4690" text-anchor="start" fill="currentColor">
<tspan>daj</tspan>
</text>
</g>
<g transform="translate(30.5319, 50.9235)">
<text font-family="Source Sans Pro" font-size="2.4690" text-anchor="start" fill="currentColor">
<tspan>daj</tspan>
</text>
</g>
<g transform="translate(24.6804, 50.9235)">
<text font-family="Source Sans Pro" font-size="2.4690" text-anchor="start" fill="currentColor">
<tspan>nu,</tspan>
</text>
</g>
<g transform="translate(31.4872, 45.9235)">
<path transform="scale(0.0040, -0.0040)" d="M215 137c67 0 111 -37 111 -92c0 -90 -111 -182 -215 -182c-67 0 -111 37 -111 92c0 90 111 182 215 182z" fill="currentColor"/>
</g>
<g transform="translate(32.7538, 45.4235)">
<rect x="-0.0363" y="-3.0000" width="0.0725" height="3.3206" ry="0.0363" fill="currentColor"/>
</g>
<g transform="translate(32.7900, 42.4706)">
<path transform="scale(0.0040, -0.0040)" d="M0 0c0 -197 207 -335 207 -532c0 -71 -15 -141 -41 -207c-5 -8 -13 -12 -21 -12c-14 0 -27 11 -24 28c26 60 42 125 42 191c0 103 -93 207 -163 282h-18v250h18z" fill="currentColor"/>
</g>
<g transform="translate(36.6439, 45.9235)">
<path transform="scale(0.0040, -0.0040)" d="M215 137c67 0 111 -37 111 -92c0 -90 -111 -182 -215 -182c-67 0 -111 37 -111 92c0 90 111 182 215 182z" fill="currentColor"/>
</g>
</svg>
