<?xml version="1.0" encoding="UTF-8" standalone="no"?>
<!-- Created with Inkscape (http://www.inkscape.org/) -->

<svg
   xmlns:dc="http://purl.org/dc/elements/1.1/"
   xmlns:cc="http://creativecommons.org/ns#"
   xmlns:rdf="http://www.w3.org/1999/02/22-rdf-syntax-ns#"
   xmlns:svg="http://www.w3.org/2000/svg"
   xmlns="http://www.w3.org/2000/svg"
   xmlns:sodipodi="http://sodipodi.sourceforge.net/DTD/sodipodi-0.dtd"
   xmlns:inkscape="http://www.inkscape.org/namespaces/inkscape"
   width="417.84717mm"
   height="575.51123mm"
   viewBox="0 0 1480.5608 2039.213"
   id="svg2"
   version="1.1"
   inkscape:version="0.91 r13725"
   sodipodi:docname="black_star_4.svg">
  <defs
     id="defs4" />
  <sodipodi:namedview
     id="base"
     pagecolor="#ffffff"
     bordercolor="#666666"
     borderopacity="1.0"
     inkscape:pageopacity="0.0"
     inkscape:pageshadow="2"
     inkscape:zoom="1.1253846"
     inkscape:cx="756.95508"
     inkscape:cy="1312.7048"
     inkscape:document-units="px"
     inkscape:current-layer="layer1"
     showgrid="false"
     fit-margin-top="0"
     fit-margin-left="0"
     fit-margin-right="0"
     fit-margin-bottom="0"
     inkscape:window-width="1920"
     inkscape:window-height="1031"
     inkscape:window-x="0"
     inkscape:window-y="0"
     inkscape:window-maximized="1" />
  <metadata
     id="metadata7">
    <rdf:RDF>
      <cc:Work
         rdf:about="">
        <dc:format>image/svg+xml</dc:format>
        <dc:type
           rdf:resource="http://purl.org/dc/dcmitype/StillImage" />
        <dc:title></dc:title>
      </cc:Work>
    </rdf:RDF>
  </metadata>
  <g
     inkscape:label="Vrstva 1"
     inkscape:groupmode="layer"
     id="layer1"
     transform="translate(539.23464,-344.71927)">
    <path
       style="fill:#000000"
       d="M 135.51681,1879.3414 C 99.782746,1601.8164 70.273816,1374.3083 69.941406,1373.768 c -0.3361,-0.5464 -74.8003897,36.116 -167.75118,82.5921 l -167.146776,83.5746 85.51482,-171.0274 c 56.68635,-113.3711 85.088826,-171.1777 84.251166,-171.4736 -0.69501,-0.2454 -100.488646,-25.215 -221.763646,-55.488 -121.275,-30.273 -221.29628,-55.3729 -222.26952,-55.7776 -1.11209,-0.4624 82.85401,-21.8718 226,-57.6247 125.27324,-31.28895 228.137186,-57.21662 228.586556,-57.61708 0.44937,-0.40047 -39.738296,-81.83779 -89.305926,-180.97183 -49.56763,-99.13404 -89.92262,-180.44404 -89.67777,-180.6889 0.24486,-0.24485 79.75485,39.21015 176.688876,87.67779 96.93403,48.46764 176.57136,87.75531 176.97185,87.30593 0.40049,-0.44937 25.422834,-99.68737 55.605204,-220.52888 30.18237,-120.84152 55.15353,-219.39152 55.49146,-219 0.33793,0.39151 25.2805,99.26184 55.42793,219.71184 30.14744,120.45 55.12895,219.36767 55.51447,219.81704 0.38553,0.44938 80.01062,-38.83829 176.94467,-87.30593 96.934,-48.46764 176.444,-87.92264 176.6889,-87.67779 0.2448,0.24486 -40.1102,81.55486 -89.6778,180.6889 -49.5676,99.13404 -89.7553,180.57136 -89.3059,180.97183 0.4493,0.40046 103.3133,26.32813 228.5865,57.61708 143.14603,35.7529 227.11213,57.1623 226.00003,57.6247 -0.9732,0.4047 -100.9945,25.5046 -222.26953,55.7776 -121.275,30.273 -221.0686,55.2426 -221.7637,55.488 -0.8376,0.2959 27.5649,58.1025 84.2512,171.4736 l 85.5148,171.0274 -167.1467,-83.5746 c -93.0217,-46.5115 -167.41486,-83.1386 -167.75122,-82.5914 -0.33241,0.5407 -29.84742,228.0488 -65.5889,505.5734 -35.74149,277.5246 -65.22953,504.5902 -65.52898,504.5902 -0.29945,0 -29.78141,-227.0659 -65.51548,-504.5909 z"
       id="path4147"
       inkscape:connector-curvature="0" />
  </g>
</svg>
