<?xml version="1.0" encoding="UTF-8"?>
<svg version="1.1" xmlns="http://www.w3.org/2000/svg" xmlns:xlink="http://www.w3.org/1999/xlink" x="0px" y="0px" viewBox="0 0 349.11215 431.85855" xml:space="preserve">
<style type="text/css">
	.st5{fill:#8c2318;}
</style>
<g id="Vrstva_4" transform="translate(-12.286351,-5.5)">
	<g>
		<g>
			<path class="st5" d="M194.6,411.5l-21.2-54.1c-0.7-1.9-0.2-4,1.3-5.4l22.2-17.7c2-0.9-0.1,1,1.6,3l0,0c1.8,2,1.6,5-0.4,6.8     l-12,10.7c-1.5,1.3-2,3.5-1.3,5.4l30.1,77C216,439.6,195.6,414,194.6,411.5z"/>
		</g>
		<g>
			<path class="st5" d="M72.7,254.7c0,0-15.4-23-18.7-32.4c-5-14.2-2.4-43.7,2.2-57.9c7.7-23.8,41.5-61.5,50.5-84.3     C113.3,63.6,137,5.5,137,5.5s4.1,59.9,7.3,80.8c2.5,16.6-5.9,66.4-5.9,66.4l27.1-2.7c0,0,25.9-21.4,32.9-30.1     c16.1-19.6,69.4-84.1,69.4-84.1s-4.3,80.9-11.8,96.7c-5.7,12-24.4,46-24.4,46c-0.9,1.7-3.1,2.3-4.8,1.3l-5.4-3     c0,0,25.9-36.9,28.9-51.3c3.2-15.5,10.1-71.6,10.1-71.6s-45.3,56.8-57,71.1c-7.8,9.5-33.9,34.3-33.9,34.3l-42.1,4.3     c0,0,11.2-57,8.6-75.9c-2-14-3.4-57.5-3.4-57.5s-17.4,44.5-21.1,53.5c-9.4,23-41.6,59.9-50,83.3c-4.6,12.7-5.9,40.4-2,53.3     c2.6,8.4,17.7,29.4,17.7,29.4L72.7,254.7z"/>
		</g>
		<g>
			<path class="st5" d="M195.4,339.4l0-1.8c0-2.1,1.6-3.9,3.8-4l107.1-4c1,0,2-0.5,2.7-1.2l40.8-42.8c0.9-1,1.3-2.3,1-3.6l-2.6-11.2     c-0.3-1.2-1-2.1-2.1-2.7c0,0-98.3-47.3-103.4-53.9c-3.9-5.2-5.1-18.4-8.6-23.1c-5-6.7-26.2-20.7-26.2-20.7     c-1.5-1.2-1.9-3.3-1-4.9l0,0c1.1-2.1,3.8-2.7,5.7-1.3c0,0,23.7,16.5,29.1,23.9c2.6,3.5,3.7,17.4,7.8,21.3     c8.5,7.9,104.9,52.1,104.9,52.1c1.1,0.5,1.9,1.5,2.1,2.7l4.8,20.7c0.3,1.3-0.1,2.6-1,3.6l-47.2,49.5c-0.7,0.7-1.7,1.2-2.7,1.2     l-111,4.1C197.2,343.3,195.4,341.6,195.4,339.4z"/>
		</g>
		<g>
			<path class="st5" d="M12.3,376.7c0,0,9.4-65,16.3-85.7c5-15,31.4-61.1,31.4-61.1c1.2-2.4,0.6,2.3,3,3.4v3     c2.4,1.2,3.9,2.3,2.8,4.7l-24.6,46c-2.2,4.7-3.9,9.6-4.8,14.7l-10.7,44.1C25.2,348.5,11.8,379.3,12.3,376.7z"/>
		</g>
		<g>
			<path class="st5" d="M145.6,196.4l-5.1-3.4l39.5,3.8l26.4,8.2c0,0-7.8,4.6-10.6,3.6c0,0-6.5-2.5-10.6-3.8c-3.6-1.1-7.4-2-9.5-2.3     C170,201.7,146.6,197.6,145.6,196.4z"/>
		</g>
		<g>
			<path class="st5" d="M91.9,194.8c0,0,17-5.6,21.4-9.3c6.4-5.4,14.2-22,14.2-22l3.7-1.1c0,0-9.8,19.5-16.5,25.1     c-4.2,3.6-19.7,9.3-19.7,9.3"/>
		</g>
		<g>
			<path class="st5" d="M203.6,168l-35.6-9c-1.6-0.4,0.9-1.2,2-2.3l0.9-0.9c0.5-0.5,2.2-1.2,2.9-1.1l32.1,6.5     c1.4,0.2,8.5,3.4,7.8,4.7l-4.8,4.6C208.5,171.3,204.6,168.2,203.6,168z"/>
		</g>
		<g>
			<path class="st5" d="M67.5,342.1l-11.5-51c-1.1-4.9-0.3-9.9,2.2-14.2l13.4-23.5L76,251l-15.3,27.7c-1.9,3.4-2.5,7.4-1.6,11.2     l8.5,38.6C67.7,329.3,67.7,343,67.5,342.1z"/>
		</g>
		
		<g>
			<path class="st5" d="M182.7,225.5l-11.9-6l-9.2-10.5l19.1-0.9l16.2,10.1L182.7,225.5z M172,216.9l10,4.8l10.1-3.9l-12.1-7.6     l-13.7,0.2L172,216.9z"/>
		</g>
		<g>
			<polygon class="st5" points="265.1,336.9 138.8,312.7 104.2,256.5 71.7,250.2 72,248.6 105.2,255.1 105.4,255.4 139.8,311.3      265.4,335.3    "/>
		</g>
		<g>
			<path class="st5" d="M146.7,153.4l-0.5-0.6c0,0,44.4-32.3,45.7-33.7c1.8-1.9,52.5-51.1,52.5-51.1l0.6,0.5c0,0-47,46.2-52.6,51.2     C185.1,126.3,146.7,153.4,146.7,153.4z"/>
		</g>
		<g>
			<path class="st5" d="M92.9,195.5l-0.5-0.3c-0.3-0.2-0.5-0.3-0.5-0.3c0,0,7.4-29,12-37.6c1.6-2.9,11.6-11.7,15.1-16     c1.8-2.2,21-53,21-53c0.2-0.4,0.6-0.6,1-0.5l0,0c0.4,0.2,0.6,0.6,0.5,1c0,0-19.6,51-21.3,52.9c-3.6,4.1-13.1,13.4-14.9,16.4     c-4.9,8.3-11.2,37-11.2,37C93.9,195.6,93.3,195.8,92.9,195.5z"/>
		</g>
		<path class="st5" d="M332.9,305.7c0,0-27.2,5.5-50.5,6.1c-12.9,0.3-39.2-14.5-53.7-15.6c-13.6-1-21.1-2.3-24.1-1.2    c-5.5,2.1-0.9,14.2,5.7,14.2c7.1-0.1,14.3-3.2,23.6-2.9c11.8,0.4,28.9,9.7,49,10.7C291.5,317.3,329.3,308.9,332.9,305.7z"/>
		
		
		<g>
			<path class="st5" d="M310.2,295.2l-7.3-16.9l2.9-1.3l7.4,17.2c1,2.2,3.3,3.5,5.7,3.2l24.3-3.3l0.4,3.2l-24,3.2     C315.7,301.1,311.8,298.9,310.2,295.2z"/>
		</g>
		<g>
			<polyline class="st5" points="206.2,256.6 303.3,277.4 303,278.3 205.7,256.9 205.7,256.8    "/>
		</g>
		<polygon class="st5" points="341.8,285.7 333.2,276.2 312.6,280.5 316.5,282.3 331.7,280.4 337.2,284.8   "/>
		<polygon class="st5" points="306.2,277.9 334.7,260.5 331.4,259.3 302.9,276.5 302.9,278.3   "/>
	</g>
</g>
</svg>