<?xml version="1.0" encoding="UTF-8"?>
<svg width="1015.8mm" height="769.27mm" version="1.1" viewBox="0 0 1015.8 769.27" xmlns="http://www.w3.org/2000/svg" xmlns:cc="http://creativecommons.org/ns#" xmlns:dc="http://purl.org/dc/elements/1.1/" xmlns:rdf="http://www.w3.org/1999/02/22-rdf-syntax-ns#">
 <metadata>
  <rdf:RDF>
   <cc:Work rdf:about="">
    <dc:format>image/svg+xml</dc:format>
    <dc:type rdf:resource="http://purl.org/dc/dcmitype/StillImage"/>
    <dc:title/>
   </cc:Work>
  </rdf:RDF>
 </metadata>
 <g transform="translate(300.78 24.397)" fill="#939597">
  <path transform="matrix(.26458 0 0 .26458 -300.78 -24.397)" d="m3444.9 0.36719-394.51 394.51h307.5v390.5l0.014 390.5h175v-781h306.5zm-87.004 1731.5v781h-307.5l197 197c108.35 108.35 197.22 197 197.5 197 0.2759 0 89.152-88.648 197.5-197l197-197h-306.5v-781z"/>
  <path d="m-300.78-24.397v85.424h0.0775c-0.0806 44.195-0.0968 137.35-0.0568 301.1 0.0433 177.51 0.0693 259.76 0.16433 298.3h-0.185v85.424h60.495v-1.1048c30.412 0.09 165.67 0.14597 325.89 0.1292 172.93-0.0181 255.04-0.0331 294.68-0.11732v1.093h88.006v-242.17h-7e-3c-5e-3 -40.865-0.0115-83.786-0.0269-144.98l-0.0357-140.92h0.0698v-242.17h-88.007v0.19587c-39.555-0.0902-121.38-0.11824-293.49-0.1633-57.888-0.01521-107.44-0.02283-149.25-0.02275-105.76 1.59e-4 -161.49 0.05062-177.84 0.15608v-0.16589zm384.46 87.325c4.8955 7.94e-4 9.8379 0.56309 14.744 1.7012 22.089 5.124 40.297 22.42 46.173 43.861 5.411 19.744 0.92183 40.278-12.242 56.003-9.544 11.4-23.126 19.125-38.149 21.696-2.5525 0.4368-4.6943 0.58539-9.3912 0.65268-6.3594 0.091-8.1813-0.0421-12.918-0.94258-24.204-4.604-43.653-22.854-49.393-46.348-1.3117-5.3687-1.6816-8.5462-1.6898-14.498-0.01349-9.838 1.7472-17.693 5.9015-26.326 3.1196-6.4838 6.3847-11.191 11.246-16.216 3.7178-3.8424 6.375-6.085 10.475-8.8423 10.527-7.0801 22.733-10.744 35.244-10.742zm80.51 155.79 0.92604 1.3772c2.727 4.057 11.375 15.324 37.016 48.232 55.91 71.754 65.504 84.233 80.349 104.51 9.353 12.775 18.477 26.102 20.995 30.662l1.0914 1.9771-0.43098 2.7306c-1.0645 6.745-3.659 12.135-7.5266 15.635-6.732 6.0922-17.723 6.0438-31.879-0.14054l-3.175-1.387-7.0497-9.3927c-3.878-5.1661-16.677-22.269-28.443-38.008-11.767-15.739-29.431-39.365-39.253-52.503l-17.859-23.887-0.0661 180.36-0.0667 180.36h-51.064v-197.64h-67.733l-0.06668 98.756-0.06974 98.766-51.196 0.13486-0.06615-180.31-0.06668-180.31-25.135 33.619c-13.824 18.49-34.633 46.316-46.242 61.837l-21.107 28.217-2.5735 1.1446c-3.3014 1.4676-9.6586 3.6069-12.303 4.1403-12.08 2.4371-20.232-0.82182-24.798-9.911-1.622-3.2294-3.1829-8.937-3.1729-11.605 5e-3 -1.351 1.3173-3.6043 7.2559-12.46 12.918-19.263 29.239-40.945 74.993-99.628 43.265-55.49 51.373-65.977 55.694-72.031l2.312-3.2391z" stroke-width=".26458"/>
 </g>
</svg>
