<?xml version="1.0" encoding="UTF-8" standalone="no"?>
<svg
   xmlns:dc="http://purl.org/dc/elements/1.1/"
   xmlns:cc="http://creativecommons.org/ns#"
   xmlns:rdf="http://www.w3.org/1999/02/22-rdf-syntax-ns#"
   xmlns:svg="http://www.w3.org/2000/svg"
   xmlns="http://www.w3.org/2000/svg"
   xmlns:sodipodi="http://sodipodi.sourceforge.net/DTD/sodipodi-0.dtd"
   xmlns:inkscape="http://www.inkscape.org/namespaces/inkscape"
   version="1.1"
   x="0px"
   y="0px"
   viewBox="0 0 979.99176 980.00262"
   enable-background="new 0 0 1000 1000"
   xml:space="preserve"
   id="svg18"
   sodipodi:docname="vytah.svg"
   width="979.99176"
   height="980.00262"
   inkscape:version="1.0.2 (e86c870879, 2021-01-15)"><defs
   id="defs22" /><sodipodi:namedview
   pagecolor="#ffffff"
   bordercolor="#666666"
   borderopacity="1"
   objecttolerance="10"
   gridtolerance="10"
   guidetolerance="10"
   inkscape:pageopacity="0"
   inkscape:pageshadow="2"
   inkscape:window-width="1920"
   inkscape:window-height="1023"
   id="namedview20"
   showgrid="false"
   fit-margin-top="0"
   fit-margin-left="0"
   fit-margin-right="0"
   fit-margin-bottom="0"
   inkscape:zoom="0.715"
   inkscape:cx="346.6451"
   inkscape:cy="489.9926"
   inkscape:window-x="0"
   inkscape:window-y="0"
   inkscape:window-maximized="1"
   inkscape:current-layer="g16" />
<metadata
   id="metadata2"> Svg Vector Icons : http://www.onlinewebfonts.com/icon <rdf:RDF><cc:Work
     rdf:about=""><dc:format>image/svg+xml</dc:format><dc:type
       rdf:resource="http://purl.org/dc/dcmitype/StillImage" /><dc:title></dc:title></cc:Work></rdf:RDF></metadata>
<g
   id="g16"
   transform="translate(-9.9982563,-10.007403)"><g
     transform="matrix(0.1,0,0,-0.1,0,511)"
     id="g14"
     style="fill:#939597;fill-opacity:1"><path
       d="M 722.1,4988.5 C 602,4957.8 382.2,4830 313.2,4748.2 c -35.8,-43.4 -94.6,-135.5 -132.9,-207 l -69,-130.4 -7.7,-4255.4 c -7.7,-4741 -20.5,-4390.9 168.7,-4638.8 61.4,-81.8 150.8,-155.9 260.7,-214.7 l 166.1,-92 h 4306.5 4306.5 l 161,86.9 c 178.9,97.1 255.6,176.3 357.8,370.6 l 69,130.3 V 104.3 4410.8 l -92,166.1 c -58.8,107.3 -132.9,199.3 -212.1,258.1 -250.5,189.1 99.7,176.3 -4587.7,173.8 -2312.9,-2.4 -4242.5,-10.1 -4286,-20.3 z M 8890.5,104.3 V -3780.6 H 5005.6 1120.8 V 104.3 3989.1 H 5005.6 8890.4 V 104.3 Z"
       id="path4"
       style="fill:#939597;fill-opacity:1" /><path
       d="m 3165.5,3250.5 c -186.6,-58.8 -373.1,-224.9 -447.3,-401.3 -46,-112.5 -51.1,-334.8 -7.7,-480.5 46,-155.9 258.1,-357.8 429.4,-408.9 168.7,-51.1 237.7,-51.1 398.7,-2.6 380.8,112.5 577.6,559.7 408.9,922.6 -132.9,283.8 -495.8,457.6 -782,370.7 z"
       id="path6"
       style="fill:#939597;fill-opacity:1" /><path
       d="m 6058.6,2703.6 c -311.8,-311.8 -567.4,-587.8 -567.4,-610.8 0,-63.9 53.7,-71.6 437.1,-71.6 h 355.2 V 1418 c 0,-564.8 2.6,-610.8 53.7,-700.3 69,-122.7 168.7,-178.9 311.8,-178.9 89.5,0 135.5,15.3 199.3,69 140.6,120.1 150.8,176.3 150.8,825.5 v 587.8 h 355.3 c 385.9,0 437,7.7 437,74.1 0,35.8 -1114.3,1178.2 -1150.1,1178.2 -7.6,0.1 -268.3,-255.5 -582.7,-569.8 z"
       id="path8"
       style="fill:#939597;fill-opacity:1" /><path
       d="M 3132.2,1561.1 C 2797.4,1476.8 2541.8,1200.7 2475.3,848 2460,768.8 2449.7,283.2 2449.7,-281.7 v -994.2 h 242.8 242.8 v -840.8 c 0,-1030 -25.6,-955.9 357.8,-968.7 304.1,-12.8 393.6,15.3 431.9,127.8 17.9,51.1 28.1,380.8 28.1,879.2 v 802.5 h 230 232.6 l -7.7,1119.4 -7.7,1116.9 -69,127.8 c -148.2,286.3 -424.3,467.7 -731,485.6 -94.3,5.2 -214.4,0.1 -268.1,-12.7 z"
       id="path10"
       style="fill:#939597;fill-opacity:1" /><path
       d="m 6551.9,-271.4 c -89.5,-23 -196.8,-115 -232.6,-201.9 -28.1,-63.9 -35.8,-232.6 -35.8,-685 v -600.6 l -388.5,-7.7 c -357.8,-7.7 -391,-12.8 -398.7,-56.2 -7.7,-33.3 155.9,-212.2 567.4,-626.2 l 577.6,-577.6 577.6,577.6 c 411.5,414 575,592.9 567.4,626.2 -7.7,43.4 -40.9,48.5 -396.2,56.2 l -388.5,7.7 -7.7,631.3 c -7.7,605.7 -10.2,633.9 -63.9,710.5 -33.2,46 -104.8,99.7 -161,122.7 -104.6,40.9 -127.7,43.5 -217.1,23 z"
       id="path12"
       style="fill:#939597;fill-opacity:1" /></g></g>
</svg>
