<svg xmlns="http://www.w3.org/2000/svg" xml:space="preserve" viewBox="0 0 172.906 228.829"><path d="M119.028 250.63c-.715-1.486-1.481-2.473-3.44-4.43-2.117-2.118-2.94-2.735-5.164-3.878-5.231-2.689-10.172-3.912-17.462-4.325-8.04-.455-10.143-.71-13.097-1.59-5.544-1.651-10.335-4.552-15.046-9.112-4.756-4.603-7.142-7.936-11.272-15.74-1.196-2.262-3.999-7.565-6.227-11.785-2.229-4.22-4.085-7.714-4.124-7.765-.04-.051-2.19 1.52-4.778 3.492-2.589 1.971-4.745 3.546-4.792 3.499-.086-.086 1.203-11.947 2.475-22.774.377-3.201.786-5.927.91-6.058.265-.276.561-.153 10.31 4.258 14.014 6.34 16.669 7.575 16.669 7.753 0 .098-2.411.865-5.358 1.704-2.947.839-5.536 1.624-5.755 1.745-.304.169 1.107 1.703 6.086 6.613 15.68 15.464 21.72 18.828 31.882 17.754 5.089-.538 10.202-2.144 12.212-3.834 1.016-.856 2.102-2.879 2.59-4.827.584-2.333 1.941-13.881 2.25-19.155.797-13.56 2.13-65.245 2.13-82.577v-7.303l-20.884-.137c-19.827-.13-20.928-.162-21.735-.634-.467-.274-1.1-.834-1.406-1.245-.527-.707-.557-1.063-.557-6.614 0-5.72.016-5.89.616-6.732 1.24-1.737.023-1.65 23.052-1.656l20.914-.006V58.924l-1.267-.93c-6.43-4.72-9.38-13.205-7.142-20.546 1.49-4.887 5.072-9.312 9.366-11.57 5.907-3.106 13.2-2.87 18.797.61 3.947 2.454 7.25 6.946 8.451 11.49.62 2.345.63 6.97.019 9.26-.64 2.397-2.327 5.68-3.816 7.424-1.082 1.267-1.84 1.973-4.04 3.759-.35.283-.384 1.397-.265 8.528l.138 8.202 21.178.133c23.75.148 22.057-.007 23.136 2.11.48.94.533 1.555.533 6.224 0 4.634-.055 5.288-.522 6.203-.287.563-.819 1.257-1.182 1.542-.641.505-1.288.523-21.963.637-11.716.065-21.354.17-21.417.234-.182.182.925 55.345 1.433 71.42.621 19.642 1.79 33.306 3.297 38.513 1.279 4.42 4.764 6.31 14.16 7.675 8.278 1.203 14.41-1.32 24.21-9.96 3.162-2.788 14.155-13.835 14.155-14.225 0-.132-2.411-.915-5.358-1.74-2.947-.826-5.526-1.559-5.73-1.63-.436-.149 1.001-.856 10.69-5.26 12.823-5.827 15.444-6.992 15.919-7.074.506-.087.624.759 2.715 19.366.45 4.002.883 7.782.964 8.4.08.619.043 1.125-.084 1.125-.126 0-2.241-1.549-4.7-3.442-3.539-2.725-4.535-3.373-4.784-3.11-.395.422-2.625 4.54-7.914 14.622-5.14 9.796-5.743 10.836-8.155 14.074-6.215 8.342-13.535 13.563-22.02 15.706-2.564.648-3.862.799-8.784 1.023-6.39.291-8.479.547-12.322 1.507-8.234 2.057-14.07 6.095-16.664 11.53-.465.974-.905 1.774-.977 1.779-.073.005-.547-.852-1.053-1.904zm4.56-199.756c1.896-.868 3.598-2.568 4.584-4.577 1.45-2.953.894-6.953-1.332-9.585-2.546-3.01-6.99-4.03-10.661-2.444-1.816.784-4.256 3.363-4.896 5.174-.6 1.698-.61 4.76-.02 6.269 1.007 2.578 3.343 4.799 5.933 5.642 1.746.568 4.567.356 6.392-.48z" style="fill:#f2c45a;fill-opacity:1" transform="translate(-33.622 -23.704)"/></svg>