<?xml version="1.0" encoding="UTF-8" standalone="no"?>
<!-- Created with Inkscape (http://www.inkscape.org/) -->

<svg
   xmlns:dc="http://purl.org/dc/elements/1.1/"
   xmlns:cc="http://creativecommons.org/ns#"
   xmlns:rdf="http://www.w3.org/1999/02/22-rdf-syntax-ns#"
   xmlns:svg="http://www.w3.org/2000/svg"
   xmlns="http://www.w3.org/2000/svg"
   xmlns:sodipodi="http://sodipodi.sourceforge.net/DTD/sodipodi-0.dtd"
   xmlns:inkscape="http://www.inkscape.org/namespaces/inkscape"
   width="160.59543mm"
   height="748.36603mm"
   viewBox="0 0 160.59543 748.36603"
   version="1.1"
   id="svg8"
   inkscape:version="0.92.2 5c3e80d, 2017-08-06"
   sodipodi:docname="mec2.svg">
  <defs
     id="defs2" />
  <sodipodi:namedview
     id="base"
     pagecolor="#ffffff"
     bordercolor="#666666"
     borderopacity="1.0"
     inkscape:pageopacity="0.0"
     inkscape:pageshadow="2"
     inkscape:zoom="0.35355339"
     inkscape:cx="243.552"
     inkscape:cy="2211.2503"
     inkscape:document-units="mm"
     inkscape:current-layer="layer1"
     showgrid="false"
     fit-margin-top="0"
     fit-margin-left="0"
     fit-margin-right="0"
     fit-margin-bottom="0"
     inkscape:window-width="1920"
     inkscape:window-height="1029"
     inkscape:window-x="0"
     inkscape:window-y="0"
     inkscape:window-maximized="1" />
  <metadata
     id="metadata5">
    <rdf:RDF>
      <cc:Work
         rdf:about="">
        <dc:format>image/svg+xml</dc:format>
        <dc:type
           rdf:resource="http://purl.org/dc/dcmitype/StillImage" />
        <dc:title></dc:title>
      </cc:Work>
    </rdf:RDF>
  </metadata>
  <g
     inkscape:label="Vrstva 1"
     inkscape:groupmode="layer"
     id="layer1"
     transform="translate(-32.031733,250.84956)">
    <path
       style="fill:#000000;stroke-width:0.26458332"
       d="m 113.78394,497.44313 c -2.8653,0.63976 -4.86472,-2.85247 -7.201,-12.57733 -1.90882,-7.94567 -5.34731,-24.87535 -5.69524,-28.04121 -0.0404,-0.36773 -0.26123,-1.6514 -0.49063,-2.85241 -0.22938,-1.20111 -0.430843,-2.51434 -0.447622,-2.91842 -0.01678,-0.40405 -0.09523,-0.80074 -0.17443,-0.88164 -0.177047,-0.17885 -1.195061,-6.65098 -1.242538,-7.8907 -0.01886,-0.49078 -0.219681,-1.9605 -0.446415,-3.26604 -0.446587,-2.57127 -0.905623,-5.93732 -1.069266,-7.84056 -0.152495,-1.77362 -0.748429,-6.64889 -0.882637,-7.22101 -0.273193,-1.16449 -2.003244,-17.3016 -2.664709,-24.85587 -1.594022,-18.20419 -2.882153,-37.89108 -3.563681,-54.46525 -0.23519,-5.72 -0.276819,-7.14616 -0.483357,-16.56131 -0.07672,-3.49698 -0.201816,-18.19454 -0.237384,-27.88799 -0.01415,-3.86914 -0.04671,-9.2627 -0.07226,-11.98573 -0.0521,-5.54484 -0.08758,-13.39021 -0.101838,-22.49269 -0.0053,-3.35547 -0.0309,-6.44395 -0.05712,-6.86325 -0.02606,-0.41933 -0.06195,-6.29741 -0.0796,-13.06247 -0.03864,-14.78605 -0.07592,-24.88689 -0.164605,-44.57889 -0.016,-3.55214 -0.03848,-9.44887 -0.04984,-13.10383 -0.01148,-3.65498 -0.03324,-9.46306 -0.04846,-12.90682 -0.01521,-3.44378 -0.01261,-8.54335 0.0058,-11.33235 0.01843,-2.78897 -1.76e-4,-5.77348 -0.04134,-6.63219 -0.04117,-0.85873 -0.08792,-7.54768 -0.103983,-14.86426 -0.01607,-7.31666 -0.05838,-19.27355 -0.09406,-26.57093 -0.03572,-7.29738 -0.06964,-16.34669 -0.0755,-20.109559 -0.0058,-3.76288 -0.02351,-9.744694 -0.0394,-13.292971 C 88.216355,71.964935 88.180455,62.371615 88.1621,55.450012 88.1527,51.89285 88.1325,46.080044 88.1173,42.532695 88.10211,38.985319 88.08065,33.007363 88.06952,29.248346 88.05836,25.489315 88.03872,19.509373 88.02584,15.959636 87.95958,-2.2510403 87.94768,-5.7452484 87.93296,-11.534741 c -0.01838,-7.209468 -0.089,-26.754894 -0.158424,-43.867856 -0.05382,-13.238836 0.139633,-12.349786 -2.919817,-13.420727 -5.212545,-1.824621 -14.348043,-1.401908 -21.837017,1.010445 -6.630082,2.135701 -11.169456,5.34263 -14.446584,10.206092 -1.883606,2.795382 -3.2445,4.130336 -4.713724,4.623872 -2.379949,0.799506 -3.641501,-0.189996 -6.51333,-5.108578 -3.046102,-5.217115 -4.408779,-8.89317 -5.03044,-13.569997 -0.336648,-2.532798 -0.379182,-7.119613 -0.0875,-9.443159 0.328708,-2.619232 0.797176,-5.344583 0.943204,-5.487624 0.08142,-0.07989 0.16359,-0.398092 0.182384,-0.707253 0.06341,-1.043469 1.231234,-4.004177 2.15502,-5.463516 1.092396,-1.725696 3.425983,-4.050298 4.633518,-4.615713 1.349126,-0.631676 2.222179,-0.336292 4.72673,1.599267 3.356659,2.594043 7.31957,4.432694 11.289315,5.237813 4.3763,0.887584 12.694561,0.627472 22.42498,-0.701216 5.182979,-0.707771 14.671727,-2.342924 14.901469,-2.56791 0.119643,-0.117487 0.216244,-1.255166 0.618774,-7.301439 0.77635,-11.66203 1.566254,-30.79324 2.022346,-48.98132 0.537698,-21.44353 1.001634,-53.97934 0.903156,-63.33917 l -0.0523,-4.93668 -2.296407,-1.71007 c -3.47311,-2.58636 -6.483762,-5.16887 -7.160559,-6.14225 -0.402998,-0.57995 -0.621925,-1.39539 -0.653366,-2.43534 -0.04002,-1.32501 0.13398,-1.90667 1.140495,-3.81263 2.263858,-4.28687 3.385452,-5.75412 7.404037,-9.68577 2.8567,-2.79506 4.117028,-3.87694 5.59242,-4.80052 8.2926,-5.19253 13.56078,-5.19133 21.99239,0.003 2.84988,1.75578 8.36581,7.29858 10.63843,10.69026 2.57349,3.84071 3.43971,5.79834 3.41953,7.72787 -0.0115,1.09258 -0.20774,1.96069 -0.55589,2.45836 -0.66588,0.95186 -3.57352,3.41563 -7.01743,5.94755 l -2.60836,1.91724 -0.003,7.62007 c -0.002,4.19103 0.0418,8.74268 0.0974,10.11477 0.0548,1.37211 0.11734,4.39859 0.13886,6.72552 0.0213,2.32697 0.0672,5.86435 0.10292,7.86089 0.035,1.99661 0.0825,4.86121 0.10691,6.3657 0.42344,27.14306 2.45421,75.61094 3.55593,84.879943 0.0935,0.782337 0.1051,0.788169 2.7147,1.277848 7.61673,1.429446 14.87241,2.480974 19.35611,2.805131 3.26747,0.236233 13.22078,0.384793 13.40934,0.200135 0.0872,-0.08537 0.87467,-0.264814 1.75004,-0.398867 3.68967,-0.564946 8.71545,-3.003342 12.71405,-6.168495 1.70801,-1.351955 2.79577,-1.458429 4.22014,-0.412861 3.6584,2.685476 5.83845,6.447702 6.68553,11.541002 0.19203,1.153712 0.39956,2.149414 0.46168,2.212585 0.25865,0.268004 0.53011,5.679636 0.42227,8.482284 -0.24379,6.336306 -2.03824,11.725418 -6.02403,18.09142 -1.80589,2.884328 -2.63819,3.496692 -4.87497,3.586676 -2.01975,0.08131 -2.84559,-0.485499 -4.54411,-3.118739 -2.35642,-3.653119 -4.54602,-5.957669 -7.72818,-8.133649 -1.67007,-1.142099 -6.09408,-2.943218 -10.07671,-4.102394 -3.07305,-0.89447 -8.89246,-1.633033 -12.49717,-1.586037 -1.27367,0.01646 -5.97773,0.851482 -6.42122,1.139659 -0.22414,0.145687 -0.99335,0.489905 -1.70945,0.765002 -0.71601,0.27509 -1.66995,0.760939 -2.11985,1.079648 -0.81529,0.577563 -0.81791,0.597666 -0.7946,6.056016 0.0123,3.012074 0.005,9.743664 -0.0168,14.959081 -0.0221,5.21539 -0.0223,10.048073 -1.6e-4,10.739264 0.0222,0.691186 0.0336,5.266119 0.0247,10.166547 -0.0262,15.14109 -0.0219,25.34939509 0.0172,40.896442 0.0204,8.228667 0.0409,18.290985 0.044,22.360746 0.004,4.069758 0.0146,10.641312 0.0248,14.603441 0.01,3.962182 0.0254,10.525261 0.0355,14.584636 0.0101,4.05938 0.0267,10.708023 0.0374,14.774761 0.0111,4.066727 0.027,10.303965 0.0356,13.860496 0.0426,17.162179 0.0568,21.905229 0.10857,35.446019 0.031,8.01532 0.057,18.07383 0.0602,22.35219 0.006,9.80963 0.0215,18.02822 0.0685,36.40166 0.02,8.02457 0.0373,18.50456 0.0386,23.28889 0.007,52.48305 -0.0494,67.75674 -0.35834,97.76223 -0.33792,32.82032 -0.66924,46.63139 -1.32006,55.02649 -0.14293,1.84376 -0.50543,7.00415 -0.80555,11.46755 -2.18697,32.52615 -2.5763,37.16108 -4.28176,50.97281 -1.69312,13.71209 -5.91801,39.55952 -8.37348,51.22807 -2.53249,12.03471 -4.695,17.28343 -7.36661,17.87988 z"
       id="path877"
       inkscape:connector-curvature="0" />
  </g>
</svg>
