<?xml version="1.0" encoding="UTF-8" standalone="no"?>
<!-- Created with Inkscape (http://www.inkscape.org/) -->

<svg
   xmlns:dc="http://purl.org/dc/elements/1.1/"
   xmlns:cc="http://creativecommons.org/ns#"
   xmlns:rdf="http://www.w3.org/1999/02/22-rdf-syntax-ns#"
   xmlns:svg="http://www.w3.org/2000/svg"
   xmlns="http://www.w3.org/2000/svg"
   xmlns:sodipodi="http://sodipodi.sourceforge.net/DTD/sodipodi-0.dtd"
   xmlns:inkscape="http://www.inkscape.org/namespaces/inkscape"
   width="164.24805mm"
   height="177.40567mm"
   viewBox="0 0 581.98127 628.60277"
   id="svg2"
   version="1.1"
   inkscape:version="0.91 r13725"
   sodipodi:docname="picasso-camel.svg">
  <defs
     id="defs4" />
  <sodipodi:namedview
     id="base"
     pagecolor="#ffffff"
     bordercolor="#666666"
     borderopacity="1.0"
     inkscape:pageopacity="0.0"
     inkscape:pageshadow="2"
     inkscape:zoom="0.35"
     inkscape:cx="-221.0447"
     inkscape:cy="331.24565"
     inkscape:document-units="px"
     inkscape:current-layer="layer1"
     showgrid="false"
     fit-margin-top="0"
     fit-margin-left="0"
     fit-margin-right="0"
     fit-margin-bottom="0"
     inkscape:window-width="1366"
     inkscape:window-height="717"
     inkscape:window-x="0"
     inkscape:window-y="0"
     inkscape:window-maximized="1" />
  <metadata
     id="metadata7">
    <rdf:RDF>
      <cc:Work
         rdf:about="">
        <dc:format>image/svg+xml</dc:format>
        <dc:type
           rdf:resource="http://purl.org/dc/dcmitype/StillImage" />
        <dc:title></dc:title>
      </cc:Work>
    </rdf:RDF>
  </metadata>
  <g
     inkscape:label="Vrstva 1"
     inkscape:groupmode="layer"
     id="layer1"
     transform="translate(-44.61613,-240.71935)">
    <path
       style="fill:#000000"
       d="m 533.97894,868.83648 c -8.44682,-1.7851 -11.22336,-6.19606 -8.45806,-13.43689 2.26646,-5.93464 6.85321,-10.32096 24.62198,-23.54607 17.14442,-12.7604 26.77619,-21.97412 31.8623,-30.47936 4.89165,-8.18005 6.04626,-12.19713 6.08043,-21.15481 0.0557,-14.61287 -5.48617,-26.43757 -30.18953,-64.41509 -22.49412,-34.58115 -44.74366,-70.0333 -52.12023,-83.04776 -4.05276,-7.15028 -11.54106,-22.79625 -16.64065,-34.76883 -16.45396,-38.62982 -22.12806,-48.50358 -34.64853,-60.29355 -8.12717,-7.653 -16.3051,-12.23452 -27.02984,-15.14292 -6.48696,-1.75917 -10.61604,-2.11795 -24.31395,-2.11261 -14.07708,0.005 -20.66927,0.61394 -44.89262,4.14359 -15.61595,2.27545 -28.66595,4.14406 -29,4.15248 -0.33406,0.008 -1.23663,0.41373 -2.00571,0.90069 -1.12017,0.70926 -0.70672,1.75053 2.07849,5.23469 17.17113,21.48016 21.15402,58.6937 8.63737,80.70197 -13.72715,24.13669 -46.29571,31.71457 -65.15138,15.15907 -10.54823,-9.26146 -15.67043,-28.18555 -12.35879,-45.65977 4.67319,-24.65852 18.28504,-43.33735 40.05917,-54.97108 l 6.13028,-3.27535 -3.99841,-1.76333 c -2.61804,-1.15458 -6.5876,-1.77689 -11.4984,-1.80261 -6.49531,-0.034 -8.23142,0.36257 -12.96005,2.96056 -14.42134,7.92333 -27.85978,27.37714 -35.39985,51.2457 -11.55944,36.59211 -7.78852,90.3997 12.34389,176.13576 4.53257,19.30247 10.18176,49.34884 12.1279,64.50477 1.24681,9.70971 1.23041,9.91802 -0.91755,11.65733 -4.22019,3.41731 -10.66703,-1.42346 -8.15265,-6.12162 2.15258,-4.02213 -2.49007,-33.84634 -10.02048,-64.37119 -17.807,-72.18145 -23.4757,-126.21835 -17.45101,-166.35196 3.8479,-25.6329 18.35262,-53.73512 34.80607,-67.43513 15.70323,-13.07535 32.178,-15.22149 47.23691,-6.1535 l 5.69807,3.4312 9.09437,-1.94058 c 12.69343,-2.70857 38.39271,-6.72425 55.59438,-8.68699 40.77241,-4.65221 67.10594,3.55063 85.31171,26.5744 7.55031,9.54845 13.373,20.39984 21.51957,40.10472 16.36189,39.57605 29.49845,62.61487 77.20801,135.40694 18.94631,28.90703 21.91928,34.21767 26.01034,46.46255 2.90115,8.6834 3.12716,10.28905 2.74473,19.5 -0.4584,11.04089 -2.22945,16.46668 -8.66218,26.53745 -5.20108,8.14254 -18.87091,21.23998 -34.13218,32.70297 -16.03893,12.04711 -21.70579,17.48782 -19.79606,19.00606 3.58893,2.85319 30.73136,2.0636 42.38848,-1.23311 6.91036,-1.9543 9.13456,-3.92936 15.96682,-14.17837 10.44351,-15.66622 14.55585,-27.04451 21.97341,-60.79755 5.43683,-24.73991 6.47485,-36.63003 4.08316,-46.77132 -1.96711,-8.34102 -3.88378,-12.14938 -13.40047,-26.62623 -16.46644,-25.04889 -20.65062,-36.24539 -20.592,-55.10245 0.0306,-9.85192 0.63342,-14.09689 4.2062,-29.62064 3.40331,-14.78737 4.17046,-19.95449 4.17046,-28.09003 0,-14.87827 -2.25621,-22.09145 -15.41722,-49.28933 -15.56296,-32.16163 -16.40921,-34.23196 -27.52648,-67.34329 -21.92153,-65.29036 -35.5302,-88.86023 -57.26137,-99.17526 -14.35872,-6.81559 -22.67968,-5.84869 -43.29493,5.03091 -15.55517,8.20917 -22.46054,10.49029 -31.71845,10.47787 -11.8069,-0.0158 -15.64052,-2.33925 -32.78155,-19.86766 -12.74553,-13.03357 -15.20028,-15.08753 -20.28751,-16.97513 -7.12523,-2.64379 -11.74808,-2.70337 -19.62153,-0.25288 -11.20135,3.48625 -19.83168,10.1685 -33.04594,25.58667 -22.66363,26.44351 -44.03119,62.06207 -56.10189,93.51877 -12.77327,33.28761 -26.16795,54.23415 -43.72503,68.37702 -27.5047,22.15604 -52.93272,20.59857 -73.45421,-4.49907 -10.52391,-12.87067 -19.22848,-40.40181 -21.96946,-69.4859 -1.95488,-20.74282 0.58757,-36.30287 11.3384,-69.39205 11.27712,-34.70901 12.60997,-50.41105 4.93091,-58.0901 -5.10907,-5.10908 -9.23489,-5.49337 -30.56374,-2.84683 -21.315667,2.64491 -37.000147,3.01715 -42.999997,1.02052 -17.74155,-5.90403 -18.80259,-24.621 -2.32955,-41.09404 11.81787,-11.81787 34.98538,-24.93517 57.259507,-32.41996 14.71999,-4.94638 23.26517,-6.6497 34.50509,-6.87798 l 9.43506,-0.19161 1.32796,-5 c 0.73038,-2.75 1.06974,-6.49971 0.75412,-8.3327 -0.78003,-4.53016 1.64631,-8.1673 5.44842,-8.1673 5.20358,0 5.62709,1.91538 2.70623,12.23919 -1.44107,5.09344 -2.61713,9.78661 -2.61348,10.42925 0.004,0.64264 1.50437,2.09409 3.33493,3.22544 5.92867,3.66412 6.96291,8.58006 3.66149,17.40389 -2.02383,5.40918 -4.53189,8.44166 -8.80684,10.64834 -5.54217,2.86079 -10.06021,-6.15729 -8.86868,-17.70204 l 0.5699,-5.52181 -10.69208,0.55306 c -32.8589,1.69968 -80.227817,25.19311 -90.197297,44.7349 -2.54724,4.99302 -2.52212,8.04966 0.0935,11.3749 5.33454,6.78177 14.69653,7.86673 39.93938,4.62858 26.442227,-3.392 37.105617,-2.13867 44.749727,5.25971 6.33518,6.13152 7.89163,19.48122 4.21193,36.12571 -1.08206,4.89452 -4.64238,17.26952 -7.91183,27.5 -10.59899,33.16544 -12.74125,44.96783 -11.72572,64.60088 1.1216,21.68404 5.5658,40.58605 13.17541,56.03753 10.02827,20.36261 25.19857,31.50115 40.97281,30.08358 22.27917,-2.00214 42.8498,-19.34803 57.40834,-48.40878 2.28352,-4.55822 7.55019,-16.48322 11.7037,-26.5 18.10761,-43.66912 43.88029,-84.48999 68.02932,-107.7504 10.17223,-9.79792 15.65892,-13.78787 25.12908,-18.27404 6.02247,-2.85293 7.67521,-3.18692 15.72956,-3.17868 13.96625,0.0143 16.69722,1.80967 39.01475,25.64889 11.87912,12.68907 19.48695,15.72757 30.99931,12.38084 3.19979,-0.93021 12.44254,-5.02455 20.53944,-9.09854 20.16072,-10.14394 27.22388,-11.82745 39.14728,-9.33078 13.28707,2.78221 26.52159,13.13913 37.0849,29.02149 12.54733,18.86541 20.26556,36.29678 32.26475,72.86889 10.7188,32.66964 14.65326,42.46534 26.71801,66.52033 15.83593,31.57407 17.56072,36.44817 18.394,51.97967 0.57943,10.79989 -0.28852,17.40396 -5.58563,42.5 -6.00334,28.44194 -3.50233,39.76995 15.27368,69.18026 18.6759,29.2535 20.62583,41.42076 12.71181,79.31974 -4.79888,22.9811 -7.88314,34.47958 -12.08736,45.06308 -9.21387,23.19458 -20.59201,37.90837 -31.94472,41.30972 -8.75252,2.62232 -37.2413,4.71371 -44.19414,3.24433 z M 314.78752,626.23744 c 9.03923,-4.45748 17.21651,-12.95482 20.43375,-21.23351 1.8776,-4.83151 2.26228,-7.8441 2.33479,-18.28458 0.0511,-7.36201 -0.46456,-14.76071 -1.25457,-18 -1.86571,-7.64994 -10.41326,-24.79036 -14.46166,-29 -7.71268,-8.01986 -6.43618,-7.81894 -16.90686,-2.66104 -15.86377,7.81456 -27.36497,20.36014 -33.94675,37.02932 -2.87111,7.27144 -3.21685,9.24255 -3.26807,18.63172 -0.0613,11.23594 1.57591,18.1029 5.96044,25 8.28344,13.03029 24.95393,16.48454 41.10893,8.51809 z M 165.02741,281.62068 c 0.74009,-2.12302 0.75981,-3.69733 0.0626,-5 -1.77035,-3.30801 -2.94715,-2.07072 -2.94715,3.09867 0,5.65961 1.28024,6.50347 2.88455,1.90133 z"
       id="path4147"
       inkscape:connector-curvature="0" />
  </g>
</svg>
