<?xml version="1.0" encoding="UTF-8" standalone="no"?>
<svg
   xmlns:dc="http://purl.org/dc/elements/1.1/"
   xmlns:cc="http://creativecommons.org/ns#"
   xmlns:rdf="http://www.w3.org/1999/02/22-rdf-syntax-ns#"
   xmlns:svg="http://www.w3.org/2000/svg"
   xmlns="http://www.w3.org/2000/svg"
   fill="#000000"
   height="554.23969"
   width="800.18799"
   version="1.1"
   id="Layer_1"
   viewBox="0 0 64.015039 44.339175"
   enable-background="new 0 0 64 64"
   xml:space="preserve"><metadata
   id="metadata12"><rdf:RDF><cc:Work
       rdf:about=""><dc:format>image/svg+xml</dc:format><dc:type
         rdf:resource="http://purl.org/dc/dcmitype/StillImage" /><dc:title></dc:title></cc:Work></rdf:RDF></metadata><defs
   id="defs10" />
<g
   id="Elephant_1_"
   transform="matrix(-1,0,0,1,64.00752,-9.8304119)"
   style="fill:#8c2318;fill-opacity:1">
	<circle
   cx="54.542351"
   cy="24.748238"
   r="1.50615"
   id="circle2"
   style="fill:#8c2318;fill-opacity:1" />
	<path
   d="m 54.25695,12.420588 -0.181701,-0.0743 h -6.914997 c -0.999001,-0.9423 -4.144501,-3.5166 -7.3652,-2.0986 -0.702401,0.3088 -1.411202,0.969 -2.100403,1.8202 -2.853699,-0.680299 -14.707298,-3.0931002 -25.273697,0.8556 -11.5517011,4.316399 -12.7129011,19.706002 -12.3817929,23.2851 0.0604918,0.649501 0.6913918,7.096698 0.6913918,7.096698 0.0469,0.483403 0.4356082,0.863301 0.9199,0.899403 0.4784999,0.0313 0.9257998,-0.2812 1.0448999,-0.7519 0.2823,-1.119201 0.9013999,-3.333999 1.6289999,-5.416 L 3.9981592,53.148086 c -0.00591,0.268502 0.097592,0.528302 0.2850916,0.720704 0.1884999,0.192398 0.4463,0.300796 0.7149081,0.300796 H 12.25695 c 0.470701,0 0.8779,-0.328098 0.9775,-0.788097 l 2.885801,-13.311501 c 2.496999,1.0009 8.5751,2.820301 15.043909,0.150398 1.81349,-0.75 3.749998,-0.400398 4.86519,0.276303 0.578202,0.3516 0.930699,0.7803 0.965901,1.177799 0.445301,5.006802 1.535099,11.592701 1.54591,11.6591 0.08,0.482502 0.496997,0.835998 0.98629,0.835998 h 7.0928 c 0.476497,0 0.8876,-0.336899 0.9804,-0.804699 0.0347,-0.1726 0.330799,-2.2467 0.278297,-21.5343 0.349404,0.365099 0.856701,1.378802 1.137703,2.497202 l 0.151398,0.6045 0.607399,0.130798 c 0.511711,0.110401 3.122101,0.586003 4.156303,-0.917 0.139599,-0.203098 0.385697,-0.3222 0.634697,-0.390598 0.463902,2.3027 1.609402,9.128899 0.8643,17.462898 l -0.0977,1.088902 h 5.531299 l 0.292,-0.481503 c 0.103501,-0.168899 2.5205,-4.322197 2.842812,-19.509696 0.332,-15.602602 -9.331112,-19.727602 -9.742211,-19.895502 z m -8.563499,39.748998 h -5.314503 c -0.3046,-1.921898 -1.045898,-6.787098 -1.391597,-10.672897 -0.0937,-1.0527 -0.776303,-2.015602 -1.920903,-2.7099 -1.885696,-1.143601 -4.500896,-1.306702 -6.664997,-0.4161 -7.389601,3.049901 -14.4629,-0.565403 -14.5332,-0.6025 -0.274401,-0.143502 -0.603501,-0.151402 -0.8877,-0.0195 -0.2822,0.132801 -0.4873,0.388698 -0.553701,0.693302 L 11.450251,52.169586 H 6.0196509 L 6.4278507,33.250588 c 0.0088,-0.435501 -0.2646918,-0.827099 -0.6767998,-0.967701 -0.4121003,-0.139698 -0.8672004,9e-4 -1.1268916,0.351501 -0.8545084,1.154301 -1.7120001,3.315499 -2.4024084,5.365299 -0.0947,-0.981498 -0.1719,-1.770599 -0.1904001,-1.975597 -0.0156,-0.166 -0.5898999,-16.863302 11.0888992,-21.227602 9.141301,-3.4133 19.645001,-1.723599 23.3247,-0.9531 -2.1707,3.4778 -3.9273,8.2141 -4.241699,9.085901 -0.124092,0.289099 -0.486401,1.319399 -0.0069,2.648499 0.5811,1.6142 2.141601,2.9971 4.638698,4.1103 0.95411,0.4258 1.807602,0.823301 2.575203,1.181699 2.889397,1.346201 4.816197,2.241801 6.4707,1.854002 0.029,13.067799 -0.107903,17.816399 -0.187501,19.445797 z m 13.968708,-1.862297 h -2.15131 C 58.235451,40.269188 56.407349,32.76429 56.326248,32.439087 l -0.172798,-0.695299 -0.714901,-0.0596 c -0.2178,-0.0224 -2.149391,-0.133801 -3.1553,1.329098 -0.113201,0.1641 -0.777298,0.251003 -1.509701,0.181701 -0.357387,-1.1338 -1.139698,-3.003 -2.494198,-3.419 -0.405189,-0.124001 -1.215801,-0.218701 -2.070301,0.549801 -1.055599,0.9473 -2.273399,0.4473 -5.954097,-1.269501 -0.776303,-0.3613 -1.639603,-0.763701 -2.605401,-1.1943 -4.473701,-1.995199 -3.648502,-4.0508 -3.621101,-4.115299 l 0.0449,-0.106401 c 1.433601,-3.9903 4.473602,-10.6592 6.526302,-11.562499 2.518597,-1.106501 5.388699,1.9199 5.417,1.949199 l 0.295899,0.3193 h 7.348701 c 1.192398,0.584001 8.618099,4.759801 8.33791,17.9268 -0.249111,11.739298 -1.767613,16.606402 -2.337002,18.034201 z"
   id="path4"
   style="fill:#8c2318;fill-opacity:1" />
</g>
</svg>
