<?xml version="1.0" encoding="UTF-8" standalone="no"?>
<svg
   xmlns:dc="http://purl.org/dc/elements/1.1/"
   xmlns:cc="http://creativecommons.org/ns#"
   xmlns:rdf="http://www.w3.org/1999/02/22-rdf-syntax-ns#"
   xmlns:svg="http://www.w3.org/2000/svg"
   xmlns="http://www.w3.org/2000/svg"
   xmlns:sodipodi="http://sodipodi.sourceforge.net/DTD/sodipodi-0.dtd"
   xmlns:inkscape="http://www.inkscape.org/namespaces/inkscape"
   aria-hidden="true"
   data-prefix="fas"
   data-icon="star-christmas"
   class="svg-inline--fa fa-star-christmas fa-w-16"
   role="img"
   viewBox="0 0 512 512"
   version="1.1"
   id="svg4"
   sodipodi:docname="star-christmas.svg"
   inkscape:version="0.92.3 (unknown)">
  <metadata
     id="metadata10">
    <rdf:RDF>
      <cc:Work
         rdf:about="">
        <dc:format>image/svg+xml</dc:format>
        <dc:type
           rdf:resource="http://purl.org/dc/dcmitype/StillImage" />
      </cc:Work>
    </rdf:RDF>
  </metadata>
  <defs
     id="defs8" />
  <sodipodi:namedview
     pagecolor="#ffffff"
     bordercolor="#666666"
     borderopacity="1"
     objecttolerance="10"
     gridtolerance="10"
     guidetolerance="10"
     inkscape:pageopacity="0"
     inkscape:pageshadow="2"
     inkscape:window-width="1920"
     inkscape:window-height="1023"
     id="namedview6"
     showgrid="false"
     inkscape:zoom="1.4512329"
     inkscape:cx="256"
     inkscape:cy="256"
     inkscape:window-x="0"
     inkscape:window-y="0"
     inkscape:window-maximized="1"
     inkscape:current-layer="svg4" />
  <path
     fill="currentColor"
     d="M505.3 247.4l-192.5-48.1L264.6 6.7c-2.2-9-15-9-17.2 0l-48.1 192.6L6.7 247.4c-9 2.2-9 15 0 17.2l192.5 48.1 48.1 192.5c2.2 9 15 9 17.2 0l48.1-192.5 192.6-48.1c9-2.2 9-15 .1-17.2zm-352.4-69.5l19.9-5 5-19.9L109 97.9c-7.5-6-17.2 3.7-11.2 11.2l55.1 68.8zm206.2 156.2l-19.9 5-5 19.9 68.8 55.1c7.5 6 17.2-3.7 11.2-11.2l-55.1-68.8zm0-156.2l55.1-68.8c6-7.5-3.7-17.2-11.2-11.2l-68.8 55 5 19.9 19.9 5.1zM152.9 334.1l-55 68.8c-6 7.5 3.7 17.2 11.2 11.2l68.8-55.1-5-19.9-20-5z"
     id="path2"
     style="fill:#8c2318;fill-opacity:1" />
</svg>
