<svg xmlns="http://www.w3.org/2000/svg" width="454.677" height="170.88" viewBox="0 0 120.3 45.212"><path d="M71.576 85.68h-.762v7.62h.762c0-.052 0-.712 1.067-.763 1.066.813 2.54 1.169 3.911 1.169 4.42 0 8.28-4.064 5.436-8.941-1.118-1.93-3.556-6.045-6.249-10.668-1.93-3.404.204-5.13 2.134-5.13 1.88 0 3.658 1.421 3.658 4.368v1.676h.812v-6.858h-.812c0 .711-.508.864-.966.915-.965-.813-2.286-1.22-3.556-1.22-4.064 0-8.89 3.709-5.181 9.856.813 1.27 4.064 6.756 4.978 8.382 2.743 4.724 1.27 6.502-1.067 6.502-1.98 0-4.165-1.473-4.165-3.556zm19.253 7.62 4.267-24.334h1.423v-.813h-3.556v.61h1.27l-1.83 10.16-2.336-9.957h1.168v-.813H83.26v.813h1.473L90.219 93.3zm13.868-16.054c-2.438 2.845-7.772 1.88-7.772 8.28v3.1c0 3.454 2.388 5.029 4.623 5.029 1.371 0 2.743-.915 3.251-2.59.508 1.828 2.438 2.64 3.76 2.64 1.98 0 3.758-1.066 3.758-3.098h-.812c0 .762-.407 1.371-.864 1.371s-.66-.61-.66-2.235V74.86c0-4.521-2.134-7.01-6.35-7.01-2.642 0-6.249.965-6.249 4.876 0 2.388 1.321 3.353 2.896 3.353 2.641 0 3.2-2.692 2.184-4.521-.508-1.067-.863-2.896.762-2.896 1.067 0 1.473.762 1.473 1.88zm0 1.067v9.754c0 2.133-.71 3.505-1.422 3.505-.406 0-.762-.457-.762-1.22v-8.33c0-2.439 1.27-2.54 2.184-3.709zm6.706-9.347h2.032v19.152c0 4.267 2.49 5.486 4.877 5.486 2.286 0 3.353-1.118 3.353-3.505h-.813c0 1.676-.813 2.49-1.423 2.49-.508 0-.914-.509-.914-2.389V68.966h3.048v-.813h-3.048V60.28l-5.08 2.083v5.791h-2.032zm17.17-2.845c1.83-1.067 3.506-2.743 4.47-4.775h-2.996c-.051 1.524-.407 2.845-1.677 4.775zm.254 33.274 5.995-30.429h1.422v-.813h-3.607v.813h1.27l-2.082 10.516-2.998-10.516h1.118v-.813h-7.976v.813h1.474l5.69 24.282-.407 1.982c-.356 1.778-1.575 2.082-2.591 2.336-1.626.356-3.048.762-3.048 2.642 0 1.778 1.22 2.794 2.54 2.794 1.27 0 2.692-1.016 3.2-3.607zm15.596-6.096h7.722v-.813h-1.321v-19.1c0-1.22.406-4.064 1.829-4.166 1.066-.05.965 1.422.406 2.337-.914 1.524-.61 4.521 2.184 4.521 1.982 0 2.896-1.473 2.896-3.404 0-3.15-2.49-4.42-4.42-4.42-1.574 0-2.438.814-2.895 2.084v-2.185h-6.401v.813h1.32v23.52h-1.32zm15.037-6.197c0 4.216 3.962 6.35 6.451 6.35 2.439 0 6.401-2.134 6.401-6.35V74.554c0-4.47-3.962-6.706-6.4-6.706-2.49 0-6.452 2.236-6.452 6.706zm5.283-16.46c0-1.219.559-1.828 1.168-1.828.56 0 1.118.61 1.118 1.828v20.371c0 1.118-.559 1.677-1.118 1.677-.61 0-1.168-.56-1.168-1.677zm9.093 22.657h7.925v-.813h-1.524V78.313l3.912 14.173h-1.321v.813h7.975v-.813h-1.422l-5.537-19.66 1.829-3.86h1.371v-.813h-3.353v.813h1.067l-4.521 9.093V58.603h1.524v-.813h-8.128v.813h1.524v33.883h-1.32z" aria-label="svatý rok" style="font-weight:900;font-stretch:condensed;font-size:50.8px;font-family:Emberly;-inkscape-font-specification:&quot;Emberly, Heavy Condensed&quot;;stroke-width:3.3" transform="translate(-70.503 -57.79)"/></svg>