<svg xmlns="http://www.w3.org/2000/svg" xml:space="preserve" width="382.208" height="386.035" viewBox="0 0 101.126 102.138"><path d="m184.391 259.279-.057.055c-.03.03-.057.071-.057.092 0 .066.13.159.414.295 1.713.82 4.137 1.23 6.606 1.117a22.907 22.907 0 0 0 4.809-.756c.328-.088.37-.097.543-.097.183-.001.192 0 .304.057.091.047.143.09.242.204.485.552.67.752 1.053 1.136.466.467.71.695 1.15 1.072 2.725 2.338 6.158 4.025 9.857 4.843a24.081 24.081 0 0 0 13.692-.981 26.081 26.081 0 0 0 3.741-1.76c.857-.487 2.063-1.277 2.656-1.741.096-.075.175-.126.187-.119.01.007.103.081.205.166a25.035 25.035 0 0 0 3.168 2.218 25.877 25.877 0 0 0 12.315 3.556c1.39.01 2.777-.013 4.152-.23 1.88-.27 3.646-.767 5.242-1.471.328-.146.804-.376.804-.39 0-.006-.055-.11-.122-.23a11.71 11.71 0 0 1-.86-2.013 4.594 4.594 0 0 0-.078-.227 4.911 4.911 0 0 0-.349.147c-4.049 1.794-7.558 2.116-10.064 1.986a21.97 21.97 0 0 1-4.826-.78 25.21 25.21 0 0 1-4.64-1.82c-1.3-.657-2.38-1.306-3.861-2.322a3.034 3.034 0 0 0-.745-.373 1.061 1.061 0 0 0-.347-.045c-.389-.003-.617.098-1.189.527a28.353 28.353 0 0 1-3.299 2.157 24.887 24.887 0 0 1-5.969 2.39c-3.802.96-7.654.91-11.324-.149-3.693-1.065-7.16-3.14-10.182-6.091a3.48 3.48 0 0 0-.376-.334.87.87 0 0 0-.573-.063c-.046.013-.217.07-.38.128-1.123.395-2.508.703-3.878.862-2.74.319-5.413.001-7.712-.916zM274.157 242.826a4.99 4.99 0 0 0-.274.287 40.4 40.4 0 0 1-3.472 3.364l-.304.26-.038.18-.184.882a95.795 95.795 0 0 1-6.584 20.231c-.007.007-.379-.194-.698-.376-3.452-1.979-5.699-4.572-6.071-7.006-.036-.236-.063-.887-.042-1.001l.012-.063.122.112c.143.13.324.248.463.3a.665.665 0 0 0 .252.038c.132 0 .164-.005.247-.046.19-.094.329-.292.406-.58.052-.193.064-.622.025-.89a3.71 3.71 0 0 0-.712-1.7c-.138-.176-.309-.344-.328-.323a7.466 7.466 0 0 0-1.269 2.074c-1.154 2.903-.321 6.362 2.247 9.33.617.714 2.097 2.09 3.21 2.987.628.505 1.011.87 1.257 1.198.403.537.53.957.417 1.387-.006.024.02-.003.065-.067.276-.4.873-.61 1.741-.61.31 0 .617.025 1.16.093.55.07.823.099 1.343.144.217.018.468.045.559.058 1.288.19 2.808.19 4.05 0 3.982-.61 6.775-2.943 7.458-6.23.042-.205.106-.63.115-.77l.005-.077-.262.002c-.21.002-.305.011-.478.047-.867.178-1.669.66-2.04 1.224-.138.21-.181.335-.182.53-.001.143.004.172.046.256.123.25.433.404.87.433l.16.01-.174.178c-.957.968-2.33 1.523-4.205 1.7-.32.03-1.65.03-2.007 0a18.31 18.31 0 0 1-3.644-.688c-.35-.101-1.024-.32-1.041-.337-.004-.004.073-.19.173-.412a99.067 99.067 0 0 0 3.629-9.353 100.532 100.532 0 0 0 3.703-15.02c.145-.867.282-1.748.274-1.756zM227.586 226.293l-.012.098a22.01 22.01 0 0 0-.048.63c-.157 2.365-.522 4.988-.974 7.01a4.196 4.196 0 0 0-.059.289c0 .034.551.229 1.364.483 1.564.49 2.6.744 4.815 1.186.721.143 1.314.264 1.32.269.004.005-.023.045-.06.09l-.707.867c-1.369 1.682-1.917 2.3-3.03 3.414-.65.65-1.092 1.066-1.686 1.588-3.68 3.23-7.828 5.57-12.26 6.918-.19.057-.436.147-.578.21-.865.388-2.021.78-2.987 1.012-.121.03-.232.057-.246.062-.049.018 1.069.244 1.905.386 1.732.294 3.313.456 5.047.516.505.018 2.049.008 2.515-.016.19-.01.522-.029.736-.043 5.639-.374 10.897-2.248 15.438-5.5 4.343-3.11 7.997-7.498 10.435-12.53l.195-.402h-.08c-.043 0-.262.01-.486.018-.535.022-2.267.022-2.845 0-3.821-.152-7.257-.807-10.406-1.983-2.589-.967-4.931-2.298-6.497-3.694a6.377 6.377 0 0 1-.708-.74z" style="fill:#f2c45a;stroke-width:.064002;fill-opacity:1" transform="translate(-184.277 -171.342)"/><path d="M212.757 225.642a2.834 2.834 0 0 0-.107.31 50.918 50.918 0 0 1-2.379 6.174c-1.22 2.612-2.659 4.925-4.208 6.767-2.6 3.094-5.397 4.797-8.019 5.672a16.745 16.745 0 0 1-3.708.779c-.532.05-.903.07-1.533.083l-.577.01.382.186c5.032 2.438 9.126 3.105 10.949 3.336.674.085 1.56.163 2.227.195l.465.022v.002c.273.013 1.96.01 2.295-.006a29.384 29.384 0 0 0 4.571-.55 31.327 31.327 0 0 0 4.005-1.108c3.8-1.342 7.369-3.451 10.524-6.222a36.74 36.74 0 0 0 3.2-3.2c.333-.38.831-.975.831-.992 0-.007-.1-.033-.224-.059a40.888 40.888 0 0 1-2.045-.473c-5.526-1.418-10.321-3.936-13.81-7.252-.932-.886-1.686-1.759-2.277-2.648-.26-.39-.397-.632-.499-.881-.03-.076-.06-.14-.063-.144zM231.505 225.415a16.328 16.328 0 0 0-2.137.092c-.342.04-.69.102-.69.121 0 .057.455.516.78.785a16.69 16.69 0 0 0 2.213 1.525c2.5 1.45 5.425 2.494 8.674 3.098.238.043.454.08.481.082l.049.002-.012-.233a55.117 55.117 0 0 0-.281-3.558c-.062-.554-.079-.698-.087-.705a6.643 6.643 0 0 0-.32-.076c-3.104-.696-6.258-1.099-8.67-1.133z" style="fill:#f2c45a;stroke-width:.064002;fill-opacity:1" transform="translate(-184.277 -171.342)"/><path d="m213.928 225.131.036.114c.103.319.539.974 1.073 1.615.654.784 1.597 1.72 2.49 2.466 2.084 1.743 4.509 3.192 7.324 4.378.228.096.419.175.425.175.006 0 .016-.024.02-.054l.095-.453c.164-.77.324-1.674.458-2.591a45.57 45.57 0 0 0 .197-1.529l.012-.13-.117-.053c-4.668-2.118-9.237-3.665-11.521-3.9a4.867 4.867 0 0 0-.492-.038zM241.28 223.219a73.834 73.834 0 0 1 .435 2.871c.213 1.634.373 3.46.417 4.733.005.158.013.335.018.392l.01.103.096.011c1.416.168 2.485.242 3.787.262 1.22.02 2.016-.002 4.36-.116.19-.01.346-.015.348-.013.007.01-1.06 2.26-1.27 2.68-2.205 4.407-5.22 8.236-8.873 11.27a29.2 29.2 0 0 1-1.224.965l-.483.364-.174.283c-1.842 2.99-4.363 5.298-7.644 6.996l-.348.18h.203c.448 0 1.604-.046 2.32-.094 4.562-.301 8.774-1.28 12.641-2.936a33.49 33.49 0 0 0 12.05-8.747c.319-.364.77-.9.77-.918 0-.008.033-.049.074-.093.04-.043.07-.083.065-.088-.005-.006-.001-.01.009-.01.01 0 .1-.105.202-.233a37.018 37.018 0 0 0 4.086-6.44 40.19 40.19 0 0 0 3.33-9.595 8.805 8.805 0 0 0-.367.098 47.023 47.023 0 0 1-5.072 1.097c-.713.11-1.77.246-2.328.298-1.434.133-2.18.168-3.65.168-1.334 0-1.784-.015-2.86-.102-2.711-.217-5.331-.777-7.579-1.616-1.366-.51-2.63-1.166-3.226-1.674a1.086 1.086 0 0 0-.123-.096z" style="fill:#f2c45a;stroke-width:.064002;fill-opacity:1" transform="translate(-184.277 -171.342)"/><path d="M254.023 220.389c-.006-.005-.153 0-.329.01a131.797 131.797 0 0 0-2.104.146c-.245.016-1.132.094-1.728.152-3.21.317-5.623.753-7.034 1.273-.227.084-.644.26-.666.282-.045.045.368.341.86.617 1.162.65 2.797 1.262 4.529 1.695 2.058.515 4.122.793 6.468.871.075.003.382.006.683.008.514.003.547 0 .539-.027a17.363 17.363 0 0 1-.087-.41 67.41 67.41 0 0 0-.753-3.234c-.183-.706-.365-1.37-.378-1.383zM215.316 216.956a3.432 3.432 0 0 0-1.948.8 3.4 3.4 0 0 0 1.727 5.953c.2.03.705.03.942 0 .63-.081 1.282-.38 1.78-.817 1.713-1.502 1.448-4.272-.46-5.438a3.41 3.41 0 0 0-2.041-.498zM227.98 216.955a3.406 3.406 0 0 0-1.824.504 3.402 3.402 0 0 0-1.501 3.742 3.406 3.406 0 0 0 2.983 2.534c.209.02.569.009.803-.025a3.405 3.405 0 0 0 2.827-2.669 3.548 3.548 0 0 0-.044-1.572 3.834 3.834 0 0 0-.329-.797 3.404 3.404 0 0 0-2.915-1.717z" style="fill:#f2c45a;stroke-width:.064002;fill-opacity:1" transform="translate(-184.277 -171.342)"/><path d="M283.933 213.94c0-.013-.185.067-.453.194-5.667 2.7-11.975 4.233-18.335 4.455-.612.02-2.005.02-2.59 0-2.603-.095-4.798-.422-6.435-.959-.76-.25-1.472-.606-1.784-.896a1.103 1.103 0 0 0-.109-.093c-.004 0 .06.212.143.47a73.787 73.787 0 0 1 2.048 7.716c.064.317.12.579.126.584.005.005.235-.005.511-.02a40.584 40.584 0 0 0 6.956-1.021c.924-.216 1.418-.348 3.08-.822a51.721 51.721 0 0 1 1.068-.3c.007.01-.493 2.371-.602 2.842-1.496 6.482-4.486 12.42-8.64 17.155a35.535 35.535 0 0 1-4.33 4.164l-.279.225-.17.29a21.142 21.142 0 0 1-3.457 4.413c-1.063 1.05-2.021 1.83-3.478 2.832-.022.016-.038.03-.032.03.027.002 1.08-.162 1.514-.236 5.36-.915 10.202-2.584 14.547-5.014a39.472 39.472 0 0 0 6.358-4.437c3.53-3.033 6.492-6.685 8.8-10.854 3.06-5.526 4.926-11.88 5.424-18.474.047-.617.12-1.985.12-2.244zM239.998 213.107a3.629 3.629 0 0 0-1.795.384c-1.103.538-1.859 1.564-2.069 2.808a5.311 5.311 0 0 0 0 1.162c.097.553.293 1.056.583 1.491.378.569.854.992 1.452 1.293.438.22.88.344 1.423.4a5.87 5.87 0 0 0 .821-.034c.4-.06.743-.167 1.11-.346a3.624 3.624 0 0 0 1.059-.773c.552-.567.9-1.276 1.025-2.089a4.53 4.53 0 0 0 0-1.05 3.93 3.93 0 0 0-.514-1.44 3.854 3.854 0 0 0-1.546-1.417 3.61 3.61 0 0 0-1.549-.389z" style="fill:#f2c45a;stroke-width:.064002;fill-opacity:1" transform="translate(-184.277 -171.342)"/><path d="M269.004 209.7c-.007-.008-.468.126-1.42.416-2.854.869-5.615 1.834-7.762 2.713-2.273.931-3.844 1.748-4.787 2.489l-.181.142.176.177c.209.21.372.324.677.469 1.382.659 3.846 1.098 6.805 1.212.564.022 2.602.006 3.192-.024a47.29 47.29 0 0 0 3.085-.255c.013-.004-.032-.11-.12-.283a115.437 115.437 0 0 1-1.093-2.31c0-.009.272-.179.604-.38.768-.463 1.41-.887 1.41-.93 0-.13-.559-3.404-.586-3.436z" style="fill:#f2c45a;stroke-width:.064002;fill-opacity:1" transform="translate(-184.277 -171.342)"/><path d="m275.646 208.538-.014.068a2.533 2.533 0 0 1-.133.474c-.115.295-.348.686-.643 1.076-1.076 1.425-3.178 3.226-5.362 4.595l-.29.182.16.342c.347.737.719 1.475.79 1.565.008.011.032.017.052.013a47.238 47.238 0 0 0 4.354-.866c.58-.145 1.785-.475 2.073-.568l.057-.018-.012-.248c-.03-.632-.1-1.559-.172-2.271-.19-1.892-.459-3.317-.774-4.124zM252.282 205.836a4.17 4.17 0 0 0-1.21.246 5.056 5.056 0 0 0-.874.444 4.23 4.23 0 0 0-1.756 2.478 4.505 4.505 0 0 0-.097 1.496 4.202 4.202 0 0 0 3.65 3.684l.221.025c.127.015.696-.006.88-.032a4.194 4.194 0 0 0 3.176-2.303c.147-.3.228-.513.297-.782a4.26 4.26 0 0 0-.213-2.75 4.226 4.226 0 0 0-2.838-2.392 4.244 4.244 0 0 0-1.236-.114zM261.877 171.346a3.188 3.188 0 0 0-3.199 4.218c.034.097.262.583.518 1.105 1.673 3.399 2.792 5.79 3.637 7.772.468 1.098.931 2.286.902 2.313-.014.014-.929.272-1.994.564-4.323 1.183-7.97 2.042-10.21 2.405-.857.139-.956.163-1.254.306-.928.445-1.61 1.453-1.737 2.566a3.39 3.39 0 0 0 .097 1.167c.39 1.454 1.798 2.449 3.307 2.337.635-.047 3.419-.608 6.223-1.254 3.051-.702 5.554-1.365 7.565-2.002l.18-.057.085.239.237.662c1.18 3.29 2.573 8.972 4.249 17.336.138.687.258 1.25.267 1.25.045-.001.52-.376.898-.71.29-.256 1.331-1.3 1.607-1.61.476-.537.784-.929.884-1.127l.06-.119-.01-.186c-.055-.917-.397-3.387-.816-5.893-.69-4.128-1.509-7.966-2.261-10.609a44.236 44.236 0 0 0-.263-.89c-.005-.012.067-.046.2-.092 3.582-1.25 8.45-3.445 11.427-5.153.699-.4 1.497-.907 1.745-1.107.17-.137.412-.39.541-.565a3.256 3.256 0 0 0 .482-2.942 3.178 3.178 0 0 0-2.014-2.017c-.66-.22-1.38-.218-1.98.007-.256.095-.541.244-1.155.603-2.834 1.654-5.292 2.837-8.702 4.19-1.013.401-2.344.91-2.354.9a19.103 19.103 0 0 1-.204-.639c-.95-3.078-2.559-7.38-3.88-10.372-.402-.91-.626-1.276-1.034-1.69a2.834 2.834 0 0 0-1.169-.74 3.32 3.32 0 0 0-.875-.165z" style="fill:#f2c45a;stroke-width:.064002;fill-opacity:1" transform="translate(-184.277 -171.342)"/></svg>