<svg xmlns="http://www.w3.org/2000/svg" width="440.439" height="736.061" viewBox="0 0 116.533 194.749"><path d="M63.609 194.62c-3.774-.713-11.339-.554-14.44-2.866-1.967-1.03-3.983-1.976-5.974-3-2.35-1.25-3.037-2.66-5.256-3.883-.567-.483-3.556-3.056-3.59-3.183-.967-.557-1.55-1.764-2.308-2.508-.366-.792-4.368-4.022-4.46-4.519 0-.15-.65-.923-1.446-1.718-1.893-1.624-3.64-4.236-4.893-5.46-.919-.43-3.236-3.703-3.517-3.863-.205-.733-.786-1.352-1.108-1.977-.282-.554-.788-1.305-1.124-1.668-.338-.988-1.081-1.721-1.39-2.55-.171-.473-.543-1.3-.825-1.839-.747-1.877-.941-3.047-1.2-4.871-.147-1.023.655-5.168 1.199-6.198.118-.223.3-.801.407-1.285.107-.485.492-1.552.857-2.373 1.114-2.506 1.957-5.35 1.765-5.956-.098-.31-.37-.857-.603-1.215-.234-.359-.434-.895-.446-1.19-.597-2.401-1.054-4.67-1.915-7.287-.072-.218-.109-.542-.08-.72.029-.18-.131-.68-.355-1.112-.224-.433-.407-1.052-.407-1.375 0-.323-.16-.775-.353-1.005-.384-.454-1.077-3.86-1.51-7.43-.37-3.034-.396-3.092-1.482-3.296-.52-.098-1.208-.46-1.529-.807-.628-.678-.622-.553-.33-6.347.66-2.02-.79-4.764-.726-6.222-.466-1.086-.395-2.393-.576-3.832-.525-4.107-.632-4.688-1.075-5.821-.228-.582-.517-1.325-.643-1.65-.126-.326-.164-.76-.085-.966.078-.205.016-.452-.14-.548-.155-.096-.282-.584-.282-1.085 0-.5-.103-.91-.228-.91s-.248-.864-.274-1.919c-.026-1.055-.152-2.335-.282-2.844-.13-.51-.212-2.06-.183-3.446.045-2.165.14-2.643.668-3.386.569-.798.718-.86 1.933-.805 1.608.074 1.894-.254 1.65-1.888-.099-.655-.168-1.488-.155-1.852.013-.364-.142-1.019-.346-1.455-.562-1.756-1.766-3.483-2.215-4.995-.54-.685-1.275-3.31-1.155-4.126.093-.632-.11-1.342-.75-2.62-.484-.964-.961-1.991-1.062-2.282-.101-.291-.373-1.006-.604-1.588-.46-1.16-.838-2.948-.754-3.572.16-1.191.697-3.34.889-3.558.12-1.361.995-2.568 1.281-3.78.686-2.115 1.118-4.28 1.852-6.2.305-2.075.945-2.892 1.709-4.481 1.37-3.191 2.911-3.907 4.375-6.335 3.572-3.802 7.663-7.832 11.748-10.58 1.39-.938 3.205-1.599 6.587-2.398 3.173-1.203 5.766-.944 7.854-3.367.189-.255 2.37-1.294 3.18-1.516.802-.258 1.48-.84 2.25-1.029.436-.103 1.15-.346 1.587-.538C44.68.926 47.225.58 51.17.458 53.258.393 56.573.255 58.537.15c1.965-.104 4.006-.17 4.537-.146 1.032.045 3.532.916 6.154 2.143.887.416 2.407 1.125 3.378 1.577.972.453 1.842.945 1.935 1.095.092.15.726.52 1.409.824.682.304 2.075.958 3.095 1.454 1.02.497 2.035.903 2.256.903.221 0 .637.163.924.361.287.199.82.453 1.183.564 1.612.494 5.72 3.816 6.777 5.48.466.732.909 1.058 1.752 1.288 4.852 1.323 5.884 2.174 13.04 10.74.506.607.92 1.179.92 1.27 0 .091.417.818.927 1.614.314 1.352 1.942 2.669 1.984 4 0 .272.177.746.392 1.054.215.308.576 1.733.802 3.168.225 1.434.478 2.787.561 3.005.084.218.189.831.233 1.362.045.53.227 1.236.404 1.568.178.332.379 1.207.447 1.945.76 1.06-.017 2.455.286 3.246.16.408.234 1.516.165 2.462.5 1.474-.661 2.762-.765 3.941-.036.458-.143.91-.237 1.003-.094.094-.17.485-.17.868s-.102.81-.226.948c-1.33 2.159-.428 5.847-1.006 7.559.333.616-1.143 4.427-.576 4.467.17 0 .523-.193.784-.429.363-.329.752-.387 1.673-.249 2.329.35 3.662 2.189 4.259 5.876.196 1.213.462 2.593.592 3.067.13.474.143 1.517.03 2.318-.554 2.055-.511 4.376-1.431 6.182-.218.416-.396.974-.396 1.238 0 .676-1.377 5.032-3.425 10.833-.59 1.672-1.076 3.22-1.08 3.44-.006.22-.302.995-.66 1.722-.358.728-.652 1.462-.653 1.631-.002.292-1.108 2.506-2.076 4.157-1.165 1.986-5.508 2.859-7.455 1.498-.507-.354-1.028-.817-1.156-1.028-.19-.312-.3-.265-.586.251-.194.35-.357.998-.362 1.442-.005.444-.117.92-.249 1.059-.132.138-.315.846-.407 1.574-.092.727-.217 1.501-.279 1.72-.116.41-.293 2.617-.542 6.746-.079 1.31-.252 2.917-.385 3.572-.133.655-.303 2.16-.377 3.343-.075 1.184-.258 2.697-.407 3.363-.15.667-.345 2.675-.434 4.463-.09 1.788-.253 3.43-.363 3.648-.232.966-.56 3.965-.424 4.374 1.148 1.016 1.259 2.333 1.8 3.38.321.61.612 1.396.647 1.745 2.053 4.738 1.34 9.552 1.44 14.09.047 1.03-.175 2.66-.708 5.184.197.774-.338 2.946-1.25 4.804-.56 1.031-.822 3.836-1.74 4.44-.594 3.482-4.941 7.286-7.086 9.286-3.342 3.323-3.738 3.7-9.041 5.1-4.837 1.445-9.476.902-13.762.865zm11.902-9.166c1.446-.614 2.53-1.89 3.813-4.483.665-1.345 1.258-2.675 1.318-2.956 1.523-3.958 4.017-4.625 6.857-6.964.203-.182.448-.331.543-.331.452 0 4.088-4.154 4.094-4.678.19-.647.797-1.042.935-1.703.06-.313.35-1.029.643-1.592.76-1.64 1.685-6.505.918-7.39-.598-.496-1.014.068-1.416 1.92-.44 2.021-1.51 4.367-2.664 5.84-2.1 2.678-4.035 4-8.073 5.51-1.745.653-2.197.762-5.024 1.21-4.444.33-9.108.075-13.361-.317a25.54 25.54 0 0 1-3.175-.536c-1.052-.31-2.19-.411-3.031-.756-1.95-.717-3.586-.925-5.272-1.807-.91-.56-1.527-.614-2.38-1.043-.57-.3-1.25-.471-1.651-.869-1.123-.578-3.311-1.799-4.377-.952-.536.434-.565.564-.273 1.205.18.395.563.78.85.856.896.403 1.813 1.494 2.574 1.747 1.502 1.239 3.12 1.557 4.498 2.25 2.855 1.683 5.989 2.143 8.817 3.23 1.299.377 2.434.733 3.456 1.62.846.751 1.123 1.494 1.419 3.795.21 1.638.503 3.528.8 5.16.212 1.173.787 2.074 1.53 2.398.832.363 6.563.09 7.632-.364zm.886-18.032c.436-.083 1.091-.2 1.455-.26.94-.175 1.737-.453 2.646-.798 1.47-.545 3.352-2.06 3.663-3.65.91-1.758 1.231-3.927 1.795-5.62.786-3.394 1.242-6.895 1.816-10.054.346-1.869.67-4.456.76-6.086.04-.727.168-2.516.286-3.974.185-2.297.156-2.7-.217-3.01-.33-.273-.517-.285-.801-.049-.296.246-.796 1.513-.713 1.806-.579 1.355-.843 2.813-1.358 4.301-.077.218-.46 1.409-.85 2.646-1.274 3.63-2.961 9.26-5.102 11.859-1.53 2.739-3.318 5.538-5.521 7.82.303 1-6.673 3.639-7.3 4.489-.447.688.71.89 4.655.81 2.195-.043 4.35-.147 4.786-.23zM58.67 155.15c3.62-.762 7.338-2.852 12.642-7.109 3.325-2.668 4.44-3.762 5.942-5.826 2.061-2.835 2.906-4.616 4.696-9.905.476-1.408 1.565-3.849 2.419-5.424.854-1.576 1.714-3.252 1.912-3.725.738-.784.935-1.619 1.337-2.516 1.417-3.144 2.168-6.85 2.263-11.176.026-1.164.086-2.236.133-2.381.047-.146.122-.682.167-1.191.11-1.262.288-2.5.37-2.58.101-.1.196-.538.232-1.084.019-.269.272-.763.563-1.099.662-.748.838-2 1.195-2.558.223-.34.338-.617.257-.617 2.53-3.329 2.077-7.337 2.99-10.054.252 0 .326-1.958.37-9.79.058-6.748.578-6.474-3.026-10.22-1.265-1.31-2.326-2.668-2.524-3.23-.378-1.075-.476-3.541-.339-8.51.067-2.408-.024-3.776-.334-5.033-1.022-2.907-.26-6.674-1.242-9.405-.12-.317-.287-1.454-.37-2.527-.207-2.654-.414-4.074-.787-5.392-.041-.146-.45-1.037-.909-1.981-.236-1.401-1.075-2.738-1.253-3.87l-.183-1.222-1.09.144c-1.065.14-1.668.27-2.876.618-.327.094-1.786.208-3.24.252-1.456.044-4.194.274-6.086.51-4.236.365-5.115.875-8.467 3.866-1.669 1.512-5.597 3.753-7.404 4.223-.439.114-1.784.499-2.99.855a128.83 128.83 0 0 1-2.317.67c-.705.136-2.097 1.298-4.884 4.074-3.896 3.75-4.299 4.35-8.787 4.547-3.06.126-5.693.457-7.266.913-2.803.436-4.77 2.023-7.362 2.03-1.09-.273-2.48-.208-3.374-.725-.327-.204-.97-.404-1.428-.445-.68-.06-.955.089-1.487.803-.898 1.206-1.03 1.958-.963 5.49.031 1.683.08 4.192.107 5.574.027 1.382.125 3.338.217 4.345.134 1.467.038 2.339-.48 4.38-.355 1.403-.725 3.228-.822 4.057-.174 1.478-.16 1.523.773 2.403 1.282 1.21 3.012 1.603 6.135 1.398 1.617-.106 3.067-.39 4.348-.852 3.045-1.099 4.374-1.134 6.958-.183 2.102.773 3.007 1.036 4.436 1.289 1.29.228 1.734.443 3.01 1.455.71.562 1.392 1.023 1.515 1.023.836 0 1.332 3.956.796 6.35-.146.655-.335 2.202-.42 3.44-.084 1.236-.206 2.546-.27 2.91-.064.363-.19 1.554-.279 2.645-.09 1.092-.698 4.068-1.354 6.615-1.4 5.444-1.592 7.236-.895 8.38.645 1.063 3.904 3.481 4.961 3.683.598.114 1.569-.091 3.307-.7 1.94-.68 3.055-.896 5.265-1.02 1.73-.097 2.967-.291 3.227-.508.233-.194.63-.891.881-1.55.4-1.048.417-1.4.13-2.786-.18-.873-.567-1.842-.859-2.154l-.531-.567.571-.088c.832-.127 3.103 1.484 4.772 3.386.792.903 1.55 1.84 1.682 2.082.133.242.324.5.424.573.214.156.79 1.216.79 1.454 0 .09-.15.072-.331-.042a2.144 2.144 0 0 0-.596-.255c-.145-.027-.86-.32-1.587-.651-.728-.332-1.54-.621-1.804-.644-.265-.022-1.04.53-1.722 1.226-1.408 1.438-2.96 2.205-5.073 2.508-1.814.26-1.49.184-3.063.72-.738.252-1.73.858-2.202 1.345-.808.834-.852.976-.73 2.377.076.885.029 1.429-.117 1.338a.29.29 0 0 1-.094-.398c.083-.136.034-.247-.11-.247-.143 0-.573-.66-.955-1.469-.794-1.678-1.07-1.85-2.45-1.526-.818.193-1.116.459-1.68 1.497-1.105 2.035-1.225 2.104-2.903 1.67-.791-.206-1.558-.3-1.703-.21-.146.09-.324.175-.397.19-.073.016-.581.229-1.13.473-1.377.615-3.166.825-3.858.455-.847-.453-1.385-1.984-1.256-3.572.067-.818.815-3.197 1.882-5.982.975-2.542 1.822-4.92 1.883-5.284.061-.364.525-1.461 1.03-2.44.505-.977.922-2.168.926-2.645-.287-3.133-1.144-6.555.58-9.474.314-.505.602-1.088.637-1.294.036-.207.295-.685.575-1.064 1.122-1.517 1.229-2.603.328-3.324-.51-.408-1.034-.523-2.297-.505-1.431.021-1.587-.024-1.25-.361.48-.48.455-.541-.776-1.896-1.039-1.142-1.926-1.352-2.298-.545-.746 1.62-1.05 2.046-1.862 2.595-1.561 1.058-3.203.372-4.681-1.955-.31-.487-.347-.478-.936.22-.338.4-.854.728-1.146.728-1.997 0-1.31 3.696.966 5.202 1.27.84 1.016 1.111-.893.954-2.098-.172-3.87-.745-6.778-2.191-1.46-.726-2.934-1.32-3.275-1.32-1.548 0-2.445 2.701-2.018 6.074.26 2.054 2.331 8.384 3.589 10.967 1.416 2.912 1.639 3.927 3.513 16.032 1.498 9.68 2.79 13.827 5.748 18.46.49.767.89 1.46.89 1.54 0 .209 5.515 8.556 6.278 9.501.352.437 1.495 1.668 2.54 2.737 3.755 3.84 6.962 4.72 13.143 3.606.364-.066 1.614.11 2.778.39 1.164.282 2.344.549 2.62.594.817.133 5.734-.237 7.17-.539zm-20.8-18.68c-.673-.193-1.634-.547-2.137-.786-1.768-1.25-3.888-3.38-4.316-5.489-.203-1.082.017-2.073.46-2.073.16 0 .214.076.122.168-.093.093.066.499.352.901.436 1.313 1.442 1.732 2.285 2.531.704.67 2.053 1.58 3 2.02 1.885.877 2.222.9 9.673.648 3.216-.108 3.622-.183 5.854-1.075 1.318-.528 2.494-.96 2.612-.96.436 0-1.389 1.656-3.152 2.861l-1.814 1.24-3.478.063c-1.913.034-4.55.117-5.86.183-1.543.079-2.81-.003-3.602-.232zm25.89-8.236c-.56-.304-1.381-.371-3.51-.288-1.554.06-3.45-.028-4.297-.2-.947-.194-2.858-.26-5.089-.175-4.2.159-10.601.126-15.61-.08-1.965-.081-3.95-.15-4.413-.155-.462-.004-1.02-.186-1.238-.405-.218-.218-.584-.397-.812-.397-.496 0-.503-.05-.12-.891.254-.555.43-.631 1.18-.509.543.088 1.525-.07 2.548-.408 5.637-1.867 5.821-1.894 7.543-1.113.689.313 2.07.577 3.603.69 2.372.174 2.531.151 3.469-.486.84-.57 1.201-.65 2.483-.55 1.82.141 4.195.826 7.738 2.23 1.762.698 3.008 1.036 3.675.997.818-.048 1.268.137 2.362.97 1.676 1.28 1.807 1.485.488.77zm-3.105-40.935c-1.762-.66-2.214-2.112-1.725-3.765.257-.825-1.06-1.69-2.14-1.406-.96.253-2.057 1.273-2.54 2.363-.396.44-.492 1.052-.724 1.298-.403 0-.44-.672-.142-2.514.249-1.536-.077-2.182-1.347-2.667-1.387-.53-1.47-.96-.445-2.297.946-1.231 2.606-1.97 5.195-2.308 1.147-.15 3.06-.57 4.253-.934 3.315-1.011 10.578-1.529 12.555-.895.522.168 1.642.772 2.489 1.344 1.754 1.184 4.032 2.287 6.53 3.162 2.683.94 3.44 1.466 3.44 2.39 0 .623-.096.758-.463.65-4.532-1.327-4.568-1.333-5.04-.859-.424.427-.4.543.41 2.01.892 1.616 1.124 2.584.529 2.213-.182-.113-.569-.243-.86-.288-1.335-.735-2.769-1.207-4.3-1.207-.909.008-1.653-.096-1.653-.231 0-.136-.496-.775-1.101-1.421-1.486-1.585-2.106-1.561-3.14.12-.95 1.544-2.245 2.277-3.582 2.026-1.148-.28-2.422-1.186-2.795-2.126-.283-.784-.46-.94-.989-.877-1.61.196-2.389 3.24-1.368 5.349.23.829.768.905 1.198 1.207.289.467-1.002.273-2.245-.337zm9.013-6.163c.728-.876-.626-1.845-1.44-1.03-.326.324-.363.55-.156.938.331.62 1.121.665 1.596.092zm34.726 27.896c.734-.386.965-.738.97-1.472.006-.705-.706-1.132-1.896-1.138-.582-.003-1.145-.248-1.671-.728-.732-.667-.889-.946-1.035-1.84-.029-.178-.115-.385-.19-.461-.077-.076-.11-.646-.075-1.267.035-.626-.095-1.344-.292-1.614-.342-.468-.372-.466-.82.057-.255.298-.496.696-.534.885-.038.188-.149.7-.246 1.136-.296 1.326-.215 4.346.134 4.998.777 1.452 4.052 2.288 5.655 1.444zm3.413-11.139c1.362-.778 2.569-2.327 3.108-3.986.18-.556.32-2.223.313-3.705-.008-1.481-.012-4.636-.008-7.01-.083-1.414.434-6.712-2.119-6.928-.205 0-1.078.722-1.94 1.605-1.336 1.37-1.572 1.758-1.607 2.646-.022.572-.141 1.04-.264 1.04-.522 0-.896.693-.685 1.265.21.568.614.72 1.659.626.274-.025.663.092.864.259 1.741 2.094 2.772 6.365 1.768 8.918-.236.534-.464 1.137-.506 1.341-.535.74-.513 1.284-1.392 1.474-1.352.26-1.755 1.45-.77 2.272.715.595.833.61 1.579.183zm-3.269-2.607c.355-.28.808-.821 1.007-1.205 1.924-.526-.405-7.644-2.255-6.729-.476.295-.75 1.758-.847 4.522-.034.946-.226 2.048-.428 2.45-.542 1.08-.094 1.78 1.025 1.604.47-.074 1.143-.363 1.498-.642zm-.492-15.517c0-.295 3.471-3.844 4.206-4.301.817-.508 2.937-2.59 2.937-2.883 0-.816-1.629-1.009-2.844-.336a10.489 10.489 0 0 0-3.462 2.206c-1.07 1.023-1.545 1.81-1.772 2.934-.051.255-.169.586-.26.734-.332.536.156 1.845.687 1.845.279 0 .508-.09.508-.199z" fill="#8c2318"/></svg>