<?xml version="1.0" encoding="UTF-8" standalone="no"?>
<!-- Created with Inkscape (http://www.inkscape.org/) -->

<svg
   xmlns:dc="http://purl.org/dc/elements/1.1/"
   xmlns:cc="http://creativecommons.org/ns#"
   xmlns:rdf="http://www.w3.org/1999/02/22-rdf-syntax-ns#"
   xmlns:svg="http://www.w3.org/2000/svg"
   xmlns="http://www.w3.org/2000/svg"
   xmlns:sodipodi="http://sodipodi.sourceforge.net/DTD/sodipodi-0.dtd"
   xmlns:inkscape="http://www.inkscape.org/namespaces/inkscape"
   width="116.53274mm"
   height="194.74948mm"
   viewBox="0 0 116.53274 194.74948"
   version="1.1"
   id="svg8"
   inkscape:version="0.92.3 (2405546, 2018-03-11)"
   sodipodi:docname="toufar-hlava.svg">
  <defs
     id="defs2" />
  <sodipodi:namedview
     id="base"
     pagecolor="#ffffff"
     bordercolor="#666666"
     borderopacity="1.0"
     inkscape:pageopacity="0.0"
     inkscape:pageshadow="2"
     inkscape:zoom="1.279766"
     inkscape:cx="180.65732"
     inkscape:cy="359.19652"
     inkscape:document-units="mm"
     inkscape:current-layer="layer1"
     showgrid="false"
     inkscape:window-width="1920"
     inkscape:window-height="1029"
     inkscape:window-x="0"
     inkscape:window-y="0"
     inkscape:window-maximized="1"
     fit-margin-top="0"
     fit-margin-left="0"
     fit-margin-right="0"
     fit-margin-bottom="0" />
  <metadata
     id="metadata5">
    <rdf:RDF>
      <cc:Work
         rdf:about="">
        <dc:format>image/svg+xml</dc:format>
        <dc:type
           rdf:resource="http://purl.org/dc/dcmitype/StillImage" />
        <dc:title></dc:title>
      </cc:Work>
    </rdf:RDF>
  </metadata>
  <g
     inkscape:label="Vrstva 1"
     inkscape:groupmode="layer"
     id="layer1"
     transform="translate(-28.64388,-47.37791)">
    <path
       style="fill:#8c2318;stroke-width:0.26458332;fill-opacity:1"
       d="m 92.252409,241.99739 c -3.773031,-0.71285 -11.338521,-0.5536 -14.440389,-2.86528 -1.966126,-1.03084 -3.982088,-1.97617 -5.973445,-3.0001 -2.348785,-1.25079 -3.036491,-2.66042 -5.255363,-3.88314 -0.567161,-0.48265 -3.555851,-3.05605 -3.590761,-3.18301 -0.966788,-0.55664 -1.549561,-1.76366 -2.307461,-2.50759 -0.365683,-0.79191 -4.367867,-4.0223 -4.460026,-4.51923 0,-0.14943 -0.650962,-0.92264 -1.44658,-1.71826 -1.892501,-1.6241 -3.638925,-4.2361 -4.892311,-5.46049 -0.918923,-0.42899 -3.23608,-3.70252 -3.51681,-3.86224 -0.205512,-0.73283 -0.786858,-1.3521 -1.108122,-1.97742 -0.282046,-0.554 -0.788062,-1.30427 -1.12448,-1.66727 -0.338212,-0.98831 -1.080788,-1.72142 -1.389067,-2.55097 -0.171837,-0.47294 -0.54347,-1.3002 -0.82585,-1.83836 -0.747343,-1.87663 -0.941218,-3.0474 -1.199348,-4.87112 -0.147082,-1.02317 0.65418,-5.16774 1.198176,-6.19764 0.117819,-0.22306 0.301218,-0.80167 0.407551,-1.2858 0.106334,-0.48414 0.49189,-1.55179 0.85679,-2.37257 1.113911,-2.50554 1.956625,-5.34945 1.764876,-5.95593 -0.09798,-0.30991 -0.36935,-0.85679 -0.603035,-1.21529 -0.233688,-0.35851 -0.434287,-0.89429 -0.445778,-1.19063 -0.596797,-2.40031 -1.053882,-4.66988 -1.914668,-7.28568 -0.07275,-0.21828 -0.108942,-0.54281 -0.08042,-0.72117 0.02852,-0.17836 -0.131297,-0.67847 -0.355145,-1.11134 -0.223848,-0.43288 -0.406996,-1.05147 -0.406996,-1.37466 0,-0.32319 -0.158972,-0.77559 -0.353271,-1.00533 -0.384009,-0.45405 -1.076429,-3.86014 -1.510263,-7.42917 -0.368951,-3.03522 -0.394949,-3.09307 -1.48152,-3.29692 -0.520169,-0.0976 -1.208106,-0.46049 -1.528749,-0.80647 -0.628316,-0.67797 -0.621835,-0.55337 -0.330179,-6.34765 0.659755,-2.01967 -0.789908,-4.76403 -0.725784,-6.22131 -0.466216,-1.08675 -0.394956,-2.39354 -0.576154,-3.83285 -0.524684,-4.10638 -0.632051,-4.68753 -1.075391,-5.82084 -0.227708,-0.58208 -0.51687,-1.32481 -0.642583,-1.65051 -0.125714,-0.32569 -0.164118,-0.76014 -0.08534,-0.96542 0.07878,-0.20529 0.01605,-0.45185 -0.139393,-0.54792 -0.155441,-0.0961 -0.282621,-0.58436 -0.282621,-1.08509 0,-0.50074 -0.102337,-0.91043 -0.227417,-0.91043 -0.125079,0 -0.248413,-0.8632 -0.274074,-1.91823 -0.02566,-1.05503 -0.152563,-2.33495 -0.282002,-2.84427 -0.12944,-0.50932 -0.211823,-2.0602 -0.183075,-3.44638 0.0449,-2.16477 0.139166,-2.64238 0.668181,-3.38531 0.568351,-0.79818 0.717621,-0.86033 1.933081,-0.80487 1.607875,0.0734 1.894118,-0.25439 1.649232,-1.88844 -0.09814,-0.65484 -0.167645,-1.48828 -0.154459,-1.85208 0.01318,-0.36381 -0.14238,-1.01865 -0.345699,-1.45521 -0.562271,-1.75547 -1.766492,-3.48218 -2.215062,-4.99447 -0.539719,-0.68497 -1.275045,-3.31103 -1.155396,-4.12625 0.09278,-0.63214 -0.110524,-1.3416 -0.750764,-2.61996 -0.482898,-0.964188 -0.960578,-1.991198 -1.061512,-2.282238 -0.100935,-0.29104 -0.372618,-1.00541 -0.60374,-1.5875 -0.460346,-1.15938 -0.837971,-2.947787 -0.754207,-3.571873 0.159925,-1.19153 0.696979,-3.341113 0.889095,-3.558646 0.120999,-1.360666 0.994739,-2.567568 1.281667,-3.780202 0.685841,-2.114092 1.117842,-4.279389 1.851818,-6.199042 0.304778,-2.075299 0.944786,-2.892471 1.708578,-4.481361 1.370837,-3.19116 2.911263,-3.906886 4.375433,-6.33497 3.572098,-3.80227 7.662439,-7.832124 11.747434,-10.580354 1.389931,-0.938054 3.205081,-1.598641 6.587051,-2.397227 3.173163,-1.203986 5.766579,-0.944916 7.853802,-3.367359 0.189256,-0.255084 2.369481,-1.294166 3.180784,-1.515944 0.801877,-0.258071 1.478962,-0.839627 2.248958,-1.029135 0.436563,-0.103527 1.150938,-0.345834 1.5875,-0.538461 1.356008,-0.598318 3.901406,-0.944326 7.847245,-1.066714 2.086933,-0.06473 5.401765,-0.202753 7.366297,-0.306717 1.964531,-0.103964 4.005937,-0.169861 4.536456,-0.146438 1.031713,0.04555 3.532048,0.916522 6.153768,2.143612 0.88709,0.415203 2.407588,1.124856 3.378888,1.577008 0.97129,0.452152 1.84171,0.944626 1.93427,1.094386 0.0926,0.149761 0.72662,0.520657 1.40901,0.824213 0.6824,0.303556 2.07522,0.958086 3.09516,1.454511 1.01993,0.496426 2.03524,0.902592 2.25623,0.902592 0.22099,0 0.63666,0.162556 0.9237,0.361235 0.28704,0.19868 0.81955,0.452495 1.18335,0.564032 1.61163,0.49411 5.72022,3.815741 6.77708,5.479007 0.46536,0.732383 0.90835,1.058198 1.75156,1.288258 4.8521,1.323847 5.88414,2.173965 13.03948,10.740935 0.5068,0.60679 0.92146,1.178057 0.92146,1.269479 0,0.09142 0.41672,0.817657 0.92605,1.613857 0.31457,1.352516 1.94247,2.668979 1.98437,3.99991 0,0.27209 0.17631,0.746429 0.39181,1.054089 0.21549,0.307661 0.57628,1.733135 0.80175,3.167727 0.22548,1.434589 0.47823,2.786938 0.56169,3.005219 0.0835,0.218281 0.18823,0.83121 0.23282,1.362062 0.0446,0.530852 0.22634,1.236609 0.40388,1.568347 0.17754,0.33174 0.37855,1.207092 0.44667,1.945229 0.76033,1.058829 -0.0173,2.454578 0.28592,3.245585 0.15963,0.40834 0.23402,1.51607 0.16535,2.46211 0.49902,1.473814 -0.66119,2.761698 -0.76551,3.941058 -0.036,0.45777 -0.1424,0.90924 -0.23642,1.00327 -0.094,0.094 -0.17095,0.48448 -0.17095,0.86769 0,0.3832 -0.10151,0.80984 -0.22558,0.94808 -1.3294,2.1586 -0.42777,5.84678 -1.00533,7.55827 0.33306,0.6162 -1.14373,4.42797 -0.57586,4.467 0.17045,0 0.52296,-0.19282 0.78336,-0.42848 0.36346,-0.32892 0.75221,-0.38667 1.67322,-0.24856 2.32876,0.34922 3.66177,2.18843 4.25869,5.87587 0.19624,1.21222 0.46274,2.59223 0.59223,3.06667 0.12948,0.47444 0.14318,1.51747 0.0304,2.31783 -0.55404,2.05527 -0.51132,4.37583 -1.43173,6.18181 -0.21739,0.41681 -0.39525,0.97413 -0.39525,1.23847 0,0.67596 -1.37713,5.03184 -3.42491,10.83299 -0.59015,1.67185 -1.07673,3.21966 -1.08128,3.43958 -0.005,0.21992 -0.30112,0.99517 -0.65904,1.72278 -0.35792,0.7276 -0.65185,1.46147 -0.65318,1.63083 -0.002,0.2919 -1.10796,2.50554 -2.07626,4.15683 -1.16445,1.9858 -5.50772,2.85863 -7.4547,1.49811 -0.50737,-0.35455 -1.02776,-0.8174 -1.15642,-1.02855 -0.19014,-0.31206 -0.2998,-0.26503 -0.58594,0.25131 -0.19361,0.34937 -0.35624,0.99836 -0.36139,1.44219 -0.005,0.44384 -0.11727,0.92009 -0.24914,1.05834 -0.13188,0.13824 -0.31499,0.84666 -0.40692,1.57427 -0.0919,0.7276 -0.21755,1.50151 -0.27916,1.71979 -0.11571,0.41002 -0.29303,2.61762 -0.54191,6.74687 -0.0789,1.30969 -0.25235,2.91704 -0.38536,3.57188 -0.13301,0.65484 -0.30265,2.15905 -0.37698,3.34268 -0.0743,1.18363 -0.25729,2.69715 -0.40659,3.36338 -0.14931,0.66623 -0.34471,2.67437 -0.43422,4.46253 -0.0895,1.78816 -0.25295,3.42979 -0.36318,3.64808 -0.23193,0.96599 -0.55962,3.9649 -0.42356,4.37396 1.14796,1.0163 1.25832,2.33324 1.80005,3.3804 0.32087,0.61005 0.61169,1.39514 0.64626,1.74464 2.05376,4.73849 1.34031,9.55163 1.44005,14.09076 0.0476,1.02973 -0.17478,2.66012 -0.70718,5.18367 0.1969,0.77353 -0.3385,2.94516 -1.2498,4.80315 -0.56129,1.03188 -0.82211,3.83639 -1.74132,4.44044 -0.59351,3.48167 -4.94069,7.28585 -7.08552,9.28548 -3.34147,3.32339 -3.73779,3.70002 -9.04094,5.10089 -4.83683,1.44509 -9.476181,0.90145 -13.762261,0.86509 z m 11.902441,-9.16567 c 1.44564,-0.6136 2.53054,-1.88905 3.81305,-4.48274 0.66522,-1.34532 1.25819,-2.67542 1.3177,-2.95576 1.52328,-3.95869 4.01771,-4.62563 6.85777,-6.96476 0.20283,-0.1819 0.44714,-0.33073 0.5429,-0.33073 0.45194,0 4.08752,-4.15424 4.09347,-4.67745 0.18975,-0.64727 0.79667,-1.04239 0.93546,-1.70302 0.0602,-0.31285 0.34956,-1.02929 0.6429,-1.59209 0.76012,-1.63993 1.68526,-6.50554 0.91733,-7.39103 -0.59718,-0.49562 -1.01358,0.0691 -1.41587,1.92018 -0.43937,2.02166 -1.50919,4.36715 -2.66377,5.84008 -2.09974,2.6787 -4.03536,3.99992 -8.07335,5.51072 -1.74419,0.65259 -2.19637,0.7615 -5.02352,1.20996 -4.44398,0.3297 -9.108481,0.075 -13.361461,-0.31744 -0.866243,-0.0774 -2.345663,-0.32684 -3.175,-0.53537 -1.051673,-0.31015 -2.188721,-0.41139 -3.031061,-0.75616 -1.948679,-0.71692 -3.58503,-0.925 -5.271955,-1.80725 -0.910392,-0.5593 -1.526167,-0.61405 -2.379224,-1.04327 -0.569967,-0.29902 -1.250225,-0.47084 -1.651664,-0.86857 -1.12295,-0.57854 -3.310657,-1.79873 -4.377033,-0.9521 -0.535504,0.43362 -0.56491,0.56359 -0.272654,1.20502 0.180174,0.39544 0.562846,0.7805 0.850382,0.85569 0.895747,0.40327 1.813089,1.49477 2.573314,1.74762 1.502716,1.2383 3.121143,1.55666 4.497916,2.24946 2.855807,1.68321 5.989405,2.14345 8.81734,3.22953 1.298692,0.3772 2.433631,0.73383 3.456207,1.62088 0.8455,0.75125 1.123125,1.49388 1.418785,3.79522 0.21035,1.63726 0.50322,3.52769 0.79929,5.15937 0.21286,1.17304 0.78789,2.07381 1.5311,2.39839 0.83155,0.36316 6.562178,0.0895 7.631648,-0.3644 z m 0.88573,-18.03171 c 0.43656,-0.083 1.09141,-0.20023 1.45521,-0.26046 0.93989,-0.17445 1.73744,-0.45247 2.64583,-0.7976 1.4702,-0.54471 3.35273,-2.06081 3.663,-3.65064 0.91121,-1.75736 1.2313,-3.92667 1.79535,-5.61962 0.78584,-3.39359 1.24162,-6.89499 1.81602,-10.05417 0.34637,-1.86843 0.66899,-4.45526 0.75896,-6.08541 0.0401,-0.72761 0.16923,-2.51616 0.28684,-3.97456 0.18523,-2.29689 0.15624,-2.69944 -0.21671,-3.00896 -0.33026,-0.27409 -0.51693,-0.28561 -0.80146,-0.0495 -0.29573,0.24544 -0.79546,1.51262 -0.71231,1.80626 -0.57906,1.35418 -0.84331,2.81258 -1.35846,4.3007 -0.077,0.21828 -0.45914,1.4089 -0.84927,2.64583 -1.27516,3.63081 -2.96204,9.26085 -5.10229,11.859 -1.53001,2.73855 -3.31854,5.53813 -5.52183,7.82033 0.30385,0.99937 -6.672204,3.63862 -7.298668,4.48831 -0.44748,0.68825 0.70986,0.88998 4.653898,0.81119 2.19568,-0.0439 4.34933,-0.14768 4.78589,-0.23069 z M 87.313501,202.52828 c 3.621109,-0.76223 7.338611,-2.85267 12.642341,-7.10909 3.324598,-2.66812 4.439888,-3.76181 5.941798,-5.82675 2.06139,-2.83415 2.90582,-4.61525 4.69593,-9.9048 0.47633,-1.40748 1.56489,-3.84826 2.41903,-5.42396 0.85414,-1.5757 1.71454,-3.25186 1.91201,-3.7248 0.73831,-0.78405 0.93557,-1.61895 1.33719,-2.51643 1.41713,-3.14372 2.16759,-6.84935 2.26331,-11.17576 0.0258,-1.16416 0.0854,-2.23573 0.13257,-2.38125 0.0472,-0.14552 0.12238,-0.6813 0.16717,-1.19062 0.11093,-1.26151 0.28845,-2.49951 0.3699,-2.57969 0.10152,-0.1 0.19564,-0.53866 0.23255,-1.08399 0.0182,-0.26878 0.2712,-0.76325 0.56224,-1.09882 0.66265,-0.74814 0.83805,-2.0013 1.1958,-2.55857 0.22214,-0.33904 0.33743,-0.61643 0.2562,-0.61643 2.52984,-3.32913 2.07721,-7.33709 2.99105,-10.05417 0.25124,0 0.32514,-1.958 0.36949,-9.78958 0.0579,-6.74865 0.57809,-6.47477 -3.02653,-10.2207 -1.26503,-1.30971 -2.32611,-2.66759 -2.52362,-3.2295 -0.37811,-1.07574 -0.47636,-3.54183 -0.33904,-8.51022 0.0666,-2.40837 -0.0242,-3.776518 -0.33395,-5.033688 -1.0218,-2.90686 -0.26052,-6.673743 -1.24237,-9.405045 -0.12021,-0.316193 -0.28694,-1.453311 -0.37051,-2.526932 -0.20656,-2.653839 -0.4136,-4.073358 -0.78637,-5.39162 -0.0411,-0.145521 -0.44997,-1.036953 -0.90849,-1.98096 -0.23666,-1.401018 -1.0757,-2.73776 -1.25312,-3.870383 l -0.18312,-1.221131 -1.08986,0.143796 c -1.06479,0.140488 -1.66829,0.270131 -2.8758,0.617781 -0.32742,0.09427 -1.78594,0.207629 -3.24115,0.251917 -1.45521,0.04429 -4.19364,0.27373 -6.08541,0.509863 -4.235527,0.365654 -5.114747,0.875146 -8.466669,3.866086 -1.669058,1.512377 -5.597316,3.753078 -7.404089,4.223335 -0.438897,0.114234 -1.784033,0.498758 -2.989191,0.854501 -1.205162,0.35574 -2.248205,0.657762 -2.317877,0.671158 -0.704649,0.135479 -2.0973,1.297032 -4.883635,4.073231 -3.896334,3.749942 -4.298985,4.349737 -8.787656,4.546928 -3.058951,0.125855 -5.692571,0.456665 -7.265866,0.912675 -2.803284,0.436058 -4.768996,2.022772 -7.362103,2.03051 -1.088984,-0.272806 -2.480451,-0.208277 -3.373437,-0.72568 -0.327422,-0.2039 -0.970317,-0.40391 -1.428658,-0.44446 -0.679061,-0.0601 -0.954291,0.0886 -1.486614,0.80331 -0.898287,1.206 -1.030282,1.95796 -0.963517,5.488898 0.03183,1.68359 0.08013,4.19217 0.107323,5.57461 0.02719,1.38245 0.124756,3.3377 0.21681,4.345 0.134059,1.46698 0.03876,2.3388 -0.478867,4.38084 -0.35543,1.40216 -0.725921,3.22737 -0.823312,4.05602 -0.173725,1.47813 -0.159099,1.52358 0.773192,2.40285 1.28251,1.20956 3.011935,1.60384 6.135087,1.39869 1.616861,-0.10621 3.066987,-0.39058 4.347816,-0.8526 3.045777,-1.09867 4.374025,-1.13358 6.958261,-0.18287 2.102255,0.77339 3.006921,1.03632 4.435708,1.28914 1.289574,0.22819 1.734299,0.44301 3.011125,1.45452 0.710232,0.56265 1.391785,1.023 1.51456,1.023 0.835641,0 1.331441,3.95688 0.795824,6.35131 -0.146323,0.65412 -0.335254,2.20134 -0.419846,3.43827 -0.08459,1.23693 -0.206097,2.54661 -0.270007,2.91042 -0.06391,0.3638 -0.189445,1.55442 -0.278959,2.64583 -0.08952,1.09141 -0.698743,4.06797 -1.353838,6.61458 -1.400461,5.44413 -1.591993,7.23589 -0.895855,8.38059 0.645821,1.06197 3.904842,3.48091 4.961532,3.6826 0.59835,0.11421 1.568776,-0.0914 3.307292,-0.70078 1.938994,-0.67964 3.054813,-0.89565 5.264796,-1.01918 1.729806,-0.0967 2.966368,-0.29148 3.22722,-0.50834 0.23259,-0.19336 0.628889,-0.89097 0.880663,-1.55023 0.400058,-1.04753 0.416441,-1.39876 0.129953,-2.7858 -0.1803,-0.87293 -0.56683,-1.84221 -0.858951,-2.15394 l -0.531133,-0.56679 0.571368,-0.0877 c 0.831493,-0.12762 3.102634,1.48387 4.772044,3.38599 0.791956,0.90235 1.548807,1.83907 1.681892,2.08159 0.133083,0.24252 0.32362,0.50047 0.42341,0.57323 0.214228,0.1562 0.789827,1.21541 0.789827,1.45343 0,0.0909 -0.148828,0.0723 -0.33073,-0.0413 -0.181901,-0.11364 -0.449791,-0.22871 -0.595312,-0.25571 -0.145521,-0.027 -0.859896,-0.32 -1.5875,-0.65109 -0.727604,-0.33109 -1.53952,-0.62048 -1.804257,-0.64308 -0.264737,-0.0226 -1.039366,0.52878 -1.721398,1.22529 -1.40812,1.43801 -2.960709,2.20567 -5.073303,2.50845 -1.813759,0.25995 -1.489999,0.18381 -3.062706,0.72029 -0.7386,0.25196 -1.729631,0.8571 -2.202291,1.34476 -0.808223,0.83387 -0.851699,0.97536 -0.730332,2.37688 0.07667,0.88534 0.02912,1.42848 -0.117126,1.33809 -0.135398,-0.0837 -0.177678,-0.26298 -0.09395,-0.39845 0.08372,-0.13546 0.03478,-0.2463 -0.108763,-0.2463 -0.143541,0 -0.573709,-0.66104 -0.955926,-1.46899 -0.794184,-1.67876 -1.069538,-1.85036 -2.449079,-1.52624 -0.818589,0.19233 -1.117279,0.45831 -1.681159,1.49707 -1.104755,2.03512 -1.224474,2.10396 -2.90285,1.66899 -0.791189,-0.20504 -1.557586,-0.29941 -1.703107,-0.20972 -0.145521,0.0897 -0.324115,0.17566 -0.396875,0.19105 -0.07276,0.0154 -0.581197,0.22817 -1.129861,0.47287 -1.377018,0.61413 -3.165774,0.82476 -3.858008,0.45429 -0.846686,-0.45313 -1.384928,-1.98379 -1.255885,-3.57149 0.06654,-0.81863 0.815128,-3.1975 1.88241,-5.98191 0.974569,-2.54254 1.821884,-4.92045 1.882923,-5.28425 0.06104,-0.3638 0.524375,-1.46149 1.029639,-2.43931 0.505265,-0.97782 0.921862,-2.16844 0.925775,-2.64583 -0.286581,-3.13248 -1.143389,-6.55468 0.579511,-9.47364 0.315058,-0.50564 0.602229,-1.08818 0.638154,-1.29454 0.03592,-0.20635 0.294304,-0.6849 0.574173,-1.06345 1.121973,-1.51755 1.229375,-2.60364 0.328697,-3.32386 -0.511107,-0.40869 -1.034005,-0.52372 -2.296912,-0.50527 -1.4317,0.0209 -1.587209,-0.024 -1.249823,-0.36144 0.479904,-0.47991 0.45479,-0.54118 -0.777023,-1.89593 -1.03837,-1.142 -1.925394,-1.35231 -2.297239,-0.54465 -0.745916,1.62016 -1.051266,2.04564 -1.8625,2.59527 -1.560954,1.05758 -3.202403,0.37174 -4.68099,-1.95582 -0.309134,-0.48663 -0.347004,-0.47772 -0.935982,0.22045 -0.337595,0.40018 -0.853419,0.7276 -1.146268,0.7276 -1.996119,0 -1.309478,3.69605 0.966447,5.20219 1.269883,0.84037 1.016325,1.11114 -0.893506,0.95416 -2.097538,-0.1724 -3.869262,-0.74514 -6.777826,-2.19102 -1.459878,-0.72572 -2.933552,-1.31949 -3.274828,-1.31949 -1.547563,0 -2.444892,2.70089 -2.017781,6.07338 0.260194,2.05451 2.331114,8.38394 3.58842,10.96742 1.416833,2.91128 1.639334,3.92659 3.513351,16.03211 1.4985,9.6798 2.789762,13.82641 5.748417,18.45983 0.489646,0.76681 0.890265,1.45954 0.890265,1.5394 0,0.20886 5.514435,8.55591 6.277324,9.50181 0.352097,0.43656 1.494753,1.66779 2.539238,2.73607 3.755369,3.8409 6.963042,4.72093 13.143855,3.60601 0.363802,-0.0656 1.613958,0.11048 2.778125,0.39133 1.164166,0.28086 2.343454,0.54761 2.620639,0.59278 0.816364,0.13306 5.733505,-0.2362 7.168944,-0.53835 z M 66.512994,183.84843 c -0.671735,-0.19396 -1.632781,-0.5479 -2.135656,-0.78653 -1.76846,-1.24906 -3.888088,-3.37965 -4.316775,-5.48856 -0.202859,-1.08205 0.01693,-2.07352 0.459655,-2.07352 0.15997,0 0.214996,0.0759 0.12228,0.16857 -0.09271,0.0927 0.06603,0.49805 0.35278,0.90074 0.435324,1.31264 1.442,1.73217 2.285023,2.53108 0.703469,0.67052 2.05294,1.57926 2.998825,2.01942 1.885524,0.8774 2.222889,0.90003 9.673691,0.64868 3.216484,-0.10851 3.62214,-0.18307 5.853639,-1.07588 1.318709,-0.5276 2.494465,-0.95928 2.612789,-0.95928 0.435197,0 -1.389343,1.65596 -3.151939,2.86071 l -1.814655,1.24033 -3.477908,0.0626 c -1.912851,0.0345 -4.549471,0.11701 -5.859159,0.18345 -1.543722,0.0783 -2.810817,-0.003 -3.60259,-0.23185 z m 25.890902,-8.23685 c -0.55944,-0.30346 -1.381281,-0.37083 -3.510573,-0.2878 -1.553133,0.0606 -3.449442,-0.028 -4.296646,-0.20078 -0.946898,-0.19306 -2.858129,-0.25844 -5.088384,-0.17407 -4.201036,0.15892 -10.60145,0.126 -15.610417,-0.0803 -1.964531,-0.0809 -3.950324,-0.15059 -4.412872,-0.15484 -0.46255,-0.004 -1.01959,-0.18633 -1.237871,-0.40461 -0.218282,-0.21828 -0.583975,-0.39687 -0.812649,-0.39687 -0.495597,0 -0.502241,-0.0499 -0.118703,-0.89169 0.252944,-0.55515 0.428191,-0.63072 1.179801,-0.50875 0.542382,0.088 1.524489,-0.0693 2.547199,-0.40809 5.636805,-1.86712 5.821394,-1.89434 7.543361,-1.11264 0.688377,0.3125 2.069552,0.57677 3.602543,0.6893 2.372301,0.17413 2.531163,0.15191 3.468994,-0.48536 0.839454,-0.57043 1.201677,-0.65081 2.482871,-0.55099 1.820982,0.14189 4.195363,0.82637 7.738417,2.23082 1.761879,0.6984 3.007519,1.03627 3.675192,0.99688 0.817248,-0.0482 1.267857,0.13705 2.361229,0.97087 1.676702,1.27867 1.80734,1.48429 0.488508,0.76891 z m -3.104948,-40.93465 c -1.762395,-0.66004 -2.213617,-2.11164 -1.72547,-3.76473 0.257617,-0.82547 -1.059053,-1.69088 -2.139717,-1.40637 -0.96043,0.25286 -2.057101,1.27324 -2.539336,2.36268 -0.396071,0.44004 -0.492574,1.0522 -0.724685,1.29798 -0.402529,0 -0.440489,-0.67157 -0.142079,-2.51355 0.248891,-1.53631 -0.07706,-2.18187 -1.346446,-2.66665 -1.38779,-0.53 -1.471261,-0.96055 -0.44532,-2.29698 0.945502,-1.23165 2.606164,-1.96964 5.194583,-2.30845 1.147151,-0.15015 3.060959,-0.57047 4.252904,-0.93404 3.315111,-1.01117 10.578958,-1.52892 12.555488,-0.89493 0.5223,0.16753 1.64222,0.77212 2.48871,1.34354 1.75402,1.18402 4.03203,2.28715 6.53071,3.16251 2.68234,0.9397 3.43958,1.46588 3.43958,2.39001 0,0.62328 -0.0956,0.75746 -0.46302,0.64992 -4.53237,-1.32663 -4.56791,-1.33269 -5.03941,-0.85884 -0.42468,0.42681 -0.40107,0.54281 0.4092,2.01002 0.89224,1.61562 1.12383,2.58421 0.52917,2.2131 -0.1819,-0.11352 -0.56885,-0.24305 -0.85989,-0.28785 -1.33492,-0.73539 -2.76882,-1.20726 -4.29948,-1.20776 -0.90951,0.008 -1.65365,-0.0958 -1.65365,-0.23107 0,-0.13525 -0.49562,-0.77469 -1.10138,-1.42098 -1.48516,-1.58456 -2.10579,-1.56076 -3.140248,0.12046 -0.95011,1.54411 -2.24476,2.27661 -3.5808,2.02597 -1.148127,-0.2791 -2.422709,-1.18642 -2.795033,-2.12565 -0.283496,-0.78399 -0.460949,-0.94131 -0.989394,-0.87716 -1.610262,0.19548 -2.38888,3.23976 -1.367991,5.34863 0.229149,0.82873 0.768405,0.90473 1.198221,1.20751 0.288708,0.46714 -1.002673,0.27313 -2.245219,-0.33732 z m 9.013164,-6.16283 c 0.72746,-0.87653 -0.62662,-1.84535 -1.44097,-1.031 -0.32512,0.32513 -0.36253,0.55167 -0.1551,0.93926 0.33111,0.61868 1.12107,0.66409 1.59607,0.0917 z m 34.725548,27.89611 c 0.73384,-0.38626 0.96567,-0.7379 0.97075,-1.47244 0.005,-0.70524 -0.70689,-1.13228 -1.89679,-1.13801 -0.58192,-0.003 -1.14453,-0.24789 -1.67104,-0.72795 -0.73162,-0.66708 -0.88857,-0.94623 -1.03439,-1.83986 -0.029,-0.17768 -0.11498,-0.38532 -0.19107,-0.46141 -0.0761,-0.0761 -0.10968,-0.64605 -0.0747,-1.26658 0.0353,-0.6259 -0.0945,-1.34452 -0.29153,-1.61403 -0.34237,-0.46821 -0.37204,-0.46616 -0.8198,0.0568 -0.25551,0.29842 -0.49582,0.69659 -0.53401,0.88482 -0.0382,0.18824 -0.14911,0.69943 -0.24648,1.136 -0.29581,1.32632 -0.21482,4.34686 0.13403,4.9987 0.77682,1.45148 4.05191,2.28777 5.65498,1.44398 z m 3.41273,-11.13904 c 1.36249,-0.77871 2.56951,-2.32697 3.10803,-3.98669 0.18026,-0.55557 0.32124,-2.22244 0.31327,-3.70416 -0.008,-1.48172 -0.0116,-4.63646 -0.008,-7.01052 -0.0828,-1.41341 0.43462,-6.71215 -2.11845,-6.92831 -0.20559,0 -1.07852,0.72243 -1.93984,1.6054 -1.33659,1.37019 -1.57205,1.75783 -1.60712,2.64583 -0.0226,0.57224 -0.14166,1.04043 -0.26458,1.04043 -0.5214,0 -0.89619,0.69274 -0.68446,1.2651 0.21004,0.56781 0.61398,0.72022 1.65852,0.62578 0.27405,-0.0248 0.66282,0.0915 0.86392,0.2584 1.74138,2.09452 2.77173,6.36499 1.76869,8.91825 -0.23674,0.53406 -0.46456,1.13769 -0.50628,1.3414 -0.53472,0.74027 -0.51335,1.28382 -1.39186,1.47358 -1.35253,0.26048 -1.75544,1.4497 -0.76974,2.27201 0.71407,0.59569 0.83271,0.60949 1.57804,0.1835 z m -3.26856,-2.60747 c 0.35491,-0.27917 0.808,-0.82119 1.00686,-1.2045 1.9237,-0.52611 -0.40514,-7.64461 -2.25462,-6.72887 -0.47599,0.29418 -0.75041,1.75794 -0.84767,4.52157 -0.0333,0.94589 -0.22559,2.04829 -0.42735,2.44979 -0.5424,1.07942 -0.0944,1.78038 1.02514,1.60394 0.46879,-0.0739 1.14272,-0.36275 1.49764,-0.64193 z m -0.49216,-15.51648 c 1.9e-4,-0.29495 3.47134,-3.84458 4.20657,-4.30168 0.817,-0.50794 2.93705,-2.58882 2.93705,-2.88279 0,-0.81587 -1.6291,-1.0084 -2.84427,-0.33615 -1.35681,0.52814 -2.48545,1.27997 -3.46169,2.20659 -1.06992,1.0231 -1.5451,1.80967 -1.77233,2.93377 -0.0516,0.25521 -0.1689,0.58554 -0.26069,0.73406 -0.33118,0.53586 0.15631,1.84463 0.68709,1.84463 0.27947,0 0.5082,-0.0893 0.50827,-0.19843 z"
       id="path841"
       inkscape:connector-curvature="0"
       sodipodi:nodetypes="ccccccccccccccccccccccccscccccccccccsssccccccccccccscccccccccccssccccccscccccsccccccccccccscccccccccscccccccscccccsccccccccccccccccccscccccscccccccccccccccccscccccccccscccccccccccccscsccccccccccccccccccccccsccccscccccccccccccsccsccssccccsccccccscccccsscssssscccccscccccccscscscccccccsccccssccsscscsccccccccccsccccscscccccccccscccscccccccsccccccccccscccccssccccccccccccccccccccccccccsccccccccccccccssccccccccccccccccccsccccscc" />
  </g>
</svg>
