<?xml version="1.0" encoding="UTF-8" standalone="no"?>
<svg
   xmlns:dc="http://purl.org/dc/elements/1.1/"
   xmlns:cc="http://creativecommons.org/ns#"
   xmlns:rdf="http://www.w3.org/1999/02/22-rdf-syntax-ns#"
   xmlns:svg="http://www.w3.org/2000/svg"
   xmlns="http://www.w3.org/2000/svg"
   id="svg901"
   preserveAspectRatio="xMidYMid meet"
   viewBox="0 0 1280.000000 1234.000000"
   height="1234.000000pt"
   width="1280.000000pt"
   version="1.0">
  <metadata
     id="metadata907">
    <rdf:RDF>
      <cc:Work
         rdf:about="">
        <dc:format>image/svg+xml</dc:format>
        <dc:type
           rdf:resource="http://purl.org/dc/dcmitype/StillImage" />
        <dc:title></dc:title>
      </cc:Work>
    </rdf:RDF>
  </metadata>
  <defs
     id="defs905" />
  <g
     id="g899"
     stroke="none"
     fill="#000000"
     transform="translate(0.000000,1234.000000) scale(0.100000,-0.100000)">
    <path
       style="fill:#8c2318;fill-opacity:1;stroke:none"
       id="path889"
       d="M6762 12329 c-810 -51 -1464 -278 -2027 -702 -354 -267 -837 -747 -1173 -1166 -991 -1234 -2487 -3807 -3182 -5472 -60 -143 -293 -769 -288 -774 2 -2 116 84 253 192 313 245 415 317 615 437 648 390 1456 717 2070 840 397 79 656 79 1250 0 1019 -136 1813 -377 2643 -802 344 -176 520 -281 814 -488 739 -521 979 -662 1308 -773 387 -130 700 -179 1089 -168 288 8 505 42 778 122 145 43 588 197 588 205 -1 7 -334 200 -348 200 -6 0 -26 -9 -45 -20 -52 -31 -259 -96 -397 -124 -532 -109 -1087 -74 -1525 95 -134 52 -749 359 -957 478 -402 230 -694 437 -957 679 -374 344 -781 998 -983 1581 -55 158 -108 355 -143 525 -57 284 -69 395 -69 646 0 196 3 238 22 330 114 522 460 1013 844 1195 229 109 484 74 712 -97 96 -72 165 -160 235 -302 68 -137 119 -278 161 -446 91 -364 102 -650 50 -1235 -17 -192 -30 -358 -28 -369 3 -23 379 516 511 731 298 490 489 1035 553 1583 32 270 23 663 -22 950 -115 734 -476 1377 -994 1773 -143 109 -364 229 -523 286 -261 92 -464 114 -835 90z" />
    <path
       style="fill:#8c2318;fill-opacity:1;stroke:none"
       id="path891"
       d="m 9655,11294 c -214,-17 -499,-54 -511,-67 301.0158,-664.195 436.8793,-1580.5718 335,-2172 -207.7479,-919.9659 -696.2523,-1971.9675 -1292,-2477 -126,-101 -351,-248 -380,-248 -21.0101,338.2801 54.2546,716.031 60,993 7,327 -6,498 -63,837 -113,678 -216,887 -459,937 -204,42 -394,-52 -564,-278 -66.2446,-81.8977 -109.6185,-178.3073 -168,-265 -301.6113,-561.3853 -222.0513,-1052.1391 -49,-1579 210.0972,-554.9946 407.2988,-993.1916 800,-1432 579.2791,-482.4333 1284.3401,-943.9475 1789,-1183 530.4868,-216.4391 1192.119,-307.6024 1699,-120 l -79,83 c -211,220 -448,541 -618,837 -251,436 -411,861 -486,1285 -30,171 -33,532 -6,690 84,484 311,893 607,1092 269,181 581,166 936,-47 349.663,-212.932 596.239,-615.4141 759,-925 145,-278 236,-515 340,-892 108,-391 95,-352 110,-323 29,56 224,531 248,605 184,565 181,1259 -9,2015 -234,933 -688,1669 -1321,2146 -326,246 -668,399 -1048,470 -88,16 -502,28 -630,18 z" />
    <path
       style="fill:#8c2318;fill-opacity:1;stroke:none"
       id="path893"
       d="M3635 5314 c-306 -31 -506 -61 -725 -110 -893 -199 -1784 -653 -2403 -1225 -193 -179 -363 -391 -408 -509 -10 -28 -17 -50 -15 -50 3 0 138 59 301 130 1190 523 1873 744 2545 827 201 24 606 24 780 0 628 -87 1649 -386 2250 -657 388 -176 898 -462 1605 -903 1022 -637 1636 -919 2238 -1029 174 -32 443 -32 607 1 468 92 986 383 1515 851 422 374 661 820 691 1294 6 96 5 109 -8 103 -26 -9 -255 -154 -373 -235 -60 -42 -229 -164 -375 -272 -146 -109 -328 -239 -405 -290 -408 -269 -757 -370 -1284 -370 -434 0 -790 65 -1169 214 -328 129 -492 220 -1337 740 -889 546 -1258 758 -1677 960 -513 249 -1079 425 -1626 508 -108 16 -196 21 -412 23 -151 1 -293 1 -315 -1z" />
    <path
       style="fill:#8c2318;fill-opacity:1;stroke:none"
       id="path895"
       d="M3080 3889 c-638 -45 -1306 -231 -1763 -490 -376 -214 -707 -511 -982 -880 -88 -117 -204 -300 -278 -436 -64 -119 -65 -118 61 -78 119 37 281 106 637 270 714 328 1034 447 1454 540 319 70 572 98 891 99 594 0 1046 -107 1791 -424 567 -242 1069 -535 2339 -1365 519 -339 698 -445 1015 -600 403 -196 718 -303 1095 -369 407 -72 737 -81 1095 -30 612 87 1135 333 1539 724 385 372 597 789 726 1430 27 134 58 340 52 340 -3 0 -52 -46 -111 -102 -282 -273 -854 -749 -1101 -917 -445 -303 -1315 -480 -1875 -382 -362 64 -827 212 -1105 351 -58 29 -456 263 -885 520 -826 495 -1251 742 -1610 935 -937 505 -1789 811 -2405 865 -132 11 -412 11 -580 -1z" />
    <path
       style="fill:#8c2318;fill-opacity:1;stroke:none"
       id="path897"
       d="M2890 2435 c-422 -47 -777 -157 -1345 -419 -369 -170 -591 -316 -828 -545 -205 -199 -369 -414 -525 -691 -96 -169 -96 -171 -31 -124 259 189 687 360 1334 533 660 176 1257 251 1690 211 366 -34 585 -120 1260 -495 402 -223 505 -277 705 -371 596 -277 1170 -436 1800 -498 491 -49 841 -47 1145 4 176 30 176 31 70 80 -49 23 -177 77 -285 120 -695 279 -1044 472 -1770 980 -1039 728 -1897 1140 -2530 1216 -143 17 -533 16 -690 -1z" />
  </g>
</svg>
